G04*
G04 #@! TF.GenerationSoftware,Altium Limited,Altium Designer,22.0.2 (36)*
G04*
G04 Layer_Color=16711935*
%FSLAX25Y25*%
%MOIN*%
G70*
G04*
G04 #@! TF.SameCoordinates,193994FF-6EAD-4761-9CDB-36F61985EFD9*
G04*
G04*
G04 #@! TF.FilePolarity,Positive*
G04*
G01*
G75*
%ADD12C,0.00787*%
%ADD97C,0.01500*%
D12*
X4605Y170669D02*
G03*
X-395Y165669I0J-5000D01*
G01*
X34961Y170669D02*
G03*
X39961Y175669I0J5000D01*
G01*
Y240965D02*
G03*
X34961Y245965I-5000J0D01*
G01*
X-395Y250965D02*
G03*
X4605Y245965I5000J0D01*
G01*
X251301Y12605D02*
G03*
X256301Y17605I0J5000D01*
G01*
Y341900D02*
G03*
X251301Y346900I-5000J0D01*
G01*
X4605D02*
G03*
X-395Y341900I0J-5000D01*
G01*
Y17605D02*
G03*
X4605Y12605I5000J0D01*
G01*
Y170669D02*
X34961D01*
X39961Y175669D02*
Y240965D01*
X4605Y245965D02*
X34961D01*
X-395Y250965D02*
Y341900D01*
X9290Y12605D02*
X251301D01*
X256301Y341900D02*
X256301Y17605D01*
X4605Y346900D02*
X251301D01*
X-395Y165669D02*
X-395Y17605D01*
X4605Y12605D02*
X9290D01*
D97*
X240061Y229742D02*
G03*
X240061Y229742I-4000J0D01*
G01*
X140636Y229742D02*
G03*
X140636Y229742I-3000J0D01*
G01*
X238627Y32541D02*
G03*
X238627Y32541I-3700J0D01*
G01*
X142427D02*
G03*
X142427Y32541I-2800J0D01*
G01*
M02*
