G04*
G04 #@! TF.GenerationSoftware,Altium Limited,Altium Designer,22.0.2 (36)*
G04*
G04 Layer_Color=8388736*
%FSLAX25Y25*%
%MOIN*%
G70*
G04*
G04 #@! TF.SameCoordinates,193994FF-6EAD-4761-9CDB-36F61985EFD9*
G04*
G04*
G04 #@! TF.FilePolarity,Negative*
G04*
G01*
G75*
%ADD17R,0.03937X0.04134*%
%ADD18R,0.04331X0.03740*%
%ADD19R,0.03740X0.04331*%
%ADD20R,0.05630X0.05630*%
%ADD21R,0.03937X0.08268*%
%ADD22R,0.08268X0.03937*%
%ADD23R,0.02894X0.08694*%
%ADD24R,0.09994X0.13594*%
%ADD25O,0.01496X0.03543*%
%ADD26O,0.03543X0.01496*%
%ADD27R,0.11024X0.11024*%
%ADD28R,0.04134X0.05906*%
%ADD29R,0.02953X0.01772*%
%ADD30R,0.04724X0.07087*%
%ADD31R,0.04134X0.03937*%
%ADD32R,0.04902X0.02559*%
%ADD33R,0.02559X0.04902*%
%ADD34R,0.06299X0.07874*%
%ADD35R,0.05118X0.11024*%
%ADD36R,0.02756X0.05118*%
%ADD37R,0.01575X0.05118*%
%ADD38R,0.02756X0.05906*%
%ADD39R,0.04803X0.05276*%
%ADD40R,0.05315X0.02756*%
%ADD41R,0.03937X0.04331*%
%ADD42R,0.05276X0.04803*%
%ADD43R,0.04331X0.18504*%
%ADD44R,0.06693X0.13780*%
%ADD45C,0.06795*%
%ADD46C,0.04795*%
%ADD47C,0.06394*%
%ADD48C,0.09843*%
%ADD49C,0.09252*%
%ADD50C,0.04528*%
%ADD51C,0.06902*%
%ADD52O,0.04331X0.09055*%
%ADD53O,0.04331X0.07480*%
G36*
X137636Y226514D02*
X138471Y226624D01*
X139250Y226946D01*
X139918Y227459D01*
X140431Y228128D01*
X140753Y228906D01*
X140864Y229742D01*
X140753Y230577D01*
X140431Y231356D01*
X139918Y232024D01*
X139250Y232537D01*
X138471Y232859D01*
X137636Y232969D01*
D01*
X136801Y232859D01*
X136022Y232537D01*
X135354Y232024D01*
X134841Y231356D01*
X134518Y230577D01*
X134408Y229742D01*
X134518Y228906D01*
X134841Y228128D01*
X135354Y227459D01*
X136022Y226946D01*
X136801Y226624D01*
X137636Y226514D01*
D01*
D02*
G37*
G36*
X236061Y225506D02*
X237158Y225650D01*
X238179Y226073D01*
X239056Y226747D01*
X239730Y227624D01*
X240153Y228646D01*
X240297Y229742D01*
X240153Y230838D01*
X239730Y231860D01*
X239056Y232737D01*
X238179Y233411D01*
X237158Y233834D01*
X236061Y233978D01*
D01*
X234965Y233834D01*
X233943Y233411D01*
X233066Y232737D01*
X232392Y231860D01*
X231969Y230838D01*
X231825Y229742D01*
X231969Y228646D01*
X232392Y227624D01*
X233066Y226747D01*
X233943Y226073D01*
X234965Y225650D01*
X236061Y225506D01*
D01*
D02*
G37*
D17*
X71467Y126129D02*
D03*
X65561D02*
D03*
X84014Y144329D02*
D03*
X78108D02*
D03*
X84061Y149929D02*
D03*
X78156D02*
D03*
X71467Y158029D02*
D03*
X65561D02*
D03*
X148408Y341917D02*
D03*
X154314D02*
D03*
Y328917D02*
D03*
X148408D02*
D03*
X154314Y315917D02*
D03*
X148408D02*
D03*
X91167Y252829D02*
D03*
X85261D02*
D03*
X85261Y258829D02*
D03*
X91167D02*
D03*
X49531Y265864D02*
D03*
X55436D02*
D03*
X49531Y271264D02*
D03*
X55436D02*
D03*
X61344Y292929D02*
D03*
X67249D02*
D03*
D18*
X52461Y134155D02*
D03*
Y140060D02*
D03*
X31261Y315283D02*
D03*
Y309378D02*
D03*
Y338385D02*
D03*
Y332479D02*
D03*
X52461Y143997D02*
D03*
Y149903D02*
D03*
X66796Y281929D02*
D03*
Y287834D02*
D03*
X140961Y305776D02*
D03*
Y311682D02*
D03*
X115061Y275486D02*
D03*
Y281392D02*
D03*
X48096Y282035D02*
D03*
Y287941D02*
D03*
D19*
X54753Y158000D02*
D03*
X48847D02*
D03*
X49782Y166093D02*
D03*
X43876D02*
D03*
X191634Y305610D02*
D03*
X197539D02*
D03*
X127801Y293429D02*
D03*
X121895D02*
D03*
D20*
X81396Y211444D02*
D03*
X74309D02*
D03*
X67223D02*
D03*
X81396Y204357D02*
D03*
X74309D02*
D03*
X67223D02*
D03*
X81396Y197271D02*
D03*
X74309D02*
D03*
X67223D02*
D03*
D21*
X44782Y241759D02*
D03*
X49782D02*
D03*
X54782D02*
D03*
X59782D02*
D03*
X64782D02*
D03*
X69782D02*
D03*
X74782D02*
D03*
X79782D02*
D03*
X84782D02*
D03*
X89782D02*
D03*
X94782D02*
D03*
X99782D02*
D03*
X104782D02*
D03*
X109782D02*
D03*
Y174830D02*
D03*
X104782D02*
D03*
X99782D02*
D03*
X94782D02*
D03*
X89782D02*
D03*
X84782D02*
D03*
X79782D02*
D03*
X74782D02*
D03*
X69782D02*
D03*
X64782D02*
D03*
X59782D02*
D03*
X54782D02*
D03*
X49782D02*
D03*
X44782D02*
D03*
D22*
X113719Y230794D02*
D03*
Y225794D02*
D03*
Y220794D02*
D03*
Y215794D02*
D03*
Y210794D02*
D03*
Y205794D02*
D03*
Y200794D02*
D03*
Y195794D02*
D03*
Y190794D02*
D03*
Y185794D02*
D03*
D23*
X195510Y245883D02*
D03*
X179762D02*
D03*
X167164D02*
D03*
X173463D02*
D03*
X192360D02*
D03*
X186061D02*
D03*
X182912D02*
D03*
X189211D02*
D03*
X170313D02*
D03*
X176612D02*
D03*
X164014D02*
D03*
X231730Y213600D02*
D03*
X228581D02*
D03*
X225431D02*
D03*
X219132D02*
D03*
X212833D02*
D03*
X209683D02*
D03*
X222282D02*
D03*
X215982D02*
D03*
X211258Y245883D02*
D03*
X214408D02*
D03*
X220707D02*
D03*
X230156D02*
D03*
X223856D02*
D03*
X217557D02*
D03*
X233305D02*
D03*
X227006D02*
D03*
X143542Y213600D02*
D03*
X146691D02*
D03*
X156140D02*
D03*
X162439D02*
D03*
X140392D02*
D03*
X159290D02*
D03*
X152990D02*
D03*
X165589D02*
D03*
X149841D02*
D03*
X154565Y245883D02*
D03*
X145116D02*
D03*
X148266D02*
D03*
X160864D02*
D03*
X157715D02*
D03*
X151416D02*
D03*
X141967D02*
D03*
X168738Y213600D02*
D03*
X190786D02*
D03*
X187636D02*
D03*
X184486D02*
D03*
X193935D02*
D03*
X175038D02*
D03*
X171888D02*
D03*
X181337D02*
D03*
X178187D02*
D03*
D24*
X244230Y243521D02*
D03*
X129467D02*
D03*
D25*
X210672Y301329D02*
D03*
X208705D02*
D03*
X206735D02*
D03*
X204768D02*
D03*
X202799D02*
D03*
X200831D02*
D03*
Y285581D02*
D03*
X202799D02*
D03*
X204768D02*
D03*
X206735D02*
D03*
X208705D02*
D03*
X210642D02*
D03*
D26*
X197879Y298375D02*
D03*
X197879Y296407D02*
D03*
X197879Y294438D02*
D03*
X197879Y292470D02*
D03*
X197879Y290501D02*
D03*
X197879Y288533D02*
D03*
X213627D02*
D03*
X213627Y290501D02*
D03*
X213627Y292470D02*
D03*
X213627Y294438D02*
D03*
X213627Y296407D02*
D03*
X213627Y298375D02*
D03*
D27*
X205704Y293455D02*
D03*
D28*
X167170Y315917D02*
D03*
X159689D02*
D03*
X167170Y328917D02*
D03*
X159689D02*
D03*
Y341917D02*
D03*
X167170D02*
D03*
D29*
X61097Y280570D02*
D03*
Y283129D02*
D03*
Y285688D02*
D03*
X52829D02*
D03*
Y283129D02*
D03*
Y280570D02*
D03*
D30*
X56963Y283129D02*
D03*
D31*
X37061Y315382D02*
D03*
Y309476D02*
D03*
Y338385D02*
D03*
Y332479D02*
D03*
X76895Y265865D02*
D03*
Y271770D02*
D03*
X222861Y289576D02*
D03*
Y295481D02*
D03*
X249977Y301408D02*
D03*
Y295502D02*
D03*
X228861Y295481D02*
D03*
Y289576D02*
D03*
X249977Y283676D02*
D03*
Y289581D02*
D03*
X134661Y281392D02*
D03*
Y275486D02*
D03*
D32*
X61242Y149903D02*
D03*
Y146753D02*
D03*
Y143604D02*
D03*
Y140454D02*
D03*
Y137304D02*
D03*
Y134155D02*
D03*
X69880D02*
D03*
Y137304D02*
D03*
Y140454D02*
D03*
Y143604D02*
D03*
Y146753D02*
D03*
Y149903D02*
D03*
D33*
X65561Y133769D02*
D03*
Y150289D02*
D03*
D34*
X234893Y21712D02*
D03*
X139617D02*
D03*
D35*
X239814Y44941D02*
D03*
X229971D02*
D03*
X134696D02*
D03*
X144538D02*
D03*
D36*
X193154Y322519D02*
D03*
X196304D02*
D03*
X215201D02*
D03*
X218351D02*
D03*
D37*
X198863D02*
D03*
X200831D02*
D03*
X202800D02*
D03*
X204768D02*
D03*
X206737D02*
D03*
X208705D02*
D03*
X210674D02*
D03*
X212642D02*
D03*
D38*
X128490Y275486D02*
D03*
X121010D02*
D03*
Y285329D02*
D03*
X124750D02*
D03*
X128490D02*
D03*
X140881Y299871D02*
D03*
X148361D02*
D03*
Y290029D02*
D03*
X144621D02*
D03*
X140881D02*
D03*
D39*
X74597Y281150D02*
D03*
Y292962D02*
D03*
D40*
X91764Y286869D02*
D03*
X83496Y283109D02*
D03*
Y290629D02*
D03*
Y272489D02*
D03*
Y264969D02*
D03*
X91764Y268729D02*
D03*
X61831Y272489D02*
D03*
Y264969D02*
D03*
X70098Y268729D02*
D03*
X243144Y301408D02*
D03*
X234877Y297648D02*
D03*
Y305167D02*
D03*
X243252Y283676D02*
D03*
X234984Y279916D02*
D03*
Y287436D02*
D03*
D41*
X25632Y315778D02*
D03*
X9490D02*
D03*
Y309479D02*
D03*
X25632D02*
D03*
Y332479D02*
D03*
X9490D02*
D03*
Y338778D02*
D03*
X25632D02*
D03*
X10190Y292678D02*
D03*
X26332D02*
D03*
Y286379D02*
D03*
X10190D02*
D03*
D42*
X119041Y302129D02*
D03*
X130852D02*
D03*
D43*
X120911Y318412D02*
D03*
X128785D02*
D03*
D44*
X111462Y338885D02*
D03*
X138234D02*
D03*
D45*
X236061Y229742D02*
D03*
D46*
X137636Y229742D02*
D03*
D47*
X111700Y21400D02*
D03*
X19180D02*
D03*
X111700Y115101D02*
D03*
X19180D02*
D03*
X80440Y115707D02*
D03*
X70440Y115495D02*
D03*
X60440D02*
D03*
X50440D02*
D03*
D48*
X53861Y303893D02*
D03*
X72759D02*
D03*
X91656D02*
D03*
D49*
X46578Y340114D02*
D03*
X98940D02*
D03*
D50*
X139617Y32539D02*
D03*
D51*
X234893D02*
D03*
D52*
X188745Y340629D02*
D03*
X222761D02*
D03*
D53*
X222761Y324881D02*
D03*
X188745D02*
D03*
M02*
