G04*
G04 #@! TF.GenerationSoftware,Altium Limited,Altium Designer,21.8.1 (53)*
G04*
G04 Layer_Color=2752767*
%FSLAX24Y24*%
%MOIN*%
G70*
G04*
G04 #@! TF.SameCoordinates,22B1FE7D-4BBE-461E-9046-B7CE90722CBB*
G04*
G04*
G04 #@! TF.FilePolarity,Positive*
G04*
G01*
G75*
%ADD112C,0.0020*%
%ADD113C,0.0027*%
%ADD114C,0.0013*%
D112*
X21751Y29448D02*
Y29608D01*
X21911D01*
Y29448D01*
X21751D01*
Y28660D02*
Y28820D01*
X21911D01*
Y28660D01*
X21751D01*
X23350Y25904D02*
X23270Y26064D01*
X23430D01*
X23350Y25904D01*
X7283Y30038D02*
X7323Y30078D01*
X7363D01*
X7323Y30118D01*
X7363Y30158D01*
X7323D01*
X7283Y30198D01*
X7243Y30158D01*
X7203D01*
X7243Y30118D01*
X7203Y30078D01*
X7243D01*
X7283Y30038D01*
Y28038D02*
X7323Y28078D01*
X7363D01*
X7323Y28118D01*
X7363Y28158D01*
X7323D01*
X7283Y28198D01*
X7243Y28158D01*
X7203D01*
X7243Y28118D01*
X7203Y28078D01*
X7243D01*
X7283Y28038D01*
Y32038D02*
X7323Y32078D01*
X7363D01*
X7323Y32118D01*
X7363Y32158D01*
X7323D01*
X7283Y32198D01*
X7243Y32158D01*
X7203D01*
X7243Y32118D01*
X7203Y32078D01*
X7243D01*
X7283Y32038D01*
X10630Y32038D02*
X10670Y32078D01*
X10710D01*
X10670Y32118D01*
X10710Y32158D01*
X10670D01*
X10630Y32198D01*
X10590Y32158D01*
X10550D01*
X10590Y32118D01*
X10550Y32078D01*
X10590D01*
X10630Y32038D01*
Y28038D02*
X10670Y28078D01*
X10710D01*
X10670Y28118D01*
X10710Y28158D01*
X10670D01*
X10630Y28198D01*
X10590Y28158D01*
X10550D01*
X10590Y28118D01*
X10550Y28078D01*
X10590D01*
X10630Y28038D01*
Y30038D02*
X10670Y30078D01*
X10710D01*
X10670Y30118D01*
X10710Y30158D01*
X10670D01*
X10630Y30198D01*
X10590Y30158D01*
X10550D01*
X10590Y30118D01*
X10550Y30078D01*
X10590D01*
X10630Y30038D01*
X15748D02*
X15788Y30078D01*
X15828D01*
X15788Y30118D01*
X15828Y30158D01*
X15788D01*
X15748Y30198D01*
X15708Y30158D01*
X15668D01*
X15708Y30118D01*
X15668Y30078D01*
X15708D01*
X15748Y30038D01*
Y28038D02*
X15788Y28078D01*
X15828D01*
X15788Y28118D01*
X15828Y28158D01*
X15788D01*
X15748Y28198D01*
X15708Y28158D01*
X15668D01*
X15708Y28118D01*
X15668Y28078D01*
X15708D01*
X15748Y28038D01*
Y32038D02*
X15788Y32078D01*
X15828D01*
X15788Y32118D01*
X15828Y32158D01*
X15788D01*
X15748Y32198D01*
X15708Y32158D01*
X15668D01*
X15708Y32118D01*
X15668Y32078D01*
X15708D01*
X15748Y32038D01*
X13621Y6180D02*
X13661Y6260D01*
X13621Y6340D01*
X13701Y6300D01*
X13781Y6340D01*
X13741Y6260D01*
X13781Y6180D01*
X13701Y6220D01*
X13621Y6180D01*
X23503Y6220D02*
Y6180D01*
X23583D01*
Y6220D01*
X23623D01*
Y6300D01*
X23583D01*
Y6340D01*
X23503D01*
Y6300D01*
X23463D01*
Y6220D01*
X23503D01*
X21278Y33552D02*
X21318D01*
X21358Y33592D01*
X21398Y33552D01*
X21438D01*
Y33592D01*
X21398Y33632D01*
X21438Y33672D01*
Y33712D01*
X21398D01*
X21358Y33672D01*
X21318Y33712D01*
X21278D01*
Y33672D01*
X21318Y33632D01*
X21278Y33592D01*
Y33552D01*
X24782D02*
X24822D01*
X24862Y33592D01*
X24902Y33552D01*
X24942D01*
Y33592D01*
X24902Y33632D01*
X24942Y33672D01*
Y33712D01*
X24902D01*
X24862Y33672D01*
X24822Y33712D01*
X24782D01*
Y33672D01*
X24822Y33632D01*
X24782Y33592D01*
Y33552D01*
X21278Y34892D02*
X21358Y34972D01*
X21438Y34892D01*
X21358Y34812D01*
X21278Y34892D01*
X24782D02*
X24862Y34972D01*
X24942Y34892D01*
X24862Y34812D01*
X24782Y34892D01*
X11103Y11442D02*
Y11602D01*
X11263D01*
Y11442D01*
X11103D01*
X11143Y11482D02*
Y11562D01*
X11223D01*
Y11482D01*
X11143D01*
X1851Y11442D02*
Y11602D01*
X2011D01*
Y11442D01*
X1851D01*
X1891Y11482D02*
Y11562D01*
X1971D01*
Y11482D01*
X1891D01*
X11103Y20813D02*
Y20973D01*
X11263D01*
Y20813D01*
X11103D01*
X11143Y20853D02*
Y20933D01*
X11223D01*
Y20853D01*
X11143D01*
X1851Y20813D02*
Y20973D01*
X2011D01*
Y20813D01*
X1851D01*
X1891Y20853D02*
Y20933D01*
X1971D01*
Y20853D01*
X1891D01*
X19094Y32038D02*
X19134Y32078D01*
X19174D01*
X19134Y32118D01*
X19174Y32158D01*
X19134D01*
X19094Y32198D01*
X19054Y32158D01*
X19014D01*
X19054Y32118D01*
X19014Y32078D01*
X19054D01*
X19094Y32038D01*
Y30038D02*
X19134Y30078D01*
X19174D01*
X19134Y30118D01*
X19174Y30158D01*
X19134D01*
X19094Y30198D01*
X19054Y30158D01*
X19014D01*
X19054Y30118D01*
X19014Y30078D01*
X19054D01*
X19094Y30038D01*
Y29038D02*
X19134Y29078D01*
X19174D01*
X19134Y29118D01*
X19174Y29158D01*
X19134D01*
X19094Y29198D01*
X19054Y29158D01*
X19014D01*
X19054Y29118D01*
X19014Y29078D01*
X19054D01*
X19094Y29038D01*
Y28038D02*
X19134Y28078D01*
X19174D01*
X19134Y28118D01*
X19174Y28158D01*
X19134D01*
X19094Y28198D01*
X19054Y28158D01*
X19014D01*
X19054Y28118D01*
X19014Y28078D01*
X19054D01*
X19094Y28038D01*
X1181Y1101D02*
X1101Y1261D01*
X1261D01*
X1181Y1101D01*
Y1141D02*
X1141Y1221D01*
X1221D01*
X1181Y1141D01*
X24409Y1101D02*
X24329Y1261D01*
X24489D01*
X24409Y1101D01*
Y1141D02*
X24369Y1221D01*
X24449D01*
X24409Y1141D01*
Y29448D02*
X24329Y29608D01*
X24489D01*
X24409Y29448D01*
Y29488D02*
X24369Y29568D01*
X24449D01*
X24409Y29488D01*
X1181Y29448D02*
X1101Y29608D01*
X1261D01*
X1181Y29448D01*
Y29488D02*
X1141Y29568D01*
X1221D01*
X1181Y29488D01*
X13189Y29448D02*
X13109Y29608D01*
X13269D01*
X13189Y29448D01*
Y29488D02*
X13149Y29568D01*
X13229D01*
X13189Y29488D01*
X12244Y1540D02*
X12284Y1581D01*
X12324D01*
X12284Y1620D01*
X12324Y1661D01*
X12284D01*
X12244Y1700D01*
X12204Y1661D01*
X12164D01*
X12204Y1620D01*
X12164Y1581D01*
X12204D01*
X12244Y1540D01*
Y1581D02*
X12264Y1601D01*
X12284D01*
X12264Y1620D01*
X12284Y1640D01*
X12264D01*
X12244Y1661D01*
X12224Y1640D01*
X12204D01*
X12224Y1620D01*
X12204Y1601D01*
X12224D01*
X12244Y1581D01*
X11398Y2169D02*
X11438Y2209D01*
X11478D01*
X11438Y2249D01*
X11478Y2289D01*
X11438D01*
X11398Y2329D01*
X11358Y2289D01*
X11318D01*
X11358Y2249D01*
X11318Y2209D01*
X11358D01*
X11398Y2169D01*
Y2209D02*
X11418Y2229D01*
X11438D01*
X11418Y2249D01*
X11438Y2269D01*
X11418D01*
X11398Y2289D01*
X11378Y2269D01*
X11358D01*
X11378Y2249D01*
X11358Y2229D01*
X11378D01*
X11398Y2209D01*
Y1533D02*
X11438Y1573D01*
X11478D01*
X11438Y1613D01*
X11478Y1653D01*
X11438D01*
X11398Y1693D01*
X11358Y1653D01*
X11318D01*
X11358Y1613D01*
X11318Y1573D01*
X11358D01*
X11398Y1533D01*
Y1573D02*
X11418Y1593D01*
X11438D01*
X11418Y1613D01*
X11438Y1633D01*
X11418D01*
X11398Y1653D01*
X11378Y1633D01*
X11358D01*
X11378Y1613D01*
X11358Y1593D01*
X11378D01*
X11398Y1573D01*
X10925Y33975D02*
X10965Y34015D01*
X11005D01*
X10965Y34055D01*
X11005Y34095D01*
X10965D01*
X10925Y34135D01*
X10885Y34095D01*
X10845D01*
X10885Y34055D01*
X10845Y34015D01*
X10885D01*
X10925Y33975D01*
Y34015D02*
X10945Y34035D01*
X10965D01*
X10945Y34055D01*
X10965Y34075D01*
X10945D01*
X10925Y34095D01*
X10905Y34075D01*
X10885D01*
X10905Y34055D01*
X10885Y34035D01*
X10905D01*
X10925Y34015D01*
X18465Y29605D02*
X18505Y29645D01*
X18545D01*
X18505Y29685D01*
X18545Y29725D01*
X18505D01*
X18465Y29765D01*
X18425Y29725D01*
X18385D01*
X18425Y29685D01*
X18385Y29645D01*
X18425D01*
X18465Y29605D01*
Y29645D02*
X18485Y29665D01*
X18505D01*
X18485Y29685D01*
X18505Y29705D01*
X18485D01*
X18465Y29725D01*
X18445Y29705D01*
X18425D01*
X18445Y29685D01*
X18425Y29665D01*
X18445D01*
X18465Y29645D01*
X20709Y31337D02*
X20749Y31377D01*
X20789D01*
X20749Y31417D01*
X20789Y31457D01*
X20749D01*
X20709Y31497D01*
X20669Y31457D01*
X20629D01*
X20669Y31417D01*
X20629Y31377D01*
X20669D01*
X20709Y31337D01*
Y31377D02*
X20729Y31397D01*
X20749D01*
X20729Y31417D01*
X20749Y31437D01*
X20729D01*
X20709Y31457D01*
X20689Y31437D01*
X20669D01*
X20689Y31417D01*
X20669Y31397D01*
X20689D01*
X20709Y31377D01*
X19449Y31337D02*
X19489Y31377D01*
X19529D01*
X19489Y31417D01*
X19529Y31457D01*
X19489D01*
X19449Y31497D01*
X19409Y31457D01*
X19369D01*
X19409Y31417D01*
X19369Y31377D01*
X19409D01*
X19449Y31337D01*
Y31377D02*
X19469Y31397D01*
X19489D01*
X19469Y31417D01*
X19489Y31437D01*
X19469D01*
X19449Y31457D01*
X19429Y31437D01*
X19409D01*
X19429Y31417D01*
X19409Y31397D01*
X19429D01*
X19449Y31377D01*
X17362Y29605D02*
X17402Y29645D01*
X17442D01*
X17402Y29685D01*
X17442Y29725D01*
X17402D01*
X17362Y29765D01*
X17322Y29725D01*
X17282D01*
X17322Y29685D01*
X17282Y29645D01*
X17322D01*
X17362Y29605D01*
Y29645D02*
X17382Y29665D01*
X17402D01*
X17382Y29685D01*
X17402Y29705D01*
X17382D01*
X17362Y29725D01*
X17342Y29705D01*
X17322D01*
X17342Y29685D01*
X17322Y29665D01*
X17342D01*
X17362Y29645D01*
X11535Y24251D02*
X11575Y24291D01*
X11615D01*
X11575Y24331D01*
X11615Y24371D01*
X11575D01*
X11535Y24411D01*
X11495Y24371D01*
X11455D01*
X11495Y24331D01*
X11455Y24291D01*
X11495D01*
X11535Y24251D01*
Y24291D02*
X11555Y24311D01*
X11575D01*
X11555Y24331D01*
X11575Y24351D01*
X11555D01*
X11535Y24371D01*
X11515Y24351D01*
X11495D01*
X11515Y24331D01*
X11495Y24311D01*
X11515D01*
X11535Y24291D01*
X12111Y25206D02*
X12151Y25246D01*
X12191D01*
X12151Y25286D01*
X12191Y25326D01*
X12151D01*
X12111Y25366D01*
X12071Y25326D01*
X12031D01*
X12071Y25286D01*
X12031Y25246D01*
X12071D01*
X12111Y25206D01*
Y25246D02*
X12131Y25266D01*
X12151D01*
X12131Y25286D01*
X12151Y25306D01*
X12131D01*
X12111Y25326D01*
X12091Y25306D01*
X12071D01*
X12091Y25286D01*
X12071Y25266D01*
X12091D01*
X12111Y25246D01*
X11339Y23670D02*
X11379Y23710D01*
X11419D01*
X11379Y23750D01*
X11419Y23790D01*
X11379D01*
X11339Y23830D01*
X11299Y23790D01*
X11259D01*
X11299Y23750D01*
X11259Y23710D01*
X11299D01*
X11339Y23670D01*
Y23710D02*
X11359Y23730D01*
X11379D01*
X11359Y23750D01*
X11379Y23770D01*
X11359D01*
X11339Y23790D01*
X11319Y23770D01*
X11299D01*
X11319Y23750D01*
X11299Y23730D01*
X11319D01*
X11339Y23710D01*
X23518Y32795D02*
X23558Y32835D01*
X23598D01*
X23558Y32875D01*
X23598Y32915D01*
X23558D01*
X23518Y32955D01*
X23478Y32915D01*
X23438D01*
X23478Y32875D01*
X23438Y32835D01*
X23478D01*
X23518Y32795D01*
Y32835D02*
X23538Y32855D01*
X23558D01*
X23538Y32875D01*
X23558Y32895D01*
X23538D01*
X23518Y32915D01*
X23498Y32895D01*
X23478D01*
X23498Y32875D01*
X23478Y32855D01*
X23498D01*
X23518Y32835D01*
X23006Y32841D02*
X23046Y32881D01*
X23086D01*
X23046Y32921D01*
X23086Y32961D01*
X23046D01*
X23006Y33001D01*
X22966Y32961D01*
X22926D01*
X22966Y32921D01*
X22926Y32881D01*
X22966D01*
X23006Y32841D01*
Y32881D02*
X23026Y32901D01*
X23046D01*
X23026Y32921D01*
X23046Y32941D01*
X23026D01*
X23006Y32961D01*
X22986Y32941D01*
X22966D01*
X22986Y32921D01*
X22966Y32901D01*
X22986D01*
X23006Y32881D01*
X24273Y27221D02*
X24313Y27261D01*
X24353D01*
X24313Y27301D01*
X24353Y27341D01*
X24313D01*
X24273Y27381D01*
X24233Y27341D01*
X24193D01*
X24233Y27301D01*
X24193Y27261D01*
X24233D01*
X24273Y27221D01*
Y27261D02*
X24293Y27281D01*
X24313D01*
X24293Y27301D01*
X24313Y27321D01*
X24293D01*
X24273Y27341D01*
X24253Y27321D01*
X24233D01*
X24253Y27301D01*
X24233Y27281D01*
X24253D01*
X24273Y27261D01*
Y23284D02*
X24313Y23324D01*
X24353D01*
X24313Y23364D01*
X24353Y23404D01*
X24313D01*
X24273Y23444D01*
X24233Y23404D01*
X24193D01*
X24233Y23364D01*
X24193Y23324D01*
X24233D01*
X24273Y23284D01*
Y23324D02*
X24293Y23344D01*
X24313D01*
X24293Y23364D01*
X24313Y23384D01*
X24293D01*
X24273Y23404D01*
X24253Y23384D01*
X24233D01*
X24253Y23364D01*
X24233Y23344D01*
X24253D01*
X24273Y23324D01*
Y21316D02*
X24313Y21356D01*
X24353D01*
X24313Y21396D01*
X24353Y21436D01*
X24313D01*
X24273Y21476D01*
X24233Y21436D01*
X24193D01*
X24233Y21396D01*
X24193Y21356D01*
X24233D01*
X24273Y21316D01*
Y21356D02*
X24293Y21376D01*
X24313D01*
X24293Y21396D01*
X24313Y21416D01*
X24293D01*
X24273Y21436D01*
X24253Y21416D01*
X24233D01*
X24253Y21396D01*
X24233Y21376D01*
X24253D01*
X24273Y21356D01*
Y19347D02*
X24313Y19387D01*
X24353D01*
X24313Y19427D01*
X24353Y19467D01*
X24313D01*
X24273Y19507D01*
X24233Y19467D01*
X24193D01*
X24233Y19427D01*
X24193Y19387D01*
X24233D01*
X24273Y19347D01*
Y19387D02*
X24293Y19407D01*
X24313D01*
X24293Y19427D01*
X24313Y19447D01*
X24293D01*
X24273Y19467D01*
X24253Y19447D01*
X24233D01*
X24253Y19427D01*
X24233Y19407D01*
X24253D01*
X24273Y19387D01*
Y17379D02*
X24313Y17419D01*
X24353D01*
X24313Y17459D01*
X24353Y17499D01*
X24313D01*
X24273Y17539D01*
X24233Y17499D01*
X24193D01*
X24233Y17459D01*
X24193Y17419D01*
X24233D01*
X24273Y17379D01*
Y17419D02*
X24293Y17439D01*
X24313D01*
X24293Y17459D01*
X24313Y17479D01*
X24293D01*
X24273Y17499D01*
X24253Y17479D01*
X24233D01*
X24253Y17459D01*
X24233Y17439D01*
X24253D01*
X24273Y17419D01*
Y15410D02*
X24313Y15450D01*
X24353D01*
X24313Y15490D01*
X24353Y15530D01*
X24313D01*
X24273Y15570D01*
X24233Y15530D01*
X24193D01*
X24233Y15490D01*
X24193Y15450D01*
X24233D01*
X24273Y15410D01*
Y15450D02*
X24293Y15470D01*
X24313D01*
X24293Y15490D01*
X24313Y15510D01*
X24293D01*
X24273Y15530D01*
X24253Y15510D01*
X24233D01*
X24253Y15490D01*
X24233Y15470D01*
X24253D01*
X24273Y15450D01*
Y13442D02*
X24313Y13482D01*
X24353D01*
X24313Y13522D01*
X24353Y13562D01*
X24313D01*
X24273Y13602D01*
X24233Y13562D01*
X24193D01*
X24233Y13522D01*
X24193Y13482D01*
X24233D01*
X24273Y13442D01*
Y13482D02*
X24293Y13502D01*
X24313D01*
X24293Y13522D01*
X24313Y13542D01*
X24293D01*
X24273Y13562D01*
X24253Y13542D01*
X24233D01*
X24253Y13522D01*
X24233Y13502D01*
X24253D01*
X24273Y13482D01*
Y11473D02*
X24313Y11513D01*
X24353D01*
X24313Y11553D01*
X24353Y11593D01*
X24313D01*
X24273Y11633D01*
X24233Y11593D01*
X24193D01*
X24233Y11553D01*
X24193Y11513D01*
X24233D01*
X24273Y11473D01*
Y11513D02*
X24293Y11533D01*
X24313D01*
X24293Y11553D01*
X24313Y11573D01*
X24293D01*
X24273Y11593D01*
X24253Y11573D01*
X24233D01*
X24253Y11553D01*
X24233Y11533D01*
X24253D01*
X24273Y11513D01*
Y9505D02*
X24313Y9545D01*
X24353D01*
X24313Y9585D01*
X24353Y9625D01*
X24313D01*
X24273Y9665D01*
X24233Y9625D01*
X24193D01*
X24233Y9585D01*
X24193Y9545D01*
X24233D01*
X24273Y9505D01*
Y9545D02*
X24293Y9565D01*
X24313D01*
X24293Y9585D01*
X24313Y9605D01*
X24293D01*
X24273Y9625D01*
X24253Y9605D01*
X24233D01*
X24253Y9585D01*
X24233Y9565D01*
X24253D01*
X24273Y9545D01*
Y7536D02*
X24313Y7576D01*
X24353D01*
X24313Y7616D01*
X24353Y7656D01*
X24313D01*
X24273Y7696D01*
X24233Y7656D01*
X24193D01*
X24233Y7616D01*
X24193Y7576D01*
X24233D01*
X24273Y7536D01*
Y7576D02*
X24293Y7596D01*
X24313D01*
X24293Y7616D01*
X24313Y7636D01*
X24293D01*
X24273Y7656D01*
X24253Y7636D01*
X24233D01*
X24253Y7616D01*
X24233Y7596D01*
X24253D01*
X24273Y7576D01*
Y3599D02*
X24313Y3639D01*
X24353D01*
X24313Y3679D01*
X24353Y3719D01*
X24313D01*
X24273Y3759D01*
X24233Y3719D01*
X24193D01*
X24233Y3679D01*
X24193Y3639D01*
X24233D01*
X24273Y3599D01*
Y3639D02*
X24293Y3659D01*
X24313D01*
X24293Y3679D01*
X24313Y3699D01*
X24293D01*
X24273Y3719D01*
X24253Y3699D01*
X24233D01*
X24253Y3679D01*
X24233Y3659D01*
X24253D01*
X24273Y3639D01*
X22305Y23284D02*
X22345Y23324D01*
X22385D01*
X22345Y23364D01*
X22385Y23404D01*
X22345D01*
X22305Y23444D01*
X22265Y23404D01*
X22225D01*
X22265Y23364D01*
X22225Y23324D01*
X22265D01*
X22305Y23284D01*
Y23324D02*
X22325Y23344D01*
X22345D01*
X22325Y23364D01*
X22345Y23384D01*
X22325D01*
X22305Y23404D01*
X22285Y23384D01*
X22265D01*
X22285Y23364D01*
X22265Y23344D01*
X22285D01*
X22305Y23324D01*
Y21316D02*
X22345Y21356D01*
X22385D01*
X22345Y21396D01*
X22385Y21436D01*
X22345D01*
X22305Y21476D01*
X22265Y21436D01*
X22225D01*
X22265Y21396D01*
X22225Y21356D01*
X22265D01*
X22305Y21316D01*
Y21356D02*
X22325Y21376D01*
X22345D01*
X22325Y21396D01*
X22345Y21416D01*
X22325D01*
X22305Y21436D01*
X22285Y21416D01*
X22265D01*
X22285Y21396D01*
X22265Y21376D01*
X22285D01*
X22305Y21356D01*
Y19347D02*
X22345Y19387D01*
X22385D01*
X22345Y19427D01*
X22385Y19467D01*
X22345D01*
X22305Y19507D01*
X22265Y19467D01*
X22225D01*
X22265Y19427D01*
X22225Y19387D01*
X22265D01*
X22305Y19347D01*
Y19387D02*
X22325Y19407D01*
X22345D01*
X22325Y19427D01*
X22345Y19447D01*
X22325D01*
X22305Y19467D01*
X22285Y19447D01*
X22265D01*
X22285Y19427D01*
X22265Y19407D01*
X22285D01*
X22305Y19387D01*
Y17379D02*
X22345Y17419D01*
X22385D01*
X22345Y17459D01*
X22385Y17499D01*
X22345D01*
X22305Y17539D01*
X22265Y17499D01*
X22225D01*
X22265Y17459D01*
X22225Y17419D01*
X22265D01*
X22305Y17379D01*
Y17419D02*
X22325Y17439D01*
X22345D01*
X22325Y17459D01*
X22345Y17479D01*
X22325D01*
X22305Y17499D01*
X22285Y17479D01*
X22265D01*
X22285Y17459D01*
X22265Y17439D01*
X22285D01*
X22305Y17419D01*
Y15410D02*
X22345Y15450D01*
X22385D01*
X22345Y15490D01*
X22385Y15530D01*
X22345D01*
X22305Y15570D01*
X22265Y15530D01*
X22225D01*
X22265Y15490D01*
X22225Y15450D01*
X22265D01*
X22305Y15410D01*
Y15450D02*
X22325Y15470D01*
X22345D01*
X22325Y15490D01*
X22345Y15510D01*
X22325D01*
X22305Y15530D01*
X22285Y15510D01*
X22265D01*
X22285Y15490D01*
X22265Y15470D01*
X22285D01*
X22305Y15450D01*
Y13442D02*
X22345Y13482D01*
X22385D01*
X22345Y13522D01*
X22385Y13562D01*
X22345D01*
X22305Y13602D01*
X22265Y13562D01*
X22225D01*
X22265Y13522D01*
X22225Y13482D01*
X22265D01*
X22305Y13442D01*
Y13482D02*
X22325Y13502D01*
X22345D01*
X22325Y13522D01*
X22345Y13542D01*
X22325D01*
X22305Y13562D01*
X22285Y13542D01*
X22265D01*
X22285Y13522D01*
X22265Y13502D01*
X22285D01*
X22305Y13482D01*
Y11473D02*
X22345Y11513D01*
X22385D01*
X22345Y11553D01*
X22385Y11593D01*
X22345D01*
X22305Y11633D01*
X22265Y11593D01*
X22225D01*
X22265Y11553D01*
X22225Y11513D01*
X22265D01*
X22305Y11473D01*
Y11513D02*
X22325Y11533D01*
X22345D01*
X22325Y11553D01*
X22345Y11573D01*
X22325D01*
X22305Y11593D01*
X22285Y11573D01*
X22265D01*
X22285Y11553D01*
X22265Y11533D01*
X22285D01*
X22305Y11513D01*
Y5568D02*
X22345Y5608D01*
X22385D01*
X22345Y5648D01*
X22385Y5688D01*
X22345D01*
X22305Y5728D01*
X22265Y5688D01*
X22225D01*
X22265Y5648D01*
X22225Y5608D01*
X22265D01*
X22305Y5568D01*
Y5608D02*
X22325Y5628D01*
X22345D01*
X22325Y5648D01*
X22345Y5668D01*
X22325D01*
X22305Y5688D01*
X22285Y5668D01*
X22265D01*
X22285Y5648D01*
X22265Y5628D01*
X22285D01*
X22305Y5608D01*
Y1631D02*
X22345Y1671D01*
X22385D01*
X22345Y1711D01*
X22385Y1751D01*
X22345D01*
X22305Y1791D01*
X22265Y1751D01*
X22225D01*
X22265Y1711D01*
X22225Y1671D01*
X22265D01*
X22305Y1631D01*
Y1671D02*
X22325Y1691D01*
X22345D01*
X22325Y1711D01*
X22345Y1731D01*
X22325D01*
X22305Y1751D01*
X22285Y1731D01*
X22265D01*
X22285Y1711D01*
X22265Y1691D01*
X22285D01*
X22305Y1671D01*
X20336Y27221D02*
X20376Y27261D01*
X20416D01*
X20376Y27301D01*
X20416Y27341D01*
X20376D01*
X20336Y27381D01*
X20296Y27341D01*
X20256D01*
X20296Y27301D01*
X20256Y27261D01*
X20296D01*
X20336Y27221D01*
Y27261D02*
X20356Y27281D01*
X20376D01*
X20356Y27301D01*
X20376Y27321D01*
X20356D01*
X20336Y27341D01*
X20316Y27321D01*
X20296D01*
X20316Y27301D01*
X20296Y27281D01*
X20316D01*
X20336Y27261D01*
Y25253D02*
X20376Y25293D01*
X20416D01*
X20376Y25333D01*
X20416Y25373D01*
X20376D01*
X20336Y25413D01*
X20296Y25373D01*
X20256D01*
X20296Y25333D01*
X20256Y25293D01*
X20296D01*
X20336Y25253D01*
Y25293D02*
X20356Y25313D01*
X20376D01*
X20356Y25333D01*
X20376Y25353D01*
X20356D01*
X20336Y25373D01*
X20316Y25353D01*
X20296D01*
X20316Y25333D01*
X20296Y25313D01*
X20316D01*
X20336Y25293D01*
Y21316D02*
X20376Y21356D01*
X20416D01*
X20376Y21396D01*
X20416Y21436D01*
X20376D01*
X20336Y21476D01*
X20296Y21436D01*
X20256D01*
X20296Y21396D01*
X20256Y21356D01*
X20296D01*
X20336Y21316D01*
Y21356D02*
X20356Y21376D01*
X20376D01*
X20356Y21396D01*
X20376Y21416D01*
X20356D01*
X20336Y21436D01*
X20316Y21416D01*
X20296D01*
X20316Y21396D01*
X20296Y21376D01*
X20316D01*
X20336Y21356D01*
Y19347D02*
X20376Y19387D01*
X20416D01*
X20376Y19427D01*
X20416Y19467D01*
X20376D01*
X20336Y19507D01*
X20296Y19467D01*
X20256D01*
X20296Y19427D01*
X20256Y19387D01*
X20296D01*
X20336Y19347D01*
Y19387D02*
X20356Y19407D01*
X20376D01*
X20356Y19427D01*
X20376Y19447D01*
X20356D01*
X20336Y19467D01*
X20316Y19447D01*
X20296D01*
X20316Y19427D01*
X20296Y19407D01*
X20316D01*
X20336Y19387D01*
Y17379D02*
X20376Y17419D01*
X20416D01*
X20376Y17459D01*
X20416Y17499D01*
X20376D01*
X20336Y17539D01*
X20296Y17499D01*
X20256D01*
X20296Y17459D01*
X20256Y17419D01*
X20296D01*
X20336Y17379D01*
Y17419D02*
X20356Y17439D01*
X20376D01*
X20356Y17459D01*
X20376Y17479D01*
X20356D01*
X20336Y17499D01*
X20316Y17479D01*
X20296D01*
X20316Y17459D01*
X20296Y17439D01*
X20316D01*
X20336Y17419D01*
Y15410D02*
X20376Y15450D01*
X20416D01*
X20376Y15490D01*
X20416Y15530D01*
X20376D01*
X20336Y15570D01*
X20296Y15530D01*
X20256D01*
X20296Y15490D01*
X20256Y15450D01*
X20296D01*
X20336Y15410D01*
Y15450D02*
X20356Y15470D01*
X20376D01*
X20356Y15490D01*
X20376Y15510D01*
X20356D01*
X20336Y15530D01*
X20316Y15510D01*
X20296D01*
X20316Y15490D01*
X20296Y15470D01*
X20316D01*
X20336Y15450D01*
Y13442D02*
X20376Y13482D01*
X20416D01*
X20376Y13522D01*
X20416Y13562D01*
X20376D01*
X20336Y13602D01*
X20296Y13562D01*
X20256D01*
X20296Y13522D01*
X20256Y13482D01*
X20296D01*
X20336Y13442D01*
Y13482D02*
X20356Y13502D01*
X20376D01*
X20356Y13522D01*
X20376Y13542D01*
X20356D01*
X20336Y13562D01*
X20316Y13542D01*
X20296D01*
X20316Y13522D01*
X20296Y13502D01*
X20316D01*
X20336Y13482D01*
Y11473D02*
X20376Y11513D01*
X20416D01*
X20376Y11553D01*
X20416Y11593D01*
X20376D01*
X20336Y11633D01*
X20296Y11593D01*
X20256D01*
X20296Y11553D01*
X20256Y11513D01*
X20296D01*
X20336Y11473D01*
Y11513D02*
X20356Y11533D01*
X20376D01*
X20356Y11553D01*
X20376Y11573D01*
X20356D01*
X20336Y11593D01*
X20316Y11573D01*
X20296D01*
X20316Y11553D01*
X20296Y11533D01*
X20316D01*
X20336Y11513D01*
X18368Y31158D02*
X18408Y31198D01*
X18448D01*
X18408Y31238D01*
X18448Y31278D01*
X18408D01*
X18368Y31318D01*
X18328Y31278D01*
X18288D01*
X18328Y31238D01*
X18288Y31198D01*
X18328D01*
X18368Y31158D01*
Y31198D02*
X18388Y31218D01*
X18408D01*
X18388Y31238D01*
X18408Y31258D01*
X18388D01*
X18368Y31278D01*
X18348Y31258D01*
X18328D01*
X18348Y31238D01*
X18328Y31218D01*
X18348D01*
X18368Y31198D01*
Y29190D02*
X18408Y29230D01*
X18448D01*
X18408Y29270D01*
X18448Y29310D01*
X18408D01*
X18368Y29350D01*
X18328Y29310D01*
X18288D01*
X18328Y29270D01*
X18288Y29230D01*
X18328D01*
X18368Y29190D01*
Y29230D02*
X18388Y29250D01*
X18408D01*
X18388Y29270D01*
X18408Y29290D01*
X18388D01*
X18368Y29310D01*
X18348Y29290D01*
X18328D01*
X18348Y29270D01*
X18328Y29250D01*
X18348D01*
X18368Y29230D01*
Y27221D02*
X18408Y27261D01*
X18448D01*
X18408Y27301D01*
X18448Y27341D01*
X18408D01*
X18368Y27381D01*
X18328Y27341D01*
X18288D01*
X18328Y27301D01*
X18288Y27261D01*
X18328D01*
X18368Y27221D01*
Y27261D02*
X18388Y27281D01*
X18408D01*
X18388Y27301D01*
X18408Y27321D01*
X18388D01*
X18368Y27341D01*
X18348Y27321D01*
X18328D01*
X18348Y27301D01*
X18328Y27281D01*
X18348D01*
X18368Y27261D01*
Y25253D02*
X18408Y25293D01*
X18448D01*
X18408Y25333D01*
X18448Y25373D01*
X18408D01*
X18368Y25413D01*
X18328Y25373D01*
X18288D01*
X18328Y25333D01*
X18288Y25293D01*
X18328D01*
X18368Y25253D01*
Y25293D02*
X18388Y25313D01*
X18408D01*
X18388Y25333D01*
X18408Y25353D01*
X18388D01*
X18368Y25373D01*
X18348Y25353D01*
X18328D01*
X18348Y25333D01*
X18328Y25313D01*
X18348D01*
X18368Y25293D01*
Y19347D02*
X18408Y19387D01*
X18448D01*
X18408Y19427D01*
X18448Y19467D01*
X18408D01*
X18368Y19507D01*
X18328Y19467D01*
X18288D01*
X18328Y19427D01*
X18288Y19387D01*
X18328D01*
X18368Y19347D01*
Y19387D02*
X18388Y19407D01*
X18408D01*
X18388Y19427D01*
X18408Y19447D01*
X18388D01*
X18368Y19467D01*
X18348Y19447D01*
X18328D01*
X18348Y19427D01*
X18328Y19407D01*
X18348D01*
X18368Y19387D01*
Y17379D02*
X18408Y17419D01*
X18448D01*
X18408Y17459D01*
X18448Y17499D01*
X18408D01*
X18368Y17539D01*
X18328Y17499D01*
X18288D01*
X18328Y17459D01*
X18288Y17419D01*
X18328D01*
X18368Y17379D01*
Y17419D02*
X18388Y17439D01*
X18408D01*
X18388Y17459D01*
X18408Y17479D01*
X18388D01*
X18368Y17499D01*
X18348Y17479D01*
X18328D01*
X18348Y17459D01*
X18328Y17439D01*
X18348D01*
X18368Y17419D01*
Y15410D02*
X18408Y15450D01*
X18448D01*
X18408Y15490D01*
X18448Y15530D01*
X18408D01*
X18368Y15570D01*
X18328Y15530D01*
X18288D01*
X18328Y15490D01*
X18288Y15450D01*
X18328D01*
X18368Y15410D01*
Y15450D02*
X18388Y15470D01*
X18408D01*
X18388Y15490D01*
X18408Y15510D01*
X18388D01*
X18368Y15530D01*
X18348Y15510D01*
X18328D01*
X18348Y15490D01*
X18328Y15470D01*
X18348D01*
X18368Y15450D01*
Y13442D02*
X18408Y13482D01*
X18448D01*
X18408Y13522D01*
X18448Y13562D01*
X18408D01*
X18368Y13602D01*
X18328Y13562D01*
X18288D01*
X18328Y13522D01*
X18288Y13482D01*
X18328D01*
X18368Y13442D01*
Y13482D02*
X18388Y13502D01*
X18408D01*
X18388Y13522D01*
X18408Y13542D01*
X18388D01*
X18368Y13562D01*
X18348Y13542D01*
X18328D01*
X18348Y13522D01*
X18328Y13502D01*
X18348D01*
X18368Y13482D01*
Y11473D02*
X18408Y11513D01*
X18448D01*
X18408Y11553D01*
X18448Y11593D01*
X18408D01*
X18368Y11633D01*
X18328Y11593D01*
X18288D01*
X18328Y11553D01*
X18288Y11513D01*
X18328D01*
X18368Y11473D01*
Y11513D02*
X18388Y11533D01*
X18408D01*
X18388Y11553D01*
X18408Y11573D01*
X18388D01*
X18368Y11593D01*
X18348Y11573D01*
X18328D01*
X18348Y11553D01*
X18328Y11533D01*
X18348D01*
X18368Y11513D01*
X16399Y29190D02*
X16439Y29230D01*
X16479D01*
X16439Y29270D01*
X16479Y29310D01*
X16439D01*
X16399Y29350D01*
X16359Y29310D01*
X16319D01*
X16359Y29270D01*
X16319Y29230D01*
X16359D01*
X16399Y29190D01*
Y29230D02*
X16419Y29250D01*
X16439D01*
X16419Y29270D01*
X16439Y29290D01*
X16419D01*
X16399Y29310D01*
X16379Y29290D01*
X16359D01*
X16379Y29270D01*
X16359Y29250D01*
X16379D01*
X16399Y29230D01*
Y27221D02*
X16439Y27261D01*
X16479D01*
X16439Y27301D01*
X16479Y27341D01*
X16439D01*
X16399Y27381D01*
X16359Y27341D01*
X16319D01*
X16359Y27301D01*
X16319Y27261D01*
X16359D01*
X16399Y27221D01*
Y27261D02*
X16419Y27281D01*
X16439D01*
X16419Y27301D01*
X16439Y27321D01*
X16419D01*
X16399Y27341D01*
X16379Y27321D01*
X16359D01*
X16379Y27301D01*
X16359Y27281D01*
X16379D01*
X16399Y27261D01*
Y25253D02*
X16439Y25293D01*
X16479D01*
X16439Y25333D01*
X16479Y25373D01*
X16439D01*
X16399Y25413D01*
X16359Y25373D01*
X16319D01*
X16359Y25333D01*
X16319Y25293D01*
X16359D01*
X16399Y25253D01*
Y25293D02*
X16419Y25313D01*
X16439D01*
X16419Y25333D01*
X16439Y25353D01*
X16419D01*
X16399Y25373D01*
X16379Y25353D01*
X16359D01*
X16379Y25333D01*
X16359Y25313D01*
X16379D01*
X16399Y25293D01*
Y21316D02*
X16439Y21356D01*
X16479D01*
X16439Y21396D01*
X16479Y21436D01*
X16439D01*
X16399Y21476D01*
X16359Y21436D01*
X16319D01*
X16359Y21396D01*
X16319Y21356D01*
X16359D01*
X16399Y21316D01*
Y21356D02*
X16419Y21376D01*
X16439D01*
X16419Y21396D01*
X16439Y21416D01*
X16419D01*
X16399Y21436D01*
X16379Y21416D01*
X16359D01*
X16379Y21396D01*
X16359Y21376D01*
X16379D01*
X16399Y21356D01*
Y17379D02*
X16439Y17419D01*
X16479D01*
X16439Y17459D01*
X16479Y17499D01*
X16439D01*
X16399Y17539D01*
X16359Y17499D01*
X16319D01*
X16359Y17459D01*
X16319Y17419D01*
X16359D01*
X16399Y17379D01*
Y17419D02*
X16419Y17439D01*
X16439D01*
X16419Y17459D01*
X16439Y17479D01*
X16419D01*
X16399Y17499D01*
X16379Y17479D01*
X16359D01*
X16379Y17459D01*
X16359Y17439D01*
X16379D01*
X16399Y17419D01*
Y15410D02*
X16439Y15450D01*
X16479D01*
X16439Y15490D01*
X16479Y15530D01*
X16439D01*
X16399Y15570D01*
X16359Y15530D01*
X16319D01*
X16359Y15490D01*
X16319Y15450D01*
X16359D01*
X16399Y15410D01*
Y15450D02*
X16419Y15470D01*
X16439D01*
X16419Y15490D01*
X16439Y15510D01*
X16419D01*
X16399Y15530D01*
X16379Y15510D01*
X16359D01*
X16379Y15490D01*
X16359Y15470D01*
X16379D01*
X16399Y15450D01*
Y13442D02*
X16439Y13482D01*
X16479D01*
X16439Y13522D01*
X16479Y13562D01*
X16439D01*
X16399Y13602D01*
X16359Y13562D01*
X16319D01*
X16359Y13522D01*
X16319Y13482D01*
X16359D01*
X16399Y13442D01*
Y13482D02*
X16419Y13502D01*
X16439D01*
X16419Y13522D01*
X16439Y13542D01*
X16419D01*
X16399Y13562D01*
X16379Y13542D01*
X16359D01*
X16379Y13522D01*
X16359Y13502D01*
X16379D01*
X16399Y13482D01*
Y11473D02*
X16439Y11513D01*
X16479D01*
X16439Y11553D01*
X16479Y11593D01*
X16439D01*
X16399Y11633D01*
X16359Y11593D01*
X16319D01*
X16359Y11553D01*
X16319Y11513D01*
X16359D01*
X16399Y11473D01*
Y11513D02*
X16419Y11533D01*
X16439D01*
X16419Y11553D01*
X16439Y11573D01*
X16419D01*
X16399Y11593D01*
X16379Y11573D01*
X16359D01*
X16379Y11553D01*
X16359Y11533D01*
X16379D01*
X16399Y11513D01*
Y1631D02*
X16439Y1671D01*
X16479D01*
X16439Y1711D01*
X16479Y1751D01*
X16439D01*
X16399Y1791D01*
X16359Y1751D01*
X16319D01*
X16359Y1711D01*
X16319Y1671D01*
X16359D01*
X16399Y1631D01*
Y1671D02*
X16419Y1691D01*
X16439D01*
X16419Y1711D01*
X16439Y1731D01*
X16419D01*
X16399Y1751D01*
X16379Y1731D01*
X16359D01*
X16379Y1711D01*
X16359Y1691D01*
X16379D01*
X16399Y1671D01*
X14431Y29190D02*
X14471Y29230D01*
X14511D01*
X14471Y29270D01*
X14511Y29310D01*
X14471D01*
X14431Y29350D01*
X14391Y29310D01*
X14351D01*
X14391Y29270D01*
X14351Y29230D01*
X14391D01*
X14431Y29190D01*
Y29230D02*
X14451Y29250D01*
X14471D01*
X14451Y29270D01*
X14471Y29290D01*
X14451D01*
X14431Y29310D01*
X14411Y29290D01*
X14391D01*
X14411Y29270D01*
X14391Y29250D01*
X14411D01*
X14431Y29230D01*
Y27221D02*
X14471Y27261D01*
X14511D01*
X14471Y27301D01*
X14511Y27341D01*
X14471D01*
X14431Y27381D01*
X14391Y27341D01*
X14351D01*
X14391Y27301D01*
X14351Y27261D01*
X14391D01*
X14431Y27221D01*
Y27261D02*
X14451Y27281D01*
X14471D01*
X14451Y27301D01*
X14471Y27321D01*
X14451D01*
X14431Y27341D01*
X14411Y27321D01*
X14391D01*
X14411Y27301D01*
X14391Y27281D01*
X14411D01*
X14431Y27261D01*
Y19347D02*
X14471Y19387D01*
X14511D01*
X14471Y19427D01*
X14511Y19467D01*
X14471D01*
X14431Y19507D01*
X14391Y19467D01*
X14351D01*
X14391Y19427D01*
X14351Y19387D01*
X14391D01*
X14431Y19347D01*
Y19387D02*
X14451Y19407D01*
X14471D01*
X14451Y19427D01*
X14471Y19447D01*
X14451D01*
X14431Y19467D01*
X14411Y19447D01*
X14391D01*
X14411Y19427D01*
X14391Y19407D01*
X14411D01*
X14431Y19387D01*
Y15410D02*
X14471Y15450D01*
X14511D01*
X14471Y15490D01*
X14511Y15530D01*
X14471D01*
X14431Y15570D01*
X14391Y15530D01*
X14351D01*
X14391Y15490D01*
X14351Y15450D01*
X14391D01*
X14431Y15410D01*
Y15450D02*
X14451Y15470D01*
X14471D01*
X14451Y15490D01*
X14471Y15510D01*
X14451D01*
X14431Y15530D01*
X14411Y15510D01*
X14391D01*
X14411Y15490D01*
X14391Y15470D01*
X14411D01*
X14431Y15450D01*
Y13442D02*
X14471Y13482D01*
X14511D01*
X14471Y13522D01*
X14511Y13562D01*
X14471D01*
X14431Y13602D01*
X14391Y13562D01*
X14351D01*
X14391Y13522D01*
X14351Y13482D01*
X14391D01*
X14431Y13442D01*
Y13482D02*
X14451Y13502D01*
X14471D01*
X14451Y13522D01*
X14471Y13542D01*
X14451D01*
X14431Y13562D01*
X14411Y13542D01*
X14391D01*
X14411Y13522D01*
X14391Y13502D01*
X14411D01*
X14431Y13482D01*
Y3599D02*
X14471Y3639D01*
X14511D01*
X14471Y3679D01*
X14511Y3719D01*
X14471D01*
X14431Y3759D01*
X14391Y3719D01*
X14351D01*
X14391Y3679D01*
X14351Y3639D01*
X14391D01*
X14431Y3599D01*
Y3639D02*
X14451Y3659D01*
X14471D01*
X14451Y3679D01*
X14471Y3699D01*
X14451D01*
X14431Y3719D01*
X14411Y3699D01*
X14391D01*
X14411Y3679D01*
X14391Y3659D01*
X14411D01*
X14431Y3639D01*
Y1631D02*
X14471Y1671D01*
X14511D01*
X14471Y1711D01*
X14511Y1751D01*
X14471D01*
X14431Y1791D01*
X14391Y1751D01*
X14351D01*
X14391Y1711D01*
X14351Y1671D01*
X14391D01*
X14431Y1631D01*
Y1671D02*
X14451Y1691D01*
X14471D01*
X14451Y1711D01*
X14471Y1731D01*
X14451D01*
X14431Y1751D01*
X14411Y1731D01*
X14391D01*
X14411Y1711D01*
X14391Y1691D01*
X14411D01*
X14431Y1671D01*
X12462Y27221D02*
X12502Y27261D01*
X12542D01*
X12502Y27301D01*
X12542Y27341D01*
X12502D01*
X12462Y27381D01*
X12422Y27341D01*
X12382D01*
X12422Y27301D01*
X12382Y27261D01*
X12422D01*
X12462Y27221D01*
Y27261D02*
X12482Y27281D01*
X12502D01*
X12482Y27301D01*
X12502Y27321D01*
X12482D01*
X12462Y27341D01*
X12442Y27321D01*
X12422D01*
X12442Y27301D01*
X12422Y27281D01*
X12442D01*
X12462Y27261D01*
Y25253D02*
X12502Y25293D01*
X12542D01*
X12502Y25333D01*
X12542Y25373D01*
X12502D01*
X12462Y25413D01*
X12422Y25373D01*
X12382D01*
X12422Y25333D01*
X12382Y25293D01*
X12422D01*
X12462Y25253D01*
Y25293D02*
X12482Y25313D01*
X12502D01*
X12482Y25333D01*
X12502Y25353D01*
X12482D01*
X12462Y25373D01*
X12442Y25353D01*
X12422D01*
X12442Y25333D01*
X12422Y25313D01*
X12442D01*
X12462Y25293D01*
Y17379D02*
X12502Y17419D01*
X12542D01*
X12502Y17459D01*
X12542Y17499D01*
X12502D01*
X12462Y17539D01*
X12422Y17499D01*
X12382D01*
X12422Y17459D01*
X12382Y17419D01*
X12422D01*
X12462Y17379D01*
Y17419D02*
X12482Y17439D01*
X12502D01*
X12482Y17459D01*
X12502Y17479D01*
X12482D01*
X12462Y17499D01*
X12442Y17479D01*
X12422D01*
X12442Y17459D01*
X12422Y17439D01*
X12442D01*
X12462Y17419D01*
Y13442D02*
X12502Y13482D01*
X12542D01*
X12502Y13522D01*
X12542Y13562D01*
X12502D01*
X12462Y13602D01*
X12422Y13562D01*
X12382D01*
X12422Y13522D01*
X12382Y13482D01*
X12422D01*
X12462Y13442D01*
Y13482D02*
X12482Y13502D01*
X12502D01*
X12482Y13522D01*
X12502Y13542D01*
X12482D01*
X12462Y13562D01*
X12442Y13542D01*
X12422D01*
X12442Y13522D01*
X12422Y13502D01*
X12442D01*
X12462Y13482D01*
Y7536D02*
X12502Y7576D01*
X12542D01*
X12502Y7616D01*
X12542Y7656D01*
X12502D01*
X12462Y7696D01*
X12422Y7656D01*
X12382D01*
X12422Y7616D01*
X12382Y7576D01*
X12422D01*
X12462Y7536D01*
Y7576D02*
X12482Y7596D01*
X12502D01*
X12482Y7616D01*
X12502Y7636D01*
X12482D01*
X12462Y7656D01*
X12442Y7636D01*
X12422D01*
X12442Y7616D01*
X12422Y7596D01*
X12442D01*
X12462Y7576D01*
Y3599D02*
X12502Y3639D01*
X12542D01*
X12502Y3679D01*
X12542Y3719D01*
X12502D01*
X12462Y3759D01*
X12422Y3719D01*
X12382D01*
X12422Y3679D01*
X12382Y3639D01*
X12422D01*
X12462Y3599D01*
Y3639D02*
X12482Y3659D01*
X12502D01*
X12482Y3679D01*
X12502Y3699D01*
X12482D01*
X12462Y3719D01*
X12442Y3699D01*
X12422D01*
X12442Y3679D01*
X12422Y3659D01*
X12442D01*
X12462Y3639D01*
X10494Y31158D02*
X10534Y31198D01*
X10574D01*
X10534Y31238D01*
X10574Y31278D01*
X10534D01*
X10494Y31318D01*
X10454Y31278D01*
X10414D01*
X10454Y31238D01*
X10414Y31198D01*
X10454D01*
X10494Y31158D01*
Y31198D02*
X10514Y31218D01*
X10534D01*
X10514Y31238D01*
X10534Y31258D01*
X10514D01*
X10494Y31278D01*
X10474Y31258D01*
X10454D01*
X10474Y31238D01*
X10454Y31218D01*
X10474D01*
X10494Y31198D01*
Y29190D02*
X10534Y29230D01*
X10574D01*
X10534Y29270D01*
X10574Y29310D01*
X10534D01*
X10494Y29350D01*
X10454Y29310D01*
X10414D01*
X10454Y29270D01*
X10414Y29230D01*
X10454D01*
X10494Y29190D01*
Y29230D02*
X10514Y29250D01*
X10534D01*
X10514Y29270D01*
X10534Y29290D01*
X10514D01*
X10494Y29310D01*
X10474Y29290D01*
X10454D01*
X10474Y29270D01*
X10454Y29250D01*
X10474D01*
X10494Y29230D01*
Y27221D02*
X10534Y27261D01*
X10574D01*
X10534Y27301D01*
X10574Y27341D01*
X10534D01*
X10494Y27381D01*
X10454Y27341D01*
X10414D01*
X10454Y27301D01*
X10414Y27261D01*
X10454D01*
X10494Y27221D01*
Y27261D02*
X10514Y27281D01*
X10534D01*
X10514Y27301D01*
X10534Y27321D01*
X10514D01*
X10494Y27341D01*
X10474Y27321D01*
X10454D01*
X10474Y27301D01*
X10454Y27281D01*
X10474D01*
X10494Y27261D01*
Y19347D02*
X10534Y19387D01*
X10574D01*
X10534Y19427D01*
X10574Y19467D01*
X10534D01*
X10494Y19507D01*
X10454Y19467D01*
X10414D01*
X10454Y19427D01*
X10414Y19387D01*
X10454D01*
X10494Y19347D01*
Y19387D02*
X10514Y19407D01*
X10534D01*
X10514Y19427D01*
X10534Y19447D01*
X10514D01*
X10494Y19467D01*
X10474Y19447D01*
X10454D01*
X10474Y19427D01*
X10454Y19407D01*
X10474D01*
X10494Y19387D01*
Y17379D02*
X10534Y17419D01*
X10574D01*
X10534Y17459D01*
X10574Y17499D01*
X10534D01*
X10494Y17539D01*
X10454Y17499D01*
X10414D01*
X10454Y17459D01*
X10414Y17419D01*
X10454D01*
X10494Y17379D01*
Y17419D02*
X10514Y17439D01*
X10534D01*
X10514Y17459D01*
X10534Y17479D01*
X10514D01*
X10494Y17499D01*
X10474Y17479D01*
X10454D01*
X10474Y17459D01*
X10454Y17439D01*
X10474D01*
X10494Y17419D01*
Y15410D02*
X10534Y15450D01*
X10574D01*
X10534Y15490D01*
X10574Y15530D01*
X10534D01*
X10494Y15570D01*
X10454Y15530D01*
X10414D01*
X10454Y15490D01*
X10414Y15450D01*
X10454D01*
X10494Y15410D01*
Y15450D02*
X10514Y15470D01*
X10534D01*
X10514Y15490D01*
X10534Y15510D01*
X10514D01*
X10494Y15530D01*
X10474Y15510D01*
X10454D01*
X10474Y15490D01*
X10454Y15470D01*
X10474D01*
X10494Y15450D01*
Y7536D02*
X10534Y7576D01*
X10574D01*
X10534Y7616D01*
X10574Y7656D01*
X10534D01*
X10494Y7696D01*
X10454Y7656D01*
X10414D01*
X10454Y7616D01*
X10414Y7576D01*
X10454D01*
X10494Y7536D01*
Y7576D02*
X10514Y7596D01*
X10534D01*
X10514Y7616D01*
X10534Y7636D01*
X10514D01*
X10494Y7656D01*
X10474Y7636D01*
X10454D01*
X10474Y7616D01*
X10454Y7596D01*
X10474D01*
X10494Y7576D01*
X8525Y33127D02*
X8565Y33167D01*
X8605D01*
X8565Y33207D01*
X8605Y33247D01*
X8565D01*
X8525Y33287D01*
X8485Y33247D01*
X8445D01*
X8485Y33207D01*
X8445Y33167D01*
X8485D01*
X8525Y33127D01*
Y33167D02*
X8545Y33187D01*
X8565D01*
X8545Y33207D01*
X8565Y33227D01*
X8545D01*
X8525Y33247D01*
X8505Y33227D01*
X8485D01*
X8505Y33207D01*
X8485Y33187D01*
X8505D01*
X8525Y33167D01*
Y31158D02*
X8565Y31198D01*
X8605D01*
X8565Y31238D01*
X8605Y31278D01*
X8565D01*
X8525Y31318D01*
X8485Y31278D01*
X8445D01*
X8485Y31238D01*
X8445Y31198D01*
X8485D01*
X8525Y31158D01*
Y31198D02*
X8545Y31218D01*
X8565D01*
X8545Y31238D01*
X8565Y31258D01*
X8545D01*
X8525Y31278D01*
X8505Y31258D01*
X8485D01*
X8505Y31238D01*
X8485Y31218D01*
X8505D01*
X8525Y31198D01*
Y29190D02*
X8565Y29230D01*
X8605D01*
X8565Y29270D01*
X8605Y29310D01*
X8565D01*
X8525Y29350D01*
X8485Y29310D01*
X8445D01*
X8485Y29270D01*
X8445Y29230D01*
X8485D01*
X8525Y29190D01*
Y29230D02*
X8545Y29250D01*
X8565D01*
X8545Y29270D01*
X8565Y29290D01*
X8545D01*
X8525Y29310D01*
X8505Y29290D01*
X8485D01*
X8505Y29270D01*
X8485Y29250D01*
X8505D01*
X8525Y29230D01*
Y27221D02*
X8565Y27261D01*
X8605D01*
X8565Y27301D01*
X8605Y27341D01*
X8565D01*
X8525Y27381D01*
X8485Y27341D01*
X8445D01*
X8485Y27301D01*
X8445Y27261D01*
X8485D01*
X8525Y27221D01*
Y27261D02*
X8545Y27281D01*
X8565D01*
X8545Y27301D01*
X8565Y27321D01*
X8545D01*
X8525Y27341D01*
X8505Y27321D01*
X8485D01*
X8505Y27301D01*
X8485Y27281D01*
X8505D01*
X8525Y27261D01*
Y21316D02*
X8565Y21356D01*
X8605D01*
X8565Y21396D01*
X8605Y21436D01*
X8565D01*
X8525Y21476D01*
X8485Y21436D01*
X8445D01*
X8485Y21396D01*
X8445Y21356D01*
X8485D01*
X8525Y21316D01*
Y21356D02*
X8545Y21376D01*
X8565D01*
X8545Y21396D01*
X8565Y21416D01*
X8545D01*
X8525Y21436D01*
X8505Y21416D01*
X8485D01*
X8505Y21396D01*
X8485Y21376D01*
X8505D01*
X8525Y21356D01*
Y19347D02*
X8565Y19387D01*
X8605D01*
X8565Y19427D01*
X8605Y19467D01*
X8565D01*
X8525Y19507D01*
X8485Y19467D01*
X8445D01*
X8485Y19427D01*
X8445Y19387D01*
X8485D01*
X8525Y19347D01*
Y19387D02*
X8545Y19407D01*
X8565D01*
X8545Y19427D01*
X8565Y19447D01*
X8545D01*
X8525Y19467D01*
X8505Y19447D01*
X8485D01*
X8505Y19427D01*
X8485Y19407D01*
X8505D01*
X8525Y19387D01*
Y17379D02*
X8565Y17419D01*
X8605D01*
X8565Y17459D01*
X8605Y17499D01*
X8565D01*
X8525Y17539D01*
X8485Y17499D01*
X8445D01*
X8485Y17459D01*
X8445Y17419D01*
X8485D01*
X8525Y17379D01*
Y17419D02*
X8545Y17439D01*
X8565D01*
X8545Y17459D01*
X8565Y17479D01*
X8545D01*
X8525Y17499D01*
X8505Y17479D01*
X8485D01*
X8505Y17459D01*
X8485Y17439D01*
X8505D01*
X8525Y17419D01*
Y15410D02*
X8565Y15450D01*
X8605D01*
X8565Y15490D01*
X8605Y15530D01*
X8565D01*
X8525Y15570D01*
X8485Y15530D01*
X8445D01*
X8485Y15490D01*
X8445Y15450D01*
X8485D01*
X8525Y15410D01*
Y15450D02*
X8545Y15470D01*
X8565D01*
X8545Y15490D01*
X8565Y15510D01*
X8545D01*
X8525Y15530D01*
X8505Y15510D01*
X8485D01*
X8505Y15490D01*
X8485Y15470D01*
X8505D01*
X8525Y15450D01*
Y13442D02*
X8565Y13482D01*
X8605D01*
X8565Y13522D01*
X8605Y13562D01*
X8565D01*
X8525Y13602D01*
X8485Y13562D01*
X8445D01*
X8485Y13522D01*
X8445Y13482D01*
X8485D01*
X8525Y13442D01*
Y13482D02*
X8545Y13502D01*
X8565D01*
X8545Y13522D01*
X8565Y13542D01*
X8545D01*
X8525Y13562D01*
X8505Y13542D01*
X8485D01*
X8505Y13522D01*
X8485Y13502D01*
X8505D01*
X8525Y13482D01*
X6557Y33127D02*
X6597Y33167D01*
X6637D01*
X6597Y33207D01*
X6637Y33247D01*
X6597D01*
X6557Y33287D01*
X6517Y33247D01*
X6477D01*
X6517Y33207D01*
X6477Y33167D01*
X6517D01*
X6557Y33127D01*
Y33167D02*
X6577Y33187D01*
X6597D01*
X6577Y33207D01*
X6597Y33227D01*
X6577D01*
X6557Y33247D01*
X6537Y33227D01*
X6517D01*
X6537Y33207D01*
X6517Y33187D01*
X6537D01*
X6557Y33167D01*
Y31158D02*
X6597Y31198D01*
X6637D01*
X6597Y31238D01*
X6637Y31278D01*
X6597D01*
X6557Y31318D01*
X6517Y31278D01*
X6477D01*
X6517Y31238D01*
X6477Y31198D01*
X6517D01*
X6557Y31158D01*
Y31198D02*
X6577Y31218D01*
X6597D01*
X6577Y31238D01*
X6597Y31258D01*
X6577D01*
X6557Y31278D01*
X6537Y31258D01*
X6517D01*
X6537Y31238D01*
X6517Y31218D01*
X6537D01*
X6557Y31198D01*
Y25253D02*
X6597Y25293D01*
X6637D01*
X6597Y25333D01*
X6637Y25373D01*
X6597D01*
X6557Y25413D01*
X6517Y25373D01*
X6477D01*
X6517Y25333D01*
X6477Y25293D01*
X6517D01*
X6557Y25253D01*
Y25293D02*
X6577Y25313D01*
X6597D01*
X6577Y25333D01*
X6597Y25353D01*
X6577D01*
X6557Y25373D01*
X6537Y25353D01*
X6517D01*
X6537Y25333D01*
X6517Y25313D01*
X6537D01*
X6557Y25293D01*
Y23284D02*
X6597Y23324D01*
X6637D01*
X6597Y23364D01*
X6637Y23404D01*
X6597D01*
X6557Y23444D01*
X6517Y23404D01*
X6477D01*
X6517Y23364D01*
X6477Y23324D01*
X6517D01*
X6557Y23284D01*
Y23324D02*
X6577Y23344D01*
X6597D01*
X6577Y23364D01*
X6597Y23384D01*
X6577D01*
X6557Y23404D01*
X6537Y23384D01*
X6517D01*
X6537Y23364D01*
X6517Y23344D01*
X6537D01*
X6557Y23324D01*
Y19347D02*
X6597Y19387D01*
X6637D01*
X6597Y19427D01*
X6637Y19467D01*
X6597D01*
X6557Y19507D01*
X6517Y19467D01*
X6477D01*
X6517Y19427D01*
X6477Y19387D01*
X6517D01*
X6557Y19347D01*
Y19387D02*
X6577Y19407D01*
X6597D01*
X6577Y19427D01*
X6597Y19447D01*
X6577D01*
X6557Y19467D01*
X6537Y19447D01*
X6517D01*
X6537Y19427D01*
X6517Y19407D01*
X6537D01*
X6557Y19387D01*
Y15410D02*
X6597Y15450D01*
X6637D01*
X6597Y15490D01*
X6637Y15530D01*
X6597D01*
X6557Y15570D01*
X6517Y15530D01*
X6477D01*
X6517Y15490D01*
X6477Y15450D01*
X6517D01*
X6557Y15410D01*
Y15450D02*
X6577Y15470D01*
X6597D01*
X6577Y15490D01*
X6597Y15510D01*
X6577D01*
X6557Y15530D01*
X6537Y15510D01*
X6517D01*
X6537Y15490D01*
X6517Y15470D01*
X6537D01*
X6557Y15450D01*
Y13442D02*
X6597Y13482D01*
X6637D01*
X6597Y13522D01*
X6637Y13562D01*
X6597D01*
X6557Y13602D01*
X6517Y13562D01*
X6477D01*
X6517Y13522D01*
X6477Y13482D01*
X6517D01*
X6557Y13442D01*
Y13482D02*
X6577Y13502D01*
X6597D01*
X6577Y13522D01*
X6597Y13542D01*
X6577D01*
X6557Y13562D01*
X6537Y13542D01*
X6517D01*
X6537Y13522D01*
X6517Y13502D01*
X6537D01*
X6557Y13482D01*
Y11473D02*
X6597Y11513D01*
X6637D01*
X6597Y11553D01*
X6637Y11593D01*
X6597D01*
X6557Y11633D01*
X6517Y11593D01*
X6477D01*
X6517Y11553D01*
X6477Y11513D01*
X6517D01*
X6557Y11473D01*
Y11513D02*
X6577Y11533D01*
X6597D01*
X6577Y11553D01*
X6597Y11573D01*
X6577D01*
X6557Y11593D01*
X6537Y11573D01*
X6517D01*
X6537Y11553D01*
X6517Y11533D01*
X6537D01*
X6557Y11513D01*
X4588Y31158D02*
X4628Y31198D01*
X4668D01*
X4628Y31238D01*
X4668Y31278D01*
X4628D01*
X4588Y31318D01*
X4548Y31278D01*
X4508D01*
X4548Y31238D01*
X4508Y31198D01*
X4548D01*
X4588Y31158D01*
Y31198D02*
X4608Y31218D01*
X4628D01*
X4608Y31238D01*
X4628Y31258D01*
X4608D01*
X4588Y31278D01*
X4568Y31258D01*
X4548D01*
X4568Y31238D01*
X4548Y31218D01*
X4568D01*
X4588Y31198D01*
Y29190D02*
X4628Y29230D01*
X4668D01*
X4628Y29270D01*
X4668Y29310D01*
X4628D01*
X4588Y29350D01*
X4548Y29310D01*
X4508D01*
X4548Y29270D01*
X4508Y29230D01*
X4548D01*
X4588Y29190D01*
Y29230D02*
X4608Y29250D01*
X4628D01*
X4608Y29270D01*
X4628Y29290D01*
X4608D01*
X4588Y29310D01*
X4568Y29290D01*
X4548D01*
X4568Y29270D01*
X4548Y29250D01*
X4568D01*
X4588Y29230D01*
Y27221D02*
X4628Y27261D01*
X4668D01*
X4628Y27301D01*
X4668Y27341D01*
X4628D01*
X4588Y27381D01*
X4548Y27341D01*
X4508D01*
X4548Y27301D01*
X4508Y27261D01*
X4548D01*
X4588Y27221D01*
Y27261D02*
X4608Y27281D01*
X4628D01*
X4608Y27301D01*
X4628Y27321D01*
X4608D01*
X4588Y27341D01*
X4568Y27321D01*
X4548D01*
X4568Y27301D01*
X4548Y27281D01*
X4568D01*
X4588Y27261D01*
Y23284D02*
X4628Y23324D01*
X4668D01*
X4628Y23364D01*
X4668Y23404D01*
X4628D01*
X4588Y23444D01*
X4548Y23404D01*
X4508D01*
X4548Y23364D01*
X4508Y23324D01*
X4548D01*
X4588Y23284D01*
Y23324D02*
X4608Y23344D01*
X4628D01*
X4608Y23364D01*
X4628Y23384D01*
X4608D01*
X4588Y23404D01*
X4568Y23384D01*
X4548D01*
X4568Y23364D01*
X4548Y23344D01*
X4568D01*
X4588Y23324D01*
Y21316D02*
X4628Y21356D01*
X4668D01*
X4628Y21396D01*
X4668Y21436D01*
X4628D01*
X4588Y21476D01*
X4548Y21436D01*
X4508D01*
X4548Y21396D01*
X4508Y21356D01*
X4548D01*
X4588Y21316D01*
Y21356D02*
X4608Y21376D01*
X4628D01*
X4608Y21396D01*
X4628Y21416D01*
X4608D01*
X4588Y21436D01*
X4568Y21416D01*
X4548D01*
X4568Y21396D01*
X4548Y21376D01*
X4568D01*
X4588Y21356D01*
Y17379D02*
X4628Y17419D01*
X4668D01*
X4628Y17459D01*
X4668Y17499D01*
X4628D01*
X4588Y17539D01*
X4548Y17499D01*
X4508D01*
X4548Y17459D01*
X4508Y17419D01*
X4548D01*
X4588Y17379D01*
Y17419D02*
X4608Y17439D01*
X4628D01*
X4608Y17459D01*
X4628Y17479D01*
X4608D01*
X4588Y17499D01*
X4568Y17479D01*
X4548D01*
X4568Y17459D01*
X4548Y17439D01*
X4568D01*
X4588Y17419D01*
Y15410D02*
X4628Y15450D01*
X4668D01*
X4628Y15490D01*
X4668Y15530D01*
X4628D01*
X4588Y15570D01*
X4548Y15530D01*
X4508D01*
X4548Y15490D01*
X4508Y15450D01*
X4548D01*
X4588Y15410D01*
Y15450D02*
X4608Y15470D01*
X4628D01*
X4608Y15490D01*
X4628Y15510D01*
X4608D01*
X4588Y15530D01*
X4568Y15510D01*
X4548D01*
X4568Y15490D01*
X4548Y15470D01*
X4568D01*
X4588Y15450D01*
Y13442D02*
X4628Y13482D01*
X4668D01*
X4628Y13522D01*
X4668Y13562D01*
X4628D01*
X4588Y13602D01*
X4548Y13562D01*
X4508D01*
X4548Y13522D01*
X4508Y13482D01*
X4548D01*
X4588Y13442D01*
Y13482D02*
X4608Y13502D01*
X4628D01*
X4608Y13522D01*
X4628Y13542D01*
X4608D01*
X4588Y13562D01*
X4568Y13542D01*
X4548D01*
X4568Y13522D01*
X4548Y13502D01*
X4568D01*
X4588Y13482D01*
Y11473D02*
X4628Y11513D01*
X4668D01*
X4628Y11553D01*
X4668Y11593D01*
X4628D01*
X4588Y11633D01*
X4548Y11593D01*
X4508D01*
X4548Y11553D01*
X4508Y11513D01*
X4548D01*
X4588Y11473D01*
Y11513D02*
X4608Y11533D01*
X4628D01*
X4608Y11553D01*
X4628Y11573D01*
X4608D01*
X4588Y11593D01*
X4568Y11573D01*
X4548D01*
X4568Y11553D01*
X4548Y11533D01*
X4568D01*
X4588Y11513D01*
Y1631D02*
X4628Y1671D01*
X4668D01*
X4628Y1711D01*
X4668Y1751D01*
X4628D01*
X4588Y1791D01*
X4548Y1751D01*
X4508D01*
X4548Y1711D01*
X4508Y1671D01*
X4548D01*
X4588Y1631D01*
Y1671D02*
X4608Y1691D01*
X4628D01*
X4608Y1711D01*
X4628Y1731D01*
X4608D01*
X4588Y1751D01*
X4568Y1731D01*
X4548D01*
X4568Y1711D01*
X4548Y1691D01*
X4568D01*
X4588Y1671D01*
X2620Y31158D02*
X2660Y31198D01*
X2700D01*
X2660Y31238D01*
X2700Y31278D01*
X2660D01*
X2620Y31318D01*
X2580Y31278D01*
X2540D01*
X2580Y31238D01*
X2540Y31198D01*
X2580D01*
X2620Y31158D01*
Y31198D02*
X2640Y31218D01*
X2660D01*
X2640Y31238D01*
X2660Y31258D01*
X2640D01*
X2620Y31278D01*
X2600Y31258D01*
X2580D01*
X2600Y31238D01*
X2580Y31218D01*
X2600D01*
X2620Y31198D01*
Y29190D02*
X2660Y29230D01*
X2700D01*
X2660Y29270D01*
X2700Y29310D01*
X2660D01*
X2620Y29350D01*
X2580Y29310D01*
X2540D01*
X2580Y29270D01*
X2540Y29230D01*
X2580D01*
X2620Y29190D01*
Y29230D02*
X2640Y29250D01*
X2660D01*
X2640Y29270D01*
X2660Y29290D01*
X2640D01*
X2620Y29310D01*
X2600Y29290D01*
X2580D01*
X2600Y29270D01*
X2580Y29250D01*
X2600D01*
X2620Y29230D01*
Y27221D02*
X2660Y27261D01*
X2700D01*
X2660Y27301D01*
X2700Y27341D01*
X2660D01*
X2620Y27381D01*
X2580Y27341D01*
X2540D01*
X2580Y27301D01*
X2540Y27261D01*
X2580D01*
X2620Y27221D01*
Y27261D02*
X2640Y27281D01*
X2660D01*
X2640Y27301D01*
X2660Y27321D01*
X2640D01*
X2620Y27341D01*
X2600Y27321D01*
X2580D01*
X2600Y27301D01*
X2580Y27281D01*
X2600D01*
X2620Y27261D01*
Y25253D02*
X2660Y25293D01*
X2700D01*
X2660Y25333D01*
X2700Y25373D01*
X2660D01*
X2620Y25413D01*
X2580Y25373D01*
X2540D01*
X2580Y25333D01*
X2540Y25293D01*
X2580D01*
X2620Y25253D01*
Y25293D02*
X2640Y25313D01*
X2660D01*
X2640Y25333D01*
X2660Y25353D01*
X2640D01*
X2620Y25373D01*
X2600Y25353D01*
X2580D01*
X2600Y25333D01*
X2580Y25313D01*
X2600D01*
X2620Y25293D01*
Y23284D02*
X2660Y23324D01*
X2700D01*
X2660Y23364D01*
X2700Y23404D01*
X2660D01*
X2620Y23444D01*
X2580Y23404D01*
X2540D01*
X2580Y23364D01*
X2540Y23324D01*
X2580D01*
X2620Y23284D01*
Y23324D02*
X2640Y23344D01*
X2660D01*
X2640Y23364D01*
X2660Y23384D01*
X2640D01*
X2620Y23404D01*
X2600Y23384D01*
X2580D01*
X2600Y23364D01*
X2580Y23344D01*
X2600D01*
X2620Y23324D01*
Y19347D02*
X2660Y19387D01*
X2700D01*
X2660Y19427D01*
X2700Y19467D01*
X2660D01*
X2620Y19507D01*
X2580Y19467D01*
X2540D01*
X2580Y19427D01*
X2540Y19387D01*
X2580D01*
X2620Y19347D01*
Y19387D02*
X2640Y19407D01*
X2660D01*
X2640Y19427D01*
X2660Y19447D01*
X2640D01*
X2620Y19467D01*
X2600Y19447D01*
X2580D01*
X2600Y19427D01*
X2580Y19407D01*
X2600D01*
X2620Y19387D01*
Y17379D02*
X2660Y17419D01*
X2700D01*
X2660Y17459D01*
X2700Y17499D01*
X2660D01*
X2620Y17539D01*
X2580Y17499D01*
X2540D01*
X2580Y17459D01*
X2540Y17419D01*
X2580D01*
X2620Y17379D01*
Y17419D02*
X2640Y17439D01*
X2660D01*
X2640Y17459D01*
X2660Y17479D01*
X2640D01*
X2620Y17499D01*
X2600Y17479D01*
X2580D01*
X2600Y17459D01*
X2580Y17439D01*
X2600D01*
X2620Y17419D01*
Y15410D02*
X2660Y15450D01*
X2700D01*
X2660Y15490D01*
X2700Y15530D01*
X2660D01*
X2620Y15570D01*
X2580Y15530D01*
X2540D01*
X2580Y15490D01*
X2540Y15450D01*
X2580D01*
X2620Y15410D01*
Y15450D02*
X2640Y15470D01*
X2660D01*
X2640Y15490D01*
X2660Y15510D01*
X2640D01*
X2620Y15530D01*
X2600Y15510D01*
X2580D01*
X2600Y15490D01*
X2580Y15470D01*
X2600D01*
X2620Y15450D01*
Y13442D02*
X2660Y13482D01*
X2700D01*
X2660Y13522D01*
X2700Y13562D01*
X2660D01*
X2620Y13602D01*
X2580Y13562D01*
X2540D01*
X2580Y13522D01*
X2540Y13482D01*
X2580D01*
X2620Y13442D01*
Y13482D02*
X2640Y13502D01*
X2660D01*
X2640Y13522D01*
X2660Y13542D01*
X2640D01*
X2620Y13562D01*
X2600Y13542D01*
X2580D01*
X2600Y13522D01*
X2580Y13502D01*
X2600D01*
X2620Y13482D01*
X651Y31158D02*
X691Y31198D01*
X731D01*
X691Y31238D01*
X731Y31278D01*
X691D01*
X651Y31318D01*
X611Y31278D01*
X571D01*
X611Y31238D01*
X571Y31198D01*
X611D01*
X651Y31158D01*
Y31198D02*
X671Y31218D01*
X691D01*
X671Y31238D01*
X691Y31258D01*
X671D01*
X651Y31278D01*
X631Y31258D01*
X611D01*
X631Y31238D01*
X611Y31218D01*
X631D01*
X651Y31198D01*
Y21316D02*
X691Y21356D01*
X731D01*
X691Y21396D01*
X731Y21436D01*
X691D01*
X651Y21476D01*
X611Y21436D01*
X571D01*
X611Y21396D01*
X571Y21356D01*
X611D01*
X651Y21316D01*
Y21356D02*
X671Y21376D01*
X691D01*
X671Y21396D01*
X691Y21416D01*
X671D01*
X651Y21436D01*
X631Y21416D01*
X611D01*
X631Y21396D01*
X611Y21376D01*
X631D01*
X651Y21356D01*
Y19347D02*
X691Y19387D01*
X731D01*
X691Y19427D01*
X731Y19467D01*
X691D01*
X651Y19507D01*
X611Y19467D01*
X571D01*
X611Y19427D01*
X571Y19387D01*
X611D01*
X651Y19347D01*
Y19387D02*
X671Y19407D01*
X691D01*
X671Y19427D01*
X691Y19447D01*
X671D01*
X651Y19467D01*
X631Y19447D01*
X611D01*
X631Y19427D01*
X611Y19407D01*
X631D01*
X651Y19387D01*
Y17379D02*
X691Y17419D01*
X731D01*
X691Y17459D01*
X731Y17499D01*
X691D01*
X651Y17539D01*
X611Y17499D01*
X571D01*
X611Y17459D01*
X571Y17419D01*
X611D01*
X651Y17379D01*
Y17419D02*
X671Y17439D01*
X691D01*
X671Y17459D01*
X691Y17479D01*
X671D01*
X651Y17499D01*
X631Y17479D01*
X611D01*
X631Y17459D01*
X611Y17439D01*
X631D01*
X651Y17419D01*
Y15410D02*
X691Y15450D01*
X731D01*
X691Y15490D01*
X731Y15530D01*
X691D01*
X651Y15570D01*
X611Y15530D01*
X571D01*
X611Y15490D01*
X571Y15450D01*
X611D01*
X651Y15410D01*
Y15450D02*
X671Y15470D01*
X691D01*
X671Y15490D01*
X691Y15510D01*
X671D01*
X651Y15530D01*
X631Y15510D01*
X611D01*
X631Y15490D01*
X611Y15470D01*
X631D01*
X651Y15450D01*
Y13442D02*
X691Y13482D01*
X731D01*
X691Y13522D01*
X731Y13562D01*
X691D01*
X651Y13602D01*
X611Y13562D01*
X571D01*
X611Y13522D01*
X571Y13482D01*
X611D01*
X651Y13442D01*
Y13482D02*
X671Y13502D01*
X691D01*
X671Y13522D01*
X691Y13542D01*
X671D01*
X651Y13562D01*
X631Y13542D01*
X611D01*
X631Y13522D01*
X611Y13502D01*
X631D01*
X651Y13482D01*
X14449Y21298D02*
X14489Y21338D01*
X14529D01*
X14489Y21378D01*
X14529Y21418D01*
X14489D01*
X14449Y21458D01*
X14409Y21418D01*
X14369D01*
X14409Y21378D01*
X14369Y21338D01*
X14409D01*
X14449Y21298D01*
Y21338D02*
X14469Y21358D01*
X14489D01*
X14469Y21378D01*
X14489Y21398D01*
X14469D01*
X14449Y21418D01*
X14429Y21398D01*
X14409D01*
X14429Y21378D01*
X14409Y21358D01*
X14429D01*
X14449Y21338D01*
X5945Y6495D02*
X5985Y6535D01*
X6025D01*
X5985Y6575D01*
X6025Y6615D01*
X5985D01*
X5945Y6655D01*
X5905Y6615D01*
X5865D01*
X5905Y6575D01*
X5865Y6535D01*
X5905D01*
X5945Y6495D01*
Y6535D02*
X5965Y6555D01*
X5985D01*
X5965Y6575D01*
X5985Y6595D01*
X5965D01*
X5945Y6615D01*
X5925Y6595D01*
X5905D01*
X5925Y6575D01*
X5905Y6555D01*
X5925D01*
X5945Y6535D01*
Y7282D02*
X5985Y7322D01*
X6025D01*
X5985Y7362D01*
X6025Y7402D01*
X5985D01*
X5945Y7442D01*
X5905Y7402D01*
X5865D01*
X5905Y7362D01*
X5865Y7322D01*
X5905D01*
X5945Y7282D01*
Y7322D02*
X5965Y7342D01*
X5985D01*
X5965Y7362D01*
X5985Y7382D01*
X5965D01*
X5945Y7402D01*
X5925Y7382D01*
X5905D01*
X5925Y7362D01*
X5905Y7342D01*
X5925D01*
X5945Y7322D01*
X5925Y8818D02*
X5965Y8858D01*
X6005D01*
X5965Y8898D01*
X6005Y8938D01*
X5965D01*
X5925Y8978D01*
X5885Y8938D01*
X5845D01*
X5885Y8898D01*
X5845Y8858D01*
X5885D01*
X5925Y8818D01*
Y8858D02*
X5945Y8878D01*
X5965D01*
X5945Y8898D01*
X5965Y8918D01*
X5945D01*
X5925Y8938D01*
X5905Y8918D01*
X5885D01*
X5905Y8898D01*
X5885Y8878D01*
X5905D01*
X5925Y8858D01*
Y8109D02*
X5965Y8149D01*
X6005D01*
X5965Y8189D01*
X6005Y8229D01*
X5965D01*
X5925Y8269D01*
X5885Y8229D01*
X5845D01*
X5885Y8189D01*
X5845Y8149D01*
X5885D01*
X5925Y8109D01*
Y8149D02*
X5945Y8169D01*
X5965D01*
X5945Y8189D01*
X5965Y8209D01*
X5945D01*
X5925Y8229D01*
X5905Y8209D01*
X5885D01*
X5905Y8189D01*
X5885Y8169D01*
X5905D01*
X5925Y8149D01*
X5217Y5668D02*
X5257Y5708D01*
X5297D01*
X5257Y5748D01*
X5297Y5788D01*
X5257D01*
X5217Y5828D01*
X5177Y5788D01*
X5137D01*
X5177Y5748D01*
X5137Y5708D01*
X5177D01*
X5217Y5668D01*
Y5708D02*
X5237Y5728D01*
X5257D01*
X5237Y5748D01*
X5257Y5768D01*
X5237D01*
X5217Y5788D01*
X5197Y5768D01*
X5177D01*
X5197Y5748D01*
X5177Y5728D01*
X5197D01*
X5217Y5708D01*
X4439Y5668D02*
X4479Y5708D01*
X4519D01*
X4479Y5748D01*
X4519Y5788D01*
X4479D01*
X4439Y5828D01*
X4399Y5788D01*
X4359D01*
X4399Y5748D01*
X4359Y5708D01*
X4399D01*
X4439Y5668D01*
Y5708D02*
X4459Y5728D01*
X4479D01*
X4459Y5748D01*
X4479Y5768D01*
X4459D01*
X4439Y5788D01*
X4419Y5768D01*
X4399D01*
X4419Y5748D01*
X4399Y5728D01*
X4419D01*
X4439Y5708D01*
X3661Y5668D02*
X3701Y5708D01*
X3741D01*
X3701Y5748D01*
X3741Y5788D01*
X3701D01*
X3661Y5828D01*
X3621Y5788D01*
X3581D01*
X3621Y5748D01*
X3581Y5708D01*
X3621D01*
X3661Y5668D01*
Y5708D02*
X3681Y5728D01*
X3701D01*
X3681Y5748D01*
X3701Y5768D01*
X3681D01*
X3661Y5788D01*
X3641Y5768D01*
X3621D01*
X3641Y5748D01*
X3621Y5728D01*
X3641D01*
X3661Y5708D01*
X5217Y4959D02*
X5257Y4999D01*
X5297D01*
X5257Y5039D01*
X5297Y5079D01*
X5257D01*
X5217Y5119D01*
X5177Y5079D01*
X5137D01*
X5177Y5039D01*
X5137Y4999D01*
X5177D01*
X5217Y4959D01*
Y4999D02*
X5237Y5019D01*
X5257D01*
X5237Y5039D01*
X5257Y5059D01*
X5237D01*
X5217Y5079D01*
X5197Y5059D01*
X5177D01*
X5197Y5039D01*
X5177Y5019D01*
X5197D01*
X5217Y4999D01*
X4439Y4959D02*
X4479Y4999D01*
X4519D01*
X4479Y5039D01*
X4519Y5079D01*
X4479D01*
X4439Y5119D01*
X4399Y5079D01*
X4359D01*
X4399Y5039D01*
X4359Y4999D01*
X4399D01*
X4439Y4959D01*
Y4999D02*
X4459Y5019D01*
X4479D01*
X4459Y5039D01*
X4479Y5059D01*
X4459D01*
X4439Y5079D01*
X4419Y5059D01*
X4399D01*
X4419Y5039D01*
X4399Y5019D01*
X4419D01*
X4439Y4999D01*
X3661Y4959D02*
X3701Y4999D01*
X3741D01*
X3701Y5039D01*
X3741Y5079D01*
X3701D01*
X3661Y5119D01*
X3621Y5079D01*
X3581D01*
X3621Y5039D01*
X3581Y4999D01*
X3621D01*
X3661Y4959D01*
Y4999D02*
X3681Y5019D01*
X3701D01*
X3681Y5039D01*
X3701Y5059D01*
X3681D01*
X3661Y5079D01*
X3641Y5059D01*
X3621D01*
X3641Y5039D01*
X3621Y5019D01*
X3641D01*
X3661Y4999D01*
X5217Y8109D02*
X5257Y8149D01*
X5297D01*
X5257Y8189D01*
X5297Y8229D01*
X5257D01*
X5217Y8269D01*
X5177Y8229D01*
X5137D01*
X5177Y8189D01*
X5137Y8149D01*
X5177D01*
X5217Y8109D01*
Y8149D02*
X5237Y8169D01*
X5257D01*
X5237Y8189D01*
X5257Y8209D01*
X5237D01*
X5217Y8229D01*
X5197Y8209D01*
X5177D01*
X5197Y8189D01*
X5177Y8169D01*
X5197D01*
X5217Y8149D01*
X4439Y8109D02*
X4479Y8149D01*
X4519D01*
X4479Y8189D01*
X4519Y8229D01*
X4479D01*
X4439Y8269D01*
X4399Y8229D01*
X4359D01*
X4399Y8189D01*
X4359Y8149D01*
X4399D01*
X4439Y8109D01*
Y8149D02*
X4459Y8169D01*
X4479D01*
X4459Y8189D01*
X4479Y8209D01*
X4459D01*
X4439Y8229D01*
X4419Y8209D01*
X4399D01*
X4419Y8189D01*
X4399Y8169D01*
X4419D01*
X4439Y8149D01*
X3661Y8109D02*
X3701Y8149D01*
X3741D01*
X3701Y8189D01*
X3741Y8229D01*
X3701D01*
X3661Y8269D01*
X3621Y8229D01*
X3581D01*
X3621Y8189D01*
X3581Y8149D01*
X3621D01*
X3661Y8109D01*
Y8149D02*
X3681Y8169D01*
X3701D01*
X3681Y8189D01*
X3701Y8209D01*
X3681D01*
X3661Y8229D01*
X3641Y8209D01*
X3621D01*
X3641Y8189D01*
X3621Y8169D01*
X3641D01*
X3661Y8149D01*
Y8818D02*
X3701Y8858D01*
X3741D01*
X3701Y8898D01*
X3741Y8938D01*
X3701D01*
X3661Y8978D01*
X3621Y8938D01*
X3581D01*
X3621Y8898D01*
X3581Y8858D01*
X3621D01*
X3661Y8818D01*
Y8858D02*
X3681Y8878D01*
X3701D01*
X3681Y8898D01*
X3701Y8918D01*
X3681D01*
X3661Y8938D01*
X3641Y8918D01*
X3621D01*
X3641Y8898D01*
X3621Y8878D01*
X3641D01*
X3661Y8858D01*
X4439Y8818D02*
X4479Y8858D01*
X4519D01*
X4479Y8898D01*
X4519Y8938D01*
X4479D01*
X4439Y8978D01*
X4399Y8938D01*
X4359D01*
X4399Y8898D01*
X4359Y8858D01*
X4399D01*
X4439Y8818D01*
Y8858D02*
X4459Y8878D01*
X4479D01*
X4459Y8898D01*
X4479Y8918D01*
X4459D01*
X4439Y8938D01*
X4419Y8918D01*
X4399D01*
X4419Y8898D01*
X4399Y8878D01*
X4419D01*
X4439Y8858D01*
X5217Y8818D02*
X5257Y8858D01*
X5297D01*
X5257Y8898D01*
X5297Y8938D01*
X5257D01*
X5217Y8978D01*
X5177Y8938D01*
X5137D01*
X5177Y8898D01*
X5137Y8858D01*
X5177D01*
X5217Y8818D01*
Y8858D02*
X5237Y8878D01*
X5257D01*
X5237Y8898D01*
X5257Y8918D01*
X5237D01*
X5217Y8938D01*
X5197Y8918D01*
X5177D01*
X5197Y8898D01*
X5177Y8878D01*
X5197D01*
X5217Y8858D01*
X12898Y9996D02*
X12938Y10036D01*
X12978D01*
X12938Y10076D01*
X12978Y10116D01*
X12938D01*
X12898Y10156D01*
X12858Y10116D01*
X12818D01*
X12858Y10076D01*
X12818Y10036D01*
X12858D01*
X12898Y9996D01*
Y10036D02*
X12918Y10056D01*
X12938D01*
X12918Y10076D01*
X12938Y10096D01*
X12918D01*
X12898Y10116D01*
X12878Y10096D01*
X12858D01*
X12878Y10076D01*
X12858Y10056D01*
X12878D01*
X12898Y10036D01*
X15236Y5668D02*
X15276Y5708D01*
X15316D01*
X15276Y5748D01*
X15316Y5788D01*
X15276D01*
X15236Y5828D01*
X15196Y5788D01*
X15156D01*
X15196Y5748D01*
X15156Y5708D01*
X15196D01*
X15236Y5668D01*
Y5708D02*
X15256Y5728D01*
X15276D01*
X15256Y5748D01*
X15276Y5768D01*
X15256D01*
X15236Y5788D01*
X15216Y5768D01*
X15196D01*
X15216Y5748D01*
X15196Y5728D01*
X15216D01*
X15236Y5708D01*
X13583Y1259D02*
X13623Y1299D01*
X13663D01*
X13623Y1339D01*
X13663Y1379D01*
X13623D01*
X13583Y1419D01*
X13543Y1379D01*
X13503D01*
X13543Y1339D01*
X13503Y1299D01*
X13543D01*
X13583Y1259D01*
Y1299D02*
X13603Y1319D01*
X13623D01*
X13603Y1339D01*
X13623Y1359D01*
X13603D01*
X13583Y1379D01*
X13563Y1359D01*
X13543D01*
X13563Y1339D01*
X13543Y1319D01*
X13563D01*
X13583Y1299D01*
X10127Y4012D02*
X10167Y4052D01*
X10207D01*
X10167Y4092D01*
X10207Y4132D01*
X10167D01*
X10127Y4172D01*
X10087Y4132D01*
X10047D01*
X10087Y4092D01*
X10047Y4052D01*
X10087D01*
X10127Y4012D01*
Y4052D02*
X10147Y4072D01*
X10167D01*
X10147Y4092D01*
X10167Y4112D01*
X10147D01*
X10127Y4132D01*
X10107Y4112D01*
X10087D01*
X10107Y4092D01*
X10087Y4072D01*
X10107D01*
X10127Y4052D01*
X10510Y4723D02*
X10550Y4763D01*
X10590D01*
X10550Y4803D01*
X10590Y4843D01*
X10550D01*
X10510Y4883D01*
X10470Y4843D01*
X10430D01*
X10470Y4803D01*
X10430Y4763D01*
X10470D01*
X10510Y4723D01*
Y4763D02*
X10530Y4783D01*
X10550D01*
X10530Y4803D01*
X10550Y4823D01*
X10530D01*
X10510Y4843D01*
X10490Y4823D01*
X10470D01*
X10490Y4803D01*
X10470Y4783D01*
X10490D01*
X10510Y4763D01*
X10433Y3660D02*
X10473Y3700D01*
X10513D01*
X10473Y3740D01*
X10513Y3780D01*
X10473D01*
X10433Y3820D01*
X10393Y3780D01*
X10353D01*
X10393Y3740D01*
X10353Y3700D01*
X10393D01*
X10433Y3660D01*
Y3700D02*
X10453Y3720D01*
X10473D01*
X10453Y3740D01*
X10473Y3760D01*
X10453D01*
X10433Y3780D01*
X10413Y3760D01*
X10393D01*
X10413Y3740D01*
X10393Y3720D01*
X10413D01*
X10433Y3700D01*
X22087Y33975D02*
X22127Y34015D01*
X22167D01*
X22127Y34055D01*
X22167Y34095D01*
X22127D01*
X22087Y34135D01*
X22047Y34095D01*
X22007D01*
X22047Y34055D01*
X22007Y34015D01*
X22047D01*
X22087Y33975D01*
Y34015D02*
X22107Y34035D01*
X22127D01*
X22107Y34055D01*
X22127Y34075D01*
X22107D01*
X22087Y34095D01*
X22067Y34075D01*
X22047D01*
X22067Y34055D01*
X22047Y34035D01*
X22067D01*
X22087Y34015D01*
X21811Y33178D02*
X21851Y33218D01*
X21891D01*
X21851Y33258D01*
X21891Y33298D01*
X21851D01*
X21811Y33338D01*
X21771Y33298D01*
X21731D01*
X21771Y33258D01*
X21731Y33218D01*
X21771D01*
X21811Y33178D01*
Y33218D02*
X21831Y33238D01*
X21851D01*
X21831Y33258D01*
X21851Y33278D01*
X21831D01*
X21811Y33298D01*
X21791Y33278D01*
X21771D01*
X21791Y33258D01*
X21771Y33238D01*
X21791D01*
X21811Y33218D01*
X24333Y34320D02*
X24373Y34360D01*
X24413D01*
X24373Y34400D01*
X24413Y34440D01*
X24373D01*
X24333Y34480D01*
X24293Y34440D01*
X24253D01*
X24293Y34400D01*
X24253Y34360D01*
X24293D01*
X24333Y34320D01*
Y34360D02*
X24353Y34380D01*
X24373D01*
X24353Y34400D01*
X24373Y34420D01*
X24353D01*
X24333Y34440D01*
X24313Y34420D01*
X24293D01*
X24313Y34400D01*
X24293Y34380D01*
X24313D01*
X24333Y34360D01*
X24405Y33178D02*
X24445Y33218D01*
X24485D01*
X24445Y33258D01*
X24485Y33298D01*
X24445D01*
X24405Y33338D01*
X24365Y33298D01*
X24325D01*
X24365Y33258D01*
X24325Y33218D01*
X24365D01*
X24405Y33178D01*
Y33218D02*
X24425Y33238D01*
X24445D01*
X24425Y33258D01*
X24445Y33278D01*
X24425D01*
X24405Y33298D01*
X24385Y33278D01*
X24365D01*
X24385Y33258D01*
X24365Y33238D01*
X24385D01*
X24405Y33218D01*
X4961Y9763D02*
X5001Y9803D01*
X5041D01*
X5001Y9843D01*
X5041Y9883D01*
X5001D01*
X4961Y9923D01*
X4921Y9883D01*
X4881D01*
X4921Y9843D01*
X4881Y9803D01*
X4921D01*
X4961Y9763D01*
Y9803D02*
X4981Y9823D01*
X5001D01*
X4981Y9843D01*
X5001Y9863D01*
X4981D01*
X4961Y9883D01*
X4941Y9863D01*
X4921D01*
X4941Y9843D01*
X4921Y9823D01*
X4941D01*
X4961Y9803D01*
X6404Y9477D02*
X6444Y9517D01*
X6484D01*
X6444Y9557D01*
X6484Y9597D01*
X6444D01*
X6404Y9637D01*
X6364Y9597D01*
X6324D01*
X6364Y9557D01*
X6324Y9517D01*
X6364D01*
X6404Y9477D01*
Y9517D02*
X6424Y9537D01*
X6444D01*
X6424Y9557D01*
X6444Y9577D01*
X6424D01*
X6404Y9597D01*
X6384Y9577D01*
X6364D01*
X6384Y9557D01*
X6364Y9537D01*
X6384D01*
X6404Y9517D01*
X9744Y7597D02*
X9784Y7637D01*
X9824D01*
X9784Y7677D01*
X9824Y7717D01*
X9784D01*
X9744Y7757D01*
X9704Y7717D01*
X9664D01*
X9704Y7677D01*
X9664Y7637D01*
X9704D01*
X9744Y7597D01*
Y7637D02*
X9764Y7657D01*
X9784D01*
X9764Y7677D01*
X9784Y7697D01*
X9764D01*
X9744Y7717D01*
X9724Y7697D01*
X9704D01*
X9724Y7677D01*
X9704Y7657D01*
X9724D01*
X9744Y7637D01*
X1888Y3439D02*
X1928Y3479D01*
X1968D01*
X1928Y3519D01*
X1968Y3559D01*
X1928D01*
X1888Y3599D01*
X1848Y3559D01*
X1808D01*
X1848Y3519D01*
X1808Y3479D01*
X1848D01*
X1888Y3439D01*
Y3479D02*
X1908Y3499D01*
X1928D01*
X1908Y3519D01*
X1928Y3539D01*
X1908D01*
X1888Y3559D01*
X1868Y3539D01*
X1848D01*
X1868Y3519D01*
X1848Y3499D01*
X1868D01*
X1888Y3479D01*
X1850Y2715D02*
X1890Y2755D01*
X1930D01*
X1890Y2795D01*
X1930Y2835D01*
X1890D01*
X1850Y2875D01*
X1810Y2835D01*
X1770D01*
X1810Y2795D01*
X1770Y2755D01*
X1810D01*
X1850Y2715D01*
Y2755D02*
X1870Y2775D01*
X1890D01*
X1870Y2795D01*
X1890Y2815D01*
X1870D01*
X1850Y2835D01*
X1830Y2815D01*
X1810D01*
X1830Y2795D01*
X1810Y2775D01*
X1830D01*
X1850Y2755D01*
X1575Y3070D02*
X1615Y3110D01*
X1655D01*
X1615Y3150D01*
X1655Y3190D01*
X1615D01*
X1575Y3230D01*
X1535Y3190D01*
X1495D01*
X1535Y3150D01*
X1495Y3110D01*
X1535D01*
X1575Y3070D01*
Y3110D02*
X1595Y3130D01*
X1615D01*
X1595Y3150D01*
X1615Y3170D01*
X1595D01*
X1575Y3190D01*
X1555Y3170D01*
X1535D01*
X1555Y3150D01*
X1535Y3130D01*
X1555D01*
X1575Y3110D01*
X7953Y8148D02*
X7993Y8188D01*
X8033D01*
X7993Y8228D01*
X8033Y8268D01*
X7993D01*
X7953Y8308D01*
X7913Y8268D01*
X7873D01*
X7913Y8228D01*
X7873Y8188D01*
X7913D01*
X7953Y8148D01*
Y8188D02*
X7973Y8208D01*
X7993D01*
X7973Y8228D01*
X7993Y8248D01*
X7973D01*
X7953Y8268D01*
X7933Y8248D01*
X7913D01*
X7933Y8228D01*
X7913Y8208D01*
X7933D01*
X7953Y8188D01*
Y8778D02*
X7993Y8818D01*
X8033D01*
X7993Y8858D01*
X8033Y8898D01*
X7993D01*
X7953Y8938D01*
X7913Y8898D01*
X7873D01*
X7913Y8858D01*
X7873Y8818D01*
X7913D01*
X7953Y8778D01*
Y8818D02*
X7973Y8838D01*
X7993D01*
X7973Y8858D01*
X7993Y8878D01*
X7973D01*
X7953Y8898D01*
X7933Y8878D01*
X7913D01*
X7933Y8858D01*
X7913Y8838D01*
X7933D01*
X7953Y8818D01*
X8228Y7676D02*
X8268Y7716D01*
X8308D01*
X8268Y7756D01*
X8308Y7796D01*
X8268D01*
X8228Y7836D01*
X8188Y7796D01*
X8148D01*
X8188Y7756D01*
X8148Y7716D01*
X8188D01*
X8228Y7676D01*
Y7716D02*
X8248Y7736D01*
X8268D01*
X8248Y7756D01*
X8268Y7776D01*
X8248D01*
X8228Y7796D01*
X8208Y7776D01*
X8188D01*
X8208Y7756D01*
X8188Y7736D01*
X8208D01*
X8228Y7716D01*
X10197Y6692D02*
X10237Y6732D01*
X10277D01*
X10237Y6772D01*
X10277Y6812D01*
X10237D01*
X10197Y6852D01*
X10157Y6812D01*
X10117D01*
X10157Y6772D01*
X10117Y6732D01*
X10157D01*
X10197Y6692D01*
Y6732D02*
X10217Y6752D01*
X10237D01*
X10217Y6772D01*
X10237Y6792D01*
X10217D01*
X10197Y6812D01*
X10177Y6792D01*
X10157D01*
X10177Y6772D01*
X10157Y6752D01*
X10177D01*
X10197Y6732D01*
X12008Y7400D02*
X12048Y7440D01*
X12088D01*
X12048Y7480D01*
X12088Y7520D01*
X12048D01*
X12008Y7560D01*
X11968Y7520D01*
X11928D01*
X11968Y7480D01*
X11928Y7440D01*
X11968D01*
X12008Y7400D01*
Y7440D02*
X12028Y7460D01*
X12048D01*
X12028Y7480D01*
X12048Y7500D01*
X12028D01*
X12008Y7520D01*
X11988Y7500D01*
X11968D01*
X11988Y7480D01*
X11968Y7460D01*
X11988D01*
X12008Y7440D01*
X16220Y5156D02*
X16260Y5196D01*
X16300D01*
X16260Y5236D01*
X16300Y5276D01*
X16260D01*
X16220Y5316D01*
X16180Y5276D01*
X16140D01*
X16180Y5236D01*
X16140Y5196D01*
X16180D01*
X16220Y5156D01*
Y5196D02*
X16240Y5216D01*
X16260D01*
X16240Y5236D01*
X16260Y5256D01*
X16240D01*
X16220Y5276D01*
X16200Y5256D01*
X16180D01*
X16200Y5236D01*
X16180Y5216D01*
X16200D01*
X16220Y5196D01*
X15236Y5156D02*
X15276Y5196D01*
X15316D01*
X15276Y5236D01*
X15316Y5276D01*
X15276D01*
X15236Y5316D01*
X15196Y5276D01*
X15156D01*
X15196Y5236D01*
X15156Y5196D01*
X15196D01*
X15236Y5156D01*
Y5196D02*
X15256Y5216D01*
X15276D01*
X15256Y5236D01*
X15276Y5256D01*
X15256D01*
X15236Y5276D01*
X15216Y5256D01*
X15196D01*
X15216Y5236D01*
X15196Y5216D01*
X15216D01*
X15236Y5196D01*
Y3936D02*
X15276Y3976D01*
X15316D01*
X15276Y4016D01*
X15316Y4056D01*
X15276D01*
X15236Y4096D01*
X15196Y4056D01*
X15156D01*
X15196Y4016D01*
X15156Y3976D01*
X15196D01*
X15236Y3936D01*
Y3976D02*
X15256Y3996D01*
X15276D01*
X15256Y4016D01*
X15276Y4036D01*
X15256D01*
X15236Y4056D01*
X15216Y4036D01*
X15196D01*
X15216Y4016D01*
X15196Y3996D01*
X15216D01*
X15236Y3976D01*
X16181Y3936D02*
X16221Y3976D01*
X16261D01*
X16221Y4016D01*
X16261Y4056D01*
X16221D01*
X16181Y4096D01*
X16141Y4056D01*
X16101D01*
X16141Y4016D01*
X16101Y3976D01*
X16141D01*
X16181Y3936D01*
Y3976D02*
X16201Y3996D01*
X16221D01*
X16201Y4016D01*
X16221Y4036D01*
X16201D01*
X16181Y4056D01*
X16161Y4036D01*
X16141D01*
X16161Y4016D01*
X16141Y3996D01*
X16161D01*
X16181Y3976D01*
X18386Y3936D02*
X18426Y3976D01*
X18466D01*
X18426Y4016D01*
X18466Y4056D01*
X18426D01*
X18386Y4096D01*
X18346Y4056D01*
X18306D01*
X18346Y4016D01*
X18306Y3976D01*
X18346D01*
X18386Y3936D01*
Y3976D02*
X18406Y3996D01*
X18426D01*
X18406Y4016D01*
X18426Y4036D01*
X18406D01*
X18386Y4056D01*
X18366Y4036D01*
X18346D01*
X18366Y4016D01*
X18346Y3996D01*
X18366D01*
X18386Y3976D01*
X20591Y3936D02*
X20631Y3976D01*
X20671D01*
X20631Y4016D01*
X20671Y4056D01*
X20631D01*
X20591Y4096D01*
X20551Y4056D01*
X20511D01*
X20551Y4016D01*
X20511Y3976D01*
X20551D01*
X20591Y3936D01*
Y3976D02*
X20611Y3996D01*
X20631D01*
X20611Y4016D01*
X20631Y4036D01*
X20611D01*
X20591Y4056D01*
X20571Y4036D01*
X20551D01*
X20571Y4016D01*
X20551Y3996D01*
X20571D01*
X20591Y3976D01*
X20906Y3936D02*
X20946Y3976D01*
X20986D01*
X20946Y4016D01*
X20986Y4056D01*
X20946D01*
X20906Y4096D01*
X20866Y4056D01*
X20826D01*
X20866Y4016D01*
X20826Y3976D01*
X20866D01*
X20906Y3936D01*
Y3976D02*
X20926Y3996D01*
X20946D01*
X20926Y4016D01*
X20946Y4036D01*
X20926D01*
X20906Y4056D01*
X20886Y4036D01*
X20866D01*
X20886Y4016D01*
X20866Y3996D01*
X20886D01*
X20906Y3976D01*
X22283Y3660D02*
X22323Y3700D01*
X22363D01*
X22323Y3740D01*
X22363Y3780D01*
X22323D01*
X22283Y3820D01*
X22243Y3780D01*
X22203D01*
X22243Y3740D01*
X22203Y3700D01*
X22243D01*
X22283Y3660D01*
Y3700D02*
X22303Y3720D01*
X22323D01*
X22303Y3740D01*
X22323Y3760D01*
X22303D01*
X22283Y3780D01*
X22263Y3760D01*
X22243D01*
X22263Y3740D01*
X22243Y3720D01*
X22263D01*
X22283Y3700D01*
X21850Y5156D02*
X21890Y5196D01*
X21930D01*
X21890Y5236D01*
X21930Y5276D01*
X21890D01*
X21850Y5316D01*
X21810Y5276D01*
X21770D01*
X21810Y5236D01*
X21770Y5196D01*
X21810D01*
X21850Y5156D01*
Y5196D02*
X21870Y5216D01*
X21890D01*
X21870Y5236D01*
X21890Y5256D01*
X21870D01*
X21850Y5276D01*
X21830Y5256D01*
X21810D01*
X21830Y5236D01*
X21810Y5216D01*
X21830D01*
X21850Y5196D01*
X20906Y5156D02*
X20946Y5196D01*
X20986D01*
X20946Y5236D01*
X20986Y5276D01*
X20946D01*
X20906Y5316D01*
X20866Y5276D01*
X20826D01*
X20866Y5236D01*
X20826Y5196D01*
X20866D01*
X20906Y5156D01*
Y5196D02*
X20926Y5216D01*
X20946D01*
X20926Y5236D01*
X20946Y5256D01*
X20926D01*
X20906Y5276D01*
X20886Y5256D01*
X20866D01*
X20886Y5236D01*
X20866Y5216D01*
X20886D01*
X20906Y5196D01*
X20591Y5156D02*
X20631Y5196D01*
X20671D01*
X20631Y5236D01*
X20671Y5276D01*
X20631D01*
X20591Y5316D01*
X20551Y5276D01*
X20511D01*
X20551Y5236D01*
X20511Y5196D01*
X20551D01*
X20591Y5156D01*
Y5196D02*
X20611Y5216D01*
X20631D01*
X20611Y5236D01*
X20631Y5256D01*
X20611D01*
X20591Y5276D01*
X20571Y5256D01*
X20551D01*
X20571Y5236D01*
X20551Y5216D01*
X20571D01*
X20591Y5196D01*
X19646Y5156D02*
X19686Y5196D01*
X19726D01*
X19686Y5236D01*
X19726Y5276D01*
X19686D01*
X19646Y5316D01*
X19606Y5276D01*
X19566D01*
X19606Y5236D01*
X19566Y5196D01*
X19606D01*
X19646Y5156D01*
Y5196D02*
X19666Y5216D01*
X19686D01*
X19666Y5236D01*
X19686Y5256D01*
X19666D01*
X19646Y5276D01*
X19626Y5256D01*
X19606D01*
X19626Y5236D01*
X19606Y5216D01*
X19626D01*
X19646Y5196D01*
X19331Y5156D02*
X19371Y5196D01*
X19411D01*
X19371Y5236D01*
X19411Y5276D01*
X19371D01*
X19331Y5316D01*
X19291Y5276D01*
X19251D01*
X19291Y5236D01*
X19251Y5196D01*
X19291D01*
X19331Y5156D01*
Y5196D02*
X19351Y5216D01*
X19371D01*
X19351Y5236D01*
X19371Y5256D01*
X19351D01*
X19331Y5276D01*
X19311Y5256D01*
X19291D01*
X19311Y5236D01*
X19291Y5216D01*
X19311D01*
X19331Y5196D01*
X18386Y5156D02*
X18426Y5196D01*
X18466D01*
X18426Y5236D01*
X18466Y5276D01*
X18426D01*
X18386Y5316D01*
X18346Y5276D01*
X18306D01*
X18346Y5236D01*
X18306Y5196D01*
X18346D01*
X18386Y5156D01*
Y5196D02*
X18406Y5216D01*
X18426D01*
X18406Y5236D01*
X18426Y5256D01*
X18406D01*
X18386Y5276D01*
X18366Y5256D01*
X18346D01*
X18366Y5236D01*
X18346Y5216D01*
X18366D01*
X18386Y5196D01*
X20000Y10747D02*
X20040Y10787D01*
X20080D01*
X20040Y10827D01*
X20080Y10867D01*
X20040D01*
X20000Y10907D01*
X19960Y10867D01*
X19920D01*
X19960Y10827D01*
X19920Y10787D01*
X19960D01*
X20000Y10747D01*
Y10787D02*
X20020Y10807D01*
X20040D01*
X20020Y10827D01*
X20040Y10847D01*
X20020D01*
X20000Y10867D01*
X19980Y10847D01*
X19960D01*
X19980Y10827D01*
X19960Y10807D01*
X19980D01*
X20000Y10787D01*
X24094Y8700D02*
X24134Y8740D01*
X24174D01*
X24134Y8780D01*
X24174Y8820D01*
X24134D01*
X24094Y8860D01*
X24054Y8820D01*
X24014D01*
X24054Y8780D01*
X24014Y8740D01*
X24054D01*
X24094Y8700D01*
Y8740D02*
X24114Y8760D01*
X24134D01*
X24114Y8780D01*
X24134Y8800D01*
X24114D01*
X24094Y8820D01*
X24074Y8800D01*
X24054D01*
X24074Y8780D01*
X24054Y8760D01*
X24074D01*
X24094Y8740D01*
X20433Y7164D02*
X20473Y7204D01*
X20513D01*
X20473Y7244D01*
X20513Y7284D01*
X20473D01*
X20433Y7324D01*
X20393Y7284D01*
X20353D01*
X20393Y7244D01*
X20353Y7204D01*
X20393D01*
X20433Y7164D01*
Y7204D02*
X20453Y7224D01*
X20473D01*
X20453Y7244D01*
X20473Y7264D01*
X20453D01*
X20433Y7284D01*
X20413Y7264D01*
X20393D01*
X20413Y7244D01*
X20393Y7224D01*
X20413D01*
X20433Y7204D01*
X21378Y7164D02*
X21418Y7204D01*
X21458D01*
X21418Y7244D01*
X21458Y7284D01*
X21418D01*
X21378Y7324D01*
X21338Y7284D01*
X21298D01*
X21338Y7244D01*
X21298Y7204D01*
X21338D01*
X21378Y7164D01*
Y7204D02*
X21398Y7224D01*
X21418D01*
X21398Y7244D01*
X21418Y7264D01*
X21398D01*
X21378Y7284D01*
X21358Y7264D01*
X21338D01*
X21358Y7244D01*
X21338Y7224D01*
X21358D01*
X21378Y7204D01*
X22953Y7164D02*
X22993Y7204D01*
X23033D01*
X22993Y7244D01*
X23033Y7284D01*
X22993D01*
X22953Y7324D01*
X22913Y7284D01*
X22873D01*
X22913Y7244D01*
X22873Y7204D01*
X22913D01*
X22953Y7164D01*
Y7204D02*
X22973Y7224D01*
X22993D01*
X22973Y7244D01*
X22993Y7264D01*
X22973D01*
X22953Y7284D01*
X22933Y7264D01*
X22913D01*
X22933Y7244D01*
X22913Y7224D01*
X22933D01*
X22953Y7204D01*
X21378Y8385D02*
X21418Y8425D01*
X21458D01*
X21418Y8465D01*
X21458Y8505D01*
X21418D01*
X21378Y8545D01*
X21338Y8505D01*
X21298D01*
X21338Y8465D01*
X21298Y8425D01*
X21338D01*
X21378Y8385D01*
Y8425D02*
X21398Y8445D01*
X21418D01*
X21398Y8465D01*
X21418Y8485D01*
X21398D01*
X21378Y8505D01*
X21358Y8485D01*
X21338D01*
X21358Y8465D01*
X21338Y8445D01*
X21358D01*
X21378Y8425D01*
X20433Y8385D02*
X20473Y8425D01*
X20513D01*
X20473Y8465D01*
X20513Y8505D01*
X20473D01*
X20433Y8545D01*
X20393Y8505D01*
X20353D01*
X20393Y8465D01*
X20353Y8425D01*
X20393D01*
X20433Y8385D01*
Y8425D02*
X20453Y8445D01*
X20473D01*
X20453Y8465D01*
X20473Y8485D01*
X20453D01*
X20433Y8505D01*
X20413Y8485D01*
X20393D01*
X20413Y8465D01*
X20393Y8445D01*
X20413D01*
X20433Y8425D01*
X19724Y8700D02*
X19764Y8740D01*
X19804D01*
X19764Y8780D01*
X19804Y8820D01*
X19764D01*
X19724Y8860D01*
X19684Y8820D01*
X19644D01*
X19684Y8780D01*
X19644Y8740D01*
X19684D01*
X19724Y8700D01*
Y8740D02*
X19744Y8760D01*
X19764D01*
X19744Y8780D01*
X19764Y8800D01*
X19744D01*
X19724Y8820D01*
X19704Y8800D01*
X19684D01*
X19704Y8780D01*
X19684Y8760D01*
X19704D01*
X19724Y8740D01*
X19173Y7164D02*
X19213Y7204D01*
X19253D01*
X19213Y7244D01*
X19253Y7284D01*
X19213D01*
X19173Y7324D01*
X19133Y7284D01*
X19093D01*
X19133Y7244D01*
X19093Y7204D01*
X19133D01*
X19173Y7164D01*
Y7204D02*
X19193Y7224D01*
X19213D01*
X19193Y7244D01*
X19213Y7264D01*
X19193D01*
X19173Y7284D01*
X19153Y7264D01*
X19133D01*
X19153Y7244D01*
X19133Y7224D01*
X19153D01*
X19173Y7204D01*
X17913Y7164D02*
X17953Y7204D01*
X17993D01*
X17953Y7244D01*
X17993Y7284D01*
X17953D01*
X17913Y7324D01*
X17873Y7284D01*
X17833D01*
X17873Y7244D01*
X17833Y7204D01*
X17873D01*
X17913Y7164D01*
Y7204D02*
X17933Y7224D01*
X17953D01*
X17933Y7244D01*
X17953Y7264D01*
X17933D01*
X17913Y7284D01*
X17893Y7264D01*
X17873D01*
X17893Y7244D01*
X17873Y7224D01*
X17893D01*
X17913Y7204D01*
Y8385D02*
X17953Y8425D01*
X17993D01*
X17953Y8465D01*
X17993Y8505D01*
X17953D01*
X17913Y8545D01*
X17873Y8505D01*
X17833D01*
X17873Y8465D01*
X17833Y8425D01*
X17873D01*
X17913Y8385D01*
Y8425D02*
X17933Y8445D01*
X17953D01*
X17933Y8465D01*
X17953Y8485D01*
X17933D01*
X17913Y8505D01*
X17893Y8485D01*
X17873D01*
X17893Y8465D01*
X17873Y8445D01*
X17893D01*
X17913Y8425D01*
X14508Y8416D02*
X14548Y8456D01*
X14588D01*
X14548Y8496D01*
X14588Y8536D01*
X14548D01*
X14508Y8576D01*
X14468Y8536D01*
X14428D01*
X14468Y8496D01*
X14428Y8456D01*
X14468D01*
X14508Y8416D01*
Y8456D02*
X14528Y8476D01*
X14548D01*
X14528Y8496D01*
X14548Y8516D01*
X14528D01*
X14508Y8536D01*
X14488Y8516D01*
X14468D01*
X14488Y8496D01*
X14468Y8476D01*
X14488D01*
X14508Y8456D01*
X13504Y9014D02*
X13544Y9054D01*
X13584D01*
X13544Y9094D01*
X13584Y9134D01*
X13544D01*
X13504Y9174D01*
X13464Y9134D01*
X13424D01*
X13464Y9094D01*
X13424Y9054D01*
X13464D01*
X13504Y9014D01*
Y9054D02*
X13524Y9074D01*
X13544D01*
X13524Y9094D01*
X13544Y9114D01*
X13524D01*
X13504Y9134D01*
X13484Y9114D01*
X13464D01*
X13484Y9094D01*
X13464Y9074D01*
X13484D01*
X13504Y9054D01*
X8465Y22952D02*
X8505Y22991D01*
X8545D01*
X8505Y23031D01*
X8545Y23071D01*
X8505D01*
X8465Y23112D01*
X8425Y23071D01*
X8385D01*
X8425Y23031D01*
X8385Y22991D01*
X8425D01*
X8465Y22952D01*
Y22991D02*
X8485Y23012D01*
X8505D01*
X8485Y23031D01*
X8505Y23052D01*
X8485D01*
X8465Y23071D01*
X8445Y23052D01*
X8425D01*
X8445Y23031D01*
X8425Y23012D01*
X8445D01*
X8465Y22991D01*
X9213Y23148D02*
X9253Y23188D01*
X9293D01*
X9253Y23228D01*
X9293Y23268D01*
X9253D01*
X9213Y23308D01*
X9173Y23268D01*
X9133D01*
X9173Y23228D01*
X9133Y23188D01*
X9173D01*
X9213Y23148D01*
Y23188D02*
X9233Y23208D01*
X9253D01*
X9233Y23228D01*
X9253Y23248D01*
X9233D01*
X9213Y23268D01*
X9193Y23248D01*
X9173D01*
X9193Y23228D01*
X9173Y23208D01*
X9193D01*
X9213Y23188D01*
X9646Y23148D02*
X9686Y23188D01*
X9726D01*
X9686Y23228D01*
X9726Y23268D01*
X9686D01*
X9646Y23308D01*
X9606Y23268D01*
X9566D01*
X9606Y23228D01*
X9566Y23188D01*
X9606D01*
X9646Y23148D01*
Y23188D02*
X9666Y23208D01*
X9686D01*
X9666Y23228D01*
X9686Y23248D01*
X9666D01*
X9646Y23268D01*
X9626Y23248D01*
X9606D01*
X9626Y23228D01*
X9606Y23208D01*
X9626D01*
X9646Y23188D01*
Y24133D02*
X9686Y24173D01*
X9726D01*
X9686Y24213D01*
X9726Y24253D01*
X9686D01*
X9646Y24293D01*
X9606Y24253D01*
X9566D01*
X9606Y24213D01*
X9566Y24173D01*
X9606D01*
X9646Y24133D01*
Y24173D02*
X9666Y24193D01*
X9686D01*
X9666Y24213D01*
X9686Y24233D01*
X9666D01*
X9646Y24253D01*
X9626Y24233D01*
X9606D01*
X9626Y24213D01*
X9606Y24193D01*
X9626D01*
X9646Y24173D01*
X10945Y24605D02*
X10985Y24645D01*
X11025D01*
X10985Y24685D01*
X11025Y24725D01*
X10985D01*
X10945Y24765D01*
X10905Y24725D01*
X10865D01*
X10905Y24685D01*
X10865Y24645D01*
X10905D01*
X10945Y24605D01*
Y24645D02*
X10965Y24665D01*
X10985D01*
X10965Y24685D01*
X10985Y24705D01*
X10965D01*
X10945Y24725D01*
X10925Y24705D01*
X10905D01*
X10925Y24685D01*
X10905Y24665D01*
X10925D01*
X10945Y24645D01*
X6260Y29664D02*
X6300Y29704D01*
X6340D01*
X6300Y29744D01*
X6340Y29784D01*
X6300D01*
X6260Y29824D01*
X6220Y29784D01*
X6180D01*
X6220Y29744D01*
X6180Y29704D01*
X6220D01*
X6260Y29664D01*
Y29704D02*
X6280Y29724D01*
X6300D01*
X6280Y29744D01*
X6300Y29764D01*
X6280D01*
X6260Y29784D01*
X6240Y29764D01*
X6220D01*
X6240Y29744D01*
X6220Y29724D01*
X6240D01*
X6260Y29704D01*
X10138Y26692D02*
X10178Y26732D01*
X10218D01*
X10178Y26772D01*
X10218Y26812D01*
X10178D01*
X10138Y26852D01*
X10098Y26812D01*
X10058D01*
X10098Y26772D01*
X10058Y26732D01*
X10098D01*
X10138Y26692D01*
Y26732D02*
X10158Y26752D01*
X10178D01*
X10158Y26772D01*
X10178Y26792D01*
X10158D01*
X10138Y26812D01*
X10118Y26792D01*
X10098D01*
X10118Y26772D01*
X10098Y26752D01*
X10118D01*
X10138Y26732D01*
X16748Y32190D02*
X16788Y32230D01*
X16828D01*
X16788Y32270D01*
X16828Y32310D01*
X16788D01*
X16748Y32350D01*
X16708Y32310D01*
X16668D01*
X16708Y32270D01*
X16668Y32230D01*
X16708D01*
X16748Y32190D01*
Y32230D02*
X16768Y32250D01*
X16788D01*
X16768Y32270D01*
X16788Y32290D01*
X16768D01*
X16748Y32310D01*
X16728Y32290D01*
X16708D01*
X16728Y32270D01*
X16708Y32250D01*
X16728D01*
X16748Y32230D01*
X13661Y33975D02*
X13701Y34015D01*
X13741D01*
X13701Y34055D01*
X13741Y34095D01*
X13701D01*
X13661Y34135D01*
X13621Y34095D01*
X13581D01*
X13621Y34055D01*
X13581Y34015D01*
X13621D01*
X13661Y33975D01*
Y34015D02*
X13681Y34035D01*
X13701D01*
X13681Y34055D01*
X13701Y34075D01*
X13681D01*
X13661Y34095D01*
X13641Y34075D01*
X13621D01*
X13641Y34055D01*
X13621Y34035D01*
X13641D01*
X13661Y34015D01*
X12244Y31022D02*
X12284Y31062D01*
X12324D01*
X12284Y31102D01*
X12324Y31142D01*
X12284D01*
X12244Y31182D01*
X12204Y31142D01*
X12164D01*
X12204Y31102D01*
X12164Y31062D01*
X12204D01*
X12244Y31022D01*
Y31062D02*
X12264Y31082D01*
X12284D01*
X12264Y31102D01*
X12284Y31122D01*
X12264D01*
X12244Y31142D01*
X12224Y31122D01*
X12204D01*
X12224Y31102D01*
X12204Y31082D01*
X12224D01*
X12244Y31062D01*
X16850Y30274D02*
X16890Y30314D01*
X16930D01*
X16890Y30354D01*
X16930Y30394D01*
X16890D01*
X16850Y30434D01*
X16810Y30394D01*
X16770D01*
X16810Y30354D01*
X16770Y30314D01*
X16810D01*
X16850Y30274D01*
Y30314D02*
X16870Y30334D01*
X16890D01*
X16870Y30354D01*
X16890Y30374D01*
X16870D01*
X16850Y30394D01*
X16830Y30374D01*
X16810D01*
X16830Y30354D01*
X16810Y30334D01*
X16830D01*
X16850Y30314D01*
X17362Y33818D02*
X17402Y33858D01*
X17442D01*
X17402Y33898D01*
X17442Y33938D01*
X17402D01*
X17362Y33978D01*
X17322Y33938D01*
X17282D01*
X17322Y33898D01*
X17282Y33858D01*
X17322D01*
X17362Y33818D01*
Y33858D02*
X17382Y33878D01*
X17402D01*
X17382Y33898D01*
X17402Y33918D01*
X17382D01*
X17362Y33938D01*
X17342Y33918D01*
X17322D01*
X17342Y33898D01*
X17322Y33878D01*
X17342D01*
X17362Y33858D01*
X20630Y32952D02*
X20670Y32991D01*
X20710D01*
X20670Y33031D01*
X20710Y33071D01*
X20670D01*
X20630Y33112D01*
X20590Y33071D01*
X20550D01*
X20590Y33031D01*
X20550Y32991D01*
X20590D01*
X20630Y32952D01*
Y32991D02*
X20650Y33012D01*
X20670D01*
X20650Y33031D01*
X20670Y33052D01*
X20650D01*
X20630Y33071D01*
X20610Y33052D01*
X20590D01*
X20610Y33031D01*
X20590Y33012D01*
X20610D01*
X20630Y32991D01*
X21457Y31495D02*
X21497Y31535D01*
X21537D01*
X21497Y31575D01*
X21537Y31615D01*
X21497D01*
X21457Y31655D01*
X21417Y31615D01*
X21377D01*
X21417Y31575D01*
X21377Y31535D01*
X21417D01*
X21457Y31495D01*
Y31535D02*
X21477Y31555D01*
X21497D01*
X21477Y31575D01*
X21497Y31595D01*
X21477D01*
X21457Y31615D01*
X21437Y31595D01*
X21417D01*
X21437Y31575D01*
X21417Y31555D01*
X21437D01*
X21457Y31535D01*
X4585Y24920D02*
X4625Y24960D01*
X4665D01*
X4625Y25000D01*
X4665Y25040D01*
X4625D01*
X4585Y25080D01*
X4545Y25040D01*
X4505D01*
X4545Y25000D01*
X4505Y24960D01*
X4545D01*
X4585Y24920D01*
Y24960D02*
X4605Y24980D01*
X4625D01*
X4605Y25000D01*
X4625Y25020D01*
X4605D01*
X4585Y25040D01*
X4565Y25020D01*
X4545D01*
X4565Y25000D01*
X4545Y24980D01*
X4565D01*
X4585Y24960D01*
X5175Y24920D02*
X5215Y24960D01*
X5255D01*
X5215Y25000D01*
X5255Y25040D01*
X5215D01*
X5175Y25080D01*
X5135Y25040D01*
X5095D01*
X5135Y25000D01*
X5095Y24960D01*
X5135D01*
X5175Y24920D01*
Y24960D02*
X5195Y24980D01*
X5215D01*
X5195Y25000D01*
X5215Y25020D01*
X5195D01*
X5175Y25040D01*
X5155Y25020D01*
X5135D01*
X5155Y25000D01*
X5135Y24980D01*
X5155D01*
X5175Y24960D01*
Y23739D02*
X5215Y23779D01*
X5255D01*
X5215Y23819D01*
X5255Y23859D01*
X5215D01*
X5175Y23899D01*
X5135Y23859D01*
X5095D01*
X5135Y23819D01*
X5095Y23779D01*
X5135D01*
X5175Y23739D01*
Y23779D02*
X5195Y23799D01*
X5215D01*
X5195Y23819D01*
X5215Y23839D01*
X5195D01*
X5175Y23859D01*
X5155Y23839D01*
X5135D01*
X5155Y23819D01*
X5135Y23799D01*
X5155D01*
X5175Y23779D01*
X4034Y23739D02*
X4074Y23779D01*
X4114D01*
X4074Y23819D01*
X4114Y23859D01*
X4074D01*
X4034Y23899D01*
X3994Y23859D01*
X3954D01*
X3994Y23819D01*
X3954Y23779D01*
X3994D01*
X4034Y23739D01*
Y23779D02*
X4054Y23799D01*
X4074D01*
X4054Y23819D01*
X4074Y23839D01*
X4054D01*
X4034Y23859D01*
X4014Y23839D01*
X3994D01*
X4014Y23819D01*
X3994Y23799D01*
X4014D01*
X4034Y23779D01*
X4055Y24920D02*
X4095Y24960D01*
X4135D01*
X4095Y25000D01*
X4135Y25040D01*
X4095D01*
X4055Y25080D01*
X4015Y25040D01*
X3975D01*
X4015Y25000D01*
X3975Y24960D01*
X4015D01*
X4055Y24920D01*
Y24960D02*
X4075Y24980D01*
X4095D01*
X4075Y25000D01*
X4095Y25020D01*
X4075D01*
X4055Y25040D01*
X4035Y25020D01*
X4015D01*
X4035Y25000D01*
X4015Y24980D01*
X4035D01*
X4055Y24960D01*
X3740Y24329D02*
X3780Y24369D01*
X3820D01*
X3780Y24409D01*
X3820Y24449D01*
X3780D01*
X3740Y24489D01*
X3700Y24449D01*
X3660D01*
X3700Y24409D01*
X3660Y24369D01*
X3700D01*
X3740Y24329D01*
Y24369D02*
X3760Y24389D01*
X3780D01*
X3760Y24409D01*
X3780Y24429D01*
X3760D01*
X3740Y24449D01*
X3720Y24429D01*
X3700D01*
X3720Y24409D01*
X3700Y24389D01*
X3720D01*
X3740Y24369D01*
X5432Y24329D02*
X5472Y24369D01*
X5512D01*
X5472Y24409D01*
X5512Y24449D01*
X5472D01*
X5432Y24489D01*
X5392Y24449D01*
X5352D01*
X5392Y24409D01*
X5352Y24369D01*
X5392D01*
X5432Y24329D01*
Y24369D02*
X5452Y24389D01*
X5472D01*
X5452Y24409D01*
X5472Y24429D01*
X5452D01*
X5432Y24449D01*
X5412Y24429D01*
X5392D01*
X5412Y24409D01*
X5392Y24389D01*
X5412D01*
X5432Y24369D01*
X21598Y1991D02*
X21638Y2031D01*
X21678D01*
X21638Y2071D01*
X21678Y2111D01*
X21638D01*
X21598Y2151D01*
X21558Y2111D01*
X21518D01*
X21558Y2071D01*
X21518Y2031D01*
X21558D01*
X21598Y1991D01*
Y2031D02*
X21618Y2051D01*
X21638D01*
X21618Y2071D01*
X21638Y2091D01*
X21618D01*
X21598Y2111D01*
X21578Y2091D01*
X21558D01*
X21578Y2071D01*
X21558Y2051D01*
X21578D01*
X21598Y2031D01*
X19975Y2007D02*
X20015Y2047D01*
X20055D01*
X20015Y2087D01*
X20055Y2127D01*
X20015D01*
X19975Y2167D01*
X19935Y2127D01*
X19895D01*
X19935Y2087D01*
X19895Y2047D01*
X19935D01*
X19975Y2007D01*
Y2047D02*
X19995Y2067D01*
X20015D01*
X19995Y2087D01*
X20015Y2107D01*
X19995D01*
X19975Y2127D01*
X19955Y2107D01*
X19935D01*
X19955Y2087D01*
X19935Y2067D01*
X19955D01*
X19975Y2047D01*
X20236Y2558D02*
X20276Y2598D01*
X20316D01*
X20276Y2638D01*
X20316Y2678D01*
X20276D01*
X20236Y2718D01*
X20196Y2678D01*
X20156D01*
X20196Y2638D01*
X20156Y2598D01*
X20196D01*
X20236Y2558D01*
Y2598D02*
X20256Y2618D01*
X20276D01*
X20256Y2638D01*
X20276Y2658D01*
X20256D01*
X20236Y2678D01*
X20216Y2658D01*
X20196D01*
X20216Y2638D01*
X20196Y2618D01*
X20216D01*
X20236Y2598D01*
Y1416D02*
X20276Y1456D01*
X20316D01*
X20276Y1496D01*
X20316Y1536D01*
X20276D01*
X20236Y1576D01*
X20196Y1536D01*
X20156D01*
X20196Y1496D01*
X20156Y1456D01*
X20196D01*
X20236Y1416D01*
Y1456D02*
X20256Y1476D01*
X20276D01*
X20256Y1496D01*
X20276Y1516D01*
X20256D01*
X20236Y1536D01*
X20216Y1516D01*
X20196D01*
X20216Y1496D01*
X20196Y1476D01*
X20216D01*
X20236Y1456D01*
X21378Y1416D02*
X21418Y1456D01*
X21458D01*
X21418Y1496D01*
X21458Y1536D01*
X21418D01*
X21378Y1576D01*
X21338Y1536D01*
X21298D01*
X21338Y1496D01*
X21298Y1456D01*
X21338D01*
X21378Y1416D01*
Y1456D02*
X21398Y1476D01*
X21418D01*
X21398Y1496D01*
X21418Y1516D01*
X21398D01*
X21378Y1536D01*
X21358Y1516D01*
X21338D01*
X21358Y1496D01*
X21338Y1476D01*
X21358D01*
X21378Y1456D01*
Y2597D02*
X21418Y2637D01*
X21458D01*
X21418Y2677D01*
X21458Y2717D01*
X21418D01*
X21378Y2757D01*
X21338Y2717D01*
X21298D01*
X21338Y2677D01*
X21298Y2637D01*
X21338D01*
X21378Y2597D01*
Y2637D02*
X21398Y2657D01*
X21418D01*
X21398Y2677D01*
X21418Y2697D01*
X21398D01*
X21378Y2717D01*
X21358Y2697D01*
X21338D01*
X21358Y2677D01*
X21338Y2657D01*
X21358D01*
X21378Y2637D01*
X20787Y2597D02*
X20827Y2637D01*
X20867D01*
X20827Y2677D01*
X20867Y2717D01*
X20827D01*
X20787Y2757D01*
X20747Y2717D01*
X20707D01*
X20747Y2677D01*
X20707Y2637D01*
X20747D01*
X20787Y2597D01*
Y2637D02*
X20807Y2657D01*
X20827D01*
X20807Y2677D01*
X20827Y2697D01*
X20807D01*
X20787Y2717D01*
X20767Y2697D01*
X20747D01*
X20767Y2677D01*
X20747Y2657D01*
X20767D01*
X20787Y2637D01*
Y1416D02*
X20827Y1456D01*
X20867D01*
X20827Y1496D01*
X20867Y1536D01*
X20827D01*
X20787Y1576D01*
X20747Y1536D01*
X20707D01*
X20747Y1496D01*
X20707Y1456D01*
X20747D01*
X20787Y1416D01*
Y1456D02*
X20807Y1476D01*
X20827D01*
X20807Y1496D01*
X20827Y1516D01*
X20807D01*
X20787Y1536D01*
X20767Y1516D01*
X20747D01*
X20767Y1496D01*
X20747Y1476D01*
X20767D01*
X20787Y1456D01*
X6693Y1810D02*
X6733Y1850D01*
X6773D01*
X6733Y1890D01*
X6773Y1930D01*
X6733D01*
X6693Y1970D01*
X6653Y1930D01*
X6613D01*
X6653Y1890D01*
X6613Y1850D01*
X6653D01*
X6693Y1810D01*
Y1850D02*
X6713Y1870D01*
X6733D01*
X6713Y1890D01*
X6733Y1910D01*
X6713D01*
X6693Y1930D01*
X6673Y1910D01*
X6653D01*
X6673Y1890D01*
X6653Y1870D01*
X6673D01*
X6693Y1850D01*
X5315Y1180D02*
X5355Y1220D01*
X5395D01*
X5355Y1260D01*
X5395Y1300D01*
X5355D01*
X5315Y1340D01*
X5275Y1300D01*
X5235D01*
X5275Y1260D01*
X5235Y1220D01*
X5275D01*
X5315Y1180D01*
Y1220D02*
X5335Y1240D01*
X5355D01*
X5335Y1260D01*
X5355Y1280D01*
X5335D01*
X5315Y1300D01*
X5295Y1280D01*
X5275D01*
X5295Y1260D01*
X5275Y1240D01*
X5295D01*
X5315Y1220D01*
X6378Y1180D02*
X6418Y1220D01*
X6458D01*
X6418Y1260D01*
X6458Y1300D01*
X6418D01*
X6378Y1340D01*
X6338Y1300D01*
X6298D01*
X6338Y1260D01*
X6298Y1220D01*
X6338D01*
X6378Y1180D01*
Y1220D02*
X6398Y1240D01*
X6418D01*
X6398Y1260D01*
X6418Y1280D01*
X6398D01*
X6378Y1300D01*
X6358Y1280D01*
X6338D01*
X6358Y1260D01*
X6338Y1240D01*
X6358D01*
X6378Y1220D01*
X5827Y1180D02*
X5867Y1220D01*
X5907D01*
X5867Y1260D01*
X5907Y1300D01*
X5867D01*
X5827Y1340D01*
X5787Y1300D01*
X5747D01*
X5787Y1260D01*
X5747Y1220D01*
X5787D01*
X5827Y1180D01*
Y1220D02*
X5847Y1240D01*
X5867D01*
X5847Y1260D01*
X5867Y1280D01*
X5847D01*
X5827Y1300D01*
X5807Y1280D01*
X5787D01*
X5807Y1260D01*
X5787Y1240D01*
X5807D01*
X5827Y1220D01*
X14252Y10511D02*
X14292Y10551D01*
X14332D01*
X14292Y10591D01*
X14332Y10631D01*
X14292D01*
X14252Y10671D01*
X14212Y10631D01*
X14172D01*
X14212Y10591D01*
X14172Y10551D01*
X14212D01*
X14252Y10511D01*
Y10551D02*
X14272Y10571D01*
X14292D01*
X14272Y10591D01*
X14292Y10611D01*
X14272D01*
X14252Y10631D01*
X14232Y10611D01*
X14212D01*
X14232Y10591D01*
X14212Y10571D01*
X14232D01*
X14252Y10551D01*
X11720Y8761D02*
X11760Y8801D01*
X11800D01*
X11760Y8841D01*
X11800Y8881D01*
X11760D01*
X11720Y8921D01*
X11680Y8881D01*
X11640D01*
X11680Y8841D01*
X11640Y8801D01*
X11680D01*
X11720Y8761D01*
Y8801D02*
X11740Y8821D01*
X11760D01*
X11740Y8841D01*
X11760Y8861D01*
X11740D01*
X11720Y8881D01*
X11700Y8861D01*
X11680D01*
X11700Y8841D01*
X11680Y8821D01*
X11700D01*
X11720Y8801D01*
X12677Y9719D02*
X12717Y9759D01*
X12757D01*
X12717Y9799D01*
X12757Y9839D01*
X12717D01*
X12677Y9879D01*
X12637Y9839D01*
X12597D01*
X12637Y9799D01*
X12597Y9759D01*
X12637D01*
X12677Y9719D01*
Y9759D02*
X12697Y9779D01*
X12717D01*
X12697Y9799D01*
X12717Y9819D01*
X12697D01*
X12677Y9839D01*
X12657Y9819D01*
X12637D01*
X12657Y9799D01*
X12637Y9779D01*
X12657D01*
X12677Y9759D01*
X8309Y9074D02*
X8349Y9114D01*
X8389D01*
X8349Y9154D01*
X8389Y9194D01*
X8349D01*
X8309Y9234D01*
X8269Y9194D01*
X8229D01*
X8269Y9154D01*
X8229Y9114D01*
X8269D01*
X8309Y9074D01*
Y9114D02*
X8329Y9134D01*
X8349D01*
X8329Y9154D01*
X8349Y9174D01*
X8329D01*
X8309Y9194D01*
X8289Y9174D01*
X8269D01*
X8289Y9154D01*
X8269Y9134D01*
X8289D01*
X8309Y9114D01*
X8622Y9290D02*
X8662Y9330D01*
X8702D01*
X8662Y9370D01*
X8702Y9410D01*
X8662D01*
X8622Y9450D01*
X8582Y9410D01*
X8542D01*
X8582Y9370D01*
X8542Y9330D01*
X8582D01*
X8622Y9290D01*
Y9330D02*
X8642Y9350D01*
X8662D01*
X8642Y9370D01*
X8662Y9390D01*
X8642D01*
X8622Y9410D01*
X8602Y9390D01*
X8582D01*
X8602Y9370D01*
X8582Y9350D01*
X8602D01*
X8622Y9330D01*
X7340Y8848D02*
X7380Y8888D01*
X7420D01*
X7380Y8928D01*
X7420Y8968D01*
X7380D01*
X7340Y9008D01*
X7300Y8968D01*
X7260D01*
X7300Y8928D01*
X7260Y8888D01*
X7300D01*
X7340Y8848D01*
Y8888D02*
X7360Y8908D01*
X7380D01*
X7360Y8928D01*
X7380Y8948D01*
X7360D01*
X7340Y8968D01*
X7320Y8948D01*
X7300D01*
X7320Y8928D01*
X7300Y8908D01*
X7320D01*
X7340Y8888D01*
X7642Y11318D02*
X7681Y11358D01*
X7721D01*
X7681Y11398D01*
X7721Y11438D01*
X7681D01*
X7642Y11478D01*
X7602Y11438D01*
X7562D01*
X7602Y11398D01*
X7562Y11358D01*
X7602D01*
X7642Y11318D01*
Y11358D02*
X7661Y11378D01*
X7681D01*
X7661Y11398D01*
X7681Y11418D01*
X7661D01*
X7642Y11438D01*
X7621Y11418D01*
X7602D01*
X7621Y11398D01*
X7602Y11378D01*
X7621D01*
X7642Y11358D01*
X8386Y12991D02*
X8426Y13031D01*
X8466D01*
X8426Y13071D01*
X8466Y13111D01*
X8426D01*
X8386Y13151D01*
X8346Y13111D01*
X8306D01*
X8346Y13071D01*
X8306Y13031D01*
X8346D01*
X8386Y12991D01*
Y13031D02*
X8406Y13051D01*
X8426D01*
X8406Y13071D01*
X8426Y13091D01*
X8406D01*
X8386Y13111D01*
X8366Y13091D01*
X8346D01*
X8366Y13071D01*
X8346Y13051D01*
X8366D01*
X8386Y13031D01*
X21047Y34159D02*
X21087Y34199D01*
X21127D01*
X21087Y34239D01*
X21127Y34279D01*
X21087D01*
X21047Y34319D01*
X21007Y34279D01*
X20967D01*
X21007Y34239D01*
X20967Y34199D01*
X21007D01*
X21047Y34159D01*
Y34199D02*
X21067Y34219D01*
X21087D01*
X21067Y34239D01*
X21087Y34259D01*
X21067D01*
X21047Y34279D01*
X21027Y34259D01*
X21007D01*
X21027Y34239D01*
X21007Y34219D01*
X21027D01*
X21047Y34199D01*
X20630Y34159D02*
X20670Y34199D01*
X20710D01*
X20670Y34239D01*
X20710Y34279D01*
X20670D01*
X20630Y34319D01*
X20590Y34279D01*
X20550D01*
X20590Y34239D01*
X20550Y34199D01*
X20590D01*
X20630Y34159D01*
Y34199D02*
X20650Y34219D01*
X20670D01*
X20650Y34239D01*
X20670Y34259D01*
X20650D01*
X20630Y34279D01*
X20610Y34259D01*
X20590D01*
X20610Y34239D01*
X20590Y34219D01*
X20610D01*
X20630Y34199D01*
X22783Y33119D02*
X22823Y33159D01*
X22863D01*
X22823Y33199D01*
X22863Y33239D01*
X22823D01*
X22783Y33279D01*
X22743Y33239D01*
X22703D01*
X22743Y33199D01*
X22703Y33159D01*
X22743D01*
X22783Y33119D01*
Y33159D02*
X22803Y33179D01*
X22823D01*
X22803Y33199D01*
X22823Y33219D01*
X22803D01*
X22783Y33239D01*
X22763Y33219D01*
X22743D01*
X22763Y33199D01*
X22743Y33179D01*
X22763D01*
X22783Y33159D01*
X23164Y34203D02*
X23204Y34243D01*
X23244D01*
X23204Y34283D01*
X23244Y34323D01*
X23204D01*
X23164Y34363D01*
X23124Y34323D01*
X23084D01*
X23124Y34283D01*
X23084Y34243D01*
X23124D01*
X23164Y34203D01*
Y34243D02*
X23184Y34263D01*
X23204D01*
X23184Y34283D01*
X23204Y34303D01*
X23184D01*
X23164Y34323D01*
X23144Y34303D01*
X23124D01*
X23144Y34283D01*
X23124Y34263D01*
X23144D01*
X23164Y34243D01*
X24592Y31256D02*
X24632Y31296D01*
X24672D01*
X24632Y31336D01*
X24672Y31376D01*
X24632D01*
X24592Y31416D01*
X24552Y31376D01*
X24512D01*
X24552Y31336D01*
X24512Y31296D01*
X24552D01*
X24592Y31256D01*
Y31296D02*
X24612Y31316D01*
X24632D01*
X24612Y31336D01*
X24632Y31356D01*
X24612D01*
X24592Y31376D01*
X24572Y31356D01*
X24552D01*
X24572Y31336D01*
X24552Y31316D01*
X24572D01*
X24592Y31296D01*
X22008Y31909D02*
X22048Y31949D01*
X22088D01*
X22048Y31989D01*
X22088Y32029D01*
X22048D01*
X22008Y32069D01*
X21968Y32029D01*
X21928D01*
X21968Y31989D01*
X21928Y31949D01*
X21968D01*
X22008Y31909D01*
Y31949D02*
X22028Y31969D01*
X22048D01*
X22028Y31989D01*
X22048Y32009D01*
X22028D01*
X22008Y32029D01*
X21988Y32009D01*
X21968D01*
X21988Y31989D01*
X21968Y31969D01*
X21988D01*
X22008Y31949D01*
X24277Y32137D02*
X24317Y32177D01*
X24357D01*
X24317Y32217D01*
X24357Y32257D01*
X24317D01*
X24277Y32297D01*
X24237Y32257D01*
X24197D01*
X24237Y32217D01*
X24197Y32177D01*
X24237D01*
X24277Y32137D01*
Y32177D02*
X24297Y32197D01*
X24317D01*
X24297Y32217D01*
X24317Y32237D01*
X24297D01*
X24277Y32257D01*
X24257Y32237D01*
X24237D01*
X24257Y32217D01*
X24237Y32197D01*
X24257D01*
X24277Y32177D01*
X24606Y32007D02*
X24646Y32047D01*
X24686D01*
X24646Y32087D01*
X24686Y32127D01*
X24646D01*
X24606Y32167D01*
X24566Y32127D01*
X24526D01*
X24566Y32087D01*
X24526Y32047D01*
X24566D01*
X24606Y32007D01*
Y32047D02*
X24626Y32067D01*
X24646D01*
X24626Y32087D01*
X24646Y32107D01*
X24626D01*
X24606Y32127D01*
X24586Y32107D01*
X24566D01*
X24586Y32087D01*
X24566Y32067D01*
X24586D01*
X24606Y32047D01*
Y31652D02*
X24646Y31692D01*
X24686D01*
X24646Y31732D01*
X24686Y31772D01*
X24646D01*
X24606Y31812D01*
X24566Y31772D01*
X24526D01*
X24566Y31732D01*
X24526Y31692D01*
X24566D01*
X24606Y31652D01*
Y31692D02*
X24626Y31712D01*
X24646D01*
X24626Y31732D01*
X24646Y31752D01*
X24626D01*
X24606Y31772D01*
X24586Y31752D01*
X24566D01*
X24586Y31732D01*
X24566Y31712D01*
X24586D01*
X24606Y31692D01*
X17262Y19581D02*
X17302Y19621D01*
X17342D01*
X17302Y19661D01*
X17342Y19701D01*
X17302D01*
X17262Y19741D01*
X17222Y19701D01*
X17182D01*
X17222Y19661D01*
X17182Y19621D01*
X17222D01*
X17262Y19581D01*
Y19621D02*
X17282Y19641D01*
X17302D01*
X17282Y19661D01*
X17302Y19681D01*
X17282D01*
X17262Y19701D01*
X17242Y19681D01*
X17222D01*
X17242Y19661D01*
X17222Y19641D01*
X17242D01*
X17262Y19621D01*
X17441Y19999D02*
X17481Y20039D01*
X17521D01*
X17481Y20079D01*
X17521Y20119D01*
X17481D01*
X17441Y20159D01*
X17401Y20119D01*
X17361D01*
X17401Y20079D01*
X17361Y20039D01*
X17401D01*
X17441Y19999D01*
Y20039D02*
X17461Y20059D01*
X17481D01*
X17461Y20079D01*
X17481Y20099D01*
X17461D01*
X17441Y20119D01*
X17421Y20099D01*
X17401D01*
X17421Y20079D01*
X17401Y20059D01*
X17421D01*
X17441Y20039D01*
X18045Y20589D02*
X18085Y20629D01*
X18125D01*
X18085Y20669D01*
X18125Y20709D01*
X18085D01*
X18045Y20749D01*
X18005Y20709D01*
X17965D01*
X18005Y20669D01*
X17965Y20629D01*
X18005D01*
X18045Y20589D01*
Y20629D02*
X18065Y20649D01*
X18085D01*
X18065Y20669D01*
X18085Y20689D01*
X18065D01*
X18045Y20709D01*
X18025Y20689D01*
X18005D01*
X18025Y20669D01*
X18005Y20649D01*
X18025D01*
X18045Y20629D01*
X17753Y20313D02*
X17793Y20353D01*
X17833D01*
X17793Y20393D01*
X17833Y20433D01*
X17793D01*
X17753Y20473D01*
X17713Y20433D01*
X17673D01*
X17713Y20393D01*
X17673Y20353D01*
X17713D01*
X17753Y20313D01*
Y20353D02*
X17773Y20373D01*
X17793D01*
X17773Y20393D01*
X17793Y20413D01*
X17773D01*
X17753Y20433D01*
X17733Y20413D01*
X17713D01*
X17733Y20393D01*
X17713Y20373D01*
X17733D01*
X17753Y20353D01*
X14803Y24684D02*
X14843Y24724D01*
X14883D01*
X14843Y24764D01*
X14883Y24804D01*
X14843D01*
X14803Y24844D01*
X14763Y24804D01*
X14723D01*
X14763Y24764D01*
X14723Y24724D01*
X14763D01*
X14803Y24684D01*
Y24724D02*
X14823Y24744D01*
X14843D01*
X14823Y24764D01*
X14843Y24784D01*
X14823D01*
X14803Y24804D01*
X14783Y24784D01*
X14763D01*
X14783Y24764D01*
X14763Y24744D01*
X14783D01*
X14803Y24724D01*
Y23227D02*
X14843Y23267D01*
X14883D01*
X14843Y23307D01*
X14883Y23347D01*
X14843D01*
X14803Y23387D01*
X14763Y23347D01*
X14723D01*
X14763Y23307D01*
X14723Y23267D01*
X14763D01*
X14803Y23227D01*
Y23267D02*
X14823Y23287D01*
X14843D01*
X14823Y23307D01*
X14843Y23327D01*
X14823D01*
X14803Y23347D01*
X14783Y23327D01*
X14763D01*
X14783Y23307D01*
X14763Y23287D01*
X14783D01*
X14803Y23267D01*
X11575Y25707D02*
X11615Y25747D01*
X11655D01*
X11615Y25787D01*
X11655Y25827D01*
X11615D01*
X11575Y25867D01*
X11535Y25827D01*
X11495D01*
X11535Y25787D01*
X11495Y25747D01*
X11535D01*
X11575Y25707D01*
Y25747D02*
X11595Y25767D01*
X11615D01*
X11595Y25787D01*
X11615Y25807D01*
X11595D01*
X11575Y25827D01*
X11555Y25807D01*
X11535D01*
X11555Y25787D01*
X11535Y25767D01*
X11555D01*
X11575Y25747D01*
X8622Y12243D02*
X8662Y12283D01*
X8702D01*
X8662Y12323D01*
X8702Y12363D01*
X8662D01*
X8622Y12403D01*
X8582Y12363D01*
X8542D01*
X8582Y12323D01*
X8542Y12283D01*
X8582D01*
X8622Y12243D01*
Y12283D02*
X8642Y12303D01*
X8662D01*
X8642Y12323D01*
X8662Y12343D01*
X8642D01*
X8622Y12363D01*
X8602Y12343D01*
X8582D01*
X8602Y12323D01*
X8582Y12303D01*
X8602D01*
X8622Y12283D01*
X9449Y5826D02*
X9489Y5866D01*
X9529D01*
X9489Y5906D01*
X9529Y5946D01*
X9489D01*
X9449Y5986D01*
X9409Y5946D01*
X9369D01*
X9409Y5906D01*
X9369Y5866D01*
X9409D01*
X9449Y5826D01*
Y5866D02*
X9469Y5886D01*
X9489D01*
X9469Y5906D01*
X9489Y5926D01*
X9469D01*
X9449Y5946D01*
X9429Y5926D01*
X9409D01*
X9429Y5906D01*
X9409Y5886D01*
X9429D01*
X9449Y5866D01*
X9134Y3070D02*
X9174Y3110D01*
X9214D01*
X9174Y3150D01*
X9214Y3190D01*
X9174D01*
X9134Y3230D01*
X9094Y3190D01*
X9054D01*
X9094Y3150D01*
X9054Y3110D01*
X9094D01*
X9134Y3070D01*
Y3110D02*
X9154Y3130D01*
X9174D01*
X9154Y3150D01*
X9174Y3170D01*
X9154D01*
X9134Y3190D01*
X9114Y3170D01*
X9094D01*
X9114Y3150D01*
X9094Y3130D01*
X9114D01*
X9134Y3110D01*
X10827Y5550D02*
X10867Y5590D01*
X10907D01*
X10867Y5630D01*
X10907Y5670D01*
X10867D01*
X10827Y5710D01*
X10787Y5670D01*
X10747D01*
X10787Y5630D01*
X10747Y5590D01*
X10787D01*
X10827Y5550D01*
Y5590D02*
X10847Y5610D01*
X10867D01*
X10847Y5630D01*
X10867Y5650D01*
X10847D01*
X10827Y5670D01*
X10807Y5650D01*
X10787D01*
X10807Y5630D01*
X10787Y5610D01*
X10807D01*
X10827Y5590D01*
X9600Y2971D02*
X9640Y3011D01*
X9680D01*
X9640Y3051D01*
X9680Y3091D01*
X9640D01*
X9600Y3131D01*
X9560Y3091D01*
X9520D01*
X9560Y3051D01*
X9520Y3011D01*
X9560D01*
X9600Y2971D01*
Y3011D02*
X9620Y3031D01*
X9640D01*
X9620Y3051D01*
X9640Y3071D01*
X9620D01*
X9600Y3091D01*
X9580Y3071D01*
X9560D01*
X9580Y3051D01*
X9560Y3031D01*
X9580D01*
X9600Y3011D01*
X11929Y4644D02*
X11969Y4684D01*
X12009D01*
X11969Y4724D01*
X12009Y4764D01*
X11969D01*
X11929Y4804D01*
X11889Y4764D01*
X11849D01*
X11889Y4724D01*
X11849Y4684D01*
X11889D01*
X11929Y4644D01*
Y4684D02*
X11949Y4704D01*
X11969D01*
X11949Y4724D01*
X11969Y4744D01*
X11949D01*
X11929Y4764D01*
X11909Y4744D01*
X11889D01*
X11909Y4724D01*
X11889Y4704D01*
X11909D01*
X11929Y4684D01*
X9291Y11613D02*
X9331Y11653D01*
X9371D01*
X9331Y11693D01*
X9371Y11733D01*
X9331D01*
X9291Y11773D01*
X9251Y11733D01*
X9211D01*
X9251Y11693D01*
X9211Y11653D01*
X9251D01*
X9291Y11613D01*
Y11653D02*
X9311Y11673D01*
X9331D01*
X9311Y11693D01*
X9331Y11713D01*
X9311D01*
X9291Y11733D01*
X9271Y11713D01*
X9251D01*
X9271Y11693D01*
X9251Y11673D01*
X9271D01*
X9291Y11653D01*
X6969Y11495D02*
X7009Y11535D01*
X7049D01*
X7009Y11575D01*
X7049Y11615D01*
X7009D01*
X6969Y11655D01*
X6928Y11615D01*
X6888D01*
X6928Y11575D01*
X6888Y11535D01*
X6928D01*
X6969Y11495D01*
Y11535D02*
X6988Y11555D01*
X7009D01*
X6988Y11575D01*
X7009Y11595D01*
X6988D01*
X6969Y11615D01*
X6949Y11595D01*
X6928D01*
X6949Y11575D01*
X6928Y11555D01*
X6949D01*
X6969Y11535D01*
X6732Y3542D02*
X6772Y3582D01*
X6812D01*
X6772Y3622D01*
X6812Y3662D01*
X6772D01*
X6732Y3702D01*
X6692Y3662D01*
X6652D01*
X6692Y3622D01*
X6652Y3582D01*
X6692D01*
X6732Y3542D01*
Y3582D02*
X6752Y3602D01*
X6772D01*
X6752Y3622D01*
X6772Y3642D01*
X6752D01*
X6732Y3662D01*
X6712Y3642D01*
X6692D01*
X6712Y3622D01*
X6692Y3602D01*
X6712D01*
X6732Y3582D01*
X7126Y3542D02*
X7166Y3582D01*
X7206D01*
X7166Y3622D01*
X7206Y3662D01*
X7166D01*
X7126Y3702D01*
X7086Y3662D01*
X7046D01*
X7086Y3622D01*
X7046Y3582D01*
X7086D01*
X7126Y3542D01*
Y3582D02*
X7146Y3602D01*
X7166D01*
X7146Y3622D01*
X7166Y3642D01*
X7146D01*
X7126Y3662D01*
X7106Y3642D01*
X7086D01*
X7106Y3622D01*
X7086Y3602D01*
X7106D01*
X7126Y3582D01*
X7480Y3542D02*
X7520Y3582D01*
X7560D01*
X7520Y3622D01*
X7560Y3662D01*
X7520D01*
X7480Y3702D01*
X7440Y3662D01*
X7400D01*
X7440Y3622D01*
X7400Y3582D01*
X7440D01*
X7480Y3542D01*
Y3582D02*
X7500Y3602D01*
X7520D01*
X7500Y3622D01*
X7520Y3642D01*
X7500D01*
X7480Y3662D01*
X7460Y3642D01*
X7440D01*
X7460Y3622D01*
X7440Y3602D01*
X7460D01*
X7480Y3582D01*
X8169Y6180D02*
X8209Y6220D01*
X8249D01*
X8209Y6260D01*
X8249Y6300D01*
X8209D01*
X8169Y6340D01*
X8129Y6300D01*
X8089D01*
X8129Y6260D01*
X8089Y6220D01*
X8129D01*
X8169Y6180D01*
Y6220D02*
X8189Y6240D01*
X8209D01*
X8189Y6260D01*
X8209Y6280D01*
X8189D01*
X8169Y6300D01*
X8149Y6280D01*
X8129D01*
X8149Y6260D01*
X8129Y6240D01*
X8149D01*
X8169Y6220D01*
X7480Y6652D02*
X7520Y6692D01*
X7560D01*
X7520Y6732D01*
X7560Y6772D01*
X7520D01*
X7480Y6812D01*
X7440Y6772D01*
X7400D01*
X7440Y6732D01*
X7400Y6692D01*
X7440D01*
X7480Y6652D01*
Y6692D02*
X7500Y6712D01*
X7520D01*
X7500Y6732D01*
X7520Y6752D01*
X7500D01*
X7480Y6772D01*
X7460Y6752D01*
X7440D01*
X7460Y6732D01*
X7440Y6712D01*
X7460D01*
X7480Y6692D01*
X8543Y4408D02*
X8583Y4448D01*
X8623D01*
X8583Y4488D01*
X8623Y4528D01*
X8583D01*
X8543Y4568D01*
X8503Y4528D01*
X8463D01*
X8503Y4488D01*
X8463Y4448D01*
X8503D01*
X8543Y4408D01*
Y4448D02*
X8563Y4468D01*
X8583D01*
X8563Y4488D01*
X8583Y4508D01*
X8563D01*
X8543Y4528D01*
X8523Y4508D01*
X8503D01*
X8523Y4488D01*
X8503Y4468D01*
X8523D01*
X8543Y4448D01*
Y4763D02*
X8583Y4803D01*
X8623D01*
X8583Y4843D01*
X8623Y4883D01*
X8583D01*
X8543Y4923D01*
X8503Y4883D01*
X8463D01*
X8503Y4843D01*
X8463Y4803D01*
X8503D01*
X8543Y4763D01*
Y4803D02*
X8563Y4823D01*
X8583D01*
X8563Y4843D01*
X8583Y4863D01*
X8563D01*
X8543Y4883D01*
X8523Y4863D01*
X8503D01*
X8523Y4843D01*
X8503Y4823D01*
X8523D01*
X8543Y4803D01*
Y5826D02*
X8583Y5866D01*
X8623D01*
X8583Y5906D01*
X8623Y5946D01*
X8583D01*
X8543Y5986D01*
X8503Y5946D01*
X8463D01*
X8503Y5906D01*
X8463Y5866D01*
X8503D01*
X8543Y5826D01*
Y5866D02*
X8563Y5886D01*
X8583D01*
X8563Y5906D01*
X8583Y5926D01*
X8563D01*
X8543Y5946D01*
X8523Y5926D01*
X8503D01*
X8523Y5906D01*
X8503Y5886D01*
X8523D01*
X8543Y5866D01*
X5709Y18590D02*
X5749Y18630D01*
X5789D01*
X5749Y18670D01*
X5789Y18710D01*
X5749D01*
X5709Y18750D01*
X5669Y18710D01*
X5629D01*
X5669Y18670D01*
X5629Y18630D01*
X5669D01*
X5709Y18590D01*
Y18630D02*
X5729Y18650D01*
X5749D01*
X5729Y18670D01*
X5749Y18690D01*
X5729D01*
X5709Y18710D01*
X5689Y18690D01*
X5669D01*
X5689Y18670D01*
X5669Y18650D01*
X5689D01*
X5709Y18630D01*
X4724Y19605D02*
X4764Y19645D01*
X4804D01*
X4764Y19685D01*
X4804Y19725D01*
X4764D01*
X4724Y19765D01*
X4684Y19725D01*
X4644D01*
X4684Y19685D01*
X4644Y19645D01*
X4684D01*
X4724Y19605D01*
Y19645D02*
X4744Y19665D01*
X4764D01*
X4744Y19685D01*
X4764Y19705D01*
X4744D01*
X4724Y19725D01*
X4704Y19705D01*
X4684D01*
X4704Y19685D01*
X4684Y19665D01*
X4704D01*
X4724Y19645D01*
X7293Y8050D02*
X7333Y8090D01*
X7373D01*
X7333Y8130D01*
X7373Y8170D01*
X7333D01*
X7293Y8210D01*
X7253Y8170D01*
X7213D01*
X7253Y8130D01*
X7213Y8090D01*
X7253D01*
X7293Y8050D01*
Y8090D02*
X7313Y8110D01*
X7333D01*
X7313Y8130D01*
X7333Y8150D01*
X7313D01*
X7293Y8170D01*
X7273Y8150D01*
X7253D01*
X7273Y8130D01*
X7253Y8110D01*
X7273D01*
X7293Y8090D01*
X6250Y4251D02*
X6290Y4291D01*
X6330D01*
X6290Y4331D01*
X6330Y4371D01*
X6290D01*
X6250Y4411D01*
X6210Y4371D01*
X6170D01*
X6210Y4331D01*
X6170Y4291D01*
X6210D01*
X6250Y4251D01*
Y4291D02*
X6270Y4311D01*
X6290D01*
X6270Y4331D01*
X6290Y4351D01*
X6270D01*
X6250Y4371D01*
X6230Y4351D01*
X6210D01*
X6230Y4331D01*
X6210Y4311D01*
X6230D01*
X6250Y4291D01*
X5945Y4959D02*
X5985Y4999D01*
X6025D01*
X5985Y5039D01*
X6025Y5079D01*
X5985D01*
X5945Y5119D01*
X5905Y5079D01*
X5865D01*
X5905Y5039D01*
X5865Y4999D01*
X5905D01*
X5945Y4959D01*
Y4999D02*
X5965Y5019D01*
X5985D01*
X5965Y5039D01*
X5985Y5059D01*
X5965D01*
X5945Y5079D01*
X5925Y5059D01*
X5905D01*
X5925Y5039D01*
X5905Y5019D01*
X5925D01*
X5945Y4999D01*
X3465Y11124D02*
X3505Y11164D01*
X3545D01*
X3505Y11204D01*
X3545Y11244D01*
X3505D01*
X3465Y11284D01*
X3425Y11244D01*
X3385D01*
X3425Y11204D01*
X3385Y11164D01*
X3425D01*
X3465Y11124D01*
Y11164D02*
X3485Y11184D01*
X3505D01*
X3485Y11204D01*
X3505Y11224D01*
X3485D01*
X3465Y11244D01*
X3445Y11224D01*
X3425D01*
X3445Y11204D01*
X3425Y11184D01*
X3445D01*
X3465Y11164D01*
Y10196D02*
X3505Y10236D01*
X3545D01*
X3505Y10276D01*
X3545Y10316D01*
X3505D01*
X3465Y10356D01*
X3425Y10316D01*
X3385D01*
X3425Y10276D01*
X3385Y10236D01*
X3425D01*
X3465Y10196D01*
Y10236D02*
X3485Y10256D01*
X3505D01*
X3485Y10276D01*
X3505Y10296D01*
X3485D01*
X3465Y10316D01*
X3445Y10296D01*
X3425D01*
X3445Y10276D01*
X3425Y10256D01*
X3445D01*
X3465Y10236D01*
X4173Y3445D02*
X4213Y3485D01*
X4253D01*
X4213Y3525D01*
X4253Y3565D01*
X4213D01*
X4173Y3605D01*
X4133Y3565D01*
X4093D01*
X4133Y3525D01*
X4093Y3485D01*
X4133D01*
X4173Y3445D01*
Y3485D02*
X4193Y3505D01*
X4213D01*
X4193Y3525D01*
X4213Y3545D01*
X4193D01*
X4173Y3565D01*
X4153Y3545D01*
X4133D01*
X4153Y3525D01*
X4133Y3505D01*
X4153D01*
X4173Y3485D01*
X3071Y1180D02*
X3111Y1220D01*
X3151D01*
X3111Y1260D01*
X3151Y1300D01*
X3111D01*
X3071Y1340D01*
X3031Y1300D01*
X2991D01*
X3031Y1260D01*
X2991Y1220D01*
X3031D01*
X3071Y1180D01*
Y1220D02*
X3091Y1240D01*
X3111D01*
X3091Y1260D01*
X3111Y1280D01*
X3091D01*
X3071Y1300D01*
X3051Y1280D01*
X3031D01*
X3051Y1260D01*
X3031Y1240D01*
X3051D01*
X3071Y1220D01*
Y589D02*
X3111Y629D01*
X3151D01*
X3111Y669D01*
X3151Y709D01*
X3111D01*
X3071Y749D01*
X3031Y709D01*
X2991D01*
X3031Y669D01*
X2991Y629D01*
X3031D01*
X3071Y589D01*
Y629D02*
X3091Y649D01*
X3111D01*
X3091Y669D01*
X3111Y689D01*
X3091D01*
X3071Y709D01*
X3051Y689D01*
X3031D01*
X3051Y669D01*
X3031Y649D01*
X3051D01*
X3071Y629D01*
X17874Y5668D02*
X17914Y5708D01*
X17954D01*
X17914Y5748D01*
X17954Y5788D01*
X17914D01*
X17874Y5828D01*
X17834Y5788D01*
X17794D01*
X17834Y5748D01*
X17794Y5708D01*
X17834D01*
X17874Y5668D01*
Y5708D02*
X17894Y5728D01*
X17914D01*
X17894Y5748D01*
X17914Y5768D01*
X17894D01*
X17874Y5788D01*
X17854Y5768D01*
X17834D01*
X17854Y5748D01*
X17834Y5728D01*
X17854D01*
X17874Y5708D01*
X6732Y3857D02*
X6772Y3897D01*
X6812D01*
X6772Y3937D01*
X6812Y3977D01*
X6772D01*
X6732Y4017D01*
X6692Y3977D01*
X6652D01*
X6692Y3937D01*
X6652Y3897D01*
X6692D01*
X6732Y3857D01*
Y3897D02*
X6752Y3917D01*
X6772D01*
X6752Y3937D01*
X6772Y3957D01*
X6752D01*
X6732Y3977D01*
X6712Y3957D01*
X6692D01*
X6712Y3937D01*
X6692Y3917D01*
X6712D01*
X6732Y3897D01*
X7874Y6652D02*
X7914Y6692D01*
X7954D01*
X7914Y6732D01*
X7954Y6772D01*
X7914D01*
X7874Y6812D01*
X7834Y6772D01*
X7794D01*
X7834Y6732D01*
X7794Y6692D01*
X7834D01*
X7874Y6652D01*
Y6692D02*
X7894Y6712D01*
X7914D01*
X7894Y6732D01*
X7914Y6752D01*
X7894D01*
X7874Y6772D01*
X7854Y6752D01*
X7834D01*
X7854Y6732D01*
X7834Y6712D01*
X7854D01*
X7874Y6692D01*
X7126Y6652D02*
X7166Y6692D01*
X7206D01*
X7166Y6732D01*
X7206Y6772D01*
X7166D01*
X7126Y6812D01*
X7086Y6772D01*
X7046D01*
X7086Y6732D01*
X7046Y6692D01*
X7086D01*
X7126Y6652D01*
Y6692D02*
X7146Y6712D01*
X7166D01*
X7146Y6732D01*
X7166Y6752D01*
X7146D01*
X7126Y6772D01*
X7106Y6752D01*
X7086D01*
X7106Y6732D01*
X7086Y6712D01*
X7106D01*
X7126Y6692D01*
X5945Y5668D02*
X5985Y5708D01*
X6025D01*
X5985Y5748D01*
X6025Y5788D01*
X5985D01*
X5945Y5828D01*
X5905Y5788D01*
X5865D01*
X5905Y5748D01*
X5865Y5708D01*
X5905D01*
X5945Y5668D01*
Y5708D02*
X5965Y5728D01*
X5985D01*
X5965Y5748D01*
X5985Y5768D01*
X5965D01*
X5945Y5788D01*
X5925Y5768D01*
X5905D01*
X5925Y5748D01*
X5905Y5728D01*
X5925D01*
X5945Y5708D01*
X8543Y5471D02*
X8583Y5511D01*
X8623D01*
X8583Y5551D01*
X8623Y5591D01*
X8583D01*
X8543Y5631D01*
X8503Y5591D01*
X8463D01*
X8503Y5551D01*
X8463Y5511D01*
X8503D01*
X8543Y5471D01*
Y5511D02*
X8563Y5531D01*
X8583D01*
X8563Y5551D01*
X8583Y5571D01*
X8563D01*
X8543Y5591D01*
X8523Y5571D01*
X8503D01*
X8523Y5551D01*
X8503Y5531D01*
X8523D01*
X8543Y5511D01*
X8169Y3975D02*
X8209Y4015D01*
X8249D01*
X8209Y4055D01*
X8249Y4095D01*
X8209D01*
X8169Y4135D01*
X8129Y4095D01*
X8089D01*
X8129Y4055D01*
X8089Y4015D01*
X8129D01*
X8169Y3975D01*
Y4015D02*
X8189Y4035D01*
X8209D01*
X8189Y4055D01*
X8209Y4075D01*
X8189D01*
X8169Y4095D01*
X8149Y4075D01*
X8129D01*
X8149Y4055D01*
X8129Y4035D01*
X8149D01*
X8169Y4015D01*
Y3542D02*
X8209Y3582D01*
X8249D01*
X8209Y3622D01*
X8249Y3662D01*
X8209D01*
X8169Y3702D01*
X8129Y3662D01*
X8089D01*
X8129Y3622D01*
X8089Y3582D01*
X8129D01*
X8169Y3542D01*
Y3582D02*
X8189Y3602D01*
X8209D01*
X8189Y3622D01*
X8209Y3642D01*
X8189D01*
X8169Y3662D01*
X8149Y3642D01*
X8129D01*
X8149Y3622D01*
X8129Y3602D01*
X8149D01*
X8169Y3582D01*
X7815Y3542D02*
X7855Y3582D01*
X7895D01*
X7855Y3622D01*
X7895Y3662D01*
X7855D01*
X7815Y3702D01*
X7775Y3662D01*
X7735D01*
X7775Y3622D01*
X7735Y3582D01*
X7775D01*
X7815Y3542D01*
Y3582D02*
X7835Y3602D01*
X7855D01*
X7835Y3622D01*
X7855Y3642D01*
X7835D01*
X7815Y3662D01*
X7795Y3642D01*
X7775D01*
X7795Y3622D01*
X7775Y3602D01*
X7795D01*
X7815Y3582D01*
X7205Y5117D02*
X7245Y5157D01*
X7285D01*
X7245Y5197D01*
X7285Y5237D01*
X7245D01*
X7205Y5277D01*
X7165Y5237D01*
X7125D01*
X7165Y5197D01*
X7125Y5157D01*
X7165D01*
X7205Y5117D01*
Y5157D02*
X7225Y5177D01*
X7245D01*
X7225Y5197D01*
X7245Y5217D01*
X7225D01*
X7205Y5237D01*
X7185Y5217D01*
X7165D01*
X7185Y5197D01*
X7165Y5177D01*
X7185D01*
X7205Y5157D01*
X6752Y4182D02*
X6792Y4222D01*
X6832D01*
X6792Y4262D01*
X6832Y4302D01*
X6792D01*
X6752Y4342D01*
X6712Y4302D01*
X6672D01*
X6712Y4262D01*
X6672Y4222D01*
X6712D01*
X6752Y4182D01*
Y4222D02*
X6772Y4242D01*
X6792D01*
X6772Y4262D01*
X6792Y4282D01*
X6772D01*
X6752Y4302D01*
X6732Y4282D01*
X6712D01*
X6732Y4262D01*
X6712Y4242D01*
X6732D01*
X6752Y4222D01*
X8169Y4398D02*
X8209Y4438D01*
X8249D01*
X8209Y4478D01*
X8249Y4518D01*
X8209D01*
X8169Y4558D01*
X8129Y4518D01*
X8089D01*
X8129Y4478D01*
X8089Y4438D01*
X8129D01*
X8169Y4398D01*
Y4438D02*
X8189Y4458D01*
X8209D01*
X8189Y4478D01*
X8209Y4498D01*
X8189D01*
X8169Y4518D01*
X8149Y4498D01*
X8129D01*
X8149Y4478D01*
X8129Y4458D01*
X8149D01*
X8169Y4438D01*
Y5845D02*
X8209Y5885D01*
X8249D01*
X8209Y5925D01*
X8249Y5965D01*
X8209D01*
X8169Y6005D01*
X8129Y5965D01*
X8089D01*
X8129Y5925D01*
X8089Y5885D01*
X8129D01*
X8169Y5845D01*
Y5885D02*
X8189Y5905D01*
X8209D01*
X8189Y5925D01*
X8209Y5945D01*
X8189D01*
X8169Y5965D01*
X8149Y5945D01*
X8129D01*
X8149Y5925D01*
X8129Y5905D01*
X8149D01*
X8169Y5885D01*
X8543Y5117D02*
X8583Y5157D01*
X8623D01*
X8583Y5197D01*
X8623Y5237D01*
X8583D01*
X8543Y5277D01*
X8503Y5237D01*
X8463D01*
X8503Y5197D01*
X8463Y5157D01*
X8503D01*
X8543Y5117D01*
Y5157D02*
X8563Y5177D01*
X8583D01*
X8563Y5197D01*
X8583Y5217D01*
X8563D01*
X8543Y5237D01*
X8523Y5217D01*
X8503D01*
X8523Y5197D01*
X8503Y5177D01*
X8523D01*
X8543Y5157D01*
D113*
X13902Y25984D02*
G03*
X13902Y25984I-80J0D01*
G01*
X8137Y20953D02*
G03*
X8137Y20953I-80J0D01*
G01*
X7137Y20932D02*
G03*
X7137Y20932I-80J0D01*
G01*
X6137D02*
G03*
X6137Y20932I-80J0D01*
G01*
X5137D02*
G03*
X5137Y20932I-80J0D01*
G01*
D114*
X8097Y20953D02*
G03*
X8097Y20953I-40J0D01*
G01*
X7097Y20932D02*
G03*
X7097Y20932I-40J0D01*
G01*
X6097D02*
G03*
X6097Y20932I-40J0D01*
G01*
X5097D02*
G03*
X5097Y20932I-40J0D01*
G01*
M02*
