G04 Layer_Color=8388736*
%FSLAX25Y25*%
%MOIN*%
G70*
G01*
G75*
%ADD67R,0.04540X0.04343*%
%ADD68R,0.04343X0.04737*%
%ADD69R,0.04737X0.04147*%
%ADD70R,0.06312X0.04540*%
%ADD71R,0.04343X0.04540*%
%ADD72R,0.05308X0.02965*%
%ADD73R,0.02965X0.05308*%
%ADD74R,0.05721X0.03162*%
%ADD75R,0.05209X0.05682*%
%ADD76R,0.06036X0.06036*%
%ADD77R,0.04343X0.08674*%
%ADD78R,0.08674X0.04343*%
%ADD79R,0.03162X0.05721*%
%ADD80R,0.03162X0.05524*%
%ADD81R,0.01981X0.05524*%
%ADD82O,0.01902X0.03950*%
%ADD83O,0.03950X0.01902*%
%ADD84R,0.11430X0.11430*%
%ADD85R,0.06312X0.03162*%
%ADD86R,0.04147X0.04737*%
%ADD87R,0.05524X0.11430*%
%ADD88R,0.06706X0.08280*%
%ADD89R,0.03359X0.02178*%
%ADD90R,0.05131X0.07493*%
%ADD91R,0.05682X0.05209*%
%ADD92R,0.07099X0.14186*%
%ADD93R,0.04737X0.18910*%
%ADD94R,0.03300X0.09100*%
%ADD95R,0.10400X0.14000*%
%ADD96O,0.04737X0.07887*%
%ADD97O,0.04737X0.09461*%
%ADD98C,0.06902*%
%ADD99C,0.04934*%
%ADD100C,0.06800*%
%ADD101C,0.10249*%
%ADD102C,0.09658*%
%ADD103C,0.07202*%
%ADD104C,0.05202*%
G36*
X139910Y231731D02*
X140689Y231408D01*
X141357Y230895D01*
X141870Y230227D01*
X142192Y229448D01*
X142302Y228613D01*
X142192Y227778D01*
X141870Y226999D01*
X141357Y226331D01*
X140689Y225818D01*
X139910Y225495D01*
X139075Y225385D01*
X138239Y225495D01*
X137461Y225818D01*
X136793Y226331D01*
X136280Y226999D01*
X135957Y227778D01*
X135847Y228613D01*
X135957Y229448D01*
X136280Y230227D01*
X136793Y230895D01*
X137461Y231408D01*
X138239Y231731D01*
X139075Y231840D01*
X139910Y231731D01*
D02*
G37*
G36*
X238596Y232705D02*
X239618Y232282D01*
X240495Y231609D01*
X241169Y230731D01*
X241592Y229710D01*
X241736Y228613D01*
X241592Y227517D01*
X241169Y226495D01*
X240495Y225618D01*
X239618Y224944D01*
X238596Y224521D01*
X237500Y224377D01*
X236404Y224521D01*
X235382Y224944D01*
X234505Y225618D01*
X233831Y226495D01*
X233408Y227517D01*
X233264Y228613D01*
X233408Y229710D01*
X233831Y230731D01*
X234505Y231609D01*
X235382Y232282D01*
X236404Y232705D01*
X237500Y232849D01*
X238596Y232705D01*
D02*
G37*
D67*
X33900Y379780D02*
D03*
Y385685D02*
D03*
X37300Y354009D02*
D03*
Y359914D02*
D03*
X138300Y257219D02*
D03*
Y263124D02*
D03*
X144900Y257219D02*
D03*
Y263124D02*
D03*
X238250Y311167D02*
D03*
Y305262D02*
D03*
X220250Y302215D02*
D03*
Y296309D02*
D03*
X207035Y345061D02*
D03*
Y339156D02*
D03*
X184035Y339156D02*
D03*
Y333250D02*
D03*
Y345844D02*
D03*
Y351750D02*
D03*
X214035Y339156D02*
D03*
Y345061D02*
D03*
D68*
X13429Y359914D02*
D03*
X29571D02*
D03*
Y353615D02*
D03*
X13429D02*
D03*
X118039Y379386D02*
D03*
X134181D02*
D03*
Y385685D02*
D03*
X118039D02*
D03*
X11614Y379386D02*
D03*
X27756D02*
D03*
Y385685D02*
D03*
X11614D02*
D03*
D69*
X4800Y354009D02*
D03*
Y359914D02*
D03*
X195374Y289069D02*
D03*
Y294974D02*
D03*
X37000Y294512D02*
D03*
Y300417D02*
D03*
X15500Y294512D02*
D03*
Y300417D02*
D03*
X4800Y379780D02*
D03*
Y385685D02*
D03*
X109500Y166417D02*
D03*
Y160512D02*
D03*
D70*
X186512Y305428D02*
D03*
Y312909D02*
D03*
X248439Y306306D02*
D03*
Y313786D02*
D03*
X229561Y312909D02*
D03*
Y305428D02*
D03*
D71*
X171752Y305262D02*
D03*
X177658D02*
D03*
X109453Y154500D02*
D03*
X103547D02*
D03*
X109453Y148200D02*
D03*
X103547D02*
D03*
X169047Y278265D02*
D03*
X174953D02*
D03*
X169047Y268200D02*
D03*
X174953D02*
D03*
X153866D02*
D03*
X159772D02*
D03*
X31094Y309965D02*
D03*
X37000D02*
D03*
X81047Y172900D02*
D03*
X86953D02*
D03*
X102453D02*
D03*
X96547D02*
D03*
X208234Y308715D02*
D03*
X202329D02*
D03*
D72*
X87981Y167674D02*
D03*
Y164524D02*
D03*
Y161375D02*
D03*
Y158225D02*
D03*
Y155076D02*
D03*
Y151926D02*
D03*
X96619D02*
D03*
Y155076D02*
D03*
Y158225D02*
D03*
Y161375D02*
D03*
Y164524D02*
D03*
Y167674D02*
D03*
D73*
X92300Y151540D02*
D03*
Y168060D02*
D03*
D74*
X60866Y304724D02*
D03*
Y297205D02*
D03*
X69134Y300965D02*
D03*
X162134Y278265D02*
D03*
X153866Y274505D02*
D03*
Y282024D02*
D03*
X199669Y329490D02*
D03*
Y337010D02*
D03*
X191402Y333250D02*
D03*
X199169Y347990D02*
D03*
Y355510D02*
D03*
X190902Y351750D02*
D03*
D75*
X48500Y309965D02*
D03*
Y298153D02*
D03*
D76*
X81535Y243815D02*
D03*
X74448D02*
D03*
X67362D02*
D03*
X81535Y236728D02*
D03*
X74448D02*
D03*
X67362D02*
D03*
X81535Y229642D02*
D03*
X74448D02*
D03*
X67362D02*
D03*
D77*
X44921Y274130D02*
D03*
X49921D02*
D03*
X54921D02*
D03*
X59921D02*
D03*
X64921D02*
D03*
X69921D02*
D03*
X74921D02*
D03*
X79921D02*
D03*
X84921D02*
D03*
X89921D02*
D03*
X94921D02*
D03*
X99921D02*
D03*
X104921D02*
D03*
X109921D02*
D03*
Y207201D02*
D03*
X104921D02*
D03*
X99921D02*
D03*
X94921D02*
D03*
X89921D02*
D03*
X84921D02*
D03*
X79921D02*
D03*
X74921D02*
D03*
X69921D02*
D03*
X64921D02*
D03*
X59921D02*
D03*
X54921D02*
D03*
X49921D02*
D03*
X44921D02*
D03*
D78*
X113858Y263165D02*
D03*
Y258165D02*
D03*
Y253165D02*
D03*
Y248165D02*
D03*
Y243165D02*
D03*
Y238165D02*
D03*
Y233165D02*
D03*
Y228165D02*
D03*
Y223165D02*
D03*
Y218165D02*
D03*
D79*
X172000Y293134D02*
D03*
X175760Y284866D02*
D03*
X168240D02*
D03*
D80*
X182629Y369790D02*
D03*
X179480D02*
D03*
X160582D02*
D03*
X157432D02*
D03*
D81*
X176921D02*
D03*
X174952D02*
D03*
X172984D02*
D03*
X171015D02*
D03*
X169047D02*
D03*
X167078D02*
D03*
X165110D02*
D03*
X163141D02*
D03*
D82*
X165221Y340084D02*
D03*
X163253D02*
D03*
X161284D02*
D03*
X159316D02*
D03*
X157347D02*
D03*
X155379D02*
D03*
Y324336D02*
D03*
X157347D02*
D03*
X159316D02*
D03*
X161284D02*
D03*
X163253D02*
D03*
X165190D02*
D03*
D83*
X152427Y337130D02*
D03*
X152427Y335162D02*
D03*
X152427Y333193D02*
D03*
X152427Y331225D02*
D03*
X152427Y329256D02*
D03*
X152427Y327288D02*
D03*
X168175D02*
D03*
X168175Y329256D02*
D03*
X168175Y331225D02*
D03*
X168175Y333193D02*
D03*
X168175Y335162D02*
D03*
X168175Y337130D02*
D03*
D84*
X160252Y332210D02*
D03*
D85*
X202329Y276490D02*
D03*
Y272750D02*
D03*
Y269010D02*
D03*
X212171D02*
D03*
Y276490D02*
D03*
X202329Y302455D02*
D03*
Y298715D02*
D03*
Y294974D02*
D03*
X212171D02*
D03*
Y302455D02*
D03*
D86*
X218203Y287000D02*
D03*
X212297D02*
D03*
X141797Y339750D02*
D03*
X147703D02*
D03*
X232953Y276490D02*
D03*
X227047D02*
D03*
X49921Y187465D02*
D03*
X44015D02*
D03*
X55015Y194465D02*
D03*
X60921D02*
D03*
X49921D02*
D03*
X44015D02*
D03*
D87*
X145977Y43812D02*
D03*
X136135D02*
D03*
X231410D02*
D03*
X241253D02*
D03*
D88*
X141056Y20584D02*
D03*
X236332D02*
D03*
D89*
X30134Y297905D02*
D03*
Y300465D02*
D03*
Y303024D02*
D03*
X21866D02*
D03*
Y300465D02*
D03*
Y297905D02*
D03*
D90*
X26000Y300465D02*
D03*
D91*
X239906Y324250D02*
D03*
X228095D02*
D03*
D92*
X248273Y384156D02*
D03*
X221501D02*
D03*
D93*
X238824Y363683D02*
D03*
X230950D02*
D03*
D94*
X196949Y244755D02*
D03*
X181201D02*
D03*
X168602D02*
D03*
X174902D02*
D03*
X193799D02*
D03*
X187500D02*
D03*
X184350D02*
D03*
X190650D02*
D03*
X171752D02*
D03*
X178051D02*
D03*
X165453D02*
D03*
X233169Y212471D02*
D03*
X230020D02*
D03*
X226870D02*
D03*
X220571D02*
D03*
X214272D02*
D03*
X211122D02*
D03*
X223721D02*
D03*
X217421D02*
D03*
X212697Y244755D02*
D03*
X215846D02*
D03*
X222146D02*
D03*
X231594D02*
D03*
X225295D02*
D03*
X218996D02*
D03*
X234744D02*
D03*
X228445D02*
D03*
X144980Y212471D02*
D03*
X148130D02*
D03*
X157579D02*
D03*
X163878D02*
D03*
X141831D02*
D03*
X160728D02*
D03*
X154429D02*
D03*
X167028D02*
D03*
X151280D02*
D03*
X156004Y244755D02*
D03*
X146555D02*
D03*
X149705D02*
D03*
X162303D02*
D03*
X159154D02*
D03*
X152854D02*
D03*
X143406D02*
D03*
X170177Y212471D02*
D03*
X192224D02*
D03*
X189075D02*
D03*
X185925D02*
D03*
X195374D02*
D03*
X176476D02*
D03*
X173327D02*
D03*
X182776D02*
D03*
X179626D02*
D03*
D95*
X245669Y242392D02*
D03*
X130905D02*
D03*
D96*
X153023Y372152D02*
D03*
X187039D02*
D03*
D97*
X187039Y387900D02*
D03*
X153023D02*
D03*
D98*
X236332Y31410D02*
D03*
D99*
X141056D02*
D03*
D100*
X111839Y35771D02*
D03*
X19319D02*
D03*
X111839Y129472D02*
D03*
X19319D02*
D03*
X80579Y130078D02*
D03*
X70579Y129866D02*
D03*
X60579D02*
D03*
X50579D02*
D03*
D101*
X54000Y349465D02*
D03*
X72898D02*
D03*
X91795D02*
D03*
D102*
X46716Y385685D02*
D03*
X99079D02*
D03*
D103*
X237500Y228613D02*
D03*
D104*
X139075Y228613D02*
D03*
M02*
