M48
;Layer_Color=9474304
;FILE_FORMAT=2:5
INCH,TZ
;TYPE=PLATED
T1F00S00C0.01181
T2F00S00C0.01378
T3F00S00C0.01575
T5F00S00C0.03500
T6F00S00C0.05906
T7F00S00C0.06299
;TYPE=NON_PLATED
T8F00S00C0.04134
T9F00S00C0.04400
T10F00S00C0.06102
T11F00S00C0.06400
T12F00S00C0.08000
%
T01
X74900Y196300
X74921Y215221
X84921Y214979
X20250Y329000
X9300Y359914
X31900Y366200
T02
X75000Y157100
X112800Y155300
X149200Y154900
X159200Y155100
Y165600
X149200Y165400
Y175900
X159200Y176200
Y144600
X149200Y144400
Y133900
X159200Y134100
Y123600
X149200Y123300
Y112800
X159200Y113100
Y102600
X149200Y102500
Y91900
X232700Y92100
Y102600
Y113100
Y123600
Y134100
Y144600
Y155100
Y165600
X243200
Y155100
Y144600
Y134100
Y123600
Y113100
Y102600
Y92100
X243000Y176200
X232500
Y186700
X243000
X243900Y253100
X249800
X238000
X232200
X226300
X220300
X214400
X208500
X202500
X196500
X190600
X184700
X178700
X172800
X166900
X122200Y251200
Y255200
Y259200
Y247200
Y243200
Y239200
Y235200
Y231100
Y227000
Y222900
Y218800
X149400Y186200
X158900Y186700
X104200Y283700
X101200
X98200
X95200
X92200
X89200
X86000Y283500
Y286600
Y289600
Y292600
Y295600
Y298700
X89100
X92100
X95100
X98200Y298800
X101200
X104100
Y295800
Y292800
Y289800
X104200Y286700
X101000Y325500
X101100Y329000
Y332000
Y335000
Y338100
Y341200
Y344200
Y347200
X167000Y358300
X169800
X172600
X175400
X178200
T03
X66100Y143000
X80700Y155900
X75000Y167800
X45900Y180200
X108800Y179000
X114500
X125700Y166900
Y162500
Y158100
Y153700
Y149200
Y144700
Y140200
Y135700
Y131200
Y126700
X125600Y122100
Y118100
Y114100
Y110000
Y105900
Y101900
Y97900
X252200Y97300
Y101300
Y105300
Y109400
Y113500
Y117500
Y121500
X252300Y125800
Y130600
Y135100
Y139600
Y144100
Y148600
Y153100
Y157500
Y161900
Y166300
X219500Y276500
X215646Y291500
X215900Y308900
X194800Y284000
X191800Y265900
X175200Y273000
X152750Y298000
X131750Y284500
X171500Y323250
X194500Y325250
X185925Y219575
X162303Y235197
X88400Y226500
X55000Y216750
X59000Y199500
X46100Y200000
X54200Y189900
X62250Y183000
X70000Y263500
X42500Y319500
X18750Y311000
X39750Y339250
X140300Y353400
X155000Y352000
X159250Y350715
X157000Y345250
X162000Y344750
X151500Y345500
X176656Y345844
X189750Y342250
X132864Y368364
X210250Y349500
T05
X50579Y129866
X60579
X70579
X80579Y130078
T06
X46716Y385685
X99079
T07
X54000Y349465
X72898
X91795
T08
X141056Y31410
T09
X139075Y228613
T10
X236332Y31410
T11
X237500Y228613
T12
X19319Y35771
Y129472
X111839
Y35771
M30
