G04*
G04 #@! TF.GenerationSoftware,Altium Limited,Altium Designer,21.8.1 (53)*
G04*
G04 Layer_Color=8388736*
%FSLAX24Y24*%
%MOIN*%
G70*
G04*
G04 #@! TF.SameCoordinates,B3635B53-E57D-41D0-81A0-B41BD292B6FB*
G04*
G04*
G04 #@! TF.FilePolarity,Negative*
G04*
G01*
G75*
%ADD41R,0.0433X0.0669*%
%ADD45R,0.0512X0.1102*%
%ADD46R,0.0630X0.0787*%
%ADD47R,0.0266X0.0846*%
%ADD48R,0.0999X0.1359*%
%ADD49R,0.0433X0.0374*%
%ADD50R,0.0531X0.0276*%
%ADD51R,0.0480X0.0528*%
%ADD52R,0.0374X0.0433*%
%ADD53R,0.1359X0.0789*%
%ADD54R,0.0276X0.0531*%
%ADD55R,0.0197X0.0354*%
%ADD56R,0.0354X0.0197*%
%ADD57R,0.0610X0.0610*%
%ADD58R,0.0315X0.0315*%
%ADD59R,0.0413X0.0394*%
%ADD60R,0.0394X0.0413*%
%ADD61R,0.0472X0.0610*%
%ADD62R,0.0610X0.0472*%
%ADD63R,0.0276X0.0591*%
%ADD64R,0.0551X0.0512*%
%ADD65R,0.1102X0.1102*%
%ADD66O,0.0354X0.0150*%
%ADD67O,0.0150X0.0354*%
%ADD68R,0.0787X0.0472*%
%ADD69R,0.0295X0.0177*%
%ADD70R,0.0256X0.0490*%
%ADD71R,0.0490X0.0256*%
%ADD72R,0.0578X0.0578*%
%ADD73C,0.0578*%
%ADD74C,0.0690*%
%ADD75C,0.0453*%
%ADD76C,0.0827*%
%ADD77C,0.0680*%
%ADD78C,0.0480*%
%ADD79O,0.0425X0.0811*%
%ADD80O,0.0465X0.0890*%
%ADD81C,0.2126*%
%ADD82C,0.0639*%
%ADD83C,0.2008*%
G36*
X3996Y6506D02*
Y5856D01*
X3606D01*
X3346Y6116D01*
Y6506D01*
X3996D01*
D02*
G37*
G36*
X13701Y6683D02*
X13591Y6669D01*
X13489Y6627D01*
X13401Y6559D01*
X13334Y6472D01*
X13292Y6369D01*
X13277Y6260D01*
X13292Y6150D01*
X13334Y6048D01*
X13401Y5960D01*
X13489Y5893D01*
X13591Y5851D01*
X13701Y5836D01*
D01*
X13810Y5851D01*
X13913Y5893D01*
X14000Y5960D01*
X14068Y6048D01*
X14110Y6150D01*
X14124Y6260D01*
X14110Y6369D01*
X14068Y6472D01*
X14000Y6559D01*
X13913Y6627D01*
X13810Y6669D01*
X13701Y6683D01*
D01*
D02*
G37*
G36*
X23543Y6583D02*
X23460Y6572D01*
X23382Y6539D01*
X23315Y6488D01*
X23264Y6421D01*
X23232Y6343D01*
X23221Y6260D01*
X23232Y6176D01*
X23264Y6098D01*
X23315Y6032D01*
X23382Y5980D01*
X23460Y5948D01*
X23543Y5937D01*
D01*
X23627Y5948D01*
X23705Y5980D01*
X23772Y6032D01*
X23823Y6098D01*
X23855Y6176D01*
X23866Y6260D01*
X23855Y6343D01*
X23823Y6421D01*
X23772Y6488D01*
X23705Y6539D01*
X23627Y6572D01*
X23543Y6583D01*
D01*
D02*
G37*
G36*
X19252Y12047D02*
Y12677D01*
X19646D01*
Y12047D01*
X19252D01*
D02*
G37*
G36*
X18543D02*
Y12677D01*
X18937D01*
Y12047D01*
X18543D01*
D02*
G37*
D41*
X9646Y23720D02*
D03*
D45*
X22858Y24744D02*
D03*
X23842D02*
D03*
X14314D02*
D03*
X13330D02*
D03*
D46*
X23350Y27067D02*
D03*
X13822D02*
D03*
D47*
X13976Y4646D02*
D03*
X17756D02*
D03*
X19331D02*
D03*
X20591D02*
D03*
X19961D02*
D03*
X18071D02*
D03*
X18701D02*
D03*
X19016D02*
D03*
X18386D02*
D03*
X20276D02*
D03*
X19646D02*
D03*
X20906D02*
D03*
X14134Y7874D02*
D03*
X14449D02*
D03*
X14764D02*
D03*
X15394D02*
D03*
X16024D02*
D03*
X16339D02*
D03*
X15079D02*
D03*
X15709D02*
D03*
X16181Y4646D02*
D03*
X15866D02*
D03*
X15236D02*
D03*
X14291D02*
D03*
X14921D02*
D03*
X15551D02*
D03*
X14606D02*
D03*
X22953Y7874D02*
D03*
X22638D02*
D03*
X21693D02*
D03*
X21063D02*
D03*
X23268D02*
D03*
X21378D02*
D03*
X22008D02*
D03*
X20748D02*
D03*
X22323D02*
D03*
X21850Y4646D02*
D03*
X22795D02*
D03*
X22480D02*
D03*
X21220D02*
D03*
X21535D02*
D03*
X22165D02*
D03*
X23110D02*
D03*
X20433Y7874D02*
D03*
X18228D02*
D03*
X18543D02*
D03*
X18858D02*
D03*
X17913D02*
D03*
X19803D02*
D03*
X20118D02*
D03*
X19173D02*
D03*
X19488D02*
D03*
D48*
X12884Y4882D02*
D03*
X24360D02*
D03*
D49*
X8465Y23307D02*
D03*
Y23898D02*
D03*
X10945Y24390D02*
D03*
Y23799D02*
D03*
X20630Y33917D02*
D03*
Y33327D02*
D03*
X21457Y31870D02*
D03*
Y32461D02*
D03*
X10906Y2067D02*
D03*
Y2657D02*
D03*
X20079Y29035D02*
D03*
Y28445D02*
D03*
D50*
X10059Y25591D02*
D03*
X9232Y25215D02*
D03*
Y25967D02*
D03*
X11043Y6890D02*
D03*
X10217Y6514D02*
D03*
Y7266D02*
D03*
X11043Y8089D02*
D03*
Y8841D02*
D03*
X10217Y8465D02*
D03*
D51*
X8268Y25394D02*
D03*
Y26575D02*
D03*
X21063Y28346D02*
D03*
Y29528D02*
D03*
D52*
X6004Y22308D02*
D03*
X5413D02*
D03*
X7776Y6260D02*
D03*
X7185D02*
D03*
X7776Y4173D02*
D03*
X7185D02*
D03*
X21398Y3740D02*
D03*
X21988D02*
D03*
X17736Y30354D02*
D03*
X17146D02*
D03*
X19114Y10827D02*
D03*
X19705D02*
D03*
X23248Y8780D02*
D03*
X23839D02*
D03*
X18878D02*
D03*
X19468D02*
D03*
X14114D02*
D03*
X13524D02*
D03*
X3524Y3962D02*
D03*
X2934D02*
D03*
X7343Y8543D02*
D03*
X7933D02*
D03*
X7343Y7756D02*
D03*
X7933D02*
D03*
X5610Y3937D02*
D03*
X6201D02*
D03*
X1870Y3165D02*
D03*
X2461D02*
D03*
D53*
X4596Y24409D02*
D03*
X7216D02*
D03*
X20798Y2087D02*
D03*
X18178D02*
D03*
X3218Y1890D02*
D03*
X5838D02*
D03*
D54*
X9646Y5563D02*
D03*
X10022Y4736D02*
D03*
X9270D02*
D03*
X10844D02*
D03*
X11596D02*
D03*
X11220Y5563D02*
D03*
D55*
X2874Y4636D02*
D03*
X3189D02*
D03*
X3504D02*
D03*
X3819D02*
D03*
X4134D02*
D03*
X4449D02*
D03*
X4764D02*
D03*
X5079D02*
D03*
X5394D02*
D03*
X5709D02*
D03*
X6024D02*
D03*
Y9281D02*
D03*
X5709D02*
D03*
X5394D02*
D03*
X5079D02*
D03*
X4764D02*
D03*
X4449D02*
D03*
X4134D02*
D03*
X3819D02*
D03*
X3504D02*
D03*
X3189D02*
D03*
X2874D02*
D03*
D56*
X6378Y5069D02*
D03*
Y5384D02*
D03*
Y5699D02*
D03*
Y6014D02*
D03*
Y6329D02*
D03*
Y6644D02*
D03*
Y6959D02*
D03*
Y7274D02*
D03*
Y7589D02*
D03*
Y7904D02*
D03*
Y8219D02*
D03*
Y8533D02*
D03*
Y8848D02*
D03*
X2520D02*
D03*
Y8533D02*
D03*
Y8219D02*
D03*
Y7904D02*
D03*
Y7589D02*
D03*
Y7274D02*
D03*
Y6959D02*
D03*
Y6644D02*
D03*
Y6329D02*
D03*
Y6014D02*
D03*
Y5699D02*
D03*
Y5384D02*
D03*
Y5069D02*
D03*
D57*
X4449Y6959D02*
D03*
X3671Y7736D02*
D03*
Y6959D02*
D03*
X4449Y6181D02*
D03*
X5226D02*
D03*
Y6959D02*
D03*
Y7736D02*
D03*
X4449D02*
D03*
D58*
X2500Y4616D02*
D03*
X6398D02*
D03*
Y9301D02*
D03*
X2500D02*
D03*
D59*
X8071Y4941D02*
D03*
Y5531D02*
D03*
X12008Y7972D02*
D03*
Y8563D02*
D03*
X9134Y2657D02*
D03*
Y2067D02*
D03*
X14843Y28051D02*
D03*
Y28642D02*
D03*
X9843Y2067D02*
D03*
Y2657D02*
D03*
X10906Y689D02*
D03*
Y1280D02*
D03*
X13582Y1624D02*
D03*
Y2215D02*
D03*
X12008Y7185D02*
D03*
Y6594D02*
D03*
X6260Y28760D02*
D03*
Y29350D02*
D03*
D60*
X9350Y3772D02*
D03*
X9941D02*
D03*
X11516D02*
D03*
X10925D02*
D03*
X18236Y33898D02*
D03*
X17646D02*
D03*
X4193Y3976D02*
D03*
X4783D02*
D03*
X14862Y30906D02*
D03*
X14272D02*
D03*
X13878Y32087D02*
D03*
X14468D02*
D03*
X9350Y6890D02*
D03*
X8760D02*
D03*
Y8465D02*
D03*
X9350D02*
D03*
X8760Y7677D02*
D03*
X9350D02*
D03*
X11319Y34055D02*
D03*
X11909D02*
D03*
X10532Y26772D02*
D03*
X11122D02*
D03*
X9744D02*
D03*
X9154D02*
D03*
D61*
X12638Y34055D02*
D03*
X13346D02*
D03*
Y31102D02*
D03*
X12638D02*
D03*
D62*
X12992Y32835D02*
D03*
Y32126D02*
D03*
D63*
X17776Y31280D02*
D03*
X17028D02*
D03*
Y32264D02*
D03*
X17402D02*
D03*
X17776D02*
D03*
X19060Y34020D02*
D03*
X19808D02*
D03*
Y33035D02*
D03*
X19434D02*
D03*
X19060D02*
D03*
D64*
X19094Y11634D02*
D03*
Y13091D02*
D03*
D65*
X23086Y31693D02*
D03*
D66*
X23878Y32185D02*
D03*
X23878Y31988D02*
D03*
X23878Y31791D02*
D03*
X23878Y31594D02*
D03*
X23878Y31398D02*
D03*
X23878Y31201D02*
D03*
X22303D02*
D03*
X22303Y31398D02*
D03*
X22303Y31594D02*
D03*
X22303Y31791D02*
D03*
X22303Y31988D02*
D03*
X22303Y32185D02*
D03*
D67*
X23580Y30906D02*
D03*
X23386D02*
D03*
X23189D02*
D03*
X22992D02*
D03*
X22795D02*
D03*
X22599D02*
D03*
Y32480D02*
D03*
X22795D02*
D03*
X22992D02*
D03*
X23189D02*
D03*
X23386D02*
D03*
X23583D02*
D03*
D68*
X7205Y5689D02*
D03*
Y4705D02*
D03*
D69*
X10059Y23976D02*
D03*
Y23720D02*
D03*
Y23465D02*
D03*
X9232D02*
D03*
Y23720D02*
D03*
Y23976D02*
D03*
D70*
X12283Y2598D02*
D03*
Y946D02*
D03*
D71*
X12715Y2559D02*
D03*
Y2244D02*
D03*
Y1929D02*
D03*
Y1614D02*
D03*
Y1299D02*
D03*
Y984D02*
D03*
X11852D02*
D03*
Y1299D02*
D03*
Y1614D02*
D03*
Y1929D02*
D03*
Y2244D02*
D03*
Y2559D02*
D03*
D72*
X21831Y29528D02*
D03*
D73*
Y28740D02*
D03*
D74*
X13822Y25984D02*
D03*
D75*
X23350D02*
D03*
D76*
X7283Y30118D02*
D03*
Y28118D02*
D03*
Y32118D02*
D03*
X10630Y32118D02*
D03*
Y28118D02*
D03*
Y30118D02*
D03*
X15748D02*
D03*
Y28118D02*
D03*
Y32118D02*
D03*
X19094Y32118D02*
D03*
Y30118D02*
D03*
Y29118D02*
D03*
Y28118D02*
D03*
D77*
X13701Y6260D02*
D03*
D78*
X23543Y6260D02*
D03*
D79*
X21358Y33632D02*
D03*
X24862D02*
D03*
D80*
X21358Y34892D02*
D03*
X24862D02*
D03*
D81*
X11102Y11618D02*
D03*
X2008D02*
D03*
X11102Y20894D02*
D03*
X2008D02*
D03*
D82*
X8057Y20953D02*
D03*
X7057Y20932D02*
D03*
X6057D02*
D03*
X5057D02*
D03*
D83*
X1181Y1181D02*
D03*
X24409D02*
D03*
Y29528D02*
D03*
X1181D02*
D03*
X13189D02*
D03*
M02*
