G04*
G04 #@! TF.GenerationSoftware,Altium Limited,Altium Designer,21.8.1 (53)*
G04*
G04 Layer_Color=128*
%FSLAX24Y24*%
%MOIN*%
G70*
G04*
G04 #@! TF.SameCoordinates,B3635B53-E57D-41D0-81A0-B41BD292B6FB*
G04*
G04*
G04 #@! TF.FilePolarity,Positive*
G04*
G01*
G75*
%ADD112C,0.0020*%
D112*
X21661Y29528D02*
X22000D01*
X21831Y29358D02*
Y29697D01*
X21661Y28740D02*
X22000D01*
X21831Y28571D02*
Y28909D01*
X13517Y25984D02*
X14127D01*
X13822Y25679D02*
Y26290D01*
X23143Y25984D02*
X23557D01*
X23350Y25778D02*
Y26191D01*
X7069Y30118D02*
X7498D01*
X7283Y29904D02*
Y30333D01*
X7069Y28118D02*
X7498D01*
X7283Y27904D02*
Y28333D01*
X7069Y32118D02*
X7498D01*
X7283Y31904D02*
Y32333D01*
X10415Y32118D02*
X10844D01*
X10630Y31904D02*
Y32333D01*
X10415Y28118D02*
X10844D01*
X10630Y27904D02*
Y28333D01*
X10415Y30118D02*
X10844D01*
X10630Y29904D02*
Y30333D01*
X15533Y30118D02*
X15963D01*
X15748Y29904D02*
Y30333D01*
X15533Y28118D02*
X15963D01*
X15748Y27904D02*
Y28333D01*
X15533Y32118D02*
X15963D01*
X15748Y31904D02*
Y32333D01*
X13381Y6260D02*
X14021D01*
X13701Y5940D02*
Y6580D01*
X23323Y6260D02*
X23763D01*
X23543Y6040D02*
Y6480D01*
X21270Y33632D02*
X21447D01*
X21358Y33543D02*
Y33720D01*
X24774Y33632D02*
X24951D01*
X24862Y33543D02*
Y33720D01*
X21270Y34892D02*
X21447D01*
X21358Y34803D02*
Y34980D01*
X24774Y34892D02*
X24951D01*
X24862Y34803D02*
Y34980D01*
X10512Y11618D02*
X11693D01*
X11102Y11028D02*
Y12209D01*
X1417Y11618D02*
X2598D01*
X2008Y11028D02*
Y12209D01*
X10512Y20894D02*
X11693D01*
X11102Y20303D02*
Y21484D01*
X1417Y20894D02*
X2598D01*
X2008Y20303D02*
Y21484D01*
X18880Y32118D02*
X19309D01*
X19094Y31904D02*
Y32333D01*
X18880Y30118D02*
X19309D01*
X19094Y29904D02*
Y30333D01*
X18880Y29118D02*
X19309D01*
X19094Y28904D02*
Y29333D01*
X18880Y28118D02*
X19309D01*
X19094Y27904D02*
Y28333D01*
X7882Y20953D02*
X8232D01*
X8057Y20778D02*
Y21128D01*
X6882Y20932D02*
X7232D01*
X7057Y20757D02*
Y21107D01*
X5882Y20932D02*
X6232D01*
X6057Y20757D02*
Y21107D01*
X4882Y20932D02*
X5232D01*
X5057Y20757D02*
Y21107D01*
X748Y1181D02*
X1614D01*
X1181Y748D02*
Y1614D01*
X23976Y1181D02*
X24843D01*
X24409Y748D02*
Y1614D01*
X23976Y29528D02*
X24843D01*
X24409Y29094D02*
Y29961D01*
X748Y29528D02*
X1614D01*
X1181Y29094D02*
Y29961D01*
X12756Y29528D02*
X13622D01*
X13189Y29094D02*
Y29961D01*
X3524Y11142D02*
X3642D01*
X3583Y11083D02*
Y11201D01*
X12185Y1620D02*
X12303D01*
X12244Y1561D02*
Y1680D01*
X11339Y2249D02*
X11457D01*
X11398Y2190D02*
Y2308D01*
X11339Y1613D02*
X11457D01*
X11398Y1554D02*
Y1672D01*
X10866Y34055D02*
X10984D01*
X10925Y33996D02*
Y34114D01*
X18406Y29685D02*
X18524D01*
X18465Y29626D02*
Y29744D01*
X20650Y31417D02*
X20768D01*
X20709Y31358D02*
Y31476D01*
X19390Y31417D02*
X19508D01*
X19449Y31358D02*
Y31476D01*
X17303Y29685D02*
X17421D01*
X17362Y29626D02*
Y29744D01*
X11476Y24331D02*
X11594D01*
X11535Y24272D02*
Y24390D01*
X12052Y25286D02*
X12170D01*
X12111Y25227D02*
Y25345D01*
X11280Y23750D02*
X11398D01*
X11339Y23691D02*
Y23809D01*
X23459Y32875D02*
X23577D01*
X23518Y32815D02*
Y32934D01*
X22947Y32921D02*
X23065D01*
X23006Y32862D02*
Y32980D01*
X24214Y27301D02*
X24332D01*
X24273Y27242D02*
Y27360D01*
X24214Y23364D02*
X24332D01*
X24273Y23305D02*
Y23423D01*
X24214Y21396D02*
X24332D01*
X24273Y21337D02*
Y21455D01*
X24214Y19427D02*
X24332D01*
X24273Y19368D02*
Y19486D01*
X24214Y17459D02*
X24332D01*
X24273Y17400D02*
Y17518D01*
X24214Y15490D02*
X24332D01*
X24273Y15431D02*
Y15549D01*
X24214Y13522D02*
X24332D01*
X24273Y13463D02*
Y13581D01*
X24214Y11553D02*
X24332D01*
X24273Y11494D02*
Y11612D01*
X24214Y9585D02*
X24332D01*
X24273Y9526D02*
Y9644D01*
X24214Y7616D02*
X24332D01*
X24273Y7557D02*
Y7675D01*
X24214Y3679D02*
X24332D01*
X24273Y3620D02*
Y3738D01*
X22246Y23364D02*
X22364D01*
X22305Y23305D02*
Y23423D01*
X22246Y21396D02*
X22364D01*
X22305Y21337D02*
Y21455D01*
X22246Y19427D02*
X22364D01*
X22305Y19368D02*
Y19486D01*
X22246Y17459D02*
X22364D01*
X22305Y17400D02*
Y17518D01*
X22246Y15490D02*
X22364D01*
X22305Y15431D02*
Y15549D01*
X22246Y13522D02*
X22364D01*
X22305Y13463D02*
Y13581D01*
X22246Y11553D02*
X22364D01*
X22305Y11494D02*
Y11612D01*
X22246Y5648D02*
X22364D01*
X22305Y5589D02*
Y5707D01*
X22246Y1711D02*
X22364D01*
X22305Y1652D02*
Y1770D01*
X20277Y27301D02*
X20395D01*
X20336Y27242D02*
Y27360D01*
X20277Y25333D02*
X20395D01*
X20336Y25274D02*
Y25392D01*
X20277Y21396D02*
X20395D01*
X20336Y21337D02*
Y21455D01*
X20277Y19427D02*
X20395D01*
X20336Y19368D02*
Y19486D01*
X20277Y17459D02*
X20395D01*
X20336Y17400D02*
Y17518D01*
X20277Y15490D02*
X20395D01*
X20336Y15431D02*
Y15549D01*
X20277Y13522D02*
X20395D01*
X20336Y13463D02*
Y13581D01*
X20277Y11553D02*
X20395D01*
X20336Y11494D02*
Y11612D01*
X18309Y31238D02*
X18427D01*
X18368Y31179D02*
Y31297D01*
X18309Y29270D02*
X18427D01*
X18368Y29211D02*
Y29329D01*
X18309Y27301D02*
X18427D01*
X18368Y27242D02*
Y27360D01*
X18309Y25333D02*
X18427D01*
X18368Y25274D02*
Y25392D01*
X18309Y19427D02*
X18427D01*
X18368Y19368D02*
Y19486D01*
X18309Y17459D02*
X18427D01*
X18368Y17400D02*
Y17518D01*
X18309Y15490D02*
X18427D01*
X18368Y15431D02*
Y15549D01*
X18309Y13522D02*
X18427D01*
X18368Y13463D02*
Y13581D01*
X18309Y11553D02*
X18427D01*
X18368Y11494D02*
Y11612D01*
X16340Y29270D02*
X16458D01*
X16399Y29211D02*
Y29329D01*
X16340Y27301D02*
X16458D01*
X16399Y27242D02*
Y27360D01*
X16340Y25333D02*
X16458D01*
X16399Y25274D02*
Y25392D01*
X16340Y21396D02*
X16458D01*
X16399Y21337D02*
Y21455D01*
X16340Y17459D02*
X16458D01*
X16399Y17400D02*
Y17518D01*
X16340Y15490D02*
X16458D01*
X16399Y15431D02*
Y15549D01*
X16340Y13522D02*
X16458D01*
X16399Y13463D02*
Y13581D01*
X16340Y11553D02*
X16458D01*
X16399Y11494D02*
Y11612D01*
X16340Y1711D02*
X16458D01*
X16399Y1652D02*
Y1770D01*
X14372Y29270D02*
X14490D01*
X14431Y29211D02*
Y29329D01*
X14372Y27301D02*
X14490D01*
X14431Y27242D02*
Y27360D01*
X14372Y19427D02*
X14490D01*
X14431Y19368D02*
Y19486D01*
X14372Y15490D02*
X14490D01*
X14431Y15431D02*
Y15549D01*
X14372Y13522D02*
X14490D01*
X14431Y13463D02*
Y13581D01*
X14372Y3679D02*
X14490D01*
X14431Y3620D02*
Y3738D01*
X14372Y1711D02*
X14490D01*
X14431Y1652D02*
Y1770D01*
X12403Y27301D02*
X12521D01*
X12462Y27242D02*
Y27360D01*
X12403Y25333D02*
X12521D01*
X12462Y25274D02*
Y25392D01*
X12403Y17459D02*
X12521D01*
X12462Y17400D02*
Y17518D01*
X12403Y13522D02*
X12521D01*
X12462Y13463D02*
Y13581D01*
X12403Y7616D02*
X12521D01*
X12462Y7557D02*
Y7675D01*
X12403Y3679D02*
X12521D01*
X12462Y3620D02*
Y3738D01*
X10435Y31238D02*
X10553D01*
X10494Y31179D02*
Y31297D01*
X10435Y29270D02*
X10553D01*
X10494Y29211D02*
Y29329D01*
X10435Y27301D02*
X10553D01*
X10494Y27242D02*
Y27360D01*
X10435Y19427D02*
X10553D01*
X10494Y19368D02*
Y19486D01*
X10435Y17459D02*
X10553D01*
X10494Y17400D02*
Y17518D01*
X10435Y15490D02*
X10553D01*
X10494Y15431D02*
Y15549D01*
X10435Y7616D02*
X10553D01*
X10494Y7557D02*
Y7675D01*
X8466Y33207D02*
X8584D01*
X8525Y33148D02*
Y33266D01*
X8466Y31238D02*
X8584D01*
X8525Y31179D02*
Y31297D01*
X8466Y29270D02*
X8584D01*
X8525Y29211D02*
Y29329D01*
X8466Y27301D02*
X8584D01*
X8525Y27242D02*
Y27360D01*
X8466Y21396D02*
X8584D01*
X8525Y21337D02*
Y21455D01*
X8466Y19427D02*
X8584D01*
X8525Y19368D02*
Y19486D01*
X8466Y17459D02*
X8584D01*
X8525Y17400D02*
Y17518D01*
X8466Y15490D02*
X8584D01*
X8525Y15431D02*
Y15549D01*
X8466Y13522D02*
X8584D01*
X8525Y13463D02*
Y13581D01*
X6498Y33207D02*
X6616D01*
X6557Y33148D02*
Y33266D01*
X6498Y31238D02*
X6616D01*
X6557Y31179D02*
Y31297D01*
X6498Y25333D02*
X6616D01*
X6557Y25274D02*
Y25392D01*
X6498Y23364D02*
X6616D01*
X6557Y23305D02*
Y23423D01*
X6498Y19427D02*
X6616D01*
X6557Y19368D02*
Y19486D01*
X6498Y15490D02*
X6616D01*
X6557Y15431D02*
Y15549D01*
X6498Y13522D02*
X6616D01*
X6557Y13463D02*
Y13581D01*
X6498Y11553D02*
X6616D01*
X6557Y11494D02*
Y11612D01*
X4529Y31238D02*
X4647D01*
X4588Y31179D02*
Y31297D01*
X4529Y29270D02*
X4647D01*
X4588Y29211D02*
Y29329D01*
X4529Y27301D02*
X4647D01*
X4588Y27242D02*
Y27360D01*
X4529Y23364D02*
X4647D01*
X4588Y23305D02*
Y23423D01*
X4529Y21396D02*
X4647D01*
X4588Y21337D02*
Y21455D01*
X4529Y17459D02*
X4647D01*
X4588Y17400D02*
Y17518D01*
X4529Y15490D02*
X4647D01*
X4588Y15431D02*
Y15549D01*
X4529Y13522D02*
X4647D01*
X4588Y13463D02*
Y13581D01*
X4529Y11553D02*
X4647D01*
X4588Y11494D02*
Y11612D01*
X4529Y1711D02*
X4647D01*
X4588Y1652D02*
Y1770D01*
X2561Y31238D02*
X2679D01*
X2620Y31179D02*
Y31297D01*
X2561Y29270D02*
X2679D01*
X2620Y29211D02*
Y29329D01*
X2561Y27301D02*
X2679D01*
X2620Y27242D02*
Y27360D01*
X2561Y25333D02*
X2679D01*
X2620Y25274D02*
Y25392D01*
X2561Y23364D02*
X2679D01*
X2620Y23305D02*
Y23423D01*
X2561Y19427D02*
X2679D01*
X2620Y19368D02*
Y19486D01*
X2561Y17459D02*
X2679D01*
X2620Y17400D02*
Y17518D01*
X2561Y15490D02*
X2679D01*
X2620Y15431D02*
Y15549D01*
X2561Y13522D02*
X2679D01*
X2620Y13463D02*
Y13581D01*
X592Y31238D02*
X710D01*
X651Y31179D02*
Y31297D01*
X592Y21396D02*
X710D01*
X651Y21337D02*
Y21455D01*
X592Y19427D02*
X710D01*
X651Y19368D02*
Y19486D01*
X592Y17459D02*
X710D01*
X651Y17400D02*
Y17518D01*
X592Y15490D02*
X710D01*
X651Y15431D02*
Y15549D01*
X592Y13522D02*
X710D01*
X651Y13463D02*
Y13581D01*
X14390Y21378D02*
X14508D01*
X14449Y21319D02*
Y21437D01*
X5886Y6575D02*
X6004D01*
X5945Y6516D02*
Y6634D01*
X5886Y7362D02*
X6004D01*
X5945Y7303D02*
Y7421D01*
X5866Y8898D02*
X5984D01*
X5925Y8839D02*
Y8957D01*
X5866Y8189D02*
X5984D01*
X5925Y8130D02*
Y8248D01*
X5157Y5748D02*
X5276D01*
X5217Y5689D02*
Y5807D01*
X4380Y5748D02*
X4498D01*
X4439Y5689D02*
Y5807D01*
X3602Y5748D02*
X3720D01*
X3661Y5689D02*
Y5807D01*
X5157Y5039D02*
X5276D01*
X5217Y4980D02*
Y5098D01*
X4380Y5039D02*
X4498D01*
X4439Y4980D02*
Y5098D01*
X3602Y5039D02*
X3720D01*
X3661Y4980D02*
Y5098D01*
X5157Y8189D02*
X5276D01*
X5217Y8130D02*
Y8248D01*
X4380Y8189D02*
X4498D01*
X4439Y8130D02*
Y8248D01*
X3602Y8189D02*
X3720D01*
X3661Y8130D02*
Y8248D01*
X3602Y8898D02*
X3720D01*
X3661Y8839D02*
Y8957D01*
X4380Y8898D02*
X4498D01*
X4439Y8839D02*
Y8957D01*
X5157Y8898D02*
X5276D01*
X5217Y8839D02*
Y8957D01*
X12839Y10076D02*
X12957D01*
X12898Y10017D02*
Y10135D01*
X15177Y5748D02*
X15295D01*
X15236Y5689D02*
Y5807D01*
X13524Y1339D02*
X13642D01*
X13583Y1280D02*
Y1398D01*
X10068Y4092D02*
X10186D01*
X10127Y4033D02*
Y4151D01*
X10451Y4803D02*
X10569D01*
X10510Y4744D02*
Y4862D01*
X10374Y3740D02*
X10492D01*
X10433Y3681D02*
Y3799D01*
X22028Y34055D02*
X22146D01*
X22087Y33996D02*
Y34114D01*
X21752Y33258D02*
X21870D01*
X21811Y33199D02*
Y33317D01*
X24274Y34400D02*
X24392D01*
X24333Y34341D02*
Y34459D01*
X24346Y33258D02*
X24464D01*
X24405Y33199D02*
Y33317D01*
X4902Y9843D02*
X5020D01*
X4961Y9783D02*
Y9902D01*
X6345Y9557D02*
X6463D01*
X6404Y9498D02*
Y9616D01*
X9685Y7677D02*
X9803D01*
X9744Y7618D02*
Y7736D01*
X1829Y3519D02*
X1947D01*
X1888Y3460D02*
Y3578D01*
X1791Y2795D02*
X1909D01*
X1850Y2736D02*
Y2854D01*
X1516Y3150D02*
X1634D01*
X1575Y3091D02*
Y3209D01*
X7894Y8228D02*
X8012D01*
X7953Y8169D02*
Y8287D01*
X7894Y8858D02*
X8012D01*
X7953Y8799D02*
Y8917D01*
X8169Y7756D02*
X8287D01*
X8228Y7697D02*
Y7815D01*
X10138Y6772D02*
X10256D01*
X10197Y6713D02*
Y6831D01*
X11949Y7480D02*
X12067D01*
X12008Y7421D02*
Y7539D01*
X16161Y5236D02*
X16280D01*
X16220Y5177D02*
Y5295D01*
X15177Y5236D02*
X15295D01*
X15236Y5177D02*
Y5295D01*
X15177Y4016D02*
X15295D01*
X15236Y3957D02*
Y4075D01*
X16122Y4016D02*
X16240D01*
X16181Y3957D02*
Y4075D01*
X18327Y4016D02*
X18445D01*
X18386Y3957D02*
Y4075D01*
X20531Y4016D02*
X20650D01*
X20591Y3957D02*
Y4075D01*
X20846Y4016D02*
X20965D01*
X20906Y3957D02*
Y4075D01*
X22224Y3740D02*
X22343D01*
X22283Y3681D02*
Y3799D01*
X21791Y5236D02*
X21909D01*
X21850Y5177D02*
Y5295D01*
X20846Y5236D02*
X20965D01*
X20906Y5177D02*
Y5295D01*
X20531Y5236D02*
X20650D01*
X20591Y5177D02*
Y5295D01*
X19587Y5236D02*
X19705D01*
X19646Y5177D02*
Y5295D01*
X19272Y5236D02*
X19390D01*
X19331Y5177D02*
Y5295D01*
X18327Y5236D02*
X18445D01*
X18386Y5177D02*
Y5295D01*
X19941Y10827D02*
X20059D01*
X20000Y10768D02*
Y10886D01*
X24035Y8780D02*
X24154D01*
X24094Y8720D02*
Y8839D01*
X20374Y7244D02*
X20492D01*
X20433Y7185D02*
Y7303D01*
X21319Y7244D02*
X21437D01*
X21378Y7185D02*
Y7303D01*
X22894Y7244D02*
X23012D01*
X22953Y7185D02*
Y7303D01*
X21319Y8465D02*
X21437D01*
X21378Y8406D02*
Y8524D01*
X20374Y8465D02*
X20492D01*
X20433Y8406D02*
Y8524D01*
X19665Y8780D02*
X19783D01*
X19724Y8720D02*
Y8839D01*
X19114Y7244D02*
X19232D01*
X19173Y7185D02*
Y7303D01*
X17854Y7244D02*
X17972D01*
X17913Y7185D02*
Y7303D01*
X17854Y8465D02*
X17972D01*
X17913Y8406D02*
Y8524D01*
X14449Y8496D02*
X14567D01*
X14508Y8437D02*
Y8555D01*
X13445Y9094D02*
X13563D01*
X13504Y9035D02*
Y9154D01*
X8406Y23031D02*
X8524D01*
X8465Y22972D02*
Y23091D01*
X9154Y23228D02*
X9272D01*
X9213Y23169D02*
Y23287D01*
X9587Y23228D02*
X9705D01*
X9646Y23169D02*
Y23287D01*
X9587Y24213D02*
X9705D01*
X9646Y24154D02*
Y24272D01*
X10886Y24685D02*
X11004D01*
X10945Y24626D02*
Y24744D01*
X6201Y29744D02*
X6319D01*
X6260Y29685D02*
Y29803D01*
X10079Y26772D02*
X10197D01*
X10138Y26713D02*
Y26831D01*
X16689Y32270D02*
X16807D01*
X16748Y32211D02*
Y32329D01*
X13602Y34055D02*
X13720D01*
X13661Y33996D02*
Y34114D01*
X12185Y31102D02*
X12303D01*
X12244Y31043D02*
Y31161D01*
X16791Y30354D02*
X16909D01*
X16850Y30295D02*
Y30413D01*
X17303Y33898D02*
X17421D01*
X17362Y33839D02*
Y33957D01*
X20571Y33031D02*
X20689D01*
X20630Y32972D02*
Y33091D01*
X21398Y31575D02*
X21516D01*
X21457Y31516D02*
Y31634D01*
X4526Y25000D02*
X4644D01*
X4585Y24941D02*
Y25059D01*
X5116Y25000D02*
X5234D01*
X5175Y24941D02*
Y25059D01*
X5116Y23819D02*
X5234D01*
X5175Y23760D02*
Y23878D01*
X3974Y23819D02*
X4093D01*
X4034Y23760D02*
Y23878D01*
X3996Y25000D02*
X4114D01*
X4055Y24941D02*
Y25059D01*
X3681Y24409D02*
X3799D01*
X3740Y24350D02*
Y24469D01*
X5373Y24409D02*
X5491D01*
X5432Y24350D02*
Y24469D01*
X21539Y2071D02*
X21657D01*
X21598Y2012D02*
Y2130D01*
X19916Y2087D02*
X20034D01*
X19975Y2028D02*
Y2146D01*
X20177Y2638D02*
X20295D01*
X20236Y2579D02*
Y2697D01*
X20177Y1496D02*
X20295D01*
X20236Y1437D02*
Y1555D01*
X21319Y1496D02*
X21437D01*
X21378Y1437D02*
Y1555D01*
X21319Y2677D02*
X21437D01*
X21378Y2618D02*
Y2736D01*
X20728Y2677D02*
X20846D01*
X20787Y2618D02*
Y2736D01*
X20728Y1496D02*
X20846D01*
X20787Y1437D02*
Y1555D01*
X6634Y1890D02*
X6752D01*
X6693Y1831D02*
Y1949D01*
X5256Y1260D02*
X5374D01*
X5315Y1201D02*
Y1319D01*
X6319Y1260D02*
X6437D01*
X6378Y1201D02*
Y1319D01*
X5768Y1260D02*
X5886D01*
X5827Y1201D02*
Y1319D01*
X14193Y10591D02*
X14311D01*
X14252Y10532D02*
Y10650D01*
X11661Y8841D02*
X11780D01*
X11720Y8781D02*
Y8900D01*
X12618Y9799D02*
X12736D01*
X12677Y9740D02*
Y9858D01*
X8250Y9154D02*
X8368D01*
X8309Y9094D02*
Y9213D01*
X8563Y9370D02*
X8681D01*
X8622Y9311D02*
Y9429D01*
X7281Y8928D02*
X7399D01*
X7340Y8869D02*
Y8987D01*
X7582Y11398D02*
X7701D01*
X7642Y11339D02*
Y11457D01*
X8327Y13071D02*
X8445D01*
X8386Y13012D02*
Y13130D01*
X20988Y34239D02*
X21106D01*
X21047Y34180D02*
Y34298D01*
X20571Y34239D02*
X20689D01*
X20630Y34180D02*
Y34298D01*
X22724Y33199D02*
X22842D01*
X22783Y33140D02*
Y33258D01*
X23105Y34283D02*
X23223D01*
X23164Y34224D02*
Y34342D01*
X24533Y31336D02*
X24651D01*
X24592Y31277D02*
Y31395D01*
X21949Y31989D02*
X22067D01*
X22008Y31929D02*
Y32048D01*
X24218Y32217D02*
X24336D01*
X24277Y32158D02*
Y32276D01*
X24547Y32087D02*
X24665D01*
X24606Y32028D02*
Y32146D01*
X24547Y31732D02*
X24665D01*
X24606Y31673D02*
Y31791D01*
X17202Y19661D02*
X17321D01*
X17262Y19602D02*
Y19720D01*
X17382Y20079D02*
X17500D01*
X17441Y20020D02*
Y20138D01*
X17986Y20669D02*
X18104D01*
X18045Y20610D02*
Y20728D01*
X17694Y20393D02*
X17812D01*
X17753Y20334D02*
Y20452D01*
X14744Y24764D02*
X14862D01*
X14803Y24705D02*
Y24823D01*
X14744Y23307D02*
X14862D01*
X14803Y23248D02*
Y23366D01*
X11516Y25787D02*
X11634D01*
X11575Y25728D02*
Y25846D01*
X8563Y12323D02*
X8681D01*
X8622Y12264D02*
Y12382D01*
X9390Y5906D02*
X9508D01*
X9449Y5846D02*
Y5965D01*
X9075Y3150D02*
X9193D01*
X9134Y3091D02*
Y3209D01*
X10768Y5630D02*
X10886D01*
X10827Y5571D02*
Y5689D01*
X9541Y3051D02*
X9659D01*
X9600Y2992D02*
Y3110D01*
X11870Y4724D02*
X11988D01*
X11929Y4665D02*
Y4783D01*
X9232Y11693D02*
X9350D01*
X9291Y11634D02*
Y11752D01*
X6909Y11575D02*
X7028D01*
X6969Y11516D02*
Y11634D01*
X6673Y3622D02*
X6791D01*
X6732Y3563D02*
Y3681D01*
X7067Y3622D02*
X7185D01*
X7126Y3563D02*
Y3681D01*
X7421Y3622D02*
X7539D01*
X7480Y3563D02*
Y3681D01*
X8110Y6260D02*
X8228D01*
X8169Y6201D02*
Y6319D01*
X7421Y6732D02*
X7539D01*
X7480Y6673D02*
Y6791D01*
X8484Y4488D02*
X8602D01*
X8543Y4429D02*
Y4547D01*
X8484Y4843D02*
X8602D01*
X8543Y4783D02*
Y4902D01*
X8484Y5906D02*
X8602D01*
X8543Y5846D02*
Y5965D01*
X5650Y18670D02*
X5768D01*
X5709Y18611D02*
Y18729D01*
X4665Y19685D02*
X4783D01*
X4724Y19626D02*
Y19744D01*
X7234Y8130D02*
X7352D01*
X7293Y8071D02*
Y8189D01*
X6191Y4331D02*
X6309D01*
X6250Y4272D02*
Y4390D01*
X5886Y5039D02*
X6004D01*
X5945Y4980D02*
Y5098D01*
X3406Y10276D02*
X3524D01*
X3465Y10217D02*
Y10335D01*
X4114Y3525D02*
X4232D01*
X4173Y3466D02*
Y3584D01*
X3012Y1260D02*
X3130D01*
X3071Y1201D02*
Y1319D01*
X3012Y669D02*
X3130D01*
X3071Y610D02*
Y728D01*
X17815Y5748D02*
X17933D01*
X17874Y5689D02*
Y5807D01*
X6673Y3937D02*
X6791D01*
X6732Y3878D02*
Y3996D01*
X7815Y6732D02*
X7933D01*
X7874Y6673D02*
Y6791D01*
X7067Y6732D02*
X7185D01*
X7126Y6673D02*
Y6791D01*
X5886Y5748D02*
X6004D01*
X5945Y5689D02*
Y5807D01*
X8484Y5551D02*
X8602D01*
X8543Y5492D02*
Y5610D01*
X8110Y4055D02*
X8228D01*
X8169Y3996D02*
Y4114D01*
X8110Y3622D02*
X8228D01*
X8169Y3563D02*
Y3681D01*
X7756Y3622D02*
X7874D01*
X7815Y3563D02*
Y3681D01*
X7146Y5197D02*
X7264D01*
X7205Y5138D02*
Y5256D01*
X6693Y4262D02*
X6811D01*
X6752Y4203D02*
Y4321D01*
X8110Y4478D02*
X8228D01*
X8169Y4419D02*
Y4537D01*
X8110Y5925D02*
X8228D01*
X8169Y5866D02*
Y5984D01*
X8484Y5197D02*
X8602D01*
X8543Y5138D02*
Y5256D01*
M02*
