G04*
G04 #@! TF.GenerationSoftware,Altium Limited,Altium Designer,21.8.1 (53)*
G04*
G04 Layer_Color=8421504*
%FSLAX24Y24*%
%MOIN*%
G70*
G04*
G04 #@! TF.SameCoordinates,B3635B53-E57D-41D0-81A0-B41BD292B6FB*
G04*
G04*
G04 #@! TF.FilePolarity,Positive*
G04*
G01*
G75*
%ADD17R,0.0472X0.1063*%
%ADD18R,0.0591X0.0748*%
%ADD19R,0.0250X0.0830*%
%ADD20R,0.0960X0.1320*%
%ADD21R,0.0394X0.0335*%
%ADD22R,0.0492X0.0236*%
%ADD23R,0.0441X0.0488*%
%ADD24R,0.0335X0.0394*%
%ADD25R,0.1320X0.0750*%
%ADD26R,0.0236X0.0492*%
%ADD27R,0.0157X0.0315*%
%ADD28R,0.0315X0.0157*%
%ADD29R,0.0571X0.0571*%
%ADD30R,0.0276X0.0276*%
%ADD31R,0.0374X0.0354*%
%ADD32R,0.0354X0.0374*%
%ADD33R,0.0433X0.0571*%
%ADD34R,0.0571X0.0433*%
%ADD35R,0.0236X0.0551*%
%ADD36R,0.0512X0.0472*%
%ADD37R,0.1063X0.1063*%
%ADD38O,0.0315X0.0110*%
%ADD39O,0.0110X0.0315*%
%ADD40R,0.0748X0.0433*%
%ADD41R,0.0433X0.0669*%
%ADD42R,0.0256X0.0138*%
%ADD43R,0.0217X0.0451*%
%ADD44R,0.0451X0.0217*%
G36*
X3957Y6467D02*
Y5896D01*
X3622D01*
X3386Y6132D01*
Y6467D01*
X3957D01*
D02*
G37*
G36*
X18583Y12087D02*
Y12638D01*
X18937D01*
Y12087D01*
X18583D01*
D02*
G37*
G36*
X19252D02*
Y12638D01*
X19606D01*
Y12087D01*
X19252D01*
D02*
G37*
D17*
X22858Y24744D02*
D03*
X23842D02*
D03*
X14314D02*
D03*
X13330D02*
D03*
D18*
X23350Y27067D02*
D03*
X13822D02*
D03*
D19*
X13976Y4646D02*
D03*
X17756D02*
D03*
X19331D02*
D03*
X20591D02*
D03*
X19961D02*
D03*
X18071D02*
D03*
X18701D02*
D03*
X19016D02*
D03*
X18386D02*
D03*
X20276D02*
D03*
X19646D02*
D03*
X20906D02*
D03*
X14134Y7874D02*
D03*
X14449D02*
D03*
X14764D02*
D03*
X15394D02*
D03*
X16024D02*
D03*
X16339D02*
D03*
X15079D02*
D03*
X15709D02*
D03*
X16181Y4646D02*
D03*
X15866D02*
D03*
X15236D02*
D03*
X14291D02*
D03*
X14921D02*
D03*
X15551D02*
D03*
X14606D02*
D03*
X22953Y7874D02*
D03*
X22638D02*
D03*
X21693D02*
D03*
X21063D02*
D03*
X23268D02*
D03*
X21378D02*
D03*
X22008D02*
D03*
X20748D02*
D03*
X22323D02*
D03*
X21850Y4646D02*
D03*
X22795D02*
D03*
X22480D02*
D03*
X21220D02*
D03*
X21535D02*
D03*
X22165D02*
D03*
X23110D02*
D03*
X20433Y7874D02*
D03*
X18228D02*
D03*
X18543D02*
D03*
X18858D02*
D03*
X17913D02*
D03*
X19803D02*
D03*
X20118D02*
D03*
X19173D02*
D03*
X19488D02*
D03*
D20*
X12884Y4882D02*
D03*
X24360D02*
D03*
D21*
X8465Y23307D02*
D03*
Y23898D02*
D03*
X10945Y24390D02*
D03*
Y23799D02*
D03*
X20630Y33917D02*
D03*
Y33327D02*
D03*
X21457Y31870D02*
D03*
Y32461D02*
D03*
X10906Y2067D02*
D03*
Y2657D02*
D03*
X20079Y29035D02*
D03*
Y28445D02*
D03*
D22*
X10059Y25591D02*
D03*
X9232Y25215D02*
D03*
Y25967D02*
D03*
X11043Y6890D02*
D03*
X10217Y6514D02*
D03*
Y7266D02*
D03*
X11043Y8089D02*
D03*
Y8841D02*
D03*
X10217Y8465D02*
D03*
D23*
X8268Y25394D02*
D03*
Y26575D02*
D03*
X21063Y28346D02*
D03*
Y29528D02*
D03*
D24*
X6004Y22308D02*
D03*
X5413D02*
D03*
X7776Y6260D02*
D03*
X7185D02*
D03*
X7776Y4173D02*
D03*
X7185D02*
D03*
X21398Y3740D02*
D03*
X21988D02*
D03*
X17736Y30354D02*
D03*
X17146D02*
D03*
X19114Y10827D02*
D03*
X19705D02*
D03*
X23248Y8780D02*
D03*
X23839D02*
D03*
X18878D02*
D03*
X19468D02*
D03*
X14114D02*
D03*
X13524D02*
D03*
X3524Y3962D02*
D03*
X2934D02*
D03*
X7343Y8543D02*
D03*
X7933D02*
D03*
X7343Y7756D02*
D03*
X7933D02*
D03*
X5610Y3937D02*
D03*
X6201D02*
D03*
X1870Y3165D02*
D03*
X2461D02*
D03*
D25*
X4596Y24409D02*
D03*
X7216D02*
D03*
X20798Y2087D02*
D03*
X18178D02*
D03*
X3218Y1890D02*
D03*
X5838D02*
D03*
D26*
X9646Y5563D02*
D03*
X10022Y4736D02*
D03*
X9270D02*
D03*
X10844D02*
D03*
X11596D02*
D03*
X11220Y5563D02*
D03*
D27*
X2874Y4636D02*
D03*
X3189D02*
D03*
X3504D02*
D03*
X3819D02*
D03*
X4134D02*
D03*
X4449D02*
D03*
X4764D02*
D03*
X5079D02*
D03*
X5394D02*
D03*
X5709D02*
D03*
X6024D02*
D03*
Y9281D02*
D03*
X5709D02*
D03*
X5394D02*
D03*
X5079D02*
D03*
X4764D02*
D03*
X4449D02*
D03*
X4134D02*
D03*
X3819D02*
D03*
X3504D02*
D03*
X3189D02*
D03*
X2874D02*
D03*
D28*
X6378Y5069D02*
D03*
Y5384D02*
D03*
Y5699D02*
D03*
Y6014D02*
D03*
Y6329D02*
D03*
Y6644D02*
D03*
Y6959D02*
D03*
Y7274D02*
D03*
Y7589D02*
D03*
Y7904D02*
D03*
Y8219D02*
D03*
Y8533D02*
D03*
Y8848D02*
D03*
X2520D02*
D03*
Y8533D02*
D03*
Y8219D02*
D03*
Y7904D02*
D03*
Y7589D02*
D03*
Y7274D02*
D03*
Y6959D02*
D03*
Y6644D02*
D03*
Y6329D02*
D03*
Y6014D02*
D03*
Y5699D02*
D03*
Y5384D02*
D03*
Y5069D02*
D03*
D29*
X4449Y6959D02*
D03*
X3671Y7736D02*
D03*
Y6959D02*
D03*
X4449Y6181D02*
D03*
X5226D02*
D03*
Y6959D02*
D03*
Y7736D02*
D03*
X4449D02*
D03*
D30*
X2500Y4616D02*
D03*
X6398D02*
D03*
Y9301D02*
D03*
X2500D02*
D03*
D31*
X8071Y4941D02*
D03*
Y5531D02*
D03*
X12008Y7972D02*
D03*
Y8563D02*
D03*
X9134Y2657D02*
D03*
Y2067D02*
D03*
X14843Y28051D02*
D03*
Y28642D02*
D03*
X9843Y2067D02*
D03*
Y2657D02*
D03*
X10906Y689D02*
D03*
Y1280D02*
D03*
X13582Y1624D02*
D03*
Y2215D02*
D03*
X12008Y7185D02*
D03*
Y6594D02*
D03*
X6260Y28760D02*
D03*
Y29350D02*
D03*
D32*
X9350Y3772D02*
D03*
X9941D02*
D03*
X11516D02*
D03*
X10925D02*
D03*
X18236Y33898D02*
D03*
X17646D02*
D03*
X4193Y3976D02*
D03*
X4783D02*
D03*
X14862Y30906D02*
D03*
X14272D02*
D03*
X13878Y32087D02*
D03*
X14468D02*
D03*
X9350Y6890D02*
D03*
X8760D02*
D03*
Y8465D02*
D03*
X9350D02*
D03*
X8760Y7677D02*
D03*
X9350D02*
D03*
X11319Y34055D02*
D03*
X11909D02*
D03*
X10532Y26772D02*
D03*
X11122D02*
D03*
X9744D02*
D03*
X9154D02*
D03*
D33*
X12638Y34055D02*
D03*
X13346D02*
D03*
Y31102D02*
D03*
X12638D02*
D03*
D34*
X12992Y32835D02*
D03*
Y32126D02*
D03*
D35*
X17776Y31280D02*
D03*
X17028D02*
D03*
Y32264D02*
D03*
X17402D02*
D03*
X17776D02*
D03*
X19060Y34020D02*
D03*
X19808D02*
D03*
Y33035D02*
D03*
X19434D02*
D03*
X19060D02*
D03*
D36*
X19094Y11634D02*
D03*
Y13091D02*
D03*
D37*
X23086Y31693D02*
D03*
D38*
X23878Y32185D02*
D03*
X23878Y31988D02*
D03*
X23878Y31791D02*
D03*
X23878Y31594D02*
D03*
X23878Y31398D02*
D03*
X23878Y31201D02*
D03*
X22303D02*
D03*
X22303Y31398D02*
D03*
X22303Y31594D02*
D03*
X22303Y31791D02*
D03*
X22303Y31988D02*
D03*
X22303Y32185D02*
D03*
D39*
X23580Y30906D02*
D03*
X23386D02*
D03*
X23189D02*
D03*
X22992D02*
D03*
X22795D02*
D03*
X22599D02*
D03*
Y32480D02*
D03*
X22795D02*
D03*
X22992D02*
D03*
X23189D02*
D03*
X23386D02*
D03*
X23583D02*
D03*
D40*
X7205Y5689D02*
D03*
Y4705D02*
D03*
D41*
X9646Y23720D02*
D03*
D42*
X10059Y23976D02*
D03*
Y23720D02*
D03*
Y23465D02*
D03*
X9232D02*
D03*
Y23720D02*
D03*
Y23976D02*
D03*
D43*
X12283Y2598D02*
D03*
Y946D02*
D03*
D44*
X12715Y2559D02*
D03*
Y2244D02*
D03*
Y1929D02*
D03*
Y1614D02*
D03*
Y1299D02*
D03*
Y984D02*
D03*
X11852D02*
D03*
Y1299D02*
D03*
Y1614D02*
D03*
Y1929D02*
D03*
Y2244D02*
D03*
Y2559D02*
D03*
M02*
