G04*
G04 #@! TF.GenerationSoftware,Altium Limited,Altium Designer,21.8.1 (53)*
G04*
G04 Layer_Color=16711935*
%FSLAX24Y24*%
%MOIN*%
G70*
G04*
G04 #@! TF.SameCoordinates,81432E86-CE94-4B0C-8261-68E55A96AE99*
G04*
G04*
G04 #@! TF.FilePolarity,Negative*
G04*
G01*
G75*
%ADD72R,0.0578X0.0578*%
%ADD73C,0.0578*%
%ADD74C,0.0690*%
%ADD75C,0.0453*%
%ADD76C,0.0827*%
%ADD77C,0.0680*%
%ADD78C,0.0480*%
%ADD79O,0.0425X0.0811*%
%ADD80O,0.0465X0.0890*%
%ADD81C,0.2126*%
%ADD82C,0.0639*%
%ADD83C,0.2008*%
%ADD109R,0.0138X0.0335*%
%ADD110R,0.0157X0.0335*%
D72*
X21831Y29528D02*
D03*
D73*
Y28740D02*
D03*
D74*
X13822Y25984D02*
D03*
D75*
X23350D02*
D03*
D76*
X7283Y30118D02*
D03*
Y28118D02*
D03*
Y32118D02*
D03*
X10630Y32118D02*
D03*
Y28118D02*
D03*
Y30118D02*
D03*
X15748D02*
D03*
Y28118D02*
D03*
Y32118D02*
D03*
X19094Y32118D02*
D03*
Y30118D02*
D03*
Y29118D02*
D03*
Y28118D02*
D03*
D77*
X13701Y6260D02*
D03*
D78*
X23543Y6260D02*
D03*
D79*
X21358Y33632D02*
D03*
X24862D02*
D03*
D80*
X21358Y34892D02*
D03*
X24862D02*
D03*
D81*
X11102Y11618D02*
D03*
X2008D02*
D03*
X11102Y20894D02*
D03*
X2008D02*
D03*
D82*
X8057Y20953D02*
D03*
X7057Y20932D02*
D03*
X6057D02*
D03*
X5057D02*
D03*
D83*
X1181Y1181D02*
D03*
X24409D02*
D03*
Y29528D02*
D03*
X1181D02*
D03*
X13189D02*
D03*
D109*
X21909Y33563D02*
D03*
X22618D02*
D03*
X22815D02*
D03*
X23012D02*
D03*
X23209D02*
D03*
X23406D02*
D03*
X23602D02*
D03*
X24311D02*
D03*
X24291Y34055D02*
D03*
X23701D02*
D03*
X23504D02*
D03*
X23307D02*
D03*
X22913D02*
D03*
X22717D02*
D03*
X22520D02*
D03*
X21929D02*
D03*
D110*
X21713Y33563D02*
D03*
X24508D02*
D03*
M02*
