M48
;Layer_Color=9474304
;FILE_FORMAT=2:5
INCH,TZ
;TYPE=PLATED
T1F00S00C0.01181
T2F00S00C0.01378
T4F00S00C0.03500
T5F00S00C0.05906
T6F00S00C0.06299
;TYPE=NON_PLATED
T7F00S00C0.04134
T8F00S00C0.04400
T9F00S00C0.06102
T10F00S00C0.06400
T11F00S00C0.08000
%
T01
X6413Y31181
X26098
X35941Y50866
X16256
X26098Y70551
X6413
X16256Y90236
X35941
X26098Y109921
X6413
X16256Y129606
X35941
X26098Y149291
X6413
X45783
X52461Y149903
Y133958
X55626Y129606
X75311
X78156Y149929
X84159
X65561Y157930
X49782Y166093
X74700Y174900
X95850Y181100
X99000
X134366Y168976
X154051
X173736
X193421
Y129606
X173736
X154051
X134366
X114681
X124524Y109921
X144209
X163894
X183579
X193421Y90236
X173736
X154051
X134366
X114681
X94996
X75311
X55626
X65469Y70551
X85154
X104839
X124524
X144209
X163894
X183579
X193421Y50866
X173736
X154051
X163894Y31181
X183579
X124524
X104839
X85154
X65469
X45783
X55626Y50866
X75311
X94996
X114681
X104839Y109921
X45783
Y70551
X203264
X222949
X242634
X252476Y90236
X232791
X213106
X222949Y109921
X242634
X252476Y129606
X232791
X213106
X222949Y149291
X242634
X252476Y168976
X232791
X203264Y149291
Y109921
X213106Y50866
X222949Y31181
X242634
X252476Y50866
X203264Y31181
Y188661
X222949
X242634
Y228031
X222949
X217500Y237900
X214351Y237836
X203264Y228031
Y267402
X222949
X242634
X243252Y283676
X243144Y301408
X242634Y306772
X249977Y295404
X228861Y295481
X218681Y293729
X218561Y289429
X216727Y296429
X209055Y295669
Y292815
Y289764
X205512
Y292815
Y295669
X202165
Y292815
Y289764
X204150Y306500
X207300
X197473Y305590
X204050Y329600
X207200
X232791Y326457
X252476
X167170Y328917
X154412
X163894Y306772
X140957Y305704
X112500Y298031
X115061Y281392
X91764Y286869
X75311Y287087
X50607Y282271
X48096Y282232
X55626Y247717
X59646Y249508
X64764
X69784Y232972
X65469Y228031
X54823Y232972
X45783Y188661
X84782Y182608
X89747
X104839Y188661
X124524
X144209
X163894
X183579
X156100Y207200
X134366Y208347
X124524Y228031
X104839
X115687Y241697
X94996Y208347
X83496Y264969
X55626Y326457
X173736Y287087
X193421
X183579Y267402
X26098
X6413
X26332Y292678
X35941Y287087
X25661Y309529
X16256Y326457
X37061Y332479
X25632Y338778
X148455Y341943
T02
X78309Y293450
X81283
X84257
X115061Y275486
X118035
X121010
Y272360
X118035
X115061
T04
X50440Y115495
X60440
X70440
X80440Y115707
T05
X46578Y340114
X98940
T06
X53861Y303893
X72759
X91656
T07
X139617Y32539
T08
X137636Y229742
T09
X234893Y32539
T10
X236061Y229742
T11
X111700Y21400
X19180
Y115101
X111700
M30
