G04*
G04 #@! TF.GenerationSoftware,Altium Limited,Altium Designer,22.0.2 (36)*
G04*
G04 Layer_Physical_Order=1*
G04 Layer_Color=255*
%FSLAX25Y25*%
%MOIN*%
G70*
G04*
G04 #@! TF.SameCoordinates,193994FF-6EAD-4761-9CDB-36F61985EFD9*
G04*
G04*
G04 #@! TF.FilePolarity,Positive*
G04*
G01*
G75*
%ADD10C,0.01000*%
%ADD11C,0.00984*%
%ADD12C,0.00787*%
%ADD54C,0.01378*%
%ADD55R,0.03543X0.03740*%
%ADD56R,0.03937X0.03347*%
%ADD57R,0.03347X0.03937*%
%ADD58R,0.05236X0.05236*%
%ADD59R,0.03543X0.07874*%
%ADD60R,0.07874X0.03543*%
%ADD61R,0.02500X0.08300*%
%ADD62R,0.09600X0.13200*%
%ADD63O,0.01102X0.03150*%
%ADD64O,0.03150X0.01102*%
%ADD65R,0.10630X0.10630*%
%ADD66R,0.03740X0.05512*%
%ADD67R,0.02559X0.01378*%
%ADD68R,0.04331X0.06693*%
%ADD69R,0.03740X0.03543*%
%ADD70R,0.04508X0.02165*%
%ADD71R,0.02165X0.04508*%
%ADD72R,0.05906X0.07480*%
%ADD73R,0.04724X0.10630*%
%ADD74R,0.02362X0.04724*%
%ADD75R,0.01181X0.04724*%
%ADD76R,0.02362X0.05512*%
%ADD77R,0.04409X0.04882*%
%ADD78R,0.04921X0.02362*%
%ADD79R,0.03543X0.03937*%
%ADD80R,0.04882X0.04409*%
%ADD81R,0.03937X0.18110*%
%ADD82R,0.06299X0.13386*%
%ADD83C,0.01181*%
%ADD84C,0.01968*%
%ADD85R,0.22736X0.22638*%
%ADD86C,0.06402*%
%ADD87C,0.04402*%
%ADD88C,0.06000*%
%ADD89C,0.09449*%
%ADD90C,0.08858*%
%ADD91C,0.04134*%
%ADD92C,0.06102*%
%ADD93O,0.03937X0.08661*%
%ADD94O,0.03937X0.07087*%
%ADD95C,0.02362*%
%ADD96C,0.02756*%
G36*
X252360Y345852D02*
X253346Y345443D01*
X254194Y344793D01*
X254844Y343946D01*
X255253Y342959D01*
X255391Y341908D01*
X255390Y341900D01*
X255390Y17605D01*
X255391Y17597D01*
X255253Y16546D01*
X254844Y15559D01*
X254194Y14712D01*
X253346Y14062D01*
X252360Y13653D01*
X251308Y13514D01*
X251301Y13516D01*
X4605D01*
X4597Y13514D01*
X3546Y13653D01*
X2559Y14062D01*
X1712Y14712D01*
X1061Y15559D01*
X653Y16546D01*
X514Y17597D01*
X516Y17605D01*
X516Y165170D01*
X516Y165669D01*
X576Y166144D01*
X653Y166728D01*
X1061Y167715D01*
X1712Y168562D01*
X2559Y169212D01*
X3546Y169621D01*
X4597Y169760D01*
X4605Y169758D01*
X34961D01*
Y169747D01*
X36116Y169861D01*
X37227Y170198D01*
X38251Y170745D01*
X39148Y171482D01*
X39885Y172379D01*
X40432Y173403D01*
X40769Y174514D01*
X40883Y175669D01*
X40872D01*
Y231183D01*
X41334Y231374D01*
X53570Y219139D01*
Y179554D01*
X47554D01*
Y179767D01*
X45282D01*
Y174829D01*
Y169893D01*
X47554D01*
Y170105D01*
X48652D01*
X48662Y170054D01*
X48670Y170042D01*
Y168849D01*
X47321D01*
Y163337D01*
X52242D01*
Y168849D01*
X50894D01*
Y170042D01*
X50902Y170054D01*
X50912Y170105D01*
X53570D01*
Y160756D01*
X52292D01*
Y155244D01*
X57213D01*
Y160756D01*
X55994D01*
Y170105D01*
X78670D01*
Y169234D01*
X78670Y169234D01*
X78755Y168808D01*
X78996Y168448D01*
X81071Y166373D01*
X81071Y166373D01*
X81431Y166132D01*
X81857Y166047D01*
X115486D01*
X115486Y166047D01*
X115911Y166132D01*
X116272Y166373D01*
X122438Y172539D01*
X122438Y172539D01*
X122679Y172899D01*
X122764Y173325D01*
X122764Y173325D01*
Y247443D01*
X122764Y247443D01*
X122679Y247868D01*
X122438Y248229D01*
X117814Y252853D01*
X117700Y252929D01*
X117851Y253429D01*
X154982D01*
X155662Y252750D01*
Y251033D01*
X155065D01*
Y245883D01*
Y240733D01*
X155662D01*
X155662Y229072D01*
X145669D01*
X145090Y228957D01*
X144599Y228629D01*
X144599Y228629D01*
X139481Y223511D01*
X139153Y223020D01*
X139038Y222441D01*
X139038Y222441D01*
Y218537D01*
X138355D01*
Y208663D01*
X141291D01*
Y208450D01*
X143041D01*
Y213600D01*
Y218750D01*
X142064D01*
Y221814D01*
X146296Y226046D01*
X157893D01*
X157893Y226046D01*
X157893Y226046D01*
X161003D01*
X161003Y226046D01*
X161004Y226046D01*
X179491D01*
X182973Y222564D01*
Y218750D01*
X181837D01*
Y213600D01*
Y208450D01*
X182973D01*
Y205376D01*
X182973Y205376D01*
X183088Y204797D01*
X183416Y204306D01*
X188005Y199717D01*
X188005Y199717D01*
X188496Y199389D01*
X189075Y199274D01*
X228445D01*
X228445Y199274D01*
X229024Y199389D01*
X229515Y199717D01*
X232800Y203003D01*
X232801Y203003D01*
X233128Y203494D01*
X233244Y204073D01*
Y208663D01*
X233768D01*
Y218537D01*
X230831D01*
Y218750D01*
X229081D01*
Y213600D01*
Y208450D01*
X230217D01*
Y204700D01*
X227818Y202301D01*
X189702D01*
X186000Y206003D01*
Y208663D01*
X191685D01*
Y208450D01*
X193435D01*
Y213600D01*
Y218750D01*
X191685D01*
Y218537D01*
X186000D01*
Y223191D01*
X186000Y223191D01*
X185884Y223770D01*
X185556Y224261D01*
X181188Y228629D01*
X180697Y228957D01*
X180118Y229072D01*
X180118Y229072D01*
X162917D01*
Y240733D01*
X163514D01*
Y245883D01*
Y251033D01*
X162917D01*
Y258102D01*
X162856Y258410D01*
X162682Y258670D01*
X162682Y258670D01*
X159859Y261493D01*
X159599Y261667D01*
X159291Y261728D01*
X114506D01*
X110645Y265588D01*
Y301476D01*
X110584Y301784D01*
X110410Y302044D01*
X101787Y310668D01*
X101526Y310842D01*
X101219Y310903D01*
X87100D01*
X87100Y310903D01*
X86793Y310842D01*
X86532Y310668D01*
X85132Y309268D01*
X84958Y309007D01*
X84897Y308700D01*
Y299500D01*
X84958Y299193D01*
X85132Y298932D01*
X87123Y296942D01*
Y294886D01*
X86623Y294764D01*
X86525Y294911D01*
X86525Y294911D01*
X85465Y295970D01*
X85205Y296144D01*
X84898Y296205D01*
X79361D01*
X79289Y296417D01*
X79277Y296705D01*
X79468Y296832D01*
X79468Y296832D01*
X81868Y299232D01*
X82042Y299493D01*
X82103Y299800D01*
Y309967D01*
X84133Y311997D01*
X105068D01*
X114397Y302667D01*
Y286600D01*
X114397Y286600D01*
X114458Y286293D01*
X114632Y286032D01*
X114632Y286032D01*
X116138Y284527D01*
X115946Y284065D01*
X115561D01*
Y281892D01*
X118030D01*
Y281982D01*
X118491Y282173D01*
X118659Y282005D01*
X118920Y281831D01*
X119041Y281807D01*
Y281785D01*
X119149D01*
X119227Y281770D01*
X122147D01*
X122569Y281573D01*
X122569Y281573D01*
X122569Y281573D01*
X124250D01*
Y285329D01*
Y289085D01*
X123627D01*
X123420Y289585D01*
X124666Y290830D01*
X125128Y290639D01*
Y290460D01*
X127301D01*
Y293429D01*
Y296397D01*
X125651D01*
Y307925D01*
X125817Y308357D01*
X126151Y308357D01*
X128285D01*
Y318412D01*
Y328467D01*
X125852D01*
X125817Y328467D01*
X125794Y328453D01*
X125317Y328319D01*
X123568Y330068D01*
X123307Y330242D01*
X123000Y330303D01*
X67100D01*
X67100Y330303D01*
X66793Y330242D01*
X66532Y330068D01*
X63732Y327268D01*
X63558Y327007D01*
X63497Y326700D01*
Y299500D01*
X63497Y299500D01*
X63558Y299193D01*
X63732Y298932D01*
X65832Y296832D01*
X66045Y296690D01*
X66055Y296557D01*
X66053Y296502D01*
X65972Y296183D01*
X65774Y296144D01*
X65513Y295970D01*
X65513Y295970D01*
X65130Y295586D01*
X64690D01*
Y294877D01*
X64675Y294799D01*
Y291059D01*
X64690Y290981D01*
Y290508D01*
X64115D01*
Y292429D01*
X61844D01*
Y290059D01*
X63828D01*
Y287493D01*
X63376Y287377D01*
X63328Y287377D01*
X61597D01*
Y285688D01*
X60597D01*
Y287377D01*
X60128D01*
Y287475D01*
X57463D01*
Y283129D01*
Y278782D01*
X59173D01*
X59174Y278777D01*
X59348Y278517D01*
X59732Y278132D01*
X59993Y277958D01*
X60300Y277897D01*
X70500D01*
X70548Y277907D01*
X76763D01*
X76811Y277897D01*
X85400D01*
X85707Y277958D01*
X85968Y278132D01*
X85968Y278132D01*
X86525Y278689D01*
X86525Y278689D01*
X86699Y278950D01*
X86760Y279257D01*
Y283972D01*
X87260Y284094D01*
X87358Y283948D01*
X87358Y283948D01*
X97375Y273931D01*
X97333Y273599D01*
X96939Y273456D01*
X96828Y273446D01*
X93404Y276869D01*
X93044Y277110D01*
X92618Y277195D01*
X92618Y277195D01*
X51181D01*
X51181Y277195D01*
X50756Y277110D01*
X50395Y276869D01*
X50395Y276869D01*
X48744Y275218D01*
X48503Y274858D01*
X48419Y274432D01*
X48419Y274432D01*
Y273922D01*
X46971D01*
Y268734D01*
X46759D01*
Y266364D01*
X49531D01*
X52302D01*
Y268734D01*
X52090D01*
Y273922D01*
X51300D01*
X51093Y274422D01*
X51642Y274971D01*
X92158D01*
X94951Y272177D01*
Y270697D01*
X88516D01*
Y266760D01*
X90652D01*
Y261486D01*
X88608D01*
Y256171D01*
X88608D01*
X88541Y255699D01*
X88395D01*
Y253329D01*
X91167D01*
X93938D01*
Y255699D01*
X93792D01*
X93726Y256171D01*
X93726D01*
Y261486D01*
X92876D01*
Y266760D01*
X94951D01*
Y257579D01*
X94951Y257579D01*
X95036Y257153D01*
X95277Y256792D01*
X100788Y251281D01*
X100788Y251281D01*
X100879Y251220D01*
X100727Y250720D01*
X93938D01*
Y252329D01*
X91167D01*
X88395D01*
Y250720D01*
X87820D01*
Y255486D01*
X86473D01*
Y256171D01*
X87820D01*
Y261486D01*
X82702D01*
Y256171D01*
X84049D01*
Y255486D01*
X82702D01*
Y250171D01*
X84532D01*
X86052Y248651D01*
X86445Y248388D01*
X86910Y248296D01*
X114754D01*
X117133Y245917D01*
Y243700D01*
X116633Y243433D01*
X116455Y243551D01*
X115687Y243704D01*
X114919Y243551D01*
X114268Y243116D01*
X114171Y242971D01*
X112341D01*
Y246483D01*
X65876D01*
Y247883D01*
X66183Y248089D01*
X66618Y248740D01*
X66771Y249508D01*
X66618Y250276D01*
X66183Y250927D01*
X65532Y251362D01*
X64764Y251515D01*
X63996Y251362D01*
X63345Y250927D01*
X62910Y250276D01*
X62757Y249508D01*
X62910Y248740D01*
X63345Y248089D01*
X63652Y247883D01*
Y246483D01*
X60758D01*
Y247883D01*
X61065Y248089D01*
X61500Y248740D01*
X61653Y249508D01*
X61500Y250276D01*
X61065Y250927D01*
X60414Y251362D01*
X59646Y251515D01*
X58878Y251362D01*
X58227Y250927D01*
X57791Y250276D01*
X57639Y249508D01*
X57791Y248740D01*
X58227Y248089D01*
X58534Y247883D01*
Y246483D01*
X47554D01*
Y246696D01*
X45282D01*
Y241759D01*
Y236822D01*
X47554D01*
Y237034D01*
X53570D01*
Y234503D01*
X53404Y234392D01*
X52969Y233740D01*
X52816Y232972D01*
X52969Y232204D01*
X53404Y231553D01*
X54055Y231118D01*
X54823Y230965D01*
X55591Y231118D01*
X56242Y231553D01*
X56677Y232204D01*
X56830Y232972D01*
X56677Y233740D01*
X56242Y234392D01*
X55994Y234557D01*
Y237034D01*
X68571D01*
Y234530D01*
X68364Y234392D01*
X67929Y233740D01*
X67776Y232972D01*
X67929Y232204D01*
X68364Y231553D01*
X69015Y231118D01*
X69784Y230965D01*
X70552Y231118D01*
X71203Y231553D01*
X71638Y232204D01*
X71790Y232972D01*
X71638Y233740D01*
X71203Y234392D01*
X70996Y234530D01*
Y237034D01*
X103019D01*
X103254Y236571D01*
X103248Y236534D01*
X102883Y236290D01*
X99832Y233239D01*
X99569Y232846D01*
X99477Y232382D01*
Y206408D01*
X83356Y190287D01*
X73917D01*
X73453Y190195D01*
X73060Y189932D01*
X63925Y180797D01*
X63662Y180403D01*
X63570Y179939D01*
Y179554D01*
X55994D01*
Y219641D01*
X55902Y220105D01*
X55639Y220498D01*
X42846Y233291D01*
Y236822D01*
X44282D01*
Y241759D01*
Y246696D01*
X42846D01*
Y285925D01*
X42754Y286389D01*
X42491Y286782D01*
X42491Y286782D01*
X35738Y293536D01*
X35345Y293798D01*
X34881Y293891D01*
X28891D01*
Y295434D01*
X23773D01*
Y289922D01*
X28891D01*
Y291466D01*
X34379D01*
X40422Y285423D01*
Y244279D01*
X39937Y244158D01*
X39885Y244255D01*
X39148Y245152D01*
X38251Y245889D01*
X37227Y246436D01*
X36116Y246773D01*
X34961Y246887D01*
Y246876D01*
X4605D01*
X4597Y246874D01*
X3546Y247013D01*
X2559Y247421D01*
X1712Y248072D01*
X1061Y248919D01*
X653Y249906D01*
X514Y250957D01*
X516Y250965D01*
Y341400D01*
X516Y341900D01*
X576Y342375D01*
X653Y342959D01*
X1061Y343946D01*
X1712Y344793D01*
X2559Y345443D01*
X3546Y345852D01*
X4597Y345990D01*
X4605Y345989D01*
X107525D01*
Y331404D01*
X115399D01*
Y345989D01*
X134297D01*
Y331404D01*
X142171D01*
Y345989D01*
X163930D01*
X164300Y345673D01*
X164300Y345489D01*
Y342417D01*
X167170D01*
X170040D01*
Y345489D01*
X170040Y345673D01*
X170409Y345989D01*
X186974D01*
X187124Y345489D01*
X186628Y345108D01*
X186152Y344488D01*
X185853Y343766D01*
X185751Y342991D01*
Y341129D01*
X188745D01*
X191739D01*
Y342991D01*
X191637Y343766D01*
X191338Y344488D01*
X190862Y345108D01*
X190366Y345489D01*
X190516Y345989D01*
X220990D01*
X221140Y345489D01*
X220644Y345108D01*
X220168Y344488D01*
X219869Y343766D01*
X219767Y342991D01*
Y341129D01*
X222761D01*
X225755D01*
Y342991D01*
X225653Y343766D01*
X225354Y344488D01*
X224878Y345108D01*
X224382Y345489D01*
X224532Y345989D01*
X251301D01*
X251308Y345990D01*
X252360Y345852D01*
D02*
G37*
G36*
X85957Y294343D02*
Y289448D01*
X79652D01*
X78579Y290521D01*
X70963Y290521D01*
X70425Y291059D01*
X65478D01*
Y294799D01*
X66081Y295402D01*
X84898D01*
X85957Y294343D01*
D02*
G37*
G36*
X70395Y289953D02*
X70395Y289953D01*
X70656Y289779D01*
X70963Y289718D01*
X78247Y289718D01*
X79085Y288880D01*
X79085Y288880D01*
X79345Y288706D01*
X79652Y288645D01*
X85957D01*
X86035Y288660D01*
X86623D01*
X86744Y288660D01*
X87123Y288366D01*
Y285371D01*
X86744Y285078D01*
X86623Y285078D01*
X86035D01*
X85957Y285093D01*
X70237D01*
X69765Y285161D01*
X69765Y285593D01*
Y287334D01*
X66796D01*
Y288334D01*
X69765D01*
Y289876D01*
X70265Y290083D01*
X70395Y289953D01*
D02*
G37*
G36*
X124848Y327652D02*
Y292148D01*
X122200Y289500D01*
Y282582D01*
X122191Y282573D01*
X119227D01*
X115200Y286600D01*
Y303000D01*
X105400Y312800D01*
X83800D01*
X81300Y310300D01*
Y299800D01*
X78900Y297400D01*
X66400D01*
X64300Y299500D01*
Y326700D01*
X67100Y329500D01*
X123000D01*
X124848Y327652D01*
D02*
G37*
G36*
X85957Y279257D02*
X85400Y278700D01*
X76811D01*
X76801Y278710D01*
X70509D01*
X70500Y278700D01*
X60300D01*
X59915Y279085D01*
Y283916D01*
X60211Y284211D01*
X63163D01*
Y284290D01*
X85957D01*
Y279257D01*
D02*
G37*
G36*
X109843Y301476D02*
Y265256D01*
X114173Y260925D01*
X159291D01*
X162114Y258102D01*
Y250821D01*
X161977D01*
Y240946D01*
X162114D01*
Y227559D01*
X156465D01*
X156465Y240946D01*
X156603D01*
Y250821D01*
X156465D01*
Y253083D01*
X155315Y254232D01*
X105413D01*
X98228Y261417D01*
Y274213D01*
X87926Y284515D01*
Y297274D01*
X85700Y299500D01*
Y308700D01*
X87100Y310100D01*
X101219D01*
X109843Y301476D01*
D02*
G37*
G36*
X120540Y246982D02*
Y173785D01*
X115025Y168271D01*
X82317D01*
X80983Y169605D01*
X81109Y170105D01*
X112341D01*
Y179554D01*
X100855D01*
X100809Y179783D01*
X100648Y180024D01*
X100854Y180332D01*
X101007Y181100D01*
X100854Y181868D01*
X100419Y182519D01*
X99768Y182954D01*
X99000Y183107D01*
X98232Y182954D01*
X97781Y182653D01*
X97425Y182560D01*
X97069Y182653D01*
X96618Y182954D01*
X95850Y183107D01*
X95082Y182954D01*
X94431Y182519D01*
X93996Y181868D01*
X93843Y181100D01*
X93996Y180332D01*
X94160Y180087D01*
X94061Y179988D01*
X93840Y179657D01*
X93819Y179554D01*
X90767D01*
Y180922D01*
X91167Y181189D01*
X91602Y181840D01*
X91755Y182608D01*
X91602Y183376D01*
X91167Y184027D01*
X90516Y184462D01*
X89747Y184615D01*
X88979Y184462D01*
X88328Y184027D01*
X87893Y183376D01*
X87740Y182608D01*
X87893Y181840D01*
X88328Y181189D01*
X88728Y180922D01*
Y179554D01*
X85894D01*
Y180983D01*
X86201Y181189D01*
X86636Y181840D01*
X86789Y182608D01*
X86636Y183376D01*
X86201Y184027D01*
X85550Y184462D01*
X84782Y184615D01*
X84014Y184462D01*
X83363Y184027D01*
X82928Y183376D01*
X82775Y182608D01*
X82928Y181840D01*
X83363Y181189D01*
X83670Y180983D01*
Y179554D01*
X66764D01*
X66573Y180016D01*
X74419Y187863D01*
X83858D01*
X84322Y187955D01*
X84715Y188218D01*
X101546Y205048D01*
X101809Y205442D01*
X101901Y205906D01*
X101901Y205906D01*
Y231880D01*
X104242Y234221D01*
X115551D01*
X116015Y234313D01*
X116408Y234576D01*
X119202Y237370D01*
X119202Y237370D01*
X119465Y237763D01*
X119557Y238227D01*
Y246419D01*
X119465Y246883D01*
X119202Y247276D01*
X116113Y250365D01*
X116064Y250398D01*
X116212Y250880D01*
X116597Y250925D01*
X120540Y246982D01*
D02*
G37*
%LPC*%
G36*
X36561Y341156D02*
X34191D01*
Y341058D01*
X31761D01*
Y338385D01*
Y335712D01*
X34191D01*
Y335613D01*
X36561D01*
Y338385D01*
Y341156D01*
D02*
G37*
G36*
X150967Y344575D02*
X145849D01*
Y339260D01*
X150967D01*
Y344575D01*
D02*
G37*
G36*
X39931Y341156D02*
X37561D01*
Y338885D01*
X39931D01*
Y341156D01*
D02*
G37*
G36*
X196428Y342703D02*
X196120Y342642D01*
X195860Y342468D01*
X192201Y338809D01*
X191739Y339000D01*
Y340129D01*
X188745D01*
X185751D01*
Y338267D01*
X185853Y337492D01*
X186125Y336834D01*
X185934Y336334D01*
X177362D01*
X177055Y336273D01*
X176795Y336099D01*
X176795Y336099D01*
X174039Y333343D01*
X174039Y333343D01*
X173865Y333083D01*
X173803Y332776D01*
Y324244D01*
X162215D01*
X161547Y324912D01*
X161738Y325374D01*
X162347D01*
Y332461D01*
X157032D01*
Y332009D01*
X156873Y331575D01*
X156532Y331575D01*
X151755D01*
Y326260D01*
X156873Y326260D01*
X157032Y325826D01*
Y325374D01*
X158477D01*
Y325055D01*
X158569Y324591D01*
X158832Y324198D01*
X160855Y322174D01*
X161249Y321912D01*
X161713Y321819D01*
X161713Y321819D01*
X173803D01*
Y307911D01*
X138545Y272653D01*
X137705D01*
X137319Y272927D01*
Y278045D01*
X132004D01*
Y276506D01*
X130458D01*
Y279030D01*
X126521D01*
Y272653D01*
X124819D01*
Y277239D01*
X124819Y277239D01*
X124758Y277547D01*
X124583Y277807D01*
X123581Y278810D01*
X123320Y278984D01*
X123013Y279045D01*
X118030D01*
Y280892D01*
X115061D01*
X112093D01*
Y278718D01*
X112187D01*
X112379Y278257D01*
X111932Y277810D01*
X111758Y277550D01*
X111697Y277242D01*
Y266634D01*
X111697Y266634D01*
X111758Y266327D01*
X111932Y266066D01*
X111932Y266066D01*
X113704Y264295D01*
X113704Y264295D01*
X113964Y264121D01*
X114272Y264059D01*
X143132D01*
X143439Y264121D01*
X143699Y264295D01*
X183639Y304234D01*
X183813Y304494D01*
X183874Y304801D01*
Y325455D01*
X185302Y326884D01*
X185776Y326650D01*
X185750Y326456D01*
Y325381D01*
X188745D01*
Y324881D01*
X189245D01*
Y320378D01*
X189520Y320414D01*
X190242Y320713D01*
X190473Y320890D01*
X190973Y320644D01*
Y319157D01*
X192654D01*
Y322519D01*
X193654D01*
Y319157D01*
X194975D01*
Y317677D01*
X187370Y310071D01*
X187149Y309741D01*
X187071Y309350D01*
Y299506D01*
X187149Y299116D01*
X187370Y298785D01*
X190469Y295686D01*
X190800Y295465D01*
X191190Y295387D01*
X195366D01*
X195400Y295324D01*
X195580Y294887D01*
X195491Y294438D01*
X195595Y293916D01*
X195630Y293863D01*
X195890Y293435D01*
X195594Y292992D01*
X195490Y292470D01*
X195594Y291948D01*
X195890Y291505D01*
X195635Y291084D01*
X195595Y291023D01*
X195491Y290501D01*
X195595Y289979D01*
X195890Y289536D01*
X195630Y289108D01*
X195594Y289055D01*
X195490Y288533D01*
X195594Y288011D01*
X195890Y287568D01*
X196333Y287272D01*
X196855Y287168D01*
X198902D01*
X199075Y287202D01*
X199438Y286847D01*
X199473Y286640D01*
X199466Y286604D01*
Y284557D01*
X199570Y284035D01*
X199866Y283592D01*
X200309Y283296D01*
X200831Y283192D01*
X201353Y283296D01*
X201406Y283332D01*
X201815Y283581D01*
X202223Y283332D01*
X202276Y283296D01*
X202799Y283192D01*
X203321Y283296D01*
X203375Y283332D01*
X203783Y283580D01*
X204192Y283332D01*
X204246Y283296D01*
X204768Y283192D01*
X205290Y283296D01*
X205733Y283592D01*
X205770D01*
X206213Y283296D01*
X206735Y283192D01*
X207258Y283296D01*
X207312Y283332D01*
X207720Y283580D01*
X208128Y283332D01*
X208183Y283296D01*
X208705Y283192D01*
X209227Y283296D01*
X209259Y283317D01*
X209673Y283590D01*
X210088Y283317D01*
X210120Y283296D01*
X210642Y283192D01*
X211164Y283296D01*
X211607Y283592D01*
X211903Y284035D01*
X212007Y284557D01*
Y286470D01*
X212282Y286756D01*
X212493Y286843D01*
X212679Y286786D01*
X212692Y286720D01*
X212911Y286392D01*
X213989Y285314D01*
X214318Y285094D01*
X214705Y285017D01*
X221649D01*
Y283629D01*
X221630D01*
X221798Y282349D01*
X222292Y281157D01*
X223078Y280133D01*
X224102Y279347D01*
X225294Y278853D01*
X226574Y278685D01*
Y278704D01*
X231736D01*
Y277948D01*
X238232D01*
Y281885D01*
X231736D01*
Y281128D01*
X226574D01*
X226519Y281118D01*
X225608Y281299D01*
X224790Y281845D01*
X224244Y282664D01*
X224062Y283574D01*
X224073Y283629D01*
Y287017D01*
X225519D01*
Y292135D01*
X220743D01*
X220492Y292597D01*
X220696Y292922D01*
X225519D01*
Y298041D01*
X224073D01*
Y302429D01*
X224072Y302435D01*
X224187Y303014D01*
X224518Y303510D01*
X225014Y303841D01*
X225593Y303956D01*
X225600Y303955D01*
X231629D01*
Y303199D01*
X238125D01*
Y307136D01*
X231629D01*
Y306380D01*
X225600D01*
Y306390D01*
X224574Y306255D01*
X223619Y305859D01*
X222798Y305230D01*
X222169Y304410D01*
X221773Y303454D01*
X221638Y302429D01*
X221649D01*
Y298041D01*
X220204D01*
Y295680D01*
X219704Y295413D01*
X219449Y295583D01*
X219068Y295659D01*
X218690Y296209D01*
X218734Y296429D01*
X218582Y297197D01*
X218146Y297848D01*
X217495Y298283D01*
X216727Y298436D01*
X216489Y298389D01*
X215933Y298788D01*
X215912Y298897D01*
X215616Y299340D01*
X215173Y299636D01*
X214651Y299740D01*
X212603D01*
X212519Y299723D01*
X212398Y299734D01*
X212026Y300106D01*
X212029Y300265D01*
X212037Y300305D01*
Y302352D01*
X211933Y302875D01*
X211638Y303317D01*
X211195Y303613D01*
X210672Y303717D01*
X210150Y303613D01*
X209858Y303418D01*
X209823Y303471D01*
X209310Y303814D01*
X209205Y303835D01*
Y301329D01*
X208205D01*
Y303835D01*
X208100Y303814D01*
X208057Y303785D01*
X207557Y304052D01*
Y304111D01*
X207530Y304245D01*
Y304539D01*
X208068Y304646D01*
X208719Y305081D01*
X209154Y305732D01*
X209307Y306500D01*
X209154Y307268D01*
X208719Y307919D01*
X208068Y308354D01*
X207300Y308507D01*
X206532Y308354D01*
X206081Y308053D01*
X205725Y307960D01*
X205369Y308053D01*
X204919Y308354D01*
X204150Y308507D01*
X203382Y308354D01*
X202731Y307919D01*
X202331Y307320D01*
X202150Y307224D01*
X201820Y307124D01*
X200794Y308150D01*
X200534Y308324D01*
X200226Y308385D01*
X195866D01*
X195769Y308366D01*
X195079D01*
Y307660D01*
X195063Y307583D01*
X195063Y298203D01*
X195118Y297926D01*
X195118Y297880D01*
X195056Y297710D01*
X194837Y297426D01*
X191613D01*
X189110Y299929D01*
Y302642D01*
X191134D01*
Y305610D01*
Y308579D01*
X189468D01*
X189261Y309079D01*
X196715Y316533D01*
X196937Y316864D01*
X197014Y317254D01*
Y319354D01*
X197485D01*
X197562Y319369D01*
X201889D01*
Y318900D01*
X201958Y318551D01*
X202155Y318256D01*
X203118Y317293D01*
X203414Y317095D01*
X203763Y317026D01*
X205805D01*
X206154Y317095D01*
X206449Y317293D01*
X207381Y318225D01*
X207579Y318520D01*
X207648Y318869D01*
Y319369D01*
X213943D01*
X214020Y319354D01*
X216170D01*
Y319157D01*
X217851D01*
Y322519D01*
Y325881D01*
X217185D01*
X217185Y338047D01*
X217185Y338047D01*
X217124Y338354D01*
X216950Y338614D01*
X216950Y338615D01*
X213097Y342468D01*
X212836Y342642D01*
X212529Y342703D01*
X196428D01*
X196428Y342703D01*
D02*
G37*
G36*
X162347Y345461D02*
X157032D01*
Y345009D01*
X156873Y344575D01*
X151755D01*
Y339260D01*
X156873D01*
X157032Y338826D01*
Y338374D01*
X162347D01*
Y345461D01*
D02*
G37*
G36*
X170040Y341417D02*
X167670D01*
Y338161D01*
X170040D01*
Y341417D01*
D02*
G37*
G36*
X166670D02*
X164300D01*
Y338161D01*
X166670D01*
Y341417D01*
D02*
G37*
G36*
X12049Y341534D02*
X6931D01*
Y336022D01*
X12049D01*
Y341534D01*
D02*
G37*
G36*
X28191D02*
X23073D01*
Y339890D01*
X22378D01*
X21953Y339806D01*
X21592Y339565D01*
X21592Y339565D01*
X19614Y337586D01*
X19373Y337226D01*
X19288Y336800D01*
X19288Y336800D01*
Y317657D01*
X19288Y317657D01*
X19373Y317231D01*
X19614Y316870D01*
X21492Y314992D01*
X21853Y314751D01*
X22278Y314666D01*
X22278Y314667D01*
X23073D01*
Y313022D01*
X27876Y313022D01*
X28178Y312674D01*
X28220Y312520D01*
X28032Y312286D01*
X27796Y312240D01*
X27726Y312235D01*
X23073D01*
Y306723D01*
X28191D01*
Y306723D01*
X28505Y306917D01*
X34017D01*
Y306917D01*
X34404D01*
Y306917D01*
X39718D01*
Y312035D01*
X34404D01*
Y312035D01*
X34017Y311838D01*
X28514D01*
X28325Y312067D01*
X28271Y312307D01*
X28271Y312334D01*
X28456Y312563D01*
X28703Y312606D01*
X28758Y312610D01*
X30761D01*
Y315283D01*
Y317956D01*
X28293Y317956D01*
X28191Y318414D01*
Y318534D01*
X23073D01*
Y317264D01*
X22573Y317056D01*
X21512Y318117D01*
Y336339D01*
X22573Y337400D01*
X23073Y337193D01*
Y336022D01*
X27921Y336022D01*
X28293Y335711D01*
X28562Y335712D01*
X30761D01*
Y338385D01*
Y341058D01*
X28293Y341058D01*
X28191Y341516D01*
Y341534D01*
D02*
G37*
G36*
X39931Y337885D02*
X37561D01*
Y335613D01*
X39931D01*
Y337885D01*
D02*
G37*
G36*
X222261Y340129D02*
X219767D01*
Y338267D01*
X219869Y337492D01*
X220168Y336770D01*
X220644Y336149D01*
X221264Y335674D01*
X221986Y335374D01*
X222261Y335338D01*
Y340129D01*
D02*
G37*
G36*
X225755D02*
X223261D01*
Y335338D01*
X223536Y335374D01*
X224258Y335674D01*
X224878Y336149D01*
X225354Y336770D01*
X225653Y337492D01*
X225755Y338267D01*
Y340129D01*
D02*
G37*
G36*
X98940Y345375D02*
X97578Y345196D01*
X96309Y344670D01*
X95219Y343834D01*
X94383Y342745D01*
X93858Y341476D01*
X93678Y340114D01*
X93858Y338752D01*
X94383Y337483D01*
X95219Y336393D01*
X96309Y335557D01*
X97578Y335032D01*
X98940Y334852D01*
X100302Y335032D01*
X101571Y335557D01*
X102660Y336393D01*
X103496Y337483D01*
X104022Y338752D01*
X104201Y340114D01*
X104022Y341476D01*
X103496Y342745D01*
X102660Y343834D01*
X101571Y344670D01*
X100302Y345196D01*
X98940Y345375D01*
D02*
G37*
G36*
X46578D02*
X45216Y345196D01*
X43947Y344670D01*
X42857Y343834D01*
X42021Y342745D01*
X41495Y341476D01*
X41316Y340114D01*
X41495Y338752D01*
X42021Y337483D01*
X42857Y336393D01*
X43947Y335557D01*
X45216Y335032D01*
X46578Y334852D01*
X47939Y335032D01*
X49208Y335557D01*
X50298Y336393D01*
X51134Y337483D01*
X51660Y338752D01*
X51839Y340114D01*
X51660Y341476D01*
X51134Y342745D01*
X50298Y343834D01*
X49208Y344670D01*
X47939Y345196D01*
X46578Y345375D01*
D02*
G37*
G36*
X28191Y335235D02*
Y335235D01*
X23073D01*
Y329723D01*
X28191D01*
Y329723D01*
X28505Y330018D01*
X34017D01*
X34017Y330018D01*
X34404Y329920D01*
X34404Y329920D01*
X34476Y329920D01*
X39718D01*
Y335038D01*
X34476D01*
X34404Y335038D01*
X34404Y335038D01*
X34017Y334940D01*
X34017Y334940D01*
X28505D01*
X28191Y335235D01*
D02*
G37*
G36*
X12049Y335235D02*
X6931D01*
Y329723D01*
X12049D01*
Y335235D01*
D02*
G37*
G36*
X223261Y329384D02*
Y325381D01*
X225755D01*
Y326456D01*
X225653Y327231D01*
X225354Y327953D01*
X224878Y328573D01*
X224258Y329048D01*
X223536Y329348D01*
X223261Y329384D01*
D02*
G37*
G36*
X169827Y332461D02*
X164512D01*
Y325374D01*
X169827D01*
Y332461D01*
D02*
G37*
G36*
X222261Y329384D02*
X221986Y329348D01*
X221264Y329048D01*
X220644Y328573D01*
X220168Y327953D01*
X219869Y327231D01*
X219767Y326456D01*
Y325881D01*
X218851D01*
Y322519D01*
Y319157D01*
X220532D01*
Y320644D01*
X221032Y320891D01*
X221264Y320713D01*
X221986Y320414D01*
X222261Y320378D01*
Y324881D01*
Y329384D01*
D02*
G37*
G36*
X188245Y324381D02*
X185750D01*
Y323306D01*
X185853Y322531D01*
X186152Y321809D01*
X186627Y321189D01*
X187248Y320713D01*
X187970Y320414D01*
X188245Y320378D01*
Y324381D01*
D02*
G37*
G36*
X225755D02*
X223261D01*
Y320378D01*
X223536Y320414D01*
X224258Y320713D01*
X224878Y321189D01*
X225354Y321809D01*
X225653Y322531D01*
X225755Y323306D01*
Y324381D01*
D02*
G37*
G36*
X129285Y328467D02*
Y318912D01*
X131754D01*
Y328467D01*
X129285D01*
D02*
G37*
G36*
X36561Y318153D02*
X34191D01*
Y317956D01*
X31761D01*
Y315283D01*
Y312610D01*
X36561D01*
Y315382D01*
Y318153D01*
D02*
G37*
G36*
X170040Y319673D02*
X167670D01*
Y316417D01*
X170040D01*
Y319673D01*
D02*
G37*
G36*
X166670D02*
X164300D01*
Y316417D01*
X166670D01*
Y319673D01*
D02*
G37*
G36*
X39931Y318153D02*
X37561D01*
Y315881D01*
X39931D01*
Y318153D01*
D02*
G37*
G36*
X12049Y318534D02*
X6931D01*
Y313022D01*
X12049D01*
Y318534D01*
D02*
G37*
G36*
X39931Y314881D02*
X37561D01*
Y312610D01*
X39931D01*
Y314881D01*
D02*
G37*
G36*
X162347Y319461D02*
X157032D01*
Y319009D01*
X156873Y318575D01*
X151755D01*
Y313260D01*
X156873D01*
X157032Y312826D01*
Y312374D01*
X162347D01*
Y319461D01*
D02*
G37*
G36*
X140461Y314355D02*
X137993D01*
Y312181D01*
X140461D01*
Y314355D01*
D02*
G37*
G36*
X170040Y315417D02*
X167670D01*
Y312161D01*
X170040D01*
Y315417D01*
D02*
G37*
G36*
X166670D02*
X164300D01*
Y312161D01*
X166670D01*
Y315417D01*
D02*
G37*
G36*
X140461Y311181D02*
X137993D01*
Y309008D01*
X140461D01*
Y311181D01*
D02*
G37*
G36*
X131754Y317912D02*
X129285D01*
Y308357D01*
X131754D01*
Y317912D01*
D02*
G37*
G36*
X12049Y312235D02*
X6931D01*
Y306723D01*
X12049D01*
Y312235D01*
D02*
G37*
G36*
X194307Y308579D02*
X192134D01*
Y306110D01*
X194307D01*
Y308579D01*
D02*
G37*
G36*
Y305110D02*
X192134D01*
Y302642D01*
X194307D01*
Y305110D01*
D02*
G37*
G36*
X134293Y305333D02*
X131352D01*
Y302629D01*
X134293D01*
Y305333D01*
D02*
G37*
G36*
X130352D02*
X127411D01*
Y302629D01*
X130352D01*
Y305333D01*
D02*
G37*
G36*
X252634Y303967D02*
X247319D01*
Y302620D01*
X246393D01*
Y303376D01*
X243338D01*
X243144Y303415D01*
X242951Y303376D01*
X239896D01*
Y299439D01*
X242951D01*
X243144Y299400D01*
X243338Y299439D01*
X246393D01*
Y300195D01*
X247319D01*
Y298849D01*
X252634D01*
Y303967D01*
D02*
G37*
G36*
X134293Y301629D02*
X131352D01*
Y298924D01*
X134293D01*
Y301629D01*
D02*
G37*
G36*
X130352D02*
X127411D01*
Y298924D01*
X130352D01*
Y301629D01*
D02*
G37*
G36*
X238125Y299616D02*
X231629D01*
Y298860D01*
X231027D01*
X231027Y298860D01*
X230563Y298768D01*
X230170Y298505D01*
X229706Y298041D01*
X226204D01*
Y292922D01*
X231519D01*
Y295225D01*
X231629Y295679D01*
X238125D01*
Y299616D01*
D02*
G37*
G36*
X53861Y309453D02*
X52422Y309263D01*
X51081Y308708D01*
X49930Y307824D01*
X49046Y306673D01*
X48491Y305332D01*
X48302Y303893D01*
X48491Y302454D01*
X49046Y301114D01*
X49930Y299962D01*
X51081Y299079D01*
X52422Y298523D01*
X53861Y298334D01*
X55300Y298523D01*
X56641Y299079D01*
X57792Y299962D01*
X58676Y301114D01*
X59231Y302454D01*
X59420Y303893D01*
X59231Y305332D01*
X58676Y306673D01*
X57792Y307824D01*
X56641Y308708D01*
X55300Y309263D01*
X53861Y309453D01*
D02*
G37*
G36*
X150967Y331575D02*
X145849D01*
Y330510D01*
X145800Y330029D01*
X145375Y329944D01*
X145014Y329703D01*
X143835Y328524D01*
X143594Y328164D01*
X143509Y327738D01*
X143509Y327738D01*
Y314355D01*
X141461D01*
Y311682D01*
Y309008D01*
X143509D01*
Y308237D01*
X138205D01*
Y303315D01*
X138912D01*
Y296328D01*
X142849D01*
Y303315D01*
X143509D01*
Y293572D01*
X138912D01*
Y286486D01*
X138431Y286441D01*
X130458D01*
Y288872D01*
X126931D01*
Y289085D01*
X125250D01*
Y285329D01*
Y281573D01*
X126931D01*
Y281785D01*
X130458D01*
Y284217D01*
X131313D01*
X131791Y284163D01*
X131791Y283717D01*
Y281892D01*
X134661D01*
X137531D01*
X137531Y284163D01*
X138009Y284217D01*
X143617D01*
X143617Y284217D01*
X144043Y284301D01*
X144404Y284542D01*
X145407Y285546D01*
X145407Y285546D01*
X145648Y285907D01*
X145708Y286206D01*
X146180Y286273D01*
X146192Y286273D01*
X147861D01*
Y290029D01*
Y293785D01*
X146180D01*
Y293785D01*
X145733Y293912D01*
Y312808D01*
X145849Y313260D01*
X146233Y313260D01*
X147296D01*
Y303415D01*
X146393D01*
Y296328D01*
X150330D01*
Y303415D01*
X149520D01*
Y313260D01*
X150967D01*
Y318575D01*
X145849Y318575D01*
X145733Y319026D01*
Y325808D01*
X145849Y326260D01*
X150967D01*
Y331575D01*
D02*
G37*
G36*
X130474Y296397D02*
X128301D01*
Y293929D01*
X130474D01*
Y296397D01*
D02*
G37*
G36*
X64115Y295799D02*
X61844D01*
Y293429D01*
X64115D01*
Y295799D01*
D02*
G37*
G36*
X60844D02*
X58572D01*
Y293429D01*
X60844D01*
Y295799D01*
D02*
G37*
G36*
X150542Y293785D02*
X148861D01*
Y290529D01*
X150542D01*
Y293785D01*
D02*
G37*
G36*
X130474Y292929D02*
X128301D01*
Y290460D01*
X130474D01*
Y292929D01*
D02*
G37*
G36*
X60844Y292429D02*
X58572D01*
Y290059D01*
X60844D01*
Y292429D01*
D02*
G37*
G36*
X12749Y295434D02*
X7631D01*
Y289922D01*
X12749D01*
Y295434D01*
D02*
G37*
G36*
X51065Y290614D02*
X48597D01*
Y288441D01*
X51065D01*
Y290614D01*
D02*
G37*
G36*
X47596D02*
X45128D01*
Y288441D01*
X47596D01*
Y290614D01*
D02*
G37*
G36*
X56463Y287475D02*
X53797D01*
Y287164D01*
X51065D01*
Y287441D01*
X48597D01*
Y285267D01*
X50762D01*
Y284621D01*
X46237D01*
X45930Y284559D01*
X45835Y284496D01*
X45341D01*
Y283786D01*
X45325Y283708D01*
Y280362D01*
X45341Y280284D01*
Y279574D01*
X45780D01*
X46041Y279313D01*
X46302Y279139D01*
X46609Y279078D01*
X53797D01*
Y278782D01*
X56463D01*
Y283129D01*
Y287475D01*
D02*
G37*
G36*
X252634Y298061D02*
X247319D01*
Y292943D01*
X248865D01*
Y292141D01*
X247319D01*
Y287022D01*
X252634D01*
Y292141D01*
X251089D01*
Y292943D01*
X252634D01*
Y298061D01*
D02*
G37*
G36*
X29104Y289348D02*
X26832D01*
Y286879D01*
X29104D01*
Y289348D01*
D02*
G37*
G36*
X25832D02*
X23560D01*
Y286879D01*
X25832D01*
Y289348D01*
D02*
G37*
G36*
X150542Y289529D02*
X148861D01*
Y286273D01*
X150542D01*
Y289529D01*
D02*
G37*
G36*
X231519Y292135D02*
X226204D01*
Y287017D01*
X229706D01*
X230144Y286579D01*
X230144Y286579D01*
X230537Y286316D01*
X231001Y286224D01*
X231001Y286224D01*
X231736D01*
Y285467D01*
X238232D01*
Y289404D01*
X231736D01*
X231519Y289814D01*
Y292135D01*
D02*
G37*
G36*
X47596Y287441D02*
X45128D01*
Y285267D01*
X47596D01*
Y287441D01*
D02*
G37*
G36*
X252634Y286235D02*
X247319D01*
Y284888D01*
X246500D01*
Y285645D01*
X243445D01*
X243252Y285683D01*
X243058Y285645D01*
X240004D01*
Y281708D01*
X243058D01*
X243252Y281669D01*
X243445Y281708D01*
X246500D01*
Y282464D01*
X247319D01*
Y281117D01*
X252634D01*
Y286235D01*
D02*
G37*
G36*
X12749Y289135D02*
X7631D01*
Y283623D01*
X12749D01*
Y289135D01*
D02*
G37*
G36*
X29104Y285879D02*
X26832D01*
Y283411D01*
X29104D01*
Y285879D01*
D02*
G37*
G36*
X25832D02*
X23560D01*
Y283411D01*
X25832D01*
Y285879D01*
D02*
G37*
G36*
X114561Y284065D02*
X112093D01*
Y281892D01*
X114561D01*
Y284065D01*
D02*
G37*
G36*
X137531Y280892D02*
X135161D01*
Y278620D01*
X137531D01*
Y280892D01*
D02*
G37*
G36*
X134161D02*
X131791D01*
Y278620D01*
X134161D01*
Y280892D01*
D02*
G37*
G36*
X86744Y274457D02*
X80248D01*
Y273601D01*
X79552D01*
Y274329D01*
X74237D01*
Y272912D01*
X71100D01*
X70675Y272827D01*
X70314Y272586D01*
X70314Y272586D01*
X69312Y271585D01*
X69071Y271224D01*
X68986Y270798D01*
X68498Y270697D01*
X66850D01*
Y266760D01*
X73346D01*
Y270688D01*
X74237D01*
Y269211D01*
X79552D01*
Y271377D01*
X80248D01*
Y270520D01*
X86744D01*
Y274457D01*
D02*
G37*
G36*
X65079D02*
X58583D01*
Y273601D01*
X57995D01*
Y273922D01*
X52877D01*
Y268607D01*
X52877D01*
Y268522D01*
X52877D01*
Y263207D01*
X57870D01*
X57995Y263207D01*
X58370Y262905D01*
Y262788D01*
X61331D01*
Y264969D01*
Y267150D01*
X58495D01*
X58370Y267150D01*
X57995Y267452D01*
Y268522D01*
X57995D01*
Y268607D01*
X57995D01*
Y271377D01*
X58583D01*
Y270520D01*
X65079D01*
Y274457D01*
D02*
G37*
G36*
X62331Y267150D02*
Y265469D01*
X65291D01*
Y267150D01*
X62331D01*
D02*
G37*
G36*
X52302Y265364D02*
X50030D01*
Y262994D01*
X52302D01*
Y265364D01*
D02*
G37*
G36*
X49031D02*
X46759D01*
Y262994D01*
X49031D01*
Y265364D01*
D02*
G37*
G36*
X79552Y268424D02*
X74237D01*
Y263305D01*
X79552D01*
Y263857D01*
X80248D01*
Y263000D01*
X83303D01*
X83496Y262962D01*
X83690Y263000D01*
X86744D01*
Y266937D01*
X83690D01*
X83496Y266976D01*
X83303Y266937D01*
X80248D01*
Y266081D01*
X79552D01*
Y268424D01*
D02*
G37*
G36*
X65291Y264469D02*
X62331D01*
Y262788D01*
X65291D01*
Y264469D01*
D02*
G37*
G36*
X220207Y251033D02*
X218457D01*
Y250821D01*
X213508D01*
Y251033D01*
X211758D01*
Y245883D01*
Y240733D01*
X213506D01*
Y239639D01*
X212932Y239255D01*
X212497Y238604D01*
X212344Y237836D01*
X212497Y237068D01*
X212932Y236416D01*
X213583Y235981D01*
X214351Y235829D01*
X215119Y235981D01*
X215770Y236416D01*
X215813Y236481D01*
X216081D01*
X216732Y236046D01*
X217500Y235893D01*
X218268Y236046D01*
X218919Y236481D01*
X219354Y237132D01*
X219507Y237900D01*
X219354Y238668D01*
X218919Y239319D01*
X218669Y239486D01*
Y240733D01*
X220207D01*
Y245883D01*
Y251033D01*
D02*
G37*
G36*
X188711D02*
X186961D01*
Y250821D01*
X182012D01*
Y251033D01*
X180262D01*
Y245883D01*
Y240733D01*
X182012D01*
Y240946D01*
X186961D01*
Y240733D01*
X188711D01*
Y245883D01*
Y251033D01*
D02*
G37*
G36*
X176112D02*
X174362D01*
Y250821D01*
X169413D01*
Y251033D01*
X167663D01*
Y245883D01*
Y240733D01*
X169413D01*
Y240946D01*
X174362D01*
Y240733D01*
X176112D01*
Y245883D01*
Y251033D01*
D02*
G37*
G36*
X210758D02*
X209008D01*
Y246384D01*
X210758D01*
Y251033D01*
D02*
G37*
G36*
X222957D02*
X221207D01*
Y245883D01*
Y240733D01*
X222957D01*
Y240946D01*
X235343D01*
Y250821D01*
X222957D01*
Y251033D01*
D02*
G37*
G36*
X210758Y245384D02*
X209008D01*
Y240733D01*
X210758D01*
Y245384D01*
D02*
G37*
G36*
X191461Y251033D02*
X189711D01*
Y245883D01*
Y240733D01*
X191461D01*
Y240946D01*
X197547D01*
Y250821D01*
X191461D01*
Y251033D01*
D02*
G37*
G36*
X179262D02*
X177112D01*
Y245883D01*
Y240733D01*
X179262D01*
Y245883D01*
Y251033D01*
D02*
G37*
G36*
X166663D02*
X164514D01*
Y245883D01*
Y240733D01*
X166663D01*
Y245883D01*
Y251033D01*
D02*
G37*
G36*
X154065D02*
X152315D01*
Y250821D01*
X139929D01*
Y240946D01*
X152315D01*
Y240733D01*
X154065D01*
Y245883D01*
Y251033D01*
D02*
G37*
G36*
X249818Y250909D02*
X238643D01*
Y236134D01*
X249818D01*
Y250909D01*
D02*
G37*
G36*
X135054D02*
X123879D01*
Y236134D01*
X135054D01*
Y250909D01*
D02*
G37*
G36*
X137636Y234028D02*
X136526Y233882D01*
X135493Y233454D01*
X134605Y232773D01*
X133923Y231885D01*
X133495Y230851D01*
X133349Y229742D01*
X133495Y228632D01*
X133923Y227598D01*
X134605Y226711D01*
X135493Y226029D01*
X136526Y225601D01*
X137636Y225455D01*
X138745Y225601D01*
X139779Y226029D01*
X140667Y226711D01*
X141348Y227598D01*
X141777Y228632D01*
X141922Y229742D01*
X141777Y230851D01*
X141348Y231885D01*
X140667Y232773D01*
X139779Y233454D01*
X138745Y233882D01*
X137636Y234028D01*
D02*
G37*
G36*
X236061Y235037D02*
X234690Y234857D01*
X233413Y234328D01*
X232317Y233486D01*
X231475Y232390D01*
X230946Y231112D01*
X230766Y229742D01*
X230946Y228371D01*
X231475Y227094D01*
X232317Y225998D01*
X233413Y225156D01*
X234690Y224627D01*
X236061Y224447D01*
X237432Y224627D01*
X238709Y225156D01*
X239805Y225998D01*
X240647Y227094D01*
X241176Y228371D01*
X241356Y229742D01*
X241176Y231112D01*
X240647Y232390D01*
X239805Y233486D01*
X238709Y234328D01*
X237432Y234857D01*
X236061Y235037D01*
D02*
G37*
G36*
X180837Y218750D02*
X179087D01*
Y218537D01*
X170988D01*
Y218750D01*
X169238D01*
Y213600D01*
Y208450D01*
X170988D01*
Y208663D01*
X179087D01*
Y208450D01*
X180837D01*
Y213600D01*
Y218750D01*
D02*
G37*
G36*
X168238D02*
X166488D01*
Y218537D01*
X161539D01*
Y218750D01*
X159789D01*
Y213600D01*
Y208450D01*
X161539D01*
Y208663D01*
X166488D01*
Y208450D01*
X168238D01*
Y213600D01*
Y218750D01*
D02*
G37*
G36*
X158789D02*
X157039D01*
Y218537D01*
X145791D01*
Y218750D01*
X144041D01*
Y213600D01*
Y208450D01*
X145791D01*
Y208663D01*
X154108D01*
X154376Y208162D01*
X154246Y207968D01*
X154093Y207200D01*
X154246Y206432D01*
X154681Y205781D01*
X155332Y205346D01*
X156100Y205193D01*
X156868Y205346D01*
X157519Y205781D01*
X157954Y206432D01*
X158107Y207200D01*
X157958Y207950D01*
X157948Y208039D01*
X158215Y208450D01*
X158789D01*
Y213600D01*
Y218750D01*
D02*
G37*
G36*
X196185D02*
X194435D01*
Y214100D01*
X196185D01*
Y218750D01*
D02*
G37*
G36*
X85014Y215062D02*
X81896D01*
Y211944D01*
X85014D01*
Y215062D01*
D02*
G37*
G36*
X66723D02*
X63605D01*
Y211944D01*
X66723D01*
Y215062D01*
D02*
G37*
G36*
X80896D02*
X74810D01*
Y211444D01*
X73810D01*
Y215062D01*
X67723D01*
Y211444D01*
X67223D01*
Y210944D01*
X63605D01*
Y207826D01*
Y204857D01*
X67223D01*
Y203857D01*
X63605D01*
Y200739D01*
Y197771D01*
X67223D01*
Y197271D01*
X67723D01*
Y193652D01*
X73809D01*
Y197271D01*
X74809D01*
Y193652D01*
X80896D01*
Y197271D01*
X81396D01*
Y197771D01*
X85014D01*
Y200739D01*
Y203857D01*
X81396D01*
Y204857D01*
X85014D01*
Y207826D01*
Y210944D01*
X81396D01*
Y211444D01*
X80896D01*
Y215062D01*
D02*
G37*
G36*
X228081Y218750D02*
X226331D01*
Y218537D01*
X207646D01*
Y208663D01*
X226331D01*
Y208450D01*
X228081D01*
Y213600D01*
Y218750D01*
D02*
G37*
G36*
X196185Y213100D02*
X194435D01*
Y208450D01*
X196185D01*
Y213100D01*
D02*
G37*
G36*
X85014Y196771D02*
X81896D01*
Y193652D01*
X85014D01*
Y196771D01*
D02*
G37*
G36*
X66723Y196771D02*
X63605D01*
Y193652D01*
X66723D01*
Y196771D01*
D02*
G37*
G36*
X44282Y179767D02*
X42010D01*
Y175329D01*
X44282D01*
Y179767D01*
D02*
G37*
G36*
Y174329D02*
X42010D01*
Y169893D01*
X44282D01*
Y174329D01*
D02*
G37*
G36*
X46550Y169062D02*
X44376D01*
Y166593D01*
X46550D01*
Y169062D01*
D02*
G37*
G36*
X43376D02*
X41203D01*
Y166593D01*
X43376D01*
Y169062D01*
D02*
G37*
G36*
X46550Y165593D02*
X44376D01*
Y163125D01*
X46550D01*
Y165593D01*
D02*
G37*
G36*
X43376D02*
X41203D01*
Y163125D01*
X43376D01*
Y165593D01*
D02*
G37*
G36*
X51521Y160968D02*
X49347D01*
Y158500D01*
X51521D01*
Y160968D01*
D02*
G37*
G36*
X48347D02*
X46174D01*
Y158500D01*
X48347D01*
Y160968D01*
D02*
G37*
G36*
X51521Y157500D02*
X49347D01*
Y155032D01*
X51521D01*
Y157500D01*
D02*
G37*
G36*
X48347D02*
X46174D01*
Y155032D01*
X48347D01*
Y157500D01*
D02*
G37*
G36*
X68120Y160686D02*
X63002D01*
Y155371D01*
X64349D01*
Y153330D01*
X63691D01*
Y151773D01*
X58201D01*
Y151015D01*
X55217D01*
Y152363D01*
X49705D01*
Y147442D01*
X55217D01*
Y148791D01*
X57988D01*
Y147253D01*
X61242D01*
Y146253D01*
X57988D01*
Y144670D01*
X58201D01*
Y142537D01*
X57988D01*
Y140954D01*
X61242D01*
Y139954D01*
X57988D01*
Y138371D01*
Y137804D01*
X61242D01*
Y136804D01*
X57988D01*
Y135267D01*
X55217D01*
Y136615D01*
X49705D01*
Y131694D01*
X55217D01*
Y133043D01*
X58201D01*
Y132285D01*
X63691D01*
Y130728D01*
X64349D01*
Y128786D01*
X63002D01*
Y123471D01*
X68120D01*
Y128786D01*
X66773D01*
Y130728D01*
X67431D01*
Y132285D01*
X72921D01*
Y135434D01*
Y138584D01*
Y141734D01*
Y144557D01*
X73421Y144764D01*
X74714Y143472D01*
X74714Y143472D01*
X75107Y143209D01*
X75549Y143121D01*
Y141671D01*
X80667D01*
Y146986D01*
X80667D01*
X80715Y147271D01*
X80715Y147271D01*
X80715Y147467D01*
Y152586D01*
X75596D01*
Y151115D01*
X72921D01*
Y151773D01*
X67431D01*
Y153330D01*
X66773D01*
Y155371D01*
X68120D01*
Y160686D01*
D02*
G37*
G36*
X55430Y146670D02*
X52961D01*
Y144497D01*
X55430D01*
Y146670D01*
D02*
G37*
G36*
X51961D02*
X49493D01*
Y144497D01*
X51961D01*
Y146670D01*
D02*
G37*
G36*
X86786Y143829D02*
X84514D01*
Y141459D01*
X86786D01*
Y143829D01*
D02*
G37*
G36*
X83514D02*
X81242D01*
Y141459D01*
X83514D01*
Y143829D01*
D02*
G37*
G36*
X55430Y143497D02*
X49493D01*
Y141324D01*
Y140560D01*
X55430D01*
Y141324D01*
Y143497D01*
D02*
G37*
G36*
Y139560D02*
X52961D01*
Y137387D01*
X55430D01*
Y139560D01*
D02*
G37*
G36*
X51961D02*
X49493D01*
Y137387D01*
X51961D01*
Y139560D01*
D02*
G37*
G36*
X74026Y160686D02*
X68907D01*
Y155371D01*
X74026D01*
Y156515D01*
X80616D01*
X82646Y154485D01*
Y152586D01*
X81502D01*
Y147591D01*
X81242Y147199D01*
X81242Y146879D01*
Y144829D01*
X84014D01*
X86786D01*
Y146840D01*
X86786Y147199D01*
X86620Y147630D01*
Y148062D01*
X86974Y148415D01*
X90312D01*
X92452Y146275D01*
Y130517D01*
X89577Y127642D01*
X74026D01*
Y128786D01*
X68907D01*
Y123471D01*
X74026D01*
Y124615D01*
X90203D01*
X90204Y124615D01*
X90783Y124731D01*
X91274Y125059D01*
X95035Y128821D01*
X95035Y128821D01*
X95364Y129312D01*
X95479Y129891D01*
Y146902D01*
X95364Y147481D01*
X95035Y147972D01*
X95035Y147972D01*
X92009Y150999D01*
X91518Y151327D01*
X90939Y151442D01*
X90939Y151442D01*
X86620D01*
Y152586D01*
X85673D01*
Y155112D01*
X85673Y155112D01*
X85558Y155691D01*
X85230Y156182D01*
X82313Y159099D01*
X81822Y159427D01*
X81243Y159542D01*
X81243Y159542D01*
X74026D01*
Y160686D01*
D02*
G37*
G36*
X50940Y119463D02*
Y115995D01*
X54409D01*
X54337Y116539D01*
X53934Y117512D01*
X53293Y118347D01*
X52457Y118989D01*
X51484Y119392D01*
X50940Y119463D01*
D02*
G37*
G36*
X49940D02*
X49396Y119392D01*
X48423Y118989D01*
X47587Y118347D01*
X46946Y117512D01*
X46543Y116539D01*
X46472Y115995D01*
X49940D01*
Y119463D01*
D02*
G37*
G36*
X80440Y119527D02*
X79451Y119397D01*
X78530Y119015D01*
X77739Y118408D01*
X77132Y117617D01*
X76750Y116696D01*
X76620Y115707D01*
X76750Y114718D01*
X77132Y113797D01*
X77739Y113006D01*
X78530Y112399D01*
X79451Y112017D01*
X80440Y111887D01*
X81429Y112017D01*
X82350Y112399D01*
X83141Y113006D01*
X83749Y113797D01*
X84130Y114718D01*
X84260Y115707D01*
X84130Y116696D01*
X83749Y117617D01*
X83141Y118408D01*
X82350Y119015D01*
X81429Y119397D01*
X80440Y119527D01*
D02*
G37*
G36*
X70440Y119315D02*
X69451Y119184D01*
X68530Y118803D01*
X67739Y118196D01*
X67132Y117404D01*
X66750Y116483D01*
X66620Y115495D01*
X66750Y114506D01*
X67132Y113584D01*
X67739Y112793D01*
X68530Y112186D01*
X69451Y111805D01*
X70440Y111674D01*
X71429Y111805D01*
X72350Y112186D01*
X73141Y112793D01*
X73748Y113584D01*
X74130Y114506D01*
X74260Y115495D01*
X74130Y116483D01*
X73748Y117404D01*
X73141Y118196D01*
X72350Y118803D01*
X71429Y119184D01*
X70440Y119315D01*
D02*
G37*
G36*
X60440D02*
X59451Y119184D01*
X58530Y118803D01*
X57739Y118196D01*
X57132Y117404D01*
X56750Y116483D01*
X56620Y115495D01*
X56750Y114506D01*
X57132Y113584D01*
X57739Y112793D01*
X58530Y112186D01*
X59451Y111805D01*
X60440Y111674D01*
X61429Y111805D01*
X62350Y112186D01*
X63141Y112793D01*
X63749Y113584D01*
X64130Y114506D01*
X64260Y115495D01*
X64130Y116483D01*
X63749Y117404D01*
X63141Y118196D01*
X62350Y118803D01*
X61429Y119184D01*
X60440Y119315D01*
D02*
G37*
G36*
X54409Y114995D02*
X50940D01*
Y111526D01*
X51484Y111597D01*
X52457Y112001D01*
X53293Y112642D01*
X53934Y113477D01*
X54337Y114450D01*
X54409Y114995D01*
D02*
G37*
G36*
X49940D02*
X46472D01*
X46543Y114450D01*
X46946Y113477D01*
X47587Y112642D01*
X48423Y112001D01*
X49396Y111597D01*
X49940Y111526D01*
Y114995D01*
D02*
G37*
G36*
X111700Y120144D02*
X110395Y119972D01*
X109178Y119468D01*
X108134Y118667D01*
X107333Y117622D01*
X106829Y116406D01*
X106657Y115101D01*
X106829Y113795D01*
X107333Y112579D01*
X108134Y111535D01*
X109178Y110733D01*
X110395Y110230D01*
X111700Y110058D01*
X113005Y110230D01*
X114222Y110733D01*
X115266Y111535D01*
X116068Y112579D01*
X116571Y113795D01*
X116743Y115101D01*
X116571Y116406D01*
X116068Y117622D01*
X115266Y118667D01*
X114222Y119468D01*
X113005Y119972D01*
X111700Y120144D01*
D02*
G37*
G36*
X19180D02*
X17875Y119972D01*
X16659Y119468D01*
X15614Y118667D01*
X14813Y117622D01*
X14309Y116406D01*
X14137Y115101D01*
X14309Y113795D01*
X14813Y112579D01*
X15614Y111535D01*
X16659Y110733D01*
X17875Y110230D01*
X19180Y110058D01*
X20486Y110230D01*
X21702Y110733D01*
X22746Y111535D01*
X23548Y112579D01*
X24052Y113795D01*
X24224Y115101D01*
X24052Y116406D01*
X23548Y117622D01*
X22746Y118667D01*
X21702Y119468D01*
X20486Y119972D01*
X19180Y120144D01*
D02*
G37*
G36*
X243176Y51256D02*
X240314D01*
Y45441D01*
X243176D01*
Y51256D01*
D02*
G37*
G36*
X147900D02*
X145038D01*
Y45441D01*
X147900D01*
Y51256D01*
D02*
G37*
G36*
X138058D02*
X135196D01*
Y45441D01*
X138058D01*
Y51256D01*
D02*
G37*
G36*
X233333D02*
X230471D01*
Y45441D01*
X233333D01*
Y51256D01*
D02*
G37*
G36*
X134196D02*
X131333D01*
Y45441D01*
X134196D01*
Y51256D01*
D02*
G37*
G36*
X229471D02*
X226609D01*
Y45441D01*
X229471D01*
Y51256D01*
D02*
G37*
G36*
X239314D02*
X236452D01*
Y45441D01*
X239314D01*
Y51256D01*
D02*
G37*
G36*
X144038D02*
X141176D01*
Y45441D01*
X144038D01*
Y51256D01*
D02*
G37*
G36*
X243176Y44441D02*
X240314D01*
Y38626D01*
X243176D01*
Y44441D01*
D02*
G37*
G36*
X239314D02*
X236452D01*
Y38626D01*
X239314D01*
Y44441D01*
D02*
G37*
G36*
X233333D02*
X230471D01*
Y38626D01*
X233333D01*
Y44441D01*
D02*
G37*
G36*
X229471D02*
X226609D01*
Y38626D01*
X229471D01*
Y44441D01*
D02*
G37*
G36*
X147900D02*
X145038D01*
Y38626D01*
X147900D01*
Y44441D01*
D02*
G37*
G36*
X144038D02*
X141176D01*
Y38626D01*
X144038D01*
Y44441D01*
D02*
G37*
G36*
X138058D02*
X135196D01*
Y38626D01*
X138058D01*
Y44441D01*
D02*
G37*
G36*
X134196D02*
X131333D01*
Y38626D01*
X134196D01*
Y44441D01*
D02*
G37*
G36*
X139627Y36626D02*
X138570Y36487D01*
X137585Y36079D01*
X136739Y35430D01*
X136090Y34584D01*
X135681Y33598D01*
X135542Y32541D01*
X135681Y31484D01*
X136090Y30499D01*
X136739Y29653D01*
X137585Y29004D01*
X138570Y28595D01*
X139627Y28456D01*
X140684Y28595D01*
X141670Y29004D01*
X142516Y29653D01*
X143165Y30499D01*
X143573Y31484D01*
X143712Y32541D01*
X143573Y33598D01*
X143165Y34584D01*
X142516Y35430D01*
X141670Y36079D01*
X140684Y36487D01*
X139627Y36626D01*
D02*
G37*
G36*
X234927Y37534D02*
X233635Y37364D01*
X232431Y36865D01*
X231397Y36072D01*
X230603Y35037D01*
X230105Y33833D01*
X229935Y32541D01*
X230105Y31249D01*
X230603Y30045D01*
X231397Y29011D01*
X232431Y28217D01*
X233635Y27718D01*
X234927Y27548D01*
X236219Y27718D01*
X237424Y28217D01*
X238458Y29011D01*
X239251Y30045D01*
X239750Y31249D01*
X239920Y32541D01*
X239750Y33833D01*
X239251Y35037D01*
X238458Y36072D01*
X237424Y36865D01*
X236219Y37364D01*
X234927Y37534D01*
D02*
G37*
G36*
X238845Y26452D02*
X235393D01*
Y22212D01*
X238845D01*
Y26452D01*
D02*
G37*
G36*
X143570D02*
X140117D01*
Y22212D01*
X143570D01*
Y26452D01*
D02*
G37*
G36*
X234393D02*
X230940D01*
Y22212D01*
X234393D01*
Y26452D01*
D02*
G37*
G36*
X139117D02*
X135664D01*
Y22212D01*
X139117D01*
Y26452D01*
D02*
G37*
G36*
X238845Y21212D02*
X235393D01*
Y16972D01*
X238845D01*
Y21212D01*
D02*
G37*
G36*
X234393D02*
X230940D01*
Y16972D01*
X234393D01*
Y21212D01*
D02*
G37*
G36*
X143570D02*
X140117D01*
Y16972D01*
X143570D01*
Y21212D01*
D02*
G37*
G36*
X139117D02*
X135664D01*
Y16972D01*
X139117D01*
Y21212D01*
D02*
G37*
G36*
X111700Y26443D02*
X110395Y26271D01*
X109178Y25767D01*
X108134Y24966D01*
X107333Y23922D01*
X106829Y22705D01*
X106657Y21400D01*
X106829Y20095D01*
X107333Y18878D01*
X108134Y17834D01*
X109178Y17032D01*
X110395Y16529D01*
X111700Y16357D01*
X113005Y16529D01*
X114222Y17032D01*
X115266Y17834D01*
X116068Y18878D01*
X116571Y20095D01*
X116743Y21400D01*
X116571Y22705D01*
X116068Y23922D01*
X115266Y24966D01*
X114222Y25767D01*
X113005Y26271D01*
X111700Y26443D01*
D02*
G37*
G36*
X19180D02*
X17875Y26271D01*
X16659Y25767D01*
X15614Y24966D01*
X14813Y23922D01*
X14309Y22705D01*
X14137Y21400D01*
X14309Y20095D01*
X14813Y18878D01*
X15614Y17834D01*
X16659Y17032D01*
X17875Y16529D01*
X19180Y16357D01*
X20486Y16529D01*
X21702Y17032D01*
X22746Y17834D01*
X23548Y18878D01*
X24052Y20095D01*
X24224Y21400D01*
X24052Y22705D01*
X23548Y23922D01*
X22746Y24966D01*
X21702Y25767D01*
X20486Y26271D01*
X19180Y26443D01*
D02*
G37*
%LPD*%
G36*
X216382Y338047D02*
X216382Y320157D01*
X214020D01*
Y325668D01*
X214020D01*
Y328106D01*
X210094Y332032D01*
X201354D01*
X197485Y328163D01*
Y320157D01*
X195123D01*
Y325801D01*
X191831Y329093D01*
X189580D01*
X189464Y329140D01*
X188745Y329235D01*
X188025Y329140D01*
X187909Y329093D01*
X186376D01*
X183071Y325787D01*
Y304801D01*
X143132Y264862D01*
X114272D01*
X112500Y266634D01*
Y277242D01*
X113500Y278242D01*
X123013D01*
X124016Y277239D01*
Y271850D01*
X138878D01*
X174606Y307579D01*
Y332776D01*
X177362Y335531D01*
X188406D01*
X188745Y335487D01*
X189084Y335531D01*
X190059D01*
X196428Y341900D01*
X212529D01*
X216382Y338047D01*
D02*
G37*
G36*
X203350Y304459D02*
X203350Y299754D01*
X201092D01*
X200895Y299557D01*
X199601D01*
Y298263D01*
X199162Y297824D01*
X196246D01*
X195866Y298203D01*
X195866Y307583D01*
X200226D01*
X203350Y304459D01*
D02*
G37*
G36*
X54010Y279881D02*
X46609D01*
X46128Y280362D01*
Y283708D01*
X46237Y283818D01*
X54010D01*
Y279881D01*
D02*
G37*
%LPC*%
G36*
X118443Y233353D02*
X108994D01*
Y228235D01*
Y223235D01*
Y218235D01*
Y213235D01*
Y208235D01*
Y203235D01*
Y198235D01*
Y193235D01*
Y188566D01*
X108782D01*
Y186294D01*
X113719D01*
X118656D01*
Y188566D01*
X118443D01*
Y193235D01*
Y198235D01*
Y203235D01*
Y208235D01*
Y213235D01*
Y218235D01*
Y223235D01*
Y228235D01*
Y233353D01*
D02*
G37*
G36*
X118656Y185294D02*
X114219D01*
Y183022D01*
X118656D01*
Y185294D01*
D02*
G37*
G36*
X113219D02*
X108782D01*
Y183022D01*
X113219D01*
Y185294D01*
D02*
G37*
%LPD*%
D10*
X188091Y309350D02*
X195994Y317254D01*
X188091Y299506D02*
X191190Y296407D01*
X188091Y299506D02*
Y309350D01*
X195994Y317254D02*
Y322210D01*
X191190Y296407D02*
X197879D01*
X195994Y322210D02*
X196304Y322519D01*
X128490Y275486D02*
X134661D01*
X154314Y328917D02*
X154412D01*
X31261Y332479D02*
X37061D01*
X89747Y174864D02*
Y182457D01*
Y174864D02*
X89782Y174830D01*
X95850Y180335D02*
Y181100D01*
X214408Y245883D02*
X214526Y245765D01*
Y238011D02*
Y245765D01*
X214351Y237836D02*
X214526Y238011D01*
X94782Y174830D02*
Y179267D01*
X95850Y180335D01*
X25632Y332479D02*
X31261D01*
D11*
X214705Y286029D02*
X222861D01*
Y289576D01*
X217422Y292470D02*
X218681Y293729D01*
X213627Y292470D02*
X217422D01*
X213627Y290501D02*
X217489D01*
X218561Y289429D01*
X213627Y287107D02*
X214705Y286029D01*
X213627Y287107D02*
Y288533D01*
X216705Y296407D02*
X216727Y296429D01*
X213627Y296407D02*
X216705D01*
D12*
X204768Y322519D02*
Y326168D01*
X205700Y327100D01*
X207742D02*
X208705Y326137D01*
Y322519D02*
Y326137D01*
X205700Y327100D02*
X207742D01*
X203763Y317937D02*
X205805D01*
X202800Y318900D02*
Y322519D01*
Y318900D02*
X203763Y317937D01*
X205805D02*
X206737Y318869D01*
Y322519D01*
X208705Y327091D02*
Y328095D01*
Y322519D02*
Y327091D01*
X208696Y327100D02*
X208705Y327091D01*
X202800Y322519D02*
Y328349D01*
X207200Y329600D02*
X208705Y328095D01*
X204858Y302665D02*
Y303371D01*
X204832Y303397D02*
Y305482D01*
X206675Y301389D02*
Y302635D01*
X206645Y302665D02*
Y304111D01*
X206619Y304138D02*
Y305482D01*
X204828Y301389D02*
Y302635D01*
X204150Y306163D02*
Y306500D01*
Y306163D02*
X204832Y305482D01*
X206619Y304138D02*
X206645Y304111D01*
X207300Y306163D02*
Y306500D01*
X204832Y303397D02*
X204858Y303371D01*
X204828Y302635D02*
X204858Y302665D01*
X204768Y301329D02*
X204828Y301389D01*
X206645Y302665D02*
X206675Y302635D01*
X206619Y305482D02*
X207300Y306163D01*
X206675Y301389D02*
X206735Y301329D01*
X202800Y328349D02*
X204050Y329600D01*
D54*
X225600Y305167D02*
G03*
X222861Y302429I0J-2739D01*
G01*
Y283629D02*
G03*
X226574Y279916I3713J0D01*
G01*
X118345Y238227D02*
Y246419D01*
X86910Y249508D02*
X115256D01*
X118345Y246419D01*
X103740Y235433D02*
X115551D01*
X118345Y238227D01*
X100689Y232382D02*
X103740Y235433D01*
X100689Y205906D02*
Y232382D01*
X83858Y189075D02*
X100689Y205906D01*
X64782Y179939D02*
X73917Y189075D01*
X83858D01*
X64782Y174830D02*
Y179939D01*
X34881Y292678D02*
X41634Y285925D01*
Y232789D02*
Y285925D01*
X26332Y292678D02*
X34881D01*
X41634Y232789D02*
X54782Y219641D01*
Y174830D02*
Y219641D01*
X85261Y252829D02*
Y256594D01*
X85261Y252829D02*
Y258829D01*
X85261Y251156D02*
Y252829D01*
Y251156D02*
X86910Y249508D01*
X243144Y301408D02*
X249977D01*
X109782Y241759D02*
X115625D01*
X115687Y241697D01*
X161713Y323031D02*
X177341D01*
X159689Y325055D02*
Y328917D01*
Y325055D02*
X161713Y323031D01*
X154314Y341917D02*
X159689D01*
X154314Y315917D02*
X159689D01*
X243252Y283676D02*
X249977D01*
X69880Y149903D02*
X78130D01*
X78156Y149929D01*
X85261Y252829D02*
X85261Y252829D01*
X54782Y158029D02*
Y174830D01*
X65561Y157982D02*
X65608Y158029D01*
X65561Y150289D02*
Y157982D01*
X69784Y233760D02*
Y241757D01*
X222861Y283629D02*
Y286029D01*
Y289576D01*
X54782Y233013D02*
X54823Y232972D01*
X54782Y233013D02*
Y241759D01*
X65561Y126129D02*
Y133769D01*
X69782Y241759D02*
X69784Y241757D01*
X73147Y146753D02*
X75571Y144329D01*
X69880Y146753D02*
X73147D01*
X75571Y144329D02*
X79108D01*
X49782Y170518D02*
Y174829D01*
X54753Y158000D02*
X54782Y158029D01*
X49782Y174829D02*
X49782Y174830D01*
X231001Y287436D02*
X235968D01*
X226574Y279916D02*
X235968D01*
X231027Y297648D02*
X235861D01*
X225600Y305167D02*
X235861D01*
X230042Y296663D02*
X231027Y297648D01*
X222861Y295481D02*
Y302429D01*
X228861Y295481D02*
X228959D01*
X230042Y296564D01*
Y296663D01*
X228861Y289576D02*
X228959D01*
X230042Y288395D02*
Y288493D01*
Y288395D02*
X231001Y287436D01*
X228959Y289576D02*
X230042Y288493D01*
D55*
X71467Y126129D02*
D03*
X65561D02*
D03*
X84014Y144329D02*
D03*
X78108D02*
D03*
X84061Y149929D02*
D03*
X78156D02*
D03*
X71467Y158029D02*
D03*
X65561D02*
D03*
X148408Y341917D02*
D03*
X154314D02*
D03*
Y328917D02*
D03*
X148408D02*
D03*
X154314Y315917D02*
D03*
X148408D02*
D03*
X91167Y252829D02*
D03*
X85261D02*
D03*
X85261Y258829D02*
D03*
X91167D02*
D03*
X49531Y265864D02*
D03*
X55436D02*
D03*
X49531Y271264D02*
D03*
X55436D02*
D03*
X61344Y292929D02*
D03*
X67249D02*
D03*
D56*
X52461Y134155D02*
D03*
Y140060D02*
D03*
X31261Y315283D02*
D03*
Y309378D02*
D03*
Y338385D02*
D03*
Y332479D02*
D03*
X52461Y143997D02*
D03*
Y149903D02*
D03*
X66796Y281929D02*
D03*
Y287834D02*
D03*
X140961Y305776D02*
D03*
Y311682D02*
D03*
X115061Y275486D02*
D03*
Y281392D02*
D03*
X48096Y282035D02*
D03*
Y287941D02*
D03*
D57*
X54753Y158000D02*
D03*
X48847D02*
D03*
X49782Y166093D02*
D03*
X43876D02*
D03*
X191634Y305610D02*
D03*
X197539D02*
D03*
X127801Y293429D02*
D03*
X121895D02*
D03*
D58*
X81396Y211444D02*
D03*
X74309D02*
D03*
X67223D02*
D03*
X81396Y204357D02*
D03*
X74309D02*
D03*
X67223D02*
D03*
X81396Y197271D02*
D03*
X74309D02*
D03*
X67223D02*
D03*
D59*
X44782Y241759D02*
D03*
X49782D02*
D03*
X54782D02*
D03*
X59782D02*
D03*
X64782D02*
D03*
X69782D02*
D03*
X74782D02*
D03*
X79782D02*
D03*
X84782D02*
D03*
X89782D02*
D03*
X94782D02*
D03*
X99782D02*
D03*
X104782D02*
D03*
X109782D02*
D03*
Y174830D02*
D03*
X104782D02*
D03*
X99782D02*
D03*
X94782D02*
D03*
X89782D02*
D03*
X84782D02*
D03*
X79782D02*
D03*
X74782D02*
D03*
X69782D02*
D03*
X64782D02*
D03*
X59782D02*
D03*
X54782D02*
D03*
X49782D02*
D03*
X44782D02*
D03*
D60*
X113719Y230794D02*
D03*
Y225794D02*
D03*
Y220794D02*
D03*
Y215794D02*
D03*
Y210794D02*
D03*
Y205794D02*
D03*
Y200794D02*
D03*
Y195794D02*
D03*
Y190794D02*
D03*
Y185794D02*
D03*
D61*
X195510Y245883D02*
D03*
X179762D02*
D03*
X167164D02*
D03*
X173463D02*
D03*
X192360D02*
D03*
X186061D02*
D03*
X182912D02*
D03*
X189211D02*
D03*
X170313D02*
D03*
X176612D02*
D03*
X164014D02*
D03*
X231730Y213600D02*
D03*
X228581D02*
D03*
X225431D02*
D03*
X219132D02*
D03*
X212833D02*
D03*
X209683D02*
D03*
X222282D02*
D03*
X215982D02*
D03*
X211258Y245883D02*
D03*
X214408D02*
D03*
X220707D02*
D03*
X230156D02*
D03*
X223856D02*
D03*
X217557D02*
D03*
X233305D02*
D03*
X227006D02*
D03*
X143542Y213600D02*
D03*
X146691D02*
D03*
X156140D02*
D03*
X162439D02*
D03*
X140392D02*
D03*
X159290D02*
D03*
X152990D02*
D03*
X165589D02*
D03*
X149841D02*
D03*
X154565Y245883D02*
D03*
X145116D02*
D03*
X148266D02*
D03*
X160864D02*
D03*
X157715D02*
D03*
X151416D02*
D03*
X141967D02*
D03*
X168738Y213600D02*
D03*
X190786D02*
D03*
X187636D02*
D03*
X184486D02*
D03*
X193935D02*
D03*
X175038D02*
D03*
X171888D02*
D03*
X181337D02*
D03*
X178187D02*
D03*
D62*
X244230Y243521D02*
D03*
X129467D02*
D03*
D63*
X210672Y301329D02*
D03*
X208705D02*
D03*
X206735D02*
D03*
X204768D02*
D03*
X202799D02*
D03*
X200831D02*
D03*
Y285581D02*
D03*
X202799D02*
D03*
X204768D02*
D03*
X206735D02*
D03*
X208705D02*
D03*
X210642D02*
D03*
D64*
X197879Y298375D02*
D03*
X197879Y296407D02*
D03*
X197879Y294438D02*
D03*
X197879Y292470D02*
D03*
X197879Y290501D02*
D03*
X197879Y288533D02*
D03*
X213627D02*
D03*
X213627Y290501D02*
D03*
X213627Y292470D02*
D03*
X213627Y294438D02*
D03*
X213627Y296407D02*
D03*
X213627Y298375D02*
D03*
D65*
X205704Y293455D02*
D03*
D66*
X167170Y315917D02*
D03*
X159689D02*
D03*
X167170Y328917D02*
D03*
X159689D02*
D03*
Y341917D02*
D03*
X167170D02*
D03*
D67*
X61097Y280570D02*
D03*
Y283129D02*
D03*
Y285688D02*
D03*
X52829D02*
D03*
Y283129D02*
D03*
Y280570D02*
D03*
D68*
X56963Y283129D02*
D03*
D69*
X37061Y315382D02*
D03*
Y309476D02*
D03*
Y338385D02*
D03*
Y332479D02*
D03*
X76895Y265865D02*
D03*
Y271770D02*
D03*
X222861Y289576D02*
D03*
Y295481D02*
D03*
X249977Y301408D02*
D03*
Y295502D02*
D03*
X228861Y295481D02*
D03*
Y289576D02*
D03*
X249977Y283676D02*
D03*
Y289581D02*
D03*
X134661Y281392D02*
D03*
Y275486D02*
D03*
D70*
X61242Y149903D02*
D03*
Y146753D02*
D03*
Y143604D02*
D03*
Y140454D02*
D03*
Y137304D02*
D03*
Y134155D02*
D03*
X69880D02*
D03*
Y137304D02*
D03*
Y140454D02*
D03*
Y143604D02*
D03*
Y146753D02*
D03*
Y149903D02*
D03*
D71*
X65561Y133769D02*
D03*
Y150289D02*
D03*
D72*
X234893Y21712D02*
D03*
X139617D02*
D03*
D73*
X239814Y44941D02*
D03*
X229971D02*
D03*
X134696D02*
D03*
X144538D02*
D03*
D74*
X193154Y322519D02*
D03*
X196304D02*
D03*
X215201D02*
D03*
X218351D02*
D03*
D75*
X198863D02*
D03*
X200831D02*
D03*
X202800D02*
D03*
X204768D02*
D03*
X206737D02*
D03*
X208705D02*
D03*
X210674D02*
D03*
X212642D02*
D03*
D76*
X128490Y275486D02*
D03*
X121010D02*
D03*
Y285329D02*
D03*
X124750D02*
D03*
X128490D02*
D03*
X140881Y299871D02*
D03*
X148361D02*
D03*
Y290029D02*
D03*
X144621D02*
D03*
X140881D02*
D03*
D77*
X74597Y281150D02*
D03*
Y292962D02*
D03*
D78*
X91764Y286869D02*
D03*
X83496Y283109D02*
D03*
Y290629D02*
D03*
Y272489D02*
D03*
Y264969D02*
D03*
X91764Y268729D02*
D03*
X61831Y272489D02*
D03*
Y264969D02*
D03*
X70098Y268729D02*
D03*
X243144Y301408D02*
D03*
X234877Y297648D02*
D03*
Y305167D02*
D03*
X243252Y283676D02*
D03*
X234984Y279916D02*
D03*
Y287436D02*
D03*
D79*
X25632Y315778D02*
D03*
X9490D02*
D03*
Y309479D02*
D03*
X25632D02*
D03*
Y332479D02*
D03*
X9490D02*
D03*
Y338778D02*
D03*
X25632D02*
D03*
X10190Y292678D02*
D03*
X26332D02*
D03*
Y286379D02*
D03*
X10190D02*
D03*
D80*
X119041Y302129D02*
D03*
X130852D02*
D03*
D81*
X120911Y318412D02*
D03*
X128785D02*
D03*
D82*
X111462Y338885D02*
D03*
X138234D02*
D03*
D83*
X92618Y276083D02*
X96063Y272638D01*
X51181Y276083D02*
X92618D01*
X96063Y257579D02*
Y272638D01*
X49531Y274432D02*
X51181Y276083D01*
X49531Y271264D02*
Y274432D01*
X81857Y167159D02*
X115486D01*
X79782Y169234D02*
Y174830D01*
Y169234D02*
X81857Y167159D01*
X115486D02*
X121652Y173325D01*
Y247443D01*
X117028Y252067D02*
X121652Y247443D01*
X96063Y257579D02*
X101575Y252067D01*
X117028D01*
X52461Y134155D02*
X61242D01*
X249977Y289581D02*
Y295404D01*
Y295502D01*
X144621Y286333D02*
Y327738D01*
X143617Y285329D02*
X144621Y286333D01*
X128490Y285329D02*
X143617D01*
X144621Y327738D02*
X145800Y328917D01*
X148408D01*
X64764Y241777D02*
Y249508D01*
Y241777D02*
X64782Y241759D01*
X59646Y241895D02*
Y249508D01*
Y241895D02*
X59782Y241759D01*
X51773Y134843D02*
X52461Y134155D01*
Y149903D02*
X61242D01*
X99782Y174830D02*
Y179357D01*
X99000Y180139D02*
X99782Y179357D01*
X99000Y180139D02*
Y181100D01*
X217557Y237957D02*
Y245883D01*
X217500Y237900D02*
X217557Y237957D01*
X20400Y317657D02*
Y336800D01*
X22278Y315778D02*
X25632D01*
X20400Y317657D02*
X22278Y315778D01*
X20400Y336800D02*
X22378Y338778D01*
X25632D01*
X91764Y259426D02*
Y268729D01*
X91167Y258829D02*
X91764Y259426D01*
X76895Y265865D02*
X77791Y264969D01*
X83496D01*
X77613Y272489D02*
X83496D01*
X76895Y271770D02*
X77613Y272489D01*
X71100Y271800D02*
X76865D01*
X76895Y271770D01*
X70098Y268729D02*
Y270798D01*
X71100Y271800D01*
X55436Y271307D02*
X56617Y272489D01*
X61831D01*
X55436Y265864D02*
Y271307D01*
X49782Y166093D02*
Y170518D01*
X156100Y207200D02*
X156140Y207240D01*
Y213600D01*
X74700Y174900D02*
X74712D01*
X74782Y174830D01*
X25632Y309479D02*
X36759D01*
X25661Y309508D02*
Y309529D01*
X25632Y309479D02*
X25661Y309508D01*
X36759Y309479D02*
X36861Y309378D01*
X84782Y174830D02*
Y182608D01*
X148361Y299871D02*
X148408D01*
Y315917D01*
D84*
X93965Y129891D02*
Y146902D01*
X90204Y126129D02*
X93965Y129891D01*
X90939Y149929D02*
X93965Y146902D01*
X84159Y149929D02*
X90939D01*
X71467Y126129D02*
X90204D01*
X140881Y299871D02*
Y305696D01*
X84159Y149929D02*
Y155112D01*
X81243Y158029D02*
X84159Y155112D01*
X71467Y158029D02*
X81243D01*
X140551Y222441D02*
X145669Y227559D01*
X140551Y213759D02*
Y222441D01*
X184486Y213600D02*
Y223191D01*
X145669Y227559D02*
X157893D01*
X180118D02*
X184486Y223191D01*
Y205376D02*
Y213600D01*
X189075Y200787D02*
X228445D01*
X184486Y205376D02*
X189075Y200787D01*
X228445D02*
X231730Y204073D01*
Y213600D01*
X161003Y227559D02*
X180118D01*
X157893D02*
X161003D01*
X160864Y227698D02*
X161003Y227559D01*
X160864Y227698D02*
Y244291D01*
X157715Y227738D02*
X157893Y227559D01*
X157715Y227738D02*
Y244291D01*
X140392Y213600D02*
X140551Y213759D01*
D85*
X74360Y204429D02*
D03*
D86*
X236061Y229742D02*
D03*
D87*
X137636Y229742D02*
D03*
D88*
X111700Y21400D02*
D03*
X19180D02*
D03*
X111700Y115101D02*
D03*
X19180D02*
D03*
X80440Y115707D02*
D03*
X70440Y115495D02*
D03*
X60440D02*
D03*
X50440D02*
D03*
D89*
X53861Y303893D02*
D03*
X72759D02*
D03*
X91656D02*
D03*
D90*
X46578Y340114D02*
D03*
X98940D02*
D03*
D91*
X139617Y32539D02*
D03*
D92*
X234893D02*
D03*
D93*
X188745Y340629D02*
D03*
X222761D02*
D03*
D94*
X222761Y324881D02*
D03*
X188745D02*
D03*
D95*
X112500Y298031D02*
D03*
X115061Y281392D02*
D03*
X209055Y289764D02*
D03*
Y292815D02*
D03*
X205512Y289764D02*
D03*
Y292815D02*
D03*
X202165Y289764D02*
D03*
Y292815D02*
D03*
X209055Y295669D02*
D03*
X205512D02*
D03*
X202165D02*
D03*
X252476Y326457D02*
D03*
X242634Y306772D02*
D03*
Y267402D02*
D03*
Y228031D02*
D03*
Y188661D02*
D03*
X252476Y168976D02*
D03*
X242634Y149291D02*
D03*
X252476Y129606D02*
D03*
X242634Y109921D02*
D03*
X252476Y90236D02*
D03*
X242634Y70551D02*
D03*
X252476Y50866D02*
D03*
X242634Y31181D02*
D03*
X232791Y326457D02*
D03*
X222949Y267402D02*
D03*
Y228031D02*
D03*
Y188661D02*
D03*
X232791Y168976D02*
D03*
X222949Y149291D02*
D03*
X232791Y129606D02*
D03*
X222949Y109921D02*
D03*
X232791Y90236D02*
D03*
X222949Y70551D02*
D03*
Y31181D02*
D03*
X203264Y267402D02*
D03*
Y228031D02*
D03*
Y188661D02*
D03*
Y149291D02*
D03*
X213106Y129606D02*
D03*
X203264Y109921D02*
D03*
X213106Y90236D02*
D03*
X203264Y70551D02*
D03*
X213106Y50866D02*
D03*
X203264Y31181D02*
D03*
X193421Y287087D02*
D03*
X183579Y267402D02*
D03*
Y188661D02*
D03*
X193421Y168976D02*
D03*
Y129606D02*
D03*
X183579Y109921D02*
D03*
X193421Y90236D02*
D03*
X183579Y70551D02*
D03*
X193421Y50866D02*
D03*
X183579Y31181D02*
D03*
X163894Y306772D02*
D03*
X173736Y287087D02*
D03*
X163894Y188661D02*
D03*
X173736Y168976D02*
D03*
Y129606D02*
D03*
X163894Y109921D02*
D03*
X173736Y90236D02*
D03*
X163894Y70551D02*
D03*
X173736Y50866D02*
D03*
X163894Y31181D02*
D03*
X144209Y188661D02*
D03*
X154051Y168976D02*
D03*
Y129606D02*
D03*
X144209Y109921D02*
D03*
X154051Y90236D02*
D03*
X144209Y70551D02*
D03*
X154051Y50866D02*
D03*
X124524Y228031D02*
D03*
X134366Y208347D02*
D03*
X124524Y188661D02*
D03*
X134366Y168976D02*
D03*
Y129606D02*
D03*
X124524Y109921D02*
D03*
X134366Y90236D02*
D03*
X124524Y70551D02*
D03*
Y31181D02*
D03*
X104839Y228031D02*
D03*
Y188661D02*
D03*
X114681Y129606D02*
D03*
X104839Y109921D02*
D03*
X114681Y90236D02*
D03*
X104839Y70551D02*
D03*
X114681Y50866D02*
D03*
X104839Y31181D02*
D03*
X94996Y208347D02*
D03*
Y90236D02*
D03*
X85154Y70551D02*
D03*
X94996Y50866D02*
D03*
X85154Y31181D02*
D03*
X75311Y287087D02*
D03*
X65469Y228031D02*
D03*
X75311Y129606D02*
D03*
Y90236D02*
D03*
X65469Y70551D02*
D03*
X75311Y50866D02*
D03*
X65469Y31181D02*
D03*
X55626Y326457D02*
D03*
Y247717D02*
D03*
X45783Y188661D02*
D03*
Y149291D02*
D03*
X55626Y129606D02*
D03*
X45783Y109921D02*
D03*
X55626Y90236D02*
D03*
X45783Y70551D02*
D03*
X55626Y50866D02*
D03*
X45783Y31181D02*
D03*
X35941Y287087D02*
D03*
X26098Y267402D02*
D03*
Y149291D02*
D03*
X35941Y129606D02*
D03*
X26098Y109921D02*
D03*
X35941Y90236D02*
D03*
X26098Y70551D02*
D03*
X35941Y50866D02*
D03*
X26098Y31181D02*
D03*
X16256Y326457D02*
D03*
X6413Y267402D02*
D03*
Y149291D02*
D03*
X16256Y129606D02*
D03*
X6413Y109921D02*
D03*
X16256Y90236D02*
D03*
X6413Y70551D02*
D03*
X16256Y50866D02*
D03*
X6413Y31181D02*
D03*
X243144Y301408D02*
D03*
X115687Y241697D02*
D03*
X140957Y305704D02*
D03*
X50607Y282271D02*
D03*
X84159Y149929D02*
D03*
X249977Y295404D02*
D03*
X243252Y283676D02*
D03*
X197473Y305590D02*
D03*
X148455Y341943D02*
D03*
X48096Y282232D02*
D03*
X65561Y157930D02*
D03*
X78156Y149929D02*
D03*
X25632Y338778D02*
D03*
X167170Y328917D02*
D03*
X154412D02*
D03*
X59646Y249508D02*
D03*
X64764D02*
D03*
X37061Y332479D02*
D03*
X89747Y182608D02*
D03*
X49782Y166093D02*
D03*
X52461Y133958D02*
D03*
Y149903D02*
D03*
X54823Y232972D02*
D03*
X69784D02*
D03*
X217500Y237900D02*
D03*
X99000Y181100D02*
D03*
X95850D02*
D03*
X214351Y237836D02*
D03*
X91764Y286869D02*
D03*
X83496Y264969D02*
D03*
X156100Y207200D02*
D03*
X74700Y174900D02*
D03*
X218561Y289429D02*
D03*
X218681Y293729D02*
D03*
X207300Y306500D02*
D03*
X204150D02*
D03*
X207200Y329600D02*
D03*
X204050D02*
D03*
X84782Y182608D02*
D03*
X25661Y309529D02*
D03*
X228861Y295481D02*
D03*
X216727Y296429D02*
D03*
X26332Y292678D02*
D03*
D96*
X78309Y293450D02*
D03*
X84257D02*
D03*
X81283D02*
D03*
X121010Y272360D02*
D03*
X118035D02*
D03*
Y275486D02*
D03*
X115061Y272360D02*
D03*
X121010Y275486D02*
D03*
X115061D02*
D03*
M02*
