M48
;Layer_Color=9474304
;FILE_FORMAT=2:4
INCH,LZ
;TYPE=PLATED
T1F00S00C0.0118
T3F00S00C0.0339
T4F00S00C0.0350
T5F00S00C0.0429
T6F00S00C0.0866
T7F00S00C0.1181
;TYPE=NON_PLATED
T8F00S00C0.0413
T9F00S00C0.0440
T10F00S00C0.0610
T11F00S00C0.0640
%
T01
X003071Y000669
Y00126
X00185Y002795
X001575Y00315
X001888Y003519
X003661Y005039
Y005748
Y008189
Y008898
X003465Y010276
Y011204
X00262Y013522
Y01549
X000651
Y013522
X004588
X006557
X008525
X008386Y013071
X008622Y012323
X009291Y011693
X007642Y011398
X006969Y011575
X006557Y011553
X004588
X004961Y009843
X005217Y008898
X005925
Y008189
X005217
X004439
Y008898
X006404Y009557
X00734Y008928
X007953Y008858
Y008228
X008228Y007756
X007293Y00813
X007126Y006732
X00748
X007874
X008169Y00626
Y005925
X008543Y005906
Y005551
Y005197
Y004843
Y004488
X008169Y004478
Y004055
Y003622
X007815
X00748
X007126
X006732
Y003937
X006752Y004262
X00625Y004331
X005945Y005039
Y005748
X005217
Y005039
X004439
Y005748
X005945Y006575
Y007362
X007205Y005197
X009449Y005906
X010197Y006772
X010494Y007616
X009744Y007677
X012008Y00748
X012462Y007616
X01172Y008841
X012677Y009799
X012898Y010076
X013504Y009094
X014508Y008496
X014252Y010591
X016399Y011553
X018368
Y013522
Y01549
X016399
Y013522
X014431
Y01549
X012462Y013522
X010494Y01549
X008525
X006557
X004588
X008309Y009154
X008622Y00937
X010827Y00563
X01051Y004803
X010127Y004092
X010433Y00374
X0096Y003051
X009134Y00315
X011398Y002249
Y001613
X012244Y00162
X013583Y001339
X014431Y001711
X016399
X016181Y004016
X015236
X014431Y003679
X012462
X011929Y004724
X015236Y005236
Y005748
X01622Y005236
X018386
X019331
X017874Y005748
X017913Y007244
Y008465
X019173Y007244
X018386Y004016
X006693Y00189
X006378Y00126
X005827
X005315
X004588Y001711
X004173Y003525
X020591Y004016
X020906
Y005236
X020591
X019646
X02185
X022305Y005648
X022283Y00374
X021378Y002677
X020787
X020236Y002638
X019975Y002087
X020236Y001496
X020787
X021378
X021598Y002071
X022305Y001711
X024273Y003679
Y007616
X024094Y00878
X024273Y009585
Y011553
Y013522
Y01549
X022305
Y013522
Y011553
X020336
X02Y010827
X019724Y00878
X020433Y008465
X021378
Y007244
X020433
X022953
X020336Y013522
Y01549
Y017459
X022305
X024273
Y019427
Y021396
Y023364
X022305
Y021396
Y019427
X020336
Y021396
Y025333
Y027301
X024273
X024592Y031336
X024606Y031732
Y032087
X024277Y032217
X022008Y031989
X021457Y031575
X020709Y031417
X019449
X018368Y031238
X018465Y029685
X018368Y02927
X017362Y029685
X01685Y030354
X016399Y02927
Y027301
X018368
Y025333
X016399
X014803Y024764
Y023307
X014449Y021378
X016399Y021396
X017753Y020393
X018045Y020669
X017441Y020079
X017262Y019661
X018368Y019427
Y017459
X016399
X014431Y019427
X012462Y017459
X010494
Y019427
X008525
Y021396
X008465Y023031
X009213Y023228
X009646
Y024213
X010945Y024685
X011535Y024331
X011339Y02375
X011575Y025787
X012111Y025286
X012462Y025333
Y027301
X014431
Y02927
X010494
Y031238
X012244Y031102
X008525Y031238
Y02927
Y027301
X010494
X010138Y026772
X006557Y025333
X005175Y025
X004585
X004055
X004034Y023819
X004588Y023364
X005175Y023819
X005432Y024409
X006557Y023364
Y019427
X005709Y01867
X004724Y019685
X004588Y021396
Y017459
X008525
X004588Y027301
Y02927
Y031238
X006557
X00626Y029744
X016748Y03227
X00262Y031238
Y02927
Y027301
Y025333
Y023364
X00374Y024409
X00262Y019427
Y017459
X000651
Y019427
Y021396
Y031238
X006557Y033207
X008525
X010925Y034055
X013661
X017362Y033898
X02063Y034239
X021047
X022087Y034055
X021811Y033258
X022783Y033199
X023006Y032921
X023518Y032875
X024405Y033258
X024333Y0344
X023164Y034283
X02063Y033031
T03
X021831Y02874
Y029528
T04
X005057Y020932
X006057
X007057
X008057Y020953
T05
X007283Y028118
Y030118
Y032118
X01063Y032118
Y030118
Y028118
X015748
Y030118
Y032118
X019094Y032118
Y030118
Y029118
Y028118
T06
X024409Y001181
X001181
X024409Y029528
X013189
X001181
T07
X001931Y011522
X011183
Y020893
X001931
T08
X02335Y025984
T09
X023543Y00626
T10
X013822Y025984
T11
X013701Y00626
M30
