G04*
G04 #@! TF.GenerationSoftware,Altium Limited,Altium Designer,21.0.9 (235)*
G04*
G04 Layer_Physical_Order=1*
G04 Layer_Color=255*
%FSLAX24Y24*%
%MOIN*%
G70*
G04*
G04 #@! TF.SameCoordinates,6C9EA5C6-EB33-49EF-A4A3-CBEC368A9CDE*
G04*
G04*
G04 #@! TF.FilePolarity,Positive*
G04*
G01*
G75*
%ADD10C,0.0079*%
%ADD11C,0.0098*%
%ADD12C,0.0118*%
%ADD17R,0.0250X0.0830*%
%ADD18R,0.0960X0.1320*%
%ADD19R,0.0433X0.0571*%
%ADD20R,0.0571X0.0433*%
%ADD21R,0.0441X0.0488*%
%ADD22R,0.0472X0.1063*%
%ADD23R,0.0591X0.0748*%
%ADD24R,0.0394X0.0335*%
%ADD25R,0.0492X0.0236*%
%ADD26R,0.0335X0.0394*%
%ADD27R,0.1320X0.0750*%
%ADD28R,0.0236X0.0492*%
%ADD29R,0.0157X0.0315*%
%ADD30R,0.0315X0.0157*%
%ADD31R,0.0571X0.0571*%
%ADD32R,0.0276X0.0276*%
%ADD33R,0.0374X0.0354*%
%ADD34R,0.0354X0.0374*%
%ADD35R,0.0236X0.0551*%
%ADD36R,0.0512X0.0472*%
%ADD37R,0.1063X0.1063*%
%ADD38O,0.0315X0.0110*%
%ADD39O,0.0110X0.0315*%
%ADD40R,0.0748X0.0433*%
%ADD41R,0.0433X0.0669*%
%ADD42R,0.0256X0.0138*%
%ADD43R,0.0217X0.0451*%
%ADD44R,0.0451X0.0217*%
%ADD84R,0.0236X0.0236*%
%ADD85R,0.1024X0.0551*%
%ADD86C,0.0787*%
%ADD87C,0.0197*%
%ADD88C,0.0138*%
%ADD89C,0.0276*%
%ADD90C,0.0315*%
%ADD91C,0.0591*%
%ADD92C,0.0984*%
%ADD93C,0.0394*%
%ADD94C,0.0640*%
%ADD95C,0.0440*%
%ADD96R,0.0539X0.0539*%
%ADD97C,0.0539*%
%ADD98C,0.0610*%
%ADD99C,0.0413*%
%ADD100C,0.0787*%
%ADD101O,0.0386X0.0772*%
%ADD102O,0.0425X0.0850*%
%ADD103C,0.2087*%
%ADD104C,0.0600*%
%ADD105C,0.1969*%
%ADD106C,0.0276*%
G36*
X18860Y35090D02*
X18913Y35059D01*
X18976Y35031D01*
X19049Y35007D01*
X19131Y34987D01*
X19224Y34970D01*
X19438Y34948D01*
X19560Y34943D01*
X19693Y34941D01*
Y34744D01*
X19560Y34742D01*
X19224Y34715D01*
X19131Y34698D01*
X19049Y34678D01*
X18976Y34654D01*
X18913Y34626D01*
X18860Y34595D01*
X18818Y34560D01*
Y35125D01*
X18860Y35090D01*
D02*
G37*
G36*
X19907Y34454D02*
X19915Y34312D01*
X19918Y34302D01*
X19921Y34296D01*
X19925Y34294D01*
X19691D01*
X19694Y34296D01*
X19698Y34302D01*
X19700Y34312D01*
X19703Y34326D01*
X19705Y34343D01*
X19709Y34420D01*
X19709Y34491D01*
X19906D01*
X19907Y34454D01*
D02*
G37*
G36*
X20434Y34025D02*
X20519Y34029D01*
Y33806D01*
X20513Y33808D01*
X20501Y33811D01*
X20484Y33813D01*
X20434Y33815D01*
Y33751D01*
X20432Y33764D01*
X20426Y33776D01*
X20417Y33786D01*
X20403Y33795D01*
X20385Y33802D01*
X20363Y33808D01*
X20338Y33813D01*
X20308Y33816D01*
X20278Y33818D01*
X20192Y33819D01*
Y34016D01*
X20332Y34021D01*
X20338Y34022D01*
X20363Y34027D01*
X20385Y34033D01*
X20403Y34040D01*
X20417Y34049D01*
X20426Y34059D01*
X20432Y34071D01*
X20434Y34083D01*
Y34025D01*
D02*
G37*
G36*
X19927Y34095D02*
X19933Y34079D01*
X19943Y34064D01*
X19956Y34051D01*
X19974Y34040D01*
X19996Y34032D01*
X20021Y34025D01*
X20051Y34020D01*
X20084Y34017D01*
X20122Y34016D01*
Y33819D01*
X20084Y33818D01*
X20021Y33812D01*
X19996Y33807D01*
X19974Y33800D01*
X19956Y33792D01*
X19943Y33783D01*
X19933Y33772D01*
X19927Y33759D01*
X19925Y33745D01*
Y34114D01*
X19927Y34095D01*
D02*
G37*
G36*
X25216Y35232D02*
X25253Y35225D01*
X25288Y35210D01*
X25320Y35189D01*
X25347Y35162D01*
X25368Y35131D01*
X25382Y35096D01*
X25390Y35058D01*
Y35039D01*
X25390Y394D01*
Y375D01*
X25382Y337D01*
X25368Y302D01*
X25347Y271D01*
X25320Y244D01*
X25288Y223D01*
X25253Y208D01*
X25216Y201D01*
X25197D01*
X3305Y201D01*
X3295Y251D01*
X3309Y257D01*
X3408Y332D01*
X3484Y431D01*
X3531Y546D01*
X3547Y669D01*
Y1260D01*
Y1436D01*
X3956D01*
Y2343D01*
X3102D01*
X3071Y2348D01*
X3040Y2343D01*
X2791D01*
X2681Y2453D01*
Y2833D01*
X2685Y2889D01*
X2707D01*
Y2932D01*
X2712Y2934D01*
X2736Y2938D01*
X2822Y2944D01*
X3467D01*
X3543Y2929D01*
X4632D01*
X4716Y2946D01*
X4788Y2993D01*
X4885Y3090D01*
X5155D01*
X5685Y2560D01*
X5757Y2513D01*
X5841Y2496D01*
X7263D01*
X7868Y1891D01*
X7940Y1843D01*
X8024Y1826D01*
X8833D01*
X8845Y1826D01*
X8868Y1825D01*
Y1811D01*
X8946D01*
X8948Y1811D01*
X8950Y1811D01*
X9318D01*
X9320Y1811D01*
X9321Y1811D01*
X9400D01*
Y1819D01*
X9508Y1826D01*
X9541D01*
X9554Y1826D01*
X9577Y1825D01*
Y1811D01*
X9655D01*
X9657Y1811D01*
X9658Y1811D01*
X10027D01*
X10028Y1811D01*
X10030Y1811D01*
X10068D01*
X10080Y1793D01*
X10517Y1356D01*
X10533Y1337D01*
X10559Y1304D01*
X10582Y1271D01*
X10600Y1239D01*
X10615Y1209D01*
X10626Y1181D01*
X10633Y1154D01*
X10638Y1128D01*
X10640Y1099D01*
X10640Y1098D01*
Y1024D01*
X10716D01*
X10718Y1023D01*
X10719Y1024D01*
X10723D01*
X10724Y1023D01*
X10725Y1024D01*
X11020D01*
X11033Y1021D01*
X11288D01*
X11419Y890D01*
X11464Y859D01*
X11518Y849D01*
X11523Y841D01*
X11508Y776D01*
X11505Y774D01*
X11184D01*
X11177Y775D01*
X11171Y775D01*
Y945D01*
X10640D01*
Y433D01*
X11171D01*
Y491D01*
X11177Y492D01*
X11184Y493D01*
X12088D01*
X12142Y504D01*
X12188Y534D01*
X12255Y602D01*
X12276Y621D01*
X12293Y634D01*
X12303Y642D01*
X12470D01*
Y797D01*
X13019D01*
Y1112D01*
Y1427D01*
Y1742D01*
Y2060D01*
X13094Y2063D01*
X13244D01*
X13260Y2062D01*
X13283Y2058D01*
X13300Y2054D01*
X13311Y2049D01*
X13316Y2046D01*
Y1959D01*
X13847D01*
Y2470D01*
X13397D01*
X13395Y2471D01*
X13394Y2470D01*
X13316D01*
Y2430D01*
X13314Y2430D01*
X13251Y2425D01*
X13019D01*
Y2746D01*
X12857D01*
X12856Y2751D01*
X12856Y2759D01*
Y2805D01*
X12845Y2859D01*
X12815Y2904D01*
X12568Y3151D01*
X12523Y3181D01*
X12469Y3192D01*
X11673D01*
X11409Y3456D01*
X11409Y3456D01*
X11424Y3506D01*
X11772D01*
Y4037D01*
X11509D01*
X11507Y4038D01*
X11505Y4037D01*
X11467D01*
X11456Y4045D01*
X11424Y4072D01*
X11300Y4196D01*
X11255Y4226D01*
X11201Y4237D01*
X11054D01*
Y4345D01*
X11044Y4396D01*
Y4677D01*
X11041Y4691D01*
Y5061D01*
X10648D01*
Y5035D01*
X10598Y5001D01*
X10553Y5020D01*
X10467D01*
X10387Y4987D01*
X10362Y4962D01*
X10357Y4959D01*
X10352Y4954D01*
X10350Y4952D01*
X10347Y4951D01*
X10344Y4949D01*
X10340Y4948D01*
X10335Y4946D01*
X10328Y4945D01*
X10322Y4944D01*
X10231D01*
X10224Y4944D01*
X10218Y4945D01*
Y5061D01*
X9825D01*
Y4411D01*
X10218D01*
Y4661D01*
X10224Y4662D01*
X10231Y4663D01*
X10322D01*
X10328Y4662D01*
X10335Y4660D01*
X10340Y4659D01*
X10344Y4657D01*
X10347Y4655D01*
X10350Y4654D01*
X10352Y4652D01*
X10357Y4648D01*
X10362Y4644D01*
X10387Y4620D01*
X10448Y4594D01*
Y4309D01*
X10459Y4255D01*
X10489Y4210D01*
X10576Y4123D01*
Y3986D01*
X10587Y3932D01*
X10617Y3887D01*
X10669Y3835D01*
X10669Y3506D01*
X10623Y3497D01*
X10243D01*
X10197Y3506D01*
X10197Y3547D01*
Y3839D01*
X10227Y3868D01*
X10257Y3914D01*
X10258Y3916D01*
X10311Y3969D01*
X10344Y4049D01*
Y4135D01*
X10311Y4215D01*
X10250Y4276D01*
X10170Y4309D01*
X10084D01*
X10005Y4276D01*
X9944Y4215D01*
X9911Y4135D01*
Y4049D01*
X9903Y4037D01*
X9685D01*
X9685Y3529D01*
X9646Y3506D01*
X9606Y3529D01*
Y4037D01*
X9412D01*
X9411Y4043D01*
X9410Y4050D01*
Y4399D01*
X9411Y4406D01*
X9412Y4411D01*
X9467D01*
Y4490D01*
X9467Y4491D01*
X9467Y4493D01*
Y5061D01*
X9146D01*
X9125Y5111D01*
X9249Y5235D01*
X9596D01*
X9611Y5238D01*
X9843D01*
Y5888D01*
X9671D01*
X9666Y5891D01*
X9665Y5894D01*
Y5949D01*
X9632Y6028D01*
X9571Y6089D01*
X9492Y6122D01*
X9406D01*
X9326Y6089D01*
X9265Y6028D01*
X9232Y5949D01*
Y5862D01*
X9265Y5783D01*
X9326Y5722D01*
X9406Y5689D01*
X9425D01*
X9426Y5689D01*
X9428Y5688D01*
X9429Y5688D01*
X9431Y5687D01*
X9435Y5685D01*
X9444Y5673D01*
X9449Y5666D01*
Y5541D01*
X9445Y5539D01*
X9431Y5537D01*
X9421Y5536D01*
X9187D01*
X9129Y5525D01*
X9081Y5492D01*
X8850Y5262D01*
X8818Y5213D01*
X8806Y5155D01*
Y3704D01*
X8481Y3379D01*
X6352D01*
X5906Y3824D01*
X5884Y3849D01*
X5868Y3869D01*
X5856Y3885D01*
Y4213D01*
X5641D01*
X5639Y4213D01*
X5637Y4213D01*
X5588D01*
X5572Y4224D01*
X5533Y4257D01*
X5436Y4353D01*
X5455Y4400D01*
X5551Y4400D01*
X5601Y4400D01*
X5866D01*
Y4872D01*
X5551Y4872D01*
X5501Y4872D01*
X5236D01*
Y4872D01*
X5186Y4872D01*
X4656D01*
X4606Y4872D01*
X4556Y4872D01*
X4291D01*
Y4872D01*
X4241Y4872D01*
X3661D01*
Y4872D01*
X3611Y4872D01*
X3346D01*
Y4481D01*
X3346Y4480D01*
X3346Y4478D01*
Y4475D01*
X3346Y4474D01*
X3346Y4473D01*
Y4400D01*
X3363D01*
X3363Y4396D01*
Y4250D01*
X3363Y4243D01*
X3362Y4238D01*
X3278D01*
Y3770D01*
X3278Y3769D01*
X3278Y3768D01*
X3278Y3767D01*
X3278Y3765D01*
Y3687D01*
X3300D01*
X3307Y3579D01*
Y3533D01*
X3301Y3499D01*
X3291Y3469D01*
X3279Y3447D01*
X3264Y3428D01*
X3246Y3414D01*
X3223Y3401D01*
X3194Y3392D01*
X3160Y3385D01*
X2812D01*
X2768Y3388D01*
X2737Y3391D01*
X2712Y3396D01*
X2707Y3397D01*
Y3440D01*
X2628D01*
X2627Y3441D01*
X2625Y3440D01*
X2215D01*
Y2976D01*
X2214Y2975D01*
X2215Y2975D01*
Y2971D01*
X2214Y2969D01*
X2215Y2967D01*
Y2889D01*
X2232D01*
X2240Y2778D01*
Y2362D01*
X2257Y2277D01*
X2305Y2206D01*
X2479Y2031D01*
Y1436D01*
X2594D01*
Y1260D01*
Y669D01*
X2611Y546D01*
X2658Y431D01*
X2734Y332D01*
X2833Y257D01*
X2847Y251D01*
X2837Y201D01*
X375D01*
X337Y208D01*
X302Y223D01*
X271Y244D01*
X244Y271D01*
X223Y302D01*
X208Y337D01*
X201Y375D01*
Y3562D01*
X208Y3600D01*
X223Y3635D01*
X244Y3666D01*
X271Y3693D01*
X302Y3714D01*
X337Y3729D01*
X375Y3736D01*
X1772D01*
X1777Y3737D01*
X1781Y3737D01*
X1820Y3738D01*
X1835Y3742D01*
X1849D01*
X1925Y3757D01*
X1943Y3765D01*
X1963Y3769D01*
X2034Y3798D01*
X2050Y3809D01*
X2069Y3817D01*
X2133Y3859D01*
X2147Y3873D01*
X2163Y3884D01*
X2218Y3939D01*
X2229Y3955D01*
X2243Y3969D01*
X2286Y4034D01*
X2293Y4052D01*
X2304Y4068D01*
X2334Y4140D01*
X2338Y4159D01*
X2345Y4177D01*
X2360Y4253D01*
Y4268D01*
X2364Y4282D01*
X2366Y4321D01*
X2365Y4326D01*
X2366Y4331D01*
Y9647D01*
X2365Y9652D01*
X2366Y9657D01*
X2364Y9694D01*
X2360Y9709D01*
Y9723D01*
X2345Y9799D01*
X2338Y9817D01*
X2334Y9837D01*
X2304Y9908D01*
X2293Y9924D01*
X2286Y9943D01*
X2243Y10007D01*
X2229Y10021D01*
X2218Y10037D01*
X2163Y10092D01*
X2147Y10103D01*
X2133Y10117D01*
X2069Y10160D01*
X2050Y10167D01*
X2034Y10178D01*
X1963Y10208D01*
X1943Y10212D01*
X1925Y10219D01*
X1849Y10234D01*
X1835D01*
X1820Y10238D01*
X1781Y10240D01*
X1777Y10239D01*
X1772Y10240D01*
X375Y10240D01*
X337Y10247D01*
X302Y10262D01*
X271Y10283D01*
X244Y10310D01*
X223Y10342D01*
X208Y10377D01*
X201Y10414D01*
Y10433D01*
X201Y22047D01*
Y22066D01*
X208Y22104D01*
X223Y22139D01*
X244Y22170D01*
X271Y22197D01*
X302Y22218D01*
X337Y22233D01*
X375Y22240D01*
X1772D01*
X1777Y22241D01*
X1781Y22240D01*
X1820Y22242D01*
X1835Y22246D01*
X1849D01*
X1925Y22261D01*
X1943Y22269D01*
X1963Y22272D01*
X2034Y22302D01*
X2050Y22313D01*
X2069Y22321D01*
X2133Y22363D01*
X2147Y22377D01*
X2163Y22388D01*
X2218Y22443D01*
X2229Y22459D01*
X2243Y22473D01*
X2286Y22538D01*
X2293Y22556D01*
X2304Y22572D01*
X2334Y22644D01*
X2338Y22663D01*
X2345Y22681D01*
X2360Y22757D01*
Y22772D01*
X2364Y22786D01*
X2366Y22825D01*
X2365Y22830D01*
X2366Y22835D01*
X2366Y27953D01*
X2365Y27958D01*
X2366Y27963D01*
X2364Y28001D01*
X2360Y28016D01*
Y28031D01*
X2345Y28106D01*
X2338Y28124D01*
X2334Y28144D01*
X2304Y28215D01*
X2293Y28232D01*
X2286Y28250D01*
X2243Y28314D01*
X2229Y28328D01*
X2218Y28344D01*
X2163Y28399D01*
X2147Y28410D01*
X2133Y28424D01*
X2069Y28467D01*
X2050Y28474D01*
X2034Y28485D01*
X1963Y28515D01*
X1943Y28519D01*
X1925Y28526D01*
X1849Y28541D01*
X1835D01*
X1820Y28545D01*
X1781Y28547D01*
X1777Y28546D01*
X1772Y28547D01*
X375Y28547D01*
X337Y28555D01*
X302Y28569D01*
X271Y28590D01*
X244Y28617D01*
X223Y28649D01*
X208Y28684D01*
X201Y28721D01*
Y28740D01*
X201Y32874D01*
Y32893D01*
X208Y32930D01*
X223Y32965D01*
X244Y32997D01*
X271Y33024D01*
X302Y33045D01*
X337Y33060D01*
X375Y33067D01*
X394D01*
X5315Y33067D01*
X5320Y33068D01*
X5325Y33067D01*
X5363Y33069D01*
X5378Y33073D01*
X5393D01*
X5468Y33088D01*
X5487Y33095D01*
X5506Y33099D01*
X5577Y33129D01*
X5594Y33140D01*
X5612Y33147D01*
X5676Y33190D01*
X5690Y33204D01*
X5707Y33215D01*
X5761Y33270D01*
X5772Y33286D01*
X5786Y33300D01*
X5829Y33364D01*
X5837Y33383D01*
X5848Y33399D01*
X5877Y33470D01*
X5881Y33490D01*
X5889Y33508D01*
X5904Y33584D01*
Y33599D01*
X5907Y33613D01*
X5909Y33652D01*
X5908Y33657D01*
X5909Y33661D01*
Y35058D01*
X5917Y35096D01*
X5931Y35131D01*
X5952Y35162D01*
X5979Y35189D01*
X6011Y35210D01*
X6046Y35225D01*
X6083Y35232D01*
X6102D01*
X15385Y35232D01*
X15402Y35185D01*
X15394Y35179D01*
X13762Y33547D01*
X9615D01*
X9491Y33531D01*
X9377Y33484D01*
X9278Y33408D01*
X8817Y32947D01*
X8741Y32848D01*
X8693Y32733D01*
X8677Y32610D01*
Y28051D01*
X8693Y27928D01*
X8741Y27813D01*
X8817Y27714D01*
X8823Y27710D01*
X8834Y27695D01*
X8852Y27660D01*
X8870Y27611D01*
X8887Y27547D01*
X8901Y27472D01*
X8930Y27086D01*
X8911Y27037D01*
X8898D01*
Y27001D01*
X8897Y27001D01*
X8781Y26992D01*
X8441D01*
X8356Y26976D01*
X8285Y26928D01*
X8255Y26898D01*
X7969D01*
Y26252D01*
X8567D01*
Y26489D01*
X8569Y26504D01*
X8570Y26509D01*
X8573Y26514D01*
X8580Y26520D01*
X8592Y26528D01*
X8612Y26536D01*
X8639Y26543D01*
X8674Y26549D01*
X8699Y26551D01*
X8809D01*
X8870Y26546D01*
X8895Y26543D01*
X8898Y26542D01*
Y26506D01*
X8976D01*
X8978Y26506D01*
X9008Y26469D01*
X9011Y26450D01*
X9012Y26434D01*
Y26235D01*
X9011Y26219D01*
X9007Y26196D01*
X9002Y26179D01*
X8998Y26168D01*
X8995Y26163D01*
X8907D01*
Y25770D01*
X9557D01*
Y26163D01*
X9391D01*
X9388Y26168D01*
X9383Y26179D01*
X9379Y26196D01*
X9375Y26219D01*
X9374Y26235D01*
Y26456D01*
X9375Y26483D01*
X9377Y26505D01*
X9377Y26506D01*
X9409D01*
Y26584D01*
X9410Y26586D01*
X9409Y26587D01*
Y26956D01*
X9410Y26957D01*
X9410Y26959D01*
X9410Y26960D01*
X9409Y26961D01*
Y27037D01*
X9383D01*
X9376Y27125D01*
X9377Y27162D01*
X9394Y27381D01*
X9406Y27470D01*
X9420Y27547D01*
X9437Y27611D01*
X9455Y27660D01*
X9473Y27695D01*
X9484Y27710D01*
X9490Y27714D01*
X9566Y27813D01*
X9614Y27928D01*
X9630Y28051D01*
Y32412D01*
X9812Y32594D01*
X10367D01*
X10381Y32544D01*
X10327Y32513D01*
X10235Y32421D01*
X10170Y32309D01*
X10136Y32183D01*
Y32168D01*
X10630D01*
X11124D01*
Y32183D01*
X11090Y32309D01*
X11025Y32421D01*
X10933Y32513D01*
X10879Y32544D01*
X10892Y32594D01*
X12628D01*
Y32539D01*
X13356D01*
Y32594D01*
X13960D01*
X14083Y32611D01*
X14198Y32658D01*
X14297Y32734D01*
X15929Y34366D01*
X18543D01*
X18667Y34382D01*
X18782Y34430D01*
X18880Y34506D01*
X18884Y34511D01*
X18907Y34529D01*
X18950Y34555D01*
X19005Y34579D01*
X19071Y34601D01*
X19148Y34620D01*
X19234Y34635D01*
X19563Y34662D01*
X19618D01*
X19627Y34652D01*
Y34399D01*
X19626Y34374D01*
X19611D01*
Y34296D01*
X19611Y34294D01*
X19611Y34292D01*
Y33665D01*
X19923D01*
X19925Y33665D01*
X19927Y33665D01*
X20005D01*
Y33726D01*
X20015Y33729D01*
X20033Y33733D01*
X20075Y33737D01*
X20293D01*
X20301Y33736D01*
X20326Y33733D01*
X20345Y33730D01*
X20354Y33727D01*
Y33671D01*
X20433D01*
X20434Y33671D01*
X20436Y33671D01*
X20906D01*
Y33998D01*
X21047D01*
X21139Y34017D01*
X21218Y34069D01*
X21270Y34147D01*
X21288Y34239D01*
X21270Y34332D01*
X21218Y34410D01*
X21139Y34462D01*
X21047Y34480D01*
X20630D01*
X20538Y34462D01*
X20460Y34410D01*
X20407Y34332D01*
X20389Y34239D01*
Y34163D01*
X20354D01*
Y34107D01*
X20345Y34105D01*
X20327Y34101D01*
X20326Y34101D01*
X20239Y34098D01*
X20077D01*
X20061Y34099D01*
X20038Y34103D01*
X20021Y34108D01*
X20010Y34112D01*
X20005Y34115D01*
X20005Y34122D01*
Y34292D01*
X20005Y34294D01*
X20005Y34296D01*
Y34374D01*
X19992D01*
X19989Y34428D01*
Y34727D01*
X19975Y34796D01*
X19936Y34855D01*
X19820Y34970D01*
X19762Y35009D01*
X19693Y35023D01*
X19560D01*
X19444Y35028D01*
X19235Y35050D01*
X19148Y35066D01*
X19071Y35084D01*
X19005Y35106D01*
X18950Y35130D01*
X18907Y35156D01*
X18884Y35174D01*
X18880Y35179D01*
X18873Y35185D01*
X18889Y35232D01*
X25197Y35232D01*
X25216D01*
D02*
G37*
G36*
X9405Y27739D02*
X9381Y27693D01*
X9360Y27635D01*
X9342Y27565D01*
X9327Y27483D01*
X9314Y27389D01*
X9297Y27166D01*
X9296Y27122D01*
X9305Y27002D01*
X9310Y26982D01*
X9316Y26968D01*
X9322Y26960D01*
X9330Y26957D01*
X9293D01*
X9291Y26895D01*
X9016D01*
X9015Y26957D01*
X8978D01*
X8985Y26960D01*
X8991Y26968D01*
X8997Y26982D01*
X9002Y27002D01*
X9006Y27026D01*
X9010Y27057D01*
X9011Y27080D01*
X8981Y27483D01*
X8965Y27565D01*
X8947Y27635D01*
X8926Y27693D01*
X8902Y27739D01*
X8875Y27773D01*
X9432D01*
X9405Y27739D01*
D02*
G37*
G36*
X8978Y26586D02*
X8975Y26595D01*
X8967Y26603D01*
X8953Y26610D01*
X8933Y26617D01*
X8909Y26622D01*
X8878Y26626D01*
X8801Y26632D01*
X8737Y26633D01*
X8710Y26632D01*
X8663Y26628D01*
X8622Y26621D01*
X8586Y26612D01*
X8556Y26599D01*
X8531Y26584D01*
X8512Y26566D01*
X8498Y26546D01*
X8490Y26522D01*
X8487Y26496D01*
Y26818D01*
X8490Y26835D01*
X8498Y26851D01*
X8512Y26864D01*
X8531Y26876D01*
X8556Y26887D01*
X8586Y26895D01*
X8622Y26901D01*
X8663Y26906D01*
X8702Y26907D01*
Y26909D01*
X8754Y26910D01*
X8909Y26921D01*
X8933Y26927D01*
X8953Y26933D01*
X8967Y26940D01*
X8975Y26948D01*
X8978Y26957D01*
Y26586D01*
D02*
G37*
G36*
X9330D02*
X9322Y26584D01*
X9316Y26578D01*
X9310Y26568D01*
X9305Y26554D01*
X9301Y26537D01*
X9297Y26515D01*
X9295Y26489D01*
X9292Y26426D01*
X9291Y26389D01*
X9094D01*
X9094Y26427D01*
X9091Y26460D01*
X9086Y26490D01*
X9079Y26516D01*
X9070Y26537D01*
X9059Y26555D01*
X9046Y26569D01*
X9032Y26579D01*
X9015Y26585D01*
X8996Y26587D01*
X9330Y26586D01*
D02*
G37*
G36*
X9292Y26243D02*
X9295Y26209D01*
X9300Y26179D01*
X9307Y26154D01*
X9316Y26132D01*
X9327Y26114D01*
X9340Y26100D01*
X9354Y26090D01*
X9371Y26084D01*
X9390Y26082D01*
X8996D01*
X9015Y26084D01*
X9032Y26090D01*
X9046Y26100D01*
X9059Y26114D01*
X9070Y26132D01*
X9079Y26154D01*
X9086Y26179D01*
X9091Y26209D01*
X9094Y26243D01*
X9094Y26280D01*
X9291D01*
X9292Y26243D01*
D02*
G37*
G36*
X9554Y5881D02*
X9563Y5873D01*
X9586Y5892D01*
X9586Y5884D01*
X9587Y5875D01*
X9589Y5867D01*
X9592Y5858D01*
X9596Y5848D01*
X9601Y5840D01*
X9616Y5827D01*
X9633Y5816D01*
X9648Y5808D01*
X9661Y5803D01*
X9672Y5801D01*
X9682Y5802D01*
X9689Y5807D01*
X9530Y5648D01*
X9534Y5655D01*
X9536Y5664D01*
X9534Y5675D01*
X9529Y5688D01*
X9521Y5703D01*
X9509Y5720D01*
X9494Y5739D01*
X9490Y5745D01*
X9488Y5746D01*
X9478Y5752D01*
X9470Y5758D01*
X9461Y5762D01*
X9453Y5765D01*
X9445Y5767D01*
X9438Y5768D01*
X9455Y5783D01*
X9431Y5808D01*
X9529Y5905D01*
X9554Y5881D01*
D02*
G37*
G36*
X9529Y5318D02*
X9527Y5318D01*
X9523Y5318D01*
X9391Y5317D01*
Y5455D01*
X9417Y5455D01*
X9441Y5457D01*
X9462Y5461D01*
X9480Y5466D01*
X9495Y5472D01*
X9508Y5479D01*
X9517Y5488D01*
X9524Y5499D01*
X9528Y5510D01*
X9530Y5524D01*
X9529Y5318D01*
D02*
G37*
G36*
X10411Y4707D02*
X10404Y4714D01*
X10395Y4720D01*
X10386Y4726D01*
X10376Y4731D01*
X10366Y4735D01*
X10355Y4738D01*
X10343Y4741D01*
X10330Y4743D01*
X10317Y4744D01*
X10303Y4744D01*
Y4862D01*
X10317Y4863D01*
X10330Y4864D01*
X10343Y4866D01*
X10355Y4868D01*
X10366Y4872D01*
X10376Y4876D01*
X10386Y4881D01*
X10395Y4886D01*
X10404Y4893D01*
X10411Y4900D01*
Y4707D01*
D02*
G37*
G36*
X10140Y4910D02*
X10143Y4900D01*
X10149Y4891D01*
X10157Y4883D01*
X10168Y4877D01*
X10181Y4872D01*
X10196Y4868D01*
X10214Y4865D01*
X10234Y4863D01*
X10257Y4862D01*
Y4744D01*
X10234Y4744D01*
X10214Y4742D01*
X10196Y4739D01*
X10181Y4735D01*
X10168Y4729D01*
X10157Y4723D01*
X10149Y4715D01*
X10143Y4706D01*
X10140Y4696D01*
X10139Y4685D01*
Y4921D01*
X10140Y4910D01*
D02*
G37*
G36*
X4976Y4391D02*
X4982Y4382D01*
X5314Y4050D01*
X5336Y4026D01*
X5352Y4006D01*
X5364Y3989D01*
Y3940D01*
X5364Y3938D01*
X5364Y3936D01*
Y3661D01*
X5633D01*
X5648Y3651D01*
X5687Y3618D01*
X6183Y3122D01*
X6232Y3089D01*
X6289Y3078D01*
X8543D01*
X8601Y3089D01*
X8650Y3122D01*
X9044Y3517D01*
X9094Y3506D01*
Y3506D01*
X9226D01*
X9242Y3456D01*
X9241Y3456D01*
X9167Y3382D01*
X9162Y3378D01*
X9157Y3375D01*
X9152Y3372D01*
X9148Y3370D01*
X9144Y3369D01*
X9141Y3368D01*
X9139Y3368D01*
X9132Y3368D01*
X9126Y3366D01*
X9091D01*
X9011Y3333D01*
X8950Y3272D01*
X8917Y3193D01*
Y3107D01*
X8950Y3027D01*
X8975Y3002D01*
X8978Y2997D01*
X8983Y2992D01*
X8985Y2990D01*
X8986Y2987D01*
X8988Y2984D01*
X8989Y2979D01*
X8991Y2974D01*
X8992Y2968D01*
X8993Y2962D01*
Y2926D01*
X8993Y2919D01*
X8992Y2913D01*
X8868D01*
Y2402D01*
X9400D01*
Y2875D01*
X9450Y2896D01*
X9478Y2868D01*
X9490Y2863D01*
Y2860D01*
X9501Y2806D01*
X9531Y2760D01*
X9577Y2715D01*
Y2402D01*
X10108D01*
Y2832D01*
X10109Y2833D01*
X10108Y2835D01*
Y2913D01*
X10108Y2913D01*
X10108D01*
X10136Y2951D01*
X10204Y3019D01*
X11170D01*
X11390Y2799D01*
X11370Y2749D01*
X11194D01*
X11186Y2749D01*
X11181Y2750D01*
Y2904D01*
X10712D01*
X10711Y2904D01*
X10709Y2904D01*
X10630D01*
Y2833D01*
X10630Y2830D01*
X10626Y2822D01*
X10616Y2804D01*
X10600Y2781D01*
X10439Y2599D01*
X10158Y2319D01*
X10108Y2323D01*
Y2323D01*
X10032D01*
X10030Y2323D01*
X10029Y2323D01*
X10028Y2323D01*
X10027Y2323D01*
X9658D01*
X9657Y2323D01*
X9655Y2323D01*
X9577D01*
Y2280D01*
X9571Y2278D01*
X9548Y2274D01*
X9480Y2269D01*
X9461Y2270D01*
X9430Y2274D01*
X9405Y2278D01*
X9400Y2280D01*
Y2323D01*
X9321D01*
X9320Y2323D01*
X9318Y2323D01*
X8950D01*
X8948Y2323D01*
X8946Y2323D01*
X8868D01*
Y2280D01*
X8862Y2278D01*
X8839Y2274D01*
X8752Y2268D01*
X8115D01*
X7511Y2873D01*
X7439Y2921D01*
X7355Y2937D01*
X5933D01*
X5403Y3467D01*
X5331Y3515D01*
X5247Y3532D01*
X5014D01*
Y3655D01*
X5018Y3711D01*
X5039D01*
Y3789D01*
X5040Y3791D01*
X5039Y3792D01*
Y3796D01*
X5039Y3797D01*
X5039Y3797D01*
Y4242D01*
X4528D01*
Y3792D01*
X4527Y3791D01*
X4528Y3789D01*
Y3711D01*
X4564D01*
X4564Y3710D01*
X4573Y3594D01*
Y3402D01*
X4540Y3370D01*
X3749D01*
Y3624D01*
X3752Y3687D01*
X3770D01*
Y3765D01*
X3770Y3767D01*
X3770Y3768D01*
Y4238D01*
X3646D01*
X3645Y4243D01*
X3644Y4250D01*
Y4357D01*
X3661Y4400D01*
X4012D01*
X4013Y4390D01*
Y4255D01*
X4012Y4247D01*
X4012Y4242D01*
X3937D01*
Y3711D01*
X4449D01*
Y4242D01*
X4296D01*
X4295Y4247D01*
X4294Y4255D01*
Y4400D01*
X4606Y4400D01*
X4656Y4400D01*
X4967D01*
X4976Y4391D01*
D02*
G37*
G36*
X10961Y4491D02*
X10963Y4373D01*
X10844D01*
X10844Y4396D01*
X10842Y4416D01*
X10839Y4434D01*
X10835Y4449D01*
X10830Y4462D01*
X10823Y4473D01*
X10816Y4482D01*
X10807Y4488D01*
X10797Y4491D01*
X10785Y4493D01*
X10961Y4491D01*
D02*
G37*
G36*
X9376Y4490D02*
X9366Y4487D01*
X9357Y4481D01*
X9350Y4472D01*
X9343Y4462D01*
X9338Y4449D01*
X9334Y4433D01*
X9331Y4416D01*
X9329Y4396D01*
X9329Y4373D01*
X9211D01*
X9210Y4396D01*
X9208Y4416D01*
X9205Y4433D01*
X9201Y4449D01*
X9196Y4462D01*
X9190Y4472D01*
X9182Y4481D01*
X9174Y4487D01*
X9164Y4490D01*
X9153Y4491D01*
X9387D01*
X9376Y4490D01*
D02*
G37*
G36*
X4213Y4361D02*
X4094D01*
X4094Y4384D01*
X4091Y4422D01*
X4088Y4437D01*
X4085Y4450D01*
X4081Y4461D01*
X4076Y4469D01*
X4070Y4475D01*
X4064Y4478D01*
X4056Y4480D01*
X4211D01*
X4213Y4361D01*
D02*
G37*
G36*
X3578Y4478D02*
X3575Y4475D01*
X3572Y4469D01*
X3570Y4461D01*
X3568Y4450D01*
X3566Y4437D01*
X3564Y4404D01*
X3563Y4361D01*
X3445D01*
X3445Y4384D01*
X3440Y4450D01*
X3438Y4461D01*
X3436Y4469D01*
X3433Y4475D01*
X3430Y4478D01*
X3426Y4480D01*
X3581D01*
X3578Y4478D01*
D02*
G37*
G36*
X5147Y4605D02*
X5143Y4593D01*
X5142Y4579D01*
X5146Y4563D01*
X5154Y4544D01*
X5166Y4524D01*
X5182Y4501D01*
X5202Y4476D01*
X5254Y4420D01*
X5146Y4333D01*
X5001Y4480D01*
X5155Y4615D01*
X5147Y4605D01*
D02*
G37*
G36*
X4213Y4258D02*
X4215Y4237D01*
X4218Y4219D01*
X4222Y4204D01*
X4227Y4191D01*
X4234Y4180D01*
X4242Y4172D01*
X4250Y4166D01*
X4260Y4162D01*
X4272Y4161D01*
X4035D01*
X4047Y4162D01*
X4057Y4166D01*
X4066Y4172D01*
X4073Y4180D01*
X4080Y4191D01*
X4085Y4204D01*
X4089Y4219D01*
X4092Y4237D01*
X4094Y4258D01*
X4094Y4280D01*
X4213D01*
X4213Y4258D01*
D02*
G37*
G36*
X3564Y4253D02*
X3565Y4233D01*
X3568Y4215D01*
X3572Y4200D01*
X3578Y4187D01*
X3584Y4176D01*
X3592Y4167D01*
X3601Y4162D01*
X3611Y4158D01*
X3622Y4157D01*
X3386D01*
X3397Y4158D01*
X3407Y4162D01*
X3416Y4167D01*
X3424Y4176D01*
X3430Y4187D01*
X3435Y4200D01*
X3440Y4215D01*
X3443Y4233D01*
X3444Y4253D01*
X3445Y4276D01*
X3563D01*
X3564Y4253D01*
D02*
G37*
G36*
X9329Y4053D02*
X9331Y4033D01*
X9334Y4015D01*
X9338Y3999D01*
X9344Y3986D01*
X9350Y3975D01*
X9358Y3967D01*
X9367Y3961D01*
X9377Y3957D01*
X9388Y3956D01*
X9174Y3957D01*
X9181Y3959D01*
X9187Y3962D01*
X9193Y3968D01*
X9198Y3976D01*
X9202Y3987D01*
X9205Y4000D01*
X9207Y4015D01*
X9209Y4033D01*
X9211Y4076D01*
X9329D01*
X9329Y4053D01*
D02*
G37*
G36*
X5472Y4203D02*
X5523Y4160D01*
X5545Y4144D01*
X5566Y4133D01*
X5584Y4125D01*
X5601Y4121D01*
X5616D01*
X5628Y4125D01*
X5639Y4133D01*
X5444Y3938D01*
X5452Y3948D01*
X5456Y3961D01*
Y3976D01*
X5452Y3992D01*
X5444Y4011D01*
X5432Y4031D01*
X5417Y4054D01*
X5397Y4078D01*
X5347Y4133D01*
X5444Y4230D01*
X5472Y4203D01*
D02*
G37*
G36*
X10202Y3976D02*
X10098Y3855D01*
X9994Y3918D01*
X10004Y3929D01*
X10012Y3939D01*
X10019Y3948D01*
X10025Y3958D01*
X10028Y3966D01*
X10030Y3975D01*
X10031Y3983D01*
X10029Y3990D01*
X10027Y3997D01*
X10022Y4003D01*
X10202Y3976D01*
D02*
G37*
G36*
X11364Y4018D02*
X11407Y3981D01*
X11427Y3967D01*
X11444Y3957D01*
X11460Y3951D01*
X11474Y3947D01*
X11487D01*
X11498Y3951D01*
X11507Y3957D01*
X11340Y3790D01*
X11346Y3800D01*
X11350Y3810D01*
Y3823D01*
X11346Y3837D01*
X11340Y3853D01*
X11330Y3871D01*
X11316Y3890D01*
X11300Y3911D01*
X11256Y3957D01*
X11340Y4041D01*
X11364Y4018D01*
D02*
G37*
G36*
X5767Y3926D02*
X5764Y3913D01*
X5764Y3898D01*
X5768Y3882D01*
X5776Y3863D01*
X5788Y3843D01*
X5803Y3821D01*
X5823Y3796D01*
X5874Y3741D01*
X5776Y3644D01*
X5748Y3671D01*
X5697Y3714D01*
X5675Y3730D01*
X5654Y3742D01*
X5636Y3750D01*
X5619Y3754D01*
X5605Y3754D01*
X5592Y3750D01*
X5581Y3743D01*
X5775Y3936D01*
X5767Y3926D01*
D02*
G37*
G36*
X4954Y3788D02*
X4949Y3780D01*
X4945Y3766D01*
X4941Y3746D01*
X4938Y3722D01*
X4934Y3656D01*
X4931Y3515D01*
X4656D01*
X4655Y3567D01*
X4644Y3722D01*
X4638Y3746D01*
X4632Y3766D01*
X4625Y3780D01*
X4617Y3788D01*
X4608Y3791D01*
X4959D01*
X4954Y3788D01*
D02*
G37*
G36*
X3686Y3764D02*
X3681Y3756D01*
X3678Y3742D01*
X3675Y3723D01*
X3672Y3698D01*
X3667Y3590D01*
X3666Y3491D01*
X3419D01*
X3528Y3165D01*
X3115Y3302D01*
X3167Y3305D01*
X3214Y3314D01*
X3255Y3327D01*
X3291Y3347D01*
X3321Y3371D01*
X3346Y3402D01*
X3365Y3438D01*
X3379Y3479D01*
X3387Y3526D01*
X3389Y3556D01*
X3379Y3723D01*
X3374Y3742D01*
X3370Y3756D01*
X3364Y3764D01*
X3358Y3767D01*
X3690D01*
X3686Y3764D01*
D02*
G37*
G36*
X9322Y3254D02*
X9312Y3244D01*
X9304Y3234D01*
X9296Y3224D01*
X9290Y3213D01*
X9284Y3203D01*
X9279Y3193D01*
X9276Y3182D01*
X9273Y3172D01*
X9272Y3161D01*
X9272Y3151D01*
X9135Y3287D01*
X9146Y3288D01*
X9156Y3289D01*
X9167Y3292D01*
X9177Y3295D01*
X9187Y3300D01*
X9198Y3305D01*
X9208Y3312D01*
X9218Y3320D01*
X9228Y3328D01*
X9239Y3338D01*
X9322Y3254D01*
D02*
G37*
G36*
X9691Y2947D02*
X9691Y2944D01*
X9690Y2940D01*
X9689Y2879D01*
X9689Y2863D01*
X9571Y2860D01*
X9571Y2871D01*
X9569Y2903D01*
X9568Y2908D01*
X9567Y2912D01*
X9565Y2916D01*
X9564Y2918D01*
X9562Y2919D01*
X9691Y2948D01*
X9691Y2947D01*
D02*
G37*
G36*
X9988Y2922D02*
X9992Y2887D01*
X9994Y2873D01*
X9998Y2861D01*
X10003Y2851D01*
X10008Y2843D01*
X10014Y2838D01*
X10021Y2835D01*
X10028Y2833D01*
X9820D01*
X9829Y2835D01*
X9838Y2838D01*
X9845Y2843D01*
X9852Y2851D01*
X9857Y2861D01*
X9862Y2873D01*
X9865Y2887D01*
X9868Y2903D01*
X9869Y2922D01*
X9870Y2943D01*
X9988D01*
X9988Y2922D01*
D02*
G37*
G36*
X9223Y3044D02*
X9217Y3035D01*
X9211Y3026D01*
X9206Y3016D01*
X9202Y3006D01*
X9199Y2994D01*
X9196Y2983D01*
X9194Y2970D01*
X9193Y2957D01*
X9193Y2947D01*
X9194Y2929D01*
X9195Y2909D01*
X9198Y2891D01*
X9202Y2876D01*
X9208Y2863D01*
X9214Y2852D01*
X9222Y2844D01*
X9231Y2838D01*
X9241Y2835D01*
X9252Y2833D01*
X9016D01*
X9027Y2835D01*
X9037Y2838D01*
X9046Y2844D01*
X9054Y2852D01*
X9060Y2863D01*
X9065Y2876D01*
X9069Y2891D01*
X9072Y2909D01*
X9074Y2929D01*
X9075Y2947D01*
X9074Y2957D01*
X9073Y2970D01*
X9071Y2983D01*
X9069Y2994D01*
X9065Y3006D01*
X9061Y3016D01*
X9056Y3026D01*
X9051Y3035D01*
X9045Y3044D01*
X9037Y3051D01*
X9230D01*
X9223Y3044D01*
D02*
G37*
G36*
X2630Y3349D02*
X2638Y3340D01*
X2652Y3331D01*
X2671Y3323D01*
X2696Y3317D01*
X2726Y3312D01*
X2762Y3308D01*
X2850Y3303D01*
X2902Y3302D01*
Y3027D01*
X2850Y3026D01*
X2726Y3018D01*
X2696Y3012D01*
X2671Y3006D01*
X2652Y2999D01*
X2638Y2990D01*
X2630Y2980D01*
X2627Y2969D01*
X2621Y2966D01*
X2617Y2958D01*
X2612Y2944D01*
X2609Y2925D01*
X2606Y2900D01*
X2601Y2834D01*
X2598Y2693D01*
X2323D01*
X2323Y2746D01*
X2309Y2944D01*
X2305Y2958D01*
X2300Y2966D01*
X2295Y2969D01*
X2627D01*
Y3360D01*
X2630Y3349D01*
D02*
G37*
G36*
X12775Y2762D02*
X12777Y2741D01*
X12780Y2723D01*
X12784Y2708D01*
X12789Y2695D01*
X12796Y2684D01*
X12803Y2676D01*
X12812Y2670D01*
X12822Y2666D01*
X12833Y2665D01*
X12597D01*
X12608Y2666D01*
X12619Y2670D01*
X12627Y2676D01*
X12635Y2684D01*
X12642Y2695D01*
X12647Y2708D01*
X12651Y2723D01*
X12654Y2741D01*
X12656Y2762D01*
X12656Y2784D01*
X12774D01*
X12775Y2762D01*
D02*
G37*
G36*
X11033Y2493D02*
X11012Y2508D01*
X10987Y2516D01*
X10957Y2516D01*
X10924Y2508D01*
X10887Y2493D01*
X10847Y2469D01*
X10802Y2438D01*
X10753Y2398D01*
X10643Y2296D01*
X10418Y2461D01*
X10473Y2517D01*
X10663Y2732D01*
X10684Y2761D01*
X10698Y2787D01*
X10707Y2807D01*
X10710Y2824D01*
X11033Y2493D01*
D02*
G37*
G36*
X11101Y2715D02*
X11105Y2705D01*
X11111Y2696D01*
X11119Y2689D01*
X11130Y2682D01*
X11143Y2677D01*
X11159Y2673D01*
X11176Y2670D01*
X11197Y2668D01*
X11219Y2667D01*
Y2549D01*
X11197Y2549D01*
X11177Y2547D01*
X11159Y2544D01*
X11144Y2540D01*
X11131Y2535D01*
X11120Y2528D01*
X11112Y2521D01*
X11106Y2512D01*
X11102Y2502D01*
X11101Y2491D01*
X11100Y2726D01*
X11101Y2715D01*
D02*
G37*
G36*
X11627Y2666D02*
X11629Y2490D01*
X11627Y2501D01*
X11624Y2511D01*
X11618Y2520D01*
X11609Y2528D01*
X11599Y2534D01*
X11585Y2540D01*
X11570Y2544D01*
X11552Y2547D01*
X11532Y2549D01*
X11509Y2549D01*
Y2667D01*
X11627Y2666D01*
D02*
G37*
G36*
X11542Y2467D02*
X11547Y2466D01*
Y2372D01*
X12096D01*
Y2294D01*
X12411D01*
Y2057D01*
Y1742D01*
Y1250D01*
X12096D01*
Y1171D01*
X11629D01*
X11627Y1172D01*
X11625Y1171D01*
X11547D01*
X11547Y1171D01*
Y1171D01*
X11509Y1197D01*
X11445Y1261D01*
X11400Y1291D01*
X11346Y1302D01*
X11184D01*
X11177Y1303D01*
X11171Y1303D01*
Y1450D01*
X11171Y1451D01*
X11171Y1452D01*
X11172Y1453D01*
X11171Y1455D01*
Y1535D01*
X11097D01*
X11096Y1536D01*
X11067Y1537D01*
X11041Y1542D01*
X11014Y1549D01*
X10985Y1560D01*
X10955Y1575D01*
X10924Y1593D01*
X10892Y1615D01*
X10834Y1663D01*
X10481Y2017D01*
X10753Y2289D01*
X10805Y2338D01*
X10850Y2373D01*
X10890Y2401D01*
X10907Y2411D01*
X11100D01*
X11102Y2411D01*
X11103Y2411D01*
X11181D01*
Y2466D01*
X11187Y2467D01*
X11194Y2468D01*
X11535D01*
X11542Y2467D01*
D02*
G37*
G36*
X9657Y1891D02*
X9654Y1894D01*
X9646Y1898D01*
X9632Y1900D01*
X9613Y1903D01*
X9557Y1906D01*
X9513Y1907D01*
X9322Y1894D01*
X9320Y1891D01*
Y2243D01*
X9322Y2232D01*
X9331Y2222D01*
X9344Y2213D01*
X9364Y2206D01*
X9389Y2200D01*
X9419Y2194D01*
X9455Y2190D01*
X9480Y2189D01*
X9557Y2194D01*
X9588Y2200D01*
X9613Y2206D01*
X9632Y2213D01*
X9646Y2222D01*
X9654Y2232D01*
X9657Y2243D01*
Y1891D01*
D02*
G37*
G36*
X12942Y2350D02*
X12947Y2348D01*
X12957Y2347D01*
X12989Y2345D01*
X13136Y2343D01*
Y2146D01*
X12940Y2137D01*
Y2351D01*
X12942Y2350D01*
D02*
G37*
G36*
X2755Y2262D02*
X2560Y2067D01*
X2364Y2264D01*
X2559Y2458D01*
X2755Y2262D01*
D02*
G37*
G36*
X13397Y2047D02*
X13395Y2066D01*
X13389Y2083D01*
X13379Y2097D01*
X13365Y2110D01*
X13347Y2121D01*
X13325Y2130D01*
X13300Y2137D01*
X13270Y2142D01*
X13236Y2145D01*
X13199Y2146D01*
Y2343D01*
X13236Y2343D01*
X13325Y2350D01*
X13346Y2355D01*
X13364Y2360D01*
X13378Y2366D01*
X13388Y2373D01*
X13394Y2381D01*
X13396Y2391D01*
X13397Y2047D01*
D02*
G37*
G36*
X10030Y2238D02*
X10036Y2233D01*
X10046Y2229D01*
X10060Y2225D01*
X10079Y2222D01*
X10101Y2220D01*
X10157Y2217D01*
X10229Y2216D01*
Y1940D01*
X10191Y1939D01*
X10101Y1932D01*
X10079Y1928D01*
X10060Y1922D01*
X10046Y1916D01*
X10036Y1909D01*
X10030Y1900D01*
X10028Y1891D01*
Y2243D01*
X10030Y2238D01*
D02*
G37*
G36*
X8948Y1891D02*
X8945Y1894D01*
X8937Y1898D01*
X8923Y1900D01*
X8904Y1903D01*
X8849Y1906D01*
X8672Y1909D01*
Y2185D01*
X8725Y2186D01*
X8849Y2194D01*
X8879Y2200D01*
X8904Y2206D01*
X8923Y2213D01*
X8937Y2222D01*
X8945Y2232D01*
X8948Y2243D01*
Y1891D01*
D02*
G37*
G36*
X10768Y1613D02*
X10844Y1551D01*
X10881Y1526D01*
X10917Y1504D01*
X10953Y1487D01*
X10989Y1473D01*
X11023Y1463D01*
X11058Y1457D01*
X11091Y1455D01*
X10720Y1104D01*
X10718Y1137D01*
X10712Y1171D01*
X10702Y1206D01*
X10689Y1242D01*
X10671Y1277D01*
X10650Y1314D01*
X10624Y1351D01*
X10595Y1389D01*
X10562Y1427D01*
X10525Y1465D01*
X10730Y1650D01*
X10768Y1613D01*
D02*
G37*
G36*
X11091Y1268D02*
X11095Y1258D01*
X11101Y1249D01*
X11109Y1242D01*
X11120Y1235D01*
X11133Y1230D01*
X11149Y1226D01*
X11167Y1223D01*
X11187Y1221D01*
X11209Y1220D01*
Y1102D01*
X11091Y1104D01*
X11090Y1280D01*
X11091Y1268D01*
D02*
G37*
G36*
X11629Y880D02*
X11627Y890D01*
X11624Y898D01*
X11619Y906D01*
X11611Y912D01*
X11601Y918D01*
X11589Y922D01*
X11574Y926D01*
X11558Y928D01*
X11539Y930D01*
X11518Y930D01*
Y1048D01*
X11539Y1049D01*
X11574Y1052D01*
X11588Y1055D01*
X11600Y1059D01*
X11610Y1064D01*
X11618Y1069D01*
X11623Y1076D01*
X11626Y1083D01*
X11627Y1091D01*
X11629Y880D01*
D02*
G37*
G36*
X12343Y723D02*
X12334Y729D01*
X12324Y732D01*
X12311Y732D01*
X12297Y729D01*
X12281Y722D01*
X12264Y712D01*
X12244Y698D01*
X12223Y682D01*
X12176Y638D01*
X12093Y721D01*
X12116Y746D01*
X12153Y789D01*
X12167Y809D01*
X12177Y826D01*
X12184Y842D01*
X12187Y856D01*
X12187Y869D01*
X12184Y879D01*
X12178Y889D01*
X12343Y723D01*
D02*
G37*
G36*
X11091Y740D02*
X11095Y730D01*
X11101Y721D01*
X11109Y714D01*
X11120Y707D01*
X11133Y702D01*
X11149Y698D01*
X11166Y695D01*
X11187Y693D01*
X11209Y692D01*
Y574D01*
X11187Y574D01*
X11166Y572D01*
X11149Y569D01*
X11133Y565D01*
X11120Y560D01*
X11109Y553D01*
X11101Y545D01*
X11095Y537D01*
X11091Y527D01*
X11090Y515D01*
Y752D01*
X11091Y740D01*
D02*
G37*
%LPC*%
G36*
X12933Y34419D02*
X12343D01*
Y34327D01*
X12342Y34322D01*
X12340Y34317D01*
X12337Y34313D01*
X12331Y34307D01*
X12318Y34299D01*
X12298Y34291D01*
X12271Y34284D01*
X12236Y34278D01*
X12231Y34278D01*
X12193Y34280D01*
X12168Y34284D01*
X12165Y34285D01*
Y34321D01*
X12087D01*
X12085Y34321D01*
X12084Y34321D01*
X11654D01*
Y33789D01*
X12084D01*
X12085Y33789D01*
X12087Y33789D01*
X12165D01*
Y33826D01*
X12166Y33826D01*
X12241Y33831D01*
X12271Y33826D01*
X12298Y33819D01*
X12318Y33811D01*
X12331Y33803D01*
X12337Y33797D01*
X12340Y33793D01*
X12342Y33788D01*
X12343Y33783D01*
Y33691D01*
X12933D01*
Y34419D01*
D02*
G37*
G36*
X11143Y34321D02*
X11141Y34321D01*
X11063D01*
Y34284D01*
X11013Y34253D01*
X10968Y34272D01*
X10882D01*
X10803Y34239D01*
X10742Y34178D01*
X10709Y34098D01*
Y34012D01*
X10742Y33932D01*
X10803Y33872D01*
X10882Y33839D01*
X10968D01*
X11013Y33857D01*
X11063Y33826D01*
Y33789D01*
X11141D01*
X11143Y33789D01*
X11145Y33789D01*
X11575D01*
Y34321D01*
X11145D01*
X11143Y34321D01*
D02*
G37*
G36*
X19257Y34374D02*
X18863D01*
Y34217D01*
X18858Y34215D01*
X18847Y34210D01*
X18830Y34206D01*
X18807Y34202D01*
X18791Y34200D01*
X18358D01*
X18289Y34187D01*
X18254Y34163D01*
X17980D01*
Y33632D01*
X18492D01*
Y33822D01*
X18497Y33825D01*
X18508Y33829D01*
X18525Y33834D01*
X18548Y33838D01*
X18564Y33839D01*
X18791D01*
X18807Y33838D01*
X18830Y33834D01*
X18847Y33829D01*
X18858Y33825D01*
X18863Y33822D01*
Y33665D01*
X19257D01*
Y34374D01*
D02*
G37*
G36*
X23207Y34500D02*
X23121D01*
X23041Y34467D01*
X22980Y34406D01*
X22947Y34326D01*
Y34240D01*
X22980Y34161D01*
X23041Y34100D01*
X23121Y34067D01*
X23134D01*
Y33319D01*
X22990D01*
X22988Y33319D01*
X22984Y33321D01*
X22979Y33322D01*
X22973Y33325D01*
X22967Y33328D01*
X22961Y33332D01*
X22954Y33337D01*
X22946Y33344D01*
X22937Y33353D01*
X22931Y33357D01*
X22905Y33382D01*
X22826Y33415D01*
X22739D01*
X22660Y33382D01*
X22599Y33321D01*
X22566Y33242D01*
Y33156D01*
X22599Y33076D01*
X22660Y33015D01*
X22739Y32982D01*
X22778D01*
X22790Y32964D01*
Y32878D01*
X22823Y32799D01*
X22849Y32773D01*
X22848Y32760D01*
X22795Y32719D01*
X22743Y32709D01*
X22738Y32705D01*
X22697Y32680D01*
X22656Y32705D01*
X22651Y32709D01*
X22599Y32719D01*
X22546Y32709D01*
X22502Y32679D01*
X22472Y32635D01*
X22468Y32611D01*
X22466Y32611D01*
X21732D01*
Y32707D01*
X21263D01*
X21261Y32707D01*
X21259Y32707D01*
X21181D01*
Y32651D01*
X21172Y32648D01*
X21154Y32645D01*
X21113Y32641D01*
X20925D01*
X20856Y32628D01*
X20797Y32588D01*
X20581Y32372D01*
X20542Y32313D01*
X20528Y32244D01*
Y31543D01*
X20525Y31540D01*
X20506Y31494D01*
X20456Y31504D01*
Y31649D01*
X20443Y31747D01*
X20405Y31838D01*
X20358Y31900D01*
X20358Y31901D01*
X20339Y31924D01*
X20325Y31951D01*
X20310Y31987D01*
X20297Y32032D01*
X20285Y32086D01*
X20276Y32147D01*
X20259Y32376D01*
Y32480D01*
X20246Y32549D01*
X20206Y32608D01*
X20008Y32806D01*
Y33016D01*
X20005Y33033D01*
Y33390D01*
X19611D01*
Y32681D01*
X19657D01*
X19661Y32662D01*
X19700Y32604D01*
X19898Y32405D01*
Y32404D01*
X19895Y32298D01*
X19882Y32148D01*
X19872Y32086D01*
X19860Y32032D01*
X19847Y31987D01*
X19833Y31951D01*
X19818Y31924D01*
X19800Y31901D01*
X19800Y31900D01*
X19752Y31838D01*
X19714Y31747D01*
X19701Y31649D01*
Y31504D01*
X19651Y31494D01*
X19632Y31540D01*
X19571Y31601D01*
X19492Y31634D01*
X19406D01*
X19326Y31601D01*
X19265Y31540D01*
X19232Y31460D01*
Y31456D01*
X18337Y30561D01*
X18298Y30502D01*
X18284Y30433D01*
Y29811D01*
X18281Y29808D01*
X18248Y29728D01*
Y29642D01*
X18281Y29562D01*
X18342Y29501D01*
X18421Y29469D01*
X18508D01*
X18587Y29501D01*
X18648Y29562D01*
X18681Y29642D01*
Y29728D01*
X18650Y29804D01*
X18651Y29822D01*
X18654Y29836D01*
X18707Y29844D01*
X18716Y29828D01*
X18804Y29740D01*
X18912Y29678D01*
X19032Y29646D01*
X19157D01*
X19277Y29678D01*
X19385Y29740D01*
X19473Y29828D01*
X19535Y29936D01*
X19567Y30056D01*
Y30180D01*
X19535Y30300D01*
X19473Y30408D01*
X19385Y30496D01*
X19277Y30558D01*
X19157Y30591D01*
X19032D01*
X18962Y30572D01*
X18903Y30607D01*
X18902Y30615D01*
X19488Y31201D01*
X19492D01*
X19571Y31234D01*
X19632Y31295D01*
X19651Y31341D01*
X19701Y31331D01*
Y29802D01*
X19714Y29704D01*
X19752Y29613D01*
X19780Y29576D01*
X19782Y29572D01*
X19792Y29556D01*
X19800Y29539D01*
X19809Y29513D01*
X19817Y29480D01*
X19823Y29441D01*
X19827Y29396D01*
X19793Y29359D01*
X19636D01*
X19625Y29360D01*
X19595Y29365D01*
X19567Y29372D01*
X19541Y29380D01*
X19516Y29391D01*
X19493Y29403D01*
X19472Y29417D01*
X19452Y29432D01*
X19430Y29452D01*
X19425Y29456D01*
X19385Y29496D01*
X19277Y29558D01*
X19157Y29591D01*
X19032D01*
X18912Y29558D01*
X18804Y29496D01*
X18716Y29408D01*
X18654Y29300D01*
X18622Y29180D01*
Y29056D01*
X18654Y28936D01*
X18716Y28828D01*
X18804Y28740D01*
X18912Y28678D01*
X19032Y28646D01*
X19157D01*
X19277Y28678D01*
X19385Y28740D01*
X19425Y28780D01*
X19430Y28784D01*
X19452Y28804D01*
X19472Y28820D01*
X19493Y28833D01*
X19516Y28846D01*
X19541Y28856D01*
X19567Y28864D01*
X19595Y28871D01*
X19625Y28876D01*
X19636Y28877D01*
X19663D01*
X19676Y28877D01*
X19719Y28873D01*
X19754Y28867D01*
X19782Y28861D01*
X19800Y28854D01*
X19803Y28852D01*
Y28789D01*
X19881D01*
X19883Y28789D01*
X19885Y28789D01*
X20273D01*
X20274Y28789D01*
X20276Y28789D01*
X20354D01*
Y28860D01*
X20361Y28865D01*
X20379Y28872D01*
X20405Y28879D01*
X20439Y28885D01*
X20508Y28891D01*
X20691D01*
X20783Y28909D01*
X20861Y28961D01*
X21004Y29104D01*
X21071Y29162D01*
X21100Y29185D01*
X21123Y29200D01*
X21131Y29205D01*
X21144D01*
X21144Y29205D01*
X21145Y29205D01*
X21148D01*
X21150Y29204D01*
X21152Y29205D01*
X21281D01*
X21282Y29204D01*
X21284Y29205D01*
X21362D01*
Y29277D01*
X21363Y29279D01*
X21367Y29282D01*
X21380Y29288D01*
X21402Y29295D01*
X21416Y29298D01*
X21439Y29292D01*
X21459Y29285D01*
X21472Y29277D01*
X21478Y29272D01*
X21480Y29269D01*
X21481Y29265D01*
X21483Y29252D01*
Y29180D01*
X21561D01*
X21563Y29179D01*
X21564Y29180D01*
X22179D01*
Y29876D01*
X21564D01*
X21563Y29876D01*
X21561Y29876D01*
X21483D01*
Y29803D01*
X21481Y29790D01*
X21480Y29787D01*
X21478Y29783D01*
X21472Y29778D01*
X21459Y29771D01*
X21439Y29763D01*
X21416Y29757D01*
X21402Y29760D01*
X21380Y29767D01*
X21367Y29773D01*
X21363Y29776D01*
X21362Y29778D01*
Y29850D01*
X21284D01*
X21282Y29851D01*
X21281Y29850D01*
X20764D01*
Y29593D01*
X20763Y29591D01*
X20764Y29589D01*
Y29586D01*
X20764Y29585D01*
X20764Y29585D01*
Y29571D01*
X20759Y29564D01*
X20745Y29543D01*
X20636Y29418D01*
X20591Y29372D01*
X20364D01*
X20331Y29410D01*
X20334Y29439D01*
X20341Y29480D01*
X20349Y29513D01*
X20357Y29539D01*
X20365Y29556D01*
X20375Y29572D01*
X20377Y29576D01*
X20405Y29613D01*
X20443Y29704D01*
X20456Y29802D01*
Y31331D01*
X20506Y31341D01*
X20525Y31295D01*
X20586Y31234D01*
X20666Y31201D01*
X20752D01*
X20831Y31234D01*
X20892Y31295D01*
X20925Y31374D01*
Y31460D01*
X20892Y31540D01*
X20889Y31543D01*
Y32169D01*
X21000Y32280D01*
X21120D01*
X21128Y32279D01*
X21153Y32277D01*
X21172Y32273D01*
X21181Y32271D01*
Y32215D01*
X21259D01*
X21261Y32214D01*
X21263Y32215D01*
X21732D01*
Y32350D01*
X22117D01*
X22132Y32300D01*
X22104Y32281D01*
X22075Y32237D01*
X22071Y32216D01*
X22051Y32205D01*
X21965D01*
X21885Y32172D01*
X21824Y32111D01*
X21791Y32032D01*
Y31945D01*
X21824Y31866D01*
X21885Y31805D01*
X21965Y31772D01*
X22051D01*
X22070Y31762D01*
X22075Y31739D01*
X22078Y31734D01*
X22104Y31691D01*
X22075Y31647D01*
X22064Y31594D01*
X22075Y31542D01*
X22104Y31498D01*
X22079Y31456D01*
X22075Y31450D01*
X22064Y31398D01*
X22075Y31345D01*
X22104Y31301D01*
X22078Y31258D01*
X22075Y31253D01*
X22064Y31201D01*
X22075Y31148D01*
X22104Y31104D01*
X22149Y31075D01*
X22201Y31064D01*
X22406D01*
X22423Y31068D01*
X22465Y31025D01*
X22462Y31008D01*
Y30803D01*
X22472Y30751D01*
X22502Y30707D01*
X22546Y30677D01*
X22599Y30667D01*
X22651Y30677D01*
X22656Y30681D01*
X22697Y30706D01*
X22738Y30681D01*
X22743Y30677D01*
X22795Y30667D01*
X22848Y30677D01*
X22892Y30707D01*
X22896D01*
X22940Y30677D01*
X22992Y30667D01*
X23044Y30677D01*
X23089Y30707D01*
X23092D01*
X23137Y30677D01*
X23189Y30667D01*
X23241Y30677D01*
X23285Y30707D01*
X23289D01*
X23334Y30677D01*
X23386Y30667D01*
X23438Y30677D01*
X23441Y30679D01*
X23483Y30706D01*
X23524Y30679D01*
X23527Y30677D01*
X23580Y30667D01*
X23632Y30677D01*
X23676Y30707D01*
X23706Y30751D01*
X23716Y30803D01*
Y31008D01*
X23712Y31026D01*
X23755Y31068D01*
X23776Y31064D01*
X23858D01*
X23878Y31060D01*
X24414D01*
X24468Y31071D01*
X24514Y31101D01*
X24528Y31116D01*
X24533Y31119D01*
X24537Y31121D01*
X24539Y31123D01*
X24540Y31123D01*
X24549Y31119D01*
X24635D01*
X24715Y31152D01*
X24775Y31213D01*
X24808Y31293D01*
Y31379D01*
X24775Y31458D01*
X24736Y31498D01*
X24730Y31543D01*
X24740Y31559D01*
X24790Y31610D01*
X24823Y31689D01*
Y31775D01*
X24790Y31855D01*
X24735Y31909D01*
X24790Y31964D01*
X24823Y32044D01*
Y32130D01*
X24790Y32209D01*
X24729Y32270D01*
X24649Y32303D01*
X24563D01*
X24488Y32272D01*
X24460Y32340D01*
X24400Y32401D01*
X24320Y32434D01*
X24234D01*
X24154Y32401D01*
X24093Y32340D01*
X24086Y32322D01*
X24038Y32307D01*
X24033Y32311D01*
X23981Y32321D01*
X23776D01*
X23758Y32318D01*
X23716Y32360D01*
X23719Y32378D01*
Y32583D01*
X23709Y32635D01*
X23679Y32679D01*
X23635Y32709D01*
X23583Y32719D01*
X23530Y32709D01*
X23486Y32679D01*
X23457Y32635D01*
X23446Y32583D01*
Y32378D01*
X23457Y32326D01*
X23486Y32281D01*
X23530Y32252D01*
X23583Y32241D01*
X23600Y32245D01*
X23643Y32202D01*
X23639Y32185D01*
X23650Y32133D01*
X23679Y32088D01*
X23653Y32046D01*
X23650Y32040D01*
X23639Y31988D01*
X23650Y31936D01*
X23679Y31892D01*
X23654Y31850D01*
X23650Y31843D01*
X23639Y31791D01*
X23650Y31739D01*
X23653Y31734D01*
X23679Y31691D01*
X23650Y31647D01*
X23639Y31594D01*
X23650Y31542D01*
X23679Y31498D01*
X23654Y31456D01*
X23650Y31450D01*
X23639Y31398D01*
X23650Y31345D01*
X23679Y31301D01*
X23653Y31258D01*
X23650Y31253D01*
X23639Y31201D01*
X23643Y31182D01*
X23600Y31140D01*
X23580Y31144D01*
X23527Y31134D01*
X23524Y31132D01*
X23483Y31105D01*
X23441Y31132D01*
X23438Y31134D01*
X23386Y31144D01*
X23334Y31134D01*
X23289Y31104D01*
X23285D01*
X23241Y31134D01*
X23189Y31144D01*
X23137Y31134D01*
X23092Y31104D01*
X23089D01*
X23044Y31134D01*
X22992Y31144D01*
X22940Y31134D01*
X22896Y31104D01*
X22892D01*
X22848Y31134D01*
X22795Y31144D01*
X22743Y31134D01*
X22738Y31130D01*
X22697Y31106D01*
X22656Y31130D01*
X22651Y31134D01*
X22599Y31144D01*
X22581Y31141D01*
X22539Y31183D01*
X22542Y31201D01*
X22532Y31253D01*
X22502Y31297D01*
X22528Y31340D01*
X22532Y31345D01*
X22542Y31398D01*
X22532Y31450D01*
X22502Y31494D01*
X22528Y31536D01*
X22532Y31542D01*
X22542Y31594D01*
X22532Y31647D01*
X22528Y31652D01*
X22502Y31695D01*
X22532Y31739D01*
X22542Y31791D01*
X22532Y31843D01*
X22502Y31888D01*
X22528Y31930D01*
X22532Y31936D01*
X22542Y31988D01*
X22532Y32040D01*
X22502Y32085D01*
X22528Y32127D01*
X22532Y32133D01*
X22542Y32185D01*
X22539Y32202D01*
X22581Y32245D01*
X22599Y32241D01*
X22651Y32252D01*
X22656Y32255D01*
X22697Y32280D01*
X22738Y32255D01*
X22743Y32252D01*
X22795Y32241D01*
X22848Y32252D01*
X22853Y32255D01*
X22894Y32280D01*
X22935Y32255D01*
X22940Y32252D01*
X22992Y32241D01*
X23044Y32252D01*
X23050Y32255D01*
X23091Y32280D01*
X23131Y32255D01*
X23137Y32252D01*
X23189Y32241D01*
X23241Y32252D01*
X23285Y32281D01*
X23315Y32326D01*
X23325Y32378D01*
Y32473D01*
X23333Y32511D01*
X23333Y32511D01*
Y32605D01*
X23347Y32619D01*
X23347Y32619D01*
X23373Y32658D01*
X23383Y32704D01*
X23383Y32704D01*
Y33191D01*
X23375Y33229D01*
Y34139D01*
X23375Y34139D01*
X23366Y34185D01*
X23361Y34193D01*
X23380Y34240D01*
Y34326D01*
X23347Y34406D01*
X23286Y34467D01*
X23207Y34500D01*
D02*
G37*
G36*
X19257Y33390D02*
X18863D01*
Y33181D01*
X18858Y33180D01*
X18850Y33179D01*
X17497D01*
X17444Y33169D01*
X17398Y33138D01*
X17398Y33138D01*
X17384Y33124D01*
X17375Y33117D01*
X17363Y33109D01*
X17351Y33102D01*
X17337Y33096D01*
X17324Y33092D01*
X17309Y33088D01*
X17293Y33085D01*
X17282Y33084D01*
X15030D01*
X14976Y33073D01*
X14930Y33043D01*
X14487Y32599D01*
X14457Y32554D01*
X14446Y32500D01*
Y32365D01*
X14445Y32358D01*
X14445Y32352D01*
X14213D01*
Y31821D01*
X14724D01*
Y32191D01*
X14727Y32205D01*
Y32442D01*
X15088Y32803D01*
X17240D01*
X17247Y32801D01*
X17253Y32800D01*
X17255Y32798D01*
X17256Y32798D01*
X17257Y32797D01*
X17258Y32794D01*
X17260Y32789D01*
X17261Y32781D01*
Y32631D01*
X17260Y32624D01*
X17260Y32618D01*
X17205D01*
Y32540D01*
X17204Y32538D01*
X17205Y32536D01*
Y31909D01*
X17972D01*
Y32618D01*
X17544D01*
X17543Y32624D01*
X17542Y32631D01*
Y32823D01*
X17543Y32835D01*
X17546Y32851D01*
X17550Y32865D01*
X17555Y32879D01*
X17561Y32892D01*
X17564Y32898D01*
X18850D01*
X18858Y32898D01*
X18863Y32897D01*
Y32681D01*
X19257D01*
Y33390D01*
D02*
G37*
G36*
X19159Y32612D02*
X19144D01*
Y32168D01*
X19588D01*
Y32183D01*
X19555Y32309D01*
X19490Y32421D01*
X19398Y32513D01*
X19285Y32578D01*
X19159Y32612D01*
D02*
G37*
G36*
X19044D02*
X19029D01*
X18904Y32578D01*
X18791Y32513D01*
X18699Y32421D01*
X18634Y32309D01*
X18601Y32183D01*
Y32168D01*
X19044D01*
Y32612D01*
D02*
G37*
G36*
X7348D02*
X7333D01*
Y32168D01*
X7777D01*
Y32183D01*
X7744Y32309D01*
X7679Y32421D01*
X7587Y32513D01*
X7474Y32578D01*
X7348Y32612D01*
D02*
G37*
G36*
X7233D02*
X7218D01*
X7093Y32578D01*
X6980Y32513D01*
X6888Y32421D01*
X6823Y32309D01*
X6790Y32183D01*
Y32168D01*
X7233D01*
Y32612D01*
D02*
G37*
G36*
X15813Y32612D02*
X15798D01*
Y32168D01*
X16242D01*
Y32183D01*
X16208Y32309D01*
X16143Y32421D01*
X16051Y32513D01*
X15939Y32578D01*
X15813Y32612D01*
D02*
G37*
G36*
X15698D02*
X15683D01*
X15557Y32578D01*
X15445Y32513D01*
X15353Y32421D01*
X15288Y32309D01*
X15254Y32183D01*
Y32168D01*
X15698D01*
Y32612D01*
D02*
G37*
G36*
X13356Y32421D02*
X12628D01*
Y31831D01*
X13356D01*
Y31945D01*
X13362Y31946D01*
X13369Y31946D01*
X13610D01*
X13617Y31945D01*
X13622Y31945D01*
Y31821D01*
X14134D01*
Y32352D01*
X13622D01*
Y32229D01*
X13617Y32228D01*
X13610Y32227D01*
X13369D01*
X13362Y32228D01*
X13356Y32229D01*
Y32421D01*
D02*
G37*
G36*
X19588Y32068D02*
X19144D01*
Y31624D01*
X19159D01*
X19285Y31658D01*
X19398Y31723D01*
X19490Y31815D01*
X19555Y31928D01*
X19588Y32053D01*
Y32068D01*
D02*
G37*
G36*
X19044D02*
X18601D01*
Y32053D01*
X18634Y31928D01*
X18699Y31815D01*
X18791Y31723D01*
X18904Y31658D01*
X19029Y31624D01*
X19044D01*
Y32068D01*
D02*
G37*
G36*
X7777Y32068D02*
X7333D01*
Y31624D01*
X7348D01*
X7474Y31658D01*
X7587Y31723D01*
X7679Y31815D01*
X7744Y31928D01*
X7777Y32053D01*
Y32068D01*
D02*
G37*
G36*
X7233D02*
X6790D01*
Y32053D01*
X6823Y31928D01*
X6888Y31815D01*
X6980Y31723D01*
X7093Y31658D01*
X7218Y31624D01*
X7233D01*
Y32068D01*
D02*
G37*
G36*
X16242Y32068D02*
X15798D01*
Y31624D01*
X15813D01*
X15939Y31658D01*
X16051Y31723D01*
X16143Y31815D01*
X16208Y31928D01*
X16242Y32053D01*
Y32068D01*
D02*
G37*
G36*
X15698D02*
X15254D01*
Y32053D01*
X15288Y31928D01*
X15353Y31815D01*
X15445Y31723D01*
X15557Y31658D01*
X15683Y31624D01*
X15698D01*
Y32068D01*
D02*
G37*
G36*
X11124Y32068D02*
X10680D01*
Y31624D01*
X10695D01*
X10820Y31658D01*
X10933Y31723D01*
X11025Y31815D01*
X11090Y31928D01*
X11124Y32053D01*
Y32068D01*
D02*
G37*
G36*
X10580D02*
X10136D01*
Y32053D01*
X10170Y31928D01*
X10235Y31815D01*
X10327Y31723D01*
X10439Y31658D01*
X10565Y31624D01*
X10580D01*
Y32068D01*
D02*
G37*
G36*
X17224Y31634D02*
X16831D01*
Y31422D01*
X16825Y31421D01*
X16818Y31420D01*
X16476D01*
X16423Y31409D01*
X16377Y31379D01*
X16044Y31046D01*
X15131D01*
X15124Y31047D01*
X15118Y31048D01*
Y31171D01*
X14606D01*
Y30640D01*
X15118D01*
Y30763D01*
X15124Y30764D01*
X15131Y30765D01*
X16102D01*
X16156Y30776D01*
X16202Y30806D01*
X16535Y31139D01*
X16818D01*
X16825Y31138D01*
X16831Y31137D01*
Y30925D01*
X17224D01*
Y31634D01*
D02*
G37*
G36*
X13642Y31467D02*
X13051D01*
Y30738D01*
X13404D01*
X13459Y30702D01*
X13543Y30685D01*
X13927D01*
X13988Y30680D01*
X14013Y30677D01*
X14016Y30676D01*
Y30640D01*
X14094D01*
X14096Y30639D01*
X14097Y30640D01*
X14528D01*
Y31171D01*
X14097D01*
X14096Y31172D01*
X14094Y31171D01*
X14016D01*
Y31135D01*
X14015Y31135D01*
X13899Y31126D01*
X13773D01*
X13748Y31129D01*
X13713Y31134D01*
X13686Y31142D01*
X13666Y31150D01*
X13654Y31157D01*
X13647Y31163D01*
X13644Y31168D01*
X13642Y31173D01*
X13642Y31178D01*
Y31467D01*
D02*
G37*
G36*
X15813Y30612D02*
X15798D01*
Y30168D01*
X16242D01*
Y30183D01*
X16208Y30309D01*
X16143Y30421D01*
X16051Y30513D01*
X15939Y30578D01*
X15813Y30612D01*
D02*
G37*
G36*
X15698D02*
X15683D01*
X15557Y30578D01*
X15445Y30513D01*
X15353Y30421D01*
X15288Y30309D01*
X15254Y30183D01*
Y30168D01*
X15698D01*
Y30612D01*
D02*
G37*
G36*
X17972Y31634D02*
X17579D01*
Y31277D01*
X17575Y31260D01*
Y30699D01*
X17574Y30685D01*
X17571Y30662D01*
X17566Y30644D01*
X17562Y30632D01*
X17561Y30630D01*
X17490D01*
Y30552D01*
X17490Y30550D01*
X17490Y30548D01*
Y30160D01*
X17490Y30159D01*
X17490Y30157D01*
Y30079D01*
X17546D01*
X17549Y30070D01*
X17552Y30051D01*
X17556Y30010D01*
Y29869D01*
X17506Y29848D01*
X17485Y29869D01*
X17405Y29902D01*
X17319D01*
X17240Y29869D01*
X17237Y29866D01*
X16299D01*
X16230Y29852D01*
X16217Y29843D01*
X16180Y29878D01*
X16208Y29928D01*
X16242Y30053D01*
Y30068D01*
X15798D01*
Y29624D01*
X15813D01*
X15939Y29658D01*
X15956Y29668D01*
X15987Y29628D01*
X15181Y28822D01*
X15174D01*
X15162Y28823D01*
X15138Y28826D01*
X15120Y28830D01*
X15108Y28834D01*
Y28898D01*
X15030D01*
X15028Y28898D01*
X15027Y28898D01*
X14577D01*
Y28757D01*
X14576Y28756D01*
X14565Y28752D01*
X14549Y28748D01*
X14527Y28745D01*
X14513Y28744D01*
X14468D01*
X14399Y28730D01*
X14341Y28691D01*
X13704Y28053D01*
X12116D01*
X12095Y28057D01*
X12077Y28063D01*
X12065Y28070D01*
X12055Y28078D01*
X12047Y28087D01*
X12041Y28100D01*
X12035Y28117D01*
X12031Y28138D01*
Y28738D01*
X12017Y28807D01*
X11978Y28866D01*
X11104Y29740D01*
X11091Y29758D01*
X11080Y29778D01*
X11072Y29800D01*
X11067Y29824D01*
X11064Y29849D01*
X11064Y29877D01*
X11067Y29908D01*
X11073Y29942D01*
X11083Y29980D01*
X11084Y29987D01*
X11102Y30056D01*
Y30180D01*
X11070Y30300D01*
X11008Y30408D01*
X10920Y30496D01*
X10812Y30558D01*
X10692Y30591D01*
X10568D01*
X10448Y30558D01*
X10340Y30496D01*
X10252Y30408D01*
X10190Y30300D01*
X10157Y30180D01*
Y30056D01*
X10190Y29936D01*
X10252Y29828D01*
X10340Y29740D01*
X10448Y29678D01*
X10491Y29666D01*
X10496Y29663D01*
X10594Y29632D01*
X10635Y29617D01*
X10710Y29586D01*
X10740Y29570D01*
X10767Y29555D01*
X10790Y29539D01*
X10805Y29528D01*
X11670Y28663D01*
Y27873D01*
Y27008D01*
X11684Y26939D01*
X11723Y26880D01*
X11930Y26673D01*
Y25412D01*
X11927Y25409D01*
X11894Y25329D01*
Y25319D01*
X11848Y25299D01*
X11623Y25525D01*
X11639Y25580D01*
X11697Y25604D01*
X11758Y25665D01*
X11791Y25744D01*
Y25830D01*
X11758Y25910D01*
X11734Y25935D01*
X11730Y25940D01*
X11726Y25945D01*
X11724Y25947D01*
X11722Y25950D01*
X11721Y25953D01*
X11719Y25958D01*
X11718Y25963D01*
X11716Y25969D01*
X11715Y25975D01*
Y26309D01*
X11705Y26363D01*
X11674Y26408D01*
X11418Y26665D01*
X11399Y26685D01*
X11385Y26702D01*
X11378Y26712D01*
Y27037D01*
X11264D01*
X11263Y27043D01*
X11263Y27050D01*
Y27626D01*
X11252Y27680D01*
X11221Y27725D01*
X11164Y27783D01*
X11161Y27786D01*
X11151Y27802D01*
X11141Y27823D01*
X11131Y27850D01*
X11123Y27881D01*
X11116Y27918D01*
X11110Y27959D01*
X11104Y28058D01*
X11104Y28115D01*
X11102Y28122D01*
Y28180D01*
X11070Y28300D01*
X11008Y28408D01*
X10920Y28496D01*
X10812Y28558D01*
X10692Y28591D01*
X10568D01*
X10448Y28558D01*
X10340Y28496D01*
X10252Y28408D01*
X10190Y28300D01*
X10157Y28180D01*
Y28056D01*
X10190Y27936D01*
X10252Y27828D01*
X10340Y27740D01*
X10448Y27678D01*
X10568Y27646D01*
X10626D01*
X10633Y27644D01*
X10690Y27644D01*
X10789Y27638D01*
X10830Y27632D01*
X10867Y27625D01*
X10898Y27617D01*
X10925Y27607D01*
X10946Y27597D01*
X10962Y27587D01*
X10965Y27585D01*
X10982Y27568D01*
Y27050D01*
X10981Y27043D01*
X10980Y27037D01*
X10866D01*
Y26506D01*
X11171D01*
X11181Y26499D01*
X11214Y26471D01*
X11434Y26251D01*
Y25975D01*
X11433Y25969D01*
X11432Y25963D01*
X11430Y25958D01*
X11429Y25953D01*
X11427Y25950D01*
X11425Y25947D01*
X11424Y25945D01*
X11419Y25940D01*
X11416Y25935D01*
X11391Y25910D01*
X11367Y25851D01*
X11312Y25836D01*
X11290Y25857D01*
X11212Y25917D01*
X11121Y25955D01*
X11024Y25968D01*
X10630D01*
X10532Y25955D01*
X10441Y25917D01*
X10410Y25893D01*
X10404Y25891D01*
X10370Y25866D01*
X10337Y25845D01*
X10304Y25827D01*
X10271Y25812D01*
X10237Y25799D01*
X10203Y25788D01*
X10199Y25787D01*
X9734D01*
Y25394D01*
X10199D01*
X10203Y25393D01*
X10237Y25382D01*
X10271Y25369D01*
X10304Y25354D01*
X10337Y25336D01*
X10370Y25315D01*
X10404Y25291D01*
X10410Y25288D01*
X10441Y25264D01*
X10532Y25226D01*
X10630Y25213D01*
X10867D01*
X11487Y24593D01*
X11471Y24539D01*
X11413Y24514D01*
X11352Y24453D01*
X11319Y24374D01*
Y24288D01*
X11352Y24208D01*
X11413Y24147D01*
X11492Y24114D01*
X11528D01*
X11534Y24113D01*
X11540Y24112D01*
X11543Y24112D01*
X11546Y24111D01*
X11550Y24110D01*
X11554Y24108D01*
X11558Y24106D01*
X11564Y24102D01*
X11569Y24098D01*
X12527Y23141D01*
Y18867D01*
X8956Y15296D01*
X8925Y15251D01*
X8915Y15197D01*
Y12017D01*
X8888Y11991D01*
X8094D01*
X8040Y11980D01*
X7995Y11950D01*
X7675Y11630D01*
X7670Y11626D01*
X7664Y11623D01*
X7660Y11620D01*
X7656Y11618D01*
X7652Y11617D01*
X7649Y11616D01*
X7646Y11616D01*
X7640Y11616D01*
X7634Y11614D01*
X7598D01*
X7519Y11581D01*
X7458Y11520D01*
X7425Y11441D01*
Y11355D01*
X7458Y11275D01*
X7519Y11214D01*
X7598Y11181D01*
X7685D01*
X7764Y11214D01*
X7825Y11275D01*
X7858Y11355D01*
Y11390D01*
X7860Y11396D01*
X7860Y11402D01*
X7860Y11405D01*
X7861Y11408D01*
X7862Y11412D01*
X7864Y11416D01*
X7866Y11421D01*
X7870Y11426D01*
X7874Y11431D01*
X8152Y11710D01*
X8947D01*
X9000Y11721D01*
X9025Y11737D01*
X9075Y11711D01*
Y11650D01*
X9108Y11570D01*
X9169Y11509D01*
X9248Y11476D01*
X9334D01*
X9376Y11494D01*
X9426Y11460D01*
Y11203D01*
X9191Y10967D01*
X5037D01*
X4983Y10957D01*
X4937Y10926D01*
X4035Y10023D01*
X4004Y9978D01*
X3993Y9924D01*
Y9518D01*
X3711D01*
X3661Y9518D01*
X3611Y9518D01*
X3081D01*
X3031Y9518D01*
X2982Y9518D01*
X2717D01*
Y9045D01*
X2982D01*
X3031Y9045D01*
X3081Y9045D01*
X3611D01*
X3661Y9045D01*
X3711Y9045D01*
X4241D01*
X4291Y9045D01*
Y9045D01*
X4291D01*
Y9045D01*
X4556D01*
X4606Y9045D01*
Y9045D01*
X4606D01*
Y9045D01*
X5236D01*
Y9045D01*
X5286Y9045D01*
X5501D01*
X5551Y9045D01*
Y9045D01*
X5551D01*
Y9045D01*
X6116D01*
X6142Y9006D01*
Y8691D01*
X6142D01*
X6142Y8641D01*
Y8376D01*
Y8061D01*
X6142D01*
X6142Y8011D01*
Y7746D01*
X6142D01*
X6142Y7696D01*
Y7431D01*
Y7116D01*
X6142D01*
X6142Y7066D01*
Y6851D01*
X6142Y6801D01*
X6142D01*
Y6801D01*
X6142D01*
Y6486D01*
X6142Y6171D01*
X6142Y6121D01*
Y5856D01*
X6614D01*
Y6121D01*
X6614Y6171D01*
X6614Y6221D01*
Y6288D01*
X6618Y6292D01*
X6646Y6297D01*
X6692Y6328D01*
X6773Y6409D01*
X6803Y6454D01*
X6814Y6508D01*
Y6733D01*
X6958Y6877D01*
X8227D01*
Y6662D01*
X8238Y6608D01*
X8268Y6563D01*
X8434Y6397D01*
X8480Y6366D01*
X8534Y6356D01*
X9391D01*
X9743Y6003D01*
X9789Y5973D01*
X9843Y5962D01*
X12907D01*
X13220Y5649D01*
X13265Y5618D01*
X13319Y5608D01*
X15048D01*
X15055Y5607D01*
X15061Y5605D01*
X15066Y5604D01*
X15070Y5602D01*
X15074Y5600D01*
X15076Y5599D01*
X15079Y5597D01*
X15083Y5593D01*
X15089Y5589D01*
X15114Y5564D01*
X15193Y5531D01*
X15279D01*
X15359Y5564D01*
X15364Y5570D01*
X15411Y5551D01*
Y5139D01*
X15347D01*
Y4152D01*
X16070D01*
Y5139D01*
X16007D01*
Y6145D01*
X15996Y6198D01*
X15965Y6244D01*
X15023Y7186D01*
X14978Y7216D01*
X14924Y7227D01*
X13959D01*
X13526Y7659D01*
Y8268D01*
X13516Y8321D01*
X13485Y8367D01*
X11714Y10139D01*
X11668Y10169D01*
X11614Y10180D01*
X5866D01*
X5812Y10169D01*
X5767Y10139D01*
X5294Y9666D01*
X5264Y9621D01*
X5253Y9567D01*
Y9561D01*
X5236Y9518D01*
X4606D01*
X4589Y9561D01*
Y9902D01*
X5176Y10489D01*
X9331D01*
X9384Y10500D01*
X9430Y10531D01*
X9863Y10964D01*
X9894Y11009D01*
X9904Y11063D01*
Y13116D01*
X17041Y20253D01*
X17201D01*
X17226Y20203D01*
X17215Y20189D01*
X17132D01*
X17079Y20178D01*
X17033Y20148D01*
X12893Y16008D01*
X12862Y15962D01*
X12852Y15908D01*
Y10292D01*
X12775Y10260D01*
X12714Y10199D01*
X12681Y10119D01*
Y10033D01*
X12669Y10015D01*
X12634D01*
X12555Y9983D01*
X12494Y9922D01*
X12461Y9842D01*
Y9756D01*
X12494Y9676D01*
X12555Y9615D01*
X12634Y9582D01*
X12720D01*
X12800Y9615D01*
X12825Y9640D01*
X12830Y9644D01*
X12835Y9648D01*
X12837Y9650D01*
X12840Y9651D01*
X12843Y9653D01*
X12847Y9655D01*
X12852Y9656D01*
X12859Y9658D01*
X12865Y9658D01*
X13045D01*
X13099Y9669D01*
X13144Y9700D01*
X13288Y9843D01*
X13319Y9889D01*
X13329Y9943D01*
Y15769D01*
X17081Y19520D01*
X17086Y19519D01*
X17091Y19517D01*
X17096Y19515D01*
X17099Y19514D01*
X17102Y19512D01*
X17104Y19510D01*
X17109Y19506D01*
X17114Y19503D01*
X17139Y19478D01*
X17218Y19445D01*
X17305D01*
X17384Y19478D01*
X17445Y19539D01*
X17478Y19618D01*
Y19705D01*
X17445Y19784D01*
X17417Y19812D01*
X17438Y19862D01*
X17484D01*
X17564Y19895D01*
X17625Y19956D01*
X17657Y20036D01*
Y20122D01*
X17646Y20149D01*
X17685Y20187D01*
X17710Y20176D01*
X17796D01*
X17876Y20209D01*
X17937Y20270D01*
X17970Y20350D01*
Y20411D01*
X17996Y20445D01*
X18016Y20452D01*
X18088D01*
X18167Y20485D01*
X18228Y20546D01*
X18261Y20626D01*
Y20712D01*
X18228Y20791D01*
X18167Y20852D01*
X18088Y20885D01*
X18002D01*
X17922Y20852D01*
X17897Y20827D01*
X17892Y20824D01*
X17887Y20820D01*
X17885Y20818D01*
X17882Y20816D01*
X17879Y20815D01*
X17875Y20813D01*
X17869Y20811D01*
X17863Y20810D01*
X17857Y20809D01*
X16980D01*
X16926Y20798D01*
X16880Y20768D01*
X9492Y13380D01*
X9442Y13400D01*
Y15078D01*
X12980Y18617D01*
X13013Y18666D01*
X13025Y18723D01*
Y23157D01*
X14628D01*
X14632Y23156D01*
X14639Y23155D01*
X14645Y23154D01*
X14648Y23153D01*
X14650Y23152D01*
X14651Y23151D01*
X14656Y23148D01*
X14680Y23124D01*
X14760Y23091D01*
X14846D01*
X14926Y23124D01*
X14987Y23184D01*
X15020Y23264D01*
Y23350D01*
X15002Y23392D01*
X15036Y23442D01*
X17812D01*
X18084Y23437D01*
X18110Y23435D01*
X18194Y23410D01*
X18267Y23369D01*
X18331Y23312D01*
X18387Y23236D01*
X18434Y23139D01*
X18473Y23021D01*
X18501Y22882D01*
X18518Y22721D01*
X18520Y22645D01*
Y14064D01*
X18519Y14055D01*
X18538Y13906D01*
X18596Y13767D01*
X18636Y13715D01*
X18638Y13710D01*
X18673Y13660D01*
X18703Y13610D01*
X18729Y13557D01*
X18752Y13500D01*
X18767Y13456D01*
X18760Y13406D01*
X18760D01*
Y13330D01*
X18760Y13329D01*
X18760Y13328D01*
Y13327D01*
X18759Y13326D01*
X18760Y13324D01*
Y13244D01*
X18749Y13242D01*
X18585Y13231D01*
X15965D01*
X15911Y13220D01*
X15865Y13190D01*
X14153Y11477D01*
X14122Y11432D01*
X14111Y11378D01*
Y10778D01*
X14111Y10772D01*
X14109Y10766D01*
X14108Y10761D01*
X14106Y10756D01*
X14104Y10753D01*
X14103Y10750D01*
X14101Y10748D01*
X14097Y10743D01*
X14093Y10738D01*
X14068Y10713D01*
X14035Y10634D01*
Y10547D01*
X14068Y10468D01*
X14129Y10407D01*
X14209Y10374D01*
X14295D01*
X14375Y10407D01*
X14436Y10468D01*
X14468Y10547D01*
Y10634D01*
X14436Y10713D01*
X14411Y10738D01*
X14407Y10743D01*
X14403Y10748D01*
X14401Y10750D01*
X14400Y10753D01*
X14398Y10756D01*
X14396Y10761D01*
X14395Y10766D01*
X14393Y10772D01*
X14392Y10778D01*
Y11320D01*
X16023Y12950D01*
X18560D01*
X18642Y12948D01*
X18748Y12939D01*
X18760Y12937D01*
Y12776D01*
X19429D01*
Y13324D01*
X19429Y13326D01*
X19429Y13327D01*
Y13328D01*
X19429Y13329D01*
X19429Y13330D01*
Y13406D01*
X19429Y13406D01*
X19422Y13456D01*
X19437Y13500D01*
X19460Y13557D01*
X19486Y13610D01*
X19516Y13660D01*
X19551Y13710D01*
X19553Y13715D01*
X19594Y13768D01*
X19652Y13907D01*
X19671Y14056D01*
Y23819D01*
Y27165D01*
X19652Y27314D01*
X19594Y27453D01*
X19503Y27573D01*
X19384Y27664D01*
X19381Y27665D01*
X19383Y27678D01*
X19389Y27704D01*
X19395Y27726D01*
X19403Y27744D01*
X19411Y27759D01*
X19419Y27771D01*
X19430Y27784D01*
X19433Y27788D01*
X19473Y27828D01*
X19535Y27936D01*
X19567Y28056D01*
Y28180D01*
X19535Y28300D01*
X19473Y28408D01*
X19385Y28496D01*
X19277Y28558D01*
X19157Y28591D01*
X19032D01*
X18912Y28558D01*
X18804Y28496D01*
X18757Y28449D01*
X18751Y28444D01*
X18719Y28412D01*
X18688Y28385D01*
X18659Y28361D01*
X18630Y28341D01*
X18602Y28324D01*
X18575Y28311D01*
X18549Y28301D01*
X18524Y28294D01*
X18502Y28291D01*
X18106D01*
X17917Y28480D01*
Y30017D01*
X17917Y30026D01*
X17920Y30050D01*
X17924Y30070D01*
X17926Y30079D01*
X17982D01*
Y30157D01*
X17983Y30159D01*
X17982Y30160D01*
Y30548D01*
X17983Y30550D01*
X17982Y30552D01*
Y30630D01*
X17942D01*
X17942Y30632D01*
X17937Y30695D01*
Y30876D01*
X17938Y30903D01*
X17940Y30924D01*
X17940Y30925D01*
X17972D01*
Y31003D01*
X17973Y31005D01*
X17972Y31007D01*
Y31634D01*
D02*
G37*
G36*
X7346Y30591D02*
X7221D01*
X7101Y30558D01*
X6993Y30496D01*
X6905Y30408D01*
X6843Y30300D01*
X6811Y30180D01*
Y30056D01*
X6843Y29936D01*
X6905Y29828D01*
X6993Y29740D01*
X7101Y29678D01*
X7221Y29646D01*
X7346D01*
X7466Y29678D01*
X7574Y29740D01*
X7662Y29828D01*
X7724Y29936D01*
X7756Y30056D01*
Y30180D01*
X7724Y30300D01*
X7662Y30408D01*
X7574Y30496D01*
X7466Y30558D01*
X7346Y30591D01*
D02*
G37*
G36*
X15698Y30068D02*
X15254D01*
Y30053D01*
X15288Y29928D01*
X15353Y29815D01*
X15445Y29723D01*
X15557Y29658D01*
X15683Y29624D01*
X15698D01*
Y30068D01*
D02*
G37*
G36*
X21881Y29109D02*
Y28790D01*
X22200D01*
X22175Y28883D01*
X22126Y28967D01*
X22057Y29036D01*
X21973Y29084D01*
X21881Y29109D01*
D02*
G37*
G36*
X21781D02*
X21688Y29084D01*
X21604Y29036D01*
X21535Y28967D01*
X21487Y28883D01*
X21462Y28790D01*
X21781D01*
Y29109D01*
D02*
G37*
G36*
X22200Y28690D02*
X21881D01*
Y28371D01*
X21973Y28396D01*
X22057Y28445D01*
X22126Y28513D01*
X22175Y28598D01*
X22200Y28690D01*
D02*
G37*
G36*
X21781D02*
X21462D01*
X21487Y28598D01*
X21535Y28513D01*
X21604Y28445D01*
X21688Y28396D01*
X21781Y28371D01*
Y28690D01*
D02*
G37*
G36*
X8487Y25717D02*
X8485Y25717D01*
X8054D01*
X8054Y25717D01*
X8053Y25717D01*
X8053Y25717D01*
X8051Y25717D01*
X7969D01*
Y25643D01*
X7968Y25642D01*
X7966Y25605D01*
X7959Y25570D01*
X7948Y25533D01*
X7931Y25494D01*
X7909Y25451D01*
X7881Y25407D01*
X7849Y25361D01*
X7763Y25260D01*
X7743Y25238D01*
X7722Y25217D01*
X7667Y25164D01*
X7493Y25012D01*
X7418Y24956D01*
X7351Y24911D01*
X7292Y24879D01*
X7251Y24863D01*
X7130D01*
X7129Y24863D01*
X7127Y24863D01*
X6477D01*
Y23956D01*
X7642D01*
X7719Y23878D01*
X7791Y23830D01*
X7876Y23814D01*
X8057D01*
X8083Y23811D01*
X8117Y23806D01*
X8145Y23798D01*
X8164Y23790D01*
X8177Y23783D01*
X8184Y23777D01*
X8187Y23772D01*
X8188Y23767D01*
X8189Y23762D01*
Y23652D01*
X8463D01*
X8493Y23621D01*
X8539Y23591D01*
X8593Y23580D01*
X9026D01*
Y23573D01*
X9104D01*
X9106Y23572D01*
X9107Y23573D01*
X9439D01*
Y23829D01*
Y24124D01*
X9107D01*
X9106Y24124D01*
X9104Y24124D01*
X9026D01*
Y24117D01*
X9025Y24117D01*
X8744D01*
X8740Y24117D01*
Y24144D01*
X8662D01*
X8661Y24144D01*
X8659Y24144D01*
X8501D01*
X8454Y24191D01*
X8383Y24238D01*
X8298Y24255D01*
X7967D01*
X7954Y24268D01*
Y24414D01*
X7954Y24415D01*
X7954Y24417D01*
Y24570D01*
X7957Y24588D01*
Y24627D01*
X7995Y24681D01*
X8125Y24833D01*
X8158Y24867D01*
X8256Y24952D01*
X8299Y24985D01*
X8340Y25013D01*
X8378Y25035D01*
X8412Y25052D01*
X8441Y25063D01*
X8466Y25069D01*
X8494Y25071D01*
X8494Y25071D01*
X8567D01*
Y25143D01*
X8567Y25145D01*
X8572Y25148D01*
X8585Y25155D01*
X8606Y25161D01*
X8634Y25167D01*
X8697Y25173D01*
X8886D01*
X8907Y25154D01*
Y25018D01*
X9557D01*
Y25411D01*
X9230D01*
X9213Y25415D01*
X9159D01*
X9155Y25419D01*
X9140Y25436D01*
X9137Y25442D01*
X9136Y25442D01*
X9129Y25478D01*
X9081Y25550D01*
X9010Y25598D01*
X8925Y25614D01*
X8688D01*
X8671Y25616D01*
X8635Y25620D01*
X8606Y25626D01*
X8585Y25633D01*
X8572Y25639D01*
X8567Y25642D01*
X8567Y25645D01*
Y25717D01*
X8489D01*
X8487Y25717D01*
D02*
G37*
G36*
X23387Y26270D02*
X23312D01*
X23240Y26250D01*
X23175Y26213D01*
X23122Y26160D01*
X23084Y26095D01*
X23064Y26022D01*
Y25947D01*
X23084Y25874D01*
X23122Y25809D01*
X23175Y25756D01*
X23240Y25718D01*
X23312Y25699D01*
X23387D01*
X23460Y25718D01*
X23525Y25756D01*
X23578Y25809D01*
X23616Y25874D01*
X23635Y25947D01*
Y26022D01*
X23616Y26095D01*
X23578Y26160D01*
X23525Y26213D01*
X23460Y26250D01*
X23387Y26270D01*
D02*
G37*
G36*
X10186Y24124D02*
X10184Y24124D01*
X9852D01*
Y23829D01*
Y23573D01*
Y23317D01*
X10266D01*
Y23590D01*
X10270Y23590D01*
X10662D01*
X10668Y23590D01*
X10669Y23589D01*
Y23553D01*
X10713D01*
X10714Y23547D01*
X10718Y23524D01*
X10724Y23437D01*
Y23296D01*
X10586Y23272D01*
X10536Y23266D01*
X10528Y23264D01*
X10467Y23256D01*
X10352Y23208D01*
X10254Y23132D01*
X9878Y22757D01*
X6057D01*
X5934Y22741D01*
X5819Y22693D01*
X5720Y22618D01*
X5644Y22519D01*
X5597Y22404D01*
X5581Y22281D01*
Y20932D01*
Y20152D01*
X3246Y17817D01*
X3170Y17719D01*
X3122Y17604D01*
X3106Y17480D01*
Y12091D01*
X3056Y12079D01*
X2986Y12217D01*
X2880Y12363D01*
X2753Y12490D01*
X2607Y12596D01*
X2447Y12678D01*
X2276Y12733D01*
X2098Y12761D01*
X2058D01*
Y11618D01*
Y10475D01*
X2098D01*
X2276Y10503D01*
X2447Y10559D01*
X2607Y10640D01*
X2753Y10746D01*
X2880Y10873D01*
X2986Y11019D01*
X3056Y11157D01*
X3106Y11145D01*
Y10620D01*
X3052Y10549D01*
X3004Y10434D01*
X2988Y10311D01*
Y10276D01*
X3004Y10152D01*
X3052Y10037D01*
X3128Y9939D01*
X3226Y9863D01*
X3341Y9815D01*
X3465Y9799D01*
X3588Y9815D01*
X3703Y9863D01*
X3802Y9939D01*
X3877Y10037D01*
X3886Y10059D01*
X3920Y10092D01*
X3995Y10191D01*
X4043Y10306D01*
X4059Y10429D01*
Y17283D01*
X5442Y18666D01*
X5492Y18645D01*
Y18627D01*
X5525Y18547D01*
X5586Y18486D01*
X5666Y18453D01*
X5701D01*
X5707Y18452D01*
X5713Y18452D01*
X5716Y18451D01*
X5719Y18450D01*
X5723Y18449D01*
X5727Y18447D01*
X5732Y18445D01*
X5737Y18441D01*
X5742Y18438D01*
X6828Y17352D01*
Y11763D01*
X6827Y11756D01*
X6826Y11750D01*
X6824Y11745D01*
X6822Y11741D01*
X6821Y11737D01*
X6819Y11735D01*
X6818Y11733D01*
X6813Y11728D01*
X6810Y11722D01*
X6785Y11697D01*
X6752Y11618D01*
Y11532D01*
X6785Y11452D01*
X6846Y11391D01*
X6925Y11358D01*
X7012D01*
X7091Y11391D01*
X7152Y11452D01*
X7185Y11532D01*
Y11618D01*
X7152Y11697D01*
X7127Y11722D01*
X7124Y11728D01*
X7119Y11732D01*
X7118Y11735D01*
X7116Y11737D01*
X7115Y11741D01*
X7113Y11745D01*
X7111Y11750D01*
X7110Y11756D01*
X7109Y11763D01*
Y17410D01*
X7098Y17464D01*
X7068Y17509D01*
X5941Y18636D01*
X5937Y18641D01*
X5934Y18647D01*
X5931Y18652D01*
X5929Y18656D01*
X5928Y18659D01*
X5927Y18662D01*
X5927Y18665D01*
X5927Y18672D01*
X5925Y18678D01*
Y18713D01*
X5892Y18793D01*
X5831Y18853D01*
X5752Y18886D01*
X5733D01*
X5713Y18936D01*
X6394Y19618D01*
X6470Y19717D01*
X6517Y19831D01*
X6534Y19955D01*
Y20932D01*
Y21804D01*
X10076D01*
X10199Y21820D01*
X10314Y21868D01*
X10413Y21944D01*
X10927Y22458D01*
X11003Y22557D01*
X11051Y22672D01*
X11059Y22733D01*
X11061Y22741D01*
X11068Y22792D01*
X11086Y22916D01*
X11097Y22972D01*
X11102Y22990D01*
X11104Y22999D01*
X11149Y23065D01*
X11166Y23150D01*
Y23448D01*
X11168Y23491D01*
X11171Y23523D01*
X11175Y23543D01*
X11220Y23553D01*
D01*
X11266Y23546D01*
X11296Y23533D01*
X11382D01*
X11461Y23566D01*
X11522Y23627D01*
X11555Y23707D01*
Y23793D01*
X11522Y23873D01*
X11461Y23934D01*
X11382Y23967D01*
X11296D01*
X11270Y23956D01*
X11220Y23982D01*
Y24045D01*
X10868D01*
X10838Y24076D01*
X10792Y24106D01*
X10738Y24117D01*
X10266D01*
Y24124D01*
X10188D01*
X10186Y24124D01*
D02*
G37*
G36*
X6526Y29016D02*
X5994D01*
Y28504D01*
X6364D01*
X6378Y28501D01*
X6702D01*
X6750Y28453D01*
X6752Y28450D01*
X6762Y28434D01*
X6773Y28413D01*
X6782Y28386D01*
X6790Y28355D01*
X6798Y28318D01*
X6803Y28277D01*
X6809Y28178D01*
X6809Y28122D01*
X6810Y28118D01*
X6809Y28115D01*
X6809Y28058D01*
X6803Y27959D01*
X6798Y27918D01*
X6790Y27881D01*
X6782Y27850D01*
X6773Y27823D01*
X6762Y27802D01*
X6752Y27786D01*
X6750Y27783D01*
X5523Y26556D01*
X4132D01*
X4079Y26546D01*
X4033Y26515D01*
X3129Y25611D01*
X3099Y25566D01*
X3088Y25512D01*
Y21403D01*
X3038Y21391D01*
X2986Y21493D01*
X2880Y21639D01*
X2753Y21766D01*
X2607Y21872D01*
X2447Y21953D01*
X2276Y22009D01*
X2098Y22037D01*
X2058D01*
Y20944D01*
X3151D01*
Y20984D01*
X3150Y20994D01*
X3194Y21017D01*
X4492Y19719D01*
X4496Y19713D01*
X4499Y19708D01*
X4502Y19703D01*
X4504Y19699D01*
X4505Y19696D01*
X4506Y19693D01*
X4506Y19690D01*
X4506Y19683D01*
X4508Y19677D01*
Y19642D01*
X4541Y19562D01*
X4602Y19501D01*
X4681Y19468D01*
X4767D01*
X4847Y19501D01*
X4908Y19562D01*
X4941Y19642D01*
Y19728D01*
X4908Y19808D01*
X4847Y19869D01*
X4767Y19902D01*
X4732D01*
X4726Y19903D01*
X4720Y19903D01*
X4717Y19904D01*
X4714Y19904D01*
X4710Y19906D01*
X4706Y19907D01*
X4701Y19910D01*
X4696Y19913D01*
X4691Y19917D01*
X3369Y21239D01*
Y25454D01*
X4191Y26275D01*
X5581D01*
X5635Y26286D01*
X5680Y26316D01*
X6949Y27585D01*
X6951Y27587D01*
X6968Y27597D01*
X6989Y27607D01*
X7015Y27617D01*
X7047Y27625D01*
X7083Y27632D01*
X7124Y27638D01*
X7224Y27644D01*
X7280Y27644D01*
X7287Y27646D01*
X7346D01*
X7466Y27678D01*
X7574Y27740D01*
X7662Y27828D01*
X7724Y27936D01*
X7756Y28056D01*
Y28180D01*
X7724Y28300D01*
X7662Y28408D01*
X7574Y28496D01*
X7466Y28558D01*
X7346Y28591D01*
X7287D01*
X7280Y28592D01*
X7224Y28592D01*
X7124Y28599D01*
X7083Y28604D01*
X7047Y28611D01*
X7015Y28620D01*
X6989Y28629D01*
X6968Y28639D01*
X6951Y28649D01*
X6949Y28652D01*
X6859Y28741D01*
X6814Y28772D01*
X6760Y28782D01*
X6538D01*
X6531Y28783D01*
X6526Y28784D01*
Y29016D01*
D02*
G37*
G36*
X5110Y21332D02*
X5107D01*
Y20982D01*
X5457D01*
Y20985D01*
X5430Y21086D01*
X5377Y21177D01*
X5303Y21252D01*
X5212Y21305D01*
X5110Y21332D01*
D02*
G37*
G36*
X5007D02*
X5004D01*
X4903Y21305D01*
X4812Y21252D01*
X4737Y21177D01*
X4684Y21086D01*
X4657Y20985D01*
Y20982D01*
X5007D01*
Y21332D01*
D02*
G37*
G36*
X11192Y22037D02*
X11152D01*
Y20944D01*
X12246D01*
Y20984D01*
X12218Y21161D01*
X12162Y21333D01*
X12080Y21493D01*
X11974Y21639D01*
X11847Y21766D01*
X11702Y21872D01*
X11541Y21953D01*
X11370Y22009D01*
X11192Y22037D01*
D02*
G37*
G36*
X11052D02*
X11012D01*
X10835Y22009D01*
X10663Y21953D01*
X10503Y21872D01*
X10358Y21766D01*
X10230Y21639D01*
X10125Y21493D01*
X10043Y21333D01*
X9987Y21161D01*
X9959Y20984D01*
Y20944D01*
X11052D01*
Y22037D01*
D02*
G37*
G36*
X1958D02*
X1918D01*
X1740Y22009D01*
X1569Y21953D01*
X1409Y21872D01*
X1263Y21766D01*
X1136Y21639D01*
X1030Y21493D01*
X948Y21333D01*
X893Y21161D01*
X865Y20984D01*
Y20944D01*
X1958D01*
Y22037D01*
D02*
G37*
G36*
X5457Y20882D02*
X5107D01*
Y20532D01*
X5110D01*
X5212Y20559D01*
X5303Y20612D01*
X5377Y20686D01*
X5430Y20777D01*
X5457Y20879D01*
Y20882D01*
D02*
G37*
G36*
X5007D02*
X4657D01*
Y20879D01*
X4684Y20777D01*
X4737Y20686D01*
X4812Y20612D01*
X4903Y20559D01*
X5004Y20532D01*
X5007D01*
Y20882D01*
D02*
G37*
G36*
X8107Y21332D02*
X8007D01*
X7911Y21306D01*
X7825Y21256D01*
X7754Y21186D01*
X7704Y21099D01*
X7678Y21003D01*
Y20903D01*
X7704Y20807D01*
X7754Y20721D01*
X7825Y20650D01*
X7911Y20600D01*
X8007Y20574D01*
X8055D01*
Y20198D01*
X8008Y20179D01*
X7482Y20705D01*
X7475Y20717D01*
X7467Y20731D01*
X7460Y20750D01*
X7453Y20771D01*
X7447Y20796D01*
X7443Y20823D01*
X7438Y20891D01*
X7437Y20930D01*
X7436Y20937D01*
Y20982D01*
X7410Y21078D01*
X7360Y21164D01*
X7290Y21235D01*
X7203Y21285D01*
X7107Y21311D01*
X7007D01*
X6911Y21285D01*
X6825Y21235D01*
X6754Y21164D01*
X6704Y21078D01*
X6678Y20982D01*
Y20882D01*
X6704Y20786D01*
X6754Y20699D01*
X6825Y20629D01*
X6911Y20579D01*
X7007Y20553D01*
X7051D01*
X7058Y20552D01*
X7134Y20549D01*
X7165Y20546D01*
X7193Y20542D01*
X7218Y20536D01*
X7239Y20529D01*
X7257Y20522D01*
X7272Y20514D01*
X7284Y20507D01*
X7858Y19932D01*
Y12947D01*
X7868Y12893D01*
X7899Y12847D01*
X8390Y12356D01*
X8394Y12351D01*
X8397Y12346D01*
X8400Y12341D01*
X8401Y12337D01*
X8403Y12333D01*
X8403Y12330D01*
X8404Y12328D01*
X8404Y12321D01*
X8406Y12315D01*
Y12280D01*
X8438Y12200D01*
X8499Y12139D01*
X8579Y12106D01*
X8665D01*
X8745Y12139D01*
X8806Y12200D01*
X8839Y12280D01*
Y12366D01*
X8806Y12445D01*
X8745Y12506D01*
X8665Y12539D01*
X8630D01*
X8624Y12541D01*
X8617Y12541D01*
X8615Y12541D01*
X8612Y12542D01*
X8608Y12543D01*
X8604Y12545D01*
X8599Y12548D01*
X8594Y12551D01*
X8589Y12555D01*
X8337Y12807D01*
X8360Y12854D01*
X8429D01*
X8508Y12887D01*
X8569Y12948D01*
X8602Y13028D01*
Y13114D01*
X8569Y13194D01*
X8508Y13254D01*
X8429Y13287D01*
X8422D01*
X8419Y13288D01*
X8415Y13290D01*
X8401Y13299D01*
X8396Y13303D01*
X8389Y13309D01*
X8336Y13362D01*
Y20685D01*
X8334Y20694D01*
X8360Y20721D01*
X8410Y20807D01*
X8436Y20903D01*
Y21003D01*
X8410Y21099D01*
X8360Y21186D01*
X8290Y21256D01*
X8203Y21306D01*
X8107Y21332D01*
D02*
G37*
G36*
X12246Y20844D02*
X11152D01*
Y19750D01*
X11192D01*
X11370Y19779D01*
X11541Y19834D01*
X11702Y19916D01*
X11847Y20022D01*
X11974Y20149D01*
X12080Y20294D01*
X12162Y20455D01*
X12218Y20626D01*
X12246Y20804D01*
Y20844D01*
D02*
G37*
G36*
X11052D02*
X9959D01*
Y20804D01*
X9987Y20626D01*
X10043Y20455D01*
X10125Y20294D01*
X10230Y20149D01*
X10358Y20022D01*
X10503Y19916D01*
X10663Y19834D01*
X10835Y19779D01*
X11012Y19750D01*
X11052D01*
Y20844D01*
D02*
G37*
G36*
X3151D02*
X2058D01*
Y19750D01*
X2098D01*
X2276Y19779D01*
X2447Y19834D01*
X2607Y19916D01*
X2753Y20022D01*
X2880Y20149D01*
X2986Y20294D01*
X3067Y20455D01*
X3123Y20626D01*
X3151Y20804D01*
Y20844D01*
D02*
G37*
G36*
X1958D02*
X865D01*
Y20804D01*
X893Y20626D01*
X948Y20455D01*
X1030Y20294D01*
X1136Y20149D01*
X1263Y20022D01*
X1409Y19916D01*
X1569Y19834D01*
X1740Y19779D01*
X1918Y19750D01*
X1958D01*
Y20844D01*
D02*
G37*
G36*
X11192Y12761D02*
X11152D01*
Y11668D01*
X12246D01*
Y11708D01*
X12218Y11886D01*
X12162Y12057D01*
X12080Y12217D01*
X11974Y12363D01*
X11847Y12490D01*
X11702Y12596D01*
X11541Y12678D01*
X11370Y12733D01*
X11192Y12761D01*
D02*
G37*
G36*
X11052D02*
X11012D01*
X10835Y12733D01*
X10663Y12678D01*
X10503Y12596D01*
X10358Y12490D01*
X10230Y12363D01*
X10125Y12217D01*
X10043Y12057D01*
X9987Y11886D01*
X9959Y11708D01*
Y11668D01*
X11052D01*
Y12761D01*
D02*
G37*
G36*
X1958D02*
X1918D01*
X1740Y12733D01*
X1569Y12678D01*
X1409Y12596D01*
X1263Y12490D01*
X1136Y12363D01*
X1030Y12217D01*
X948Y12057D01*
X893Y11886D01*
X865Y11708D01*
Y11668D01*
X1958D01*
Y12761D01*
D02*
G37*
G36*
X12246Y11568D02*
X11152D01*
Y10475D01*
X11192D01*
X11370Y10503D01*
X11541Y10559D01*
X11702Y10640D01*
X11847Y10746D01*
X11974Y10873D01*
X12080Y11019D01*
X12162Y11179D01*
X12218Y11350D01*
X12246Y11528D01*
Y11568D01*
D02*
G37*
G36*
X11052D02*
X9959D01*
Y11528D01*
X9987Y11350D01*
X10043Y11179D01*
X10125Y11019D01*
X10230Y10873D01*
X10358Y10746D01*
X10503Y10640D01*
X10663Y10559D01*
X10835Y10503D01*
X11012Y10475D01*
X11052D01*
Y11568D01*
D02*
G37*
G36*
X1958D02*
X865D01*
Y11528D01*
X893Y11350D01*
X948Y11179D01*
X1030Y11019D01*
X1136Y10873D01*
X1263Y10746D01*
X1409Y10640D01*
X1569Y10559D01*
X1740Y10503D01*
X1918Y10475D01*
X1958D01*
Y11568D01*
D02*
G37*
G36*
X19429Y11949D02*
X18760D01*
Y11557D01*
X18756Y11535D01*
X18760Y11514D01*
Y11401D01*
X18759Y11399D01*
X18760Y11397D01*
Y11319D01*
X18832D01*
X18841Y11318D01*
X18842Y11317D01*
X18847Y11311D01*
X18854Y11298D01*
X18861Y11277D01*
X18867Y11249D01*
X18872Y11214D01*
X18874Y11193D01*
Y11102D01*
X18868D01*
Y11024D01*
X18868Y11022D01*
X18868Y11021D01*
Y10633D01*
X18868Y10631D01*
X18868Y10630D01*
X18868Y10629D01*
X18868Y10619D01*
Y10551D01*
X18870D01*
X18874Y10440D01*
Y10322D01*
X15052D01*
X14903Y10303D01*
X14764Y10245D01*
X14645Y10154D01*
X14553Y10034D01*
X14496Y9896D01*
X14482Y9790D01*
X14481Y9788D01*
X14472Y9721D01*
X14456Y9656D01*
X14431Y9586D01*
X14396Y9512D01*
X14352Y9434D01*
X14299Y9353D01*
X14237Y9269D01*
X14125Y9139D01*
X14120Y9134D01*
X14088Y9112D01*
X14059Y9093D01*
X14032Y9079D01*
X14007Y9068D01*
X13985Y9061D01*
X13965Y9057D01*
X13942Y9055D01*
X13942Y9055D01*
X13868D01*
Y8982D01*
X13868Y8982D01*
X13868Y8981D01*
Y8971D01*
X13868Y8970D01*
X13868Y8969D01*
Y8504D01*
X13982D01*
X13983Y8499D01*
X13984Y8491D01*
Y8379D01*
X13983Y8373D01*
X13982Y8368D01*
X13930D01*
Y8290D01*
X13930Y8288D01*
X13930Y8286D01*
Y7380D01*
X14338D01*
Y8368D01*
X14266D01*
X14265Y8373D01*
X14265Y8380D01*
Y8491D01*
X14265Y8499D01*
X14266Y8504D01*
X14360D01*
Y8707D01*
X14375Y8733D01*
X14402Y8771D01*
X14439Y8815D01*
X14574Y8931D01*
X14658Y8994D01*
X14739Y9047D01*
X14817Y9091D01*
X14891Y9126D01*
X14961Y9151D01*
X15026Y9167D01*
X15054Y9171D01*
X16471D01*
Y8368D01*
X14560D01*
Y7380D01*
X16471D01*
Y2959D01*
X16491Y2810D01*
X16549Y2671D01*
X16640Y2552D01*
X16792Y2400D01*
X17255Y1922D01*
X17384Y1775D01*
X17421Y1727D01*
X17439Y1700D01*
X17439Y1698D01*
Y1633D01*
X17514D01*
X17515Y1633D01*
X17517Y1633D01*
X18917D01*
Y1705D01*
X18923Y1758D01*
X18940Y1816D01*
X18971Y1885D01*
X19017Y1965D01*
X19077Y2055D01*
X19150Y2153D01*
X19445Y2489D01*
X19766Y2810D01*
X20197D01*
X20346Y2830D01*
X20485Y2887D01*
X20537Y2928D01*
X20544Y2930D01*
X20608Y2977D01*
X20670Y3018D01*
X20733Y3053D01*
X20795Y3084D01*
X20857Y3110D01*
X20919Y3131D01*
X20981Y3147D01*
X21044Y3158D01*
X21103Y3165D01*
X21168D01*
X21253Y3182D01*
X21324Y3230D01*
X21419Y3324D01*
X21490Y3393D01*
X21547Y3441D01*
X21566Y3456D01*
X21579Y3465D01*
X21644D01*
Y3821D01*
X21665Y3854D01*
X21676Y3907D01*
Y4152D01*
X21739D01*
Y5139D01*
X21017D01*
Y4152D01*
X21080D01*
Y3947D01*
X21091Y3893D01*
X21121Y3848D01*
X21152Y3817D01*
Y3732D01*
X21147Y3711D01*
Y3693D01*
X21144Y3689D01*
X21078Y3609D01*
X21044Y3613D01*
X20981Y3625D01*
X20919Y3641D01*
X20857Y3662D01*
X20795Y3688D01*
X20733Y3718D01*
X20670Y3754D01*
X20608Y3794D01*
X20544Y3841D01*
X20537Y3844D01*
X20485Y3884D01*
X20346Y3942D01*
X20197Y3962D01*
X19528D01*
X19379Y3942D01*
X19240Y3884D01*
X19120Y3793D01*
X18682Y3354D01*
X18331Y3033D01*
X18065Y2820D01*
X18050D01*
X17652Y3169D01*
X17623Y3198D01*
Y4152D01*
X18275D01*
Y5139D01*
X17623D01*
Y5657D01*
X17673Y5667D01*
X17690Y5625D01*
X17751Y5564D01*
X17831Y5531D01*
X17917D01*
X17997Y5564D01*
X18022Y5589D01*
X18027Y5593D01*
X18032Y5597D01*
X18034Y5599D01*
X18037Y5600D01*
X18040Y5602D01*
X18044Y5604D01*
X18049Y5605D01*
X18056Y5607D01*
X18062Y5608D01*
X20551D01*
X20605Y5618D01*
X20651Y5649D01*
X21792Y6790D01*
X21823Y6836D01*
X21833Y6890D01*
Y7380D01*
X22842D01*
Y8368D01*
X21489D01*
Y7380D01*
X21552D01*
Y6948D01*
X20493Y5889D01*
X18062D01*
X18056Y5889D01*
X18049Y5891D01*
X18044Y5892D01*
X18040Y5894D01*
X18037Y5896D01*
X18034Y5897D01*
X18032Y5899D01*
X18027Y5903D01*
X18022Y5907D01*
X17997Y5932D01*
X17917Y5965D01*
X17831D01*
X17751Y5932D01*
X17690Y5871D01*
X17673Y5829D01*
X17623Y5839D01*
Y9171D01*
X18657D01*
Y9111D01*
X18653Y9055D01*
X18632D01*
Y8977D01*
X18632Y8975D01*
X18632Y8973D01*
Y8969D01*
X18632Y8969D01*
X18632Y8968D01*
Y8504D01*
X19124D01*
Y8968D01*
X19124Y8969D01*
X19124Y8969D01*
Y8973D01*
X19124Y8975D01*
X19124Y8977D01*
Y9055D01*
X19106D01*
X19102Y9121D01*
X19148Y9171D01*
X22311D01*
X22312Y9171D01*
X22340Y9167D01*
X22405Y9151D01*
X22474Y9125D01*
X22549Y9089D01*
X22629Y9043D01*
X22713Y8986D01*
X22801Y8919D01*
X22937Y8801D01*
X22960Y8772D01*
X22987Y8733D01*
X23002Y8707D01*
Y8504D01*
X23116D01*
X23117Y8499D01*
X23117Y8491D01*
Y8368D01*
X23064D01*
Y7380D01*
X23471D01*
Y8368D01*
X23398D01*
Y8491D01*
X23399Y8499D01*
X23400Y8504D01*
X23494D01*
Y8969D01*
X23494Y8970D01*
X23494Y8971D01*
Y8981D01*
X23494Y8982D01*
X23494Y8982D01*
Y9055D01*
X23420D01*
X23420Y9055D01*
X23397Y9057D01*
X23377Y9061D01*
X23355Y9068D01*
X23330Y9079D01*
X23303Y9093D01*
X23274Y9112D01*
X23245Y9133D01*
X23138Y9256D01*
X23071Y9344D01*
X23015Y9429D01*
X22968Y9508D01*
X22932Y9583D01*
X22906Y9653D01*
X22890Y9717D01*
X22886Y9745D01*
X22886Y9747D01*
X22867Y9896D01*
X22809Y10034D01*
X22718Y10154D01*
X22598Y10245D01*
X22460Y10303D01*
X22311Y10322D01*
X19315D01*
Y10462D01*
X19320Y10523D01*
X19323Y10548D01*
X19324Y10551D01*
X19360D01*
Y10629D01*
X19361Y10631D01*
X19360Y10633D01*
Y11021D01*
X19361Y11022D01*
X19360Y11024D01*
Y11102D01*
X19324D01*
X19324Y11103D01*
X19316Y11206D01*
X19317Y11214D01*
X19322Y11249D01*
X19328Y11277D01*
X19335Y11298D01*
X19342Y11311D01*
X19347Y11317D01*
X19348Y11318D01*
X19357Y11319D01*
X19429D01*
Y11397D01*
X19429Y11399D01*
X19429Y11401D01*
Y11949D01*
D02*
G37*
G36*
X21267Y8368D02*
X20544D01*
Y7380D01*
X21267D01*
Y8368D01*
D02*
G37*
G36*
X20322D02*
X19284D01*
Y7380D01*
X20322D01*
Y8368D01*
D02*
G37*
G36*
X19062D02*
X18025D01*
Y7380D01*
X19062D01*
Y8368D01*
D02*
G37*
G36*
X23583Y6559D02*
X23504D01*
X23428Y6538D01*
X23360Y6499D01*
X23304Y6443D01*
X23265Y6375D01*
X23244Y6299D01*
Y6221D01*
X23265Y6145D01*
X23304Y6076D01*
X23360Y6021D01*
X23428Y5981D01*
X23504Y5961D01*
X23583D01*
X23659Y5981D01*
X23727Y6021D01*
X23782Y6076D01*
X23822Y6145D01*
X23842Y6221D01*
Y6299D01*
X23822Y6375D01*
X23782Y6443D01*
X23727Y6499D01*
X23659Y6538D01*
X23583Y6559D01*
D02*
G37*
G36*
X11417Y5888D02*
X11024D01*
Y5810D01*
X10974Y5789D01*
X10949Y5813D01*
X10870Y5846D01*
X10784D01*
X10704Y5813D01*
X10643Y5753D01*
X10610Y5673D01*
Y5587D01*
X10643Y5507D01*
X10704Y5446D01*
X10784Y5413D01*
X10870D01*
X10885Y5419D01*
X10974Y5422D01*
X11024Y5387D01*
Y5238D01*
X11417D01*
Y5888D01*
D02*
G37*
G36*
X7431Y6535D02*
X6939D01*
Y6066D01*
X6939Y6064D01*
X6939Y6062D01*
Y5984D01*
X6889Y5984D01*
X6752D01*
Y5642D01*
X6752Y5641D01*
X6752Y5639D01*
Y5601D01*
X6745Y5590D01*
X6717Y5557D01*
X6684Y5524D01*
X6614D01*
Y5541D01*
X6540D01*
X6540Y5541D01*
X6539Y5541D01*
X6536D01*
X6534Y5542D01*
X6533Y5541D01*
X6142D01*
Y5276D01*
X6142Y5226D01*
X6142D01*
Y5226D01*
X6142D01*
Y4911D01*
X6533D01*
X6534Y4911D01*
X6536Y4911D01*
X6539D01*
X6540Y4911D01*
X6540Y4911D01*
X6614D01*
Y4911D01*
X6664Y4919D01*
X6714Y4869D01*
X6734Y4848D01*
X6748Y4830D01*
X6752Y4824D01*
Y4409D01*
X6909D01*
X6939Y4369D01*
X6939Y4367D01*
Y3898D01*
X7431D01*
Y4367D01*
X7431Y4369D01*
X7461Y4409D01*
X7657D01*
Y4747D01*
X7670Y4760D01*
X7739D01*
X7751Y4760D01*
X7775Y4756D01*
X7793Y4752D01*
X7805Y4749D01*
Y4685D01*
X7883D01*
X7885Y4685D01*
X7887Y4685D01*
X8337D01*
Y5197D01*
X7887D01*
X7885Y5197D01*
X7883Y5197D01*
X7805D01*
Y5133D01*
X7793Y5129D01*
X7776Y5126D01*
X7733Y5122D01*
X7596D01*
X7527Y5108D01*
X7468Y5069D01*
X7399Y5000D01*
X6998D01*
X6993Y5002D01*
X6978Y5012D01*
X6910Y5070D01*
X6812Y5168D01*
X6768Y5198D01*
X6767Y5205D01*
X6770Y5249D01*
X6796Y5254D01*
X6841Y5285D01*
X6911Y5354D01*
X6931Y5373D01*
X6948Y5386D01*
X6959Y5394D01*
X6997D01*
X6999Y5393D01*
X7001Y5394D01*
X7305D01*
X7323Y5390D01*
X7488D01*
X7527Y5365D01*
X7596Y5351D01*
X7739D01*
X7751Y5350D01*
X7775Y5347D01*
X7793Y5343D01*
X7805Y5339D01*
Y5276D01*
X7883D01*
X7885Y5275D01*
X7887Y5276D01*
X8337D01*
Y5787D01*
X7887D01*
X7885Y5788D01*
X7883Y5787D01*
X7805D01*
Y5724D01*
X7793Y5720D01*
X7776Y5716D01*
X7733Y5712D01*
X7664D01*
X7657Y5716D01*
Y5984D01*
X7481D01*
X7431Y5984D01*
Y6062D01*
X7431Y6064D01*
X7431Y6066D01*
Y6535D01*
D02*
G37*
G36*
X11793Y5061D02*
X11400D01*
Y4411D01*
X11793D01*
Y4492D01*
X11843Y4526D01*
X11886Y4508D01*
X11972D01*
X12052Y4541D01*
X12113Y4602D01*
X12146Y4681D01*
Y4767D01*
X12113Y4847D01*
X12052Y4908D01*
X11972Y4941D01*
X11886D01*
X11843Y4923D01*
X11793Y4957D01*
Y5061D01*
D02*
G37*
G36*
X23314Y5139D02*
X21962D01*
Y4152D01*
X23314D01*
Y5139D01*
D02*
G37*
G36*
X20479D02*
X19757D01*
Y4152D01*
X20479D01*
Y5139D01*
D02*
G37*
G36*
X19219D02*
X18497D01*
Y4152D01*
X19219D01*
Y5139D01*
D02*
G37*
G36*
X15125D02*
X13773D01*
Y4152D01*
X15125D01*
Y5139D01*
D02*
G37*
%LPD*%
G36*
X12424Y33780D02*
X12421Y33806D01*
X12413Y33829D01*
X12399Y33850D01*
X12379Y33868D01*
X12354Y33883D01*
X12324Y33895D01*
X12288Y33905D01*
X12247Y33912D01*
X12244Y33912D01*
X12154Y33905D01*
X12130Y33900D01*
X12110Y33894D01*
X12096Y33887D01*
X12088Y33878D01*
X12085Y33869D01*
Y34241D01*
X12088Y34232D01*
X12096Y34224D01*
X12110Y34216D01*
X12130Y34210D01*
X12154Y34205D01*
X12185Y34201D01*
X12231Y34197D01*
X12247Y34198D01*
X12288Y34205D01*
X12324Y34215D01*
X12354Y34227D01*
X12379Y34243D01*
X12399Y34260D01*
X12413Y34281D01*
X12421Y34305D01*
X12424Y34331D01*
Y33780D01*
D02*
G37*
G36*
X11143Y33869D02*
X11141Y33886D01*
X11135Y33901D01*
X11125Y33914D01*
X11111Y33925D01*
X11094Y33935D01*
X11072Y33943D01*
X11046Y33949D01*
X11017Y33953D01*
X10983Y33956D01*
X10946Y33957D01*
Y34154D01*
X10983Y34154D01*
X11017Y34157D01*
X11046Y34161D01*
X11072Y34168D01*
X11094Y34175D01*
X11111Y34185D01*
X11125Y34196D01*
X11135Y34209D01*
X11141Y34224D01*
X11143Y34241D01*
Y33869D01*
D02*
G37*
G36*
X18944Y33823D02*
X18942Y33842D01*
X18936Y33858D01*
X18926Y33873D01*
X18912Y33886D01*
X18895Y33897D01*
X18873Y33906D01*
X18847Y33912D01*
X18817Y33917D01*
X18784Y33920D01*
X18746Y33921D01*
Y34118D01*
X18784Y34119D01*
X18817Y34122D01*
X18847Y34127D01*
X18873Y34134D01*
X18895Y34143D01*
X18912Y34154D01*
X18926Y34166D01*
X18936Y34181D01*
X18942Y34198D01*
X18944Y34217D01*
Y33823D01*
D02*
G37*
G36*
X18609Y33921D02*
X18572Y33920D01*
X18538Y33917D01*
X18508Y33912D01*
X18483Y33906D01*
X18461Y33897D01*
X18443Y33886D01*
X18429Y33873D01*
X18419Y33858D01*
X18413Y33842D01*
X18411Y33823D01*
X18412Y34083D01*
X18414Y34090D01*
X18420Y34096D01*
X18430Y34101D01*
X18444Y34106D01*
X18461Y34109D01*
X18483Y34113D01*
X18538Y34117D01*
X18609Y34118D01*
Y33921D01*
D02*
G37*
G36*
X23263Y34187D02*
X23263Y34186D01*
X23283Y34167D01*
X23227Y34111D01*
X23193Y34149D01*
X23262Y34187D01*
X23263Y34187D01*
D02*
G37*
G36*
X23255Y33199D02*
X23137Y33238D01*
X23152Y33239D01*
X23165Y33241D01*
X23177Y33245D01*
X23187Y33251D01*
X23196Y33258D01*
X23203Y33267D01*
X23208Y33277D01*
X23212Y33289D01*
X23215Y33302D01*
X23215Y33317D01*
X23255Y33199D01*
D02*
G37*
G36*
X22892Y33284D02*
X22904Y33275D01*
X22915Y33266D01*
X22926Y33259D01*
X22938Y33252D01*
X22950Y33247D01*
X22961Y33243D01*
X22973Y33240D01*
X22985Y33239D01*
X22997Y33238D01*
Y33159D01*
X22985Y33159D01*
X22973Y33157D01*
X22961Y33154D01*
X22950Y33150D01*
X22938Y33145D01*
X22926Y33139D01*
X22915Y33131D01*
X22904Y33123D01*
X22892Y33113D01*
X22881Y33102D01*
Y33295D01*
X22892Y33284D01*
D02*
G37*
G36*
X23108Y32827D02*
X23092Y32800D01*
X23086Y32788D01*
X23081Y32775D01*
X23076Y32763D01*
X23073Y32751D01*
X23070Y32739D01*
X23069Y32727D01*
X23068Y32715D01*
X22989Y32702D01*
X22989Y32714D01*
X22987Y32726D01*
X22984Y32738D01*
X22979Y32749D01*
X22974Y32760D01*
X22967Y32770D01*
X22959Y32781D01*
X22950Y32790D01*
X22939Y32800D01*
X22927Y32808D01*
X23118Y32840D01*
X23108Y32827D01*
D02*
G37*
G36*
X22742Y32530D02*
X22752Y32530D01*
Y32431D01*
X22742Y32431D01*
Y32382D01*
X22741Y32391D01*
X22738Y32400D01*
X22733Y32407D01*
X22726Y32413D01*
X22717Y32419D01*
X22706Y32423D01*
X22697Y32426D01*
X22688Y32423D01*
X22677Y32419D01*
X22668Y32413D01*
X22661Y32407D01*
X22656Y32400D01*
X22653Y32391D01*
X22652Y32382D01*
Y32431D01*
X22642Y32431D01*
Y32530D01*
X22652Y32530D01*
Y32579D01*
X22653Y32569D01*
X22656Y32561D01*
X22661Y32554D01*
X22668Y32547D01*
X22677Y32542D01*
X22688Y32537D01*
X22697Y32535D01*
X22706Y32537D01*
X22717Y32542D01*
X22726Y32547D01*
X22733Y32554D01*
X22738Y32561D01*
X22741Y32569D01*
X22742Y32579D01*
Y32530D01*
D02*
G37*
G36*
X22545Y32382D02*
X22544Y32391D01*
X22541Y32400D01*
X22536Y32407D01*
X22529Y32413D01*
X22520Y32419D01*
X22509Y32423D01*
X22496Y32427D01*
X22481Y32429D01*
X22464Y32431D01*
X22459Y32431D01*
X22447Y32430D01*
X22430Y32427D01*
X22415Y32422D01*
X22402Y32415D01*
X22392Y32406D01*
X22383Y32396D01*
X22376Y32383D01*
X22371Y32368D01*
X22368Y32351D01*
X22367Y32335D01*
X22368Y32319D01*
X22369Y32302D01*
X22371Y32287D01*
X22375Y32273D01*
X22379Y32262D01*
X22385Y32253D01*
X22391Y32246D01*
X22398Y32241D01*
X22407Y32238D01*
X22416Y32237D01*
X22219Y32239D01*
X22229Y32240D01*
X22237Y32243D01*
X22245Y32247D01*
X22251Y32254D01*
X22256Y32263D01*
X22261Y32274D01*
X22264Y32287D01*
X22267Y32302D01*
X22268Y32319D01*
X22269Y32335D01*
X22268Y32351D01*
X22265Y32368D01*
X22260Y32383D01*
X22253Y32396D01*
X22244Y32406D01*
X22233Y32415D01*
X22220Y32422D01*
X22206Y32427D01*
X22189Y32430D01*
X22170Y32431D01*
X22318Y32530D01*
X22445Y32445D01*
Y32530D01*
X22464Y32530D01*
X22481Y32531D01*
X22496Y32534D01*
X22509Y32537D01*
X22520Y32542D01*
X22529Y32547D01*
X22536Y32554D01*
X22541Y32561D01*
X22544Y32569D01*
X22545Y32579D01*
Y32382D01*
D02*
G37*
G36*
X21652Y32569D02*
X21655Y32561D01*
X21660Y32554D01*
X21667Y32547D01*
X21676Y32542D01*
X21687Y32537D01*
X21700Y32534D01*
X21715Y32531D01*
X21732Y32530D01*
X21751Y32530D01*
Y32431D01*
X21732Y32431D01*
X21715Y32429D01*
X21700Y32427D01*
X21687Y32423D01*
X21676Y32419D01*
X21667Y32413D01*
X21660Y32407D01*
X21655Y32400D01*
X21652Y32391D01*
X21651Y32382D01*
Y32579D01*
X21652Y32569D01*
D02*
G37*
G36*
X21261Y32295D02*
X21259Y32307D01*
X21253Y32319D01*
X21243Y32329D01*
X21230Y32338D01*
X21212Y32345D01*
X21190Y32351D01*
X21165Y32356D01*
X21135Y32359D01*
X21102Y32362D01*
X21064Y32362D01*
Y32559D01*
X21102Y32560D01*
X21165Y32565D01*
X21190Y32570D01*
X21212Y32576D01*
X21230Y32583D01*
X21243Y32592D01*
X21253Y32602D01*
X21259Y32614D01*
X21261Y32627D01*
Y32295D01*
D02*
G37*
G36*
X24293Y32080D02*
X24283Y32079D01*
X24273Y32076D01*
X24262Y32073D01*
X24252Y32068D01*
X24242Y32063D01*
X24232Y32057D01*
X24222Y32050D01*
X24212Y32042D01*
X24202Y32033D01*
X24191Y32023D01*
X24096Y32095D01*
X24106Y32105D01*
X24114Y32116D01*
X24122Y32126D01*
X24128Y32136D01*
X24133Y32147D01*
X24137Y32157D01*
X24139Y32167D01*
X24141Y32178D01*
X24141Y32188D01*
X24140Y32198D01*
X24293Y32080D01*
D02*
G37*
G36*
X24580Y31951D02*
X24570Y31953D01*
X24560Y31953D01*
X24549Y31952D01*
X24539Y31949D01*
X24529Y31946D01*
X24519Y31941D01*
X24508Y31935D01*
X24498Y31928D01*
X24488Y31919D01*
X24477Y31910D01*
X24411Y32010D01*
X24421Y32021D01*
X24438Y32041D01*
X24445Y32051D01*
X24451Y32061D01*
X24457Y32071D01*
X24462Y32081D01*
X24465Y32091D01*
X24468Y32100D01*
X24471Y32110D01*
X24580Y31951D01*
D02*
G37*
G36*
X22114Y32078D02*
X22122Y32071D01*
X22132Y32066D01*
X22141Y32061D01*
X22152Y32057D01*
X22163Y32053D01*
X22175Y32051D01*
X22188Y32049D01*
X22201Y32048D01*
X22215Y32047D01*
X22215Y31929D01*
X22201Y31929D01*
X22188Y31928D01*
X22175Y31926D01*
X22163Y31923D01*
X22152Y31920D01*
X22141Y31916D01*
X22131Y31911D01*
X22122Y31905D01*
X22114Y31899D01*
X22106Y31892D01*
X22106Y32085D01*
X22114Y32078D01*
D02*
G37*
G36*
X20178Y32383D02*
X20196Y32138D01*
X20206Y32071D01*
X20219Y32012D01*
X20234Y31960D01*
X20252Y31917D01*
X20272Y31880D01*
X20294Y31852D01*
X19863D01*
X19886Y31880D01*
X19905Y31917D01*
X19923Y31960D01*
X19938Y32012D01*
X19951Y32071D01*
X19962Y32138D01*
X19976Y32294D01*
X19980Y32480D01*
X20177D01*
X20178Y32383D01*
D02*
G37*
G36*
X24593Y31595D02*
X24583Y31596D01*
X24572Y31595D01*
X24562Y31593D01*
X24552Y31590D01*
X24541Y31586D01*
X24531Y31581D01*
X24521Y31575D01*
X24510Y31567D01*
X24500Y31559D01*
X24490Y31549D01*
X24414Y31640D01*
X24424Y31651D01*
X24440Y31671D01*
X24447Y31681D01*
X24453Y31691D01*
X24458Y31702D01*
X24462Y31712D01*
X24465Y31722D01*
X24468Y31732D01*
X24469Y31743D01*
X24593Y31595D01*
D02*
G37*
G36*
X24560Y31202D02*
X24550Y31203D01*
X24540Y31204D01*
X24530Y31203D01*
X24520Y31201D01*
X24510Y31197D01*
X24500Y31193D01*
X24490Y31187D01*
X24479Y31180D01*
X24469Y31171D01*
X24459Y31161D01*
X24396Y31266D01*
X24406Y31276D01*
X24423Y31296D01*
X24430Y31306D01*
X24442Y31326D01*
X24447Y31336D01*
X24451Y31345D01*
X24455Y31355D01*
X24457Y31364D01*
X24560Y31202D01*
D02*
G37*
G36*
X21563Y29259D02*
X21560Y29284D01*
X21552Y29306D01*
X21538Y29326D01*
X21519Y29343D01*
X21494Y29357D01*
X21463Y29369D01*
X21428Y29378D01*
X21416Y29380D01*
X21381Y29373D01*
X21351Y29363D01*
X21326Y29352D01*
X21307Y29338D01*
X21293Y29323D01*
X21285Y29305D01*
X21282Y29285D01*
Y29770D01*
X21285Y29750D01*
X21293Y29733D01*
X21307Y29717D01*
X21326Y29703D01*
X21351Y29692D01*
X21381Y29682D01*
X21416Y29675D01*
X21428Y29677D01*
X21463Y29686D01*
X21494Y29698D01*
X21519Y29712D01*
X21538Y29729D01*
X21552Y29749D01*
X21560Y29771D01*
X21563Y29796D01*
Y29259D01*
D02*
G37*
G36*
X21150Y29285D02*
X21139Y29290D01*
X21124Y29289D01*
X21105Y29282D01*
X21081Y29269D01*
X21052Y29250D01*
X21020Y29225D01*
X20941Y29155D01*
X20844Y29062D01*
X20621Y29285D01*
X20671Y29335D01*
X20809Y29493D01*
X20828Y29522D01*
X20841Y29546D01*
X20848Y29565D01*
X20849Y29580D01*
X20844Y29591D01*
X21150Y29285D01*
D02*
G37*
G36*
X20295Y29595D02*
X20282Y29568D01*
X20272Y29535D01*
X20262Y29496D01*
X20254Y29450D01*
X20244Y29350D01*
X20250Y29252D01*
X20255Y29230D01*
X20261Y29214D01*
X20267Y29205D01*
X20274Y29202D01*
X20237D01*
X20236Y29132D01*
X19921D01*
X19921Y29202D01*
X19883D01*
X19890Y29205D01*
X19897Y29214D01*
X19903Y29230D01*
X19908Y29252D01*
X19912Y29280D01*
X19914Y29304D01*
X19903Y29450D01*
X19895Y29496D01*
X19886Y29535D01*
X19875Y29568D01*
X19863Y29595D01*
X19849Y29616D01*
X20308D01*
X20295Y29595D01*
D02*
G37*
G36*
X20589Y28974D02*
X20530Y28973D01*
X20429Y28965D01*
X20388Y28957D01*
X20353Y28948D01*
X20325Y28936D01*
X20303Y28923D01*
X20287Y28907D01*
X20278Y28889D01*
X20274Y28869D01*
Y29202D01*
X20278Y29218D01*
X20287Y29233D01*
X20303Y29246D01*
X20325Y29258D01*
X20353Y29267D01*
X20388Y29275D01*
X20429Y29281D01*
X20476Y29286D01*
X20589Y29289D01*
Y28974D01*
D02*
G37*
G36*
X19400Y29371D02*
X19425Y29351D01*
X19453Y29333D01*
X19482Y29318D01*
X19513Y29305D01*
X19545Y29294D01*
X19579Y29286D01*
X19615Y29280D01*
X19652Y29277D01*
X19692Y29276D01*
Y29247D01*
X19883Y29202D01*
Y28869D01*
X19880Y28887D01*
X19870Y28902D01*
X19855Y28916D01*
X19833Y28928D01*
X19804Y28938D01*
X19770Y28946D01*
X19729Y28952D01*
X19682Y28957D01*
X19640Y28958D01*
X19615Y28956D01*
X19579Y28950D01*
X19545Y28942D01*
X19513Y28931D01*
X19482Y28918D01*
X19453Y28903D01*
X19425Y28885D01*
X19400Y28865D01*
X19376Y28843D01*
Y29394D01*
X19400Y29371D01*
D02*
G37*
G36*
X18944Y32921D02*
X18943Y32932D01*
X18939Y32942D01*
X18933Y32951D01*
X18925Y32959D01*
X18914Y32965D01*
X18901Y32970D01*
X18886Y32975D01*
X18868Y32978D01*
X18848Y32979D01*
X18825Y32980D01*
Y33098D01*
X18848Y33099D01*
X18868Y33100D01*
X18886Y33103D01*
X18901Y33108D01*
X18914Y33113D01*
X18925Y33119D01*
X18933Y33127D01*
X18939Y33136D01*
X18943Y33146D01*
X18944Y33157D01*
Y32921D01*
D02*
G37*
G36*
X17539Y32997D02*
X17524Y32981D01*
X17511Y32964D01*
X17499Y32947D01*
X17489Y32928D01*
X17480Y32909D01*
X17473Y32889D01*
X17468Y32868D01*
X17464Y32846D01*
X17461Y32824D01*
X17461Y32801D01*
X17343Y32766D01*
X17341Y32788D01*
X17338Y32809D01*
X17332Y32826D01*
X17324Y32842D01*
X17313Y32855D01*
X17300Y32865D01*
X17285Y32874D01*
X17267Y32879D01*
X17247Y32883D01*
X17224Y32884D01*
X17259Y33002D01*
X17282Y33003D01*
X17305Y33005D01*
X17326Y33009D01*
X17347Y33015D01*
X17367Y33022D01*
X17386Y33031D01*
X17405Y33041D01*
X17423Y33052D01*
X17440Y33066D01*
X17456Y33081D01*
X17539Y32997D01*
D02*
G37*
G36*
X17461Y32634D02*
X17463Y32614D01*
X17466Y32596D01*
X17470Y32581D01*
X17475Y32568D01*
X17481Y32557D01*
X17489Y32549D01*
X17498Y32543D01*
X17507Y32539D01*
X17518Y32538D01*
X17285D01*
X17296Y32539D01*
X17306Y32543D01*
X17314Y32549D01*
X17322Y32557D01*
X17328Y32568D01*
X17333Y32581D01*
X17337Y32596D01*
X17340Y32614D01*
X17342Y32634D01*
X17343Y32656D01*
X17461D01*
X17461Y32634D01*
D02*
G37*
G36*
X14644Y32272D02*
X14469Y32271D01*
X14480Y32272D01*
X14490Y32276D01*
X14499Y32282D01*
X14506Y32290D01*
X14513Y32301D01*
X14518Y32314D01*
X14522Y32330D01*
X14525Y32348D01*
X14527Y32368D01*
X14528Y32391D01*
X14646D01*
X14644Y32272D01*
D02*
G37*
G36*
X13703Y31969D02*
X13702Y31980D01*
X13698Y31990D01*
X13692Y31999D01*
X13684Y32006D01*
X13673Y32013D01*
X13660Y32018D01*
X13645Y32022D01*
X13627Y32025D01*
X13607Y32027D01*
X13584Y32028D01*
Y32146D01*
X13607Y32146D01*
X13627Y32148D01*
X13645Y32151D01*
X13660Y32155D01*
X13673Y32160D01*
X13684Y32167D01*
X13692Y32175D01*
X13698Y32183D01*
X13702Y32194D01*
X13703Y32205D01*
Y31969D01*
D02*
G37*
G36*
X13278Y32194D02*
X13281Y32183D01*
X13287Y32175D01*
X13295Y32167D01*
X13306Y32160D01*
X13319Y32155D01*
X13334Y32151D01*
X13352Y32148D01*
X13372Y32146D01*
X13394Y32146D01*
Y32028D01*
X13372Y32027D01*
X13352Y32025D01*
X13334Y32022D01*
X13319Y32018D01*
X13306Y32013D01*
X13295Y32006D01*
X13287Y31999D01*
X13281Y31990D01*
X13278Y31980D01*
X13276Y31969D01*
Y32205D01*
X13278Y32194D01*
D02*
G37*
G36*
X16911Y31161D02*
X16909Y31173D01*
X16906Y31183D01*
X16900Y31192D01*
X16892Y31199D01*
X16881Y31206D01*
X16868Y31211D01*
X16853Y31215D01*
X16835Y31218D01*
X16815Y31220D01*
X16793Y31220D01*
Y31339D01*
X16815Y31339D01*
X16835Y31341D01*
X16853Y31344D01*
X16868Y31348D01*
X16881Y31353D01*
X16892Y31360D01*
X16900Y31368D01*
X16906Y31376D01*
X16909Y31386D01*
X16911Y31398D01*
Y31161D01*
D02*
G37*
G36*
X15039Y31012D02*
X15043Y31002D01*
X15049Y30993D01*
X15057Y30986D01*
X15068Y30979D01*
X15081Y30974D01*
X15096Y30970D01*
X15114Y30967D01*
X15134Y30965D01*
X15156Y30965D01*
Y30846D01*
X15134Y30846D01*
X15114Y30844D01*
X15096Y30841D01*
X15081Y30837D01*
X15068Y30832D01*
X15057Y30825D01*
X15049Y30818D01*
X15043Y30809D01*
X15039Y30799D01*
X15038Y30787D01*
Y31024D01*
X15039Y31012D01*
D02*
G37*
G36*
X13563Y31155D02*
X13572Y31131D01*
X13586Y31111D01*
X13605Y31093D01*
X13630Y31078D01*
X13660Y31065D01*
X13696Y31056D01*
X13738Y31049D01*
X13785Y31045D01*
X13833Y31043D01*
X13872Y31044D01*
X14027Y31055D01*
X14052Y31061D01*
X14071Y31067D01*
X14085Y31074D01*
X14093Y31082D01*
X14096Y31091D01*
Y30720D01*
X14093Y30729D01*
X14085Y30737D01*
X14071Y30744D01*
X14052Y30750D01*
X14027Y30756D01*
X13996Y30760D01*
X13919Y30766D01*
X13820Y30768D01*
Y30771D01*
X13562Y30818D01*
X13561Y31181D01*
X13563Y31155D01*
D02*
G37*
G36*
X17885Y31003D02*
X17879Y30997D01*
X17873Y30987D01*
X17868Y30974D01*
X17864Y30956D01*
X17860Y30934D01*
X17858Y30909D01*
X17855Y30846D01*
X17854Y30808D01*
X17657D01*
X17659Y31005D01*
X17893D01*
X17885Y31003D01*
D02*
G37*
G36*
X17855Y30709D02*
X17862Y30621D01*
X17866Y30599D01*
X17872Y30581D01*
X17878Y30568D01*
X17885Y30558D01*
X17893Y30552D01*
X17902Y30550D01*
X17570D01*
X17587Y30552D01*
X17602Y30558D01*
X17615Y30568D01*
X17626Y30581D01*
X17636Y30599D01*
X17644Y30621D01*
X17650Y30646D01*
X17654Y30676D01*
X17657Y30709D01*
X17657Y30747D01*
X17854D01*
X17855Y30709D01*
D02*
G37*
G36*
X17889Y30157D02*
X17878Y30151D01*
X17868Y30141D01*
X17859Y30127D01*
X17852Y30109D01*
X17845Y30088D01*
X17841Y30062D01*
X17837Y30033D01*
X17835Y29999D01*
X17835Y29962D01*
X17638D01*
X17637Y29999D01*
X17632Y30062D01*
X17627Y30088D01*
X17621Y30109D01*
X17613Y30127D01*
X17605Y30141D01*
X17594Y30151D01*
X17583Y30157D01*
X17570Y30159D01*
X17902D01*
X17889Y30157D01*
D02*
G37*
G36*
X10995Y29960D02*
X10987Y29919D01*
X10983Y29881D01*
X10984Y29845D01*
X10987Y29810D01*
X10995Y29777D01*
X11007Y29746D01*
X11022Y29716D01*
X11042Y29689D01*
X11065Y29663D01*
X10882Y29567D01*
X10861Y29586D01*
X10837Y29605D01*
X10809Y29623D01*
X10778Y29641D01*
X10744Y29658D01*
X10665Y29692D01*
X10620Y29708D01*
X10521Y29740D01*
X11006Y30001D01*
X10995Y29960D01*
D02*
G37*
G36*
X17556Y29501D02*
Y28406D01*
X17569Y28336D01*
X17608Y28278D01*
X17904Y27983D01*
X17962Y27943D01*
X18032Y27930D01*
X18506D01*
X18528Y27926D01*
X18553Y27919D01*
X18580Y27910D01*
X18608Y27897D01*
X18637Y27880D01*
X18666Y27861D01*
X18731Y27809D01*
X18761Y27781D01*
X18770Y27771D01*
X18778Y27759D01*
X18786Y27744D01*
X18794Y27726D01*
X18800Y27704D01*
X18806Y27678D01*
X18808Y27664D01*
X18808Y27664D01*
X18689Y27573D01*
X18597Y27453D01*
X18540Y27314D01*
X18520Y27165D01*
Y24993D01*
X18518Y24917D01*
X18501Y24756D01*
X18473Y24617D01*
X18434Y24499D01*
X18387Y24402D01*
X18331Y24326D01*
X18267Y24269D01*
X18194Y24228D01*
X18157Y24217D01*
X17748Y24196D01*
X12952D01*
X12124Y25024D01*
X12143Y25070D01*
X12154D01*
X12234Y25103D01*
X12294Y25164D01*
X12327Y25243D01*
Y25329D01*
X12294Y25409D01*
X12292Y25412D01*
Y26747D01*
X12278Y26816D01*
X12239Y26875D01*
X12031Y27083D01*
Y27608D01*
X12035Y27629D01*
X12041Y27646D01*
X12047Y27659D01*
X12055Y27668D01*
X12065Y27676D01*
X12077Y27683D01*
X12095Y27689D01*
X12116Y27692D01*
X13778D01*
X13847Y27706D01*
X13906Y27745D01*
X14543Y28382D01*
X14764D01*
X14781Y28386D01*
X15027D01*
X15028Y28385D01*
X15030Y28386D01*
X15108D01*
Y28449D01*
X15120Y28453D01*
X15137Y28457D01*
X15180Y28461D01*
X15256D01*
X15325Y28475D01*
X15384Y28514D01*
X16374Y29504D01*
X17237D01*
X17240Y29501D01*
X17319Y29469D01*
X17405D01*
X17485Y29501D01*
X17506Y29522D01*
X17556Y29501D01*
D02*
G37*
G36*
X15030Y28803D02*
X15036Y28790D01*
X15046Y28778D01*
X15060Y28768D01*
X15078Y28760D01*
X15099Y28753D01*
X15125Y28747D01*
X15154Y28743D01*
X15188Y28741D01*
X15225Y28740D01*
Y28543D01*
X15188Y28543D01*
X15125Y28536D01*
X15099Y28531D01*
X15078Y28524D01*
X15060Y28515D01*
X15046Y28505D01*
X15036Y28494D01*
X15030Y28481D01*
X15028Y28466D01*
Y28818D01*
X15030Y28803D01*
D02*
G37*
G36*
X14657Y28466D02*
X14468Y28465D01*
Y28661D01*
X14504Y28662D01*
X14537Y28665D01*
X14565Y28670D01*
X14590Y28676D01*
X14610Y28684D01*
X14627Y28694D01*
X14641Y28705D01*
X14650Y28719D01*
X14656Y28734D01*
X14658Y28751D01*
X14657Y28466D01*
D02*
G37*
G36*
X11024Y28056D02*
X11030Y27951D01*
X11037Y27905D01*
X11045Y27863D01*
X11055Y27826D01*
X11067Y27793D01*
X11080Y27763D01*
X11096Y27738D01*
X11114Y27718D01*
X11030Y27634D01*
X11010Y27652D01*
X10985Y27668D01*
X10956Y27681D01*
X10922Y27693D01*
X10885Y27703D01*
X10843Y27711D01*
X10797Y27718D01*
X10692Y27724D01*
X10634Y27724D01*
X11024Y28114D01*
X11024Y28056D01*
D02*
G37*
G36*
X11951Y28131D02*
X11957Y28097D01*
X11967Y28068D01*
X11980Y28042D01*
X11998Y28020D01*
X12020Y28003D01*
X12045Y27989D01*
X12075Y27979D01*
X12108Y27973D01*
X12146Y27971D01*
Y27774D01*
X12108Y27772D01*
X12075Y27767D01*
X12045Y27757D01*
X12020Y27743D01*
X11998Y27725D01*
X11980Y27704D01*
X11967Y27678D01*
X11957Y27648D01*
X11951Y27615D01*
X11949Y27578D01*
X11752Y27873D01*
X11949Y28168D01*
X11951Y28131D01*
D02*
G37*
G36*
X18819Y27837D02*
X19370D01*
X19355Y27820D01*
X19342Y27800D01*
X19330Y27778D01*
X19320Y27753D01*
X19311Y27724D01*
X19304Y27693D01*
X19298Y27659D01*
X19294Y27623D01*
X19291Y27541D01*
X18898D01*
X18897Y27583D01*
X18891Y27659D01*
X18885Y27693D01*
X18878Y27724D01*
X18869Y27753D01*
X18859Y27778D01*
X18847Y27800D01*
X18834Y27820D01*
X18819Y27837D01*
X18783Y27870D01*
X18713Y27926D01*
X18679Y27949D01*
X18645Y27968D01*
X18611Y27984D01*
X18578Y27996D01*
X18544Y28005D01*
X18512Y28010D01*
X18479Y28012D01*
X18475Y28209D01*
X18508Y28210D01*
X18541Y28216D01*
X18574Y28225D01*
X18607Y28237D01*
X18640Y28254D01*
X18674Y28273D01*
X18707Y28297D01*
X18741Y28323D01*
X18774Y28354D01*
X18808Y28388D01*
X18819Y27837D01*
D02*
G37*
G36*
X11182Y27053D02*
X11183Y27033D01*
X11186Y27015D01*
X11191Y26999D01*
X11196Y26986D01*
X11202Y26975D01*
X11210Y26967D01*
X11219Y26961D01*
X11229Y26957D01*
X11240Y26956D01*
X11004D01*
X11015Y26957D01*
X11025Y26961D01*
X11034Y26967D01*
X11042Y26975D01*
X11048Y26986D01*
X11054Y26999D01*
X11058Y27015D01*
X11061Y27033D01*
X11062Y27053D01*
X11063Y27076D01*
X11181D01*
X11182Y27053D01*
D02*
G37*
G36*
X11290Y26744D02*
X11287Y26733D01*
X11287Y26721D01*
X11291Y26706D01*
X11297Y26691D01*
X11308Y26673D01*
X11321Y26654D01*
X11338Y26633D01*
X11382Y26586D01*
X11298Y26502D01*
X11274Y26526D01*
X11230Y26563D01*
X11211Y26576D01*
X11193Y26586D01*
X11177Y26593D01*
X11163Y26597D01*
X11151Y26597D01*
X11140Y26594D01*
X11131Y26587D01*
X11297Y26753D01*
X11290Y26744D01*
D02*
G37*
G36*
X11634Y25981D02*
X11635Y25967D01*
X11637Y25954D01*
X11640Y25943D01*
X11643Y25931D01*
X11647Y25921D01*
X11652Y25911D01*
X11658Y25902D01*
X11664Y25893D01*
X11671Y25886D01*
X11478D01*
X11485Y25893D01*
X11492Y25902D01*
X11497Y25911D01*
X11502Y25921D01*
X11506Y25931D01*
X11510Y25943D01*
X11512Y25954D01*
X11514Y25967D01*
X11515Y25981D01*
X11516Y25995D01*
X11634D01*
X11634Y25981D01*
D02*
G37*
G36*
X10451Y25689D02*
X10501Y25689D01*
Y25492D01*
X10463Y25492D01*
X10451Y25491D01*
Y25356D01*
X10415Y25382D01*
X10378Y25405D01*
X10341Y25425D01*
X10302Y25443D01*
X10264Y25458D01*
X10224Y25470D01*
X10184Y25480D01*
X10143Y25487D01*
X10101Y25491D01*
X10059Y25492D01*
Y25689D01*
X10101Y25690D01*
X10143Y25694D01*
X10184Y25701D01*
X10224Y25711D01*
X10264Y25723D01*
X10302Y25738D01*
X10341Y25756D01*
X10378Y25776D01*
X10415Y25799D01*
X10451Y25825D01*
Y25689D01*
D02*
G37*
G36*
X11674Y24319D02*
X11675Y24308D01*
X11678Y24298D01*
X11681Y24288D01*
X11686Y24277D01*
X11691Y24267D01*
X11698Y24257D01*
X11705Y24246D01*
X11714Y24236D01*
X11724Y24226D01*
X11640Y24142D01*
X11630Y24152D01*
X11620Y24161D01*
X11609Y24168D01*
X11599Y24175D01*
X11589Y24181D01*
X11578Y24185D01*
X11568Y24189D01*
X11558Y24191D01*
X11547Y24193D01*
X11537Y24193D01*
X11673Y24329D01*
X11674Y24319D01*
D02*
G37*
G36*
X14705Y23211D02*
X14699Y23216D01*
X14692Y23221D01*
X14684Y23225D01*
X14675Y23228D01*
X14665Y23231D01*
X14654Y23234D01*
X14643Y23236D01*
X14630Y23237D01*
X14601Y23238D01*
Y23376D01*
X14616Y23376D01*
X14643Y23378D01*
X14654Y23380D01*
X14665Y23383D01*
X14675Y23386D01*
X14684Y23389D01*
X14692Y23394D01*
X14699Y23398D01*
X14705Y23404D01*
Y23211D01*
D02*
G37*
G36*
X19588Y23819D02*
X18604Y22539D01*
X18598Y22726D01*
X18580Y22894D01*
X18550Y23041D01*
X18509Y23169D01*
X18456Y23278D01*
X18391Y23366D01*
X18314Y23435D01*
X18226Y23484D01*
X18125Y23514D01*
X18088Y23517D01*
X17718Y23524D01*
Y24114D01*
X18171Y24137D01*
X18226Y24154D01*
X18314Y24203D01*
X18391Y24272D01*
X18456Y24360D01*
X18509Y24469D01*
X18550Y24596D01*
X18580Y24744D01*
X18598Y24911D01*
X18604Y25098D01*
X19588Y23819D01*
D02*
G37*
G36*
X17946Y20572D02*
X17939Y20579D01*
X17930Y20586D01*
X17921Y20591D01*
X17911Y20596D01*
X17901Y20600D01*
X17890Y20604D01*
X17878Y20606D01*
X17865Y20608D01*
X17852Y20609D01*
X17838Y20610D01*
Y20728D01*
X17852Y20728D01*
X17865Y20729D01*
X17878Y20731D01*
X17890Y20734D01*
X17901Y20737D01*
X17911Y20741D01*
X17921Y20746D01*
X17930Y20752D01*
X17939Y20758D01*
X17946Y20765D01*
Y20572D01*
D02*
G37*
G36*
X17655Y20297D02*
X17647Y20304D01*
X17639Y20310D01*
X17629Y20316D01*
X17620Y20321D01*
X17609Y20325D01*
X17598Y20328D01*
X17586Y20331D01*
X17573Y20332D01*
X17560Y20334D01*
X17546Y20334D01*
Y20452D01*
X17560Y20452D01*
X17573Y20454D01*
X17586Y20455D01*
X17598Y20458D01*
X17609Y20461D01*
X17620Y20466D01*
X17629Y20470D01*
X17639Y20476D01*
X17647Y20482D01*
X17655Y20489D01*
Y20297D01*
D02*
G37*
G36*
X17366Y19963D02*
X17358Y19968D01*
X17348Y19973D01*
X17339Y19977D01*
X17328Y19980D01*
X17317Y19983D01*
X17306Y19985D01*
X17281Y19988D01*
X17267Y19989D01*
X17253Y19990D01*
X17224Y20108D01*
X17238Y20108D01*
X17251Y20109D01*
X17263Y20112D01*
X17275Y20115D01*
X17285Y20119D01*
X17295Y20123D01*
X17303Y20129D01*
X17311Y20136D01*
X17318Y20143D01*
X17324Y20151D01*
X17366Y19963D01*
D02*
G37*
G36*
X17163Y19565D02*
X17155Y19572D01*
X17147Y19578D01*
X17138Y19584D01*
X17128Y19589D01*
X17118Y19593D01*
X17106Y19596D01*
X17094Y19599D01*
X17082Y19601D01*
X17068Y19602D01*
X17054Y19602D01*
Y19720D01*
X17068Y19721D01*
X17082Y19722D01*
X17094Y19724D01*
X17106Y19726D01*
X17118Y19730D01*
X17128Y19734D01*
X17138Y19739D01*
X17147Y19744D01*
X17155Y19751D01*
X17163Y19758D01*
Y19565D01*
D02*
G37*
G36*
X19448Y13704D02*
X19415Y13648D01*
X19386Y13590D01*
X19361Y13528D01*
X19340Y13463D01*
X19322Y13395D01*
X19317Y13369D01*
X19320Y13361D01*
X19328Y13341D01*
X19338Y13330D01*
X19349Y13326D01*
X19309D01*
X19309Y13324D01*
X19299Y13249D01*
X19293Y13171D01*
X19291Y13091D01*
X18955D01*
Y12951D01*
X18937Y12967D01*
X18912Y12980D01*
X18882Y12992D01*
X18846Y13003D01*
X18840Y13004D01*
Y12972D01*
X18839Y12984D01*
X18835Y12994D01*
X18829Y13003D01*
X18824Y13007D01*
X18805Y13011D01*
X18758Y13019D01*
X18647Y13028D01*
X18513Y13032D01*
Y13150D01*
X18583Y13150D01*
X18758Y13162D01*
X18805Y13170D01*
X18824Y13174D01*
X18829Y13179D01*
X18835Y13187D01*
X18839Y13197D01*
X18840Y13209D01*
Y13177D01*
X18846Y13178D01*
X18882Y13189D01*
X18893Y13194D01*
X18880Y13324D01*
X18880Y13326D01*
X18840D01*
X18851Y13330D01*
X18861Y13341D01*
X18869Y13361D01*
X18872Y13369D01*
X18867Y13395D01*
X18849Y13463D01*
X18828Y13528D01*
X18803Y13590D01*
X18774Y13648D01*
X18741Y13704D01*
X18704Y13756D01*
X19485D01*
X19448Y13704D01*
D02*
G37*
G36*
X9361Y11880D02*
X9363Y11853D01*
X9365Y11842D01*
X9367Y11831D01*
X9370Y11821D01*
X9374Y11812D01*
X9378Y11804D01*
X9383Y11797D01*
X9388Y11791D01*
X9195D01*
X9200Y11797D01*
X9205Y11804D01*
X9209Y11812D01*
X9213Y11821D01*
X9216Y11831D01*
X9218Y11842D01*
X9220Y11853D01*
X9221Y11866D01*
X9222Y11895D01*
X9360D01*
X9361Y11880D01*
D02*
G37*
G36*
X7830Y11502D02*
X7820Y11492D01*
X7811Y11482D01*
X7804Y11472D01*
X7797Y11461D01*
X7792Y11451D01*
X7787Y11441D01*
X7784Y11430D01*
X7781Y11420D01*
X7780Y11409D01*
X7779Y11399D01*
X7643Y11535D01*
X7653Y11536D01*
X7664Y11537D01*
X7674Y11540D01*
X7685Y11543D01*
X7695Y11548D01*
X7705Y11553D01*
X7716Y11560D01*
X7726Y11568D01*
X7736Y11576D01*
X7746Y11586D01*
X7830Y11502D01*
D02*
G37*
G36*
X14311Y10784D02*
X14313Y10770D01*
X14314Y10758D01*
X14317Y10746D01*
X14320Y10734D01*
X14324Y10724D01*
X14329Y10714D01*
X14335Y10705D01*
X14341Y10697D01*
X14348Y10689D01*
X14156D01*
X14163Y10697D01*
X14169Y10705D01*
X14175Y10714D01*
X14179Y10724D01*
X14184Y10734D01*
X14187Y10746D01*
X14190Y10758D01*
X14191Y10770D01*
X14193Y10784D01*
X14193Y10798D01*
X14311D01*
X14311Y10784D01*
D02*
G37*
G36*
X12783Y9888D02*
X12792Y9882D01*
X12801Y9876D01*
X12811Y9871D01*
X12821Y9867D01*
X12832Y9864D01*
X12844Y9861D01*
X12857Y9859D01*
X12870Y9858D01*
X12884Y9858D01*
Y9740D01*
X12870Y9740D01*
X12857Y9738D01*
X12844Y9737D01*
X12832Y9734D01*
X12821Y9731D01*
X12811Y9726D01*
X12801Y9722D01*
X12792Y9716D01*
X12783Y9710D01*
X12776Y9703D01*
Y9895D01*
X12783Y9888D01*
D02*
G37*
G36*
X5786Y9438D02*
X5631D01*
X5638Y9439D01*
X5645Y9442D01*
X5651Y9448D01*
X5656Y9457D01*
X5660Y9467D01*
X5663Y9480D01*
X5666Y9496D01*
X5668Y9513D01*
X5669Y9556D01*
X5787D01*
X5786Y9438D01*
D02*
G37*
G36*
X5453Y9533D02*
X5457Y9467D01*
X5459Y9457D01*
X5462Y9448D01*
X5465Y9442D01*
X5468Y9439D01*
X5471Y9438D01*
X5316D01*
X5320Y9439D01*
X5323Y9442D01*
X5326Y9448D01*
X5328Y9457D01*
X5330Y9467D01*
X5332Y9480D01*
X5334Y9513D01*
X5335Y9556D01*
X5453D01*
X5453Y9533D01*
D02*
G37*
G36*
X4508D02*
X4512Y9467D01*
X4515Y9457D01*
X4517Y9448D01*
X4520Y9442D01*
X4523Y9439D01*
X4526Y9438D01*
X4371D01*
X4375Y9439D01*
X4378Y9442D01*
X4381Y9448D01*
X4383Y9457D01*
X4385Y9467D01*
X4387Y9480D01*
X4389Y9513D01*
X4390Y9556D01*
X4508D01*
X4508Y9533D01*
D02*
G37*
G36*
X4193D02*
X4198Y9467D01*
X4200Y9457D01*
X4202Y9448D01*
X4205Y9442D01*
X4208Y9439D01*
X4211Y9438D01*
X4056D01*
X4060Y9439D01*
X4063Y9442D01*
X4066Y9448D01*
X4068Y9457D01*
X4070Y9467D01*
X4072Y9480D01*
X4074Y9513D01*
X4075Y9556D01*
X4193D01*
X4193Y9533D01*
D02*
G37*
G36*
X13048Y8128D02*
Y7520D01*
X13059Y7466D01*
X13090Y7420D01*
X13720Y6790D01*
X13765Y6760D01*
X13819Y6749D01*
X14784D01*
X15411Y6123D01*
Y5945D01*
X15364Y5926D01*
X15359Y5932D01*
X15279Y5965D01*
X15193D01*
X15114Y5932D01*
X15089Y5907D01*
X15083Y5903D01*
X15079Y5899D01*
X15076Y5897D01*
X15074Y5896D01*
X15070Y5894D01*
X15066Y5892D01*
X15061Y5891D01*
X15055Y5889D01*
X15048Y5889D01*
X13952D01*
X13939Y5937D01*
X13946Y5941D01*
X14020Y6015D01*
X14072Y6106D01*
X14100Y6207D01*
Y6312D01*
X14072Y6414D01*
X14020Y6505D01*
X13946Y6579D01*
X13855Y6631D01*
X13753Y6659D01*
X13648D01*
X13547Y6631D01*
X13456Y6579D01*
X13382Y6505D01*
X13329Y6414D01*
X13302Y6312D01*
Y6207D01*
X13329Y6106D01*
X13382Y6015D01*
X13456Y5941D01*
X13463Y5937D01*
X13450Y5889D01*
X13377D01*
X13064Y6202D01*
X13019Y6232D01*
X12965Y6243D01*
X9901D01*
X9570Y6574D01*
X9590Y6624D01*
X9606D01*
Y6748D01*
X9612Y6749D01*
X9619Y6749D01*
X9713D01*
X9766Y6760D01*
X9812Y6790D01*
X10050Y7029D01*
X10071Y7048D01*
X10087Y7061D01*
X10099Y7069D01*
X10137D01*
X10139Y7069D01*
X10140Y7069D01*
X10293D01*
X10294Y7069D01*
X10296Y7069D01*
X10334D01*
X10345Y7062D01*
X10378Y7034D01*
X10437Y6974D01*
Y6745D01*
X10448Y6691D01*
X10478Y6646D01*
X10629Y6495D01*
X10675Y6465D01*
X10728Y6454D01*
X11730D01*
X11737Y6453D01*
X11742Y6452D01*
Y6339D01*
X12274D01*
Y6850D01*
X11742D01*
Y6736D01*
X11737Y6736D01*
X11730Y6735D01*
X11368D01*
Y7087D01*
X11185D01*
X11184Y7092D01*
X11184Y7099D01*
Y7879D01*
X11184Y7886D01*
X11185Y7892D01*
X11286D01*
X11288Y7891D01*
X11290Y7892D01*
X11368D01*
Y7947D01*
X11374Y7947D01*
X11381Y7948D01*
X11730D01*
X11737Y7947D01*
X11742Y7947D01*
Y7717D01*
X12274D01*
Y8228D01*
X11895D01*
X11892Y8229D01*
X11381D01*
X11374Y8230D01*
X11368Y8231D01*
Y8285D01*
X11290D01*
X11288Y8286D01*
X11286Y8285D01*
X10718D01*
Y7892D01*
X10901D01*
X10902Y7886D01*
X10903Y7879D01*
Y7099D01*
X10902Y7092D01*
X10901Y7087D01*
X10719D01*
X10684Y7122D01*
X10677Y7132D01*
X10581Y7227D01*
X10562Y7248D01*
X10549Y7265D01*
X10541Y7276D01*
Y7314D01*
X10542Y7316D01*
X10541Y7318D01*
Y7463D01*
X9892D01*
Y7318D01*
X9891Y7316D01*
X9892Y7314D01*
Y7276D01*
X9885Y7265D01*
X9857Y7233D01*
X9656Y7032D01*
X9606Y7035D01*
Y7156D01*
X9094D01*
Y6637D01*
X9016D01*
Y7156D01*
X8753D01*
X8751Y7156D01*
X8749Y7156D01*
X8711D01*
X8700Y7163D01*
X8668Y7190D01*
X8597Y7261D01*
X8602Y7311D01*
X8603Y7312D01*
X8664Y7373D01*
X8682Y7390D01*
X8698Y7403D01*
X8710Y7411D01*
X9016D01*
Y7943D01*
X8902D01*
X8901Y7948D01*
X8900Y7955D01*
Y8186D01*
X8901Y8194D01*
X8902Y8199D01*
X9016D01*
Y8730D01*
X8504D01*
Y8199D01*
X8618D01*
X8619Y8194D01*
X8619Y8186D01*
Y7955D01*
X8619Y7948D01*
X8618Y7943D01*
X8504D01*
Y7618D01*
X8496Y7607D01*
X8470Y7576D01*
X8446Y7552D01*
X7589D01*
Y8031D01*
X7532D01*
X7504Y8073D01*
X7510Y8087D01*
Y8173D01*
X7491Y8218D01*
X7525Y8268D01*
X7589D01*
Y8819D01*
X7575D01*
X7547Y8860D01*
X7557Y8885D01*
Y8971D01*
X7539Y9013D01*
X7573Y9063D01*
X8112D01*
X8125Y9031D01*
X8186Y8970D01*
X8266Y8937D01*
X8352D01*
X8432Y8970D01*
X8493Y9031D01*
X8525Y9110D01*
Y9131D01*
X8567Y9158D01*
X8579Y9154D01*
X8665D01*
X8745Y9187D01*
X8806Y9247D01*
X8839Y9327D01*
Y9413D01*
X8806Y9493D01*
X8745Y9554D01*
X8665Y9587D01*
X8579D01*
X8499Y9554D01*
X8494Y9548D01*
X8477Y9559D01*
X8423Y9570D01*
X6956D01*
X6902Y9559D01*
X6857Y9528D01*
X6653Y9324D01*
X6622Y9279D01*
X6611Y9225D01*
Y9006D01*
X6207D01*
X6181Y9045D01*
Y9518D01*
X5929D01*
X5908Y9568D01*
X6043Y9702D01*
X11474D01*
X13048Y8128D01*
D02*
G37*
G36*
X7401Y8834D02*
X7401Y8830D01*
X7438Y8830D01*
X7430Y8822D01*
X7424Y8814D01*
X7419Y8805D01*
X7414Y8795D01*
X7410Y8784D01*
X7409Y8783D01*
X7410Y8781D01*
X7415Y8768D01*
X7422Y8757D01*
X7429Y8748D01*
X7438Y8743D01*
X7448Y8739D01*
X7459Y8738D01*
X7401D01*
X7401Y8735D01*
X7400Y8721D01*
X7282Y8720D01*
X7282Y8734D01*
X7282Y8738D01*
X7223D01*
X7235Y8739D01*
X7245Y8743D01*
X7253Y8748D01*
X7261Y8757D01*
X7268Y8768D01*
X7273Y8781D01*
X7273Y8782D01*
X7273Y8783D01*
X7269Y8794D01*
X7264Y8804D01*
X7258Y8813D01*
X7252Y8821D01*
X7245Y8829D01*
X7281Y8829D01*
X7282Y8834D01*
X7282Y8857D01*
X7400D01*
X7401Y8834D01*
D02*
G37*
G36*
X6603Y8494D02*
X6590Y8494D01*
X6552Y8492D01*
X6545Y8490D01*
X6540Y8489D01*
X6537Y8488D01*
X6535Y8486D01*
X6534Y8484D01*
Y8611D01*
X6535Y8611D01*
X6537Y8611D01*
X6545Y8612D01*
X6603Y8612D01*
Y8494D01*
D02*
G37*
G36*
X6604Y8179D02*
X6591Y8179D01*
X6552Y8176D01*
X6545Y8175D01*
X6540Y8174D01*
X6537Y8172D01*
X6535Y8171D01*
X6534Y8169D01*
Y8296D01*
X6535Y8296D01*
X6537Y8296D01*
X6545Y8297D01*
X6604Y8297D01*
Y8179D01*
D02*
G37*
G36*
X8867Y8279D02*
X8857Y8275D01*
X8848Y8269D01*
X8840Y8261D01*
X8834Y8250D01*
X8828Y8237D01*
X8824Y8221D01*
X8821Y8204D01*
X8819Y8183D01*
X8819Y8161D01*
X8701D01*
X8700Y8183D01*
X8698Y8204D01*
X8695Y8221D01*
X8691Y8237D01*
X8686Y8250D01*
X8680Y8261D01*
X8672Y8269D01*
X8663Y8275D01*
X8653Y8279D01*
X8642Y8280D01*
X8878D01*
X8867Y8279D01*
D02*
G37*
G36*
X11289Y8195D02*
X11293Y8185D01*
X11299Y8176D01*
X11307Y8168D01*
X11318Y8162D01*
X11331Y8157D01*
X11346Y8153D01*
X11364Y8150D01*
X11384Y8148D01*
X11406Y8148D01*
Y8030D01*
X11384Y8029D01*
X11364Y8027D01*
X11346Y8024D01*
X11331Y8020D01*
X11318Y8015D01*
X11307Y8009D01*
X11299Y8001D01*
X11293Y7993D01*
X11289Y7983D01*
X11288Y7972D01*
Y8205D01*
X11289Y8195D01*
D02*
G37*
G36*
X11823Y7970D02*
X11822Y7982D01*
X11818Y7992D01*
X11812Y8001D01*
X11804Y8008D01*
X11793Y8015D01*
X11780Y8020D01*
X11765Y8024D01*
X11747Y8027D01*
X11727Y8029D01*
X11704Y8030D01*
Y8148D01*
X11822Y8148D01*
X11823Y7970D01*
D02*
G37*
G36*
X7378Y8047D02*
X7378Y8045D01*
X7406Y8050D01*
X7400Y8042D01*
X7395Y8033D01*
X7391Y8023D01*
X7387Y8013D01*
X7384Y8002D01*
X7384Y8002D01*
X7386Y7993D01*
X7392Y7980D01*
X7398Y7969D01*
X7406Y7961D01*
X7415Y7955D01*
X7425Y7952D01*
X7436Y7950D01*
X7377D01*
X7377Y7938D01*
X7259Y7914D01*
X7258Y7928D01*
X7257Y7941D01*
X7256Y7950D01*
X7200D01*
X7211Y7952D01*
X7221Y7955D01*
X7230Y7961D01*
X7238Y7969D01*
X7244Y7980D01*
X7245Y7982D01*
X7243Y7986D01*
X7238Y7994D01*
X7231Y8002D01*
X7224Y8010D01*
X7216Y8016D01*
X7256Y8023D01*
X7257Y8027D01*
X7258Y8047D01*
X7259Y8070D01*
X7377D01*
X7378Y8047D01*
D02*
G37*
G36*
X8819Y7958D02*
X8821Y7938D01*
X8824Y7920D01*
X8828Y7905D01*
X8834Y7892D01*
X8840Y7881D01*
X8848Y7873D01*
X8857Y7867D01*
X8867Y7863D01*
X8878Y7862D01*
X8642D01*
X8653Y7863D01*
X8663Y7867D01*
X8672Y7873D01*
X8680Y7881D01*
X8686Y7892D01*
X8691Y7905D01*
X8695Y7920D01*
X8698Y7938D01*
X8700Y7958D01*
X8701Y7981D01*
X8819D01*
X8819Y7958D01*
D02*
G37*
G36*
X11150Y7972D02*
X11140Y7968D01*
X11131Y7962D01*
X11124Y7954D01*
X11117Y7943D01*
X11112Y7930D01*
X11108Y7914D01*
X11105Y7897D01*
X11103Y7876D01*
X11102Y7854D01*
X10984D01*
X10984Y7876D01*
X10982Y7897D01*
X10979Y7914D01*
X10975Y7930D01*
X10969Y7943D01*
X10963Y7954D01*
X10955Y7962D01*
X10946Y7968D01*
X10936Y7972D01*
X10925Y7973D01*
X11161D01*
X11150Y7972D01*
D02*
G37*
G36*
X6535Y7978D02*
X6538Y7975D01*
X6543Y7973D01*
X6549Y7970D01*
X6557Y7969D01*
X6568Y7967D01*
X6593Y7965D01*
X6627Y7964D01*
Y7846D01*
X6609Y7846D01*
X6568Y7843D01*
X6557Y7841D01*
X6549Y7839D01*
X6543Y7836D01*
X6538Y7833D01*
X6535Y7830D01*
X6534Y7826D01*
Y7981D01*
X6535Y7978D01*
D02*
G37*
G36*
X7178Y7569D02*
X7176Y7580D01*
X7173Y7590D01*
X7167Y7599D01*
X7159Y7607D01*
X7148Y7613D01*
X7135Y7619D01*
X7119Y7623D01*
X7101Y7626D01*
X7081Y7627D01*
X7058Y7628D01*
Y7746D01*
X7081Y7747D01*
X7101Y7748D01*
X7119Y7751D01*
X7135Y7756D01*
X7148Y7761D01*
X7159Y7767D01*
X7167Y7775D01*
X7173Y7784D01*
X7176Y7794D01*
X7178Y7805D01*
Y7569D01*
D02*
G37*
G36*
X8744Y7493D02*
X8735Y7498D01*
X8725Y7501D01*
X8714Y7501D01*
X8700Y7497D01*
X8685Y7490D01*
X8668Y7480D01*
X8650Y7467D01*
X8629Y7450D01*
X8584Y7408D01*
X8500Y7491D01*
X8523Y7515D01*
X8559Y7557D01*
X8573Y7576D01*
X8583Y7592D01*
X8590Y7608D01*
X8593Y7621D01*
X8594Y7633D01*
X8591Y7643D01*
X8585Y7651D01*
X8744Y7493D01*
D02*
G37*
G36*
X6618Y7234D02*
X6602Y7234D01*
X6575Y7232D01*
X6565Y7230D01*
X6555Y7228D01*
X6548Y7225D01*
X6542Y7222D01*
X6538Y7218D01*
X6535Y7214D01*
X6534Y7209D01*
Y7351D01*
X6535Y7351D01*
X6538Y7352D01*
X6555Y7352D01*
X6618Y7352D01*
Y7234D01*
D02*
G37*
G36*
X10139Y7149D02*
X10130Y7156D01*
X10119Y7159D01*
X10106D01*
X10092Y7156D01*
X10076Y7149D01*
X10059Y7139D01*
X10039Y7125D01*
X10018Y7109D01*
X9972Y7065D01*
X9888Y7149D01*
X9912Y7173D01*
X9948Y7216D01*
X9962Y7236D01*
X9972Y7253D01*
X9978Y7269D01*
X9982Y7283D01*
Y7296D01*
X9978Y7307D01*
X9972Y7316D01*
X10139Y7149D01*
D02*
G37*
G36*
X10455Y7307D02*
X10451Y7296D01*
Y7283D01*
X10455Y7269D01*
X10461Y7253D01*
X10471Y7236D01*
X10485Y7216D01*
X10501Y7196D01*
X10545Y7149D01*
X10461Y7065D01*
X10437Y7089D01*
X10394Y7125D01*
X10375Y7139D01*
X10357Y7149D01*
X10341Y7156D01*
X10327Y7159D01*
X10314D01*
X10304Y7156D01*
X10294Y7149D01*
X10461Y7316D01*
X10455Y7307D01*
D02*
G37*
G36*
X11103Y7102D02*
X11105Y7082D01*
X11108Y7064D01*
X11112Y7048D01*
X11117Y7035D01*
X11124Y7025D01*
X11131Y7016D01*
X11140Y7010D01*
X11150Y7007D01*
X11161Y7005D01*
X10925D01*
X10936Y7007D01*
X10946Y7010D01*
X10955Y7016D01*
X10963Y7025D01*
X10969Y7035D01*
X10975Y7048D01*
X10979Y7064D01*
X10982Y7082D01*
X10984Y7102D01*
X10984Y7125D01*
X11102D01*
X11103Y7102D01*
D02*
G37*
G36*
X8608Y7136D02*
X8652Y7099D01*
X8671Y7086D01*
X8688Y7076D01*
X8704Y7069D01*
X8718Y7066D01*
X8731D01*
X8742Y7069D01*
X8751Y7076D01*
X8584Y6909D01*
X8591Y6918D01*
X8594Y6929D01*
Y6941D01*
X8591Y6955D01*
X8584Y6971D01*
X8574Y6989D01*
X8560Y7008D01*
X8544Y7029D01*
X8500Y7076D01*
X8584Y7159D01*
X8608Y7136D01*
D02*
G37*
G36*
X9526Y6997D02*
X9530Y6987D01*
X9536Y6978D01*
X9544Y6970D01*
X9555Y6964D01*
X9568Y6958D01*
X9584Y6954D01*
X9602Y6951D01*
X9622Y6949D01*
X9644Y6949D01*
Y6831D01*
X9622Y6830D01*
X9602Y6828D01*
X9584Y6825D01*
X9568Y6821D01*
X9555Y6816D01*
X9544Y6809D01*
X9536Y6802D01*
X9530Y6793D01*
X9526Y6783D01*
X9525Y6772D01*
Y7008D01*
X9526Y6997D01*
D02*
G37*
G36*
X11823Y6476D02*
X11822Y6488D01*
X11818Y6498D01*
X11813Y6507D01*
X11804Y6514D01*
X11793Y6521D01*
X11780Y6526D01*
X11765Y6530D01*
X11747Y6533D01*
X11727Y6535D01*
X11704Y6535D01*
Y6654D01*
X11727Y6654D01*
X11747Y6656D01*
X11765Y6659D01*
X11780Y6663D01*
X11793Y6668D01*
X11804Y6675D01*
X11813Y6682D01*
X11818Y6691D01*
X11822Y6701D01*
X11823Y6713D01*
Y6476D01*
D02*
G37*
G36*
X15138Y5652D02*
X15130Y5659D01*
X15122Y5665D01*
X15113Y5671D01*
X15103Y5676D01*
X15092Y5680D01*
X15081Y5683D01*
X15069Y5686D01*
X15056Y5687D01*
X15043Y5689D01*
X15029Y5689D01*
Y5807D01*
X15043Y5807D01*
X15056Y5809D01*
X15069Y5810D01*
X15081Y5813D01*
X15092Y5816D01*
X15103Y5821D01*
X15113Y5825D01*
X15122Y5831D01*
X15130Y5837D01*
X15138Y5844D01*
Y5652D01*
D02*
G37*
%LPC*%
G36*
X15810Y28591D02*
X15686D01*
X15566Y28558D01*
X15458Y28496D01*
X15370Y28408D01*
X15332Y28342D01*
X15328Y28337D01*
X15305Y28296D01*
X15283Y28262D01*
X15262Y28233D01*
X15240Y28209D01*
X15219Y28190D01*
X15199Y28175D01*
X15179Y28164D01*
X15160Y28157D01*
X15158Y28157D01*
X15115Y28183D01*
X15108Y28190D01*
Y28307D01*
X14577D01*
Y27795D01*
X14648D01*
X14650Y27791D01*
X14652Y27777D01*
X14653Y27768D01*
Y24939D01*
X14652Y24935D01*
X14651Y24928D01*
X14650Y24922D01*
X14649Y24919D01*
X14648Y24917D01*
X14647Y24915D01*
X14644Y24911D01*
X14620Y24886D01*
X14587Y24807D01*
Y24721D01*
X14620Y24641D01*
X14680Y24580D01*
X14760Y24547D01*
X14846D01*
X14926Y24580D01*
X14987Y24641D01*
X15020Y24721D01*
Y24807D01*
X14987Y24886D01*
X14962Y24911D01*
X14960Y24915D01*
X14958Y24917D01*
X14958Y24919D01*
X14957Y24922D01*
X14955Y24928D01*
X14954Y24934D01*
X14954Y24941D01*
Y27768D01*
X14955Y27777D01*
X14957Y27791D01*
X14958Y27795D01*
X15027D01*
X15029Y27795D01*
X15030Y27795D01*
X15108D01*
Y27848D01*
X15109Y27849D01*
X15137Y27851D01*
X15177D01*
X15194Y27848D01*
X15218Y27842D01*
X15245Y27833D01*
X15467Y27731D01*
X15523Y27701D01*
X15523Y27701D01*
X15523Y27701D01*
X15529Y27699D01*
X15566Y27678D01*
X15686Y27646D01*
X15810D01*
X15930Y27678D01*
X16038Y27740D01*
X16126Y27828D01*
X16188Y27936D01*
X16220Y28056D01*
Y28180D01*
X16188Y28300D01*
X16126Y28408D01*
X16038Y28496D01*
X15930Y28558D01*
X15810Y28591D01*
D02*
G37*
G36*
X13873Y26368D02*
X13772D01*
X13674Y26342D01*
X13587Y26292D01*
X13515Y26220D01*
X13465Y26133D01*
X13439Y26035D01*
Y25934D01*
X13465Y25836D01*
X13515Y25749D01*
X13587Y25677D01*
X13674Y25627D01*
X13772Y25601D01*
X13873D01*
X13971Y25627D01*
X14058Y25677D01*
X14130Y25749D01*
X14180Y25836D01*
X14206Y25934D01*
Y26035D01*
X14180Y26133D01*
X14130Y26220D01*
X14058Y26292D01*
X13971Y26342D01*
X13873Y26368D01*
D02*
G37*
%LPD*%
G36*
X15561Y27772D02*
X15503Y27802D01*
X15275Y27907D01*
X15241Y27919D01*
X15212Y27927D01*
X15186Y27931D01*
X15165Y27933D01*
X15140Y27932D01*
X15096Y27928D01*
X15078Y27924D01*
X15063Y27919D01*
X15050Y27912D01*
X15041Y27905D01*
X15034Y27896D01*
X15030Y27886D01*
X15028Y27875D01*
X15027Y28140D01*
X15029Y28127D01*
X15033Y28115D01*
X15040Y28105D01*
X15050Y28096D01*
X15062Y28088D01*
X15077Y28082D01*
X15095Y28077D01*
X15116Y28074D01*
X15136Y28072D01*
X15152Y28073D01*
X15183Y28080D01*
X15213Y28091D01*
X15242Y28107D01*
X15270Y28128D01*
X15297Y28153D01*
X15324Y28182D01*
X15349Y28217D01*
X15374Y28255D01*
X15398Y28298D01*
X15561Y27772D01*
D02*
G37*
G36*
X14928Y27874D02*
X14916Y27870D01*
X14906Y27863D01*
X14897Y27853D01*
X14889Y27841D01*
X14883Y27826D01*
X14878Y27808D01*
X14875Y27787D01*
X14873Y27764D01*
X14872Y27737D01*
X14734D01*
X14734Y27764D01*
X14732Y27787D01*
X14728Y27808D01*
X14723Y27826D01*
X14717Y27841D01*
X14709Y27853D01*
X14700Y27863D01*
X14690Y27870D01*
X14678Y27874D01*
X14665Y27875D01*
X14941D01*
X14928Y27874D01*
D02*
G37*
G36*
X14872Y24951D02*
X14875Y24924D01*
X14876Y24912D01*
X14879Y24902D01*
X14882Y24892D01*
X14886Y24883D01*
X14890Y24875D01*
X14894Y24868D01*
X14900Y24862D01*
X14707D01*
X14712Y24868D01*
X14717Y24875D01*
X14721Y24883D01*
X14724Y24892D01*
X14727Y24902D01*
X14730Y24912D01*
X14732Y24924D01*
X14733Y24937D01*
X14734Y24966D01*
X14872D01*
X14872Y24951D01*
D02*
G37*
%LPC*%
G36*
X11764Y9057D02*
X11677D01*
X11598Y9024D01*
X11573Y8999D01*
X11568Y8996D01*
X11563Y8992D01*
X11561Y8990D01*
X11558Y8988D01*
X11555Y8987D01*
X11550Y8985D01*
X11545Y8983D01*
X11539Y8982D01*
X11533Y8981D01*
X11381D01*
X11374Y8982D01*
X11368Y8983D01*
Y9037D01*
X11290D01*
X11288Y9038D01*
X11286Y9037D01*
X10718D01*
Y8644D01*
X11286D01*
X11288Y8643D01*
X11290Y8644D01*
X11368D01*
Y8699D01*
X11374Y8699D01*
X11381Y8700D01*
X11533D01*
X11539Y8699D01*
X11545Y8698D01*
X11550Y8696D01*
X11555Y8695D01*
X11558Y8693D01*
X11561Y8691D01*
X11563Y8690D01*
X11568Y8685D01*
X11573Y8682D01*
X11598Y8657D01*
X11677Y8624D01*
X11713D01*
X11719Y8623D01*
X11725Y8622D01*
X11728Y8622D01*
X11731Y8621D01*
X11735Y8620D01*
X11738Y8619D01*
X11742Y8612D01*
Y8307D01*
X12274D01*
Y8819D01*
X11949D01*
X11942Y8823D01*
X11941Y8826D01*
X11940Y8830D01*
X11939Y8833D01*
X11939Y8836D01*
X11938Y8842D01*
X11937Y8848D01*
Y8884D01*
X11904Y8963D01*
X11843Y9024D01*
X11764Y9057D01*
D02*
G37*
G36*
X9606Y8730D02*
X9094D01*
Y8199D01*
X9606D01*
Y8323D01*
X9612Y8323D01*
X9619Y8324D01*
X9879D01*
X9886Y8323D01*
X9892Y8323D01*
Y8268D01*
X9970D01*
X9972Y8267D01*
X9973Y8268D01*
X10541D01*
Y8661D01*
X9973D01*
X9972Y8662D01*
X9970Y8661D01*
X9892D01*
Y8607D01*
X9886Y8606D01*
X9879Y8605D01*
X9619D01*
X9612Y8606D01*
X9606Y8607D01*
Y8730D01*
D02*
G37*
%LPD*%
G36*
X11859Y8829D02*
X11860Y8818D01*
X11863Y8808D01*
X11866Y8798D01*
X11871Y8787D01*
X11876Y8777D01*
X11881Y8770D01*
X11890Y8762D01*
X11909Y8748D01*
X11927Y8738D01*
X11943Y8732D01*
X11957Y8728D01*
X11969Y8728D01*
X11980Y8731D01*
X11989Y8738D01*
X11823Y8572D01*
X11830Y8581D01*
X11833Y8592D01*
X11833Y8604D01*
X11829Y8618D01*
X11823Y8634D01*
X11813Y8652D01*
X11799Y8671D01*
X11792Y8680D01*
X11784Y8685D01*
X11774Y8690D01*
X11764Y8695D01*
X11753Y8698D01*
X11743Y8701D01*
X11732Y8702D01*
X11722Y8703D01*
X11748Y8729D01*
X11739Y8739D01*
X11822Y8822D01*
X11832Y8813D01*
X11858Y8839D01*
X11859Y8829D01*
D02*
G37*
G36*
X11622Y8744D02*
X11614Y8751D01*
X11606Y8758D01*
X11597Y8763D01*
X11587Y8768D01*
X11577Y8772D01*
X11565Y8776D01*
X11553Y8778D01*
X11541Y8780D01*
X11527Y8781D01*
X11513Y8781D01*
Y8900D01*
X11527Y8900D01*
X11541Y8901D01*
X11553Y8903D01*
X11565Y8906D01*
X11577Y8909D01*
X11587Y8913D01*
X11597Y8918D01*
X11606Y8924D01*
X11614Y8930D01*
X11622Y8937D01*
Y8744D01*
D02*
G37*
G36*
X11289Y8946D02*
X11293Y8937D01*
X11299Y8928D01*
X11307Y8920D01*
X11318Y8914D01*
X11331Y8909D01*
X11346Y8905D01*
X11364Y8902D01*
X11384Y8900D01*
X11406Y8900D01*
Y8781D01*
X11384Y8781D01*
X11364Y8779D01*
X11346Y8776D01*
X11331Y8772D01*
X11318Y8767D01*
X11307Y8761D01*
X11299Y8753D01*
X11293Y8744D01*
X11289Y8735D01*
X11288Y8724D01*
Y8957D01*
X11289Y8946D01*
D02*
G37*
G36*
X9972Y8348D02*
X9970Y8359D01*
X9967Y8368D01*
X9961Y8377D01*
X9953Y8385D01*
X9942Y8391D01*
X9929Y8396D01*
X9914Y8400D01*
X9896Y8403D01*
X9876Y8405D01*
X9854Y8406D01*
Y8524D01*
X9876Y8524D01*
X9896Y8526D01*
X9914Y8529D01*
X9929Y8533D01*
X9942Y8538D01*
X9953Y8544D01*
X9961Y8552D01*
X9967Y8561D01*
X9970Y8570D01*
X9972Y8581D01*
Y8348D01*
D02*
G37*
G36*
X9526Y8571D02*
X9530Y8561D01*
X9536Y8553D01*
X9544Y8545D01*
X9555Y8538D01*
X9568Y8533D01*
X9584Y8529D01*
X9602Y8526D01*
X9622Y8524D01*
X9644Y8524D01*
Y8406D01*
X9622Y8405D01*
X9602Y8403D01*
X9584Y8400D01*
X9568Y8396D01*
X9555Y8391D01*
X9544Y8384D01*
X9536Y8377D01*
X9530Y8368D01*
X9526Y8358D01*
X9525Y8346D01*
Y8583D01*
X9526Y8571D01*
D02*
G37*
G36*
X8490Y25617D02*
X8498Y25599D01*
X8512Y25583D01*
X8531Y25569D01*
X8556Y25558D01*
X8586Y25548D01*
X8622Y25541D01*
X8663Y25536D01*
X8710Y25533D01*
X8759Y25532D01*
X8802Y25531D01*
Y25256D01*
X8753Y25256D01*
X8710Y25255D01*
X8622Y25246D01*
X8586Y25239D01*
X8556Y25230D01*
X8531Y25218D01*
X8512Y25204D01*
X8498Y25189D01*
X8490Y25171D01*
X8487Y25151D01*
Y25255D01*
X8407Y25254D01*
Y25533D01*
X8411Y25533D01*
X8471Y25532D01*
X8487Y25532D01*
Y25637D01*
X8490Y25617D01*
D02*
G37*
G36*
X9063Y25409D02*
X9066Y25403D01*
X9071Y25395D01*
X9078Y25386D01*
X9096Y25364D01*
X9137Y25321D01*
X9154Y25304D01*
X9015Y25165D01*
X8998Y25182D01*
X8916Y25253D01*
X8910Y25256D01*
X8906Y25257D01*
X9062Y25413D01*
X9063Y25409D01*
D02*
G37*
G36*
X8487Y25151D02*
X8454Y25148D01*
X8418Y25140D01*
X8380Y25126D01*
X8340Y25106D01*
X8297Y25081D01*
X8252Y25051D01*
X8205Y25014D01*
X8103Y24925D01*
X8103Y24925D01*
X8066Y24887D01*
X7932Y24731D01*
X7885Y24664D01*
X7850Y24605D01*
X7829Y24553D01*
X7821Y24508D01*
X7825Y24471D01*
X7843Y24442D01*
X7874Y24420D01*
X7124Y24783D01*
X7165Y24771D01*
X7212Y24771D01*
X7266Y24783D01*
X7325Y24806D01*
X7392Y24842D01*
X7465Y24890D01*
X7544Y24950D01*
X7722Y25105D01*
X7791Y25173D01*
X7823Y25206D01*
X7912Y25311D01*
X7948Y25362D01*
X7979Y25411D01*
X8004Y25459D01*
X8023Y25506D01*
X8037Y25551D01*
X8046Y25594D01*
X8048Y25637D01*
X8487Y25151D01*
D02*
G37*
G36*
X7381Y24253D02*
X7375Y24256D01*
X7367Y24260D01*
X7356Y24262D01*
X7343Y24265D01*
X7310Y24269D01*
X7267Y24271D01*
X7216Y24272D01*
Y24547D01*
X7243Y24547D01*
X7343Y24554D01*
X7356Y24556D01*
X7367Y24559D01*
X7375Y24562D01*
X7381Y24566D01*
Y24253D01*
D02*
G37*
G36*
X7700Y24414D02*
X7708Y24404D01*
X7742Y24367D01*
X7973Y24132D01*
X7778Y23937D01*
X7491Y24213D01*
X7697Y24419D01*
X7700Y24414D01*
D02*
G37*
G36*
X9106Y23909D02*
X9104Y23910D01*
X9101Y23912D01*
X9095Y23913D01*
X9087Y23914D01*
X9063Y23916D01*
X8987Y23917D01*
Y24035D01*
X9010Y24036D01*
X9101Y24041D01*
X9104Y24042D01*
X9106Y24044D01*
Y23909D01*
D02*
G37*
G36*
X8661Y24058D02*
X8665Y24054D01*
X8671Y24049D01*
X8679Y24046D01*
X8690Y24043D01*
X8703Y24040D01*
X8718Y24038D01*
X8756Y24036D01*
X8778Y24035D01*
Y23917D01*
X8756Y23917D01*
X8735Y23915D01*
X8718Y23912D01*
X8702Y23908D01*
X8689Y23903D01*
X8678Y23896D01*
X8670Y23888D01*
X8664Y23880D01*
X8660Y23869D01*
X8659Y23858D01*
X8660Y24064D01*
X8661Y24058D01*
D02*
G37*
G36*
X8269Y24064D02*
X8270Y23759D01*
X8267Y23785D01*
X8259Y23808D01*
X8245Y23829D01*
X8226Y23847D01*
X8201Y23862D01*
X8170Y23875D01*
X8134Y23884D01*
X8093Y23891D01*
X8046Y23895D01*
X7993Y23897D01*
Y24172D01*
X8269Y24064D01*
D02*
G37*
G36*
X9106Y23653D02*
X9104Y23654D01*
X9101Y23656D01*
X9095Y23657D01*
X9087Y23658D01*
X9063Y23660D01*
X8987Y23661D01*
Y23780D01*
X9010Y23780D01*
X9101Y23785D01*
X9104Y23787D01*
X9106Y23788D01*
Y23653D01*
D02*
G37*
G36*
X10187Y24042D02*
X10191Y24041D01*
X10196Y24040D01*
X10205Y24039D01*
X10228Y24037D01*
X10304Y24035D01*
Y23917D01*
X10281Y23917D01*
X10191Y23912D01*
X10187Y23910D01*
X10186Y23909D01*
Y24044D01*
X10187Y24042D01*
D02*
G37*
G36*
X10304Y23671D02*
X10281Y23671D01*
X10215Y23667D01*
X10205Y23665D01*
X10196Y23662D01*
X10191Y23659D01*
X10187Y23656D01*
X10186Y23653D01*
Y23788D01*
X10187Y23788D01*
X10191Y23789D01*
X10304Y23789D01*
Y23671D01*
D02*
G37*
G36*
X11141Y23932D02*
X11147Y23918D01*
X11156Y23905D01*
X11169Y23894D01*
X11186Y23885D01*
X11206Y23877D01*
X11230Y23871D01*
X11257Y23867D01*
X11289Y23864D01*
X11324Y23863D01*
Y23667D01*
X11289Y23666D01*
X11186Y23658D01*
X11170Y23655D01*
X11157Y23650D01*
X11148Y23645D01*
X11142Y23639D01*
X11141Y23633D01*
X11130Y23630D01*
X11120Y23622D01*
X11111Y23608D01*
X11104Y23589D01*
X11097Y23564D01*
X11092Y23534D01*
X11088Y23498D01*
X11083Y23410D01*
X11083Y23358D01*
X10807D01*
X10807Y23410D01*
X10798Y23534D01*
X10793Y23564D01*
X10786Y23589D01*
X10779Y23608D01*
X10770Y23622D01*
X10760Y23630D01*
X10749Y23633D01*
X10748Y23640D01*
X10745Y23647D01*
X10739Y23653D01*
X10730Y23658D01*
X10720Y23662D01*
X10707Y23665D01*
X10691Y23668D01*
X10674Y23670D01*
X10631Y23671D01*
Y23789D01*
X10654Y23790D01*
X10674Y23792D01*
X10692Y23795D01*
X10707Y23799D01*
X10720Y23804D01*
X10731Y23811D01*
X10740Y23818D01*
X10746Y23827D01*
X10749Y23837D01*
X10750Y23848D01*
X10749Y23633D01*
X11141D01*
X11139Y23948D01*
X11141Y23932D01*
D02*
G37*
G36*
X11042Y23052D02*
X11036Y23044D01*
X11030Y23031D01*
X11025Y23013D01*
X11019Y22990D01*
X11006Y22929D01*
X10988Y22802D01*
X10982Y22750D01*
X10546Y23186D01*
X10598Y23193D01*
X10808Y23229D01*
X10826Y23235D01*
X10839Y23241D01*
X10847Y23247D01*
X11042Y23052D01*
D02*
G37*
G36*
X5847Y18658D02*
X5848Y18648D01*
X5851Y18637D01*
X5854Y18627D01*
X5859Y18616D01*
X5864Y18606D01*
X5871Y18596D01*
X5879Y18586D01*
X5887Y18575D01*
X5897Y18565D01*
X5813Y18482D01*
X5803Y18491D01*
X5793Y18500D01*
X5783Y18508D01*
X5772Y18514D01*
X5762Y18520D01*
X5752Y18524D01*
X5741Y18528D01*
X5731Y18530D01*
X5720Y18532D01*
X5710Y18532D01*
X5846Y18668D01*
X5847Y18658D01*
D02*
G37*
G36*
X7028Y11768D02*
X7029Y11755D01*
X7031Y11742D01*
X7034Y11730D01*
X7037Y11719D01*
X7041Y11708D01*
X7046Y11698D01*
X7052Y11689D01*
X7058Y11681D01*
X7065Y11673D01*
X6872D01*
X6879Y11681D01*
X6886Y11689D01*
X6891Y11698D01*
X6896Y11708D01*
X6900Y11719D01*
X6903Y11730D01*
X6906Y11742D01*
X6908Y11755D01*
X6909Y11768D01*
X6909Y11782D01*
X7028D01*
X7028Y11768D01*
D02*
G37*
G36*
X6446Y28749D02*
X6449Y28739D01*
X6455Y28730D01*
X6464Y28722D01*
X6474Y28716D01*
X6488Y28710D01*
X6503Y28706D01*
X6521Y28703D01*
X6541Y28701D01*
X6564Y28701D01*
Y28583D01*
X6446Y28584D01*
X6444Y28760D01*
X6446Y28749D01*
D02*
G37*
G36*
X6904Y28584D02*
X6929Y28569D01*
X6958Y28555D01*
X6991Y28543D01*
X7029Y28533D01*
X7071Y28525D01*
X7116Y28519D01*
X7221Y28512D01*
X7280Y28512D01*
X6890Y28122D01*
X6889Y28181D01*
X6883Y28285D01*
X6877Y28331D01*
X6869Y28373D01*
X6859Y28410D01*
X6847Y28444D01*
X6833Y28473D01*
X6817Y28498D01*
X6799Y28519D01*
X6883Y28602D01*
X6904Y28584D01*
D02*
G37*
G36*
X7280Y27724D02*
X7221Y27724D01*
X7116Y27718D01*
X7071Y27711D01*
X7029Y27703D01*
X6991Y27693D01*
X6958Y27681D01*
X6929Y27668D01*
X6904Y27652D01*
X6883Y27634D01*
X6799Y27718D01*
X6817Y27738D01*
X6833Y27763D01*
X6847Y27793D01*
X6859Y27826D01*
X6869Y27863D01*
X6877Y27905D01*
X6883Y27951D01*
X6889Y28056D01*
X6890Y28114D01*
X7280Y27724D01*
D02*
G37*
G36*
X4630Y19864D02*
X4640Y19855D01*
X4650Y19847D01*
X4661Y19841D01*
X4671Y19835D01*
X4681Y19831D01*
X4692Y19827D01*
X4702Y19825D01*
X4713Y19823D01*
X4723Y19823D01*
X4587Y19686D01*
X4586Y19697D01*
X4585Y19707D01*
X4582Y19718D01*
X4579Y19728D01*
X4574Y19738D01*
X4569Y19749D01*
X4562Y19759D01*
X4554Y19769D01*
X4546Y19780D01*
X4536Y19790D01*
X4620Y19873D01*
X4630Y19864D01*
D02*
G37*
G36*
X7358Y20888D02*
X7363Y20814D01*
X7368Y20781D01*
X7375Y20751D01*
X7384Y20723D01*
X7394Y20698D01*
X7406Y20675D01*
X7419Y20656D01*
X7434Y20638D01*
X7351Y20555D01*
X7333Y20570D01*
X7314Y20583D01*
X7291Y20595D01*
X7266Y20605D01*
X7238Y20614D01*
X7208Y20621D01*
X7175Y20626D01*
X7139Y20629D01*
X7060Y20632D01*
X7357Y20929D01*
X7358Y20888D01*
D02*
G37*
G36*
X8326Y13257D02*
X8346Y13240D01*
X8356Y13232D01*
X8376Y13220D01*
X8386Y13215D01*
X8395Y13211D01*
X8405Y13208D01*
X8415Y13206D01*
X8252Y13102D01*
X8253Y13112D01*
X8254Y13122D01*
X8253Y13133D01*
X8251Y13143D01*
X8248Y13153D01*
X8243Y13163D01*
X8237Y13173D01*
X8230Y13184D01*
X8221Y13194D01*
X8212Y13204D01*
X8316Y13267D01*
X8326Y13257D01*
D02*
G37*
G36*
X8528Y12501D02*
X8538Y12493D01*
X8548Y12485D01*
X8558Y12479D01*
X8569Y12473D01*
X8579Y12468D01*
X8589Y12465D01*
X8600Y12462D01*
X8610Y12461D01*
X8621Y12461D01*
X8484Y12324D01*
X8484Y12335D01*
X8482Y12345D01*
X8480Y12356D01*
X8476Y12366D01*
X8472Y12376D01*
X8466Y12387D01*
X8460Y12397D01*
X8452Y12407D01*
X8443Y12417D01*
X8434Y12428D01*
X8517Y12511D01*
X8528Y12501D01*
D02*
G37*
G36*
X19327Y11396D02*
X19307Y11388D01*
X19290Y11374D01*
X19274Y11355D01*
X19262Y11330D01*
X19251Y11300D01*
X19243Y11264D01*
X19237Y11222D01*
X19236Y11206D01*
X19244Y11091D01*
X19250Y11067D01*
X19256Y11047D01*
X19263Y11033D01*
X19271Y11025D01*
X19280Y11022D01*
X18948D01*
X18950Y11025D01*
X18951Y11033D01*
X18952Y11047D01*
X18955Y11122D01*
X18956Y11169D01*
X18956Y11176D01*
X18952Y11222D01*
X18946Y11264D01*
X18938Y11300D01*
X18927Y11330D01*
X18915Y11355D01*
X18899Y11374D01*
X18882Y11388D01*
X18862Y11396D01*
X18840Y11399D01*
X19349D01*
X19327Y11396D01*
D02*
G37*
G36*
X19271Y10628D02*
X19263Y10620D01*
X19256Y10606D01*
X19250Y10587D01*
X19244Y10562D01*
X19240Y10532D01*
X19234Y10455D01*
X19232Y10356D01*
X18957D01*
X18948Y10631D01*
X19280D01*
X19271Y10628D01*
D02*
G37*
G36*
X19016Y9198D02*
X19030Y9000D01*
X19034Y8986D01*
X19039Y8978D01*
X19044Y8975D01*
X18712D01*
X18717Y8978D01*
X18722Y8986D01*
X18726Y9000D01*
X18730Y9019D01*
X18733Y9044D01*
X18738Y9110D01*
X18740Y9251D01*
X19016D01*
X19016Y9198D01*
D02*
G37*
G36*
X22811Y9702D02*
X22829Y9628D01*
X22858Y9551D01*
X22897Y9470D01*
X22946Y9386D01*
X23006Y9298D01*
X23075Y9205D01*
X23189Y9074D01*
X23194Y9071D01*
X23229Y9045D01*
X23262Y9024D01*
X23295Y9006D01*
X23327Y8993D01*
X23357Y8983D01*
X23386Y8977D01*
X23414Y8975D01*
X23083Y8585D01*
X23097Y8608D01*
X23104Y8635D01*
X23103Y8664D01*
X23094Y8698D01*
X23079Y8735D01*
X23055Y8776D01*
X23024Y8820D01*
X22995Y8857D01*
X22852Y8982D01*
X22760Y9051D01*
X22671Y9111D01*
X22587Y9160D01*
X22506Y9199D01*
X22429Y9228D01*
X22355Y9247D01*
X22286Y9255D01*
X22802Y9771D01*
X22811Y9702D01*
D02*
G37*
G36*
X15083Y9255D02*
X15011Y9246D01*
X14937Y9228D01*
X14860Y9200D01*
X14780Y9163D01*
X14698Y9116D01*
X14612Y9060D01*
X14524Y8994D01*
X14381Y8872D01*
X14338Y8820D01*
X14307Y8776D01*
X14284Y8735D01*
X14268Y8698D01*
X14259Y8664D01*
X14258Y8635D01*
X14265Y8608D01*
X14279Y8585D01*
X14190Y8690D01*
X14190Y8688D01*
X14188Y8677D01*
X14186Y8643D01*
X14185Y8585D01*
X14242D01*
X14231Y8584D01*
X14221Y8580D01*
X14212Y8574D01*
X14204Y8566D01*
X14198Y8555D01*
X14193Y8542D01*
X14188Y8527D01*
X14185Y8509D01*
X14184Y8488D01*
X14183Y8466D01*
X14065D01*
X14064Y8488D01*
X14063Y8509D01*
X14060Y8527D01*
X14056Y8542D01*
X14050Y8555D01*
X14044Y8566D01*
X14036Y8574D01*
X14027Y8580D01*
X14017Y8584D01*
X14006Y8585D01*
X14060D01*
X14054Y8700D01*
X14182D01*
X13948Y8975D01*
X13976Y8977D01*
X14005Y8983D01*
X14036Y8993D01*
X14067Y9006D01*
X14100Y9024D01*
X14134Y9045D01*
X14169Y9071D01*
X14181Y9081D01*
X14299Y9219D01*
X14365Y9307D01*
X14421Y9393D01*
X14468Y9475D01*
X14505Y9555D01*
X14533Y9632D01*
X14551Y9706D01*
X14561Y9777D01*
X15083Y9255D01*
D02*
G37*
G36*
X23326Y8696D02*
X23324Y8688D01*
X23322Y8677D01*
X23320Y8643D01*
X23319Y8585D01*
X23376D01*
X23365Y8584D01*
X23355Y8580D01*
X23346Y8574D01*
X23338Y8566D01*
X23332Y8555D01*
X23326Y8542D01*
X23322Y8527D01*
X23319Y8509D01*
X23318Y8488D01*
X23317Y8466D01*
X23199D01*
X23198Y8488D01*
X23196Y8509D01*
X23194Y8527D01*
X23189Y8542D01*
X23184Y8555D01*
X23178Y8566D01*
X23170Y8574D01*
X23161Y8580D01*
X23151Y8584D01*
X23140Y8585D01*
X23194D01*
X23188Y8700D01*
X23328D01*
X23326Y8696D01*
D02*
G37*
G36*
X14184Y8383D02*
X14185Y8363D01*
X14188Y8345D01*
X14193Y8330D01*
X14198Y8317D01*
X14204Y8306D01*
X14212Y8298D01*
X14221Y8292D01*
X14231Y8288D01*
X14242Y8287D01*
X14010Y8288D01*
X14020Y8289D01*
X14030Y8293D01*
X14038Y8298D01*
X14045Y8307D01*
X14051Y8317D01*
X14056Y8330D01*
X14060Y8346D01*
X14063Y8363D01*
X14064Y8384D01*
X14065Y8406D01*
X14183D01*
X14184Y8383D01*
D02*
G37*
G36*
X14194Y7953D02*
X14054D01*
X14056Y7957D01*
X14058Y7965D01*
X14060Y7976D01*
X14062Y8010D01*
X14065Y8159D01*
X14183D01*
X14194Y7953D01*
D02*
G37*
G36*
X23328Y7953D02*
X23188D01*
X23190Y7957D01*
X23192Y7965D01*
X23194Y7976D01*
X23196Y8010D01*
X23199Y8159D01*
X23317D01*
X23328Y7953D01*
D02*
G37*
G36*
X17980Y5837D02*
X17989Y5831D01*
X17998Y5825D01*
X18007Y5821D01*
X18018Y5816D01*
X18029Y5813D01*
X18041Y5810D01*
X18054Y5809D01*
X18067Y5807D01*
X18081Y5807D01*
Y5689D01*
X18067Y5689D01*
X18054Y5687D01*
X18041Y5686D01*
X18029Y5683D01*
X18018Y5680D01*
X18007Y5676D01*
X17998Y5671D01*
X17989Y5665D01*
X17980Y5659D01*
X17972Y5652D01*
Y5844D01*
X17980Y5837D01*
D02*
G37*
G36*
X21564Y3936D02*
X21508Y3935D01*
X21577Y3866D01*
X21562Y3851D01*
X21518Y3800D01*
X21510Y3789D01*
X21504Y3780D01*
X21500Y3771D01*
X21497Y3764D01*
X21495Y3757D01*
X21394Y3858D01*
X21299Y3763D01*
X21298Y3768D01*
X21294Y3776D01*
X21288Y3785D01*
X21279Y3797D01*
X21255Y3825D01*
X21201Y3882D01*
X21179Y3905D01*
X21262Y3989D01*
X21285Y3966D01*
X21392Y3873D01*
X21396Y3871D01*
X21399Y3872D01*
X21408Y3876D01*
X21417Y3882D01*
X21428Y3890D01*
X21451Y3909D01*
X21479Y3934D01*
X21479Y3935D01*
X21417Y3935D01*
X21429Y3936D01*
X21439Y3940D01*
X21447Y3946D01*
X21455Y3954D01*
X21462Y3965D01*
X21467Y3978D01*
X21471Y3993D01*
X21474Y4011D01*
X21476Y4031D01*
X21476Y4054D01*
X21594D01*
X21564Y3936D01*
D02*
G37*
G36*
X20562Y3728D02*
X20629Y3685D01*
X20695Y3647D01*
X20762Y3615D01*
X20829Y3587D01*
X20896Y3564D01*
X20964Y3546D01*
X21032Y3534D01*
X21100Y3526D01*
X21112Y3526D01*
X21115Y3528D01*
X21209Y3641D01*
X21229Y3671D01*
X21242Y3698D01*
X21249Y3721D01*
X21249Y3740D01*
X21244Y3755D01*
X21233Y3766D01*
X21564Y3545D01*
X21553Y3542D01*
X21538Y3534D01*
X21519Y3521D01*
X21496Y3504D01*
X21436Y3452D01*
X21266Y3288D01*
X21168Y3386D01*
Y3248D01*
X21100Y3246D01*
X21032Y3238D01*
X20964Y3225D01*
X20896Y3208D01*
X20829Y3185D01*
X20762Y3157D01*
X20695Y3124D01*
X20629Y3086D01*
X20562Y3043D01*
X20496Y2995D01*
Y3776D01*
X20562Y3728D01*
D02*
G37*
G36*
X19533Y2695D02*
X19401Y2560D01*
X19088Y2204D01*
X19011Y2102D01*
X18948Y2008D01*
X18900Y1922D01*
X18865Y1844D01*
X18844Y1774D01*
X18837Y1713D01*
X18096Y2133D01*
X17519Y1713D01*
X17511Y1736D01*
X17487Y1774D01*
X17446Y1827D01*
X17314Y1977D01*
X16699Y2611D01*
X17395Y3307D01*
X17582Y3123D01*
X18054Y2710D01*
X18070Y2721D01*
X18383Y2972D01*
X18748Y3306D01*
X18950Y3504D01*
X19533Y2695D01*
D02*
G37*
G36*
X11105Y5445D02*
X11104Y5456D01*
X11100Y5466D01*
X11094Y5475D01*
X11086Y5483D01*
X11075Y5489D01*
X11062Y5494D01*
X11046Y5499D01*
X11028Y5502D01*
X11008Y5503D01*
X10871Y5499D01*
X10960Y5666D01*
X10963Y5658D01*
X10967Y5650D01*
X10973Y5644D01*
X10979Y5638D01*
X10988Y5633D01*
X10997Y5629D01*
X11008Y5626D01*
X11019Y5624D01*
X11020Y5624D01*
X11028Y5624D01*
X11046Y5627D01*
X11062Y5631D01*
X11075Y5637D01*
X11086Y5643D01*
X11094Y5651D01*
X11100Y5660D01*
X11104Y5670D01*
X11105Y5681D01*
Y5445D01*
D02*
G37*
G36*
X7284Y6064D02*
X7351D01*
X7338Y6062D01*
X7327Y6056D01*
X7317Y6046D01*
X7308Y6033D01*
X7300Y6015D01*
X7294Y5993D01*
X7294Y5993D01*
X7299Y5974D01*
X7308Y5953D01*
X7319Y5935D01*
X7332Y5921D01*
X7346Y5911D01*
X7363Y5905D01*
X7382Y5903D01*
X7284D01*
X7283Y5867D01*
X7087D01*
X7086Y5903D01*
X6988D01*
X7007Y5905D01*
X7024Y5911D01*
X7038Y5921D01*
X7051Y5935D01*
X7062Y5953D01*
X7071Y5974D01*
X7076Y5993D01*
X7076Y5993D01*
X7070Y6015D01*
X7062Y6033D01*
X7053Y6046D01*
X7043Y6056D01*
X7032Y6062D01*
X7019Y6064D01*
X7086D01*
X7087Y6101D01*
X7283D01*
X7284Y6064D01*
D02*
G37*
G36*
X7146Y5610D02*
X7140Y5614D01*
X7133Y5617D01*
X7126Y5620D01*
X7117Y5623D01*
X7108Y5625D01*
X7098Y5627D01*
X7074Y5629D01*
X7061Y5630D01*
X7047Y5630D01*
Y5748D01*
X7061Y5748D01*
X7098Y5751D01*
X7108Y5753D01*
X7117Y5755D01*
X7126Y5758D01*
X7133Y5761D01*
X7140Y5764D01*
X7146Y5768D01*
Y5610D01*
D02*
G37*
G36*
X6999Y5474D02*
X6990Y5480D01*
X6979Y5484D01*
X6966D01*
X6952Y5480D01*
X6936Y5474D01*
X6919Y5464D01*
X6900Y5450D01*
X6879Y5434D01*
X6832Y5390D01*
X6748Y5474D01*
X6772Y5498D01*
X6809Y5541D01*
X6822Y5561D01*
X6832Y5578D01*
X6839Y5594D01*
X6842Y5608D01*
Y5621D01*
X6839Y5631D01*
X6832Y5641D01*
X6999Y5474D01*
D02*
G37*
G36*
X7885Y5356D02*
X7883Y5370D01*
X7877Y5383D01*
X7867Y5395D01*
X7854Y5405D01*
X7836Y5414D01*
X7814Y5421D01*
X7789Y5426D01*
X7759Y5430D01*
X7726Y5432D01*
X7688Y5433D01*
Y5630D01*
X7726Y5631D01*
X7789Y5637D01*
X7814Y5642D01*
X7836Y5649D01*
X7854Y5658D01*
X7867Y5668D01*
X7877Y5680D01*
X7883Y5693D01*
X7885Y5707D01*
Y5356D01*
D02*
G37*
G36*
X6535Y5458D02*
X6539Y5455D01*
X6545Y5452D01*
X6553Y5450D01*
X6564Y5448D01*
X6577Y5446D01*
X6610Y5444D01*
X6652Y5443D01*
Y5325D01*
X6630Y5325D01*
X6564Y5320D01*
X6553Y5318D01*
X6545Y5316D01*
X6539Y5313D01*
X6535Y5310D01*
X6534Y5306D01*
Y5461D01*
X6535Y5458D01*
D02*
G37*
G36*
Y5143D02*
X6539Y5140D01*
X6545Y5137D01*
X6553Y5135D01*
X6564Y5133D01*
X6577Y5131D01*
X6610Y5129D01*
X6652Y5128D01*
Y5010D01*
X6630Y5010D01*
X6564Y5005D01*
X6553Y5003D01*
X6545Y5001D01*
X6539Y4998D01*
X6535Y4995D01*
X6534Y4991D01*
Y5146D01*
X6535Y5143D01*
D02*
G37*
G36*
X6851Y5015D02*
X6930Y4948D01*
X6952Y4934D01*
X6972Y4923D01*
X6989Y4916D01*
X7005Y4913D01*
X7018Y4914D01*
X7028Y4919D01*
X6833Y4783D01*
X6841Y4790D01*
X6845Y4800D01*
X6846Y4812D01*
X6843Y4826D01*
X6836Y4841D01*
X6826Y4859D01*
X6812Y4879D01*
X6794Y4900D01*
X6748Y4950D01*
X6820Y5045D01*
X6851Y5015D01*
D02*
G37*
G36*
X7885Y4765D02*
X7883Y4780D01*
X7877Y4793D01*
X7867Y4805D01*
X7854Y4815D01*
X7836Y4823D01*
X7814Y4830D01*
X7789Y4836D01*
X7759Y4839D01*
X7726Y4842D01*
X7688Y4843D01*
Y5039D01*
X7726Y5040D01*
X7789Y5046D01*
X7814Y5052D01*
X7836Y5059D01*
X7854Y5067D01*
X7867Y5077D01*
X7877Y5089D01*
X7883Y5102D01*
X7885Y5117D01*
Y4765D01*
D02*
G37*
G36*
X7146Y4626D02*
X7140Y4630D01*
X7133Y4633D01*
X7126Y4636D01*
X7117Y4639D01*
X7108Y4641D01*
X7098Y4643D01*
X7074Y4645D01*
X7061Y4645D01*
X7047Y4646D01*
Y4764D01*
X7061Y4764D01*
X7098Y4767D01*
X7108Y4769D01*
X7117Y4771D01*
X7126Y4773D01*
X7133Y4776D01*
X7140Y4780D01*
X7146Y4783D01*
Y4626D01*
D02*
G37*
G36*
X7284Y4528D02*
X7287Y4491D01*
X7382D01*
X7363Y4489D01*
X7346Y4483D01*
X7332Y4473D01*
X7319Y4459D01*
X7308Y4441D01*
X7300Y4421D01*
X7300Y4418D01*
X7308Y4400D01*
X7317Y4387D01*
X7327Y4377D01*
X7338Y4371D01*
X7351Y4369D01*
X7288D01*
X7287Y4364D01*
X7284Y4330D01*
X7283Y4293D01*
X7087D01*
X7086Y4330D01*
X7083Y4364D01*
X7082Y4369D01*
X7019D01*
X7032Y4371D01*
X7043Y4377D01*
X7053Y4387D01*
X7062Y4400D01*
X7070Y4418D01*
X7070Y4421D01*
X7062Y4441D01*
X7051Y4459D01*
X7038Y4473D01*
X7024Y4483D01*
X7007Y4489D01*
X6988Y4491D01*
X7083D01*
X7084Y4495D01*
X7086Y4528D01*
X7087Y4566D01*
X7283D01*
X7284Y4528D01*
D02*
G37*
G36*
X11715Y4831D02*
X11718Y4821D01*
X11724Y4812D01*
X11732Y4805D01*
X11743Y4798D01*
X11756Y4793D01*
X11771Y4789D01*
X11774Y4789D01*
X11785Y4793D01*
X11796Y4797D01*
X11806Y4802D01*
X11815Y4807D01*
X11823Y4814D01*
X11831Y4821D01*
Y4783D01*
X11831Y4783D01*
Y4665D01*
X11831Y4665D01*
Y4628D01*
X11823Y4635D01*
X11815Y4641D01*
X11806Y4647D01*
X11796Y4652D01*
X11785Y4656D01*
X11774Y4659D01*
X11771Y4660D01*
X11756Y4656D01*
X11743Y4651D01*
X11732Y4644D01*
X11724Y4636D01*
X11718Y4628D01*
X11715Y4618D01*
X11713Y4606D01*
Y4843D01*
X11715Y4831D01*
D02*
G37*
%LPC*%
G36*
X12156Y2116D02*
X11547D01*
Y1742D01*
X12156D01*
Y2116D01*
D02*
G37*
%LPD*%
D10*
X22992Y32517D02*
Y32594D01*
X23007Y32502D02*
Y32659D01*
X23029Y32682D01*
Y32899D01*
X23006Y32921D02*
X23029Y32899D01*
X23189Y32490D02*
X23204Y32504D01*
X23206D01*
X23213Y32511D02*
Y32654D01*
X23262Y32704D01*
Y33191D01*
X23255Y33199D02*
X23262Y33191D01*
X23206Y32504D02*
X23213Y32511D01*
X23189Y32480D02*
Y32490D01*
X22992Y32517D02*
X23007Y32502D01*
X23255Y33199D02*
Y34139D01*
X23164Y34230D02*
X23255Y34139D01*
X22783Y33199D02*
X23255D01*
X23164Y34230D02*
Y34283D01*
X22992Y32480D02*
Y32594D01*
D11*
X22318Y32480D02*
X22599D01*
X21476D02*
X22318D01*
X21457Y32461D02*
X21476Y32480D01*
X22599D02*
X22795D01*
X22318Y32190D02*
Y32480D01*
X22312Y32185D02*
X22318Y32190D01*
X22303Y32185D02*
X22312D01*
D12*
X9331Y10630D02*
X9764Y11063D01*
Y13174D01*
X9249Y10827D02*
X9567Y11145D01*
X9764Y13174D02*
X16982Y20393D01*
X9567Y11145D02*
Y13256D01*
X16980Y20669D01*
X5037Y10827D02*
X9249D01*
X11346Y1161D02*
X11518Y989D01*
X11847D02*
X11852Y984D01*
X11033Y1161D02*
X11346D01*
X11518Y989D02*
X11847D01*
X10915Y1280D02*
X11033Y1161D01*
X10906Y1280D02*
X10915D01*
X10961Y633D02*
X12088D01*
X10906Y689D02*
X10961Y633D01*
X11535Y24331D02*
X12667Y23199D01*
X9055Y15197D02*
X12667Y18809D01*
Y23199D01*
X16980Y20669D02*
X18045D01*
X16982Y20393D02*
X17753D01*
X12898Y10119D02*
X12992Y10213D01*
Y15908D02*
X17132Y20049D01*
X12898Y10076D02*
Y10119D01*
X12992Y10213D02*
Y15908D01*
X13045Y9799D02*
X13189Y9943D01*
Y15827D02*
X17024Y19661D01*
X13189Y9943D02*
Y15827D01*
X12684Y9799D02*
X13045D01*
X14924Y7087D02*
X15866Y6145D01*
Y4646D02*
Y6145D01*
X13319Y5748D02*
X15236D01*
X14843Y6890D02*
X15551Y6181D01*
Y4646D02*
Y6181D01*
X11608Y4724D02*
X11929D01*
X11596Y4736D02*
X11608Y4724D01*
X9941Y3772D02*
Y3781D01*
X10127Y3968D02*
Y4092D01*
X9941Y3781D02*
X10127Y3968D01*
X10589Y4309D02*
Y4682D01*
X10717Y3986D02*
Y4181D01*
X10589Y4309D02*
X10717Y4181D01*
X10510Y4761D02*
X10589Y4682D01*
X10510Y4761D02*
Y4801D01*
X10512Y4803D01*
X10022Y4744D02*
X10081Y4803D01*
X10512D01*
X10022Y4736D02*
Y4744D01*
X10914Y4166D02*
X10983Y4096D01*
X10717Y3986D02*
X10803Y3900D01*
X10904Y4355D02*
X10914Y4345D01*
X10844Y4736D02*
X10904Y4677D01*
X10983Y4096D02*
X11201D01*
X10904Y4355D02*
Y4677D01*
X10914Y4166D02*
Y4345D01*
X10807Y3900D02*
X10925Y3781D01*
X10803Y3900D02*
X10807D01*
X10925Y3772D02*
Y3781D01*
X11201Y4096D02*
X11516Y3781D01*
Y3772D02*
Y3781D01*
X14252Y10591D02*
Y11378D01*
X15965Y13091D01*
X19094D01*
X8279Y9184D02*
X8309Y9154D01*
X8161Y9203D02*
X8181Y9184D01*
X7018Y9203D02*
X8161D01*
X8181Y9184D02*
X8279D01*
X6956Y9429D02*
X8423D01*
X8452Y9400D01*
X8592D01*
X6752Y9225D02*
X6956Y9429D01*
X8592Y9400D02*
X8622Y9370D01*
X7341Y8544D02*
Y8927D01*
X6949Y8583D02*
Y9134D01*
X7341Y8544D02*
X7343Y8543D01*
X6949Y9134D02*
X7018Y9203D01*
X7340Y8928D02*
X7341Y8927D01*
X7642Y11398D02*
X8094Y11850D01*
X8947D01*
X8195Y13304D02*
X8386Y13113D01*
X8195Y13304D02*
Y20685D01*
X8386Y13071D02*
Y13113D01*
X8057Y20823D02*
Y20953D01*
Y20823D02*
X8195Y20685D01*
X7998Y12947D02*
X8622Y12323D01*
X7998Y12947D02*
Y19991D01*
X7057Y20932D02*
X7998Y19991D01*
X17024Y19661D02*
X17262D01*
X17411Y20049D02*
X17441Y20079D01*
X17132Y20049D02*
X17411D01*
X24549Y31336D02*
X24592D01*
X23878Y31201D02*
X24414D01*
X24549Y31336D01*
X23882Y31598D02*
X24083D01*
X23882Y31992D02*
X24076D01*
X23878Y31988D02*
X23882Y31992D01*
X23878Y31594D02*
X23882Y31598D01*
X22303Y31988D02*
X22303Y31988D01*
X22008Y31989D02*
X22008Y31988D01*
X22303D01*
X24277Y32192D02*
Y32217D01*
X24076Y31992D02*
X24277Y32192D01*
X23878Y31201D02*
X23878Y31201D01*
X23977Y31398D02*
X24255D01*
X24571Y32087D02*
X24606D01*
X24083Y31598D02*
X24571Y32087D01*
X24590Y31732D02*
X24606D01*
X24255Y31398D02*
X24590Y31732D01*
X11122Y26762D02*
Y27626D01*
X11575Y25787D02*
Y26309D01*
X11122Y26762D02*
X11575Y26309D01*
X5709Y18670D02*
X6969Y17410D01*
Y11575D02*
Y17410D01*
X9055Y11959D02*
Y15197D01*
X8947Y11850D02*
X9055Y11959D01*
X10869Y5630D02*
X10936Y5563D01*
X11220D01*
X10827Y5630D02*
X10869D01*
X9630Y2860D02*
X9833Y2657D01*
X9630Y2860D02*
Y3021D01*
X9600Y3051D02*
X9630Y3021D01*
X9833Y2657D02*
X9843D01*
X11802Y2608D02*
X11852Y2559D01*
X10955Y2608D02*
X11802D01*
X10906Y2657D02*
X10955Y2608D01*
X9929Y2744D02*
Y2943D01*
X10146Y3159D02*
X11228D01*
X9843Y2657D02*
X9929Y2744D01*
Y2943D02*
X10146Y3159D01*
X9134Y2657D02*
Y3150D01*
X9341Y3356D02*
X11310D01*
X9134Y3150D02*
X9341Y3356D01*
X12088Y633D02*
X12283Y829D01*
Y946D01*
X11228Y3159D02*
X11534Y2854D01*
X12144D01*
X11310Y3356D02*
X11615Y3051D01*
X12469D01*
X12715Y2805D01*
X12144Y2854D02*
X12283Y2715D01*
X12715Y2559D02*
Y2805D01*
X12283Y2598D02*
Y2715D01*
X11614Y10039D02*
X13386Y8268D01*
Y7601D02*
Y8268D01*
X5985Y9843D02*
X11533D01*
X13189Y8186D01*
X5866Y10039D02*
X11614D01*
X13189Y7520D02*
Y8186D01*
X13386Y7601D02*
X13900Y7087D01*
X4449Y9281D02*
Y9961D01*
X5118Y10630D01*
X4134Y9924D02*
X5037Y10827D01*
X5118Y10630D02*
X9331D01*
X4134Y9281D02*
Y9924D01*
X3228Y21181D02*
Y25512D01*
Y21181D02*
X4724Y19685D01*
X3228Y25512D02*
X4132Y26416D01*
X5581D01*
X6260Y28760D02*
X6378Y28642D01*
X6760D02*
X7283Y28118D01*
X6378Y28642D02*
X6760D01*
X5581Y26416D02*
X7283Y28118D01*
X7293Y8130D02*
X7318Y8105D01*
Y7781D02*
X7343Y7756D01*
X7318Y7781D02*
Y8105D01*
X7274Y7687D02*
X7343Y7756D01*
X6752Y8702D02*
Y9225D01*
X10630Y28118D02*
X11122Y27626D01*
X4154Y4016D02*
Y4616D01*
Y4016D02*
X4193Y3976D01*
X17874Y5748D02*
X20551D01*
X21693Y6890D01*
X13900Y7087D02*
X14924D01*
X13819Y6890D02*
X14843D01*
X12965Y6102D02*
X13319Y5748D01*
X13189Y7520D02*
X13819Y6890D01*
X8543Y23976D02*
X9232D01*
X8465Y23898D02*
X8543Y23976D01*
X8494Y23819D02*
X8593Y23720D01*
X9232D01*
X10069Y23730D02*
X10866D01*
X10059Y23720D02*
X10069Y23730D01*
X10866D02*
X10925Y23789D01*
X10738Y23976D02*
X10925Y23789D01*
X10059Y23976D02*
X10738D01*
X4134Y4636D02*
X4154Y4616D01*
X3504Y3996D02*
Y4636D01*
X6378Y7904D02*
X6380Y7905D01*
X6627D02*
X7127Y8406D01*
X6380Y7905D02*
X6627D01*
X7127Y8406D02*
X7234D01*
X7343Y8514D01*
X6398Y8238D02*
X6604D01*
X6378Y8219D02*
X6398Y8238D01*
X6604D02*
X6949Y8583D01*
X6603Y8553D02*
X6752Y8702D01*
X6398Y8553D02*
X6603D01*
X6378Y8533D02*
X6398Y8553D01*
X6546Y7687D02*
X7274D01*
X6476Y7608D02*
Y7618D01*
X6378Y7589D02*
X6457D01*
X6476Y7608D01*
Y7618D02*
X6546Y7687D01*
X7343Y8514D02*
Y8543D01*
X8504Y7411D02*
X8760Y7667D01*
X6737Y7411D02*
X8504D01*
X8368Y6662D02*
Y6949D01*
X6818Y7215D02*
X8445D01*
X6673Y6791D02*
X6900Y7018D01*
X6661Y7057D02*
X6818Y7215D01*
X8299Y7018D02*
X8368Y6949D01*
X6900Y7018D02*
X8299D01*
X6618Y7293D02*
X6737Y7411D01*
X8445Y7215D02*
X8653Y7007D01*
X8368Y6662D02*
X8534Y6496D01*
X9449D02*
X9843Y6102D01*
X8534Y6496D02*
X9449D01*
X6673Y6508D02*
Y6791D01*
X6593Y6427D02*
X6673Y6508D01*
X6555Y7057D02*
X6661D01*
X6378Y7274D02*
X6398Y7293D01*
X6618D01*
X6378Y6959D02*
X6398Y6978D01*
X6476D02*
X6555Y7057D01*
X6398Y6978D02*
X6476D01*
X8760Y7667D02*
Y8578D01*
X6457Y6329D02*
X6555Y6427D01*
X6593D01*
X5394Y9567D02*
X5866Y10039D01*
X21693Y6890D02*
Y7874D01*
X9843Y6102D02*
X12965D01*
X17497Y33039D02*
X18997D01*
X12992Y32126D02*
X13032Y32087D01*
X13878D01*
X14587Y32205D02*
Y32500D01*
X14468Y32087D02*
X14587Y32205D01*
X15030Y32943D02*
X17402D01*
X14587Y32500D02*
X15030Y32943D01*
X9270Y3852D02*
X9350Y3772D01*
X9270Y3852D02*
Y4736D01*
X10578Y6745D02*
Y7032D01*
Y6745D02*
X10728Y6594D01*
X12008D01*
X10217Y7266D02*
X10344D01*
X10089D02*
X10217D01*
X10344D02*
X10578Y7032D01*
X11918Y8643D02*
X11918D01*
X11880Y8681D02*
Y8681D01*
X11043Y8841D02*
X11720D01*
X11880Y8681D02*
X11918Y8643D01*
X11720Y8841D02*
X11880Y8681D01*
X11043Y8089D02*
X11892D01*
X12008Y7972D01*
X9276Y6890D02*
X9713D01*
X10089Y7266D01*
X9339Y8465D02*
X10217D01*
X17402Y32264D02*
Y32943D01*
X17497Y33039D01*
X14862Y30906D02*
X16102D01*
X16476Y31280D01*
X17028D01*
X5728Y9586D02*
X5985Y9843D01*
X11043Y6890D02*
Y8089D01*
X13582Y2215D02*
X13591Y2224D01*
X6742Y5384D02*
X7047Y5689D01*
X6378Y5384D02*
X6742D01*
X7047Y5689D02*
X7205D01*
X6713Y5069D02*
X6890Y4892D01*
Y4862D02*
X7047Y4705D01*
X6378Y5069D02*
X6713D01*
X6890Y4862D02*
Y4892D01*
X7047Y4705D02*
X7205D01*
X5709Y9281D02*
X5728Y9301D01*
Y9586D01*
X5394Y9281D02*
Y9567D01*
X21398Y3770D02*
X21535Y3907D01*
Y4646D01*
X21220Y3947D02*
X21398Y3770D01*
X21220Y3947D02*
Y4646D01*
X23258Y7884D02*
Y8770D01*
X14124Y7884D02*
Y8770D01*
D17*
X13976Y4646D02*
D03*
X17756D02*
D03*
X19331D02*
D03*
X20591D02*
D03*
X19961D02*
D03*
X18071D02*
D03*
X18701D02*
D03*
X19016D02*
D03*
X18386D02*
D03*
X20276D02*
D03*
X19646D02*
D03*
X20906D02*
D03*
X14134Y7874D02*
D03*
X14449D02*
D03*
X14764D02*
D03*
X15394D02*
D03*
X16024D02*
D03*
X16339D02*
D03*
X15079D02*
D03*
X15709D02*
D03*
X16181Y4646D02*
D03*
X15866D02*
D03*
X15236D02*
D03*
X14291D02*
D03*
X14921D02*
D03*
X15551D02*
D03*
X14606D02*
D03*
X22953Y7874D02*
D03*
X22638D02*
D03*
X21693D02*
D03*
X21063D02*
D03*
X23268D02*
D03*
X21378D02*
D03*
X22008D02*
D03*
X20748D02*
D03*
X22323D02*
D03*
X21850Y4646D02*
D03*
X22795D02*
D03*
X22480D02*
D03*
X21220D02*
D03*
X21535D02*
D03*
X22165D02*
D03*
X23110D02*
D03*
X20433Y7874D02*
D03*
X18228D02*
D03*
X18543D02*
D03*
X18858D02*
D03*
X17913D02*
D03*
X19803D02*
D03*
X20118D02*
D03*
X19173D02*
D03*
X19488D02*
D03*
D18*
X12884Y4882D02*
D03*
X24360D02*
D03*
D19*
X12638Y34055D02*
D03*
X13346D02*
D03*
Y31102D02*
D03*
X12638D02*
D03*
D20*
X12992Y32126D02*
D03*
Y32835D02*
D03*
D21*
X21063Y29528D02*
D03*
Y28346D02*
D03*
X8268Y26575D02*
D03*
Y25394D02*
D03*
D22*
X22858Y24744D02*
D03*
X23842D02*
D03*
X14314D02*
D03*
X13330D02*
D03*
D23*
X23350Y27067D02*
D03*
X13822D02*
D03*
D24*
X8465Y23307D02*
D03*
Y23898D02*
D03*
X10945Y24390D02*
D03*
Y23799D02*
D03*
X20630Y33917D02*
D03*
Y33327D02*
D03*
X21457Y31870D02*
D03*
Y32461D02*
D03*
X10906Y2067D02*
D03*
Y2657D02*
D03*
X20079Y29035D02*
D03*
Y28445D02*
D03*
D25*
X10059Y25591D02*
D03*
X9232Y25215D02*
D03*
Y25967D02*
D03*
X11043Y6890D02*
D03*
X10217Y6514D02*
D03*
Y7266D02*
D03*
X11043Y8089D02*
D03*
Y8841D02*
D03*
X10217Y8465D02*
D03*
D26*
X6004Y22308D02*
D03*
X5413D02*
D03*
X7776Y6260D02*
D03*
X7185D02*
D03*
X7776Y4173D02*
D03*
X7185D02*
D03*
X21398Y3740D02*
D03*
X21988D02*
D03*
X17736Y30354D02*
D03*
X17146D02*
D03*
X19114Y10827D02*
D03*
X19705D02*
D03*
X23248Y8780D02*
D03*
X23839D02*
D03*
X18878D02*
D03*
X19468D02*
D03*
X14114D02*
D03*
X13524D02*
D03*
X3524Y3962D02*
D03*
X2934D02*
D03*
X7343Y8543D02*
D03*
X7933D02*
D03*
X7343Y7756D02*
D03*
X7933D02*
D03*
X5610Y3937D02*
D03*
X6201D02*
D03*
X1870Y3165D02*
D03*
X2461D02*
D03*
D27*
X4596Y24409D02*
D03*
X7216D02*
D03*
X20798Y2087D02*
D03*
X18178D02*
D03*
X3218Y1890D02*
D03*
X5838D02*
D03*
D28*
X9646Y5563D02*
D03*
X10022Y4736D02*
D03*
X9270D02*
D03*
X10844D02*
D03*
X11596D02*
D03*
X11220Y5563D02*
D03*
D29*
X2874Y4636D02*
D03*
X3189D02*
D03*
X3504D02*
D03*
X3819D02*
D03*
X4134D02*
D03*
X4449D02*
D03*
X4764D02*
D03*
X5079D02*
D03*
X5394D02*
D03*
X5709D02*
D03*
X6024D02*
D03*
Y9281D02*
D03*
X5709D02*
D03*
X5394D02*
D03*
X5079D02*
D03*
X4764D02*
D03*
X4449D02*
D03*
X4134D02*
D03*
X3819D02*
D03*
X3504D02*
D03*
X3189D02*
D03*
X2874D02*
D03*
D30*
X6378Y5069D02*
D03*
Y5384D02*
D03*
Y5699D02*
D03*
Y6014D02*
D03*
Y6329D02*
D03*
Y6644D02*
D03*
Y6959D02*
D03*
Y7274D02*
D03*
Y7589D02*
D03*
Y7904D02*
D03*
Y8219D02*
D03*
Y8533D02*
D03*
Y8848D02*
D03*
X2520D02*
D03*
Y8533D02*
D03*
Y8219D02*
D03*
Y7904D02*
D03*
Y7589D02*
D03*
Y7274D02*
D03*
Y6959D02*
D03*
Y6644D02*
D03*
Y6329D02*
D03*
Y6014D02*
D03*
Y5699D02*
D03*
Y5384D02*
D03*
Y5069D02*
D03*
D31*
X4449Y6959D02*
D03*
X3671Y7736D02*
D03*
Y6959D02*
D03*
X4449Y6181D02*
D03*
X5226D02*
D03*
Y6959D02*
D03*
Y7736D02*
D03*
X4449D02*
D03*
D32*
X2500Y4616D02*
D03*
X6398D02*
D03*
Y9301D02*
D03*
X2500D02*
D03*
D33*
X8071Y4941D02*
D03*
Y5531D02*
D03*
X12008Y7972D02*
D03*
Y8563D02*
D03*
X9134Y2657D02*
D03*
Y2067D02*
D03*
X14843Y28051D02*
D03*
Y28642D02*
D03*
X9843Y2067D02*
D03*
Y2657D02*
D03*
X10906Y689D02*
D03*
Y1280D02*
D03*
X13582Y1624D02*
D03*
Y2215D02*
D03*
X12008Y7185D02*
D03*
Y6594D02*
D03*
X6260Y28760D02*
D03*
Y29350D02*
D03*
D34*
X9350Y3772D02*
D03*
X9941D02*
D03*
X11516D02*
D03*
X10925D02*
D03*
X18236Y33898D02*
D03*
X17646D02*
D03*
X4193Y3976D02*
D03*
X4783D02*
D03*
X14862Y30906D02*
D03*
X14272D02*
D03*
X13878Y32087D02*
D03*
X14468D02*
D03*
X8760Y6890D02*
D03*
X9350D02*
D03*
X8760Y8465D02*
D03*
X9350D02*
D03*
X8760Y7677D02*
D03*
X9350D02*
D03*
X11319Y34055D02*
D03*
X11909D02*
D03*
X10532Y26772D02*
D03*
X11122D02*
D03*
X9154D02*
D03*
X9744D02*
D03*
D35*
X17776Y31280D02*
D03*
X17028D02*
D03*
Y32264D02*
D03*
X17402D02*
D03*
X17776D02*
D03*
X19060Y34020D02*
D03*
X19808D02*
D03*
Y33035D02*
D03*
X19434D02*
D03*
X19060D02*
D03*
D36*
X19094Y11634D02*
D03*
Y13091D02*
D03*
D37*
X23086Y31693D02*
D03*
D38*
X23878Y32185D02*
D03*
X23878Y31988D02*
D03*
X23878Y31791D02*
D03*
X23878Y31594D02*
D03*
X23878Y31398D02*
D03*
X23878Y31201D02*
D03*
X22303D02*
D03*
X22303Y31398D02*
D03*
X22303Y31594D02*
D03*
X22303Y31791D02*
D03*
X22303Y31988D02*
D03*
X22303Y32185D02*
D03*
D39*
X23580Y30906D02*
D03*
X23386D02*
D03*
X23189D02*
D03*
X22992D02*
D03*
X22795D02*
D03*
X22599D02*
D03*
Y32480D02*
D03*
X22795D02*
D03*
X22992D02*
D03*
X23189D02*
D03*
X23386D02*
D03*
X23583D02*
D03*
D40*
X7205Y5689D02*
D03*
Y4705D02*
D03*
D41*
X9646Y23720D02*
D03*
D42*
X10059Y23976D02*
D03*
Y23720D02*
D03*
Y23465D02*
D03*
X9232D02*
D03*
Y23720D02*
D03*
Y23976D02*
D03*
D43*
X12283Y2598D02*
D03*
Y946D02*
D03*
D44*
X12715Y2559D02*
D03*
Y2244D02*
D03*
Y1929D02*
D03*
Y1614D02*
D03*
Y1299D02*
D03*
Y984D02*
D03*
X11852D02*
D03*
Y1299D02*
D03*
Y1614D02*
D03*
Y1929D02*
D03*
Y2244D02*
D03*
Y2559D02*
D03*
D84*
X3671Y6181D02*
D03*
D85*
X19094Y12362D02*
D03*
D86*
X3465Y10276D02*
Y10311D01*
X3583Y10429D02*
Y17480D01*
X3465Y10311D02*
X3583Y10429D01*
Y17480D02*
X6057Y19955D01*
X9615Y33071D02*
X12992D01*
X9154Y28051D02*
Y32610D01*
X9615Y33071D01*
X12992D02*
X13960D01*
X15731Y34843D02*
X18543D01*
X13960Y33071D02*
X15731Y34843D01*
X6057Y19955D02*
Y20932D01*
Y22281D01*
X10076D01*
X10591Y22795D01*
X3071Y1260D02*
Y1871D01*
Y669D02*
Y1260D01*
D87*
X10925Y34055D02*
X11319D01*
X18465Y30433D02*
X19449Y31417D01*
X18465Y29685D02*
Y30433D01*
X20925Y32461D02*
X21457D01*
X20709Y32244D02*
X20925Y32461D01*
X20709Y31417D02*
Y32244D01*
X16299Y29685D02*
X17362D01*
X15256Y28642D02*
X16299Y29685D01*
X14843Y28642D02*
X15256D01*
X11850Y27873D02*
Y28738D01*
Y27008D02*
Y27873D01*
X13778D01*
X14764Y28563D02*
X14843Y28642D01*
X14468Y28563D02*
X14764D01*
X13778Y27873D02*
X14468Y28563D01*
X10630Y29958D02*
X11850Y28738D01*
Y27008D02*
X12111Y26747D01*
Y25286D02*
Y26747D01*
X10979Y23765D02*
X11324D01*
X10945Y23799D02*
X10979Y23765D01*
X11324D02*
X11339Y23750D01*
X10630Y29958D02*
Y30118D01*
X19808Y34020D02*
Y34727D01*
X18543Y34843D02*
X19693D01*
X19808Y34727D01*
X10059Y25591D02*
X10630D01*
X9193Y25986D02*
X9213Y25967D01*
X9154Y26772D02*
X9193Y26732D01*
X9213Y25967D02*
X9232D01*
X9193Y25986D02*
Y26732D01*
X19808Y33937D02*
X19828Y33917D01*
X20630D01*
X18358Y34020D02*
X19060D01*
X18236Y33898D02*
Y33907D01*
X18315Y33986D01*
X18325D01*
X18358Y34020D01*
X19808Y33035D02*
X19828Y33016D01*
Y32731D02*
X20079Y32480D01*
X19828Y32731D02*
Y33016D01*
X20079Y31649D02*
Y32480D01*
X9085Y25234D02*
X9213D01*
X8925Y25394D02*
X9085Y25234D01*
X9213D02*
X9232Y25215D01*
X18032Y28110D02*
X19087D01*
X19094Y28118D01*
X17736Y28406D02*
X18032Y28110D01*
X17736Y28406D02*
Y30354D01*
X17756Y30374D02*
Y31260D01*
X17776Y31280D01*
X17736Y30354D02*
X17756Y30374D01*
X7185Y4685D02*
X7205Y4705D01*
X7185Y4134D02*
Y4685D01*
Y5709D02*
X7205Y5689D01*
X7185Y5709D02*
Y6299D01*
X12715Y2244D02*
X13552D01*
X7596Y4941D02*
X8071D01*
X7205Y4705D02*
X7362D01*
X7480Y4823D01*
Y4826D01*
X7596Y4941D01*
X7323Y5571D02*
X7556D01*
X7596Y5531D01*
X7205Y5689D02*
X7323Y5571D01*
X7596Y5531D02*
X8071D01*
X21398Y3740D02*
Y3770D01*
X23258Y7884D02*
X23268Y7874D01*
X23248Y8780D02*
X23258Y8770D01*
X18868Y8770D02*
X18878Y8780D01*
X14124Y7884D02*
X14134Y7874D01*
X14114Y8780D02*
X14124Y8770D01*
D88*
X12874Y18723D02*
Y23226D01*
X12955Y23307D02*
X14803D01*
X12874Y23226D02*
X12955Y23307D01*
X9291Y15141D02*
X12874Y18723D01*
X9291Y11693D02*
Y15141D01*
X14803Y28012D02*
X14843Y28051D01*
X14803Y24764D02*
Y28012D01*
X9449Y5888D02*
Y5906D01*
X14843Y28002D02*
X15632D01*
X5709Y3809D02*
X6289Y3228D01*
X8543D02*
X8957Y3642D01*
X6289Y3228D02*
X8543D01*
X15632Y28002D02*
X15748Y28118D01*
X9449Y5888D02*
X9646Y5691D01*
Y5563D02*
Y5691D01*
X5089Y4488D02*
Y4626D01*
Y4488D02*
X5512Y4065D01*
X5512D01*
X5709Y3868D01*
Y3809D02*
Y3868D01*
X5079Y4636D02*
X5089Y4626D01*
X8957Y3642D02*
Y5155D01*
X9187Y5386D01*
X9596D01*
X9646Y5435D01*
Y5563D01*
D89*
X9154Y26772D02*
Y28051D01*
X5247Y3311D02*
X5841Y2717D01*
X7355D01*
X8024Y2047D01*
X11909Y34055D02*
X12638D01*
X10236Y2085D02*
X10780Y2628D01*
X10876D01*
X9853Y2078D02*
X10229D01*
X10236Y1949D02*
Y2085D01*
X9843Y2067D02*
X9853Y2078D01*
X9823Y2047D02*
X9853Y2078D01*
X10236Y1949D02*
X10856Y1329D01*
X8024Y2047D02*
X9823D01*
X10856Y1319D02*
X10882Y1293D01*
X10892D01*
X10856Y1319D02*
Y1329D01*
X10876Y2628D02*
X10906Y2657D01*
X4793Y3311D02*
Y3976D01*
Y3311D02*
X5247D01*
X3528Y3165D02*
X3543Y3150D01*
X3528Y3165D02*
Y3958D01*
X3543Y3150D02*
X4632D01*
X2461Y3165D02*
X3528D01*
X4632Y3150D02*
X4793Y3311D01*
X2461Y2362D02*
X2951Y1871D01*
X2461Y2362D02*
Y3165D01*
X2951Y1871D02*
X3071D01*
X10591Y22795D02*
X10945Y23150D01*
Y23799D01*
X8298Y24034D02*
X8435Y23898D01*
X7501Y24409D02*
X7876Y24034D01*
X8298D01*
X8435Y23898D02*
X8465D01*
X7216Y24409D02*
X7501D01*
X8441Y26772D02*
X9154D01*
X8268Y26575D02*
Y26598D01*
X8441Y26772D01*
X8268Y25394D02*
X8925D01*
X13543Y30906D02*
X14272D01*
X21063Y29528D02*
X21831D01*
X19094Y9954D02*
Y11634D01*
X18887Y9747D02*
X19094Y9954D01*
X19075Y11634D02*
X19094D01*
X18976Y11535D02*
X19075Y11634D01*
X14144Y8839D02*
X15052Y9747D01*
X15052D01*
X20197Y3386D02*
X21168D01*
X21368Y3586D02*
Y3711D01*
X21398Y3740D01*
X21168Y3386D02*
X21368Y3586D01*
X18878Y9737D02*
X18887Y9747D01*
X18878Y8780D02*
Y9737D01*
X14114Y8780D02*
X14144Y8809D01*
X22311Y9747D02*
X23248Y8809D01*
X14144Y8809D02*
Y8839D01*
X23248Y8780D02*
Y8809D01*
D90*
X20630Y33917D02*
Y34239D01*
X21047D01*
X20079Y29035D02*
Y29132D01*
Y29802D01*
X20204Y29132D02*
X20691D01*
X21063Y29504D01*
Y29528D01*
X19967Y29118D02*
X20049Y29035D01*
X19094Y29118D02*
X19967D01*
X20049Y29035D02*
X20079D01*
D91*
X12795Y23819D02*
X19096D01*
X11024Y25591D02*
X12795Y23819D01*
X10630Y25591D02*
X11024D01*
X20079Y29802D02*
Y31649D01*
D92*
X19096Y23819D02*
Y27165D01*
Y14056D02*
Y23819D01*
X19094Y14055D02*
X19096Y14056D01*
X17047Y2959D02*
Y9738D01*
X17056Y9747D02*
X18878D01*
X15052D02*
X17056D01*
X17047Y9738D02*
X17056Y9747D01*
X17047Y2959D02*
X17762Y2244D01*
X18386D01*
X19528Y3386D02*
X20197D01*
X18386Y2244D02*
X19528Y3386D01*
X18887Y9747D02*
X22311D01*
D93*
X7501Y24409D02*
X7679Y24588D01*
Y24781D02*
X8268Y25370D01*
X7679Y24588D02*
Y24781D01*
X8268Y25370D02*
Y25394D01*
X19094Y13091D02*
Y14055D01*
Y27167D02*
X19096Y27165D01*
X19094Y27167D02*
Y28118D01*
D94*
X13701Y6260D02*
D03*
D95*
X23543Y6260D02*
D03*
D96*
X21831Y29528D02*
D03*
D97*
Y28740D02*
D03*
D98*
X13822Y25984D02*
D03*
D99*
X23350D02*
D03*
D100*
X7283Y30118D02*
D03*
Y28118D02*
D03*
Y32118D02*
D03*
X10630Y32118D02*
D03*
Y28118D02*
D03*
Y30118D02*
D03*
X15748D02*
D03*
Y28118D02*
D03*
Y32118D02*
D03*
X19094Y32118D02*
D03*
Y30118D02*
D03*
Y29118D02*
D03*
Y28118D02*
D03*
D101*
X21358Y33632D02*
D03*
X24862D02*
D03*
D102*
X21358Y34892D02*
D03*
X24862D02*
D03*
D103*
X11102Y11618D02*
D03*
X2008D02*
D03*
X11102Y20894D02*
D03*
X2008D02*
D03*
D104*
X8057Y20953D02*
D03*
X7057Y20932D02*
D03*
X6057D02*
D03*
X5057D02*
D03*
D105*
X1181Y1181D02*
D03*
X24409D02*
D03*
Y29528D02*
D03*
X1181D02*
D03*
X13189D02*
D03*
D106*
X3583Y11142D02*
D03*
X12244Y1620D02*
D03*
X11398Y2249D02*
D03*
Y1613D02*
D03*
X10925Y34055D02*
D03*
X18465Y29685D02*
D03*
X20709Y31417D02*
D03*
X19449D02*
D03*
X17362Y29685D02*
D03*
X11535Y24331D02*
D03*
X12111Y25286D02*
D03*
X11339Y23750D02*
D03*
X23518Y32875D02*
D03*
X23006Y32921D02*
D03*
X24273Y27301D02*
D03*
Y23364D02*
D03*
Y21396D02*
D03*
Y19427D02*
D03*
Y17459D02*
D03*
Y15490D02*
D03*
Y13522D02*
D03*
Y11553D02*
D03*
Y9585D02*
D03*
Y7616D02*
D03*
Y3679D02*
D03*
X22305Y23364D02*
D03*
Y21396D02*
D03*
Y19427D02*
D03*
Y17459D02*
D03*
Y15490D02*
D03*
Y13522D02*
D03*
Y11553D02*
D03*
Y5648D02*
D03*
Y1711D02*
D03*
X20336Y27301D02*
D03*
Y25333D02*
D03*
Y21396D02*
D03*
Y19427D02*
D03*
Y17459D02*
D03*
Y15490D02*
D03*
Y13522D02*
D03*
Y11553D02*
D03*
X18368Y31238D02*
D03*
Y29270D02*
D03*
Y27301D02*
D03*
Y25333D02*
D03*
Y19427D02*
D03*
Y17459D02*
D03*
Y15490D02*
D03*
Y13522D02*
D03*
Y11553D02*
D03*
X16399Y29270D02*
D03*
Y27301D02*
D03*
Y25333D02*
D03*
Y21396D02*
D03*
Y17459D02*
D03*
Y15490D02*
D03*
Y13522D02*
D03*
Y11553D02*
D03*
Y1711D02*
D03*
X14431Y29270D02*
D03*
Y27301D02*
D03*
Y19427D02*
D03*
Y15490D02*
D03*
Y13522D02*
D03*
Y3679D02*
D03*
Y1711D02*
D03*
X12462Y27301D02*
D03*
Y25333D02*
D03*
Y17459D02*
D03*
Y13522D02*
D03*
Y7616D02*
D03*
Y3679D02*
D03*
X10494Y31238D02*
D03*
Y29270D02*
D03*
Y27301D02*
D03*
Y19427D02*
D03*
Y17459D02*
D03*
Y15490D02*
D03*
Y7616D02*
D03*
X8525Y33207D02*
D03*
Y31238D02*
D03*
Y29270D02*
D03*
Y27301D02*
D03*
Y21396D02*
D03*
Y19427D02*
D03*
Y17459D02*
D03*
Y15490D02*
D03*
Y13522D02*
D03*
X6557Y33207D02*
D03*
Y31238D02*
D03*
Y25333D02*
D03*
Y23364D02*
D03*
Y19427D02*
D03*
Y15490D02*
D03*
Y13522D02*
D03*
Y11553D02*
D03*
X4588Y31238D02*
D03*
Y29270D02*
D03*
Y27301D02*
D03*
Y23364D02*
D03*
Y21396D02*
D03*
Y17459D02*
D03*
Y15490D02*
D03*
Y13522D02*
D03*
Y11553D02*
D03*
Y1711D02*
D03*
X2620Y31238D02*
D03*
Y29270D02*
D03*
Y27301D02*
D03*
Y25333D02*
D03*
Y23364D02*
D03*
Y19427D02*
D03*
Y17459D02*
D03*
Y15490D02*
D03*
Y13522D02*
D03*
X651Y31238D02*
D03*
Y21396D02*
D03*
Y19427D02*
D03*
Y17459D02*
D03*
Y15490D02*
D03*
Y13522D02*
D03*
X14449Y21378D02*
D03*
X5945Y6575D02*
D03*
Y7362D02*
D03*
X5925Y8898D02*
D03*
Y8189D02*
D03*
X5217Y5748D02*
D03*
X4439D02*
D03*
X3661D02*
D03*
X5217Y5039D02*
D03*
X4439D02*
D03*
X3661D02*
D03*
X5217Y8189D02*
D03*
X4439D02*
D03*
X3661D02*
D03*
Y8898D02*
D03*
X4439D02*
D03*
X5217D02*
D03*
X12898Y10076D02*
D03*
X15236Y5748D02*
D03*
X13583Y1339D02*
D03*
X10127Y4092D02*
D03*
X10510Y4803D02*
D03*
X10433Y3740D02*
D03*
X22087Y34055D02*
D03*
X21811Y33258D02*
D03*
X24333Y34400D02*
D03*
X24405Y33258D02*
D03*
X4961Y9843D02*
D03*
X6404Y9557D02*
D03*
X9744Y7677D02*
D03*
X1888Y3519D02*
D03*
X1850Y2795D02*
D03*
X1575Y3150D02*
D03*
X7953Y8228D02*
D03*
Y8858D02*
D03*
X8228Y7756D02*
D03*
X10197Y6772D02*
D03*
X12008Y7480D02*
D03*
X16220Y5236D02*
D03*
X15236D02*
D03*
Y4016D02*
D03*
X16181D02*
D03*
X18386D02*
D03*
X20591D02*
D03*
X20906D02*
D03*
X22283Y3740D02*
D03*
X21850Y5236D02*
D03*
X20906D02*
D03*
X20591D02*
D03*
X19646D02*
D03*
X19331D02*
D03*
X18386D02*
D03*
X20000Y10827D02*
D03*
X24094Y8780D02*
D03*
X20433Y7244D02*
D03*
X21378D02*
D03*
X22953D02*
D03*
X21378Y8465D02*
D03*
X20433D02*
D03*
X19724Y8780D02*
D03*
X19173Y7244D02*
D03*
X17913D02*
D03*
Y8465D02*
D03*
X14508Y8496D02*
D03*
X13504Y9094D02*
D03*
X8465Y23031D02*
D03*
X9213Y23228D02*
D03*
X9646D02*
D03*
Y24213D02*
D03*
X10945Y24685D02*
D03*
X6260Y29744D02*
D03*
X10138Y26772D02*
D03*
X16748Y32270D02*
D03*
X13661Y34055D02*
D03*
X12244Y31102D02*
D03*
X16850Y30354D02*
D03*
X17362Y33898D02*
D03*
X20630Y33031D02*
D03*
X21457Y31575D02*
D03*
X4585Y25000D02*
D03*
X5175D02*
D03*
Y23819D02*
D03*
X4034D02*
D03*
X4055Y25000D02*
D03*
X3740Y24409D02*
D03*
X5432D02*
D03*
X21598Y2071D02*
D03*
X19975Y2087D02*
D03*
X20236Y2638D02*
D03*
Y1496D02*
D03*
X21378D02*
D03*
Y2677D02*
D03*
X20787D02*
D03*
Y1496D02*
D03*
X6693Y1890D02*
D03*
X5315Y1260D02*
D03*
X6378D02*
D03*
X5827D02*
D03*
X14252Y10591D02*
D03*
X11720Y8841D02*
D03*
X12677Y9799D02*
D03*
X8309Y9154D02*
D03*
X8622Y9370D02*
D03*
X7340Y8928D02*
D03*
X7642Y11398D02*
D03*
X8386Y13071D02*
D03*
X21047Y34239D02*
D03*
X20630D02*
D03*
X22783Y33199D02*
D03*
X23164Y34283D02*
D03*
X24592Y31336D02*
D03*
X22008Y31989D02*
D03*
X24277Y32217D02*
D03*
X24606Y32087D02*
D03*
Y31732D02*
D03*
X17262Y19661D02*
D03*
X17441Y20079D02*
D03*
X18045Y20669D02*
D03*
X17753Y20393D02*
D03*
X14803Y24764D02*
D03*
Y23307D02*
D03*
X11575Y25787D02*
D03*
X8622Y12323D02*
D03*
X9449Y5906D02*
D03*
X9134Y3150D02*
D03*
X10827Y5630D02*
D03*
X9600Y3051D02*
D03*
X11929Y4724D02*
D03*
X9291Y11693D02*
D03*
X6969Y11575D02*
D03*
X6732Y3622D02*
D03*
X7126D02*
D03*
X7480D02*
D03*
X8169Y6260D02*
D03*
X7480Y6732D02*
D03*
X8543Y4488D02*
D03*
Y4843D02*
D03*
Y5906D02*
D03*
X5709Y18670D02*
D03*
X4724Y19685D02*
D03*
X7293Y8130D02*
D03*
X6250Y4331D02*
D03*
X5945Y5039D02*
D03*
X3465Y10276D02*
D03*
X4173Y3525D02*
D03*
X3071Y1260D02*
D03*
Y669D02*
D03*
X17874Y5748D02*
D03*
X6732Y3937D02*
D03*
X7874Y6732D02*
D03*
X7126D02*
D03*
X5945Y5748D02*
D03*
X8543Y5551D02*
D03*
X8169Y4055D02*
D03*
Y3622D02*
D03*
X7815D02*
D03*
X7205Y5197D02*
D03*
X6752Y4262D02*
D03*
X8169Y4478D02*
D03*
Y5925D02*
D03*
X8543Y5197D02*
D03*
M02*
