G04 Layer_Physical_Order=2*
G04 Layer_Color=16711680*
%FSLAX25Y25*%
%MOIN*%
G70*
G01*
G75*
%ADD39C,0.01000*%
%ADD40C,0.01181*%
%ADD41C,0.01378*%
%ADD42C,0.03150*%
%ADD43C,0.00591*%
%ADD48O,0.03937X0.07087*%
%ADD49O,0.03937X0.08661*%
%ADD50C,0.06102*%
%ADD51C,0.04134*%
%ADD52C,0.06000*%
%ADD53C,0.09449*%
%ADD54C,0.08858*%
%ADD55C,0.06402*%
%ADD56C,0.04402*%
%ADD57C,0.02362*%
%ADD58C,0.02756*%
G36*
X152568Y393701D02*
X152601Y393201D01*
X152248Y393154D01*
X151526Y392855D01*
X150906Y392379D01*
X150430Y391759D01*
X150131Y391037D01*
X150029Y390262D01*
Y388400D01*
X153023D01*
X156017D01*
Y390262D01*
X155915Y391037D01*
X155616Y391759D01*
X155140Y392379D01*
X154520Y392855D01*
X153798Y393154D01*
X153445Y393201D01*
X153478Y393701D01*
X186585Y393701D01*
X186617Y393201D01*
X186264Y393154D01*
X185542Y392855D01*
X184922Y392379D01*
X184446Y391759D01*
X184147Y391037D01*
X184045Y390262D01*
Y388400D01*
X187039D01*
X190033D01*
Y390262D01*
X189931Y391037D01*
X189632Y391759D01*
X189156Y392379D01*
X188536Y392855D01*
X187814Y393154D01*
X187461Y393201D01*
X187494Y393701D01*
X256000Y393701D01*
X256000Y83300D01*
X35Y83300D01*
X35Y144600D01*
X60915D01*
Y143153D01*
X57997Y140235D01*
X51400D01*
X50889Y140133D01*
X50456Y139844D01*
X43156Y132544D01*
X42867Y132111D01*
X42765Y131600D01*
Y125500D01*
X42867Y124989D01*
X43156Y124556D01*
X45406Y122306D01*
X45839Y122017D01*
X46350Y121915D01*
X78250D01*
X78761Y122017D01*
X79194Y122306D01*
X81523Y124635D01*
X81812Y125068D01*
X81914Y125579D01*
Y126713D01*
X82405Y126916D01*
X83161Y127497D01*
X83741Y128253D01*
X84106Y129133D01*
X84230Y130078D01*
X84106Y131023D01*
X83741Y131904D01*
X83161Y132660D01*
X82405Y133240D01*
X81524Y133605D01*
X80579Y133730D01*
X79634Y133605D01*
X78754Y133240D01*
X77997Y132660D01*
X77417Y131904D01*
X77052Y131023D01*
X76928Y130078D01*
X77052Y129133D01*
X77417Y128253D01*
X77997Y127497D01*
X78754Y126916D01*
X79245Y126713D01*
Y126132D01*
X77697Y124585D01*
X46903D01*
X45435Y126053D01*
Y131047D01*
X47063Y132676D01*
X47440Y132345D01*
X47085Y131883D01*
X46682Y130910D01*
X46610Y130366D01*
X50079D01*
Y133834D01*
X49535Y133763D01*
X48562Y133360D01*
X48099Y133005D01*
X47769Y133382D01*
X51953Y137565D01*
X58550D01*
X59061Y137667D01*
X59494Y137956D01*
X63194Y141656D01*
X63388Y141947D01*
X63495Y141975D01*
X63874Y141969D01*
X63944Y141947D01*
X64386Y141286D01*
X65172Y140760D01*
X65600Y140675D01*
Y143000D01*
X66100D01*
Y143500D01*
X68425D01*
X68340Y143928D01*
X68186Y144159D01*
X68421Y144600D01*
X69244D01*
Y133231D01*
X68753Y133028D01*
X67997Y132448D01*
X67417Y131691D01*
X67052Y130811D01*
X66928Y129866D01*
X67052Y128921D01*
X67417Y128040D01*
X67997Y127284D01*
X68753Y126704D01*
X69634Y126339D01*
X70579Y126215D01*
X71524Y126339D01*
X72405Y126704D01*
X73161Y127284D01*
X73741Y128040D01*
X74106Y128921D01*
X74230Y129866D01*
X74106Y130811D01*
X73741Y131691D01*
X73161Y132448D01*
X72405Y133028D01*
X71914Y133231D01*
Y144600D01*
X118800D01*
X118800Y153600D01*
X114889D01*
X114621Y154100D01*
X114855Y154449D01*
X114924Y154800D01*
X110676D01*
X110746Y154449D01*
X110979Y154100D01*
X110711Y153600D01*
X82438D01*
X82286Y154100D01*
X82414Y154186D01*
X82940Y154972D01*
X83025Y155400D01*
X78375D01*
X78460Y154972D01*
X78986Y154186D01*
X79114Y154100D01*
X78962Y153600D01*
X71914D01*
Y162776D01*
X74917Y165779D01*
X75000Y165763D01*
X75780Y165918D01*
X76440Y166360D01*
X76882Y167020D01*
X77037Y167800D01*
X77021Y167883D01*
X94694Y185556D01*
X94983Y185989D01*
X95085Y186500D01*
Y195250D01*
X94983Y195761D01*
X94694Y196194D01*
X89735Y201153D01*
Y224989D01*
X89840Y225060D01*
X90282Y225720D01*
X90437Y226500D01*
X90282Y227280D01*
X89840Y227940D01*
X89180Y228382D01*
X88400Y228537D01*
X87620Y228382D01*
X86960Y227940D01*
X86655Y227485D01*
X86155Y227637D01*
Y263579D01*
X86061Y264052D01*
X85794Y264452D01*
X57834Y292411D01*
Y318800D01*
X57740Y319272D01*
X57473Y319673D01*
X52773Y324373D01*
X52372Y324640D01*
X51900Y324734D01*
X16711D01*
X10534Y330911D01*
Y358573D01*
X10599Y358616D01*
X10997Y359211D01*
X11136Y359914D01*
X10997Y360617D01*
X10599Y361213D01*
X10534Y361256D01*
Y362789D01*
X12711Y364966D01*
X30559D01*
X30602Y364901D01*
X31197Y364503D01*
X31900Y364364D01*
X32603Y364503D01*
X33198Y364901D01*
X33597Y365497D01*
X33736Y366200D01*
X33597Y366903D01*
X33198Y367498D01*
X32603Y367897D01*
X31900Y368036D01*
X31197Y367897D01*
X30602Y367498D01*
X30559Y367434D01*
X12200D01*
X11728Y367340D01*
X11327Y367073D01*
X8427Y364173D01*
X8160Y363772D01*
X8066Y363300D01*
Y361256D01*
X8002Y361213D01*
X7603Y360617D01*
X7464Y359914D01*
X7603Y359211D01*
X8002Y358616D01*
X8066Y358573D01*
Y330400D01*
X8160Y329928D01*
X8427Y329527D01*
X15327Y322627D01*
X15728Y322360D01*
X16200Y322266D01*
X51389D01*
X55366Y318289D01*
Y291900D01*
X55460Y291428D01*
X55727Y291027D01*
X83687Y263068D01*
Y216321D01*
X83622Y216278D01*
X83224Y215682D01*
X83084Y214979D01*
X83224Y214276D01*
X83622Y213681D01*
X84218Y213282D01*
X84921Y213143D01*
X85624Y213282D01*
X86219Y213681D01*
X86565Y214198D01*
X86906Y214173D01*
X87065Y214115D01*
Y200600D01*
X87167Y200089D01*
X87456Y199656D01*
X92415Y194697D01*
Y187053D01*
X75166Y169804D01*
X75000Y169837D01*
X74220Y169682D01*
X73560Y169240D01*
X73118Y168580D01*
X72963Y167800D01*
X72996Y167633D01*
X69635Y164273D01*
X69346Y163840D01*
X69244Y163329D01*
Y153600D01*
X63585D01*
Y181489D01*
X63690Y181560D01*
X64132Y182220D01*
X64287Y183000D01*
X64132Y183780D01*
X63690Y184440D01*
X63585Y184511D01*
Y255197D01*
X69875Y261488D01*
X70000Y261463D01*
X70780Y261618D01*
X71440Y262060D01*
X71882Y262720D01*
X72037Y263500D01*
X71882Y264280D01*
X71440Y264940D01*
X70780Y265382D01*
X70000Y265537D01*
X69220Y265382D01*
X68560Y264940D01*
X68118Y264280D01*
X67963Y263500D01*
X67988Y263375D01*
X61306Y256694D01*
X61017Y256261D01*
X60915Y255750D01*
Y201130D01*
X60556Y200986D01*
X60415Y200957D01*
X59780Y201382D01*
X59000Y201537D01*
X58220Y201382D01*
X57560Y200940D01*
X57360Y200642D01*
X56473D01*
X53514Y203601D01*
Y214739D01*
X54014Y215006D01*
X54220Y214868D01*
X55000Y214713D01*
X55780Y214868D01*
X56440Y215310D01*
X56882Y215970D01*
X57037Y216750D01*
X56882Y217530D01*
X56440Y218190D01*
X56335Y218261D01*
Y245000D01*
X56233Y245511D01*
X55944Y245944D01*
X43835Y258053D01*
Y317989D01*
X43940Y318060D01*
X44382Y318720D01*
X44537Y319500D01*
X44382Y320280D01*
X43940Y320940D01*
X43280Y321382D01*
X42500Y321537D01*
X41720Y321382D01*
X41060Y320940D01*
X40618Y320280D01*
X40463Y319500D01*
X40618Y318720D01*
X41060Y318060D01*
X41165Y317989D01*
Y291300D01*
X22065D01*
X19892Y293473D01*
Y309360D01*
X20190Y309560D01*
X20632Y310220D01*
X20787Y311000D01*
X20632Y311780D01*
X20190Y312440D01*
X19530Y312882D01*
X18750Y313037D01*
X17970Y312882D01*
X17310Y312440D01*
X16868Y311780D01*
X16713Y311000D01*
X16868Y310220D01*
X17310Y309560D01*
X17608Y309360D01*
Y293000D01*
X17695Y292563D01*
X17943Y292193D01*
X18373Y291762D01*
X18182Y291300D01*
X0D01*
Y393701D01*
X152568Y393701D01*
D02*
G37*
G36*
X51358Y241277D02*
Y218337D01*
X51317Y218275D01*
X51230Y217839D01*
Y203128D01*
X51317Y202691D01*
X51565Y202321D01*
X55193Y198693D01*
X55563Y198445D01*
X56000Y198358D01*
X57360D01*
X57560Y198060D01*
X58220Y197618D01*
X59000Y197463D01*
X59780Y197618D01*
X60415Y198043D01*
X60556Y198014D01*
X60915Y197870D01*
Y184511D01*
X60810Y184440D01*
X60368Y183780D01*
X60213Y183000D01*
X60368Y182220D01*
X60810Y181560D01*
X60915Y181489D01*
Y153600D01*
X43100D01*
Y179525D01*
X43600Y179574D01*
X43660Y179272D01*
X44186Y178486D01*
X44972Y177960D01*
X45400Y177875D01*
Y180200D01*
Y182525D01*
X44972Y182440D01*
X44186Y181914D01*
X43660Y181128D01*
X43600Y180826D01*
X43100Y180875D01*
X43100Y248882D01*
X43562Y249073D01*
X51358Y241277D01*
D02*
G37*
%LPC*%
G36*
X156017Y387400D02*
X153523D01*
Y382610D01*
X153798Y382646D01*
X154520Y382945D01*
X155140Y383421D01*
X155616Y384041D01*
X155915Y384763D01*
X156017Y385538D01*
Y387400D01*
D02*
G37*
G36*
X186539D02*
X184045D01*
Y385538D01*
X184147Y384763D01*
X184446Y384041D01*
X184922Y383421D01*
X185542Y382945D01*
X186264Y382646D01*
X186539Y382610D01*
Y387400D01*
D02*
G37*
G36*
X190033D02*
X187539D01*
Y382610D01*
X187814Y382646D01*
X188536Y382945D01*
X189156Y383421D01*
X189632Y384041D01*
X189931Y384763D01*
X190033Y385538D01*
Y387400D01*
D02*
G37*
G36*
X152523D02*
X150029D01*
Y385538D01*
X150131Y384763D01*
X150430Y384041D01*
X150906Y383421D01*
X151526Y382945D01*
X152248Y382646D01*
X152523Y382610D01*
Y387400D01*
D02*
G37*
G36*
X99079Y390778D02*
X97761Y390604D01*
X96532Y390095D01*
X95478Y389286D01*
X94668Y388231D01*
X94160Y387003D01*
X93986Y385685D01*
X94160Y384367D01*
X94668Y383139D01*
X95478Y382084D01*
X96532Y381275D01*
X97761Y380766D01*
X99079Y380592D01*
X100397Y380766D01*
X101625Y381275D01*
X102680Y382084D01*
X103489Y383139D01*
X103998Y384367D01*
X104171Y385685D01*
X103998Y387003D01*
X103489Y388231D01*
X102680Y389286D01*
X101625Y390095D01*
X100397Y390604D01*
X99079Y390778D01*
D02*
G37*
G36*
X46716D02*
X45399Y390604D01*
X44170Y390095D01*
X43115Y389286D01*
X42306Y388231D01*
X41797Y387003D01*
X41624Y385685D01*
X41797Y384367D01*
X42306Y383139D01*
X43115Y382084D01*
X44170Y381275D01*
X45399Y380766D01*
X46716Y380592D01*
X48035Y380766D01*
X49263Y381275D01*
X50318Y382084D01*
X51127Y383139D01*
X51636Y384367D01*
X51809Y385685D01*
X51636Y387003D01*
X51127Y388231D01*
X50318Y389286D01*
X49263Y390095D01*
X48035Y390604D01*
X46716Y390778D01*
D02*
G37*
G36*
X187539Y376655D02*
Y372652D01*
X190033D01*
Y373727D01*
X189931Y374502D01*
X189632Y375224D01*
X189156Y375844D01*
X188536Y376320D01*
X187814Y376619D01*
X187539Y376655D01*
D02*
G37*
G36*
X153523D02*
Y372652D01*
X156017D01*
Y373727D01*
X155915Y374502D01*
X155616Y375224D01*
X155140Y375844D01*
X154520Y376320D01*
X153798Y376619D01*
X153523Y376655D01*
D02*
G37*
G36*
X186539Y376655D02*
X186264Y376619D01*
X185542Y376320D01*
X184922Y375844D01*
X184446Y375224D01*
X184147Y374502D01*
X184045Y373727D01*
Y372652D01*
X186539D01*
Y376655D01*
D02*
G37*
G36*
X152523D02*
X152248Y376619D01*
X151526Y376320D01*
X150906Y375844D01*
X150430Y375224D01*
X150131Y374502D01*
X150029Y373727D01*
Y372652D01*
X152523D01*
Y376655D01*
D02*
G37*
G36*
X190033Y371652D02*
X187539D01*
Y367649D01*
X187814Y367685D01*
X188536Y367984D01*
X189156Y368460D01*
X189632Y369080D01*
X189931Y369802D01*
X190033Y370577D01*
Y371652D01*
D02*
G37*
G36*
X156017D02*
X153523D01*
Y367649D01*
X153798Y367685D01*
X154520Y367984D01*
X155140Y368460D01*
X155616Y369080D01*
X155915Y369802D01*
X156017Y370577D01*
Y371652D01*
D02*
G37*
G36*
X186539D02*
X184045D01*
Y370577D01*
X184147Y369802D01*
X184446Y369080D01*
X184922Y368460D01*
X185542Y367984D01*
X186264Y367685D01*
X186539Y367649D01*
Y371652D01*
D02*
G37*
G36*
X152523D02*
X150029D01*
Y370577D01*
X150131Y369802D01*
X150430Y369080D01*
X150906Y368460D01*
X151526Y367984D01*
X152248Y367685D01*
X152523Y367649D01*
Y371652D01*
D02*
G37*
G36*
X180324Y357800D02*
X178700D01*
Y356176D01*
X179051Y356245D01*
X179772Y356728D01*
X180254Y357449D01*
X180324Y357800D01*
D02*
G37*
G36*
X166500D02*
X164876D01*
X164945Y357449D01*
X165427Y356728D01*
X166149Y356245D01*
X166500Y356176D01*
Y357800D01*
D02*
G37*
G36*
X140800Y355725D02*
Y353900D01*
X142625D01*
X142540Y354328D01*
X142014Y355114D01*
X141228Y355640D01*
X140800Y355725D01*
D02*
G37*
G36*
X139800D02*
X139372Y355640D01*
X138586Y355114D01*
X138060Y354328D01*
X137975Y353900D01*
X139800D01*
Y355725D01*
D02*
G37*
G36*
X154500Y354325D02*
X154072Y354240D01*
X153286Y353714D01*
X152760Y352928D01*
X152675Y352500D01*
X154500D01*
Y354325D01*
D02*
G37*
G36*
X101600Y349324D02*
Y347700D01*
X103224D01*
X103155Y348051D01*
X102673Y348773D01*
X101951Y349255D01*
X101600Y349324D01*
D02*
G37*
G36*
X100600D02*
X100249Y349255D01*
X99528Y348773D01*
X99045Y348051D01*
X98976Y347700D01*
X100600D01*
Y349324D01*
D02*
G37*
G36*
X103224Y346700D02*
X98976D01*
X99045Y346349D01*
X99479Y345700D01*
X99045Y345051D01*
X98976Y344700D01*
X103224D01*
X103155Y345051D01*
X102721Y345700D01*
X103155Y346349D01*
X103224Y346700D01*
D02*
G37*
G36*
X54000Y354855D02*
X52605Y354671D01*
X51305Y354133D01*
X50188Y353276D01*
X49332Y352160D01*
X48793Y350860D01*
X48610Y349465D01*
X48793Y348069D01*
X49332Y346769D01*
X50188Y345653D01*
X51305Y344796D01*
X52605Y344258D01*
X54000Y344074D01*
X55395Y344258D01*
X56695Y344796D01*
X57812Y345653D01*
X58668Y346769D01*
X59207Y348069D01*
X59390Y349465D01*
X59207Y350860D01*
X58668Y352160D01*
X57812Y353276D01*
X56695Y354133D01*
X55395Y354671D01*
X54000Y354855D01*
D02*
G37*
G36*
X102600Y363435D02*
X50400D01*
X49889Y363333D01*
X49456Y363044D01*
X43056Y356644D01*
X42767Y356211D01*
X42665Y355700D01*
Y344053D01*
X39875Y341262D01*
X39750Y341287D01*
X38970Y341132D01*
X38310Y340690D01*
X37868Y340030D01*
X37713Y339250D01*
X37738Y339125D01*
X28947Y330335D01*
X21495D01*
X20953Y330697D01*
X20250Y330836D01*
X19547Y330697D01*
X18951Y330298D01*
X18553Y329703D01*
X18414Y329000D01*
X18553Y328297D01*
X18951Y327701D01*
X19547Y327303D01*
X20250Y327164D01*
X20953Y327303D01*
X21495Y327665D01*
X29500D01*
X30011Y327767D01*
X30444Y328056D01*
X39625Y337238D01*
X39750Y337213D01*
X40530Y337368D01*
X41190Y337810D01*
X41632Y338470D01*
X41787Y339250D01*
X41762Y339375D01*
X44944Y342556D01*
X45233Y342989D01*
X45335Y343500D01*
Y355147D01*
X50953Y360765D01*
X102047D01*
X114506Y348306D01*
X114939Y348017D01*
X115450Y347915D01*
X138514D01*
X138666Y347415D01*
X138168Y347082D01*
X135168Y344082D01*
X134683Y343356D01*
X134512Y342500D01*
Y327000D01*
X134683Y326144D01*
X135168Y325418D01*
X170668Y289918D01*
X171394Y289433D01*
X172250Y289262D01*
X215646D01*
X216502Y289433D01*
X217228Y289918D01*
X217713Y290644D01*
X217883Y291500D01*
X217713Y292356D01*
X217228Y293082D01*
X216502Y293567D01*
X215646Y293738D01*
X173177D01*
X138988Y327927D01*
Y341573D01*
X140677Y343262D01*
X151500D01*
X152356Y343432D01*
X153082Y343918D01*
X153568Y344644D01*
X153738Y345500D01*
X153568Y346356D01*
X153082Y347082D01*
X152584Y347415D01*
X152736Y347915D01*
X154447D01*
X155570Y346793D01*
X155560Y346690D01*
X155118Y346030D01*
X154963Y345250D01*
X154988Y345125D01*
X154306Y344444D01*
X154017Y344011D01*
X153915Y343500D01*
Y337750D01*
X154017Y337239D01*
X154306Y336806D01*
X155556Y335556D01*
X155989Y335267D01*
X156500Y335165D01*
X172750D01*
X173261Y335267D01*
X173694Y335556D01*
X177599Y339462D01*
X177889Y339895D01*
X177990Y340406D01*
Y344333D01*
X178096Y344404D01*
X178538Y345065D01*
X178693Y345844D01*
X178538Y346624D01*
X178096Y347285D01*
X177435Y347726D01*
X176656Y347882D01*
X175876Y347726D01*
X175215Y347285D01*
X174774Y346624D01*
X174618Y345844D01*
X174774Y345065D01*
X175215Y344404D01*
X175321Y344333D01*
Y340958D01*
X172197Y337835D01*
X157053D01*
X156585Y338303D01*
Y342876D01*
X156972Y343218D01*
X157000Y343213D01*
X157780Y343368D01*
X158440Y343810D01*
X158882Y344470D01*
X159037Y345250D01*
X158882Y346030D01*
X158440Y346690D01*
X158335Y346761D01*
Y347250D01*
X158233Y347761D01*
X157944Y348194D01*
X156600Y349537D01*
X156641Y350093D01*
X156825Y350235D01*
X157340Y350078D01*
X157368Y349935D01*
X157810Y349274D01*
X158470Y348833D01*
X158576Y348812D01*
X158590Y348790D01*
X160659Y346722D01*
X160610Y346224D01*
X160560Y346190D01*
X160118Y345530D01*
X159963Y344750D01*
X160118Y343970D01*
X160560Y343310D01*
X161220Y342868D01*
X162000Y342713D01*
X162780Y342868D01*
X163440Y343310D01*
X163882Y343970D01*
X164037Y344750D01*
X163882Y345530D01*
X163440Y346190D01*
X162933Y346529D01*
Y346700D01*
X162862Y347057D01*
X162660Y347360D01*
X160713Y349307D01*
X161132Y349935D01*
X161287Y350715D01*
X161132Y351494D01*
X160690Y352155D01*
X160030Y352597D01*
X159250Y352752D01*
X158470Y352597D01*
X157893Y352210D01*
X157541Y352280D01*
X157351Y352369D01*
X157240Y352928D01*
X156714Y353714D01*
X155928Y354240D01*
X155500Y354325D01*
Y352000D01*
X155000D01*
Y351500D01*
X152675D01*
X152758Y351085D01*
X152773Y350994D01*
X152484Y350585D01*
X140898D01*
X140849Y351085D01*
X141228Y351160D01*
X142014Y351686D01*
X142540Y352472D01*
X142625Y352900D01*
X137975D01*
X138060Y352472D01*
X138586Y351686D01*
X139372Y351160D01*
X139751Y351085D01*
X139702Y350585D01*
X116003D01*
X103544Y363044D01*
X103111Y363333D01*
X102600Y363435D01*
D02*
G37*
G36*
X103224Y343700D02*
X98976D01*
X99045Y343349D01*
X99479Y342700D01*
X99045Y342051D01*
X98976Y341700D01*
X103224D01*
X103155Y342051D01*
X102721Y342700D01*
X103155Y343349D01*
X103224Y343700D01*
D02*
G37*
G36*
X132864Y370401D02*
X132085Y370246D01*
X131424Y369805D01*
X130982Y369144D01*
X130827Y368364D01*
X130982Y367585D01*
X131424Y366924D01*
X131530Y366853D01*
Y363636D01*
X131631Y363125D01*
X131921Y362692D01*
X133556Y361056D01*
X133989Y360767D01*
X134500Y360665D01*
X165714D01*
X165866Y360165D01*
X165427Y359873D01*
X164945Y359151D01*
X164876Y358800D01*
X167000D01*
Y358300D01*
X167500D01*
Y356176D01*
X167851Y356245D01*
X168400Y356612D01*
X168949Y356245D01*
X169300Y356176D01*
Y358300D01*
X170300D01*
Y356176D01*
X170651Y356245D01*
X171200Y356612D01*
X171749Y356245D01*
X172100Y356176D01*
Y358300D01*
X173100D01*
Y356176D01*
X173451Y356245D01*
X174000Y356612D01*
X174549Y356245D01*
X174900Y356176D01*
Y358300D01*
X175900D01*
Y356176D01*
X176251Y356245D01*
X176800Y356612D01*
X177349Y356245D01*
X177700Y356176D01*
Y358300D01*
X178200D01*
Y358800D01*
X180324D01*
X180254Y359151D01*
X179772Y359873D01*
X179334Y360165D01*
X179486Y360665D01*
X181197D01*
X188415Y353447D01*
Y343761D01*
X188310Y343690D01*
X187868Y343030D01*
X187713Y342250D01*
X187868Y341470D01*
X188310Y340810D01*
X188970Y340368D01*
X189750Y340213D01*
X190530Y340368D01*
X191190Y340810D01*
X191632Y341470D01*
X191787Y342250D01*
X191632Y343030D01*
X191190Y343690D01*
X191085Y343761D01*
Y354000D01*
X190983Y354511D01*
X190694Y354944D01*
X182694Y362944D01*
X182261Y363233D01*
X181750Y363335D01*
X135053D01*
X134199Y364189D01*
Y366853D01*
X134305Y366924D01*
X134746Y367585D01*
X134901Y368364D01*
X134746Y369144D01*
X134305Y369805D01*
X133644Y370246D01*
X132864Y370401D01*
D02*
G37*
G36*
X103224Y340700D02*
X98976D01*
X99045Y340349D01*
X99512Y339650D01*
X99045Y338951D01*
X98976Y338600D01*
X103224D01*
X103155Y338951D01*
X102688Y339650D01*
X103155Y340349D01*
X103224Y340700D01*
D02*
G37*
G36*
Y337600D02*
X98976D01*
X99045Y337249D01*
X99512Y336550D01*
X99045Y335851D01*
X98976Y335500D01*
X103224D01*
X103155Y335851D01*
X102688Y336550D01*
X103155Y337249D01*
X103224Y337600D01*
D02*
G37*
G36*
Y334500D02*
X98976D01*
X99045Y334149D01*
X99479Y333500D01*
X99045Y332851D01*
X98976Y332500D01*
X103224D01*
X103155Y332851D01*
X102721Y333500D01*
X103155Y334149D01*
X103224Y334500D01*
D02*
G37*
G36*
Y331500D02*
X98976D01*
X99045Y331149D01*
X99479Y330500D01*
X99045Y329851D01*
X98976Y329500D01*
X103224D01*
X103155Y329851D01*
X102721Y330500D01*
X103155Y331149D01*
X103224Y331500D01*
D02*
G37*
G36*
Y328500D02*
X98976D01*
X99045Y328149D01*
X99528Y327428D01*
X99345Y326948D01*
X98945Y326351D01*
X98876Y326000D01*
X103124D01*
X103054Y326351D01*
X102573Y327073D01*
X102755Y327552D01*
X103155Y328149D01*
X103224Y328500D01*
D02*
G37*
G36*
X194500Y327287D02*
X193720Y327132D01*
X193060Y326690D01*
X192618Y326030D01*
X192463Y325250D01*
X192488Y325125D01*
X191947Y324585D01*
X173011D01*
X172940Y324690D01*
X172280Y325132D01*
X171500Y325287D01*
X170720Y325132D01*
X170060Y324690D01*
X169618Y324030D01*
X169463Y323250D01*
X169618Y322470D01*
X170060Y321810D01*
X170720Y321368D01*
X171500Y321213D01*
X172280Y321368D01*
X172940Y321810D01*
X173011Y321915D01*
X192500D01*
X193011Y322017D01*
X193444Y322306D01*
X194375Y323238D01*
X194500Y323213D01*
X195280Y323368D01*
X195940Y323810D01*
X196382Y324470D01*
X196537Y325250D01*
X196382Y326030D01*
X195940Y326690D01*
X195280Y327132D01*
X194500Y327287D01*
D02*
G37*
G36*
X103124Y325000D02*
X101500D01*
Y323376D01*
X101851Y323445D01*
X102573Y323927D01*
X103054Y324649D01*
X103124Y325000D01*
D02*
G37*
G36*
X100500D02*
X98876D01*
X98945Y324649D01*
X99427Y323927D01*
X100149Y323445D01*
X100500Y323376D01*
Y325000D01*
D02*
G37*
G36*
X216400Y311225D02*
Y309400D01*
X218225D01*
X218140Y309828D01*
X217614Y310614D01*
X216828Y311140D01*
X216400Y311225D01*
D02*
G37*
G36*
X215400D02*
X214972Y311140D01*
X214186Y310614D01*
X213660Y309828D01*
X213575Y309400D01*
X215400D01*
Y311225D01*
D02*
G37*
G36*
X218225Y308400D02*
X216400D01*
Y306575D01*
X216828Y306660D01*
X217614Y307186D01*
X218140Y307972D01*
X218225Y308400D01*
D02*
G37*
G36*
X215400D02*
X213575D01*
X213660Y307972D01*
X214186Y307186D01*
X214972Y306660D01*
X215400Y306575D01*
Y308400D01*
D02*
G37*
G36*
X103600Y300924D02*
X103249Y300855D01*
X102650Y300454D01*
X102051Y300855D01*
X101700Y300924D01*
Y298800D01*
Y296477D01*
X101877Y296300D01*
X106224D01*
X106155Y296651D01*
X105721Y297300D01*
X106155Y297949D01*
X106224Y298300D01*
X104100D01*
Y298800D01*
X103600D01*
Y300924D01*
D02*
G37*
G36*
X100700D02*
X100349Y300855D01*
X99700Y300421D01*
X99051Y300855D01*
X98700Y300924D01*
Y298800D01*
Y296676D01*
X99051Y296745D01*
X99700Y297179D01*
X100349Y296745D01*
X100700Y296676D01*
Y298800D01*
Y300924D01*
D02*
G37*
G36*
X97700D02*
X97349Y300855D01*
X96627Y300373D01*
X96595Y300324D01*
X95951Y300755D01*
X95600Y300824D01*
Y298700D01*
Y296576D01*
X95951Y296645D01*
X96672Y297128D01*
X96705Y297176D01*
X97349Y296745D01*
X97700Y296676D01*
Y298800D01*
Y300924D01*
D02*
G37*
G36*
X94600Y300824D02*
X94249Y300755D01*
X93600Y300321D01*
X92951Y300755D01*
X92600Y300824D01*
Y298700D01*
Y296576D01*
X92951Y296645D01*
X93600Y297079D01*
X94249Y296645D01*
X94600Y296576D01*
Y298700D01*
Y300824D01*
D02*
G37*
G36*
X91600D02*
X91249Y300755D01*
X90600Y300321D01*
X89951Y300755D01*
X89600Y300824D01*
Y298700D01*
Y296576D01*
X89951Y296645D01*
X90600Y297079D01*
X91249Y296645D01*
X91600Y296576D01*
Y298700D01*
Y300824D01*
D02*
G37*
G36*
X88600D02*
X88249Y300755D01*
X87550Y300288D01*
X86851Y300755D01*
X86500Y300824D01*
Y298700D01*
X86000D01*
Y298200D01*
X83876D01*
X83946Y297849D01*
X84412Y297150D01*
X83946Y296451D01*
X83876Y296100D01*
X88124D01*
X88108Y296184D01*
X88516Y296592D01*
X88600Y296576D01*
Y298700D01*
Y300824D01*
D02*
G37*
G36*
X85500D02*
X85149Y300755D01*
X84427Y300272D01*
X83946Y299551D01*
X83876Y299200D01*
X85500D01*
Y300824D01*
D02*
G37*
G36*
X97500Y360238D02*
X77500D01*
X76644Y360068D01*
X75918Y359582D01*
X71315Y354980D01*
X70959Y354446D01*
X70202Y354133D01*
X69086Y353276D01*
X68229Y352160D01*
X67691Y350860D01*
X67507Y349465D01*
X67691Y348069D01*
X68229Y346769D01*
X69086Y345653D01*
X70202Y344796D01*
X71503Y344258D01*
X72898Y344074D01*
X74293Y344258D01*
X75593Y344796D01*
X76709Y345653D01*
X77566Y346769D01*
X78105Y348069D01*
X78288Y349465D01*
X78105Y350860D01*
X77566Y352160D01*
X76709Y353276D01*
X76575Y353379D01*
X76543Y353878D01*
X78427Y355762D01*
X96573D01*
X106762Y345573D01*
Y337750D01*
X106932Y336894D01*
X107418Y336168D01*
X147168Y296418D01*
X147894Y295933D01*
X148750Y295762D01*
X152750D01*
X153606Y295933D01*
X154332Y296418D01*
X154817Y297144D01*
X154988Y298000D01*
X154817Y298856D01*
X154332Y299582D01*
X153606Y300067D01*
X152750Y300238D01*
X149677D01*
X111238Y338677D01*
Y346500D01*
X111067Y347356D01*
X110582Y348082D01*
X99082Y359582D01*
X98356Y360068D01*
X97500Y360238D01*
D02*
G37*
G36*
X106224Y295300D02*
X101976D01*
X102046Y294949D01*
X102479Y294300D01*
X102046Y293651D01*
X101976Y293300D01*
X106224D01*
X106155Y293651D01*
X105721Y294300D01*
X106155Y294949D01*
X106224Y295300D01*
D02*
G37*
G36*
X88124Y295100D02*
X83876D01*
X83946Y294749D01*
X84379Y294100D01*
X83946Y293451D01*
X83876Y293100D01*
X88124D01*
X88055Y293451D01*
X87621Y294100D01*
X88055Y294749D01*
X88124Y295100D01*
D02*
G37*
G36*
X106224Y292300D02*
X101976D01*
X102046Y291949D01*
X102479Y291300D01*
X102046Y290651D01*
X101976Y290300D01*
X106224D01*
X106155Y290651D01*
X105721Y291300D01*
X106155Y291949D01*
X106224Y292300D01*
D02*
G37*
G36*
X88124Y292100D02*
X83876D01*
X83946Y291749D01*
X84379Y291100D01*
X83946Y290451D01*
X83876Y290100D01*
X88124D01*
X88055Y290451D01*
X87621Y291100D01*
X88055Y291749D01*
X88124Y292100D01*
D02*
G37*
G36*
X106224Y289300D02*
X101976D01*
X102046Y288949D01*
X102527Y288228D01*
X102576Y288195D01*
X102146Y287551D01*
X102076Y287200D01*
X106324D01*
X106254Y287551D01*
X105772Y288273D01*
X105724Y288305D01*
X106155Y288949D01*
X106224Y289300D01*
D02*
G37*
G36*
X88124Y289100D02*
X83876D01*
X83946Y288749D01*
X84379Y288100D01*
X83946Y287451D01*
X83876Y287100D01*
X88124D01*
X88055Y287451D01*
X87621Y288100D01*
X88055Y288749D01*
X88124Y289100D01*
D02*
G37*
G36*
X100700Y285824D02*
X100349Y285755D01*
X99700Y285321D01*
X99051Y285755D01*
X98700Y285824D01*
Y283700D01*
Y281576D01*
X99051Y281645D01*
X99700Y282079D01*
X100349Y281645D01*
X100700Y281576D01*
Y283700D01*
Y285824D01*
D02*
G37*
G36*
X97700D02*
X97349Y285755D01*
X96700Y285321D01*
X96051Y285755D01*
X95700Y285824D01*
Y283700D01*
Y281576D01*
X96051Y281645D01*
X96700Y282079D01*
X97349Y281645D01*
X97700Y281576D01*
Y283700D01*
Y285824D01*
D02*
G37*
G36*
X94700D02*
X94349Y285755D01*
X93700Y285321D01*
X93051Y285755D01*
X92700Y285824D01*
Y283700D01*
Y281576D01*
X93051Y281645D01*
X93700Y282079D01*
X94349Y281645D01*
X94700Y281576D01*
Y283700D01*
Y285824D01*
D02*
G37*
G36*
X91700D02*
X91349Y285755D01*
X90700Y285321D01*
X90051Y285755D01*
X89700Y285824D01*
Y283700D01*
Y281576D01*
X90051Y281645D01*
X90700Y282079D01*
X91349Y281645D01*
X91700Y281576D01*
Y283700D01*
Y285824D01*
D02*
G37*
G36*
X195300Y286325D02*
Y284500D01*
X197125D01*
X197040Y284928D01*
X196514Y285714D01*
X195728Y286240D01*
X195300Y286325D01*
D02*
G37*
G36*
X194300D02*
X193872Y286240D01*
X193086Y285714D01*
X192560Y284928D01*
X192475Y284500D01*
X194300D01*
Y286325D01*
D02*
G37*
G36*
X106324Y283200D02*
X104700D01*
Y281576D01*
X105051Y281645D01*
X105772Y282127D01*
X106254Y282849D01*
X106324Y283200D01*
D02*
G37*
G36*
Y286200D02*
X102001D01*
X101700Y285899D01*
Y283700D01*
Y281576D01*
X102051Y281645D01*
X102700Y282079D01*
X103349Y281645D01*
X103700Y281576D01*
Y283700D01*
X104200D01*
Y284200D01*
X106324D01*
X106254Y284551D01*
X105821Y285200D01*
X106254Y285849D01*
X106324Y286200D01*
D02*
G37*
G36*
X88220Y286100D02*
X83876D01*
X83946Y285749D01*
X84412Y285050D01*
X83946Y284351D01*
X83876Y284000D01*
X86000D01*
Y283500D01*
X86500D01*
Y281376D01*
X86851Y281445D01*
X87572Y281927D01*
X87682Y282091D01*
X88349Y281645D01*
X88700Y281576D01*
Y283700D01*
Y285824D01*
X88574Y285799D01*
X88220Y286100D01*
D02*
G37*
G36*
X85500Y283000D02*
X83876D01*
X83946Y282649D01*
X84427Y281927D01*
X85149Y281445D01*
X85500Y281376D01*
Y283000D01*
D02*
G37*
G36*
X91795Y354855D02*
X90400Y354671D01*
X89100Y354133D01*
X87984Y353276D01*
X87127Y352160D01*
X86588Y350860D01*
X86405Y349465D01*
X86588Y348069D01*
X87127Y346769D01*
X87984Y345653D01*
X89100Y344796D01*
X89557Y344607D01*
Y317455D01*
X89728Y316598D01*
X90213Y315872D01*
X104664Y301421D01*
X104600Y301302D01*
Y299300D01*
X106602D01*
X106721Y299364D01*
X134768Y271318D01*
X135494Y270832D01*
X136350Y270662D01*
X215900D01*
X216756Y270832D01*
X217482Y271318D01*
X221082Y274918D01*
X221568Y275644D01*
X221738Y276500D01*
X221568Y277356D01*
X221082Y278082D01*
X220509Y278465D01*
X220661Y278965D01*
X221200D01*
X221711Y279067D01*
X222144Y279356D01*
X224444Y281656D01*
X224733Y282089D01*
X224835Y282600D01*
Y332200D01*
X224733Y332711D01*
X224444Y333144D01*
X211585Y346003D01*
Y347989D01*
X211690Y348060D01*
X212132Y348720D01*
X212287Y349500D01*
X212132Y350280D01*
X211690Y350940D01*
X211030Y351382D01*
X210250Y351537D01*
X209470Y351382D01*
X208810Y350940D01*
X208368Y350280D01*
X208213Y349500D01*
X208368Y348720D01*
X208810Y348060D01*
X208915Y347989D01*
Y345450D01*
X209017Y344939D01*
X209306Y344506D01*
X222165Y331647D01*
Y283153D01*
X220647Y281635D01*
X196440D01*
X196289Y282135D01*
X196514Y282286D01*
X197040Y283072D01*
X197125Y283500D01*
X192475D01*
X192560Y283072D01*
X193086Y282286D01*
X193312Y282135D01*
X193160Y281635D01*
X136503D01*
X133762Y284375D01*
X133787Y284500D01*
X133632Y285280D01*
X133190Y285940D01*
X132530Y286382D01*
X131750Y286537D01*
X130970Y286382D01*
X130310Y285940D01*
X129868Y285280D01*
X129713Y284500D01*
X129868Y283720D01*
X130310Y283060D01*
X130970Y282618D01*
X131750Y282463D01*
X131875Y282488D01*
X135006Y279356D01*
X135439Y279067D01*
X135950Y278965D01*
X218339D01*
X218491Y278465D01*
X217918Y278082D01*
X214973Y275138D01*
X137277D01*
X94033Y318382D01*
Y344607D01*
X94490Y344796D01*
X95607Y345653D01*
X96464Y346769D01*
X97002Y348069D01*
X97186Y349465D01*
X97002Y350860D01*
X96464Y352160D01*
X95607Y353276D01*
X94490Y354133D01*
X93190Y354671D01*
X91795Y354855D01*
D02*
G37*
G36*
X192300Y268225D02*
Y266400D01*
X194125D01*
X194040Y266828D01*
X193514Y267614D01*
X192728Y268140D01*
X192300Y268225D01*
D02*
G37*
G36*
X191300D02*
X190872Y268140D01*
X190086Y267614D01*
X189560Y266828D01*
X189475Y266400D01*
X191300D01*
Y268225D01*
D02*
G37*
G36*
X194125Y265400D02*
X192300D01*
Y263575D01*
X192728Y263660D01*
X193514Y264186D01*
X194040Y264972D01*
X194125Y265400D01*
D02*
G37*
G36*
X191300D02*
X189475D01*
X189560Y264972D01*
X190086Y264186D01*
X190872Y263660D01*
X191300Y263575D01*
Y265400D01*
D02*
G37*
G36*
X122700Y261324D02*
Y259700D01*
X124324D01*
X124255Y260051D01*
X123773Y260772D01*
X123051Y261255D01*
X122700Y261324D01*
D02*
G37*
G36*
X121700D02*
X121349Y261255D01*
X120627Y260772D01*
X120145Y260051D01*
X120076Y259700D01*
X121700D01*
Y261324D01*
D02*
G37*
G36*
X124324Y258700D02*
X120076D01*
X120145Y258349D01*
X120627Y257628D01*
X120893Y257450D01*
Y256950D01*
X120627Y256772D01*
X120145Y256051D01*
X120076Y255700D01*
X124324D01*
X124255Y256051D01*
X123773Y256772D01*
X123507Y256950D01*
Y257450D01*
X123773Y257628D01*
X124255Y258349D01*
X124324Y258700D01*
D02*
G37*
G36*
X250300Y255224D02*
Y253600D01*
X251924D01*
X251855Y253951D01*
X251373Y254673D01*
X250651Y255155D01*
X250300Y255224D01*
D02*
G37*
G36*
X249300D02*
X248949Y255155D01*
X248228Y254673D01*
X247745Y253951D01*
X247676Y253600D01*
X249300D01*
Y255224D01*
D02*
G37*
G36*
X244400D02*
Y253600D01*
X246024D01*
X245955Y253951D01*
X245473Y254673D01*
X244751Y255155D01*
X244400Y255224D01*
D02*
G37*
G36*
X243400D02*
X243049Y255155D01*
X242327Y254673D01*
X241845Y253951D01*
X241776Y253600D01*
X243400D01*
Y255224D01*
D02*
G37*
G36*
X238500D02*
Y253600D01*
X240124D01*
X240055Y253951D01*
X239573Y254673D01*
X238851Y255155D01*
X238500Y255224D01*
D02*
G37*
G36*
X237500D02*
X237149Y255155D01*
X236427Y254673D01*
X235945Y253951D01*
X235876Y253600D01*
X237500D01*
Y255224D01*
D02*
G37*
G36*
X232700D02*
Y253600D01*
X234324D01*
X234255Y253951D01*
X233772Y254673D01*
X233051Y255155D01*
X232700Y255224D01*
D02*
G37*
G36*
X231700D02*
X231349Y255155D01*
X230627Y254673D01*
X230145Y253951D01*
X230076Y253600D01*
X231700D01*
Y255224D01*
D02*
G37*
G36*
X226800D02*
Y253600D01*
X228424D01*
X228355Y253951D01*
X227872Y254673D01*
X227151Y255155D01*
X226800Y255224D01*
D02*
G37*
G36*
X225800D02*
X225449Y255155D01*
X224728Y254673D01*
X224245Y253951D01*
X224176Y253600D01*
X225800D01*
Y255224D01*
D02*
G37*
G36*
X220800D02*
Y253600D01*
X222424D01*
X222355Y253951D01*
X221872Y254673D01*
X221151Y255155D01*
X220800Y255224D01*
D02*
G37*
G36*
X219800D02*
X219449Y255155D01*
X218727Y254673D01*
X218245Y253951D01*
X218176Y253600D01*
X219800D01*
Y255224D01*
D02*
G37*
G36*
X214900D02*
Y253600D01*
X216524D01*
X216455Y253951D01*
X215972Y254673D01*
X215251Y255155D01*
X214900Y255224D01*
D02*
G37*
G36*
X213900D02*
X213549Y255155D01*
X212827Y254673D01*
X212345Y253951D01*
X212276Y253600D01*
X213900D01*
Y255224D01*
D02*
G37*
G36*
X209000D02*
Y253600D01*
X210624D01*
X210555Y253951D01*
X210072Y254673D01*
X209351Y255155D01*
X209000Y255224D01*
D02*
G37*
G36*
X208000D02*
X207649Y255155D01*
X206927Y254673D01*
X206445Y253951D01*
X206376Y253600D01*
X208000D01*
Y255224D01*
D02*
G37*
G36*
X203000D02*
Y253600D01*
X204624D01*
X204555Y253951D01*
X204072Y254673D01*
X203351Y255155D01*
X203000Y255224D01*
D02*
G37*
G36*
X202000D02*
X201649Y255155D01*
X200927Y254673D01*
X200446Y253951D01*
X200376Y253600D01*
X202000D01*
Y255224D01*
D02*
G37*
G36*
X197000D02*
Y253600D01*
X198624D01*
X198555Y253951D01*
X198073Y254673D01*
X197351Y255155D01*
X197000Y255224D01*
D02*
G37*
G36*
X196000D02*
X195649Y255155D01*
X194928Y254673D01*
X194446Y253951D01*
X194376Y253600D01*
X196000D01*
Y255224D01*
D02*
G37*
G36*
X191100D02*
Y253600D01*
X192724D01*
X192655Y253951D01*
X192173Y254673D01*
X191451Y255155D01*
X191100Y255224D01*
D02*
G37*
G36*
X190100D02*
X189749Y255155D01*
X189028Y254673D01*
X188546Y253951D01*
X188476Y253600D01*
X190100D01*
Y255224D01*
D02*
G37*
G36*
X185200D02*
Y253600D01*
X186824D01*
X186755Y253951D01*
X186273Y254673D01*
X185551Y255155D01*
X185200Y255224D01*
D02*
G37*
G36*
X184200D02*
X183849Y255155D01*
X183127Y254673D01*
X182645Y253951D01*
X182576Y253600D01*
X184200D01*
Y255224D01*
D02*
G37*
G36*
X179200D02*
Y253600D01*
X180824D01*
X180754Y253951D01*
X180272Y254673D01*
X179551Y255155D01*
X179200Y255224D01*
D02*
G37*
G36*
X178200D02*
X177849Y255155D01*
X177128Y254673D01*
X176646Y253951D01*
X176576Y253600D01*
X178200D01*
Y255224D01*
D02*
G37*
G36*
X173300D02*
Y253600D01*
X174924D01*
X174855Y253951D01*
X174372Y254673D01*
X173651Y255155D01*
X173300Y255224D01*
D02*
G37*
G36*
X172300D02*
X171949Y255155D01*
X171228Y254673D01*
X170746Y253951D01*
X170676Y253600D01*
X172300D01*
Y255224D01*
D02*
G37*
G36*
X167400D02*
Y253600D01*
X169024D01*
X168955Y253951D01*
X168473Y254673D01*
X167751Y255155D01*
X167400Y255224D01*
D02*
G37*
G36*
X166400D02*
X166049Y255155D01*
X165328Y254673D01*
X164846Y253951D01*
X164776Y253600D01*
X166400D01*
Y255224D01*
D02*
G37*
G36*
X124324Y254700D02*
X120076D01*
X120145Y254349D01*
X120627Y253627D01*
X120893Y253450D01*
Y252950D01*
X120627Y252772D01*
X120145Y252051D01*
X120076Y251700D01*
X124324D01*
X124255Y252051D01*
X123773Y252772D01*
X123507Y252950D01*
Y253450D01*
X123773Y253627D01*
X124255Y254349D01*
X124324Y254700D01*
D02*
G37*
G36*
X251924Y252600D02*
X250300D01*
Y250976D01*
X250651Y251045D01*
X251373Y251528D01*
X251855Y252249D01*
X251924Y252600D01*
D02*
G37*
G36*
X249300D02*
X247676D01*
X247745Y252249D01*
X248228Y251528D01*
X248949Y251045D01*
X249300Y250976D01*
Y252600D01*
D02*
G37*
G36*
X246024D02*
X244400D01*
Y250976D01*
X244751Y251045D01*
X245473Y251528D01*
X245955Y252249D01*
X246024Y252600D01*
D02*
G37*
G36*
X243400D02*
X241776D01*
X241845Y252249D01*
X242327Y251528D01*
X243049Y251045D01*
X243400Y250976D01*
Y252600D01*
D02*
G37*
G36*
X240124D02*
X238500D01*
Y250976D01*
X238851Y251045D01*
X239573Y251528D01*
X240055Y252249D01*
X240124Y252600D01*
D02*
G37*
G36*
X237500D02*
X235876D01*
X235945Y252249D01*
X236427Y251528D01*
X237149Y251045D01*
X237500Y250976D01*
Y252600D01*
D02*
G37*
G36*
X234324D02*
X232700D01*
Y250976D01*
X233051Y251045D01*
X233772Y251528D01*
X234255Y252249D01*
X234324Y252600D01*
D02*
G37*
G36*
X231700D02*
X230076D01*
X230145Y252249D01*
X230627Y251528D01*
X231349Y251045D01*
X231700Y250976D01*
Y252600D01*
D02*
G37*
G36*
X228424D02*
X226800D01*
Y250976D01*
X227151Y251045D01*
X227872Y251528D01*
X228355Y252249D01*
X228424Y252600D01*
D02*
G37*
G36*
X225800D02*
X224176D01*
X224245Y252249D01*
X224728Y251528D01*
X225449Y251045D01*
X225800Y250976D01*
Y252600D01*
D02*
G37*
G36*
X222424D02*
X220800D01*
Y250976D01*
X221151Y251045D01*
X221872Y251528D01*
X222355Y252249D01*
X222424Y252600D01*
D02*
G37*
G36*
X219800D02*
X218176D01*
X218245Y252249D01*
X218727Y251528D01*
X219449Y251045D01*
X219800Y250976D01*
Y252600D01*
D02*
G37*
G36*
X216524D02*
X214900D01*
Y250976D01*
X215251Y251045D01*
X215972Y251528D01*
X216455Y252249D01*
X216524Y252600D01*
D02*
G37*
G36*
X213900D02*
X212276D01*
X212345Y252249D01*
X212827Y251528D01*
X213549Y251045D01*
X213900Y250976D01*
Y252600D01*
D02*
G37*
G36*
X210624D02*
X209000D01*
Y250976D01*
X209351Y251045D01*
X210072Y251528D01*
X210555Y252249D01*
X210624Y252600D01*
D02*
G37*
G36*
X208000D02*
X206376D01*
X206445Y252249D01*
X206927Y251528D01*
X207649Y251045D01*
X208000Y250976D01*
Y252600D01*
D02*
G37*
G36*
X204624D02*
X203000D01*
Y250976D01*
X203351Y251045D01*
X204072Y251528D01*
X204555Y252249D01*
X204624Y252600D01*
D02*
G37*
G36*
X202000D02*
X200376D01*
X200446Y252249D01*
X200927Y251528D01*
X201649Y251045D01*
X202000Y250976D01*
Y252600D01*
D02*
G37*
G36*
X198624D02*
X197000D01*
Y250976D01*
X197351Y251045D01*
X198073Y251528D01*
X198555Y252249D01*
X198624Y252600D01*
D02*
G37*
G36*
X196000D02*
X194376D01*
X194446Y252249D01*
X194928Y251528D01*
X195649Y251045D01*
X196000Y250976D01*
Y252600D01*
D02*
G37*
G36*
X192724D02*
X191100D01*
Y250976D01*
X191451Y251045D01*
X192173Y251528D01*
X192655Y252249D01*
X192724Y252600D01*
D02*
G37*
G36*
X190100D02*
X188476D01*
X188546Y252249D01*
X189028Y251528D01*
X189749Y251045D01*
X190100Y250976D01*
Y252600D01*
D02*
G37*
G36*
X186824D02*
X185200D01*
Y250976D01*
X185551Y251045D01*
X186273Y251528D01*
X186755Y252249D01*
X186824Y252600D01*
D02*
G37*
G36*
X184200D02*
X182576D01*
X182645Y252249D01*
X183127Y251528D01*
X183849Y251045D01*
X184200Y250976D01*
Y252600D01*
D02*
G37*
G36*
X180824D02*
X179200D01*
Y250976D01*
X179551Y251045D01*
X180272Y251528D01*
X180754Y252249D01*
X180824Y252600D01*
D02*
G37*
G36*
X178200D02*
X176576D01*
X176646Y252249D01*
X177128Y251528D01*
X177849Y251045D01*
X178200Y250976D01*
Y252600D01*
D02*
G37*
G36*
X174924D02*
X173300D01*
Y250976D01*
X173651Y251045D01*
X174372Y251528D01*
X174855Y252249D01*
X174924Y252600D01*
D02*
G37*
G36*
X172300D02*
X170676D01*
X170746Y252249D01*
X171228Y251528D01*
X171949Y251045D01*
X172300Y250976D01*
Y252600D01*
D02*
G37*
G36*
X169024D02*
X167400D01*
Y250976D01*
X167751Y251045D01*
X168473Y251528D01*
X168955Y252249D01*
X169024Y252600D01*
D02*
G37*
G36*
X166400D02*
X164776D01*
X164846Y252249D01*
X165328Y251528D01*
X166049Y251045D01*
X166400Y250976D01*
Y252600D01*
D02*
G37*
G36*
X124324Y250700D02*
X120076D01*
X120145Y250349D01*
X120627Y249627D01*
X120893Y249450D01*
Y248950D01*
X120627Y248773D01*
X120145Y248051D01*
X120076Y247700D01*
X124324D01*
X124255Y248051D01*
X123773Y248773D01*
X123507Y248950D01*
Y249450D01*
X123773Y249627D01*
X124255Y250349D01*
X124324Y250700D01*
D02*
G37*
G36*
Y246700D02*
X120076D01*
X120145Y246349D01*
X120627Y245627D01*
X120893Y245450D01*
Y244950D01*
X120627Y244773D01*
X120145Y244051D01*
X120076Y243700D01*
X124324D01*
X124255Y244051D01*
X123773Y244773D01*
X123507Y244950D01*
Y245450D01*
X123773Y245627D01*
X124255Y246349D01*
X124324Y246700D01*
D02*
G37*
G36*
Y242700D02*
X120076D01*
X120145Y242349D01*
X120627Y241628D01*
X120893Y241450D01*
Y240950D01*
X120627Y240773D01*
X120145Y240051D01*
X120076Y239700D01*
X124324D01*
X124255Y240051D01*
X123773Y240773D01*
X123507Y240950D01*
Y241450D01*
X123773Y241628D01*
X124255Y242349D01*
X124324Y242700D01*
D02*
G37*
G36*
Y238700D02*
X120076D01*
X120145Y238349D01*
X120627Y237628D01*
X120893Y237450D01*
Y236950D01*
X120627Y236772D01*
X120145Y236051D01*
X120076Y235700D01*
X124324D01*
X124255Y236051D01*
X123773Y236772D01*
X123507Y236950D01*
Y237450D01*
X123773Y237628D01*
X124255Y238349D01*
X124324Y238700D01*
D02*
G37*
G36*
Y234700D02*
X120076D01*
X120145Y234349D01*
X120627Y233628D01*
X120968Y233400D01*
Y232900D01*
X120627Y232673D01*
X120145Y231951D01*
X120076Y231600D01*
X124324D01*
X124255Y231951D01*
X123773Y232673D01*
X123432Y232900D01*
Y233400D01*
X123773Y233628D01*
X124255Y234349D01*
X124324Y234700D01*
D02*
G37*
G36*
Y230600D02*
X120076D01*
X120145Y230249D01*
X120627Y229527D01*
X120968Y229300D01*
Y228800D01*
X120627Y228573D01*
X120145Y227851D01*
X120076Y227500D01*
X124324D01*
X124255Y227851D01*
X123773Y228573D01*
X123432Y228800D01*
Y229300D01*
X123773Y229527D01*
X124255Y230249D01*
X124324Y230600D01*
D02*
G37*
G36*
X139075Y233021D02*
X137934Y232870D01*
X136871Y232430D01*
X135958Y231730D01*
X135258Y230817D01*
X134817Y229754D01*
X134667Y228613D01*
X134817Y227472D01*
X135258Y226409D01*
X135958Y225496D01*
X136871Y224796D01*
X137934Y224355D01*
X139075Y224205D01*
X140216Y224355D01*
X141279Y224796D01*
X142192Y225496D01*
X142892Y226409D01*
X143332Y227472D01*
X143482Y228613D01*
X143332Y229754D01*
X142892Y230817D01*
X142192Y231730D01*
X141279Y232430D01*
X140216Y232870D01*
X139075Y233021D01*
D02*
G37*
G36*
X124324Y226500D02*
X120076D01*
X120145Y226149D01*
X120627Y225428D01*
X120968Y225200D01*
Y224700D01*
X120627Y224472D01*
X120145Y223751D01*
X120076Y223400D01*
X124324D01*
X124255Y223751D01*
X123773Y224472D01*
X123432Y224700D01*
Y225200D01*
X123773Y225428D01*
X124255Y226149D01*
X124324Y226500D01*
D02*
G37*
G36*
X237500Y234030D02*
X236098Y233845D01*
X234792Y233304D01*
X233670Y232443D01*
X232809Y231321D01*
X232268Y230015D01*
X232084Y228613D01*
X232268Y227211D01*
X232809Y225905D01*
X233670Y224783D01*
X234792Y223922D01*
X236098Y223381D01*
X237500Y223197D01*
X238902Y223381D01*
X240208Y223922D01*
X241330Y224783D01*
X242191Y225905D01*
X242732Y227211D01*
X242916Y228613D01*
X242732Y230015D01*
X242191Y231321D01*
X241330Y232443D01*
X240208Y233304D01*
X238902Y233845D01*
X237500Y234030D01*
D02*
G37*
G36*
X124324Y222400D02*
X120076D01*
X120145Y222049D01*
X120627Y221327D01*
X120968Y221100D01*
Y220600D01*
X120627Y220373D01*
X120145Y219651D01*
X120076Y219300D01*
X124324D01*
X124255Y219651D01*
X123773Y220373D01*
X123432Y220600D01*
Y221100D01*
X123773Y221327D01*
X124255Y222049D01*
X124324Y222400D01*
D02*
G37*
G36*
X162303Y237435D02*
X161447Y237264D01*
X160721Y236779D01*
X160236Y236053D01*
X160065Y235197D01*
X160236Y234340D01*
X160721Y233614D01*
X170418Y223918D01*
X171144Y223432D01*
X172000Y223262D01*
X179073D01*
X184343Y217992D01*
X185069Y217507D01*
X185925Y217337D01*
X186782Y217507D01*
X187508Y217992D01*
X187993Y218718D01*
X188163Y219575D01*
X187993Y220431D01*
X187508Y221157D01*
X181582Y227082D01*
X180856Y227568D01*
X180000Y227738D01*
X172927D01*
X163886Y236779D01*
X163160Y237264D01*
X162303Y237435D01*
D02*
G37*
G36*
X124324Y218300D02*
X122700D01*
Y216676D01*
X123051Y216745D01*
X123773Y217228D01*
X124255Y217949D01*
X124324Y218300D01*
D02*
G37*
G36*
X121700D02*
X120076D01*
X120145Y217949D01*
X120627Y217228D01*
X121349Y216745D01*
X121700Y216676D01*
Y218300D01*
D02*
G37*
G36*
X74921Y217057D02*
X74218Y216917D01*
X73622Y216519D01*
X73224Y215924D01*
X73084Y215221D01*
X73224Y214518D01*
X73622Y213922D01*
X73779Y213818D01*
Y197717D01*
X73602Y197599D01*
X73203Y197003D01*
X73064Y196300D01*
X73203Y195597D01*
X73602Y195001D01*
X74197Y194603D01*
X74900Y194464D01*
X75603Y194603D01*
X76199Y195001D01*
X76597Y195597D01*
X76736Y196300D01*
X76597Y197003D01*
X76199Y197599D01*
X76063Y197689D01*
Y213818D01*
X76219Y213922D01*
X76617Y214518D01*
X76757Y215221D01*
X76617Y215924D01*
X76219Y216519D01*
X75624Y216917D01*
X74921Y217057D01*
D02*
G37*
G36*
X243500Y188824D02*
Y187200D01*
X245124D01*
X245055Y187551D01*
X244572Y188273D01*
X243851Y188754D01*
X243500Y188824D01*
D02*
G37*
G36*
X242500D02*
X242149Y188754D01*
X241427Y188273D01*
X240945Y187551D01*
X240876Y187200D01*
X242500D01*
Y188824D01*
D02*
G37*
G36*
X233000D02*
Y187200D01*
X234624D01*
X234555Y187551D01*
X234072Y188273D01*
X233351Y188754D01*
X233000Y188824D01*
D02*
G37*
G36*
X232000D02*
X231649Y188754D01*
X230927Y188273D01*
X230445Y187551D01*
X230376Y187200D01*
X232000D01*
Y188824D01*
D02*
G37*
G36*
X159400D02*
Y187200D01*
X161024D01*
X160954Y187551D01*
X160473Y188273D01*
X159751Y188754D01*
X159400Y188824D01*
D02*
G37*
G36*
X158400D02*
X158049Y188754D01*
X157327Y188273D01*
X156845Y187551D01*
X156776Y187200D01*
X158400D01*
Y188824D01*
D02*
G37*
G36*
X149900Y188324D02*
Y186700D01*
X151524D01*
X151454Y187051D01*
X150972Y187773D01*
X150251Y188254D01*
X149900Y188324D01*
D02*
G37*
G36*
X148900D02*
X148549Y188254D01*
X147827Y187773D01*
X147345Y187051D01*
X147276Y186700D01*
X148900D01*
Y188324D01*
D02*
G37*
G36*
X245124Y186200D02*
X243500D01*
Y184576D01*
X243851Y184645D01*
X244572Y185127D01*
X245055Y185849D01*
X245124Y186200D01*
D02*
G37*
G36*
X242500D02*
X240876D01*
X240945Y185849D01*
X241427Y185127D01*
X242149Y184645D01*
X242500Y184576D01*
Y186200D01*
D02*
G37*
G36*
X234624D02*
X233000D01*
Y184576D01*
X233351Y184645D01*
X234072Y185127D01*
X234555Y185849D01*
X234624Y186200D01*
D02*
G37*
G36*
X232000D02*
X230376D01*
X230445Y185849D01*
X230927Y185127D01*
X231649Y184645D01*
X232000Y184576D01*
Y186200D01*
D02*
G37*
G36*
X161024D02*
X159400D01*
Y184576D01*
X159751Y184645D01*
X160473Y185127D01*
X160954Y185849D01*
X161024Y186200D01*
D02*
G37*
G36*
X158400D02*
X156776D01*
X156845Y185849D01*
X157327Y185127D01*
X158049Y184645D01*
X158400Y184576D01*
Y186200D01*
D02*
G37*
G36*
X151524Y185700D02*
X149900D01*
Y184076D01*
X150251Y184145D01*
X150972Y184627D01*
X151454Y185349D01*
X151524Y185700D01*
D02*
G37*
G36*
X148900D02*
X147276D01*
X147345Y185349D01*
X147827Y184627D01*
X148549Y184145D01*
X148900Y184076D01*
Y185700D01*
D02*
G37*
G36*
X115000Y181325D02*
Y179500D01*
X116825D01*
X116740Y179928D01*
X116214Y180714D01*
X115428Y181240D01*
X115000Y181325D01*
D02*
G37*
G36*
X114000D02*
X113572Y181240D01*
X112786Y180714D01*
X112260Y179928D01*
X112175Y179500D01*
X114000D01*
Y181325D01*
D02*
G37*
G36*
X109300D02*
Y179500D01*
X111125D01*
X111040Y179928D01*
X110514Y180714D01*
X109728Y181240D01*
X109300Y181325D01*
D02*
G37*
G36*
X108300D02*
X107872Y181240D01*
X107086Y180714D01*
X106560Y179928D01*
X106475Y179500D01*
X108300D01*
Y181325D01*
D02*
G37*
G36*
X243500Y178324D02*
Y176700D01*
X245124D01*
X245055Y177051D01*
X244572Y177772D01*
X243851Y178254D01*
X243500Y178324D01*
D02*
G37*
G36*
X242500D02*
X242149Y178254D01*
X241427Y177772D01*
X240945Y177051D01*
X240876Y176700D01*
X242500D01*
Y178324D01*
D02*
G37*
G36*
X233000D02*
Y176700D01*
X234624D01*
X234555Y177051D01*
X234072Y177772D01*
X233351Y178254D01*
X233000Y178324D01*
D02*
G37*
G36*
X232000D02*
X231649Y178254D01*
X230927Y177772D01*
X230445Y177051D01*
X230376Y176700D01*
X232000D01*
Y178324D01*
D02*
G37*
G36*
X159700D02*
Y176700D01*
X161324D01*
X161255Y177051D01*
X160773Y177772D01*
X160051Y178254D01*
X159700Y178324D01*
D02*
G37*
G36*
X158700D02*
X158349Y178254D01*
X157627Y177772D01*
X157146Y177051D01*
X157076Y176700D01*
X158700D01*
Y178324D01*
D02*
G37*
G36*
X116825Y178500D02*
X115000D01*
Y176675D01*
X115428Y176760D01*
X116214Y177286D01*
X116740Y178072D01*
X116825Y178500D01*
D02*
G37*
G36*
X114000D02*
X112175D01*
X112260Y178072D01*
X112786Y177286D01*
X113572Y176760D01*
X114000Y176675D01*
Y178500D01*
D02*
G37*
G36*
X111125D02*
X109300D01*
Y176675D01*
X109728Y176760D01*
X110514Y177286D01*
X111040Y178072D01*
X111125Y178500D01*
D02*
G37*
G36*
X108300D02*
X106475D01*
X106560Y178072D01*
X107086Y177286D01*
X107872Y176760D01*
X108300Y176675D01*
Y178500D01*
D02*
G37*
G36*
X149700Y178024D02*
Y176400D01*
X151324D01*
X151254Y176751D01*
X150773Y177472D01*
X150051Y177954D01*
X149700Y178024D01*
D02*
G37*
G36*
X148700D02*
X148349Y177954D01*
X147627Y177472D01*
X147145Y176751D01*
X147076Y176400D01*
X148700D01*
Y178024D01*
D02*
G37*
G36*
X245124Y175700D02*
X243500D01*
Y174076D01*
X243851Y174145D01*
X244572Y174627D01*
X245055Y175349D01*
X245124Y175700D01*
D02*
G37*
G36*
X242500D02*
X240876D01*
X240945Y175349D01*
X241427Y174627D01*
X242149Y174145D01*
X242500Y174076D01*
Y175700D01*
D02*
G37*
G36*
X234624D02*
X233000D01*
Y174076D01*
X233351Y174145D01*
X234072Y174627D01*
X234555Y175349D01*
X234624Y175700D01*
D02*
G37*
G36*
X232000D02*
X230376D01*
X230445Y175349D01*
X230927Y174627D01*
X231649Y174145D01*
X232000Y174076D01*
Y175700D01*
D02*
G37*
G36*
X161324D02*
X159700D01*
Y174076D01*
X160051Y174145D01*
X160773Y174627D01*
X161255Y175349D01*
X161324Y175700D01*
D02*
G37*
G36*
X158700D02*
X157076D01*
X157146Y175349D01*
X157627Y174627D01*
X158349Y174145D01*
X158700Y174076D01*
Y175700D01*
D02*
G37*
G36*
X151324Y175400D02*
X149700D01*
Y173776D01*
X150051Y173846D01*
X150773Y174328D01*
X151254Y175049D01*
X151324Y175400D01*
D02*
G37*
G36*
X148700D02*
X147076D01*
X147145Y175049D01*
X147627Y174328D01*
X148349Y173846D01*
X148700Y173776D01*
Y175400D01*
D02*
G37*
G36*
X126200Y169225D02*
Y167400D01*
X128025D01*
X127940Y167828D01*
X127414Y168614D01*
X126628Y169140D01*
X126200Y169225D01*
D02*
G37*
G36*
X125200D02*
X124772Y169140D01*
X123986Y168614D01*
X123460Y167828D01*
X123375Y167400D01*
X125200D01*
Y169225D01*
D02*
G37*
G36*
X252800Y168625D02*
Y166800D01*
X254625D01*
X254540Y167228D01*
X254014Y168014D01*
X253228Y168540D01*
X252800Y168625D01*
D02*
G37*
G36*
X251800D02*
X251372Y168540D01*
X250586Y168014D01*
X250060Y167228D01*
X249975Y166800D01*
X251800D01*
Y168625D01*
D02*
G37*
G36*
X243700Y167724D02*
Y166100D01*
X245324D01*
X245255Y166451D01*
X244773Y167173D01*
X244051Y167655D01*
X243700Y167724D01*
D02*
G37*
G36*
X242700D02*
X242349Y167655D01*
X241628Y167173D01*
X241145Y166451D01*
X241076Y166100D01*
X242700D01*
Y167724D01*
D02*
G37*
G36*
X233200D02*
Y166100D01*
X234824D01*
X234755Y166451D01*
X234273Y167173D01*
X233551Y167655D01*
X233200Y167724D01*
D02*
G37*
G36*
X232200D02*
X231849Y167655D01*
X231128Y167173D01*
X230645Y166451D01*
X230576Y166100D01*
X232200D01*
Y167724D01*
D02*
G37*
G36*
X159700D02*
Y166100D01*
X161324D01*
X161255Y166451D01*
X160773Y167173D01*
X160051Y167655D01*
X159700Y167724D01*
D02*
G37*
G36*
X158700D02*
X158349Y167655D01*
X157627Y167173D01*
X157146Y166451D01*
X157076Y166100D01*
X158700D01*
Y167724D01*
D02*
G37*
G36*
X149700Y167524D02*
Y165900D01*
X151324D01*
X151254Y166251D01*
X150773Y166972D01*
X150051Y167455D01*
X149700Y167524D01*
D02*
G37*
G36*
X148700D02*
X148349Y167455D01*
X147627Y166972D01*
X147145Y166251D01*
X147076Y165900D01*
X148700D01*
Y167524D01*
D02*
G37*
G36*
X245324Y165100D02*
X243700D01*
Y163476D01*
X244051Y163546D01*
X244773Y164028D01*
X245255Y164749D01*
X245324Y165100D01*
D02*
G37*
G36*
X242700D02*
X241076D01*
X241145Y164749D01*
X241628Y164028D01*
X242349Y163546D01*
X242700Y163476D01*
Y165100D01*
D02*
G37*
G36*
X234824D02*
X233200D01*
Y163476D01*
X233551Y163546D01*
X234273Y164028D01*
X234755Y164749D01*
X234824Y165100D01*
D02*
G37*
G36*
X232200D02*
X230576D01*
X230645Y164749D01*
X231128Y164028D01*
X231849Y163546D01*
X232200Y163476D01*
Y165100D01*
D02*
G37*
G36*
X161324D02*
X159700D01*
Y163476D01*
X160051Y163546D01*
X160773Y164028D01*
X161255Y164749D01*
X161324Y165100D01*
D02*
G37*
G36*
X158700D02*
X157076D01*
X157146Y164749D01*
X157627Y164028D01*
X158349Y163546D01*
X158700Y163476D01*
Y165100D01*
D02*
G37*
G36*
X151324Y164900D02*
X149700D01*
Y163276D01*
X150051Y163346D01*
X150773Y163828D01*
X151254Y164549D01*
X151324Y164900D01*
D02*
G37*
G36*
X148700D02*
X147076D01*
X147145Y164549D01*
X147627Y163828D01*
X148349Y163346D01*
X148700Y163276D01*
Y164900D01*
D02*
G37*
G36*
X128025Y166400D02*
X123375D01*
X123460Y165972D01*
X123986Y165186D01*
X124338Y164950D01*
Y164450D01*
X123986Y164214D01*
X123460Y163428D01*
X123375Y163000D01*
X128025D01*
X127940Y163428D01*
X127414Y164214D01*
X127062Y164450D01*
Y164950D01*
X127414Y165186D01*
X127940Y165972D01*
X128025Y166400D01*
D02*
G37*
G36*
X254625Y165800D02*
X249975D01*
X250060Y165372D01*
X250586Y164586D01*
X250938Y164350D01*
Y163850D01*
X250586Y163614D01*
X250060Y162828D01*
X249975Y162400D01*
X254625D01*
X254540Y162828D01*
X254014Y163614D01*
X253662Y163850D01*
Y164350D01*
X254014Y164586D01*
X254540Y165372D01*
X254625Y165800D01*
D02*
G37*
G36*
X128025Y162000D02*
X123375D01*
X123460Y161572D01*
X123986Y160786D01*
X124338Y160550D01*
Y160050D01*
X123986Y159814D01*
X123460Y159028D01*
X123375Y158600D01*
X128025D01*
X127940Y159028D01*
X127414Y159814D01*
X127062Y160050D01*
Y160550D01*
X127414Y160786D01*
X127940Y161572D01*
X128025Y162000D01*
D02*
G37*
G36*
X254625Y161400D02*
X249975D01*
X250060Y160972D01*
X250586Y160186D01*
X250938Y159950D01*
Y159450D01*
X250586Y159214D01*
X250060Y158428D01*
X249975Y158000D01*
X254625D01*
X254540Y158428D01*
X254014Y159214D01*
X253662Y159450D01*
Y159950D01*
X254014Y160186D01*
X254540Y160972D01*
X254625Y161400D01*
D02*
G37*
G36*
X75500Y159224D02*
Y157600D01*
X77124D01*
X77055Y157951D01*
X76573Y158672D01*
X75851Y159154D01*
X75500Y159224D01*
D02*
G37*
G36*
X74500D02*
X74149Y159154D01*
X73427Y158672D01*
X72945Y157951D01*
X72876Y157600D01*
X74500D01*
Y159224D01*
D02*
G37*
G36*
X81200Y158225D02*
Y156400D01*
X83025D01*
X82940Y156828D01*
X82414Y157614D01*
X81628Y158140D01*
X81200Y158225D01*
D02*
G37*
G36*
X80200D02*
X79772Y158140D01*
X78986Y157614D01*
X78460Y156828D01*
X78375Y156400D01*
X80200D01*
Y158225D01*
D02*
G37*
G36*
X113300Y157424D02*
Y155800D01*
X114924D01*
X114855Y156151D01*
X114373Y156872D01*
X113651Y157354D01*
X113300Y157424D01*
D02*
G37*
G36*
X112300D02*
X111949Y157354D01*
X111228Y156872D01*
X110746Y156151D01*
X110676Y155800D01*
X112300D01*
Y157424D01*
D02*
G37*
G36*
X243700Y157224D02*
Y155600D01*
X245324D01*
X245255Y155951D01*
X244773Y156673D01*
X244051Y157155D01*
X243700Y157224D01*
D02*
G37*
G36*
X242700D02*
X242349Y157155D01*
X241628Y156673D01*
X241145Y155951D01*
X241076Y155600D01*
X242700D01*
Y157224D01*
D02*
G37*
G36*
X233200D02*
Y155600D01*
X234824D01*
X234755Y155951D01*
X234273Y156673D01*
X233551Y157155D01*
X233200Y157224D01*
D02*
G37*
G36*
X232200D02*
X231849Y157155D01*
X231128Y156673D01*
X230645Y155951D01*
X230576Y155600D01*
X232200D01*
Y157224D01*
D02*
G37*
G36*
X159700D02*
Y155600D01*
X161324D01*
X161255Y155951D01*
X160773Y156673D01*
X160051Y157155D01*
X159700Y157224D01*
D02*
G37*
G36*
X158700D02*
X158349Y157155D01*
X157627Y156673D01*
X157146Y155951D01*
X157076Y155600D01*
X158700D01*
Y157224D01*
D02*
G37*
G36*
X149700Y157024D02*
Y155400D01*
X151324D01*
X151254Y155751D01*
X150773Y156473D01*
X150051Y156955D01*
X149700Y157024D01*
D02*
G37*
G36*
X148700D02*
X148349Y156955D01*
X147627Y156473D01*
X147145Y155751D01*
X147076Y155400D01*
X148700D01*
Y157024D01*
D02*
G37*
G36*
X77124Y156600D02*
X75500D01*
Y154976D01*
X75851Y155045D01*
X76573Y155527D01*
X77055Y156249D01*
X77124Y156600D01*
D02*
G37*
G36*
X74500D02*
X72876D01*
X72945Y156249D01*
X73427Y155527D01*
X74149Y155045D01*
X74500Y154976D01*
Y156600D01*
D02*
G37*
G36*
X128025Y157600D02*
X123375D01*
X123460Y157172D01*
X123986Y156386D01*
X124338Y156150D01*
Y155650D01*
X123986Y155414D01*
X123460Y154628D01*
X123375Y154200D01*
X128025D01*
X127940Y154628D01*
X127414Y155414D01*
X127062Y155650D01*
Y156150D01*
X127414Y156386D01*
X127940Y157172D01*
X128025Y157600D01*
D02*
G37*
G36*
X254625Y157000D02*
X249975D01*
X250060Y156572D01*
X250586Y155786D01*
X250938Y155550D01*
Y155050D01*
X250586Y154814D01*
X250060Y154028D01*
X249975Y153600D01*
X254625D01*
X254540Y154028D01*
X254014Y154814D01*
X253662Y155050D01*
Y155550D01*
X254014Y155786D01*
X254540Y156572D01*
X254625Y157000D01*
D02*
G37*
G36*
X245324Y154600D02*
X243700D01*
Y152976D01*
X244051Y153045D01*
X244773Y153527D01*
X245255Y154249D01*
X245324Y154600D01*
D02*
G37*
G36*
X242700D02*
X241076D01*
X241145Y154249D01*
X241628Y153527D01*
X242349Y153045D01*
X242700Y152976D01*
Y154600D01*
D02*
G37*
G36*
X234824D02*
X233200D01*
Y152976D01*
X233551Y153045D01*
X234273Y153527D01*
X234755Y154249D01*
X234824Y154600D01*
D02*
G37*
G36*
X232200D02*
X230576D01*
X230645Y154249D01*
X231128Y153527D01*
X231849Y153045D01*
X232200Y152976D01*
Y154600D01*
D02*
G37*
G36*
X161324D02*
X159700D01*
Y152976D01*
X160051Y153045D01*
X160773Y153527D01*
X161255Y154249D01*
X161324Y154600D01*
D02*
G37*
G36*
X158700D02*
X157076D01*
X157146Y154249D01*
X157627Y153527D01*
X158349Y153045D01*
X158700Y152976D01*
Y154600D01*
D02*
G37*
G36*
X151324Y154400D02*
X149700D01*
Y152776D01*
X150051Y152846D01*
X150773Y153328D01*
X151254Y154049D01*
X151324Y154400D01*
D02*
G37*
G36*
X148700D02*
X147076D01*
X147145Y154049D01*
X147627Y153328D01*
X148349Y152846D01*
X148700Y152776D01*
Y154400D01*
D02*
G37*
G36*
X128025Y153200D02*
X123375D01*
X123460Y152772D01*
X123986Y151986D01*
X124337Y151751D01*
Y151149D01*
X123986Y150914D01*
X123460Y150128D01*
X123375Y149700D01*
X128025D01*
X127940Y150128D01*
X127414Y150914D01*
X127063Y151149D01*
Y151751D01*
X127414Y151986D01*
X127940Y152772D01*
X128025Y153200D01*
D02*
G37*
G36*
X254625Y152600D02*
X249975D01*
X250060Y152172D01*
X250586Y151386D01*
X250937Y151151D01*
Y150549D01*
X250586Y150314D01*
X250060Y149528D01*
X249975Y149100D01*
X254625D01*
X254540Y149528D01*
X254014Y150314D01*
X253663Y150549D01*
Y151151D01*
X254014Y151386D01*
X254540Y152172D01*
X254625Y152600D01*
D02*
G37*
G36*
X128025Y148700D02*
X123375D01*
X123460Y148272D01*
X123986Y147486D01*
X124337Y147251D01*
Y146649D01*
X123986Y146414D01*
X123460Y145628D01*
X123375Y145200D01*
X128025D01*
X127940Y145628D01*
X127414Y146414D01*
X127063Y146649D01*
Y147251D01*
X127414Y147486D01*
X127940Y148272D01*
X128025Y148700D01*
D02*
G37*
G36*
X243700Y146724D02*
Y145100D01*
X245324D01*
X245255Y145451D01*
X244773Y146172D01*
X244051Y146654D01*
X243700Y146724D01*
D02*
G37*
G36*
X242700D02*
X242349Y146654D01*
X241628Y146172D01*
X241145Y145451D01*
X241076Y145100D01*
X242700D01*
Y146724D01*
D02*
G37*
G36*
X233200D02*
Y145100D01*
X234824D01*
X234755Y145451D01*
X234273Y146172D01*
X233551Y146654D01*
X233200Y146724D01*
D02*
G37*
G36*
X232200D02*
X231849Y146654D01*
X231128Y146172D01*
X230645Y145451D01*
X230576Y145100D01*
X232200D01*
Y146724D01*
D02*
G37*
G36*
X159700D02*
Y145100D01*
X161324D01*
X161255Y145451D01*
X160773Y146172D01*
X160051Y146654D01*
X159700Y146724D01*
D02*
G37*
G36*
X158700D02*
X158349Y146654D01*
X157627Y146172D01*
X157146Y145451D01*
X157076Y145100D01*
X158700D01*
Y146724D01*
D02*
G37*
G36*
X149700Y146524D02*
Y144900D01*
X151324D01*
X151254Y145251D01*
X150773Y145973D01*
X150051Y146455D01*
X149700Y146524D01*
D02*
G37*
G36*
X148700D02*
X148349Y146455D01*
X147627Y145973D01*
X147145Y145251D01*
X147076Y144900D01*
X148700D01*
Y146524D01*
D02*
G37*
G36*
X254625Y148100D02*
X249975D01*
X250060Y147672D01*
X250586Y146886D01*
X250937Y146651D01*
Y146049D01*
X250586Y145814D01*
X250060Y145028D01*
X249975Y144600D01*
X254625D01*
X254540Y145028D01*
X254014Y145814D01*
X253663Y146049D01*
Y146651D01*
X254014Y146886D01*
X254540Y147672D01*
X254625Y148100D01*
D02*
G37*
G36*
X245324Y144100D02*
X243700D01*
Y142476D01*
X244051Y142545D01*
X244773Y143027D01*
X245255Y143749D01*
X245324Y144100D01*
D02*
G37*
G36*
X242700D02*
X241076D01*
X241145Y143749D01*
X241628Y143027D01*
X242349Y142545D01*
X242700Y142476D01*
Y144100D01*
D02*
G37*
G36*
X234824D02*
X233200D01*
Y142476D01*
X233551Y142545D01*
X234273Y143027D01*
X234755Y143749D01*
X234824Y144100D01*
D02*
G37*
G36*
X232200D02*
X230576D01*
X230645Y143749D01*
X231128Y143027D01*
X231849Y142545D01*
X232200Y142476D01*
Y144100D01*
D02*
G37*
G36*
X161324D02*
X159700D01*
Y142476D01*
X160051Y142545D01*
X160773Y143027D01*
X161255Y143749D01*
X161324Y144100D01*
D02*
G37*
G36*
X158700D02*
X157076D01*
X157146Y143749D01*
X157627Y143027D01*
X158349Y142545D01*
X158700Y142476D01*
Y144100D01*
D02*
G37*
G36*
X151324Y143900D02*
X149700D01*
Y142276D01*
X150051Y142345D01*
X150773Y142827D01*
X151254Y143549D01*
X151324Y143900D01*
D02*
G37*
G36*
X148700D02*
X147076D01*
X147145Y143549D01*
X147627Y142827D01*
X148349Y142345D01*
X148700Y142276D01*
Y143900D01*
D02*
G37*
G36*
X128025Y144200D02*
X123375D01*
X123460Y143772D01*
X123986Y142986D01*
X124337Y142751D01*
Y142149D01*
X123986Y141914D01*
X123460Y141128D01*
X123375Y140700D01*
X128025D01*
X127940Y141128D01*
X127414Y141914D01*
X127063Y142149D01*
Y142751D01*
X127414Y142986D01*
X127940Y143772D01*
X128025Y144200D01*
D02*
G37*
G36*
X68425Y142500D02*
X66600D01*
Y140675D01*
X67028Y140760D01*
X67814Y141286D01*
X68340Y142072D01*
X68425Y142500D01*
D02*
G37*
G36*
X254625Y143600D02*
X249975D01*
X250060Y143172D01*
X250586Y142386D01*
X250937Y142151D01*
Y141549D01*
X250586Y141314D01*
X250060Y140528D01*
X249975Y140100D01*
X254625D01*
X254540Y140528D01*
X254014Y141314D01*
X253663Y141549D01*
Y142151D01*
X254014Y142386D01*
X254540Y143172D01*
X254625Y143600D01*
D02*
G37*
G36*
X128025Y139700D02*
X123375D01*
X123460Y139272D01*
X123986Y138486D01*
X124337Y138251D01*
Y137649D01*
X123986Y137414D01*
X123460Y136628D01*
X123375Y136200D01*
X128025D01*
X127940Y136628D01*
X127414Y137414D01*
X127063Y137649D01*
Y138251D01*
X127414Y138486D01*
X127940Y139272D01*
X128025Y139700D01*
D02*
G37*
G36*
X254625Y139100D02*
X249975D01*
X250060Y138672D01*
X250586Y137886D01*
X250937Y137651D01*
Y137049D01*
X250586Y136814D01*
X250060Y136028D01*
X249975Y135600D01*
X254625D01*
X254540Y136028D01*
X254014Y136814D01*
X253663Y137049D01*
Y137651D01*
X254014Y137886D01*
X254540Y138672D01*
X254625Y139100D01*
D02*
G37*
G36*
X243700Y136224D02*
Y134600D01*
X245324D01*
X245255Y134951D01*
X244773Y135672D01*
X244051Y136154D01*
X243700Y136224D01*
D02*
G37*
G36*
X242700D02*
X242349Y136154D01*
X241628Y135672D01*
X241145Y134951D01*
X241076Y134600D01*
X242700D01*
Y136224D01*
D02*
G37*
G36*
X233200D02*
Y134600D01*
X234824D01*
X234755Y134951D01*
X234273Y135672D01*
X233551Y136154D01*
X233200Y136224D01*
D02*
G37*
G36*
X232200D02*
X231849Y136154D01*
X231128Y135672D01*
X230645Y134951D01*
X230576Y134600D01*
X232200D01*
Y136224D01*
D02*
G37*
G36*
X159700D02*
Y134600D01*
X161324D01*
X161255Y134951D01*
X160773Y135672D01*
X160051Y136154D01*
X159700Y136224D01*
D02*
G37*
G36*
X158700D02*
X158349Y136154D01*
X157627Y135672D01*
X157146Y134951D01*
X157076Y134600D01*
X158700D01*
Y136224D01*
D02*
G37*
G36*
X149700Y136024D02*
Y134400D01*
X151324D01*
X151254Y134751D01*
X150773Y135473D01*
X150051Y135954D01*
X149700Y136024D01*
D02*
G37*
G36*
X148700D02*
X148349Y135954D01*
X147627Y135473D01*
X147145Y134751D01*
X147076Y134400D01*
X148700D01*
Y136024D01*
D02*
G37*
G36*
X245324Y133600D02*
X243700D01*
Y131976D01*
X244051Y132045D01*
X244773Y132527D01*
X245255Y133249D01*
X245324Y133600D01*
D02*
G37*
G36*
X242700D02*
X241076D01*
X241145Y133249D01*
X241628Y132527D01*
X242349Y132045D01*
X242700Y131976D01*
Y133600D01*
D02*
G37*
G36*
X234824D02*
X233200D01*
Y131976D01*
X233551Y132045D01*
X234273Y132527D01*
X234755Y133249D01*
X234824Y133600D01*
D02*
G37*
G36*
X232200D02*
X230576D01*
X230645Y133249D01*
X231128Y132527D01*
X231849Y132045D01*
X232200Y131976D01*
Y133600D01*
D02*
G37*
G36*
X161324D02*
X159700D01*
Y131976D01*
X160051Y132045D01*
X160773Y132527D01*
X161255Y133249D01*
X161324Y133600D01*
D02*
G37*
G36*
X158700D02*
X157076D01*
X157146Y133249D01*
X157627Y132527D01*
X158349Y132045D01*
X158700Y131976D01*
Y133600D01*
D02*
G37*
G36*
X151324Y133400D02*
X149700D01*
Y131776D01*
X150051Y131845D01*
X150773Y132327D01*
X151254Y133049D01*
X151324Y133400D01*
D02*
G37*
G36*
X148700D02*
X147076D01*
X147145Y133049D01*
X147627Y132327D01*
X148349Y131845D01*
X148700Y131776D01*
Y133400D01*
D02*
G37*
G36*
X128025Y135200D02*
X123375D01*
X123460Y134772D01*
X123986Y133986D01*
X124337Y133751D01*
Y133149D01*
X123986Y132914D01*
X123460Y132128D01*
X123375Y131700D01*
X128025D01*
X127940Y132128D01*
X127414Y132914D01*
X127063Y133149D01*
Y133751D01*
X127414Y133986D01*
X127940Y134772D01*
X128025Y135200D01*
D02*
G37*
G36*
X254625Y134600D02*
X249975D01*
X250060Y134172D01*
X250586Y133386D01*
X250937Y133151D01*
Y132549D01*
X250586Y132314D01*
X250060Y131528D01*
X249975Y131100D01*
X254625D01*
X254540Y131528D01*
X254014Y132314D01*
X253663Y132549D01*
Y133151D01*
X254014Y133386D01*
X254540Y134172D01*
X254625Y134600D01*
D02*
G37*
G36*
X51079Y133834D02*
Y130366D01*
X54548D01*
X54476Y130910D01*
X54073Y131883D01*
X53432Y132719D01*
X52596Y133360D01*
X51623Y133763D01*
X51079Y133834D01*
D02*
G37*
G36*
X128025Y130700D02*
X123375D01*
X123460Y130272D01*
X123986Y129486D01*
X124337Y129251D01*
Y128649D01*
X123986Y128414D01*
X123460Y127628D01*
X123375Y127200D01*
X128025D01*
X127940Y127628D01*
X127414Y128414D01*
X127063Y128649D01*
Y129251D01*
X127414Y129486D01*
X127940Y130272D01*
X128025Y130700D01*
D02*
G37*
G36*
X254625Y130100D02*
X249975D01*
X250060Y129672D01*
X250586Y128886D01*
X251196Y128478D01*
X251198Y128472D01*
Y127928D01*
X251196Y127922D01*
X250586Y127514D01*
X250060Y126728D01*
X249975Y126300D01*
X254625D01*
X254540Y126728D01*
X254014Y127514D01*
X253404Y127922D01*
X253402Y127928D01*
Y128472D01*
X253404Y128478D01*
X254014Y128886D01*
X254540Y129672D01*
X254625Y130100D01*
D02*
G37*
G36*
X60579Y133517D02*
X59634Y133393D01*
X58754Y133028D01*
X57997Y132448D01*
X57417Y131691D01*
X57052Y130811D01*
X56928Y129866D01*
X57052Y128921D01*
X57417Y128040D01*
X57997Y127284D01*
X58754Y126704D01*
X59634Y126339D01*
X60579Y126215D01*
X61524Y126339D01*
X62405Y126704D01*
X63161Y127284D01*
X63741Y128040D01*
X64106Y128921D01*
X64230Y129866D01*
X64106Y130811D01*
X63741Y131691D01*
X63161Y132448D01*
X62405Y133028D01*
X61524Y133393D01*
X60579Y133517D01*
D02*
G37*
G36*
X54548Y129366D02*
X51079D01*
Y125897D01*
X51623Y125969D01*
X52596Y126372D01*
X53432Y127013D01*
X54073Y127848D01*
X54476Y128822D01*
X54548Y129366D01*
D02*
G37*
G36*
X50079D02*
X46610D01*
X46682Y128822D01*
X47085Y127848D01*
X47726Y127013D01*
X48562Y126372D01*
X49535Y125969D01*
X50079Y125897D01*
Y129366D01*
D02*
G37*
G36*
X111839Y134132D02*
X110633Y133973D01*
X109509Y133508D01*
X108544Y132767D01*
X107803Y131802D01*
X107338Y130678D01*
X107179Y129472D01*
X107338Y128266D01*
X107803Y127142D01*
X108544Y126177D01*
X109509Y125436D01*
X110633Y124971D01*
X111839Y124812D01*
X113045Y124971D01*
X114169Y125436D01*
X115134Y126177D01*
X115875Y127142D01*
X116340Y128266D01*
X116499Y129472D01*
X116340Y130678D01*
X115875Y131802D01*
X115134Y132767D01*
X114169Y133508D01*
X113045Y133973D01*
X111839Y134132D01*
D02*
G37*
G36*
X19319D02*
X18113Y133973D01*
X16989Y133508D01*
X16024Y132767D01*
X15284Y131802D01*
X14818Y130678D01*
X14659Y129472D01*
X14818Y128266D01*
X15284Y127142D01*
X16024Y126177D01*
X16989Y125436D01*
X18113Y124971D01*
X19319Y124812D01*
X20525Y124971D01*
X21649Y125436D01*
X22614Y126177D01*
X23355Y127142D01*
X23820Y128266D01*
X23979Y129472D01*
X23820Y130678D01*
X23355Y131802D01*
X22614Y132767D01*
X21649Y133508D01*
X20525Y133973D01*
X19319Y134132D01*
D02*
G37*
G36*
X243700Y125724D02*
Y124100D01*
X245324D01*
X245255Y124451D01*
X244773Y125172D01*
X244051Y125654D01*
X243700Y125724D01*
D02*
G37*
G36*
X242700D02*
X242349Y125654D01*
X241628Y125172D01*
X241145Y124451D01*
X241076Y124100D01*
X242700D01*
Y125724D01*
D02*
G37*
G36*
X233200D02*
Y124100D01*
X234824D01*
X234755Y124451D01*
X234273Y125172D01*
X233551Y125654D01*
X233200Y125724D01*
D02*
G37*
G36*
X232200D02*
X231849Y125654D01*
X231128Y125172D01*
X230645Y124451D01*
X230576Y124100D01*
X232200D01*
Y125724D01*
D02*
G37*
G36*
X159700D02*
Y124100D01*
X161324D01*
X161255Y124451D01*
X160773Y125172D01*
X160051Y125654D01*
X159700Y125724D01*
D02*
G37*
G36*
X158700D02*
X158349Y125654D01*
X157627Y125172D01*
X157146Y124451D01*
X157076Y124100D01*
X158700D01*
Y125724D01*
D02*
G37*
G36*
X149700Y125424D02*
Y123800D01*
X151324D01*
X151254Y124151D01*
X150773Y124873D01*
X150051Y125355D01*
X149700Y125424D01*
D02*
G37*
G36*
X148700D02*
X148349Y125355D01*
X147627Y124873D01*
X147145Y124151D01*
X147076Y123800D01*
X148700D01*
Y125424D01*
D02*
G37*
G36*
X128025Y126200D02*
X123375D01*
X123460Y125772D01*
X123986Y124986D01*
X124362Y124734D01*
Y124133D01*
X123886Y123814D01*
X123360Y123028D01*
X123275Y122600D01*
X127925D01*
X127840Y123028D01*
X127314Y123814D01*
X126938Y124066D01*
Y124667D01*
X127414Y124986D01*
X127940Y125772D01*
X128025Y126200D01*
D02*
G37*
G36*
X254625Y125300D02*
X249975D01*
X250060Y124872D01*
X250586Y124086D01*
X250813Y123933D01*
Y123433D01*
X250486Y123214D01*
X249960Y122428D01*
X249875Y122000D01*
X254525D01*
X254440Y122428D01*
X253914Y123214D01*
X253687Y123367D01*
Y123867D01*
X254014Y124086D01*
X254540Y124872D01*
X254625Y125300D01*
D02*
G37*
G36*
X245324Y123100D02*
X243700D01*
Y121476D01*
X244051Y121546D01*
X244773Y122028D01*
X245255Y122749D01*
X245324Y123100D01*
D02*
G37*
G36*
X242700D02*
X241076D01*
X241145Y122749D01*
X241628Y122028D01*
X242349Y121546D01*
X242700Y121476D01*
Y123100D01*
D02*
G37*
G36*
X234824D02*
X233200D01*
Y121476D01*
X233551Y121546D01*
X234273Y122028D01*
X234755Y122749D01*
X234824Y123100D01*
D02*
G37*
G36*
X232200D02*
X230576D01*
X230645Y122749D01*
X231128Y122028D01*
X231849Y121546D01*
X232200Y121476D01*
Y123100D01*
D02*
G37*
G36*
X161324D02*
X159700D01*
Y121476D01*
X160051Y121546D01*
X160773Y122028D01*
X161255Y122749D01*
X161324Y123100D01*
D02*
G37*
G36*
X158700D02*
X157076D01*
X157146Y122749D01*
X157627Y122028D01*
X158349Y121546D01*
X158700Y121476D01*
Y123100D01*
D02*
G37*
G36*
X151324Y122800D02*
X149700D01*
Y121176D01*
X150051Y121246D01*
X150773Y121728D01*
X151254Y122449D01*
X151324Y122800D01*
D02*
G37*
G36*
X148700D02*
X147076D01*
X147145Y122449D01*
X147627Y121728D01*
X148349Y121246D01*
X148700Y121176D01*
Y122800D01*
D02*
G37*
G36*
X127925Y121600D02*
X123275D01*
X123360Y121172D01*
X123872Y120406D01*
X123939Y120274D01*
Y119926D01*
X123872Y119794D01*
X123360Y119028D01*
X123275Y118600D01*
X127925D01*
X127840Y119028D01*
X127328Y119794D01*
X127261Y119926D01*
Y120274D01*
X127328Y120406D01*
X127840Y121172D01*
X127925Y121600D01*
D02*
G37*
G36*
X254525Y121000D02*
X249875D01*
X249960Y120572D01*
X250472Y119806D01*
X250539Y119674D01*
Y119326D01*
X250472Y119194D01*
X249960Y118428D01*
X249875Y118000D01*
X254525D01*
X254440Y118428D01*
X253928Y119194D01*
X253861Y119326D01*
Y119674D01*
X253928Y119806D01*
X254440Y120572D01*
X254525Y121000D01*
D02*
G37*
G36*
X127925Y117600D02*
X123275D01*
X123360Y117172D01*
X123872Y116406D01*
X123939Y116274D01*
Y115926D01*
X123872Y115794D01*
X123360Y115028D01*
X123275Y114600D01*
X127925D01*
X127840Y115028D01*
X127328Y115794D01*
X127261Y115926D01*
Y116274D01*
X127328Y116406D01*
X127840Y117172D01*
X127925Y117600D01*
D02*
G37*
G36*
X254525Y117000D02*
X249875D01*
X249960Y116572D01*
X250472Y115806D01*
X250539Y115674D01*
Y115326D01*
X250472Y115194D01*
X249960Y114428D01*
X249875Y114000D01*
X254525D01*
X254440Y114428D01*
X253928Y115194D01*
X253861Y115326D01*
Y115674D01*
X253928Y115806D01*
X254440Y116572D01*
X254525Y117000D01*
D02*
G37*
G36*
X243700Y115224D02*
Y113600D01*
X245324D01*
X245255Y113951D01*
X244773Y114673D01*
X244051Y115155D01*
X243700Y115224D01*
D02*
G37*
G36*
X242700D02*
X242349Y115155D01*
X241628Y114673D01*
X241145Y113951D01*
X241076Y113600D01*
X242700D01*
Y115224D01*
D02*
G37*
G36*
X233200D02*
Y113600D01*
X234824D01*
X234755Y113951D01*
X234273Y114673D01*
X233551Y115155D01*
X233200Y115224D01*
D02*
G37*
G36*
X232200D02*
X231849Y115155D01*
X231128Y114673D01*
X230645Y113951D01*
X230576Y113600D01*
X232200D01*
Y115224D01*
D02*
G37*
G36*
X159700D02*
Y113600D01*
X161324D01*
X161255Y113951D01*
X160773Y114673D01*
X160051Y115155D01*
X159700Y115224D01*
D02*
G37*
G36*
X158700D02*
X158349Y115155D01*
X157627Y114673D01*
X157146Y113951D01*
X157076Y113600D01*
X158700D01*
Y115224D01*
D02*
G37*
G36*
X149700Y114924D02*
Y113300D01*
X151324D01*
X151254Y113651D01*
X150773Y114373D01*
X150051Y114855D01*
X149700Y114924D01*
D02*
G37*
G36*
X148700D02*
X148349Y114855D01*
X147627Y114373D01*
X147145Y113651D01*
X147076Y113300D01*
X148700D01*
Y114924D01*
D02*
G37*
G36*
X245324Y112600D02*
X243700D01*
Y110976D01*
X244051Y111046D01*
X244773Y111528D01*
X245255Y112249D01*
X245324Y112600D01*
D02*
G37*
G36*
X242700D02*
X241076D01*
X241145Y112249D01*
X241628Y111528D01*
X242349Y111046D01*
X242700Y110976D01*
Y112600D01*
D02*
G37*
G36*
X234824D02*
X233200D01*
Y110976D01*
X233551Y111046D01*
X234273Y111528D01*
X234755Y112249D01*
X234824Y112600D01*
D02*
G37*
G36*
X232200D02*
X230576D01*
X230645Y112249D01*
X231128Y111528D01*
X231849Y111046D01*
X232200Y110976D01*
Y112600D01*
D02*
G37*
G36*
X161324D02*
X159700D01*
Y110976D01*
X160051Y111046D01*
X160773Y111528D01*
X161255Y112249D01*
X161324Y112600D01*
D02*
G37*
G36*
X158700D02*
X157076D01*
X157146Y112249D01*
X157627Y111528D01*
X158349Y111046D01*
X158700Y110976D01*
Y112600D01*
D02*
G37*
G36*
X151324Y112300D02*
X149700D01*
Y110676D01*
X150051Y110746D01*
X150773Y111228D01*
X151254Y111949D01*
X151324Y112300D01*
D02*
G37*
G36*
X148700D02*
X147076D01*
X147145Y111949D01*
X147627Y111228D01*
X148349Y110746D01*
X148700Y110676D01*
Y112300D01*
D02*
G37*
G36*
X127925Y113600D02*
X123275D01*
X123360Y113172D01*
X123886Y112386D01*
X124014Y112300D01*
Y111800D01*
X123886Y111714D01*
X123360Y110928D01*
X123275Y110500D01*
X127925D01*
X127840Y110928D01*
X127314Y111714D01*
X127186Y111800D01*
Y112300D01*
X127314Y112386D01*
X127840Y113172D01*
X127925Y113600D01*
D02*
G37*
G36*
X254525Y113000D02*
X249875D01*
X249960Y112572D01*
X250486Y111786D01*
X250614Y111700D01*
Y111200D01*
X250486Y111114D01*
X249960Y110328D01*
X249875Y109900D01*
X254525D01*
X254440Y110328D01*
X253914Y111114D01*
X253786Y111200D01*
Y111700D01*
X253914Y111786D01*
X254440Y112572D01*
X254525Y113000D01*
D02*
G37*
G36*
X127925Y109500D02*
X123275D01*
X123360Y109072D01*
X123886Y108286D01*
X124014Y108200D01*
Y107700D01*
X123886Y107614D01*
X123360Y106828D01*
X123275Y106400D01*
X127925D01*
X127840Y106828D01*
X127314Y107614D01*
X127186Y107700D01*
Y108200D01*
X127314Y108286D01*
X127840Y109072D01*
X127925Y109500D01*
D02*
G37*
G36*
X254525Y108900D02*
X249875D01*
X249960Y108472D01*
X250486Y107686D01*
X250614Y107600D01*
Y107100D01*
X250486Y107014D01*
X249960Y106228D01*
X249875Y105800D01*
X254525D01*
X254440Y106228D01*
X253914Y107014D01*
X253786Y107100D01*
Y107600D01*
X253914Y107686D01*
X254440Y108472D01*
X254525Y108900D01*
D02*
G37*
G36*
X243700Y104724D02*
Y103100D01*
X245324D01*
X245255Y103451D01*
X244773Y104173D01*
X244051Y104655D01*
X243700Y104724D01*
D02*
G37*
G36*
X242700D02*
X242349Y104655D01*
X241628Y104173D01*
X241145Y103451D01*
X241076Y103100D01*
X242700D01*
Y104724D01*
D02*
G37*
G36*
X233200D02*
Y103100D01*
X234824D01*
X234755Y103451D01*
X234273Y104173D01*
X233551Y104655D01*
X233200Y104724D01*
D02*
G37*
G36*
X232200D02*
X231849Y104655D01*
X231128Y104173D01*
X230645Y103451D01*
X230576Y103100D01*
X232200D01*
Y104724D01*
D02*
G37*
G36*
X159700D02*
Y103100D01*
X161324D01*
X161255Y103451D01*
X160773Y104173D01*
X160051Y104655D01*
X159700Y104724D01*
D02*
G37*
G36*
X158700D02*
X158349Y104655D01*
X157627Y104173D01*
X157146Y103451D01*
X157076Y103100D01*
X158700D01*
Y104724D01*
D02*
G37*
G36*
X149700Y104624D02*
Y103000D01*
X151324D01*
X151254Y103351D01*
X150773Y104072D01*
X150051Y104554D01*
X149700Y104624D01*
D02*
G37*
G36*
X148700D02*
X148349Y104554D01*
X147627Y104072D01*
X147145Y103351D01*
X147076Y103000D01*
X148700D01*
Y104624D01*
D02*
G37*
G36*
X127925Y105400D02*
X123275D01*
X123360Y104972D01*
X123872Y104206D01*
X123939Y104074D01*
Y103726D01*
X123872Y103594D01*
X123360Y102828D01*
X123275Y102400D01*
X127925D01*
X127840Y102828D01*
X127328Y103594D01*
X127261Y103726D01*
Y104074D01*
X127328Y104206D01*
X127840Y104972D01*
X127925Y105400D01*
D02*
G37*
G36*
X254525Y104800D02*
X249875D01*
X249960Y104372D01*
X250472Y103606D01*
X250539Y103474D01*
Y103126D01*
X250472Y102994D01*
X249960Y102228D01*
X249875Y101800D01*
X254525D01*
X254440Y102228D01*
X253928Y102994D01*
X253861Y103126D01*
Y103474D01*
X253928Y103606D01*
X254440Y104372D01*
X254525Y104800D01*
D02*
G37*
G36*
X245324Y102100D02*
X243700D01*
Y100476D01*
X244051Y100546D01*
X244773Y101028D01*
X245255Y101749D01*
X245324Y102100D01*
D02*
G37*
G36*
X242700D02*
X241076D01*
X241145Y101749D01*
X241628Y101028D01*
X242349Y100546D01*
X242700Y100476D01*
Y102100D01*
D02*
G37*
G36*
X234824D02*
X233200D01*
Y100476D01*
X233551Y100546D01*
X234273Y101028D01*
X234755Y101749D01*
X234824Y102100D01*
D02*
G37*
G36*
X232200D02*
X230576D01*
X230645Y101749D01*
X231128Y101028D01*
X231849Y100546D01*
X232200Y100476D01*
Y102100D01*
D02*
G37*
G36*
X161324D02*
X159700D01*
Y100476D01*
X160051Y100546D01*
X160773Y101028D01*
X161255Y101749D01*
X161324Y102100D01*
D02*
G37*
G36*
X158700D02*
X157076D01*
X157146Y101749D01*
X157627Y101028D01*
X158349Y100546D01*
X158700Y100476D01*
Y102100D01*
D02*
G37*
G36*
X151324Y102000D02*
X149700D01*
Y100376D01*
X150051Y100445D01*
X150773Y100927D01*
X151254Y101649D01*
X151324Y102000D01*
D02*
G37*
G36*
X148700D02*
X147076D01*
X147145Y101649D01*
X147627Y100927D01*
X148349Y100445D01*
X148700Y100376D01*
Y102000D01*
D02*
G37*
G36*
X127925Y101400D02*
X123275D01*
X123360Y100972D01*
X123872Y100206D01*
X123939Y100074D01*
Y99726D01*
X123872Y99594D01*
X123360Y98828D01*
X123275Y98400D01*
X127925D01*
X127840Y98828D01*
X127328Y99594D01*
X127261Y99726D01*
Y100074D01*
X127328Y100206D01*
X127840Y100972D01*
X127925Y101400D01*
D02*
G37*
G36*
X254525Y100800D02*
X249875D01*
X249960Y100372D01*
X250472Y99606D01*
X250539Y99474D01*
Y99126D01*
X250472Y98994D01*
X249960Y98228D01*
X249875Y97800D01*
X254525D01*
X254440Y98228D01*
X253928Y98994D01*
X253861Y99126D01*
Y99474D01*
X253928Y99606D01*
X254440Y100372D01*
X254525Y100800D01*
D02*
G37*
G36*
X127925Y97400D02*
X126100D01*
Y95575D01*
X126528Y95660D01*
X127314Y96186D01*
X127840Y96972D01*
X127925Y97400D01*
D02*
G37*
G36*
X125100D02*
X123275D01*
X123360Y96972D01*
X123886Y96186D01*
X124672Y95660D01*
X125100Y95575D01*
Y97400D01*
D02*
G37*
G36*
X254525Y96800D02*
X252700D01*
Y94975D01*
X253128Y95060D01*
X253914Y95586D01*
X254440Y96372D01*
X254525Y96800D01*
D02*
G37*
G36*
X251700D02*
X249875D01*
X249960Y96372D01*
X250486Y95586D01*
X251272Y95060D01*
X251700Y94975D01*
Y96800D01*
D02*
G37*
G36*
X243700Y94224D02*
Y92600D01*
X245324D01*
X245255Y92951D01*
X244773Y93673D01*
X244051Y94155D01*
X243700Y94224D01*
D02*
G37*
G36*
X242700D02*
X242349Y94155D01*
X241628Y93673D01*
X241145Y92951D01*
X241076Y92600D01*
X242700D01*
Y94224D01*
D02*
G37*
G36*
X233200D02*
Y92600D01*
X234824D01*
X234755Y92951D01*
X234273Y93673D01*
X233551Y94155D01*
X233200Y94224D01*
D02*
G37*
G36*
X232200D02*
X231849Y94155D01*
X231128Y93673D01*
X230645Y92951D01*
X230576Y92600D01*
X232200D01*
Y94224D01*
D02*
G37*
G36*
X149700Y94024D02*
Y92400D01*
X151324D01*
X151254Y92751D01*
X150773Y93472D01*
X150051Y93954D01*
X149700Y94024D01*
D02*
G37*
G36*
X148700D02*
X148349Y93954D01*
X147627Y93472D01*
X147145Y92751D01*
X147076Y92400D01*
X148700D01*
Y94024D01*
D02*
G37*
G36*
X245324Y91600D02*
X243700D01*
Y89976D01*
X244051Y90045D01*
X244773Y90527D01*
X245255Y91249D01*
X245324Y91600D01*
D02*
G37*
G36*
X242700D02*
X241076D01*
X241145Y91249D01*
X241628Y90527D01*
X242349Y90045D01*
X242700Y89976D01*
Y91600D01*
D02*
G37*
G36*
X234824D02*
X233200D01*
Y89976D01*
X233551Y90045D01*
X234273Y90527D01*
X234755Y91249D01*
X234824Y91600D01*
D02*
G37*
G36*
X232200D02*
X230576D01*
X230645Y91249D01*
X231128Y90527D01*
X231849Y90045D01*
X232200Y89976D01*
Y91600D01*
D02*
G37*
G36*
X151324Y91400D02*
X149700D01*
Y89776D01*
X150051Y89846D01*
X150773Y90328D01*
X151254Y91049D01*
X151324Y91400D01*
D02*
G37*
G36*
X148700D02*
X147076D01*
X147145Y91049D01*
X147627Y90328D01*
X148349Y89846D01*
X148700Y89776D01*
Y91400D01*
D02*
G37*
G36*
X46600Y202325D02*
Y200500D01*
X48425D01*
X48340Y200928D01*
X47814Y201714D01*
X47028Y202240D01*
X46600Y202325D01*
D02*
G37*
G36*
X45600D02*
X45172Y202240D01*
X44386Y201714D01*
X43860Y200928D01*
X43775Y200500D01*
X45600D01*
Y202325D01*
D02*
G37*
G36*
X48425Y199500D02*
X46600D01*
Y197675D01*
X47028Y197760D01*
X47814Y198286D01*
X48340Y199072D01*
X48425Y199500D01*
D02*
G37*
G36*
X45600D02*
X43775D01*
X43860Y199072D01*
X44386Y198286D01*
X45172Y197760D01*
X45600Y197675D01*
Y199500D01*
D02*
G37*
G36*
X54700Y192225D02*
Y190400D01*
X56525D01*
X56440Y190828D01*
X55914Y191614D01*
X55128Y192140D01*
X54700Y192225D01*
D02*
G37*
G36*
X53700D02*
X53272Y192140D01*
X52486Y191614D01*
X51960Y190828D01*
X51875Y190400D01*
X53700D01*
Y192225D01*
D02*
G37*
G36*
X56525Y189400D02*
X54700D01*
Y187575D01*
X55128Y187660D01*
X55914Y188186D01*
X56440Y188972D01*
X56525Y189400D01*
D02*
G37*
G36*
X53700D02*
X51875D01*
X51960Y188972D01*
X52486Y188186D01*
X53272Y187660D01*
X53700Y187575D01*
Y189400D01*
D02*
G37*
G36*
X46400Y182525D02*
Y180700D01*
X48225D01*
X48140Y181128D01*
X47614Y181914D01*
X46828Y182440D01*
X46400Y182525D01*
D02*
G37*
G36*
X48225Y179700D02*
X46400D01*
Y177875D01*
X46828Y177960D01*
X47614Y178486D01*
X48140Y179272D01*
X48225Y179700D01*
D02*
G37*
%LPD*%
D39*
X74900Y196300D02*
X74921Y196321D01*
Y215221D01*
X52372Y203128D02*
Y217839D01*
Y203128D02*
X56000Y199500D01*
X52372Y217839D02*
X52500Y217967D01*
Y241750D01*
X40500Y253750D02*
X52500Y241750D01*
X40500Y253750D02*
Y276750D01*
X56000Y199500D02*
X59000D01*
X34250Y283000D02*
X40500Y276750D01*
X28750Y283000D02*
X34250D01*
X18750Y293000D02*
X28750Y283000D01*
X18750Y293000D02*
Y311000D01*
D40*
X56600Y291900D02*
Y318800D01*
X51900Y323500D02*
X56600Y318800D01*
X16200Y323500D02*
X51900D01*
X9300Y330400D02*
X16200Y323500D01*
X9300Y330400D02*
Y359914D01*
X56600Y291900D02*
X84921Y263579D01*
Y214979D02*
Y263579D01*
X9300Y359914D02*
Y363300D01*
X12200Y366200D01*
X31900D01*
D41*
X29500Y329000D02*
X39750Y339250D01*
X20250Y329000D02*
X29500D01*
X70579Y163329D02*
X93750Y186500D01*
X210250Y345450D02*
X223500Y332200D01*
Y282600D02*
Y332200D01*
X221200Y280300D02*
X223500Y282600D01*
X210250Y345450D02*
Y349500D01*
X135950Y280300D02*
X221200D01*
X131750Y284500D02*
X135950Y280300D01*
X134500Y362000D02*
X181750D01*
X132864Y363636D02*
X134500Y362000D01*
X181750D02*
X189750Y354000D01*
X88400Y200600D02*
X93750Y195250D01*
X88400Y200600D02*
Y226500D01*
X115450Y349250D02*
X155000D01*
X102600Y362100D02*
X115450Y349250D01*
X50400Y362100D02*
X102600D01*
X44000Y355700D02*
X50400Y362100D01*
X44000Y343500D02*
Y355700D01*
X55000Y216750D02*
Y245000D01*
X42500Y257500D02*
X55000Y245000D01*
X42500Y257500D02*
Y319500D01*
X70579Y129866D02*
Y163329D01*
X80579Y125579D02*
Y130078D01*
X78250Y123250D02*
X80579Y125579D01*
X46350Y123250D02*
X78250D01*
X93750Y186500D02*
Y195250D01*
X62250Y255750D02*
X70000Y263500D01*
X62250Y183000D02*
Y255750D01*
X132864Y363636D02*
Y368364D01*
X189750Y342250D02*
Y354000D01*
X39750Y339250D02*
X44000Y343500D01*
X155000Y349250D02*
X157000Y347250D01*
Y345250D02*
Y347250D01*
X176656Y340406D02*
Y345844D01*
X172750Y336500D02*
X176656Y340406D01*
X156500Y336500D02*
X172750D01*
X155250Y337750D02*
X156500Y336500D01*
X155250Y337750D02*
Y343500D01*
X157000Y345250D01*
X192500Y323250D02*
X194500Y325250D01*
X171500Y323250D02*
X192500D01*
X58550Y138900D02*
X62250Y142600D01*
X51400Y138900D02*
X58550D01*
X44100Y131600D02*
X51400Y138900D01*
X44100Y125500D02*
Y131600D01*
Y125500D02*
X46350Y123250D01*
X62250Y142600D02*
Y183000D01*
D42*
X136350Y272900D02*
X215900D01*
X219500Y276500D01*
X91795Y317455D02*
X136350Y272900D01*
X91795Y317455D02*
Y349465D01*
X72898D02*
Y353398D01*
X77500Y358000D01*
X97500D01*
X109000Y346500D01*
Y337750D02*
Y346500D01*
X162303Y235197D02*
X172000Y225500D01*
X180000D01*
X185925Y219575D01*
X148750Y298000D02*
X152750D01*
X109000Y337750D02*
X148750Y298000D01*
X136750Y342500D02*
X139750Y345500D01*
X136750Y327000D02*
Y342500D01*
Y327000D02*
X172250Y291500D01*
X139750Y345500D02*
X151500D01*
X172250Y291500D02*
X215646D01*
D43*
X159250Y349450D02*
Y350715D01*
Y349450D02*
X162000Y346700D01*
Y344750D02*
Y346700D01*
D48*
X153023Y372152D02*
D03*
X187039D02*
D03*
D49*
X187039Y387900D02*
D03*
X153023D02*
D03*
D50*
X236332Y31410D02*
D03*
D51*
X141056D02*
D03*
D52*
X111839Y35771D02*
D03*
X19319D02*
D03*
X111839Y129472D02*
D03*
X19319D02*
D03*
X80579Y130078D02*
D03*
X70579Y129866D02*
D03*
X60579D02*
D03*
X50579D02*
D03*
D53*
X54000Y349465D02*
D03*
X72898D02*
D03*
X91795D02*
D03*
D54*
X46716Y385685D02*
D03*
X99079D02*
D03*
D55*
X237500Y228613D02*
D03*
D56*
X139075Y228613D02*
D03*
D57*
X74921Y215221D02*
D03*
X74900Y196300D02*
D03*
X84921Y214979D02*
D03*
X31900Y366200D02*
D03*
X9300Y359914D02*
D03*
X20250Y329000D02*
D03*
X158900Y186700D02*
D03*
X232500D02*
D03*
X243000D02*
D03*
Y176200D02*
D03*
X232500D02*
D03*
X159200D02*
D03*
Y165600D02*
D03*
X232700D02*
D03*
X243200D02*
D03*
Y155100D02*
D03*
X232700D02*
D03*
X159200D02*
D03*
Y144600D02*
D03*
X232700D02*
D03*
X243200D02*
D03*
Y134100D02*
D03*
X232700D02*
D03*
X159200D02*
D03*
Y123600D02*
D03*
X232700D02*
D03*
X243200D02*
D03*
Y113100D02*
D03*
X232700D02*
D03*
X159200D02*
D03*
Y102600D02*
D03*
X232700D02*
D03*
X243200D02*
D03*
Y92100D02*
D03*
X232700D02*
D03*
X149200Y91900D02*
D03*
Y102500D02*
D03*
Y112800D02*
D03*
Y123300D02*
D03*
Y133900D02*
D03*
Y144400D02*
D03*
Y154900D02*
D03*
Y165400D02*
D03*
Y175900D02*
D03*
X149400Y186200D02*
D03*
X249800Y253100D02*
D03*
X243900D02*
D03*
X238000D02*
D03*
X232200D02*
D03*
X226300D02*
D03*
X220300D02*
D03*
X214400D02*
D03*
X208500D02*
D03*
X202500D02*
D03*
X196500D02*
D03*
X190600D02*
D03*
X184700D02*
D03*
X178700D02*
D03*
X172800D02*
D03*
X166900D02*
D03*
X122200Y259200D02*
D03*
Y255200D02*
D03*
Y251200D02*
D03*
Y247200D02*
D03*
Y243200D02*
D03*
Y239200D02*
D03*
Y235200D02*
D03*
Y231100D02*
D03*
Y227000D02*
D03*
Y222900D02*
D03*
Y218800D02*
D03*
X89200Y283700D02*
D03*
X92200D02*
D03*
X95200D02*
D03*
X98200D02*
D03*
X101200D02*
D03*
X104200D02*
D03*
Y286700D02*
D03*
X104100Y289800D02*
D03*
Y292800D02*
D03*
Y295800D02*
D03*
Y298800D02*
D03*
X101200D02*
D03*
X98200D02*
D03*
X95100Y298700D02*
D03*
X92100D02*
D03*
X89100D02*
D03*
X86000D02*
D03*
Y295600D02*
D03*
Y292600D02*
D03*
Y289600D02*
D03*
Y286600D02*
D03*
Y283500D02*
D03*
X178200Y358300D02*
D03*
X175400D02*
D03*
X172600D02*
D03*
X169800D02*
D03*
X167000D02*
D03*
X101100Y347200D02*
D03*
Y344200D02*
D03*
Y341200D02*
D03*
Y338100D02*
D03*
Y335000D02*
D03*
Y332000D02*
D03*
Y329000D02*
D03*
X101000Y325500D02*
D03*
X75000Y157100D02*
D03*
X112800Y155300D02*
D03*
D58*
X80700Y155900D02*
D03*
X75000Y167800D02*
D03*
X191800Y265900D02*
D03*
X215900Y308900D02*
D03*
X194800Y284000D02*
D03*
X159250Y350715D02*
D03*
X162000Y344750D02*
D03*
X175200Y273000D02*
D03*
X88400Y226500D02*
D03*
X131750Y284500D02*
D03*
X210250Y349500D02*
D03*
X18750Y311000D02*
D03*
X59000Y199500D02*
D03*
X185925Y219575D02*
D03*
X162303Y235197D02*
D03*
X55000Y216750D02*
D03*
X42500Y319500D02*
D03*
X70000Y263500D02*
D03*
X62250Y183000D02*
D03*
X152750Y298000D02*
D03*
X189750Y342250D02*
D03*
X132864Y368364D02*
D03*
X39750Y339250D02*
D03*
X157000Y345250D02*
D03*
X176656Y345844D02*
D03*
X151500Y345500D02*
D03*
X215646Y291500D02*
D03*
X219500Y276500D02*
D03*
X194500Y325250D02*
D03*
X171500Y323250D02*
D03*
X66100Y143000D02*
D03*
X125700Y166900D02*
D03*
Y162500D02*
D03*
Y158100D02*
D03*
Y153700D02*
D03*
Y149200D02*
D03*
Y144700D02*
D03*
Y140200D02*
D03*
Y135700D02*
D03*
Y131200D02*
D03*
Y126700D02*
D03*
X125600Y122100D02*
D03*
Y118100D02*
D03*
Y114100D02*
D03*
Y110000D02*
D03*
Y101900D02*
D03*
Y97900D02*
D03*
Y105900D02*
D03*
X54200Y189900D02*
D03*
X45900Y180200D02*
D03*
X46100Y200000D02*
D03*
X155000Y352000D02*
D03*
X140300Y353400D02*
D03*
X108800Y179000D02*
D03*
X114500D02*
D03*
X252200Y105300D02*
D03*
Y97300D02*
D03*
Y101300D02*
D03*
Y109400D02*
D03*
Y113500D02*
D03*
Y117500D02*
D03*
Y121500D02*
D03*
X252300Y125800D02*
D03*
Y130600D02*
D03*
Y135100D02*
D03*
Y139600D02*
D03*
Y144100D02*
D03*
Y148600D02*
D03*
Y153100D02*
D03*
Y157500D02*
D03*
Y161900D02*
D03*
Y166300D02*
D03*
M02*
