G04 Layer_Physical_Order=1*
G04 Layer_Color=255*
%FSLAX25Y25*%
%MOIN*%
G70*
G01*
G75*
%ADD10R,0.03740X0.03543*%
%ADD11R,0.03543X0.03937*%
%ADD12R,0.03937X0.03347*%
%ADD13R,0.05512X0.03740*%
%ADD14R,0.03543X0.03740*%
%ADD15R,0.04508X0.02165*%
%ADD16R,0.02165X0.04508*%
%ADD17R,0.04921X0.02362*%
%ADD18R,0.04409X0.04882*%
%ADD19R,0.05236X0.05236*%
%ADD20R,0.03543X0.07874*%
%ADD21R,0.07874X0.03543*%
%ADD22R,0.02362X0.04921*%
%ADD23R,0.02362X0.04724*%
%ADD24R,0.01181X0.04724*%
%ADD25O,0.01102X0.03150*%
%ADD26O,0.03150X0.01102*%
%ADD27R,0.10630X0.10630*%
%ADD28R,0.05512X0.02362*%
%ADD29R,0.03347X0.03937*%
%ADD30R,0.04724X0.10630*%
%ADD31R,0.05906X0.07480*%
%ADD32R,0.02559X0.01378*%
%ADD33R,0.04331X0.06693*%
%ADD34R,0.04882X0.04409*%
%ADD35R,0.06299X0.13386*%
%ADD36R,0.03937X0.18110*%
%ADD37R,0.02500X0.08300*%
%ADD38R,0.09600X0.13200*%
%ADD39C,0.01000*%
%ADD40C,0.01181*%
%ADD41C,0.01378*%
%ADD42C,0.03150*%
%ADD43C,0.00591*%
%ADD44C,0.02362*%
%ADD45C,0.00500*%
%ADD46C,0.00602*%
%ADD47C,0.01969*%
%ADD48O,0.03937X0.07087*%
%ADD49O,0.03937X0.08661*%
%ADD50C,0.06102*%
%ADD51C,0.04134*%
%ADD52C,0.06000*%
%ADD53C,0.09449*%
%ADD54C,0.08858*%
%ADD55C,0.06402*%
%ADD56C,0.04402*%
%ADD57C,0.02362*%
%ADD58C,0.02756*%
G36*
X256000Y393800D02*
X256000Y83300D01*
X35Y83300D01*
X35Y144600D01*
X55013D01*
X59245Y140368D01*
Y133231D01*
X58754Y133028D01*
X57997Y132448D01*
X57417Y131691D01*
X57052Y130811D01*
X56928Y129866D01*
X57052Y128921D01*
X57417Y128040D01*
X57997Y127284D01*
X58754Y126704D01*
X59634Y126339D01*
X60579Y126215D01*
X61524Y126339D01*
X62405Y126704D01*
X63161Y127284D01*
X63741Y128040D01*
X64106Y128921D01*
X64230Y129866D01*
X64128Y130641D01*
X73153Y139665D01*
X109800D01*
X110311Y139767D01*
X110744Y140056D01*
X114740Y144053D01*
X114811Y144067D01*
X115244Y144356D01*
X115487Y144600D01*
X118800D01*
X118800Y183100D01*
X64267D01*
X64132Y183780D01*
X63690Y184440D01*
X63030Y184882D01*
X62250Y185037D01*
X61470Y184882D01*
X60810Y184440D01*
X60368Y183780D01*
X60233Y183100D01*
X51255D01*
Y184876D01*
X52214D01*
Y187766D01*
X52714Y188033D01*
X53272Y187660D01*
X53700Y187575D01*
Y189900D01*
X54200D01*
Y190400D01*
X56525D01*
X56440Y190828D01*
X56074Y191376D01*
X56341Y191876D01*
X57309D01*
Y197053D01*
X56256D01*
Y202290D01*
X56609Y202644D01*
X57313Y202644D01*
X57812Y202644D01*
X62029D01*
X62313Y202644D01*
X62813Y202644D01*
X67029D01*
X67313Y202644D01*
X67813Y202644D01*
X72029D01*
X72312Y202644D01*
X72812Y202644D01*
X77029D01*
X77312Y202644D01*
X77812Y202644D01*
X82029D01*
X82313Y202644D01*
X82812Y202644D01*
X87029D01*
X87313Y202644D01*
X87875Y202644D01*
X88067Y202182D01*
X86527Y200642D01*
X60640D01*
X60440Y200940D01*
X59780Y201382D01*
X59000Y201537D01*
X58220Y201382D01*
X57560Y200940D01*
X57118Y200280D01*
X56963Y199500D01*
X57118Y198720D01*
X57560Y198060D01*
X57940Y197806D01*
X58230Y197455D01*
X58248Y197142D01*
Y194965D01*
X60421D01*
Y197433D01*
X60403D01*
X60251Y197933D01*
X60440Y198060D01*
X60640Y198358D01*
X73838D01*
X73990Y197858D01*
X73602Y197599D01*
X73203Y197003D01*
X73064Y196300D01*
X73203Y195597D01*
X73602Y195001D01*
X74197Y194603D01*
X74900Y194464D01*
X75085Y194500D01*
X77092Y192492D01*
X77463Y192245D01*
X77900Y192158D01*
X114400D01*
X114837Y192245D01*
X115208Y192492D01*
X139461Y216746D01*
X139961Y216539D01*
Y207701D01*
X139994D01*
Y203621D01*
X139763Y203276D01*
X139593Y202419D01*
X139763Y201563D01*
X140248Y200837D01*
X144668Y196418D01*
X145394Y195932D01*
X146250Y195762D01*
X229000D01*
X229856Y195932D01*
X230582Y196418D01*
X234752Y200587D01*
X235237Y201313D01*
X235407Y202169D01*
X235237Y203026D01*
X235006Y203372D01*
Y207701D01*
X235039D01*
Y217241D01*
X232270D01*
Y217621D01*
X230520D01*
Y212471D01*
Y207321D01*
X231333D01*
Y203498D01*
X228073Y200238D01*
X188927D01*
X187762Y201403D01*
Y207701D01*
X193124D01*
Y207321D01*
X194874D01*
Y212471D01*
Y217621D01*
X193124D01*
Y217241D01*
X187762D01*
Y218727D01*
X187807Y218795D01*
X187962Y219575D01*
X187807Y220354D01*
X187366Y221015D01*
X186705Y221457D01*
X185925Y221612D01*
X185146Y221457D01*
X184485Y221015D01*
X184043Y220354D01*
X183888Y219575D01*
X184043Y218795D01*
X184089Y218727D01*
Y217621D01*
X183276D01*
Y212471D01*
Y207321D01*
X184089D01*
Y201277D01*
X183858Y200931D01*
X183720Y200238D01*
X147177D01*
X143667Y203748D01*
Y207321D01*
X144480D01*
Y212471D01*
Y217621D01*
X142730D01*
Y217241D01*
X140663D01*
X140456Y217741D01*
X142073Y219358D01*
X155227D01*
X156437Y218148D01*
Y217241D01*
X147230D01*
Y217621D01*
X145480D01*
Y212471D01*
Y207321D01*
X147230D01*
Y207701D01*
X158478D01*
Y207321D01*
X160228D01*
Y212471D01*
Y217621D01*
X158721D01*
Y218621D01*
X158634Y219058D01*
X158386Y219429D01*
X156508Y221307D01*
X156137Y221555D01*
X155700Y221642D01*
X141764D01*
X141546Y222072D01*
X141540Y222125D01*
X148023Y228608D01*
X213000D01*
X213437Y228695D01*
X213808Y228942D01*
X219804Y234939D01*
X220051Y235309D01*
X220138Y235746D01*
Y239605D01*
X221646D01*
Y244755D01*
Y249905D01*
X219896D01*
Y249525D01*
X214947D01*
Y249905D01*
X213197D01*
Y244755D01*
Y239605D01*
X214033D01*
X214240Y239105D01*
X208777Y233642D01*
X164269D01*
X164001Y234142D01*
X164185Y234417D01*
X164340Y235197D01*
X164185Y235976D01*
X164140Y236045D01*
Y239605D01*
X164953D01*
Y244755D01*
Y249905D01*
X163203D01*
Y249525D01*
X160990D01*
Y251575D01*
X167427Y258012D01*
X204250D01*
X205106Y258183D01*
X205832Y258668D01*
X208832Y261668D01*
X209317Y262394D01*
X209488Y263250D01*
X209317Y264106D01*
X208886Y264753D01*
Y267209D01*
X215547D01*
Y267776D01*
X232260D01*
X232732Y267869D01*
X233133Y268137D01*
X239123Y274127D01*
X239390Y274528D01*
X239484Y275000D01*
Y302870D01*
X240740D01*
Y307653D01*
X235760D01*
Y302870D01*
X237016D01*
Y275511D01*
X236088Y274583D01*
X235626Y274775D01*
Y275990D01*
X233453D01*
Y273522D01*
X234373D01*
X234564Y273060D01*
X231749Y270244D01*
X215547D01*
Y270811D01*
X209512D01*
X209305Y271311D01*
X212247Y274252D01*
X224754D01*
Y273902D01*
X229341D01*
Y279079D01*
X224754D01*
Y278728D01*
X212171D01*
X211315Y278558D01*
X210916Y278291D01*
X208795D01*
Y275428D01*
X206205Y272837D01*
X205766Y272975D01*
X205705Y273021D01*
X205705Y274551D01*
X205705Y275051D01*
Y278291D01*
X198953D01*
Y275051D01*
X198953Y274689D01*
Y274338D01*
X198599Y273984D01*
X198011D01*
X197734Y274261D01*
Y279989D01*
X208123Y290377D01*
X208390Y290778D01*
X208484Y291250D01*
Y292802D01*
X208795Y293173D01*
X208984Y293173D01*
X210808D01*
X212481Y291500D01*
X210715Y289734D01*
X210618Y289588D01*
X210004D01*
Y284412D01*
X214591D01*
Y287280D01*
X215068Y287757D01*
X215529Y287566D01*
Y287500D01*
X218203D01*
X220876D01*
Y289262D01*
X224750D01*
X225606Y289433D01*
X226332Y289918D01*
X231144Y294729D01*
X231629Y295455D01*
X231799Y296311D01*
Y302938D01*
X232937D01*
Y307918D01*
X226186D01*
Y302938D01*
X227324D01*
Y297238D01*
X223823Y293738D01*
X223120D01*
Y295809D01*
X217380D01*
Y293738D01*
X216573D01*
X215547Y294763D01*
Y296776D01*
X213426D01*
X213028Y297042D01*
X212171Y297212D01*
X211315Y297042D01*
X210916Y296776D01*
X208984D01*
X208795Y296776D01*
X208484Y297147D01*
Y300283D01*
X208795Y300654D01*
X208984Y300654D01*
X215547D01*
Y301220D01*
X217760D01*
Y299823D01*
X222740D01*
Y304606D01*
X217760D01*
Y303689D01*
X215547D01*
Y304256D01*
X208795D01*
Y301766D01*
X208295Y301614D01*
X208123Y301873D01*
X206668Y303327D01*
X206268Y303595D01*
X205795Y303689D01*
X205705D01*
Y304256D01*
X203563D01*
Y306224D01*
X204720D01*
Y311205D01*
X199937D01*
Y306224D01*
X201095D01*
Y304256D01*
X198953D01*
Y300896D01*
X198573D01*
Y299215D01*
X202329D01*
Y298215D01*
X198573D01*
Y297212D01*
X197962D01*
Y297268D01*
X197612D01*
Y312947D01*
X206677Y322012D01*
X225034D01*
Y321425D01*
X231155D01*
Y327075D01*
X230332D01*
Y328168D01*
X232532Y330368D01*
X233017Y331094D01*
X233188Y331950D01*
Y354008D01*
X233539D01*
Y373358D01*
X228362D01*
Y354008D01*
X228712D01*
Y332877D01*
X226512Y330677D01*
X226027Y329951D01*
X225857Y329095D01*
Y327075D01*
X225034D01*
Y326488D01*
X205750D01*
X204894Y326318D01*
X204168Y325832D01*
X193792Y315456D01*
X193307Y314730D01*
X193136Y313874D01*
Y297268D01*
X192786D01*
Y297212D01*
X192052D01*
X187682Y301582D01*
X186956Y302067D01*
X186100Y302238D01*
X154750D01*
X153894Y302067D01*
X153168Y301582D01*
X151168Y299582D01*
X150682Y298856D01*
X150512Y298000D01*
X150682Y297144D01*
X151168Y296418D01*
X151894Y295933D01*
X152750Y295762D01*
X153606Y295933D01*
X154332Y296418D01*
X155677Y297762D01*
X158922D01*
X159113Y297300D01*
X152922Y291110D01*
X152633Y290677D01*
X152532Y290166D01*
Y283825D01*
X150786D01*
Y280223D01*
X156947D01*
Y283825D01*
X155201D01*
Y289613D01*
X161369Y295782D01*
X170199D01*
Y290053D01*
X173801D01*
Y291799D01*
X177113D01*
X180065Y288847D01*
Y272053D01*
X177844Y269832D01*
X177344Y270039D01*
Y270690D01*
X176593D01*
X176442Y271190D01*
X176782Y271418D01*
X177268Y272144D01*
X177438Y273000D01*
Y277632D01*
X177827Y278215D01*
X177998Y279072D01*
Y284866D01*
X177827Y285722D01*
X177561Y286121D01*
Y287947D01*
X173959D01*
Y286121D01*
X173692Y285722D01*
X173522Y284866D01*
Y280755D01*
X172561D01*
Y275775D01*
X172962D01*
Y273000D01*
X173133Y272144D01*
X173618Y271418D01*
X173958Y271190D01*
X173807Y270690D01*
X172561D01*
Y265710D01*
X177344D01*
Y266865D01*
X178100D01*
X178611Y266967D01*
X179044Y267256D01*
X182344Y270556D01*
X182633Y270989D01*
X182735Y271500D01*
Y289400D01*
X182633Y289911D01*
X182344Y290344D01*
X178610Y294078D01*
X178177Y294367D01*
X177666Y294468D01*
X173801D01*
Y295782D01*
X179831D01*
X184365Y291247D01*
Y269853D01*
X179647Y265135D01*
X164200D01*
X163689Y265033D01*
X163256Y264744D01*
X161847Y263335D01*
X152053D01*
X151319Y264068D01*
X150886Y264357D01*
X150376Y264459D01*
X147390D01*
Y265516D01*
X142410D01*
Y264459D01*
X140790D01*
Y265516D01*
X135810D01*
Y260733D01*
X140790D01*
Y261790D01*
X142410D01*
Y260733D01*
X147390D01*
Y261790D01*
X149823D01*
X150556Y261056D01*
X150989Y260767D01*
X151500Y260665D01*
X162400D01*
X162911Y260767D01*
X163344Y261056D01*
X164515Y262227D01*
X164608Y262204D01*
X164741Y261655D01*
X157571Y254486D01*
X157086Y253760D01*
X156916Y252904D01*
X157086Y252047D01*
X157317Y251701D01*
Y249905D01*
X156504D01*
Y244755D01*
Y239605D01*
X158254D01*
Y239985D01*
X160467D01*
Y236045D01*
X160421Y235976D01*
X160266Y235197D01*
X160421Y234417D01*
X160605Y234142D01*
X160338Y233642D01*
X146273D01*
X144407Y235507D01*
X144037Y235755D01*
X143600Y235842D01*
X136326D01*
Y249612D01*
X125486D01*
Y235173D01*
X134504D01*
X134696Y234711D01*
X129593Y229608D01*
X129345Y229237D01*
X129258Y228800D01*
Y219823D01*
X124827Y215392D01*
X119294D01*
X118795Y215394D01*
X118795Y215892D01*
Y217665D01*
X113858D01*
X108921D01*
X108921Y215394D01*
X108422Y215392D01*
X97000D01*
X96563Y215305D01*
X96193Y215057D01*
X94113Y212978D01*
X93866Y212608D01*
X93779Y212171D01*
Y212111D01*
X93425Y211758D01*
X92529Y211758D01*
X92029Y211758D01*
X87813D01*
X87529Y211758D01*
X87029Y211758D01*
X86155D01*
Y213638D01*
X86219Y213681D01*
X86617Y214276D01*
X86757Y214979D01*
X86617Y215682D01*
X86219Y216278D01*
X85624Y216676D01*
X84921Y216815D01*
X84356Y216703D01*
X84094Y217148D01*
X85611Y218666D01*
X100300D01*
X100772Y218760D01*
X101173Y219027D01*
X106073Y223927D01*
X106340Y224328D01*
X106434Y224800D01*
Y263289D01*
X108111Y264966D01*
X109301D01*
Y261057D01*
X109301Y260774D01*
X109301Y260274D01*
Y256057D01*
X109301Y255774D01*
X109301Y255274D01*
Y251057D01*
X109301Y250774D01*
X109301Y250274D01*
Y246057D01*
X109301Y245774D01*
X109301Y245274D01*
Y241057D01*
X109301Y240774D01*
X109301Y240274D01*
Y236057D01*
X109301Y235774D01*
X109301Y235274D01*
Y231057D01*
X109301Y230774D01*
X109301Y230274D01*
Y226057D01*
X109301Y225774D01*
X109301Y225274D01*
Y220937D01*
X108921D01*
Y218665D01*
X113858D01*
X118795D01*
Y220937D01*
X118415D01*
Y225274D01*
X118415Y225557D01*
X118415Y226057D01*
Y230274D01*
X118415Y230557D01*
X118415Y231057D01*
Y235274D01*
X118415Y235557D01*
X118415Y236057D01*
Y240274D01*
X118415Y240557D01*
X118415Y241057D01*
Y245274D01*
X118415Y245557D01*
X118415Y246057D01*
Y250274D01*
X118415Y250557D01*
X118415Y251057D01*
Y255274D01*
X118415Y255557D01*
X118415Y256057D01*
Y260274D01*
X118415Y260557D01*
X118415Y261057D01*
Y264966D01*
X120289D01*
X133427Y251827D01*
X133828Y251560D01*
X134300Y251466D01*
X143400D01*
X143872Y251560D01*
X144273Y251827D01*
X145773Y253327D01*
X146040Y253728D01*
X146134Y254200D01*
Y254827D01*
X147390D01*
Y259611D01*
X142410D01*
Y254827D01*
X143075D01*
X143282Y254327D01*
X142889Y253934D01*
X134811D01*
X122080Y266665D01*
X122287Y267165D01*
X146400D01*
X146911Y267267D01*
X147344Y267556D01*
X150153Y270365D01*
X151095D01*
Y268700D01*
X153866D01*
X156638D01*
Y270365D01*
X157380D01*
Y265710D01*
X162163D01*
Y266865D01*
X166656D01*
Y265710D01*
X171439D01*
Y270690D01*
X166656D01*
Y269535D01*
X162163D01*
Y270690D01*
X161054D01*
X161005Y270939D01*
X160715Y271372D01*
X159444Y272644D01*
X159011Y272933D01*
X158500Y273035D01*
X157327D01*
Y274005D01*
X150406D01*
Y273035D01*
X149600D01*
X149089Y272933D01*
X148656Y272644D01*
X145847Y269835D01*
X112312D01*
Y272795D01*
X121380D01*
X121891Y272897D01*
X122324Y273186D01*
X131625Y282488D01*
X131750Y282463D01*
X132530Y282618D01*
X133190Y283060D01*
X133632Y283720D01*
X133787Y284500D01*
X133632Y285280D01*
X133190Y285940D01*
X132530Y286382D01*
X131750Y286537D01*
X130970Y286382D01*
X130310Y285940D01*
X129868Y285280D01*
X129713Y284500D01*
X129738Y284375D01*
X120827Y275465D01*
X112312D01*
Y278687D01*
X107529D01*
Y278687D01*
X107313D01*
Y278687D01*
X102813D01*
X102529Y278687D01*
X102029Y278687D01*
X97812D01*
X97529Y278687D01*
X97029Y278687D01*
X92813D01*
X92529Y278687D01*
X92029Y278687D01*
X87813D01*
X87529Y278687D01*
X87029Y278687D01*
X82812D01*
X82529Y278687D01*
X82029Y278687D01*
X77812D01*
X77529Y278687D01*
X77029Y278687D01*
X72812D01*
X72529Y278687D01*
X72029Y278687D01*
X67813D01*
X67529Y278687D01*
X67029Y278687D01*
X66255D01*
Y281368D01*
X83320Y298432D01*
X83862Y298268D01*
X83946Y297849D01*
X84412Y297150D01*
X83946Y296451D01*
X83876Y296100D01*
X88124D01*
X88108Y296184D01*
X88516Y296592D01*
X88600Y296576D01*
Y298700D01*
Y300824D01*
X88249Y300755D01*
X87550Y300288D01*
X86851Y300755D01*
X86432Y300838D01*
X86268Y301380D01*
X98303Y313415D01*
X172250D01*
X172761Y313517D01*
X173194Y313806D01*
X177765Y318378D01*
X178265Y318171D01*
Y315553D01*
X174847Y312135D01*
X174100D01*
X173589Y312033D01*
X173156Y311744D01*
X170808Y309396D01*
X170519Y308963D01*
X170417Y308452D01*
Y307752D01*
X169360D01*
Y302772D01*
X174144D01*
Y307752D01*
X173646D01*
X173439Y308252D01*
X174653Y309465D01*
X175400D01*
X175911Y309567D01*
X176344Y309856D01*
X180544Y314056D01*
X180833Y314489D01*
X180935Y315000D01*
Y336516D01*
X181101Y336629D01*
X181545Y336764D01*
Y336764D01*
X186525D01*
Y341547D01*
X185370D01*
Y343453D01*
X186525D01*
Y348236D01*
X181545D01*
Y347179D01*
X178167D01*
X178096Y347285D01*
X177435Y347726D01*
X176656Y347882D01*
X175876Y347726D01*
X175585Y347532D01*
X175085Y347799D01*
Y350447D01*
X178813Y354175D01*
X181059D01*
X181545Y354142D01*
X181545Y353675D01*
Y349358D01*
X186525D01*
Y350415D01*
X187821D01*
Y349949D01*
X193982D01*
Y350415D01*
X207447D01*
X208238Y349625D01*
X208213Y349500D01*
X208368Y348720D01*
X208810Y348060D01*
X208969Y347953D01*
X208818Y347453D01*
X206531D01*
X205050Y348934D01*
X204617Y349223D01*
X204106Y349325D01*
X202250D01*
Y349791D01*
X196089D01*
Y346189D01*
X202250D01*
Y346656D01*
X203554D01*
X204545Y345664D01*
Y342670D01*
X209525D01*
Y347097D01*
X210001Y347513D01*
X210250Y347463D01*
X211030Y347618D01*
X211146Y347696D01*
X211545Y347361D01*
Y342670D01*
X216526D01*
Y347453D01*
X215370D01*
Y353215D01*
X215268Y353725D01*
X214979Y354158D01*
X212684Y356453D01*
X212251Y356743D01*
X211740Y356844D01*
X202250D01*
Y357311D01*
X196089D01*
Y356844D01*
X180381D01*
X180145Y357285D01*
X180254Y357449D01*
X180324Y357800D01*
X178200D01*
Y358300D01*
X177700D01*
Y360424D01*
X177349Y360355D01*
X176800Y359988D01*
X176251Y360355D01*
X175900Y360424D01*
Y358300D01*
Y356176D01*
X176251Y356245D01*
X176440Y356372D01*
X176495Y356340D01*
X176578Y355715D01*
X172806Y351944D01*
X172517Y351511D01*
X172415Y351000D01*
Y338553D01*
X170880Y337018D01*
X170645Y337072D01*
X170375Y337220D01*
X170302Y337586D01*
X170043Y337974D01*
X169656Y338233D01*
X169199Y338324D01*
X167152D01*
X167067Y338307D01*
X166567Y338525D01*
X166408Y339024D01*
X166415Y339060D01*
Y341107D01*
X166324Y341564D01*
X166065Y341952D01*
X165678Y342210D01*
X165221Y342301D01*
X164764Y342210D01*
X164499Y342034D01*
X164372Y342226D01*
X163858Y342568D01*
X163375Y342665D01*
X163231Y343066D01*
X163225Y343165D01*
X163440Y343310D01*
X163882Y343970D01*
X164037Y344750D01*
X163882Y345530D01*
X163440Y346190D01*
X162780Y346632D01*
X162000Y346787D01*
X161732Y346734D01*
X161162Y347125D01*
X161144Y347223D01*
X162473Y348551D01*
X162677Y348856D01*
X162748Y349216D01*
X162742Y349246D01*
Y357092D01*
X164345Y358694D01*
X164806Y358448D01*
X164776Y358300D01*
X164945Y357449D01*
X165427Y356728D01*
X166149Y356245D01*
X166500Y356176D01*
Y358300D01*
X167500D01*
Y356176D01*
X167851Y356245D01*
X168400Y356612D01*
X168949Y356245D01*
X169300Y356176D01*
Y358300D01*
Y360424D01*
X168949Y360355D01*
X168400Y359988D01*
X167851Y360355D01*
X167000Y360524D01*
X166852Y360494D01*
X166606Y360955D01*
X169047Y363396D01*
X169349Y363194D01*
X169706Y363123D01*
X171756D01*
X172113Y363194D01*
X172416Y363396D01*
X173643Y364624D01*
X173846Y364927D01*
X173917Y365284D01*
Y366808D01*
X180448D01*
Y366428D01*
X182129D01*
Y369790D01*
Y373152D01*
X181316D01*
Y376420D01*
X181176Y377123D01*
X180778Y377719D01*
X178798Y379698D01*
X178203Y380097D01*
X177500Y380236D01*
X163300D01*
X162597Y380097D01*
X162002Y379698D01*
X159283Y376980D01*
X158885Y376385D01*
X158746Y375682D01*
Y373152D01*
X157932D01*
Y369790D01*
Y366428D01*
X158746D01*
Y365843D01*
X157382Y364479D01*
X152043D01*
X151340Y364339D01*
X150744Y363941D01*
X146502Y359699D01*
X146103Y359103D01*
X145964Y358400D01*
Y349200D01*
X146103Y348497D01*
X146502Y347902D01*
X147106Y347297D01*
X146915Y346835D01*
X136700D01*
X136189Y346733D01*
X135756Y346444D01*
X135470Y346016D01*
X134789Y345335D01*
X131553D01*
X118744Y358144D01*
X118311Y358433D01*
X117800Y358535D01*
X86800D01*
X86289Y358433D01*
X85856Y358144D01*
X81456Y353744D01*
X81167Y353311D01*
X81065Y352800D01*
Y346353D01*
X76847Y342135D01*
X72300D01*
X71789Y342033D01*
X71356Y341744D01*
X59922Y330310D01*
X59633Y329877D01*
X59531Y329366D01*
Y306525D01*
X57785D01*
Y306059D01*
X57078D01*
X52229Y310908D01*
X51796Y311198D01*
X51325Y311291D01*
Y313025D01*
X45675D01*
Y311299D01*
X39392D01*
Y312455D01*
X34608D01*
Y307474D01*
X39392D01*
Y308630D01*
X45675D01*
Y306904D01*
X51325D01*
Y307385D01*
X51787Y307576D01*
X55582Y303781D01*
X56015Y303491D01*
X56526Y303390D01*
X57785D01*
Y302923D01*
X63947D01*
Y306525D01*
X62201D01*
Y328813D01*
X72853Y339465D01*
X77400D01*
X77911Y339567D01*
X78344Y339856D01*
X83344Y344856D01*
X83633Y345289D01*
X83735Y345800D01*
Y352247D01*
X87353Y355865D01*
X117247D01*
X130056Y343056D01*
X130489Y342767D01*
X131000Y342665D01*
X133966D01*
Y336700D01*
X134060Y336228D01*
X134327Y335827D01*
X135866Y334289D01*
X136266Y334021D01*
X136738Y333927D01*
X149930D01*
X150256Y333427D01*
X150209Y333193D01*
X150300Y332736D01*
X150410Y332571D01*
X150559Y332069D01*
X150300Y331682D01*
X150209Y331225D01*
X150300Y330768D01*
X150410Y330602D01*
X150517Y330241D01*
X150411Y329878D01*
X150300Y329713D01*
X150209Y329256D01*
X150300Y328799D01*
X150410Y328634D01*
X150517Y328271D01*
X150410Y327909D01*
X150300Y327745D01*
X150209Y327288D01*
X150300Y326831D01*
X150559Y326443D01*
X150946Y326184D01*
X151403Y326093D01*
X153450D01*
X153937Y325895D01*
X154192Y325395D01*
X154185Y325359D01*
Y323312D01*
X154276Y322855D01*
X154535Y322468D01*
X154922Y322209D01*
X155379Y322118D01*
X155836Y322209D01*
X156224Y322468D01*
X156502D01*
X156890Y322209D01*
X157347Y322118D01*
X157804Y322209D01*
X157969Y322320D01*
X158331Y322426D01*
X158694Y322320D01*
X158859Y322209D01*
X159316Y322118D01*
X159773Y322209D01*
X160161Y322468D01*
X160439D01*
X160827Y322209D01*
X161284Y322118D01*
X161741Y322209D01*
X161906Y322320D01*
X162268Y322426D01*
X162630Y322320D01*
X162796Y322209D01*
X163253Y322118D01*
X163710Y322209D01*
X164097Y322468D01*
X164346D01*
X164733Y322209D01*
X165190Y322118D01*
X165647Y322209D01*
X166034Y322468D01*
X166293Y322855D01*
X166384Y323312D01*
Y325359D01*
X166377Y325395D01*
X166567Y325895D01*
X167044Y325839D01*
X167302Y325453D01*
X169470Y323285D01*
X169463Y323250D01*
X169618Y322470D01*
X170060Y321810D01*
X170720Y321368D01*
X171500Y321213D01*
X172280Y321368D01*
X172515Y321525D01*
X172656Y321530D01*
X173075Y321298D01*
X173079Y321216D01*
X170197Y318335D01*
X95500D01*
X94989Y318233D01*
X94556Y317944D01*
X58977Y282365D01*
X58688Y281932D01*
X58586Y281421D01*
Y279041D01*
X58233Y278687D01*
X57529Y278687D01*
X57029Y278687D01*
X52812D01*
X52529Y278687D01*
X52029Y278687D01*
X47692D01*
Y279067D01*
X45421D01*
Y274130D01*
Y269193D01*
X47692D01*
Y269573D01*
X52029D01*
X52312Y269573D01*
X52812Y269573D01*
X53586D01*
Y262079D01*
X53688Y261568D01*
X53977Y261135D01*
X60556Y254556D01*
X60989Y254267D01*
X61500Y254165D01*
X80197D01*
X87065Y247297D01*
Y228011D01*
X86960Y227940D01*
X86518Y227280D01*
X86363Y226500D01*
X86518Y225720D01*
X86960Y225060D01*
X87620Y224618D01*
X88400Y224463D01*
X89180Y224618D01*
X89840Y225060D01*
X90282Y225720D01*
X90437Y226500D01*
X90282Y227280D01*
X89840Y227940D01*
X89735Y228011D01*
Y247247D01*
X89835Y247750D01*
X89733Y248261D01*
X89444Y248694D01*
X81694Y256444D01*
X81261Y256733D01*
X80750Y256835D01*
X62053D01*
X56256Y262632D01*
Y269219D01*
X56609Y269573D01*
X57313Y269573D01*
X57812Y269573D01*
X62313D01*
Y269573D01*
X62529D01*
Y269573D01*
X67029D01*
X67313Y269573D01*
X67813Y269573D01*
X68586D01*
Y264958D01*
X68560Y264940D01*
X68118Y264280D01*
X67963Y263500D01*
X68118Y262720D01*
X68560Y262060D01*
X69220Y261618D01*
X70000Y261463D01*
X70780Y261618D01*
X71440Y262060D01*
X71882Y262720D01*
X72037Y263500D01*
X71882Y264280D01*
X71440Y264940D01*
X71255Y265064D01*
Y269219D01*
X71609Y269573D01*
X72312Y269573D01*
X72812Y269573D01*
X77029D01*
X77312Y269573D01*
X77812Y269573D01*
X82029D01*
X82313Y269573D01*
X82812Y269573D01*
X87029D01*
X87313Y269573D01*
X87813Y269573D01*
X92029D01*
X92313Y269573D01*
X92813Y269573D01*
X97029D01*
X97312Y269573D01*
X97812Y269573D01*
X102029D01*
X102313Y269573D01*
X102813Y269573D01*
X105278D01*
X105485Y269073D01*
X100756Y264344D01*
X100467Y263911D01*
X100365Y263400D01*
Y225753D01*
X98547Y223935D01*
X74500D01*
X73989Y223833D01*
X73556Y223544D01*
X63977Y213965D01*
X63688Y213532D01*
X63586Y213021D01*
Y212111D01*
X63233Y211758D01*
X62529Y211758D01*
X62029Y211758D01*
X57812D01*
X57529Y211758D01*
X57029Y211758D01*
X56256D01*
Y215186D01*
X56440Y215310D01*
X56882Y215970D01*
X57037Y216750D01*
X56882Y217530D01*
X56440Y218190D01*
X55780Y218632D01*
X55000Y218787D01*
X54220Y218632D01*
X53560Y218190D01*
X53118Y217530D01*
X52963Y216750D01*
X53118Y215970D01*
X53560Y215310D01*
X53586Y215292D01*
Y211758D01*
X52529D01*
Y211758D01*
X52312D01*
Y211758D01*
X51256D01*
Y260329D01*
X51154Y260840D01*
X50865Y261273D01*
X43444Y268693D01*
X43652Y269193D01*
X44421D01*
Y274130D01*
Y279067D01*
X43100D01*
Y291300D01*
X23201D01*
Y296118D01*
X25500D01*
Y300465D01*
Y304811D01*
X22835D01*
Y304333D01*
X19967D01*
Y301799D01*
X18089D01*
Y302711D01*
X16835D01*
Y309370D01*
X17194Y309514D01*
X17335Y309543D01*
X17970Y309118D01*
X18750Y308963D01*
X19530Y309118D01*
X20190Y309560D01*
X20632Y310220D01*
X20787Y311000D01*
X20632Y311780D01*
X20190Y312440D01*
X19892Y312640D01*
Y319177D01*
X30808Y330093D01*
X31055Y330463D01*
X31142Y330900D01*
Y336430D01*
X31055Y336867D01*
X30808Y337238D01*
X30437Y337485D01*
X30000Y337572D01*
X28943D01*
X26742Y339773D01*
Y350875D01*
X27179Y351027D01*
X27242Y351027D01*
X31962D01*
Y356204D01*
X27242D01*
X27179Y356204D01*
X26742Y356355D01*
Y357174D01*
X27179Y357326D01*
X27242Y357326D01*
X31962D01*
Y362503D01*
X27242D01*
X27179Y362503D01*
X26742Y362654D01*
Y375215D01*
X26655Y375652D01*
X26408Y376022D01*
X26094Y376335D01*
X26286Y376797D01*
X30148D01*
Y381974D01*
X25364D01*
Y377719D01*
X24902Y377528D01*
X16745Y385685D01*
X20518Y389458D01*
X30727D01*
X31646Y388539D01*
X31455Y388077D01*
X31410D01*
Y383293D01*
X36390D01*
Y388077D01*
X35007D01*
X34955Y388337D01*
X34707Y388707D01*
X32008Y391407D01*
X31637Y391655D01*
X31200Y391742D01*
X20045D01*
X19608Y391655D01*
X19237Y391407D01*
X14657Y386827D01*
X14006D01*
Y388274D01*
X9223D01*
Y386827D01*
X7389D01*
Y387978D01*
X2211D01*
Y383392D01*
X7389D01*
Y384543D01*
X9223D01*
Y383097D01*
X14006D01*
Y384543D01*
X14657D01*
X24458Y374742D01*
Y339300D01*
X24545Y338863D01*
X24792Y338492D01*
X27662Y335623D01*
X28033Y335375D01*
X28470Y335288D01*
X28858D01*
Y331373D01*
X17943Y320458D01*
X17695Y320087D01*
X17608Y319650D01*
Y312830D01*
X17318Y312589D01*
X17151Y312630D01*
X16835Y312820D01*
Y323697D01*
X20314Y327176D01*
X20953Y327303D01*
X21549Y327701D01*
X21947Y328297D01*
X22086Y329000D01*
X21947Y329703D01*
X21585Y330244D01*
Y346100D01*
Y370750D01*
X21483Y371261D01*
X21194Y371694D01*
X14006Y378882D01*
Y381974D01*
X9223D01*
Y376797D01*
X12315D01*
X18915Y370197D01*
Y347435D01*
X16953D01*
X14764Y349624D01*
Y351027D01*
X15821D01*
Y356204D01*
X11038D01*
Y351027D01*
X12094D01*
Y349071D01*
X12196Y348560D01*
X12485Y348127D01*
X15456Y345156D01*
X15889Y344867D01*
X16400Y344765D01*
X18915D01*
Y330244D01*
X18553Y329703D01*
X18426Y329064D01*
X14556Y325194D01*
X14267Y324761D01*
X14165Y324250D01*
Y302711D01*
X12912D01*
Y298124D01*
X18089D01*
Y299130D01*
X19967D01*
Y296597D01*
X20531D01*
Y291300D01*
X0D01*
Y393800D01*
X256000Y393800D01*
D02*
G37*
G36*
X177643Y375660D02*
Y372772D01*
X171948D01*
Y373585D01*
X171877Y373942D01*
X171796Y374063D01*
X171675Y374245D01*
X170660Y375260D01*
X170357Y375462D01*
X170000Y375533D01*
X167600D01*
X167243Y375462D01*
X166940Y375260D01*
X166418Y374738D01*
X166216Y374435D01*
X166145Y374078D01*
Y372772D01*
X162418D01*
Y374921D01*
X164061Y376564D01*
X176739D01*
X177643Y375660D01*
D02*
G37*
G36*
X212701Y352662D02*
Y349983D01*
X212201Y349934D01*
X212132Y350280D01*
X211690Y350940D01*
X211030Y351382D01*
X210250Y351537D01*
X210125Y351512D01*
X208944Y352694D01*
X208511Y352983D01*
X208000Y353085D01*
X193982D01*
Y353551D01*
X187821D01*
Y353085D01*
X186879D01*
X186525Y353438D01*
X186525Y354142D01*
X187012Y354175D01*
X196089D01*
Y353709D01*
X202250D01*
Y354175D01*
X211187D01*
X212701Y352662D01*
D02*
G37*
G36*
X165853Y366308D02*
X158623Y359077D01*
X158431Y358789D01*
X158363Y358450D01*
Y357710D01*
X158317Y357478D01*
Y352494D01*
X157893Y352210D01*
X157541Y352280D01*
X157351Y352369D01*
X157240Y352928D01*
X156714Y353714D01*
X155928Y354240D01*
X155500Y354325D01*
Y352000D01*
Y349675D01*
X155928Y349760D01*
X156714Y350286D01*
X156772Y350371D01*
X157302Y350265D01*
X157368Y349935D01*
X157810Y349274D01*
X158470Y348833D01*
X159238Y348680D01*
X159276Y348625D01*
X159478Y348213D01*
X158652Y347387D01*
X158543Y347223D01*
X157963Y347009D01*
X157780Y347132D01*
X157000Y347287D01*
X156220Y347132D01*
X155560Y346690D01*
X155118Y346030D01*
X154963Y345250D01*
X154988Y345125D01*
X154436Y344573D01*
X154146Y344140D01*
X154045Y343629D01*
Y341418D01*
X153119D01*
X152608Y341317D01*
X152175Y341027D01*
X151484Y340335D01*
X151194Y339902D01*
X151093Y339392D01*
X151193Y338887D01*
Y338705D01*
X150693Y338505D01*
X149996Y339202D01*
Y342338D01*
X145410D01*
Y337161D01*
X148500D01*
X148743Y336861D01*
X148540Y336396D01*
X144746D01*
X144471Y336782D01*
X144471Y336896D01*
Y339250D01*
X141797D01*
X139124D01*
Y336896D01*
X139124Y336782D01*
X138848Y336396D01*
X137250D01*
X136434Y337211D01*
Y343489D01*
X137111Y344165D01*
X149989D01*
X150060Y344060D01*
X150720Y343618D01*
X151500Y343463D01*
X152280Y343618D01*
X152940Y344060D01*
X153382Y344720D01*
X153537Y345500D01*
X153382Y346280D01*
X152940Y346940D01*
X152280Y347382D01*
X152199Y347398D01*
X149636Y349961D01*
Y357639D01*
X152803Y360806D01*
X158143D01*
X158845Y360946D01*
X159441Y361344D01*
X161881Y363783D01*
X162279Y364379D01*
X162418Y365082D01*
Y366808D01*
X165646D01*
X165853Y366308D01*
D02*
G37*
G36*
X181545Y343453D02*
X182701D01*
Y341547D01*
X181545D01*
Y340490D01*
X181356D01*
X180845Y340389D01*
X180412Y340099D01*
X178656Y338344D01*
X178367Y337911D01*
X178265Y337400D01*
Y329127D01*
X177765Y328920D01*
X174517Y332168D01*
X174084Y332458D01*
X173573Y332559D01*
X173069Y332459D01*
X170673D01*
X170346Y332959D01*
X170393Y333193D01*
X170346Y333427D01*
X170347Y333431D01*
X170695Y333845D01*
X170731Y333863D01*
X170912Y333827D01*
X171422Y333928D01*
X171855Y334218D01*
X174694Y337056D01*
X174983Y337489D01*
X175085Y338000D01*
Y343890D01*
X175585Y344157D01*
X175876Y343962D01*
X176656Y343807D01*
X177435Y343962D01*
X178096Y344404D01*
X178167Y344510D01*
X181545D01*
Y343453D01*
D02*
G37*
G36*
X189543Y293392D02*
X190269Y292907D01*
X191126Y292737D01*
X192786D01*
Y292681D01*
X197962D01*
Y292737D01*
X202329D01*
X202329Y292737D01*
X203185Y292907D01*
X203584Y293173D01*
X205705D01*
X206016Y292802D01*
Y291761D01*
X197605Y283351D01*
X197326Y283500D01*
X195300D01*
Y281545D01*
X195517Y281208D01*
X195360Y280972D01*
X195266Y280500D01*
Y273750D01*
X195360Y273278D01*
X195627Y272877D01*
X196627Y271877D01*
X197028Y271610D01*
X197500Y271516D01*
X198207D01*
X198573Y271191D01*
Y269510D01*
X202329D01*
Y269010D01*
X202829D01*
Y266829D01*
X205614D01*
Y264779D01*
X203323Y262488D01*
X181461D01*
X181275Y262988D01*
X186644Y268356D01*
X186933Y268789D01*
X187035Y269300D01*
Y291800D01*
X186933Y292311D01*
X186644Y292744D01*
X182087Y297300D01*
X182279Y297762D01*
X185173D01*
X189543Y293392D01*
D02*
G37*
G36*
X95736Y315331D02*
X95901Y314788D01*
X63977Y282865D01*
X63688Y282432D01*
X63586Y281921D01*
Y278687D01*
X62529D01*
Y278687D01*
X62313D01*
Y278687D01*
X61256D01*
Y280868D01*
X95721Y315334D01*
X95736Y315331D01*
D02*
G37*
G36*
X144992Y231693D02*
X145363Y231445D01*
X145800Y231358D01*
X147330D01*
X147380Y230858D01*
X147113Y230805D01*
X146742Y230557D01*
X143864Y227679D01*
X143390Y227912D01*
X143482Y228613D01*
X143332Y229754D01*
X142892Y230817D01*
X142192Y231730D01*
X141279Y232430D01*
X140216Y232870D01*
X139075Y233021D01*
X137934Y232870D01*
X136871Y232430D01*
X135958Y231730D01*
X135258Y230817D01*
X134817Y229754D01*
X134667Y228613D01*
X134817Y227472D01*
X135258Y226409D01*
X135958Y225496D01*
X136871Y224796D01*
X137934Y224355D01*
X139075Y224205D01*
X139775Y224297D01*
X140009Y223824D01*
X116577Y200392D01*
X102223D01*
X101063Y201552D01*
Y202290D01*
X101416Y202644D01*
X102313Y202644D01*
X102813Y202644D01*
X107029D01*
X107313Y202644D01*
X107812Y202644D01*
X112312D01*
Y211758D01*
X107812D01*
X107529Y211758D01*
X107029Y211758D01*
X102813D01*
X102529Y211758D01*
X102029Y211758D01*
X97529D01*
Y211758D01*
X97312D01*
Y211758D01*
X96776D01*
X96585Y212220D01*
X97473Y213108D01*
X125300D01*
X125737Y213195D01*
X126108Y213442D01*
X131208Y218543D01*
X131455Y218913D01*
X131542Y219350D01*
Y228327D01*
X136773Y233558D01*
X143127D01*
X144992Y231693D01*
D02*
G37*
G36*
X103966Y263125D02*
Y225311D01*
X103467Y224813D01*
X103007Y225059D01*
X103035Y225200D01*
Y262847D01*
X103504Y263316D01*
X103966Y263125D01*
D02*
G37*
G36*
X84219Y220797D02*
X84220Y220765D01*
X79048Y215594D01*
X78781Y215193D01*
X78687Y214721D01*
Y212111D01*
X78333Y211758D01*
X77529Y211758D01*
X77029Y211758D01*
X76063D01*
Y213818D01*
X76219Y213922D01*
X76617Y214518D01*
X76757Y215221D01*
X76617Y215924D01*
X76219Y216519D01*
X75624Y216917D01*
X74921Y217057D01*
X74218Y216917D01*
X73622Y216519D01*
X73224Y215924D01*
X73084Y215221D01*
X73224Y214518D01*
X73622Y213922D01*
X73779Y213818D01*
Y212111D01*
X73425Y211758D01*
X72529Y211758D01*
X72029Y211758D01*
X67813D01*
X67529Y211758D01*
X67029Y211758D01*
X66255D01*
Y212468D01*
X75053Y221265D01*
X84065D01*
X84219Y220797D01*
D02*
G37*
G36*
X48586Y259776D02*
Y211758D01*
X47692D01*
Y212138D01*
X45421D01*
Y207201D01*
X44421D01*
Y212138D01*
X43100D01*
X43100Y264609D01*
X43562Y264801D01*
X48586Y259776D01*
D02*
G37*
G36*
X98779Y201079D02*
X98866Y200642D01*
X99113Y200272D01*
X100943Y198442D01*
X101313Y198195D01*
X101750Y198108D01*
X116886D01*
X117104Y197678D01*
X117110Y197625D01*
X113927Y194442D01*
X78373D01*
X76700Y196115D01*
X76736Y196300D01*
X76597Y197003D01*
X76199Y197599D01*
X75810Y197858D01*
X75962Y198358D01*
X87000D01*
X87437Y198445D01*
X87808Y198693D01*
X90728Y201613D01*
X90976Y201984D01*
X91063Y202421D01*
X91286Y202644D01*
X92313Y202644D01*
X92813Y202644D01*
X97312D01*
Y202644D01*
X97529D01*
Y202644D01*
X98779D01*
Y201079D01*
D02*
G37*
G36*
X48586Y198541D02*
Y197053D01*
X47628D01*
Y191876D01*
X48586D01*
Y190053D01*
X47628D01*
Y184876D01*
X48586D01*
Y183100D01*
X43100D01*
Y184496D01*
X43515D01*
Y187464D01*
Y190433D01*
X43100D01*
Y191496D01*
X43515D01*
Y194465D01*
X44015D01*
Y194965D01*
X46689D01*
Y197433D01*
X47048Y197773D01*
X47814Y198286D01*
X48086Y198692D01*
X48586Y198541D01*
D02*
G37*
G36*
X111013Y144100D02*
X109247Y142335D01*
X72600D01*
X72089Y142233D01*
X71656Y141944D01*
X62595Y132882D01*
X62405Y133028D01*
X61914Y133231D01*
Y140921D01*
X61812Y141432D01*
X61523Y141865D01*
X59249Y144138D01*
X59441Y144600D01*
X63779D01*
X64015Y144159D01*
X63860Y143928D01*
X63775Y143500D01*
X68425D01*
X68340Y143928D01*
X68186Y144159D01*
X68421Y144600D01*
X110805D01*
X111013Y144100D01*
D02*
G37*
%LPC*%
G36*
X153523Y393191D02*
Y388400D01*
X156017D01*
Y390262D01*
X155915Y391037D01*
X155616Y391759D01*
X155140Y392379D01*
X154520Y392855D01*
X153798Y393154D01*
X153523Y393191D01*
D02*
G37*
G36*
X187539Y393191D02*
Y388400D01*
X190033D01*
Y390262D01*
X189931Y391037D01*
X189632Y391759D01*
X189156Y392379D01*
X188536Y392855D01*
X187814Y393154D01*
X187539Y393191D01*
D02*
G37*
G36*
X186539Y393191D02*
X186264Y393154D01*
X185542Y392855D01*
X184922Y392379D01*
X184446Y391759D01*
X184147Y391037D01*
X184045Y390262D01*
Y388400D01*
X186539D01*
Y393191D01*
D02*
G37*
G36*
X152523Y393191D02*
X152248Y393154D01*
X151526Y392855D01*
X150906Y392379D01*
X150430Y391759D01*
X150131Y391037D01*
X150029Y390262D01*
Y388400D01*
X152523D01*
Y393191D01*
D02*
G37*
G36*
X30148Y388274D02*
X25364D01*
Y383097D01*
X30148D01*
Y388274D01*
D02*
G37*
G36*
X136573Y388274D02*
X131790D01*
Y387020D01*
X128785D01*
X128274Y386918D01*
X127841Y386629D01*
X124156Y382944D01*
X123867Y382511D01*
X123765Y382000D01*
Y370200D01*
X123788Y370085D01*
X123471Y369699D01*
X121114D01*
X120603Y369597D01*
X120170Y369308D01*
X114447Y363585D01*
X72450D01*
X71939Y363483D01*
X71506Y363194D01*
X62456Y354144D01*
X62167Y353711D01*
X62065Y353200D01*
Y342553D01*
X53722Y334210D01*
X45125D01*
X44614Y334108D01*
X44181Y333819D01*
X41556Y331194D01*
X41267Y330761D01*
X41165Y330250D01*
Y321011D01*
X41060Y320940D01*
X40618Y320280D01*
X40463Y319500D01*
X40618Y318720D01*
X41060Y318060D01*
X41720Y317618D01*
X42500Y317463D01*
X43280Y317618D01*
X43940Y318060D01*
X44382Y318720D01*
X44537Y319500D01*
X44382Y320280D01*
X43940Y320940D01*
X43835Y321011D01*
Y329697D01*
X45678Y331540D01*
X54275D01*
X54786Y331642D01*
X55219Y331931D01*
X64344Y341056D01*
X64633Y341489D01*
X64735Y342000D01*
Y352647D01*
X73003Y360915D01*
X115000D01*
X115511Y361017D01*
X115944Y361306D01*
X121667Y367030D01*
X131353D01*
X131424Y366924D01*
X132085Y366482D01*
X132864Y366327D01*
X133644Y366482D01*
X134305Y366924D01*
X134746Y367585D01*
X134901Y368364D01*
X134746Y369144D01*
X134305Y369805D01*
X133644Y370246D01*
X132864Y370401D01*
X132085Y370246D01*
X131424Y369805D01*
X131353Y369699D01*
X127489D01*
X126435Y370753D01*
Y381447D01*
X129338Y384350D01*
X131790D01*
Y383097D01*
X136573D01*
Y388274D01*
D02*
G37*
G36*
X120431D02*
X115648D01*
Y383097D01*
X120431D01*
Y388274D01*
D02*
G37*
G36*
X156017Y387400D02*
X153523D01*
Y382610D01*
X153798Y382646D01*
X154520Y382945D01*
X155140Y383421D01*
X155616Y384041D01*
X155915Y384763D01*
X156017Y385538D01*
Y387400D01*
D02*
G37*
G36*
X186539D02*
X184045D01*
Y385538D01*
X184147Y384763D01*
X184446Y384041D01*
X184922Y383421D01*
X185542Y382945D01*
X186264Y382646D01*
X186539Y382610D01*
Y387400D01*
D02*
G37*
G36*
X190033D02*
X187539D01*
Y382610D01*
X187814Y382646D01*
X188536Y382945D01*
X189156Y383421D01*
X189632Y384041D01*
X189931Y384763D01*
X190033Y385538D01*
Y387400D01*
D02*
G37*
G36*
X152523D02*
X150029D01*
Y385538D01*
X150131Y384763D01*
X150430Y384041D01*
X150906Y383421D01*
X151526Y382945D01*
X152248Y382646D01*
X152523Y382610D01*
Y387400D01*
D02*
G37*
G36*
X99079Y390778D02*
X97761Y390604D01*
X96532Y390095D01*
X95478Y389286D01*
X94668Y388231D01*
X94160Y387003D01*
X93986Y385685D01*
X94160Y384367D01*
X94668Y383139D01*
X95478Y382084D01*
X96532Y381275D01*
X97761Y380766D01*
X99079Y380592D01*
X100397Y380766D01*
X101625Y381275D01*
X102680Y382084D01*
X103489Y383139D01*
X103998Y384367D01*
X104171Y385685D01*
X103998Y387003D01*
X103489Y388231D01*
X102680Y389286D01*
X101625Y390095D01*
X100397Y390604D01*
X99079Y390778D01*
D02*
G37*
G36*
X46716D02*
X45399Y390604D01*
X44170Y390095D01*
X43115Y389286D01*
X42306Y388231D01*
X41797Y387003D01*
X41624Y385685D01*
X41797Y384367D01*
X42306Y383139D01*
X43115Y382084D01*
X44170Y381275D01*
X45399Y380766D01*
X46716Y380592D01*
X48035Y380766D01*
X49263Y381275D01*
X50318Y382084D01*
X51127Y383139D01*
X51636Y384367D01*
X51809Y385685D01*
X51636Y387003D01*
X51127Y388231D01*
X50318Y389286D01*
X49263Y390095D01*
X48035Y390604D01*
X46716Y390778D01*
D02*
G37*
G36*
X36770Y382551D02*
X34400D01*
Y380280D01*
X36770D01*
Y382551D01*
D02*
G37*
G36*
X33400D02*
X31030D01*
Y380280D01*
X33400D01*
Y382551D01*
D02*
G37*
G36*
X7768Y382453D02*
X5300D01*
Y380280D01*
X7768D01*
Y382453D01*
D02*
G37*
G36*
X4300D02*
X1832D01*
Y380280D01*
X4300D01*
Y382453D01*
D02*
G37*
G36*
X136953Y382354D02*
X134681D01*
Y379886D01*
X136953D01*
Y382354D01*
D02*
G37*
G36*
X133681D02*
X131410D01*
Y379886D01*
X133681D01*
Y382354D01*
D02*
G37*
G36*
X7768Y379280D02*
X5300D01*
Y377106D01*
X7768D01*
Y379280D01*
D02*
G37*
G36*
X4300D02*
X1832D01*
Y377106D01*
X4300D01*
Y379280D01*
D02*
G37*
G36*
X36770D02*
X34400D01*
Y377008D01*
X36770D01*
Y379280D01*
D02*
G37*
G36*
X33400D02*
X31030D01*
Y377008D01*
X33400D01*
Y379280D01*
D02*
G37*
G36*
X252043Y391469D02*
X244503D01*
Y376843D01*
X252043D01*
Y391469D01*
D02*
G37*
G36*
X225271D02*
X217731D01*
Y376843D01*
X225271D01*
Y391469D01*
D02*
G37*
G36*
X120431Y381974D02*
X115648D01*
Y376797D01*
X120431D01*
Y381974D01*
D02*
G37*
G36*
X136953Y378886D02*
X134681D01*
Y376417D01*
X136953D01*
Y378886D01*
D02*
G37*
G36*
X133681D02*
X131410D01*
Y376417D01*
X133681D01*
Y378886D01*
D02*
G37*
G36*
X187539Y376655D02*
Y372652D01*
X190033D01*
Y373727D01*
X189931Y374502D01*
X189632Y375224D01*
X189156Y375844D01*
X188536Y376320D01*
X187814Y376619D01*
X187539Y376655D01*
D02*
G37*
G36*
X152523Y376655D02*
X152248Y376619D01*
X151526Y376320D01*
X150906Y375844D01*
X150430Y375224D01*
X150131Y374502D01*
X150029Y373727D01*
Y372652D01*
X152523D01*
Y376655D01*
D02*
G37*
G36*
X190033Y371652D02*
X187539D01*
Y367649D01*
X187814Y367685D01*
X188536Y367984D01*
X189156Y368460D01*
X189632Y369080D01*
X189931Y369802D01*
X190033Y370577D01*
Y371652D01*
D02*
G37*
G36*
X186539Y376655D02*
X186264Y376619D01*
X185542Y376320D01*
X184922Y375844D01*
X184446Y375224D01*
X184147Y374502D01*
X184045Y373727D01*
Y373152D01*
X183129D01*
Y369790D01*
Y366428D01*
X184810D01*
Y367916D01*
X185310Y368162D01*
X185542Y367984D01*
X186264Y367685D01*
X186539Y367649D01*
Y372152D01*
Y376655D01*
D02*
G37*
G36*
X152523Y371652D02*
X150029D01*
Y370577D01*
X150131Y369802D01*
X150430Y369080D01*
X150906Y368460D01*
X151526Y367984D01*
X152248Y367685D01*
X152523Y367649D01*
Y371652D01*
D02*
G37*
G36*
X153523Y376655D02*
Y372152D01*
X153023D01*
D01*
X153523D01*
Y367649D01*
X153798Y367685D01*
X154520Y367984D01*
X154751Y368162D01*
X155251Y367915D01*
Y366428D01*
X156932D01*
Y369790D01*
Y373152D01*
X156017D01*
Y373727D01*
X155915Y374502D01*
X155616Y375224D01*
X155140Y375844D01*
X154520Y376320D01*
X153798Y376619D01*
X153523Y376655D01*
D02*
G37*
G36*
X241792Y373738D02*
X239324D01*
Y364183D01*
X241792D01*
Y373738D01*
D02*
G37*
G36*
X238324D02*
X235856D01*
Y364183D01*
X238324D01*
Y373738D01*
D02*
G37*
G36*
X15821Y362503D02*
X11038D01*
Y361456D01*
X10798Y361323D01*
X10537Y361253D01*
X10003Y361611D01*
X9300Y361751D01*
X8597Y361611D01*
X8002Y361213D01*
X7959Y361149D01*
X7389D01*
Y362207D01*
X2211D01*
Y357621D01*
X7389D01*
Y358680D01*
X7959D01*
X8002Y358616D01*
X8597Y358218D01*
X9300Y358078D01*
X10003Y358218D01*
X10537Y358575D01*
X10798Y358505D01*
X11038Y358373D01*
Y357326D01*
X15821D01*
Y362503D01*
D02*
G37*
G36*
X174900Y360424D02*
X174549Y360355D01*
X174000Y359988D01*
X173451Y360355D01*
X173100Y360424D01*
Y358300D01*
Y356176D01*
X173451Y356245D01*
X174000Y356612D01*
X174549Y356245D01*
X174900Y356176D01*
Y358300D01*
Y360424D01*
D02*
G37*
G36*
X172100D02*
X171749Y360355D01*
X171200Y359988D01*
X170651Y360355D01*
X170300Y360424D01*
Y358300D01*
Y356176D01*
X170651Y356245D01*
X171200Y356612D01*
X171749Y356245D01*
X172100Y356176D01*
Y358300D01*
Y360424D01*
D02*
G37*
G36*
X178700D02*
Y358800D01*
X180324D01*
X180254Y359151D01*
X179772Y359873D01*
X179051Y360355D01*
X178700Y360424D01*
D02*
G37*
G36*
X31900Y368036D02*
X31197Y367897D01*
X30602Y367498D01*
X30203Y366903D01*
X30064Y366200D01*
X30203Y365497D01*
X30602Y364901D01*
X31197Y364503D01*
X31900Y364364D01*
X32603Y364503D01*
X33111Y364843D01*
X35187Y362768D01*
X34995Y362306D01*
X34810D01*
Y357523D01*
X39790D01*
Y362306D01*
X38534D01*
Y362400D01*
X38440Y362872D01*
X38173Y363273D01*
X34373Y367073D01*
X33972Y367340D01*
X33500Y367434D01*
X33241D01*
X33198Y367498D01*
X32603Y367897D01*
X31900Y368036D01*
D02*
G37*
G36*
X40170Y356780D02*
X37800D01*
Y354509D01*
X40170D01*
Y356780D01*
D02*
G37*
G36*
X36800D02*
X34430D01*
Y354509D01*
X36800D01*
Y356780D01*
D02*
G37*
G36*
X7768Y356682D02*
X5300D01*
Y354509D01*
X7768D01*
Y356682D01*
D02*
G37*
G36*
X4300D02*
X1832D01*
Y354509D01*
X4300D01*
Y356682D01*
D02*
G37*
G36*
X140800Y355725D02*
Y353900D01*
X142625D01*
X142540Y354328D01*
X142014Y355114D01*
X141228Y355640D01*
X140800Y355725D01*
D02*
G37*
G36*
X139800D02*
X139372Y355640D01*
X138586Y355114D01*
X138060Y354328D01*
X137975Y353900D01*
X139800D01*
Y355725D01*
D02*
G37*
G36*
X241792Y363183D02*
X239324D01*
Y353628D01*
X241792D01*
Y363183D01*
D02*
G37*
G36*
X238324D02*
X235856D01*
Y353628D01*
X238324D01*
Y363183D01*
D02*
G37*
G36*
X7768Y353509D02*
X5300D01*
Y351335D01*
X7768D01*
Y353509D01*
D02*
G37*
G36*
X4300D02*
X1832D01*
Y351335D01*
X4300D01*
Y353509D01*
D02*
G37*
G36*
X40170D02*
X37800D01*
Y351237D01*
X40170D01*
Y353509D01*
D02*
G37*
G36*
X36800D02*
X34430D01*
Y351237D01*
X36800D01*
Y353509D01*
D02*
G37*
G36*
X142625Y352900D02*
X140800D01*
Y351075D01*
X141228Y351160D01*
X142014Y351686D01*
X142540Y352472D01*
X142625Y352900D01*
D02*
G37*
G36*
X139800D02*
X137975D01*
X138060Y352472D01*
X138586Y351686D01*
X139372Y351160D01*
X139800Y351075D01*
Y352900D01*
D02*
G37*
G36*
X101600Y349324D02*
Y347700D01*
X103224D01*
X103155Y348051D01*
X102673Y348773D01*
X101951Y349255D01*
X101600Y349324D01*
D02*
G37*
G36*
X100600D02*
X100249Y349255D01*
X99528Y348773D01*
X99045Y348051D01*
X98976Y347700D01*
X100600D01*
Y349324D01*
D02*
G37*
G36*
X103224Y346700D02*
X98976D01*
X99045Y346349D01*
X99479Y345700D01*
X99045Y345051D01*
X98976Y344700D01*
X103224D01*
X103155Y345051D01*
X102721Y345700D01*
X103155Y346349D01*
X103224Y346700D01*
D02*
G37*
G36*
X72898Y354855D02*
X71503Y354671D01*
X70202Y354133D01*
X69086Y353276D01*
X68229Y352160D01*
X67691Y350860D01*
X67507Y349465D01*
X67691Y348069D01*
X68229Y346769D01*
X69086Y345653D01*
X70202Y344796D01*
X71503Y344258D01*
X72898Y344074D01*
X74293Y344258D01*
X75593Y344796D01*
X76709Y345653D01*
X77566Y346769D01*
X78105Y348069D01*
X78288Y349465D01*
X78105Y350860D01*
X77566Y352160D01*
X76709Y353276D01*
X75593Y354133D01*
X74293Y354671D01*
X72898Y354855D01*
D02*
G37*
G36*
X54000D02*
X52605Y354671D01*
X51305Y354133D01*
X50188Y353276D01*
X49332Y352160D01*
X48793Y350860D01*
X48610Y349465D01*
X48793Y348069D01*
X49332Y346769D01*
X50188Y345653D01*
X51305Y344796D01*
X52605Y344258D01*
X54000Y344074D01*
X55395Y344258D01*
X56695Y344796D01*
X57812Y345653D01*
X58668Y346769D01*
X59207Y348069D01*
X59390Y349465D01*
X59207Y350860D01*
X58668Y352160D01*
X57812Y353276D01*
X56695Y354133D01*
X55395Y354671D01*
X54000Y354855D01*
D02*
G37*
G36*
X103224Y343700D02*
X98976D01*
X99045Y343349D01*
X99479Y342700D01*
X99045Y342051D01*
X98976Y341700D01*
X103224D01*
X103155Y342051D01*
X102721Y342700D01*
X103155Y343349D01*
X103224Y343700D01*
D02*
G37*
G36*
Y340700D02*
X98976D01*
X99045Y340349D01*
X99512Y339650D01*
X99045Y338951D01*
X98976Y338600D01*
X103224D01*
X103155Y338951D01*
X102688Y339650D01*
X103155Y340349D01*
X103224Y340700D01*
D02*
G37*
G36*
X39750Y341287D02*
X38970Y341132D01*
X38310Y340690D01*
X37868Y340030D01*
X37713Y339250D01*
X37868Y338470D01*
X38310Y337810D01*
X38970Y337368D01*
X39750Y337213D01*
X40530Y337368D01*
X41190Y337810D01*
X41632Y338470D01*
X41787Y339250D01*
X41632Y340030D01*
X41190Y340690D01*
X40530Y341132D01*
X39750Y341287D01*
D02*
G37*
G36*
X103224Y337600D02*
X98976D01*
X99045Y337249D01*
X99512Y336550D01*
X99045Y335851D01*
X98976Y335500D01*
X103224D01*
X103155Y335851D01*
X102688Y336550D01*
X103155Y337249D01*
X103224Y337600D01*
D02*
G37*
G36*
X189750Y344287D02*
X188970Y344132D01*
X188310Y343690D01*
X187868Y343030D01*
X187713Y342250D01*
X187868Y341470D01*
X188310Y340810D01*
X188970Y340368D01*
X189750Y340213D01*
X190067Y339810D01*
Y335051D01*
X188321D01*
Y334585D01*
X186525D01*
Y335642D01*
X181545D01*
Y330858D01*
X186525D01*
Y331915D01*
X188321D01*
Y331449D01*
X194165D01*
Y327221D01*
X193720Y327132D01*
X193060Y326690D01*
X192618Y326030D01*
X192463Y325250D01*
X192618Y324470D01*
X193060Y323810D01*
X193720Y323368D01*
X194500Y323213D01*
X195280Y323368D01*
X195940Y323810D01*
X196382Y324470D01*
X196537Y325250D01*
X196507Y325401D01*
X196733Y325739D01*
X196835Y326250D01*
Y327689D01*
X202750D01*
Y328155D01*
X208490D01*
X209001Y328257D01*
X209434Y328547D01*
X214979Y334092D01*
X215268Y334525D01*
X215370Y335035D01*
Y336764D01*
X216526D01*
Y341547D01*
X211545D01*
Y336764D01*
X212701D01*
Y335588D01*
X207937Y330825D01*
X202750D01*
Y331291D01*
X196835D01*
Y334697D01*
X197346Y335209D01*
X202750D01*
Y335675D01*
X204890D01*
X205400Y335777D01*
X205833Y336066D01*
X206531Y336764D01*
X209525D01*
Y341547D01*
X204545D01*
Y338553D01*
X204337Y338345D01*
X202750D01*
Y338811D01*
X196589D01*
Y338136D01*
X196316Y337953D01*
X194556Y336194D01*
X194267Y335761D01*
X194165Y335250D01*
Y335051D01*
X192736D01*
Y340598D01*
X192635Y341109D01*
X192345Y341542D01*
X191762Y342125D01*
X191787Y342250D01*
X191632Y343030D01*
X191190Y343690D01*
X190530Y344132D01*
X189750Y344287D01*
D02*
G37*
G36*
X103224Y334500D02*
X98976D01*
X99045Y334149D01*
X99479Y333500D01*
X99045Y332851D01*
X98976Y332500D01*
X103224D01*
X103155Y332851D01*
X102721Y333500D01*
X103155Y334149D01*
X103224Y334500D01*
D02*
G37*
G36*
Y331500D02*
X98976D01*
X99045Y331149D01*
X99479Y330500D01*
X99045Y329851D01*
X98976Y329500D01*
X103224D01*
X103155Y329851D01*
X102721Y330500D01*
X103155Y331149D01*
X103224Y331500D01*
D02*
G37*
G36*
Y328500D02*
X98976D01*
X99045Y328149D01*
X99528Y327428D01*
X99345Y326948D01*
X98945Y326351D01*
X98876Y326000D01*
X103124D01*
X103054Y326351D01*
X102573Y327073D01*
X102755Y327552D01*
X103155Y328149D01*
X103224Y328500D01*
D02*
G37*
G36*
X243347Y327455D02*
X240406D01*
Y324750D01*
X243347D01*
Y327455D01*
D02*
G37*
G36*
X239405D02*
X236465D01*
Y324750D01*
X239405D01*
Y327455D01*
D02*
G37*
G36*
X103124Y325000D02*
X101500D01*
Y323376D01*
X101851Y323445D01*
X102573Y323927D01*
X103054Y324649D01*
X103124Y325000D01*
D02*
G37*
G36*
X100500D02*
X98876D01*
X98945Y324649D01*
X99427Y323927D01*
X100149Y323445D01*
X100500Y323376D01*
Y325000D01*
D02*
G37*
G36*
X243347Y323750D02*
X240406D01*
Y321045D01*
X243347D01*
Y323750D01*
D02*
G37*
G36*
X239405D02*
X236465D01*
Y321045D01*
X239405D01*
Y323750D01*
D02*
G37*
G36*
X190267Y315779D02*
X187012D01*
Y313409D01*
X190267D01*
Y315779D01*
D02*
G37*
G36*
X186012D02*
X182756D01*
Y313409D01*
X186012D01*
Y315779D01*
D02*
G37*
G36*
X251814Y316276D02*
X245063D01*
Y315020D01*
X240869D01*
X240397Y314927D01*
X239996Y314659D01*
X238896Y313559D01*
X235760D01*
Y308776D01*
X240740D01*
Y311912D01*
X241380Y312552D01*
X245063D01*
Y311296D01*
X251814D01*
Y316276D01*
D02*
G37*
G36*
X33866Y312835D02*
X31594D01*
Y310465D01*
X33866D01*
Y312835D01*
D02*
G37*
G36*
X30594D02*
X28323D01*
Y310465D01*
X30594D01*
Y312835D01*
D02*
G37*
G36*
X232937Y315399D02*
X226186D01*
Y314143D01*
X209409D01*
X208936Y314049D01*
X208536Y313781D01*
X207362Y312607D01*
X207094Y312207D01*
X207000Y311734D01*
Y311205D01*
X205843D01*
Y306224D01*
X210626D01*
Y311205D01*
X210626D01*
X210699Y311674D01*
X215096D01*
X215145Y311175D01*
X214972Y311140D01*
X214186Y310614D01*
X213660Y309828D01*
X213575Y309400D01*
X218225D01*
X218140Y309828D01*
X217614Y310614D01*
X216828Y311140D01*
X216654Y311175D01*
X216704Y311674D01*
X226186D01*
Y310419D01*
X232937D01*
Y315399D01*
D02*
G37*
G36*
X190267Y312409D02*
X187012D01*
Y310039D01*
X190267D01*
Y312409D01*
D02*
G37*
G36*
X186012D02*
X182756D01*
Y310039D01*
X186012D01*
Y312409D01*
D02*
G37*
G36*
X33866Y309465D02*
X31594D01*
Y307095D01*
X33866D01*
Y309465D01*
D02*
G37*
G36*
X30594D02*
X28323D01*
Y307095D01*
X30594D01*
Y309465D01*
D02*
G37*
G36*
X252194Y309176D02*
X248938D01*
Y306806D01*
X252194D01*
Y309176D01*
D02*
G37*
G36*
X247938D02*
X244683D01*
Y306806D01*
X247938D01*
Y309176D01*
D02*
G37*
G36*
X189887Y307918D02*
X183136D01*
Y306596D01*
X180049D01*
Y307752D01*
X175266D01*
Y302772D01*
X180049D01*
Y303927D01*
X183136D01*
Y302938D01*
X189887D01*
Y307918D01*
D02*
G37*
G36*
X218225Y308400D02*
X216400D01*
Y306575D01*
X216828Y306660D01*
X217614Y307186D01*
X218140Y307972D01*
X218225Y308400D01*
D02*
G37*
G36*
X215400D02*
X213575D01*
X213660Y307972D01*
X214186Y307186D01*
X214972Y306660D01*
X215400Y306575D01*
Y308400D01*
D02*
G37*
G36*
X32413Y304713D02*
X30634D01*
Y303524D01*
X32413D01*
Y304713D01*
D02*
G37*
G36*
X252194Y305806D02*
X248938D01*
Y303436D01*
X252194D01*
Y305806D01*
D02*
G37*
G36*
X247938D02*
X244683D01*
Y303436D01*
X247938D01*
Y305806D01*
D02*
G37*
G36*
X103600Y300924D02*
X103249Y300855D01*
X102650Y300454D01*
X102051Y300855D01*
X101700Y300924D01*
Y298800D01*
Y296477D01*
X101877Y296300D01*
X106224D01*
X106155Y296651D01*
X105721Y297300D01*
X106155Y297949D01*
X106224Y298300D01*
X104100D01*
Y298800D01*
X103600D01*
Y300924D01*
D02*
G37*
G36*
X100700D02*
X100349Y300855D01*
X99700Y300421D01*
X99051Y300855D01*
X98700Y300924D01*
Y298800D01*
Y296676D01*
X99051Y296745D01*
X99700Y297179D01*
X100349Y296745D01*
X100700Y296676D01*
Y298800D01*
Y300924D01*
D02*
G37*
G36*
X97700D02*
X97349Y300855D01*
X96627Y300373D01*
X96595Y300324D01*
X95951Y300755D01*
X95600Y300824D01*
Y298700D01*
Y296576D01*
X95951Y296645D01*
X96672Y297128D01*
X96705Y297176D01*
X97349Y296745D01*
X97700Y296676D01*
Y298800D01*
Y300924D01*
D02*
G37*
G36*
X94600Y300824D02*
X94249Y300755D01*
X93600Y300321D01*
X92951Y300755D01*
X92600Y300824D01*
Y298700D01*
Y296576D01*
X92951Y296645D01*
X93600Y297079D01*
X94249Y296645D01*
X94600Y296576D01*
Y298700D01*
Y300824D01*
D02*
G37*
G36*
X91600D02*
X91249Y300755D01*
X90600Y300321D01*
X89951Y300755D01*
X89600Y300824D01*
Y298700D01*
Y296576D01*
X89951Y296645D01*
X90600Y297079D01*
X91249Y296645D01*
X91600Y296576D01*
Y298700D01*
Y300824D01*
D02*
G37*
G36*
X104600Y300924D02*
Y299300D01*
X106224D01*
X106155Y299651D01*
X105673Y300373D01*
X104951Y300855D01*
X104600Y300924D01*
D02*
G37*
G36*
X91795Y354855D02*
X90400Y354671D01*
X89100Y354133D01*
X87984Y353276D01*
X87127Y352160D01*
X86588Y350860D01*
X86405Y349465D01*
X86588Y348069D01*
X87127Y346769D01*
X87984Y345653D01*
X89100Y344796D01*
X89557Y344607D01*
Y323222D01*
X69538Y303202D01*
X69134D01*
X68278Y303032D01*
X67879Y302766D01*
X66053D01*
Y299164D01*
X67879D01*
X68278Y298897D01*
X69134Y298727D01*
X70465D01*
X71321Y298897D01*
X71720Y299164D01*
X72215D01*
Y299550D01*
X93378Y320713D01*
X93863Y321439D01*
X94033Y322295D01*
Y344607D01*
X94490Y344796D01*
X95607Y345653D01*
X96464Y346769D01*
X97002Y348069D01*
X97186Y349465D01*
X97002Y350860D01*
X96464Y352160D01*
X95607Y353276D01*
X94490Y354133D01*
X93190Y354671D01*
X91795Y354855D01*
D02*
G37*
G36*
X223120Y299081D02*
X220750D01*
Y296809D01*
X223120D01*
Y299081D01*
D02*
G37*
G36*
X219750D02*
X217380D01*
Y296809D01*
X219750D01*
Y299081D01*
D02*
G37*
G36*
X29165Y304811D02*
X26500D01*
Y300465D01*
Y296118D01*
X29165D01*
Y296597D01*
X30005D01*
X30134Y296571D01*
X30263Y296597D01*
X32033D01*
Y299130D01*
X34411D01*
Y298124D01*
X39588D01*
Y299083D01*
X40780D01*
X42653Y297210D01*
X43086Y296920D01*
X43597Y296819D01*
X45675D01*
Y295093D01*
X51325D01*
Y296819D01*
X54544D01*
X55102Y296261D01*
X55534Y295972D01*
X56045Y295870D01*
X57785D01*
Y295404D01*
X63947D01*
Y299006D01*
X57785D01*
Y298539D01*
X56598D01*
X56040Y299097D01*
X55607Y299387D01*
X55097Y299488D01*
X51325D01*
Y301215D01*
X45675D01*
Y299488D01*
X44149D01*
X42276Y301361D01*
X41843Y301650D01*
X41333Y301752D01*
X39588D01*
Y302711D01*
X34411D01*
Y301799D01*
X32413D01*
Y302524D01*
X30134D01*
Y303024D01*
X29634D01*
Y304713D01*
X29165D01*
Y304811D01*
D02*
G37*
G36*
X39968Y297185D02*
X37500D01*
Y295012D01*
X39968D01*
Y297185D01*
D02*
G37*
G36*
X36500D02*
X34032D01*
Y295012D01*
X36500D01*
Y297185D01*
D02*
G37*
G36*
X18469D02*
X16000D01*
Y295012D01*
X18469D01*
Y297185D01*
D02*
G37*
G36*
X15000D02*
X12531D01*
Y295012D01*
X15000D01*
Y297185D01*
D02*
G37*
G36*
X106224Y295300D02*
X101976D01*
X102046Y294949D01*
X102479Y294300D01*
X102046Y293651D01*
X101976Y293300D01*
X106224D01*
X106155Y293651D01*
X105721Y294300D01*
X106155Y294949D01*
X106224Y295300D01*
D02*
G37*
G36*
X88124Y295100D02*
X83876D01*
X83946Y294749D01*
X84379Y294100D01*
X83946Y293451D01*
X83876Y293100D01*
X88124D01*
X88055Y293451D01*
X87621Y294100D01*
X88055Y294749D01*
X88124Y295100D01*
D02*
G37*
G36*
X39968Y294012D02*
X37500D01*
Y291839D01*
X39968D01*
Y294012D01*
D02*
G37*
G36*
X36500D02*
X34032D01*
Y291839D01*
X36500D01*
Y294012D01*
D02*
G37*
G36*
X18469D02*
X16000D01*
Y291839D01*
X18469D01*
Y294012D01*
D02*
G37*
G36*
X15000D02*
X12531D01*
Y291839D01*
X15000D01*
Y294012D01*
D02*
G37*
G36*
X106224Y292300D02*
X101976D01*
X102046Y291949D01*
X102479Y291300D01*
X102046Y290651D01*
X101976Y290300D01*
X106224D01*
X106155Y290651D01*
X105721Y291300D01*
X106155Y291949D01*
X106224Y292300D01*
D02*
G37*
G36*
X88124Y292100D02*
X83876D01*
X83946Y291749D01*
X84379Y291100D01*
X83946Y290451D01*
X83876Y290100D01*
X88124D01*
X88055Y290451D01*
X87621Y291100D01*
X88055Y291749D01*
X88124Y292100D01*
D02*
G37*
G36*
X106224Y289300D02*
X101976D01*
X102046Y288949D01*
X102527Y288228D01*
X102576Y288195D01*
X102146Y287551D01*
X102076Y287200D01*
X106324D01*
X106254Y287551D01*
X105772Y288273D01*
X105724Y288305D01*
X106155Y288949D01*
X106224Y289300D01*
D02*
G37*
G36*
X88124Y289100D02*
X83876D01*
X83946Y288749D01*
X84379Y288100D01*
X83946Y287451D01*
X83876Y287100D01*
X88124D01*
X88055Y287451D01*
X87621Y288100D01*
X88055Y288749D01*
X88124Y289100D01*
D02*
G37*
G36*
X100700Y285824D02*
X100349Y285755D01*
X99700Y285321D01*
X99051Y285755D01*
X98700Y285824D01*
Y283700D01*
Y281576D01*
X99051Y281645D01*
X99700Y282079D01*
X100349Y281645D01*
X100700Y281576D01*
Y283700D01*
Y285824D01*
D02*
G37*
G36*
X97700D02*
X97349Y285755D01*
X96700Y285321D01*
X96051Y285755D01*
X95700Y285824D01*
Y283700D01*
Y281576D01*
X96051Y281645D01*
X96700Y282079D01*
X97349Y281645D01*
X97700Y281576D01*
Y283700D01*
Y285824D01*
D02*
G37*
G36*
X94700D02*
X94349Y285755D01*
X93700Y285321D01*
X93051Y285755D01*
X92700Y285824D01*
Y283700D01*
Y281576D01*
X93051Y281645D01*
X93700Y282079D01*
X94349Y281645D01*
X94700Y281576D01*
Y283700D01*
Y285824D01*
D02*
G37*
G36*
X91700D02*
X91349Y285755D01*
X90700Y285321D01*
X90051Y285755D01*
X89700Y285824D01*
Y283700D01*
Y281576D01*
X90051Y281645D01*
X90700Y282079D01*
X91349Y281645D01*
X91700Y281576D01*
Y283700D01*
Y285824D01*
D02*
G37*
G36*
X220876Y286500D02*
X218703D01*
Y284032D01*
X220876D01*
Y286500D01*
D02*
G37*
G36*
X217703D02*
X215529D01*
Y284032D01*
X217703D01*
Y286500D01*
D02*
G37*
G36*
X106324Y283200D02*
X104700D01*
Y281576D01*
X105051Y281645D01*
X105772Y282127D01*
X106254Y282849D01*
X106324Y283200D01*
D02*
G37*
G36*
Y286200D02*
X102001D01*
X101700Y285899D01*
Y283700D01*
Y281576D01*
X102051Y281645D01*
X102700Y282079D01*
X103349Y281645D01*
X103700Y281576D01*
Y283700D01*
X104200D01*
Y284200D01*
X106324D01*
X106254Y284551D01*
X105821Y285200D01*
X106254Y285849D01*
X106324Y286200D01*
D02*
G37*
G36*
X88220Y286100D02*
X83876D01*
X83946Y285749D01*
X84412Y285050D01*
X83946Y284351D01*
X83876Y284000D01*
X86000D01*
Y283500D01*
X86500D01*
Y281376D01*
X86851Y281445D01*
X87572Y281927D01*
X87682Y282091D01*
X88349Y281645D01*
X88700Y281576D01*
Y283700D01*
Y285824D01*
X88574Y285799D01*
X88220Y286100D01*
D02*
G37*
G36*
X85500Y283000D02*
X83876D01*
X83946Y282649D01*
X84427Y281927D01*
X85149Y281445D01*
X85500Y281376D01*
Y283000D01*
D02*
G37*
G36*
X170041Y287947D02*
X166439D01*
Y281785D01*
X166905D01*
Y280755D01*
X166656D01*
Y279599D01*
X165215D01*
Y280066D01*
X159053D01*
Y276464D01*
X165215D01*
Y276930D01*
X166656D01*
Y275775D01*
X171439D01*
Y280755D01*
X169575D01*
Y281785D01*
X170041D01*
Y287947D01*
D02*
G37*
G36*
X235626Y279459D02*
X233453D01*
Y276990D01*
X235626D01*
Y279459D01*
D02*
G37*
G36*
X232453D02*
X230279D01*
Y276990D01*
X232453D01*
Y279459D01*
D02*
G37*
G36*
X157327Y276686D02*
X154366D01*
Y275005D01*
X157327D01*
Y276686D01*
D02*
G37*
G36*
X153366D02*
X150406D01*
Y275005D01*
X153366D01*
Y276686D01*
D02*
G37*
G36*
X232453Y275990D02*
X230279D01*
Y273522D01*
X232453D01*
Y275990D01*
D02*
G37*
G36*
X156638Y267700D02*
X154366D01*
Y265330D01*
X156638D01*
Y267700D01*
D02*
G37*
G36*
X153366D02*
X151095D01*
Y265330D01*
X153366D01*
Y267700D01*
D02*
G37*
G36*
X122700Y261324D02*
Y259700D01*
X124324D01*
X124255Y260051D01*
X123773Y260772D01*
X123051Y261255D01*
X122700Y261324D01*
D02*
G37*
G36*
X121700D02*
X121349Y261255D01*
X120627Y260772D01*
X120145Y260051D01*
X120076Y259700D01*
X121700D01*
Y261324D01*
D02*
G37*
G36*
X141170Y259991D02*
X138800D01*
Y257719D01*
X141170D01*
Y259991D01*
D02*
G37*
G36*
X137800D02*
X135430D01*
Y257719D01*
X137800D01*
Y259991D01*
D02*
G37*
G36*
X124324Y258700D02*
X120076D01*
X120145Y258349D01*
X120627Y257628D01*
X120893Y257450D01*
Y256950D01*
X120627Y256772D01*
X120145Y256051D01*
X120076Y255700D01*
X124324D01*
X124255Y256051D01*
X123773Y256772D01*
X123507Y256950D01*
Y257450D01*
X123773Y257628D01*
X124255Y258349D01*
X124324Y258700D01*
D02*
G37*
G36*
X141170Y256719D02*
X138800D01*
Y254447D01*
X141170D01*
Y256719D01*
D02*
G37*
G36*
X137800D02*
X135430D01*
Y254447D01*
X137800D01*
Y256719D01*
D02*
G37*
G36*
X250300Y255224D02*
Y253600D01*
X251924D01*
X251855Y253951D01*
X251373Y254673D01*
X250651Y255155D01*
X250300Y255224D01*
D02*
G37*
G36*
X249300D02*
X248949Y255155D01*
X248228Y254673D01*
X247745Y253951D01*
X247676Y253600D01*
X249300D01*
Y255224D01*
D02*
G37*
G36*
X244400D02*
Y253600D01*
X246024D01*
X245955Y253951D01*
X245473Y254673D01*
X244751Y255155D01*
X244400Y255224D01*
D02*
G37*
G36*
X243400D02*
X243049Y255155D01*
X242327Y254673D01*
X241845Y253951D01*
X241776Y253600D01*
X243400D01*
Y255224D01*
D02*
G37*
G36*
X238500D02*
Y253600D01*
X240124D01*
X240055Y253951D01*
X239573Y254673D01*
X238851Y255155D01*
X238500Y255224D01*
D02*
G37*
G36*
X237500D02*
X237149Y255155D01*
X236427Y254673D01*
X235945Y253951D01*
X235876Y253600D01*
X237500D01*
Y255224D01*
D02*
G37*
G36*
X232700D02*
Y253600D01*
X234324D01*
X234255Y253951D01*
X233772Y254673D01*
X233051Y255155D01*
X232700Y255224D01*
D02*
G37*
G36*
X231700D02*
X231349Y255155D01*
X230627Y254673D01*
X230145Y253951D01*
X230076Y253600D01*
X231700D01*
Y255224D01*
D02*
G37*
G36*
X226800D02*
Y253600D01*
X228424D01*
X228355Y253951D01*
X227872Y254673D01*
X227151Y255155D01*
X226800Y255224D01*
D02*
G37*
G36*
X225800D02*
X225449Y255155D01*
X224728Y254673D01*
X224245Y253951D01*
X224176Y253600D01*
X225800D01*
Y255224D01*
D02*
G37*
G36*
X220800D02*
Y253600D01*
X222424D01*
X222355Y253951D01*
X221872Y254673D01*
X221151Y255155D01*
X220800Y255224D01*
D02*
G37*
G36*
X219800D02*
X219449Y255155D01*
X218727Y254673D01*
X218245Y253951D01*
X218176Y253600D01*
X219800D01*
Y255224D01*
D02*
G37*
G36*
X214900D02*
Y253600D01*
X216524D01*
X216455Y253951D01*
X215972Y254673D01*
X215251Y255155D01*
X214900Y255224D01*
D02*
G37*
G36*
X213900D02*
X213549Y255155D01*
X212827Y254673D01*
X212345Y253951D01*
X212276Y253600D01*
X213900D01*
Y255224D01*
D02*
G37*
G36*
X209000D02*
Y253600D01*
X210624D01*
X210555Y253951D01*
X210072Y254673D01*
X209351Y255155D01*
X209000Y255224D01*
D02*
G37*
G36*
X208000D02*
X207649Y255155D01*
X206927Y254673D01*
X206445Y253951D01*
X206376Y253600D01*
X208000D01*
Y255224D01*
D02*
G37*
G36*
X203000D02*
Y253600D01*
X204624D01*
X204555Y253951D01*
X204072Y254673D01*
X203351Y255155D01*
X203000Y255224D01*
D02*
G37*
G36*
X202000D02*
X201649Y255155D01*
X200927Y254673D01*
X200446Y253951D01*
X200376Y253600D01*
X202000D01*
Y255224D01*
D02*
G37*
G36*
X197000D02*
Y253600D01*
X198624D01*
X198555Y253951D01*
X198073Y254673D01*
X197351Y255155D01*
X197000Y255224D01*
D02*
G37*
G36*
X196000D02*
X195649Y255155D01*
X194928Y254673D01*
X194446Y253951D01*
X194376Y253600D01*
X196000D01*
Y255224D01*
D02*
G37*
G36*
X191100D02*
Y253600D01*
X192724D01*
X192655Y253951D01*
X192173Y254673D01*
X191451Y255155D01*
X191100Y255224D01*
D02*
G37*
G36*
X190100D02*
X189749Y255155D01*
X189028Y254673D01*
X188546Y253951D01*
X188476Y253600D01*
X190100D01*
Y255224D01*
D02*
G37*
G36*
X185200D02*
Y253600D01*
X186824D01*
X186755Y253951D01*
X186273Y254673D01*
X185551Y255155D01*
X185200Y255224D01*
D02*
G37*
G36*
X184200D02*
X183849Y255155D01*
X183127Y254673D01*
X182645Y253951D01*
X182576Y253600D01*
X184200D01*
Y255224D01*
D02*
G37*
G36*
X179200D02*
Y253600D01*
X180824D01*
X180754Y253951D01*
X180272Y254673D01*
X179551Y255155D01*
X179200Y255224D01*
D02*
G37*
G36*
X178200D02*
X177849Y255155D01*
X177128Y254673D01*
X176646Y253951D01*
X176576Y253600D01*
X178200D01*
Y255224D01*
D02*
G37*
G36*
X173300D02*
Y253600D01*
X174924D01*
X174855Y253951D01*
X174372Y254673D01*
X173651Y255155D01*
X173300Y255224D01*
D02*
G37*
G36*
X172300D02*
X171949Y255155D01*
X171228Y254673D01*
X170746Y253951D01*
X170676Y253600D01*
X172300D01*
Y255224D01*
D02*
G37*
G36*
X167400D02*
Y253600D01*
X169024D01*
X168955Y253951D01*
X168473Y254673D01*
X167751Y255155D01*
X167400Y255224D01*
D02*
G37*
G36*
X166400D02*
X166049Y255155D01*
X165328Y254673D01*
X164846Y253951D01*
X164776Y253600D01*
X166400D01*
Y255224D01*
D02*
G37*
G36*
X124324Y254700D02*
X120076D01*
X120145Y254349D01*
X120627Y253627D01*
X120893Y253450D01*
Y252950D01*
X120627Y252772D01*
X120145Y252051D01*
X120076Y251700D01*
X124324D01*
X124255Y252051D01*
X123773Y252772D01*
X123507Y252950D01*
Y253450D01*
X123773Y253627D01*
X124255Y254349D01*
X124324Y254700D01*
D02*
G37*
G36*
X251924Y252600D02*
X250300D01*
Y250976D01*
X250651Y251045D01*
X251373Y251528D01*
X251855Y252249D01*
X251924Y252600D01*
D02*
G37*
G36*
X249300D02*
X247676D01*
X247745Y252249D01*
X248228Y251528D01*
X248949Y251045D01*
X249300Y250976D01*
Y252600D01*
D02*
G37*
G36*
X246024D02*
X244400D01*
Y250976D01*
X244751Y251045D01*
X245473Y251528D01*
X245955Y252249D01*
X246024Y252600D01*
D02*
G37*
G36*
X243400D02*
X241776D01*
X241845Y252249D01*
X242327Y251528D01*
X243049Y251045D01*
X243400Y250976D01*
Y252600D01*
D02*
G37*
G36*
X240124D02*
X238500D01*
Y250976D01*
X238851Y251045D01*
X239573Y251528D01*
X240055Y252249D01*
X240124Y252600D01*
D02*
G37*
G36*
X237500D02*
X235876D01*
X235945Y252249D01*
X236427Y251528D01*
X237149Y251045D01*
X237500Y250976D01*
Y252600D01*
D02*
G37*
G36*
X234324D02*
X232700D01*
Y250976D01*
X233051Y251045D01*
X233772Y251528D01*
X234255Y252249D01*
X234324Y252600D01*
D02*
G37*
G36*
X231700D02*
X230076D01*
X230145Y252249D01*
X230627Y251528D01*
X231349Y251045D01*
X231700Y250976D01*
Y252600D01*
D02*
G37*
G36*
X228424D02*
X226800D01*
Y250976D01*
X227151Y251045D01*
X227872Y251528D01*
X228355Y252249D01*
X228424Y252600D01*
D02*
G37*
G36*
X225800D02*
X224176D01*
X224245Y252249D01*
X224728Y251528D01*
X225449Y251045D01*
X225800Y250976D01*
Y252600D01*
D02*
G37*
G36*
X222424D02*
X220800D01*
Y250976D01*
X221151Y251045D01*
X221872Y251528D01*
X222355Y252249D01*
X222424Y252600D01*
D02*
G37*
G36*
X219800D02*
X218176D01*
X218245Y252249D01*
X218727Y251528D01*
X219449Y251045D01*
X219800Y250976D01*
Y252600D01*
D02*
G37*
G36*
X216524D02*
X214900D01*
Y250976D01*
X215251Y251045D01*
X215972Y251528D01*
X216455Y252249D01*
X216524Y252600D01*
D02*
G37*
G36*
X213900D02*
X212276D01*
X212345Y252249D01*
X212827Y251528D01*
X213549Y251045D01*
X213900Y250976D01*
Y252600D01*
D02*
G37*
G36*
X210624D02*
X209000D01*
Y250976D01*
X209351Y251045D01*
X210072Y251528D01*
X210555Y252249D01*
X210624Y252600D01*
D02*
G37*
G36*
X208000D02*
X206376D01*
X206445Y252249D01*
X206927Y251528D01*
X207649Y251045D01*
X208000Y250976D01*
Y252600D01*
D02*
G37*
G36*
X204624D02*
X203000D01*
Y250976D01*
X203351Y251045D01*
X204072Y251528D01*
X204555Y252249D01*
X204624Y252600D01*
D02*
G37*
G36*
X202000D02*
X200376D01*
X200446Y252249D01*
X200927Y251528D01*
X201649Y251045D01*
X202000Y250976D01*
Y252600D01*
D02*
G37*
G36*
X198624D02*
X197000D01*
Y250976D01*
X197351Y251045D01*
X198073Y251528D01*
X198555Y252249D01*
X198624Y252600D01*
D02*
G37*
G36*
X196000D02*
X194376D01*
X194446Y252249D01*
X194928Y251528D01*
X195649Y251045D01*
X196000Y250976D01*
Y252600D01*
D02*
G37*
G36*
X192724D02*
X191100D01*
Y250976D01*
X191451Y251045D01*
X192173Y251528D01*
X192655Y252249D01*
X192724Y252600D01*
D02*
G37*
G36*
X190100D02*
X188476D01*
X188546Y252249D01*
X189028Y251528D01*
X189749Y251045D01*
X190100Y250976D01*
Y252600D01*
D02*
G37*
G36*
X186824D02*
X185200D01*
Y250976D01*
X185551Y251045D01*
X186273Y251528D01*
X186755Y252249D01*
X186824Y252600D01*
D02*
G37*
G36*
X184200D02*
X182576D01*
X182645Y252249D01*
X183127Y251528D01*
X183849Y251045D01*
X184200Y250976D01*
Y252600D01*
D02*
G37*
G36*
X180824D02*
X179200D01*
Y250976D01*
X179551Y251045D01*
X180272Y251528D01*
X180754Y252249D01*
X180824Y252600D01*
D02*
G37*
G36*
X178200D02*
X176576D01*
X176646Y252249D01*
X177128Y251528D01*
X177849Y251045D01*
X178200Y250976D01*
Y252600D01*
D02*
G37*
G36*
X174924D02*
X173300D01*
Y250976D01*
X173651Y251045D01*
X174372Y251528D01*
X174855Y252249D01*
X174924Y252600D01*
D02*
G37*
G36*
X172300D02*
X170676D01*
X170746Y252249D01*
X171228Y251528D01*
X171949Y251045D01*
X172300Y250976D01*
Y252600D01*
D02*
G37*
G36*
X169024D02*
X167400D01*
Y250976D01*
X167751Y251045D01*
X168473Y251528D01*
X168955Y252249D01*
X169024Y252600D01*
D02*
G37*
G36*
X166400D02*
X164776D01*
X164846Y252249D01*
X165328Y251528D01*
X166049Y251045D01*
X166400Y250976D01*
Y252600D01*
D02*
G37*
G36*
X190150Y249905D02*
X188400D01*
Y249525D01*
X183451D01*
Y249905D01*
X181701D01*
Y244755D01*
Y239605D01*
X183451D01*
Y239985D01*
X188400D01*
Y239605D01*
X190150D01*
Y244755D01*
Y249905D01*
D02*
G37*
G36*
X177551D02*
X175801D01*
Y249525D01*
X170852D01*
Y249905D01*
X169102D01*
Y244755D01*
Y239605D01*
X170852D01*
Y239985D01*
X175801D01*
Y239605D01*
X177551D01*
Y244755D01*
Y249905D01*
D02*
G37*
G36*
X124324Y250700D02*
X120076D01*
X120145Y250349D01*
X120627Y249627D01*
X120893Y249450D01*
Y248950D01*
X120627Y248773D01*
X120145Y248051D01*
X120076Y247700D01*
X124324D01*
X124255Y248051D01*
X123773Y248773D01*
X123507Y248950D01*
Y249450D01*
X123773Y249627D01*
X124255Y250349D01*
X124324Y250700D01*
D02*
G37*
G36*
X212197Y249905D02*
X210447D01*
Y245255D01*
X212197D01*
Y249905D01*
D02*
G37*
G36*
X66862Y247433D02*
X63744D01*
Y244315D01*
X66862D01*
Y247433D01*
D02*
G37*
G36*
X85153D02*
X82035D01*
Y244315D01*
X85153D01*
Y247433D01*
D02*
G37*
G36*
X81035D02*
X74948D01*
Y243815D01*
X73948D01*
Y247433D01*
X67862D01*
Y243815D01*
X67362D01*
Y243315D01*
X63744D01*
Y240197D01*
Y237228D01*
X67362D01*
Y236228D01*
X63744D01*
Y233110D01*
Y230142D01*
X67362D01*
Y229642D01*
X67862D01*
Y226024D01*
X73948D01*
Y229642D01*
X74948D01*
Y226024D01*
X81035D01*
Y229642D01*
X81535D01*
Y230142D01*
X85153D01*
Y233110D01*
Y236228D01*
X81535D01*
Y237228D01*
X85153D01*
Y240197D01*
Y243315D01*
X81535D01*
Y243815D01*
X81035D01*
Y247433D01*
D02*
G37*
G36*
X124324Y246700D02*
X120076D01*
X120145Y246349D01*
X120627Y245627D01*
X120893Y245450D01*
Y244950D01*
X120627Y244773D01*
X120145Y244051D01*
X120076Y243700D01*
X124324D01*
X124255Y244051D01*
X123773Y244773D01*
X123507Y244950D01*
Y245450D01*
X123773Y245627D01*
X124255Y246349D01*
X124324Y246700D01*
D02*
G37*
G36*
Y242700D02*
X120076D01*
X120145Y242349D01*
X120627Y241628D01*
X120893Y241450D01*
Y240950D01*
X120627Y240773D01*
X120145Y240051D01*
X120076Y239700D01*
X124324D01*
X124255Y240051D01*
X123773Y240773D01*
X123507Y240950D01*
Y241450D01*
X123773Y241628D01*
X124255Y242349D01*
X124324Y242700D01*
D02*
G37*
G36*
X224396Y249905D02*
X222646D01*
Y244755D01*
Y239605D01*
X224396D01*
Y239985D01*
X236614D01*
Y249525D01*
X224396D01*
Y249905D01*
D02*
G37*
G36*
X212197Y244255D02*
X210447D01*
Y239605D01*
X212197D01*
Y244255D01*
D02*
G37*
G36*
X192900Y249905D02*
X191150D01*
Y244755D01*
Y239605D01*
X192900D01*
Y239985D01*
X198819D01*
Y249525D01*
X192900D01*
Y249905D01*
D02*
G37*
G36*
X180701D02*
X178551D01*
Y244755D01*
Y239605D01*
X180701D01*
Y244755D01*
Y249905D01*
D02*
G37*
G36*
X168102D02*
X165953D01*
Y244755D01*
Y239605D01*
X168102D01*
Y244755D01*
Y249905D01*
D02*
G37*
G36*
X155504D02*
X153754D01*
Y249525D01*
X141536D01*
Y239985D01*
X153754D01*
Y239605D01*
X155504D01*
Y244755D01*
Y249905D01*
D02*
G37*
G36*
X124324Y238700D02*
X120076D01*
X120145Y238349D01*
X120627Y237628D01*
X120893Y237450D01*
Y236950D01*
X120627Y236772D01*
X120145Y236051D01*
X120076Y235700D01*
X124324D01*
X124255Y236051D01*
X123773Y236772D01*
X123507Y236950D01*
Y237450D01*
X123773Y237628D01*
X124255Y238349D01*
X124324Y238700D01*
D02*
G37*
G36*
X251089Y249612D02*
X240249D01*
Y235173D01*
X251089D01*
Y249612D01*
D02*
G37*
G36*
X124324Y234700D02*
X120076D01*
X120145Y234349D01*
X120627Y233628D01*
X120968Y233400D01*
Y232900D01*
X120627Y232673D01*
X120145Y231951D01*
X120076Y231600D01*
X124324D01*
X124255Y231951D01*
X123773Y232673D01*
X123432Y232900D01*
Y233400D01*
X123773Y233628D01*
X124255Y234349D01*
X124324Y234700D01*
D02*
G37*
G36*
Y230600D02*
X120076D01*
X120145Y230249D01*
X120627Y229527D01*
X120968Y229300D01*
Y228800D01*
X120627Y228573D01*
X120145Y227851D01*
X120076Y227500D01*
X124324D01*
X124255Y227851D01*
X123773Y228573D01*
X123432Y228800D01*
Y229300D01*
X123773Y229527D01*
X124255Y230249D01*
X124324Y230600D01*
D02*
G37*
G36*
X85153Y229142D02*
X82035D01*
Y226024D01*
X85153D01*
Y229142D01*
D02*
G37*
G36*
X66862Y229142D02*
X63744D01*
Y226024D01*
X66862D01*
Y229142D01*
D02*
G37*
G36*
X124324Y226500D02*
X120076D01*
X120145Y226149D01*
X120627Y225428D01*
X120968Y225200D01*
Y224700D01*
X120627Y224472D01*
X120145Y223751D01*
X120076Y223400D01*
X124324D01*
X124255Y223751D01*
X123773Y224472D01*
X123432Y224700D01*
Y225200D01*
X123773Y225428D01*
X124255Y226149D01*
X124324Y226500D01*
D02*
G37*
G36*
X237500Y234030D02*
X236098Y233845D01*
X234792Y233304D01*
X233670Y232443D01*
X232809Y231321D01*
X232268Y230015D01*
X232084Y228613D01*
X232268Y227211D01*
X232809Y225905D01*
X233670Y224783D01*
X234792Y223922D01*
X236098Y223381D01*
X237500Y223197D01*
X238902Y223381D01*
X240208Y223922D01*
X241330Y224783D01*
X242191Y225905D01*
X242732Y227211D01*
X242916Y228613D01*
X242732Y230015D01*
X242191Y231321D01*
X241330Y232443D01*
X240208Y233304D01*
X238902Y233845D01*
X237500Y234030D01*
D02*
G37*
G36*
X124324Y222400D02*
X120076D01*
X120145Y222049D01*
X120627Y221327D01*
X120968Y221100D01*
Y220600D01*
X120627Y220373D01*
X120145Y219651D01*
X120076Y219300D01*
X124324D01*
X124255Y219651D01*
X123773Y220373D01*
X123432Y220600D01*
Y221100D01*
X123773Y221327D01*
X124255Y222049D01*
X124324Y222400D01*
D02*
G37*
G36*
X182276Y217621D02*
X180526D01*
Y217241D01*
X172427D01*
Y217621D01*
X170677D01*
Y212471D01*
Y207321D01*
X172427D01*
Y207701D01*
X180526D01*
Y207321D01*
X182276D01*
Y212471D01*
Y217621D01*
D02*
G37*
G36*
X169677D02*
X167927D01*
Y217241D01*
X162978D01*
Y217621D01*
X161228D01*
Y212471D01*
Y207321D01*
X162978D01*
Y207701D01*
X167927D01*
Y207321D01*
X169677D01*
Y212471D01*
Y217621D01*
D02*
G37*
G36*
X124324Y218300D02*
X122700D01*
Y216676D01*
X123051Y216745D01*
X123773Y217228D01*
X124255Y217949D01*
X124324Y218300D01*
D02*
G37*
G36*
X121700D02*
X120076D01*
X120145Y217949D01*
X120627Y217228D01*
X121349Y216745D01*
X121700Y216676D01*
Y218300D01*
D02*
G37*
G36*
X197624Y217621D02*
X195874D01*
Y212971D01*
X197624D01*
Y217621D01*
D02*
G37*
G36*
X229520D02*
X227770D01*
Y217241D01*
X209252D01*
Y207701D01*
X227770D01*
Y207321D01*
X229520D01*
Y212471D01*
Y217621D01*
D02*
G37*
G36*
X197624Y211971D02*
X195874D01*
Y207321D01*
X197624D01*
Y211971D01*
D02*
G37*
G36*
X63594Y197433D02*
X61421D01*
Y194965D01*
X63594D01*
Y197433D01*
D02*
G37*
G36*
Y193965D02*
X61421D01*
Y191496D01*
X63594D01*
Y193965D01*
D02*
G37*
G36*
X60421D02*
X58248D01*
Y191496D01*
X60421D01*
Y193965D01*
D02*
G37*
G36*
X56525Y189400D02*
X54700D01*
Y187575D01*
X55128Y187660D01*
X55914Y188186D01*
X56440Y188972D01*
X56525Y189400D01*
D02*
G37*
G36*
X243500Y188824D02*
Y187200D01*
X245124D01*
X245055Y187551D01*
X244572Y188273D01*
X243851Y188754D01*
X243500Y188824D01*
D02*
G37*
G36*
X242500D02*
X242149Y188754D01*
X241427Y188273D01*
X240945Y187551D01*
X240876Y187200D01*
X242500D01*
Y188824D01*
D02*
G37*
G36*
X233000D02*
Y187200D01*
X234624D01*
X234555Y187551D01*
X234072Y188273D01*
X233351Y188754D01*
X233000Y188824D01*
D02*
G37*
G36*
X232000D02*
X231649Y188754D01*
X230927Y188273D01*
X230445Y187551D01*
X230376Y187200D01*
X232000D01*
Y188824D01*
D02*
G37*
G36*
X159400D02*
Y187200D01*
X161024D01*
X160954Y187551D01*
X160473Y188273D01*
X159751Y188754D01*
X159400Y188824D01*
D02*
G37*
G36*
X158400D02*
X158049Y188754D01*
X157327Y188273D01*
X156845Y187551D01*
X156776Y187200D01*
X158400D01*
Y188824D01*
D02*
G37*
G36*
X149900Y188324D02*
Y186700D01*
X151524D01*
X151454Y187051D01*
X150972Y187773D01*
X150251Y188254D01*
X149900Y188324D01*
D02*
G37*
G36*
X148900D02*
X148549Y188254D01*
X147827Y187773D01*
X147345Y187051D01*
X147276Y186700D01*
X148900D01*
Y188324D01*
D02*
G37*
G36*
X245124Y186200D02*
X243500D01*
Y184576D01*
X243851Y184645D01*
X244572Y185127D01*
X245055Y185849D01*
X245124Y186200D01*
D02*
G37*
G36*
X242500D02*
X240876D01*
X240945Y185849D01*
X241427Y185127D01*
X242149Y184645D01*
X242500Y184576D01*
Y186200D01*
D02*
G37*
G36*
X234624D02*
X233000D01*
Y184576D01*
X233351Y184645D01*
X234072Y185127D01*
X234555Y185849D01*
X234624Y186200D01*
D02*
G37*
G36*
X232000D02*
X230376D01*
X230445Y185849D01*
X230927Y185127D01*
X231649Y184645D01*
X232000Y184576D01*
Y186200D01*
D02*
G37*
G36*
X161024D02*
X159400D01*
Y184576D01*
X159751Y184645D01*
X160473Y185127D01*
X160954Y185849D01*
X161024Y186200D01*
D02*
G37*
G36*
X158400D02*
X156776D01*
X156845Y185849D01*
X157327Y185127D01*
X158049Y184645D01*
X158400Y184576D01*
Y186200D01*
D02*
G37*
G36*
X151524Y185700D02*
X149900D01*
Y184076D01*
X150251Y184145D01*
X150972Y184627D01*
X151454Y185349D01*
X151524Y185700D01*
D02*
G37*
G36*
X148900D02*
X147276D01*
X147345Y185349D01*
X147827Y184627D01*
X148549Y184145D01*
X148900Y184076D01*
Y185700D01*
D02*
G37*
G36*
X243500Y178324D02*
Y176700D01*
X245124D01*
X245055Y177051D01*
X244572Y177772D01*
X243851Y178254D01*
X243500Y178324D01*
D02*
G37*
G36*
X242500D02*
X242149Y178254D01*
X241427Y177772D01*
X240945Y177051D01*
X240876Y176700D01*
X242500D01*
Y178324D01*
D02*
G37*
G36*
X233000D02*
Y176700D01*
X234624D01*
X234555Y177051D01*
X234072Y177772D01*
X233351Y178254D01*
X233000Y178324D01*
D02*
G37*
G36*
X232000D02*
X231649Y178254D01*
X230927Y177772D01*
X230445Y177051D01*
X230376Y176700D01*
X232000D01*
Y178324D01*
D02*
G37*
G36*
X159700D02*
Y176700D01*
X161324D01*
X161255Y177051D01*
X160773Y177772D01*
X160051Y178254D01*
X159700Y178324D01*
D02*
G37*
G36*
X158700D02*
X158349Y178254D01*
X157627Y177772D01*
X157146Y177051D01*
X157076Y176700D01*
X158700D01*
Y178324D01*
D02*
G37*
G36*
X149700Y178024D02*
Y176400D01*
X151324D01*
X151254Y176751D01*
X150773Y177472D01*
X150051Y177954D01*
X149700Y178024D01*
D02*
G37*
G36*
X148700D02*
X148349Y177954D01*
X147627Y177472D01*
X147145Y176751D01*
X147076Y176400D01*
X148700D01*
Y178024D01*
D02*
G37*
G36*
X245124Y175700D02*
X243500D01*
Y174076D01*
X243851Y174145D01*
X244572Y174627D01*
X245055Y175349D01*
X245124Y175700D01*
D02*
G37*
G36*
X242500D02*
X240876D01*
X240945Y175349D01*
X241427Y174627D01*
X242149Y174145D01*
X242500Y174076D01*
Y175700D01*
D02*
G37*
G36*
X234624D02*
X233000D01*
Y174076D01*
X233351Y174145D01*
X234072Y174627D01*
X234555Y175349D01*
X234624Y175700D01*
D02*
G37*
G36*
X232000D02*
X230376D01*
X230445Y175349D01*
X230927Y174627D01*
X231649Y174145D01*
X232000Y174076D01*
Y175700D01*
D02*
G37*
G36*
X161324D02*
X159700D01*
Y174076D01*
X160051Y174145D01*
X160773Y174627D01*
X161255Y175349D01*
X161324Y175700D01*
D02*
G37*
G36*
X158700D02*
X157076D01*
X157146Y175349D01*
X157627Y174627D01*
X158349Y174145D01*
X158700Y174076D01*
Y175700D01*
D02*
G37*
G36*
X151324Y175400D02*
X149700D01*
Y173776D01*
X150051Y173846D01*
X150773Y174328D01*
X151254Y175049D01*
X151324Y175400D01*
D02*
G37*
G36*
X148700D02*
X147076D01*
X147145Y175049D01*
X147627Y174328D01*
X148349Y173846D01*
X148700Y173776D01*
Y175400D01*
D02*
G37*
G36*
X126200Y169225D02*
Y167400D01*
X128025D01*
X127940Y167828D01*
X127414Y168614D01*
X126628Y169140D01*
X126200Y169225D01*
D02*
G37*
G36*
X125200D02*
X124772Y169140D01*
X123986Y168614D01*
X123460Y167828D01*
X123375Y167400D01*
X125200D01*
Y169225D01*
D02*
G37*
G36*
X252800Y168625D02*
Y166800D01*
X254625D01*
X254540Y167228D01*
X254014Y168014D01*
X253228Y168540D01*
X252800Y168625D01*
D02*
G37*
G36*
X251800D02*
X251372Y168540D01*
X250586Y168014D01*
X250060Y167228D01*
X249975Y166800D01*
X251800D01*
Y168625D01*
D02*
G37*
G36*
X243700Y167724D02*
Y166100D01*
X245324D01*
X245255Y166451D01*
X244773Y167173D01*
X244051Y167655D01*
X243700Y167724D01*
D02*
G37*
G36*
X242700D02*
X242349Y167655D01*
X241628Y167173D01*
X241145Y166451D01*
X241076Y166100D01*
X242700D01*
Y167724D01*
D02*
G37*
G36*
X233200D02*
Y166100D01*
X234824D01*
X234755Y166451D01*
X234273Y167173D01*
X233551Y167655D01*
X233200Y167724D01*
D02*
G37*
G36*
X232200D02*
X231849Y167655D01*
X231128Y167173D01*
X230645Y166451D01*
X230576Y166100D01*
X232200D01*
Y167724D01*
D02*
G37*
G36*
X159700D02*
Y166100D01*
X161324D01*
X161255Y166451D01*
X160773Y167173D01*
X160051Y167655D01*
X159700Y167724D01*
D02*
G37*
G36*
X158700D02*
X158349Y167655D01*
X157627Y167173D01*
X157146Y166451D01*
X157076Y166100D01*
X158700D01*
Y167724D01*
D02*
G37*
G36*
X149700Y167524D02*
Y165900D01*
X151324D01*
X151254Y166251D01*
X150773Y166972D01*
X150051Y167455D01*
X149700Y167524D01*
D02*
G37*
G36*
X148700D02*
X148349Y167455D01*
X147627Y166972D01*
X147145Y166251D01*
X147076Y165900D01*
X148700D01*
Y167524D01*
D02*
G37*
G36*
X245324Y165100D02*
X243700D01*
Y163476D01*
X244051Y163546D01*
X244773Y164028D01*
X245255Y164749D01*
X245324Y165100D01*
D02*
G37*
G36*
X242700D02*
X241076D01*
X241145Y164749D01*
X241628Y164028D01*
X242349Y163546D01*
X242700Y163476D01*
Y165100D01*
D02*
G37*
G36*
X234824D02*
X233200D01*
Y163476D01*
X233551Y163546D01*
X234273Y164028D01*
X234755Y164749D01*
X234824Y165100D01*
D02*
G37*
G36*
X232200D02*
X230576D01*
X230645Y164749D01*
X231128Y164028D01*
X231849Y163546D01*
X232200Y163476D01*
Y165100D01*
D02*
G37*
G36*
X161324D02*
X159700D01*
Y163476D01*
X160051Y163546D01*
X160773Y164028D01*
X161255Y164749D01*
X161324Y165100D01*
D02*
G37*
G36*
X158700D02*
X157076D01*
X157146Y164749D01*
X157627Y164028D01*
X158349Y163546D01*
X158700Y163476D01*
Y165100D01*
D02*
G37*
G36*
X151324Y164900D02*
X149700D01*
Y163276D01*
X150051Y163346D01*
X150773Y163828D01*
X151254Y164549D01*
X151324Y164900D01*
D02*
G37*
G36*
X148700D02*
X147076D01*
X147145Y164549D01*
X147627Y163828D01*
X148349Y163346D01*
X148700Y163276D01*
Y164900D01*
D02*
G37*
G36*
X128025Y166400D02*
X123375D01*
X123460Y165972D01*
X123986Y165186D01*
X124338Y164950D01*
Y164450D01*
X123986Y164214D01*
X123460Y163428D01*
X123375Y163000D01*
X128025D01*
X127940Y163428D01*
X127414Y164214D01*
X127062Y164450D01*
Y164950D01*
X127414Y165186D01*
X127940Y165972D01*
X128025Y166400D01*
D02*
G37*
G36*
X254625Y165800D02*
X249975D01*
X250060Y165372D01*
X250586Y164586D01*
X250938Y164350D01*
Y163850D01*
X250586Y163614D01*
X250060Y162828D01*
X249975Y162400D01*
X254625D01*
X254540Y162828D01*
X254014Y163614D01*
X253662Y163850D01*
Y164350D01*
X254014Y164586D01*
X254540Y165372D01*
X254625Y165800D01*
D02*
G37*
G36*
X128025Y162000D02*
X123375D01*
X123460Y161572D01*
X123986Y160786D01*
X124338Y160550D01*
Y160050D01*
X123986Y159814D01*
X123460Y159028D01*
X123375Y158600D01*
X128025D01*
X127940Y159028D01*
X127414Y159814D01*
X127062Y160050D01*
Y160550D01*
X127414Y160786D01*
X127940Y161572D01*
X128025Y162000D01*
D02*
G37*
G36*
X254625Y161400D02*
X249975D01*
X250060Y160972D01*
X250586Y160186D01*
X250938Y159950D01*
Y159450D01*
X250586Y159214D01*
X250060Y158428D01*
X249975Y158000D01*
X254625D01*
X254540Y158428D01*
X254014Y159214D01*
X253662Y159450D01*
Y159950D01*
X254014Y160186D01*
X254540Y160972D01*
X254625Y161400D01*
D02*
G37*
G36*
X243700Y157224D02*
Y155600D01*
X245324D01*
X245255Y155951D01*
X244773Y156673D01*
X244051Y157155D01*
X243700Y157224D01*
D02*
G37*
G36*
X242700D02*
X242349Y157155D01*
X241628Y156673D01*
X241145Y155951D01*
X241076Y155600D01*
X242700D01*
Y157224D01*
D02*
G37*
G36*
X233200D02*
Y155600D01*
X234824D01*
X234755Y155951D01*
X234273Y156673D01*
X233551Y157155D01*
X233200Y157224D01*
D02*
G37*
G36*
X232200D02*
X231849Y157155D01*
X231128Y156673D01*
X230645Y155951D01*
X230576Y155600D01*
X232200D01*
Y157224D01*
D02*
G37*
G36*
X159700D02*
Y155600D01*
X161324D01*
X161255Y155951D01*
X160773Y156673D01*
X160051Y157155D01*
X159700Y157224D01*
D02*
G37*
G36*
X158700D02*
X158349Y157155D01*
X157627Y156673D01*
X157146Y155951D01*
X157076Y155600D01*
X158700D01*
Y157224D01*
D02*
G37*
G36*
X149700Y157024D02*
Y155400D01*
X151324D01*
X151254Y155751D01*
X150773Y156473D01*
X150051Y156955D01*
X149700Y157024D01*
D02*
G37*
G36*
X148700D02*
X148349Y156955D01*
X147627Y156473D01*
X147145Y155751D01*
X147076Y155400D01*
X148700D01*
Y157024D01*
D02*
G37*
G36*
X128025Y157600D02*
X123375D01*
X123460Y157172D01*
X123986Y156386D01*
X124338Y156150D01*
Y155650D01*
X123986Y155414D01*
X123460Y154628D01*
X123375Y154200D01*
X128025D01*
X127940Y154628D01*
X127414Y155414D01*
X127062Y155650D01*
Y156150D01*
X127414Y156386D01*
X127940Y157172D01*
X128025Y157600D01*
D02*
G37*
G36*
X254625Y157000D02*
X249975D01*
X250060Y156572D01*
X250586Y155786D01*
X250938Y155550D01*
Y155050D01*
X250586Y154814D01*
X250060Y154028D01*
X249975Y153600D01*
X254625D01*
X254540Y154028D01*
X254014Y154814D01*
X253662Y155050D01*
Y155550D01*
X254014Y155786D01*
X254540Y156572D01*
X254625Y157000D01*
D02*
G37*
G36*
X245324Y154600D02*
X243700D01*
Y152976D01*
X244051Y153045D01*
X244773Y153527D01*
X245255Y154249D01*
X245324Y154600D01*
D02*
G37*
G36*
X242700D02*
X241076D01*
X241145Y154249D01*
X241628Y153527D01*
X242349Y153045D01*
X242700Y152976D01*
Y154600D01*
D02*
G37*
G36*
X234824D02*
X233200D01*
Y152976D01*
X233551Y153045D01*
X234273Y153527D01*
X234755Y154249D01*
X234824Y154600D01*
D02*
G37*
G36*
X232200D02*
X230576D01*
X230645Y154249D01*
X231128Y153527D01*
X231849Y153045D01*
X232200Y152976D01*
Y154600D01*
D02*
G37*
G36*
X161324D02*
X159700D01*
Y152976D01*
X160051Y153045D01*
X160773Y153527D01*
X161255Y154249D01*
X161324Y154600D01*
D02*
G37*
G36*
X158700D02*
X157076D01*
X157146Y154249D01*
X157627Y153527D01*
X158349Y153045D01*
X158700Y152976D01*
Y154600D01*
D02*
G37*
G36*
X151324Y154400D02*
X149700D01*
Y152776D01*
X150051Y152846D01*
X150773Y153328D01*
X151254Y154049D01*
X151324Y154400D01*
D02*
G37*
G36*
X148700D02*
X147076D01*
X147145Y154049D01*
X147627Y153328D01*
X148349Y152846D01*
X148700Y152776D01*
Y154400D01*
D02*
G37*
G36*
X128025Y153200D02*
X123375D01*
X123460Y152772D01*
X123986Y151986D01*
X124337Y151751D01*
Y151149D01*
X123986Y150914D01*
X123460Y150128D01*
X123375Y149700D01*
X128025D01*
X127940Y150128D01*
X127414Y150914D01*
X127063Y151149D01*
Y151751D01*
X127414Y151986D01*
X127940Y152772D01*
X128025Y153200D01*
D02*
G37*
G36*
X254625Y152600D02*
X249975D01*
X250060Y152172D01*
X250586Y151386D01*
X250937Y151151D01*
Y150549D01*
X250586Y150314D01*
X250060Y149528D01*
X249975Y149100D01*
X254625D01*
X254540Y149528D01*
X254014Y150314D01*
X253663Y150549D01*
Y151151D01*
X254014Y151386D01*
X254540Y152172D01*
X254625Y152600D01*
D02*
G37*
G36*
X128025Y148700D02*
X123375D01*
X123460Y148272D01*
X123986Y147486D01*
X124337Y147251D01*
Y146649D01*
X123986Y146414D01*
X123460Y145628D01*
X123375Y145200D01*
X128025D01*
X127940Y145628D01*
X127414Y146414D01*
X127063Y146649D01*
Y147251D01*
X127414Y147486D01*
X127940Y148272D01*
X128025Y148700D01*
D02*
G37*
G36*
X243700Y146724D02*
Y145100D01*
X245324D01*
X245255Y145451D01*
X244773Y146172D01*
X244051Y146654D01*
X243700Y146724D01*
D02*
G37*
G36*
X242700D02*
X242349Y146654D01*
X241628Y146172D01*
X241145Y145451D01*
X241076Y145100D01*
X242700D01*
Y146724D01*
D02*
G37*
G36*
X233200D02*
Y145100D01*
X234824D01*
X234755Y145451D01*
X234273Y146172D01*
X233551Y146654D01*
X233200Y146724D01*
D02*
G37*
G36*
X232200D02*
X231849Y146654D01*
X231128Y146172D01*
X230645Y145451D01*
X230576Y145100D01*
X232200D01*
Y146724D01*
D02*
G37*
G36*
X159700D02*
Y145100D01*
X161324D01*
X161255Y145451D01*
X160773Y146172D01*
X160051Y146654D01*
X159700Y146724D01*
D02*
G37*
G36*
X158700D02*
X158349Y146654D01*
X157627Y146172D01*
X157146Y145451D01*
X157076Y145100D01*
X158700D01*
Y146724D01*
D02*
G37*
G36*
X149700Y146524D02*
Y144900D01*
X151324D01*
X151254Y145251D01*
X150773Y145973D01*
X150051Y146455D01*
X149700Y146524D01*
D02*
G37*
G36*
X148700D02*
X148349Y146455D01*
X147627Y145973D01*
X147145Y145251D01*
X147076Y144900D01*
X148700D01*
Y146524D01*
D02*
G37*
G36*
X254625Y148100D02*
X249975D01*
X250060Y147672D01*
X250586Y146886D01*
X250937Y146651D01*
Y146049D01*
X250586Y145814D01*
X250060Y145028D01*
X249975Y144600D01*
X254625D01*
X254540Y145028D01*
X254014Y145814D01*
X253663Y146049D01*
Y146651D01*
X254014Y146886D01*
X254540Y147672D01*
X254625Y148100D01*
D02*
G37*
G36*
X245324Y144100D02*
X243700D01*
Y142476D01*
X244051Y142545D01*
X244773Y143027D01*
X245255Y143749D01*
X245324Y144100D01*
D02*
G37*
G36*
X242700D02*
X241076D01*
X241145Y143749D01*
X241628Y143027D01*
X242349Y142545D01*
X242700Y142476D01*
Y144100D01*
D02*
G37*
G36*
X234824D02*
X233200D01*
Y142476D01*
X233551Y142545D01*
X234273Y143027D01*
X234755Y143749D01*
X234824Y144100D01*
D02*
G37*
G36*
X232200D02*
X230576D01*
X230645Y143749D01*
X231128Y143027D01*
X231849Y142545D01*
X232200Y142476D01*
Y144100D01*
D02*
G37*
G36*
X161324D02*
X159700D01*
Y142476D01*
X160051Y142545D01*
X160773Y143027D01*
X161255Y143749D01*
X161324Y144100D01*
D02*
G37*
G36*
X158700D02*
X157076D01*
X157146Y143749D01*
X157627Y143027D01*
X158349Y142545D01*
X158700Y142476D01*
Y144100D01*
D02*
G37*
G36*
X151324Y143900D02*
X149700D01*
Y142276D01*
X150051Y142345D01*
X150773Y142827D01*
X151254Y143549D01*
X151324Y143900D01*
D02*
G37*
G36*
X148700D02*
X147076D01*
X147145Y143549D01*
X147627Y142827D01*
X148349Y142345D01*
X148700Y142276D01*
Y143900D01*
D02*
G37*
G36*
X128025Y144200D02*
X123375D01*
X123460Y143772D01*
X123986Y142986D01*
X124337Y142751D01*
Y142149D01*
X123986Y141914D01*
X123460Y141128D01*
X123375Y140700D01*
X128025D01*
X127940Y141128D01*
X127414Y141914D01*
X127063Y142149D01*
Y142751D01*
X127414Y142986D01*
X127940Y143772D01*
X128025Y144200D01*
D02*
G37*
G36*
X254625Y143600D02*
X249975D01*
X250060Y143172D01*
X250586Y142386D01*
X250937Y142151D01*
Y141549D01*
X250586Y141314D01*
X250060Y140528D01*
X249975Y140100D01*
X254625D01*
X254540Y140528D01*
X254014Y141314D01*
X253663Y141549D01*
Y142151D01*
X254014Y142386D01*
X254540Y143172D01*
X254625Y143600D01*
D02*
G37*
G36*
X128025Y139700D02*
X123375D01*
X123460Y139272D01*
X123986Y138486D01*
X124337Y138251D01*
Y137649D01*
X123986Y137414D01*
X123460Y136628D01*
X123375Y136200D01*
X128025D01*
X127940Y136628D01*
X127414Y137414D01*
X127063Y137649D01*
Y138251D01*
X127414Y138486D01*
X127940Y139272D01*
X128025Y139700D01*
D02*
G37*
G36*
X254625Y139100D02*
X249975D01*
X250060Y138672D01*
X250586Y137886D01*
X250937Y137651D01*
Y137049D01*
X250586Y136814D01*
X250060Y136028D01*
X249975Y135600D01*
X254625D01*
X254540Y136028D01*
X254014Y136814D01*
X253663Y137049D01*
Y137651D01*
X254014Y137886D01*
X254540Y138672D01*
X254625Y139100D01*
D02*
G37*
G36*
X243700Y136224D02*
Y134600D01*
X245324D01*
X245255Y134951D01*
X244773Y135672D01*
X244051Y136154D01*
X243700Y136224D01*
D02*
G37*
G36*
X242700D02*
X242349Y136154D01*
X241628Y135672D01*
X241145Y134951D01*
X241076Y134600D01*
X242700D01*
Y136224D01*
D02*
G37*
G36*
X233200D02*
Y134600D01*
X234824D01*
X234755Y134951D01*
X234273Y135672D01*
X233551Y136154D01*
X233200Y136224D01*
D02*
G37*
G36*
X232200D02*
X231849Y136154D01*
X231128Y135672D01*
X230645Y134951D01*
X230576Y134600D01*
X232200D01*
Y136224D01*
D02*
G37*
G36*
X159700D02*
Y134600D01*
X161324D01*
X161255Y134951D01*
X160773Y135672D01*
X160051Y136154D01*
X159700Y136224D01*
D02*
G37*
G36*
X158700D02*
X158349Y136154D01*
X157627Y135672D01*
X157146Y134951D01*
X157076Y134600D01*
X158700D01*
Y136224D01*
D02*
G37*
G36*
X149700Y136024D02*
Y134400D01*
X151324D01*
X151254Y134751D01*
X150773Y135473D01*
X150051Y135954D01*
X149700Y136024D01*
D02*
G37*
G36*
X148700D02*
X148349Y135954D01*
X147627Y135473D01*
X147145Y134751D01*
X147076Y134400D01*
X148700D01*
Y136024D01*
D02*
G37*
G36*
X245324Y133600D02*
X243700D01*
Y131976D01*
X244051Y132045D01*
X244773Y132527D01*
X245255Y133249D01*
X245324Y133600D01*
D02*
G37*
G36*
X242700D02*
X241076D01*
X241145Y133249D01*
X241628Y132527D01*
X242349Y132045D01*
X242700Y131976D01*
Y133600D01*
D02*
G37*
G36*
X234824D02*
X233200D01*
Y131976D01*
X233551Y132045D01*
X234273Y132527D01*
X234755Y133249D01*
X234824Y133600D01*
D02*
G37*
G36*
X232200D02*
X230576D01*
X230645Y133249D01*
X231128Y132527D01*
X231849Y132045D01*
X232200Y131976D01*
Y133600D01*
D02*
G37*
G36*
X161324D02*
X159700D01*
Y131976D01*
X160051Y132045D01*
X160773Y132527D01*
X161255Y133249D01*
X161324Y133600D01*
D02*
G37*
G36*
X158700D02*
X157076D01*
X157146Y133249D01*
X157627Y132527D01*
X158349Y132045D01*
X158700Y131976D01*
Y133600D01*
D02*
G37*
G36*
X151324Y133400D02*
X149700D01*
Y131776D01*
X150051Y131845D01*
X150773Y132327D01*
X151254Y133049D01*
X151324Y133400D01*
D02*
G37*
G36*
X148700D02*
X147076D01*
X147145Y133049D01*
X147627Y132327D01*
X148349Y131845D01*
X148700Y131776D01*
Y133400D01*
D02*
G37*
G36*
X128025Y135200D02*
X123375D01*
X123460Y134772D01*
X123986Y133986D01*
X124337Y133751D01*
Y133149D01*
X123986Y132914D01*
X123460Y132128D01*
X123375Y131700D01*
X128025D01*
X127940Y132128D01*
X127414Y132914D01*
X127063Y133149D01*
Y133751D01*
X127414Y133986D01*
X127940Y134772D01*
X128025Y135200D01*
D02*
G37*
G36*
X254625Y134600D02*
X249975D01*
X250060Y134172D01*
X250586Y133386D01*
X250937Y133151D01*
Y132549D01*
X250586Y132314D01*
X250060Y131528D01*
X249975Y131100D01*
X254625D01*
X254540Y131528D01*
X254014Y132314D01*
X253663Y132549D01*
Y133151D01*
X254014Y133386D01*
X254540Y134172D01*
X254625Y134600D01*
D02*
G37*
G36*
X51079Y133834D02*
Y130366D01*
X54548D01*
X54476Y130910D01*
X54073Y131883D01*
X53432Y132719D01*
X52596Y133360D01*
X51623Y133763D01*
X51079Y133834D01*
D02*
G37*
G36*
X50079D02*
X49535Y133763D01*
X48562Y133360D01*
X47726Y132719D01*
X47085Y131883D01*
X46682Y130910D01*
X46610Y130366D01*
X50079D01*
Y133834D01*
D02*
G37*
G36*
X128025Y130700D02*
X123375D01*
X123460Y130272D01*
X123986Y129486D01*
X124337Y129251D01*
Y128649D01*
X123986Y128414D01*
X123460Y127628D01*
X123375Y127200D01*
X128025D01*
X127940Y127628D01*
X127414Y128414D01*
X127063Y128649D01*
Y129251D01*
X127414Y129486D01*
X127940Y130272D01*
X128025Y130700D01*
D02*
G37*
G36*
X80579Y133730D02*
X79634Y133605D01*
X78754Y133240D01*
X77997Y132660D01*
X77417Y131904D01*
X77052Y131023D01*
X76928Y130078D01*
X77052Y129133D01*
X77417Y128253D01*
X77997Y127497D01*
X78754Y126916D01*
X79634Y126551D01*
X80579Y126427D01*
X81524Y126551D01*
X82405Y126916D01*
X83161Y127497D01*
X83741Y128253D01*
X84106Y129133D01*
X84230Y130078D01*
X84106Y131023D01*
X83741Y131904D01*
X83161Y132660D01*
X82405Y133240D01*
X81524Y133605D01*
X80579Y133730D01*
D02*
G37*
G36*
X254625Y130100D02*
X249975D01*
X250060Y129672D01*
X250586Y128886D01*
X251196Y128478D01*
X251198Y128472D01*
Y127928D01*
X251196Y127922D01*
X250586Y127514D01*
X250060Y126728D01*
X249975Y126300D01*
X254625D01*
X254540Y126728D01*
X254014Y127514D01*
X253404Y127922D01*
X253402Y127928D01*
Y128472D01*
X253404Y128478D01*
X254014Y128886D01*
X254540Y129672D01*
X254625Y130100D01*
D02*
G37*
G36*
X70579Y133517D02*
X69634Y133393D01*
X68753Y133028D01*
X67997Y132448D01*
X67417Y131691D01*
X67052Y130811D01*
X66928Y129866D01*
X67052Y128921D01*
X67417Y128040D01*
X67997Y127284D01*
X68753Y126704D01*
X69634Y126339D01*
X70579Y126215D01*
X71524Y126339D01*
X72405Y126704D01*
X73161Y127284D01*
X73741Y128040D01*
X74106Y128921D01*
X74230Y129866D01*
X74106Y130811D01*
X73741Y131691D01*
X73161Y132448D01*
X72405Y133028D01*
X71524Y133393D01*
X70579Y133517D01*
D02*
G37*
G36*
X54548Y129366D02*
X51079D01*
Y125897D01*
X51623Y125969D01*
X52596Y126372D01*
X53432Y127013D01*
X54073Y127848D01*
X54476Y128822D01*
X54548Y129366D01*
D02*
G37*
G36*
X50079D02*
X46610D01*
X46682Y128822D01*
X47085Y127848D01*
X47726Y127013D01*
X48562Y126372D01*
X49535Y125969D01*
X50079Y125897D01*
Y129366D01*
D02*
G37*
G36*
X111839Y134132D02*
X110633Y133973D01*
X109509Y133508D01*
X108544Y132767D01*
X107803Y131802D01*
X107338Y130678D01*
X107179Y129472D01*
X107338Y128266D01*
X107803Y127142D01*
X108544Y126177D01*
X109509Y125436D01*
X110633Y124971D01*
X111839Y124812D01*
X113045Y124971D01*
X114169Y125436D01*
X115134Y126177D01*
X115875Y127142D01*
X116340Y128266D01*
X116499Y129472D01*
X116340Y130678D01*
X115875Y131802D01*
X115134Y132767D01*
X114169Y133508D01*
X113045Y133973D01*
X111839Y134132D01*
D02*
G37*
G36*
X19319D02*
X18113Y133973D01*
X16989Y133508D01*
X16024Y132767D01*
X15284Y131802D01*
X14818Y130678D01*
X14659Y129472D01*
X14818Y128266D01*
X15284Y127142D01*
X16024Y126177D01*
X16989Y125436D01*
X18113Y124971D01*
X19319Y124812D01*
X20525Y124971D01*
X21649Y125436D01*
X22614Y126177D01*
X23355Y127142D01*
X23820Y128266D01*
X23979Y129472D01*
X23820Y130678D01*
X23355Y131802D01*
X22614Y132767D01*
X21649Y133508D01*
X20525Y133973D01*
X19319Y134132D01*
D02*
G37*
G36*
X243700Y125724D02*
Y124100D01*
X245324D01*
X245255Y124451D01*
X244773Y125172D01*
X244051Y125654D01*
X243700Y125724D01*
D02*
G37*
G36*
X242700D02*
X242349Y125654D01*
X241628Y125172D01*
X241145Y124451D01*
X241076Y124100D01*
X242700D01*
Y125724D01*
D02*
G37*
G36*
X233200D02*
Y124100D01*
X234824D01*
X234755Y124451D01*
X234273Y125172D01*
X233551Y125654D01*
X233200Y125724D01*
D02*
G37*
G36*
X232200D02*
X231849Y125654D01*
X231128Y125172D01*
X230645Y124451D01*
X230576Y124100D01*
X232200D01*
Y125724D01*
D02*
G37*
G36*
X159700D02*
Y124100D01*
X161324D01*
X161255Y124451D01*
X160773Y125172D01*
X160051Y125654D01*
X159700Y125724D01*
D02*
G37*
G36*
X158700D02*
X158349Y125654D01*
X157627Y125172D01*
X157146Y124451D01*
X157076Y124100D01*
X158700D01*
Y125724D01*
D02*
G37*
G36*
X149700Y125424D02*
Y123800D01*
X151324D01*
X151254Y124151D01*
X150773Y124873D01*
X150051Y125355D01*
X149700Y125424D01*
D02*
G37*
G36*
X148700D02*
X148349Y125355D01*
X147627Y124873D01*
X147145Y124151D01*
X147076Y123800D01*
X148700D01*
Y125424D01*
D02*
G37*
G36*
X128025Y126200D02*
X123375D01*
X123460Y125772D01*
X123986Y124986D01*
X124362Y124734D01*
Y124133D01*
X123886Y123814D01*
X123360Y123028D01*
X123275Y122600D01*
X127925D01*
X127840Y123028D01*
X127314Y123814D01*
X126938Y124066D01*
Y124667D01*
X127414Y124986D01*
X127940Y125772D01*
X128025Y126200D01*
D02*
G37*
G36*
X254625Y125300D02*
X249975D01*
X250060Y124872D01*
X250586Y124086D01*
X250813Y123933D01*
Y123433D01*
X250486Y123214D01*
X249960Y122428D01*
X249875Y122000D01*
X254525D01*
X254440Y122428D01*
X253914Y123214D01*
X253687Y123367D01*
Y123867D01*
X254014Y124086D01*
X254540Y124872D01*
X254625Y125300D01*
D02*
G37*
G36*
X245324Y123100D02*
X243700D01*
Y121476D01*
X244051Y121546D01*
X244773Y122028D01*
X245255Y122749D01*
X245324Y123100D01*
D02*
G37*
G36*
X242700D02*
X241076D01*
X241145Y122749D01*
X241628Y122028D01*
X242349Y121546D01*
X242700Y121476D01*
Y123100D01*
D02*
G37*
G36*
X234824D02*
X233200D01*
Y121476D01*
X233551Y121546D01*
X234273Y122028D01*
X234755Y122749D01*
X234824Y123100D01*
D02*
G37*
G36*
X232200D02*
X230576D01*
X230645Y122749D01*
X231128Y122028D01*
X231849Y121546D01*
X232200Y121476D01*
Y123100D01*
D02*
G37*
G36*
X161324D02*
X159700D01*
Y121476D01*
X160051Y121546D01*
X160773Y122028D01*
X161255Y122749D01*
X161324Y123100D01*
D02*
G37*
G36*
X158700D02*
X157076D01*
X157146Y122749D01*
X157627Y122028D01*
X158349Y121546D01*
X158700Y121476D01*
Y123100D01*
D02*
G37*
G36*
X151324Y122800D02*
X149700D01*
Y121176D01*
X150051Y121246D01*
X150773Y121728D01*
X151254Y122449D01*
X151324Y122800D01*
D02*
G37*
G36*
X148700D02*
X147076D01*
X147145Y122449D01*
X147627Y121728D01*
X148349Y121246D01*
X148700Y121176D01*
Y122800D01*
D02*
G37*
G36*
X127925Y121600D02*
X123275D01*
X123360Y121172D01*
X123872Y120406D01*
X123939Y120274D01*
Y119926D01*
X123872Y119794D01*
X123360Y119028D01*
X123275Y118600D01*
X127925D01*
X127840Y119028D01*
X127328Y119794D01*
X127261Y119926D01*
Y120274D01*
X127328Y120406D01*
X127840Y121172D01*
X127925Y121600D01*
D02*
G37*
G36*
X254525Y121000D02*
X249875D01*
X249960Y120572D01*
X250472Y119806D01*
X250539Y119674D01*
Y119326D01*
X250472Y119194D01*
X249960Y118428D01*
X249875Y118000D01*
X254525D01*
X254440Y118428D01*
X253928Y119194D01*
X253861Y119326D01*
Y119674D01*
X253928Y119806D01*
X254440Y120572D01*
X254525Y121000D01*
D02*
G37*
G36*
X127925Y117600D02*
X123275D01*
X123360Y117172D01*
X123872Y116406D01*
X123939Y116274D01*
Y115926D01*
X123872Y115794D01*
X123360Y115028D01*
X123275Y114600D01*
X127925D01*
X127840Y115028D01*
X127328Y115794D01*
X127261Y115926D01*
Y116274D01*
X127328Y116406D01*
X127840Y117172D01*
X127925Y117600D01*
D02*
G37*
G36*
X254525Y117000D02*
X249875D01*
X249960Y116572D01*
X250472Y115806D01*
X250539Y115674D01*
Y115326D01*
X250472Y115194D01*
X249960Y114428D01*
X249875Y114000D01*
X254525D01*
X254440Y114428D01*
X253928Y115194D01*
X253861Y115326D01*
Y115674D01*
X253928Y115806D01*
X254440Y116572D01*
X254525Y117000D01*
D02*
G37*
G36*
X243700Y115224D02*
Y113600D01*
X245324D01*
X245255Y113951D01*
X244773Y114673D01*
X244051Y115155D01*
X243700Y115224D01*
D02*
G37*
G36*
X242700D02*
X242349Y115155D01*
X241628Y114673D01*
X241145Y113951D01*
X241076Y113600D01*
X242700D01*
Y115224D01*
D02*
G37*
G36*
X233200D02*
Y113600D01*
X234824D01*
X234755Y113951D01*
X234273Y114673D01*
X233551Y115155D01*
X233200Y115224D01*
D02*
G37*
G36*
X232200D02*
X231849Y115155D01*
X231128Y114673D01*
X230645Y113951D01*
X230576Y113600D01*
X232200D01*
Y115224D01*
D02*
G37*
G36*
X159700D02*
Y113600D01*
X161324D01*
X161255Y113951D01*
X160773Y114673D01*
X160051Y115155D01*
X159700Y115224D01*
D02*
G37*
G36*
X158700D02*
X158349Y115155D01*
X157627Y114673D01*
X157146Y113951D01*
X157076Y113600D01*
X158700D01*
Y115224D01*
D02*
G37*
G36*
X149700Y114924D02*
Y113300D01*
X151324D01*
X151254Y113651D01*
X150773Y114373D01*
X150051Y114855D01*
X149700Y114924D01*
D02*
G37*
G36*
X148700D02*
X148349Y114855D01*
X147627Y114373D01*
X147145Y113651D01*
X147076Y113300D01*
X148700D01*
Y114924D01*
D02*
G37*
G36*
X245324Y112600D02*
X243700D01*
Y110976D01*
X244051Y111046D01*
X244773Y111528D01*
X245255Y112249D01*
X245324Y112600D01*
D02*
G37*
G36*
X242700D02*
X241076D01*
X241145Y112249D01*
X241628Y111528D01*
X242349Y111046D01*
X242700Y110976D01*
Y112600D01*
D02*
G37*
G36*
X234824D02*
X233200D01*
Y110976D01*
X233551Y111046D01*
X234273Y111528D01*
X234755Y112249D01*
X234824Y112600D01*
D02*
G37*
G36*
X232200D02*
X230576D01*
X230645Y112249D01*
X231128Y111528D01*
X231849Y111046D01*
X232200Y110976D01*
Y112600D01*
D02*
G37*
G36*
X161324D02*
X159700D01*
Y110976D01*
X160051Y111046D01*
X160773Y111528D01*
X161255Y112249D01*
X161324Y112600D01*
D02*
G37*
G36*
X158700D02*
X157076D01*
X157146Y112249D01*
X157627Y111528D01*
X158349Y111046D01*
X158700Y110976D01*
Y112600D01*
D02*
G37*
G36*
X151324Y112300D02*
X149700D01*
Y110676D01*
X150051Y110746D01*
X150773Y111228D01*
X151254Y111949D01*
X151324Y112300D01*
D02*
G37*
G36*
X148700D02*
X147076D01*
X147145Y111949D01*
X147627Y111228D01*
X148349Y110746D01*
X148700Y110676D01*
Y112300D01*
D02*
G37*
G36*
X127925Y113600D02*
X123275D01*
X123360Y113172D01*
X123886Y112386D01*
X124014Y112300D01*
Y111800D01*
X123886Y111714D01*
X123360Y110928D01*
X123275Y110500D01*
X127925D01*
X127840Y110928D01*
X127314Y111714D01*
X127186Y111800D01*
Y112300D01*
X127314Y112386D01*
X127840Y113172D01*
X127925Y113600D01*
D02*
G37*
G36*
X254525Y113000D02*
X249875D01*
X249960Y112572D01*
X250486Y111786D01*
X250614Y111700D01*
Y111200D01*
X250486Y111114D01*
X249960Y110328D01*
X249875Y109900D01*
X254525D01*
X254440Y110328D01*
X253914Y111114D01*
X253786Y111200D01*
Y111700D01*
X253914Y111786D01*
X254440Y112572D01*
X254525Y113000D01*
D02*
G37*
G36*
X127925Y109500D02*
X123275D01*
X123360Y109072D01*
X123886Y108286D01*
X124014Y108200D01*
Y107700D01*
X123886Y107614D01*
X123360Y106828D01*
X123275Y106400D01*
X127925D01*
X127840Y106828D01*
X127314Y107614D01*
X127186Y107700D01*
Y108200D01*
X127314Y108286D01*
X127840Y109072D01*
X127925Y109500D01*
D02*
G37*
G36*
X254525Y108900D02*
X249875D01*
X249960Y108472D01*
X250486Y107686D01*
X250614Y107600D01*
Y107100D01*
X250486Y107014D01*
X249960Y106228D01*
X249875Y105800D01*
X254525D01*
X254440Y106228D01*
X253914Y107014D01*
X253786Y107100D01*
Y107600D01*
X253914Y107686D01*
X254440Y108472D01*
X254525Y108900D01*
D02*
G37*
G36*
X243700Y104724D02*
Y103100D01*
X245324D01*
X245255Y103451D01*
X244773Y104173D01*
X244051Y104655D01*
X243700Y104724D01*
D02*
G37*
G36*
X242700D02*
X242349Y104655D01*
X241628Y104173D01*
X241145Y103451D01*
X241076Y103100D01*
X242700D01*
Y104724D01*
D02*
G37*
G36*
X233200D02*
Y103100D01*
X234824D01*
X234755Y103451D01*
X234273Y104173D01*
X233551Y104655D01*
X233200Y104724D01*
D02*
G37*
G36*
X232200D02*
X231849Y104655D01*
X231128Y104173D01*
X230645Y103451D01*
X230576Y103100D01*
X232200D01*
Y104724D01*
D02*
G37*
G36*
X159700D02*
Y103100D01*
X161324D01*
X161255Y103451D01*
X160773Y104173D01*
X160051Y104655D01*
X159700Y104724D01*
D02*
G37*
G36*
X158700D02*
X158349Y104655D01*
X157627Y104173D01*
X157146Y103451D01*
X157076Y103100D01*
X158700D01*
Y104724D01*
D02*
G37*
G36*
X149700Y104624D02*
Y103000D01*
X151324D01*
X151254Y103351D01*
X150773Y104072D01*
X150051Y104554D01*
X149700Y104624D01*
D02*
G37*
G36*
X148700D02*
X148349Y104554D01*
X147627Y104072D01*
X147145Y103351D01*
X147076Y103000D01*
X148700D01*
Y104624D01*
D02*
G37*
G36*
X127925Y105400D02*
X123275D01*
X123360Y104972D01*
X123872Y104206D01*
X123939Y104074D01*
Y103726D01*
X123872Y103594D01*
X123360Y102828D01*
X123275Y102400D01*
X127925D01*
X127840Y102828D01*
X127328Y103594D01*
X127261Y103726D01*
Y104074D01*
X127328Y104206D01*
X127840Y104972D01*
X127925Y105400D01*
D02*
G37*
G36*
X254525Y104800D02*
X249875D01*
X249960Y104372D01*
X250472Y103606D01*
X250539Y103474D01*
Y103126D01*
X250472Y102994D01*
X249960Y102228D01*
X249875Y101800D01*
X254525D01*
X254440Y102228D01*
X253928Y102994D01*
X253861Y103126D01*
Y103474D01*
X253928Y103606D01*
X254440Y104372D01*
X254525Y104800D01*
D02*
G37*
G36*
X245324Y102100D02*
X243700D01*
Y100476D01*
X244051Y100546D01*
X244773Y101028D01*
X245255Y101749D01*
X245324Y102100D01*
D02*
G37*
G36*
X242700D02*
X241076D01*
X241145Y101749D01*
X241628Y101028D01*
X242349Y100546D01*
X242700Y100476D01*
Y102100D01*
D02*
G37*
G36*
X234824D02*
X233200D01*
Y100476D01*
X233551Y100546D01*
X234273Y101028D01*
X234755Y101749D01*
X234824Y102100D01*
D02*
G37*
G36*
X232200D02*
X230576D01*
X230645Y101749D01*
X231128Y101028D01*
X231849Y100546D01*
X232200Y100476D01*
Y102100D01*
D02*
G37*
G36*
X161324D02*
X159700D01*
Y100476D01*
X160051Y100546D01*
X160773Y101028D01*
X161255Y101749D01*
X161324Y102100D01*
D02*
G37*
G36*
X158700D02*
X157076D01*
X157146Y101749D01*
X157627Y101028D01*
X158349Y100546D01*
X158700Y100476D01*
Y102100D01*
D02*
G37*
G36*
X151324Y102000D02*
X149700D01*
Y100376D01*
X150051Y100445D01*
X150773Y100927D01*
X151254Y101649D01*
X151324Y102000D01*
D02*
G37*
G36*
X148700D02*
X147076D01*
X147145Y101649D01*
X147627Y100927D01*
X148349Y100445D01*
X148700Y100376D01*
Y102000D01*
D02*
G37*
G36*
X127925Y101400D02*
X123275D01*
X123360Y100972D01*
X123872Y100206D01*
X123939Y100074D01*
Y99726D01*
X123872Y99594D01*
X123360Y98828D01*
X123275Y98400D01*
X127925D01*
X127840Y98828D01*
X127328Y99594D01*
X127261Y99726D01*
Y100074D01*
X127328Y100206D01*
X127840Y100972D01*
X127925Y101400D01*
D02*
G37*
G36*
X254525Y100800D02*
X249875D01*
X249960Y100372D01*
X250472Y99606D01*
X250539Y99474D01*
Y99126D01*
X250472Y98994D01*
X249960Y98228D01*
X249875Y97800D01*
X254525D01*
X254440Y98228D01*
X253928Y98994D01*
X253861Y99126D01*
Y99474D01*
X253928Y99606D01*
X254440Y100372D01*
X254525Y100800D01*
D02*
G37*
G36*
X127925Y97400D02*
X126100D01*
Y95575D01*
X126528Y95660D01*
X127314Y96186D01*
X127840Y96972D01*
X127925Y97400D01*
D02*
G37*
G36*
X125100D02*
X123275D01*
X123360Y96972D01*
X123886Y96186D01*
X124672Y95660D01*
X125100Y95575D01*
Y97400D01*
D02*
G37*
G36*
X254525Y96800D02*
X252700D01*
Y94975D01*
X253128Y95060D01*
X253914Y95586D01*
X254440Y96372D01*
X254525Y96800D01*
D02*
G37*
G36*
X251700D02*
X249875D01*
X249960Y96372D01*
X250486Y95586D01*
X251272Y95060D01*
X251700Y94975D01*
Y96800D01*
D02*
G37*
G36*
X243700Y94224D02*
Y92600D01*
X245324D01*
X245255Y92951D01*
X244773Y93673D01*
X244051Y94155D01*
X243700Y94224D01*
D02*
G37*
G36*
X242700D02*
X242349Y94155D01*
X241628Y93673D01*
X241145Y92951D01*
X241076Y92600D01*
X242700D01*
Y94224D01*
D02*
G37*
G36*
X233200D02*
Y92600D01*
X234824D01*
X234755Y92951D01*
X234273Y93673D01*
X233551Y94155D01*
X233200Y94224D01*
D02*
G37*
G36*
X232200D02*
X231849Y94155D01*
X231128Y93673D01*
X230645Y92951D01*
X230576Y92600D01*
X232200D01*
Y94224D01*
D02*
G37*
G36*
X149700Y94024D02*
Y92400D01*
X151324D01*
X151254Y92751D01*
X150773Y93472D01*
X150051Y93954D01*
X149700Y94024D01*
D02*
G37*
G36*
X148700D02*
X148349Y93954D01*
X147627Y93472D01*
X147145Y92751D01*
X147076Y92400D01*
X148700D01*
Y94024D01*
D02*
G37*
G36*
X245324Y91600D02*
X243700D01*
Y89976D01*
X244051Y90045D01*
X244773Y90527D01*
X245255Y91249D01*
X245324Y91600D01*
D02*
G37*
G36*
X242700D02*
X241076D01*
X241145Y91249D01*
X241628Y90527D01*
X242349Y90045D01*
X242700Y89976D01*
Y91600D01*
D02*
G37*
G36*
X234824D02*
X233200D01*
Y89976D01*
X233551Y90045D01*
X234273Y90527D01*
X234755Y91249D01*
X234824Y91600D01*
D02*
G37*
G36*
X232200D02*
X230576D01*
X230645Y91249D01*
X231128Y90527D01*
X231849Y90045D01*
X232200Y89976D01*
Y91600D01*
D02*
G37*
G36*
X151324Y91400D02*
X149700D01*
Y89776D01*
X150051Y89846D01*
X150773Y90328D01*
X151254Y91049D01*
X151324Y91400D01*
D02*
G37*
G36*
X148700D02*
X147076D01*
X147145Y91049D01*
X147627Y90328D01*
X148349Y89846D01*
X148700Y89776D01*
Y91400D01*
D02*
G37*
G36*
X154500Y354325D02*
X154072Y354240D01*
X153286Y353714D01*
X152760Y352928D01*
X152675Y352500D01*
X154500D01*
Y354325D01*
D02*
G37*
G36*
Y351500D02*
X152675D01*
X152760Y351072D01*
X153286Y350286D01*
X154072Y349760D01*
X154500Y349675D01*
Y351500D01*
D02*
G37*
G36*
X144471Y342719D02*
X142297D01*
Y340250D01*
X144471D01*
Y342719D01*
D02*
G37*
G36*
X141297D02*
X139124D01*
Y340250D01*
X141297D01*
Y342719D01*
D02*
G37*
G36*
X198343Y291742D02*
X195874D01*
Y289569D01*
X198343D01*
Y291742D01*
D02*
G37*
G36*
X194874D02*
X192405D01*
Y289569D01*
X194874D01*
Y291742D01*
D02*
G37*
G36*
X198343Y288569D02*
X192405D01*
Y286396D01*
X193205D01*
X193357Y285896D01*
X193086Y285714D01*
X192560Y284928D01*
X192475Y284500D01*
X197125D01*
X197040Y284928D01*
X196514Y285714D01*
X196243Y285896D01*
X196395Y286396D01*
X198343D01*
Y288569D01*
D02*
G37*
G36*
X194300Y283500D02*
X192475D01*
X192560Y283072D01*
X193086Y282286D01*
X193872Y281760D01*
X194300Y281675D01*
Y283500D01*
D02*
G37*
G36*
X201829Y268510D02*
X198573D01*
Y266829D01*
X201829D01*
Y268510D01*
D02*
G37*
G36*
X192300Y268225D02*
Y266400D01*
X194125D01*
X194040Y266828D01*
X193514Y267614D01*
X192728Y268140D01*
X192300Y268225D01*
D02*
G37*
G36*
X191300D02*
X190872Y268140D01*
X190086Y267614D01*
X189560Y266828D01*
X189475Y266400D01*
X191300D01*
Y268225D01*
D02*
G37*
G36*
X194125Y265400D02*
X192300D01*
Y263575D01*
X192728Y263660D01*
X193514Y264186D01*
X194040Y264972D01*
X194125Y265400D01*
D02*
G37*
G36*
X191300D02*
X189475D01*
X189560Y264972D01*
X190086Y264186D01*
X190872Y263660D01*
X191300Y263575D01*
Y265400D01*
D02*
G37*
G36*
X46689Y193965D02*
X44515D01*
Y191496D01*
X46689D01*
Y193965D01*
D02*
G37*
G36*
Y190433D02*
X44515D01*
Y187964D01*
X46689D01*
Y190433D01*
D02*
G37*
G36*
Y186964D02*
X44515D01*
Y184496D01*
X46689D01*
Y186964D01*
D02*
G37*
G36*
X68425Y142500D02*
X66600D01*
Y140675D01*
X67028Y140760D01*
X67814Y141286D01*
X68340Y142072D01*
X68425Y142500D01*
D02*
G37*
G36*
X65600D02*
X63775D01*
X63860Y142072D01*
X64386Y141286D01*
X65172Y140760D01*
X65600Y140675D01*
Y142500D01*
D02*
G37*
%LPD*%
D10*
X33900Y379780D02*
D03*
Y385685D02*
D03*
X37300Y354009D02*
D03*
Y359914D02*
D03*
X138300Y257219D02*
D03*
Y263124D02*
D03*
X144900Y257219D02*
D03*
Y263124D02*
D03*
X238250Y311167D02*
D03*
Y305262D02*
D03*
X220250Y302215D02*
D03*
Y296309D02*
D03*
X207035Y345061D02*
D03*
Y339156D02*
D03*
X184035Y339156D02*
D03*
Y333250D02*
D03*
Y345844D02*
D03*
Y351750D02*
D03*
X214035Y339156D02*
D03*
Y345061D02*
D03*
D11*
X13429Y359914D02*
D03*
X29571D02*
D03*
Y353615D02*
D03*
X13429D02*
D03*
X118039Y379386D02*
D03*
X134181D02*
D03*
Y385685D02*
D03*
X118039D02*
D03*
X11614Y379386D02*
D03*
X27756D02*
D03*
Y385685D02*
D03*
X11614D02*
D03*
D12*
X4800Y354009D02*
D03*
Y359914D02*
D03*
X195374Y289069D02*
D03*
Y294974D02*
D03*
X37000Y294512D02*
D03*
Y300417D02*
D03*
X15500Y294512D02*
D03*
Y300417D02*
D03*
X4800Y379780D02*
D03*
Y385685D02*
D03*
X109500Y166417D02*
D03*
Y160512D02*
D03*
D13*
X186512Y305428D02*
D03*
Y312909D02*
D03*
X248439Y306306D02*
D03*
Y313786D02*
D03*
X229561Y312909D02*
D03*
Y305428D02*
D03*
D14*
X171752Y305262D02*
D03*
X177658D02*
D03*
X109453Y154500D02*
D03*
X103547D02*
D03*
X109453Y148200D02*
D03*
X103547D02*
D03*
X169047Y278265D02*
D03*
X174953D02*
D03*
X169047Y268200D02*
D03*
X174953D02*
D03*
X153866D02*
D03*
X159772D02*
D03*
X31094Y309965D02*
D03*
X37000D02*
D03*
X81047Y172900D02*
D03*
X86953D02*
D03*
X102453D02*
D03*
X96547D02*
D03*
X208234Y308715D02*
D03*
X202329D02*
D03*
D15*
X87981Y167674D02*
D03*
Y164524D02*
D03*
Y161375D02*
D03*
Y158225D02*
D03*
Y155076D02*
D03*
Y151926D02*
D03*
X96619D02*
D03*
Y155076D02*
D03*
Y158225D02*
D03*
Y161375D02*
D03*
Y164524D02*
D03*
Y167674D02*
D03*
D16*
X92300Y151540D02*
D03*
Y168060D02*
D03*
D17*
X60866Y304724D02*
D03*
Y297205D02*
D03*
X69134Y300965D02*
D03*
X162134Y278265D02*
D03*
X153866Y274505D02*
D03*
Y282024D02*
D03*
X199669Y329490D02*
D03*
Y337010D02*
D03*
X191402Y333250D02*
D03*
X199169Y347990D02*
D03*
Y355510D02*
D03*
X190902Y351750D02*
D03*
D18*
X48500Y309965D02*
D03*
Y298153D02*
D03*
D19*
X81535Y243815D02*
D03*
X74448D02*
D03*
X67362D02*
D03*
X81535Y236728D02*
D03*
X74448D02*
D03*
X67362D02*
D03*
X81535Y229642D02*
D03*
X74448D02*
D03*
X67362D02*
D03*
D20*
X44921Y274130D02*
D03*
X49921D02*
D03*
X54921D02*
D03*
X59921D02*
D03*
X64921D02*
D03*
X69921D02*
D03*
X74921D02*
D03*
X79921D02*
D03*
X84921D02*
D03*
X89921D02*
D03*
X94921D02*
D03*
X99921D02*
D03*
X104921D02*
D03*
X109921D02*
D03*
Y207201D02*
D03*
X104921D02*
D03*
X99921D02*
D03*
X94921D02*
D03*
X89921D02*
D03*
X84921D02*
D03*
X79921D02*
D03*
X74921D02*
D03*
X69921D02*
D03*
X64921D02*
D03*
X59921D02*
D03*
X54921D02*
D03*
X49921D02*
D03*
X44921D02*
D03*
D21*
X113858Y263165D02*
D03*
Y258165D02*
D03*
Y253165D02*
D03*
Y248165D02*
D03*
Y243165D02*
D03*
Y238165D02*
D03*
Y233165D02*
D03*
Y228165D02*
D03*
Y223165D02*
D03*
Y218165D02*
D03*
D22*
X172000Y293134D02*
D03*
X175760Y284866D02*
D03*
X168240D02*
D03*
D23*
X182629Y369790D02*
D03*
X179480D02*
D03*
X160582D02*
D03*
X157432D02*
D03*
D24*
X176921D02*
D03*
X174952D02*
D03*
X172984D02*
D03*
X171015D02*
D03*
X169047D02*
D03*
X167078D02*
D03*
X165110D02*
D03*
X163141D02*
D03*
D25*
X165221Y340084D02*
D03*
X163253D02*
D03*
X161284D02*
D03*
X159316D02*
D03*
X157347D02*
D03*
X155379D02*
D03*
Y324336D02*
D03*
X157347D02*
D03*
X159316D02*
D03*
X161284D02*
D03*
X163253D02*
D03*
X165190D02*
D03*
D26*
X152427Y337130D02*
D03*
X152427Y335162D02*
D03*
X152427Y333193D02*
D03*
X152427Y331225D02*
D03*
X152427Y329256D02*
D03*
X152427Y327288D02*
D03*
X168175D02*
D03*
X168175Y329256D02*
D03*
X168175Y331225D02*
D03*
X168175Y333193D02*
D03*
X168175Y335162D02*
D03*
X168175Y337130D02*
D03*
D27*
X160252Y332210D02*
D03*
D28*
X202329Y276490D02*
D03*
Y272750D02*
D03*
Y269010D02*
D03*
X212171D02*
D03*
Y276490D02*
D03*
X202329Y302455D02*
D03*
Y298715D02*
D03*
Y294974D02*
D03*
X212171D02*
D03*
Y302455D02*
D03*
D29*
X218203Y287000D02*
D03*
X212297D02*
D03*
X141797Y339750D02*
D03*
X147703D02*
D03*
X232953Y276490D02*
D03*
X227047D02*
D03*
X49921Y187465D02*
D03*
X44015D02*
D03*
X55015Y194465D02*
D03*
X60921D02*
D03*
X49921D02*
D03*
X44015D02*
D03*
D30*
X145977Y43812D02*
D03*
X136135D02*
D03*
X231410D02*
D03*
X241253D02*
D03*
D31*
X141056Y20584D02*
D03*
X236332D02*
D03*
D32*
X30134Y297905D02*
D03*
Y300465D02*
D03*
Y303024D02*
D03*
X21866D02*
D03*
Y300465D02*
D03*
Y297905D02*
D03*
D33*
X26000Y300465D02*
D03*
D34*
X239906Y324250D02*
D03*
X228095D02*
D03*
D35*
X248273Y384156D02*
D03*
X221501D02*
D03*
D36*
X238824Y363683D02*
D03*
X230950D02*
D03*
D37*
X196949Y244755D02*
D03*
X181201D02*
D03*
X168602D02*
D03*
X174902D02*
D03*
X193799D02*
D03*
X187500D02*
D03*
X184350D02*
D03*
X190650D02*
D03*
X171752D02*
D03*
X178051D02*
D03*
X165453D02*
D03*
X233169Y212471D02*
D03*
X230020D02*
D03*
X226870D02*
D03*
X220571D02*
D03*
X214272D02*
D03*
X211122D02*
D03*
X223721D02*
D03*
X217421D02*
D03*
X212697Y244755D02*
D03*
X215846D02*
D03*
X222146D02*
D03*
X231594D02*
D03*
X225295D02*
D03*
X218996D02*
D03*
X234744D02*
D03*
X228445D02*
D03*
X144980Y212471D02*
D03*
X148130D02*
D03*
X157579D02*
D03*
X163878D02*
D03*
X141831D02*
D03*
X160728D02*
D03*
X154429D02*
D03*
X167028D02*
D03*
X151280D02*
D03*
X156004Y244755D02*
D03*
X146555D02*
D03*
X149705D02*
D03*
X162303D02*
D03*
X159154D02*
D03*
X152854D02*
D03*
X143406D02*
D03*
X170177Y212471D02*
D03*
X192224D02*
D03*
X189075D02*
D03*
X185925D02*
D03*
X195374D02*
D03*
X176476D02*
D03*
X173327D02*
D03*
X182776D02*
D03*
X179626D02*
D03*
D38*
X245669Y242392D02*
D03*
X130905D02*
D03*
D39*
X74921Y207201D02*
Y215221D01*
X74900Y196300D02*
X77900Y193300D01*
X114400D01*
X141600Y220500D01*
X155700D01*
X157579Y218621D01*
Y212471D02*
Y218621D01*
X147550Y229750D02*
X213000D01*
X117050Y199250D02*
X147550Y229750D01*
X101750Y199250D02*
X117050D01*
X97000Y214250D02*
X125300D01*
X130400Y219350D01*
Y228800D01*
X136300Y234700D01*
X143600D01*
X145800Y232500D01*
X151750D01*
X15130Y385685D02*
X20045Y390600D01*
X31200D01*
X33900Y387900D01*
Y385685D02*
Y387900D01*
X25600Y339300D02*
Y375215D01*
X15130Y385685D02*
X25600Y375215D01*
X11614Y385685D02*
X15130D01*
X4800Y385685D02*
X4800Y385685D01*
X11614D01*
X25600Y339300D02*
X28470Y336430D01*
X30000D01*
Y330900D02*
Y336430D01*
X112000Y154500D02*
X112800Y155300D01*
X109453Y154500D02*
X112000D01*
X59000Y199500D02*
X87000D01*
X89921Y202421D01*
Y207201D01*
X218996Y235746D02*
Y244755D01*
X213000Y229750D02*
X218996Y235746D01*
X99921Y201079D02*
X101750Y199250D01*
X99921Y201079D02*
Y207201D01*
X94921D02*
Y212171D01*
X97000Y214250D01*
X151750Y232500D02*
X209250D01*
X215846Y239096D01*
Y244755D01*
X18750Y311000D02*
Y319650D01*
X30000Y330900D01*
D40*
X84921Y207201D02*
Y214979D01*
X100300Y219900D02*
X105200Y224800D01*
X85100Y219900D02*
X100300D01*
X79921Y214721D02*
X85100Y219900D01*
X105200Y263800D02*
X107600Y266200D01*
X105200Y224800D02*
Y263800D01*
X9300Y359914D02*
X13429D01*
X4800D02*
X9300D01*
X31900Y366200D02*
X33500D01*
X37300Y362400D01*
Y359914D02*
Y362400D01*
X13429Y359914D02*
X13429Y359914D01*
X79921Y207201D02*
Y214721D01*
X107600Y266200D02*
X120800D01*
X134300Y252700D01*
X143400D01*
X144900Y254200D01*
Y257219D01*
X202329Y302455D02*
X205795D01*
X207250Y301000D01*
Y291250D02*
Y301000D01*
X196500Y280500D02*
X207250Y291250D01*
X196500Y273750D02*
Y280500D01*
Y273750D02*
X197500Y272750D01*
X202329D01*
X147703Y339750D02*
X150323Y337130D01*
X152427D01*
X220010Y302455D02*
X220250Y302215D01*
X212171Y302455D02*
X220010D01*
X238250Y311167D02*
X240869Y313786D01*
X248439D01*
X208234Y308715D02*
Y311734D01*
X209409Y312909D01*
X229561D01*
X202329Y302455D02*
X202329Y302455D01*
Y308715D01*
X212171Y269010D02*
X232260D01*
X238250Y275000D01*
Y305262D01*
X168175Y326325D02*
X171250Y323250D01*
X168175Y326325D02*
Y327288D01*
X168175Y335162D02*
X170912D01*
X152427Y337130D02*
Y339392D01*
X155379Y340084D02*
X157347D01*
X168175Y331225D02*
X173573D01*
X135200Y344000D02*
X136700Y345500D01*
X135200Y336700D02*
Y344000D01*
Y336700D02*
X136738Y335162D01*
X152427D01*
D41*
X99100Y222600D02*
X101700Y225200D01*
X74500Y222600D02*
X99100D01*
X64921Y213021D02*
X74500Y222600D01*
X101700Y263400D02*
X106800Y268500D01*
X101700Y225200D02*
Y263400D01*
X20250Y346100D02*
Y370750D01*
Y329000D02*
Y346100D01*
X16400D02*
X20250D01*
X13429Y349071D02*
X16400Y346100D01*
X13429Y349071D02*
Y353615D01*
X11614Y379386D02*
X20250Y370750D01*
X171752Y305262D02*
Y308452D01*
X174100Y310800D01*
X175400D01*
X179600Y315000D01*
Y337400D01*
X181356Y339156D01*
X184035D01*
X186345Y305262D02*
X186512Y305428D01*
X177658Y305262D02*
X186345D01*
X180384Y297116D02*
X185700Y291800D01*
X160816Y297116D02*
X180384D01*
X153866Y290166D02*
X160816Y297116D01*
X87700Y300400D02*
Y301200D01*
X86000Y298700D02*
X87700Y300400D01*
X112000Y185200D02*
X113900Y183300D01*
Y182100D02*
Y183300D01*
X114500Y179000D02*
Y181500D01*
X113900Y182100D02*
X114500Y181500D01*
X109900Y182100D02*
X113900D01*
X108800Y181000D02*
X109900Y182100D01*
X108800Y179000D02*
Y181000D01*
X45900Y183707D02*
X46689Y184496D01*
X45900Y180200D02*
Y183707D01*
X75000Y157100D02*
X76200Y155900D01*
X80700D01*
X49921Y160900D02*
Y187465D01*
Y151579D02*
Y160900D01*
X53521Y157300D01*
X57100D01*
X64300Y164500D01*
X76494D01*
X81047Y169053D01*
X82426Y167674D01*
X49921Y151579D02*
X87634D01*
X116100Y147100D02*
Y158400D01*
X113988Y160512D02*
X116100Y158400D01*
X109500Y160512D02*
X113988D01*
X114300Y145300D02*
X116100Y147100D01*
X112353Y145300D02*
X114300D01*
X103547Y154500D02*
Y160453D01*
X99476Y164524D02*
X103547Y160453D01*
X96619Y164524D02*
X99476D01*
X109453Y148200D02*
X112353Y145300D01*
X109800Y141000D02*
X114100Y145300D01*
X72600Y141000D02*
X109800D01*
X107288Y160512D02*
X109500D01*
X102453Y165347D02*
X107288Y160512D01*
X102453Y165347D02*
Y172900D01*
X102147Y146800D02*
X103547Y148200D01*
X93400Y146800D02*
X102147D01*
X92300Y147900D02*
X93400Y146800D01*
X92300Y147900D02*
Y151540D01*
X81725Y158225D02*
Y163125D01*
X83124Y164524D01*
X87981D01*
X81725Y158225D02*
X87981D01*
X80700Y157200D02*
X81725Y158225D01*
X80700Y155900D02*
Y157200D01*
Y155900D02*
X81524Y155076D01*
X87981D01*
X87634Y151579D02*
X87981Y151926D01*
X82426Y167674D02*
X87981D01*
X81047Y169053D02*
Y172900D01*
X96547D02*
Y178653D01*
X93641Y181559D02*
X96547Y178653D01*
X63691Y181559D02*
X93641D01*
X75000Y167800D02*
Y176600D01*
X75800Y177400D01*
X85300D01*
X86953Y175747D01*
Y172900D02*
Y175747D01*
X92300Y168060D02*
Y172400D01*
X91800Y172900D02*
X92300Y172400D01*
X86953Y172900D02*
X91800D01*
X96547D02*
X96619Y172828D01*
Y167674D02*
Y172828D01*
X126936Y368364D02*
X132864D01*
X125100Y370200D02*
X126936Y368364D01*
X125100Y370200D02*
Y382000D01*
X128785Y385685D01*
X134181D01*
X153866Y282024D02*
Y290166D01*
X185700Y269300D02*
Y291800D01*
X180200Y263800D02*
X185700Y269300D01*
X164200Y263800D02*
X180200D01*
X162400Y262000D02*
X164200Y263800D01*
X151500Y262000D02*
X162400D01*
X150376Y263124D02*
X151500Y262000D01*
X144900Y263124D02*
X150376D01*
X138300D02*
X144900D01*
X159772Y268200D02*
Y270428D01*
X158500Y271700D02*
X159772Y270428D01*
X149600Y271700D02*
X158500D01*
X146400Y268500D02*
X149600Y271700D01*
X106800Y268500D02*
X146400D01*
X88400Y226500D02*
Y247650D01*
X88500Y247750D01*
X80750Y255500D02*
X88500Y247750D01*
X64921Y207201D02*
Y213021D01*
X159772Y268200D02*
X169047D01*
X172000Y293134D02*
X177666D01*
X181400Y289400D01*
Y271500D02*
Y289400D01*
X178100Y268200D02*
X181400Y271500D01*
X174953Y268200D02*
X178100D01*
X168240Y279072D02*
Y284866D01*
Y279072D02*
X169047Y278265D01*
X162134D02*
X169047D01*
X153866Y282024D02*
X153866Y282024D01*
X131000Y344000D02*
X135200D01*
X117800Y357200D02*
X131000Y344000D01*
X86800Y357200D02*
X117800D01*
X82400Y352800D02*
X86800Y357200D01*
X82400Y345800D02*
Y352800D01*
X77400Y340800D02*
X82400Y345800D01*
X72300Y340800D02*
X77400D01*
X60866Y329366D02*
X72300Y340800D01*
X115000Y362250D02*
X121114Y368364D01*
X72450Y362250D02*
X115000D01*
X121114Y368364D02*
X132864D01*
X42500Y330250D02*
X45125Y332875D01*
X54275D01*
X63400Y342000D01*
Y353200D01*
X72450Y362250D01*
X136700Y345500D02*
X151500D01*
X121380Y274130D02*
X131750Y284500D01*
X109921Y274130D02*
X121380D01*
X214035Y345061D02*
Y353215D01*
X211740Y355510D02*
X214035Y353215D01*
X199169Y355510D02*
X211740D01*
X208000Y351750D02*
X210250Y349500D01*
X190902Y351750D02*
X208000D01*
X49921Y207201D02*
Y260329D01*
X21866Y288384D02*
X49921Y260329D01*
X21866Y288384D02*
Y297905D01*
X60579Y129866D02*
Y140921D01*
X49921Y151579D02*
X60579Y140921D01*
X54921Y194559D02*
X55015Y194465D01*
X54921Y194559D02*
Y207201D01*
Y216671D02*
X55000Y216750D01*
X54921Y207201D02*
Y216671D01*
X42500Y319500D02*
Y330250D01*
X61500Y255500D02*
X80750D01*
X54921Y262079D02*
X61500Y255500D01*
X54921Y262079D02*
Y274130D01*
X69921Y263579D02*
X70000Y263500D01*
X69921Y263579D02*
Y274130D01*
X62250Y183000D02*
X63691Y181559D01*
X108550Y159562D02*
X109500Y160512D01*
X30134Y297905D02*
Y300465D01*
X36953D02*
X37000Y300417D01*
X30134Y300465D02*
X36953D01*
X37000Y309965D02*
X37000Y309965D01*
X48500D01*
X60866Y304724D02*
Y329366D01*
X56526Y304724D02*
X60866D01*
X51285Y309965D02*
X56526Y304724D01*
X48500Y309965D02*
X51285D01*
X43597Y298153D02*
X48500D01*
X41333Y300417D02*
X43597Y298153D01*
X37000Y300417D02*
X41333D01*
X48500Y298153D02*
X55097D01*
X56045Y297205D01*
X60866D01*
X189750Y342250D02*
X191402Y340598D01*
Y333250D02*
Y340598D01*
X15500Y324250D02*
X20250Y329000D01*
X15500Y300417D02*
Y324250D01*
X39570Y339430D02*
X39750Y339250D01*
X49921Y187465D02*
Y194465D01*
X49921Y194465D01*
Y207201D01*
X15500Y300417D02*
X15547Y300465D01*
X21866D01*
Y297905D02*
Y300465D01*
X155379Y343629D02*
X157000Y345250D01*
X155379Y340084D02*
Y343629D01*
X176656Y345844D02*
X184035D01*
X212297Y287000D02*
Y288152D01*
X178260Y355510D02*
X199169D01*
X173750Y351000D02*
X178260Y355510D01*
X173750Y338000D02*
Y351000D01*
X170912Y335162D02*
X173750Y338000D01*
X194500Y325250D02*
X195500Y326250D01*
Y335250D01*
X197260Y337010D01*
X199669D01*
X171250Y323250D02*
X171500D01*
X170750Y317000D02*
X174750Y321000D01*
X95500Y317000D02*
X170750D01*
X172250Y314750D02*
X177000Y319500D01*
X97750Y314750D02*
X172250D01*
X59921Y274130D02*
Y281421D01*
X95500Y317000D01*
X64921Y281921D02*
X97750Y314750D01*
X64921Y274130D02*
Y281921D01*
X184035Y339156D02*
Y345844D01*
X190902Y351750D02*
X190902Y351750D01*
X184035Y351750D02*
X190902D01*
X191402Y333250D02*
X191402Y333250D01*
X184035Y333250D02*
X191402D01*
X214035Y335035D02*
Y339156D01*
X208490Y329490D02*
X214035Y335035D01*
X199669Y329490D02*
X208490D01*
X204890Y337010D02*
X207035Y339156D01*
X199669Y337010D02*
X204890D01*
X204106Y347990D02*
X207035Y345061D01*
X199169Y347990D02*
X204106D01*
X152427Y339392D02*
X153119Y340084D01*
X155379D01*
X177000Y319500D02*
Y327798D01*
X173573Y331225D02*
X177000Y327798D01*
X60579Y129866D02*
X61466D01*
X72600Y141000D01*
X168175Y329256D02*
X172634D01*
X174750Y327140D01*
Y321000D02*
Y327140D01*
D42*
X186100Y300000D02*
X191126Y294974D01*
X154750Y300000D02*
X186100D01*
X152750Y298000D02*
X154750Y300000D01*
X174953Y278265D02*
X175200Y278017D01*
Y273000D02*
Y278017D01*
X191126Y294974D02*
X195374D01*
X174953Y278265D02*
X175760Y279072D01*
Y284866D01*
X230950Y331950D02*
Y363683D01*
X146250Y198000D02*
X188000D01*
X141831Y202419D02*
X146250Y198000D01*
X185925Y200075D02*
X188000Y198000D01*
X229000D01*
X233169Y202169D01*
X212171Y276490D02*
X227047D01*
X159154Y252904D02*
X166500Y260250D01*
X204250D01*
X207250Y263250D01*
X69134Y300965D02*
X70465D01*
X91795Y322295D01*
Y349465D01*
X212297Y288152D02*
X215646Y291500D01*
X212171Y294974D02*
X215646Y291500D01*
X224750D01*
X229561Y296311D01*
Y305428D01*
X228095Y324250D02*
Y329095D01*
X230950Y331950D01*
X202329Y294974D02*
X202329Y294974D01*
X195374Y294974D02*
X202329D01*
X195374D02*
Y313874D01*
X205750Y324250D01*
X228095D01*
D43*
X169047Y364716D02*
X169706Y364056D01*
X171756D01*
X172984Y365284D01*
Y369790D01*
X167078D02*
Y374078D01*
X167600Y374600D01*
X170000D01*
X171015Y373585D01*
Y369790D02*
Y373585D01*
X159250Y350715D02*
Y357478D01*
X161284Y344034D02*
X162000Y344750D01*
X169047Y364716D02*
Y369790D01*
X161809Y357478D02*
X169047Y364716D01*
X161809Y349216D02*
Y357478D01*
X159316Y340084D02*
Y346723D01*
X161284Y340084D02*
Y344034D01*
X136135Y43812D02*
X145977D01*
X137216Y20584D02*
X141056D01*
X136135Y21665D02*
X137216Y20584D01*
X136135Y21665D02*
Y43812D01*
X231410D02*
X241253D01*
Y36747D02*
Y43812D01*
X236332Y20584D02*
X240584D01*
X243200Y23200D01*
Y34800D01*
X241253Y36747D02*
X243200Y34800D01*
X136135Y43812D02*
Y89965D01*
X136000Y90100D02*
X136135Y89965D01*
X231410Y43812D02*
Y83390D01*
X46100Y200000D02*
X47800Y198300D01*
Y197800D02*
Y198300D01*
X46100Y199300D02*
Y200000D01*
X44015Y197215D02*
X46100Y199300D01*
X44015Y194465D02*
Y197215D01*
X44921Y201179D02*
Y207201D01*
Y201179D02*
X46100Y200000D01*
X154132Y352868D02*
Y357478D01*
Y352868D02*
X155000Y352000D01*
X74448Y229642D02*
Y236728D01*
D44*
X179480Y369790D02*
Y376420D01*
X177500Y378400D02*
X179480Y376420D01*
X163300Y378400D02*
X177500D01*
X160582Y375682D02*
X163300Y378400D01*
X160582Y369790D02*
Y375682D01*
Y365082D02*
Y369790D01*
X158143Y362643D02*
X160582Y365082D01*
X152043Y362643D02*
X158143D01*
X147800Y349200D02*
X151500Y345500D01*
X147800Y349200D02*
Y358400D01*
X152043Y362643D01*
X141831Y202419D02*
Y212471D01*
X185925Y200075D02*
Y212471D01*
X233169Y202169D02*
Y212471D01*
X185925D02*
Y219575D01*
X162303Y235197D02*
Y244755D01*
X159154D02*
X162303D01*
X159154D02*
Y252904D01*
D45*
X159250Y357478D02*
Y358450D01*
X167078Y366278D01*
Y369790D01*
X163253Y335211D02*
Y340084D01*
X160252Y332210D02*
X163253Y335211D01*
Y340084D02*
Y341953D01*
X164400Y343100D01*
D46*
X159316Y346723D02*
X161809Y349216D01*
D47*
X207250Y263250D02*
Y271569D01*
X212171Y276490D01*
X109500Y166417D02*
X121217D01*
X122800Y168000D01*
D48*
X153023Y372152D02*
D03*
X187039D02*
D03*
D49*
X187039Y387900D02*
D03*
X153023D02*
D03*
D50*
X236332Y31410D02*
D03*
D51*
X141056D02*
D03*
D52*
X111839Y35771D02*
D03*
X19319D02*
D03*
X111839Y129472D02*
D03*
X19319D02*
D03*
X80579Y130078D02*
D03*
X70579Y129866D02*
D03*
X60579D02*
D03*
X50579D02*
D03*
D53*
X54000Y349465D02*
D03*
X72898D02*
D03*
X91795D02*
D03*
D54*
X46716Y385685D02*
D03*
X99079D02*
D03*
D55*
X237500Y228613D02*
D03*
D56*
X139075Y228613D02*
D03*
D57*
X74921Y215221D02*
D03*
X74900Y196300D02*
D03*
X84921Y214979D02*
D03*
X31900Y366200D02*
D03*
X9300Y359914D02*
D03*
X20250Y329000D02*
D03*
X158900Y186700D02*
D03*
X232500D02*
D03*
X243000D02*
D03*
Y176200D02*
D03*
X232500D02*
D03*
X159200D02*
D03*
Y165600D02*
D03*
X232700D02*
D03*
X243200D02*
D03*
Y155100D02*
D03*
X232700D02*
D03*
X159200D02*
D03*
Y144600D02*
D03*
X232700D02*
D03*
X243200D02*
D03*
Y134100D02*
D03*
X232700D02*
D03*
X159200D02*
D03*
Y123600D02*
D03*
X232700D02*
D03*
X243200D02*
D03*
Y113100D02*
D03*
X232700D02*
D03*
X159200D02*
D03*
Y102600D02*
D03*
X232700D02*
D03*
X243200D02*
D03*
Y92100D02*
D03*
X232700D02*
D03*
X149200Y91900D02*
D03*
Y102500D02*
D03*
Y112800D02*
D03*
Y123300D02*
D03*
Y133900D02*
D03*
Y144400D02*
D03*
Y154900D02*
D03*
Y165400D02*
D03*
Y175900D02*
D03*
X149400Y186200D02*
D03*
X249800Y253100D02*
D03*
X243900D02*
D03*
X238000D02*
D03*
X232200D02*
D03*
X226300D02*
D03*
X220300D02*
D03*
X214400D02*
D03*
X208500D02*
D03*
X202500D02*
D03*
X196500D02*
D03*
X190600D02*
D03*
X184700D02*
D03*
X178700D02*
D03*
X172800D02*
D03*
X166900D02*
D03*
X122200Y259200D02*
D03*
Y255200D02*
D03*
Y251200D02*
D03*
Y247200D02*
D03*
Y243200D02*
D03*
Y239200D02*
D03*
Y235200D02*
D03*
Y231100D02*
D03*
Y227000D02*
D03*
Y222900D02*
D03*
Y218800D02*
D03*
X89200Y283700D02*
D03*
X92200D02*
D03*
X95200D02*
D03*
X98200D02*
D03*
X101200D02*
D03*
X104200D02*
D03*
Y286700D02*
D03*
X104100Y289800D02*
D03*
Y292800D02*
D03*
Y295800D02*
D03*
Y298800D02*
D03*
X101200D02*
D03*
X98200D02*
D03*
X95100Y298700D02*
D03*
X92100D02*
D03*
X89100D02*
D03*
X86000D02*
D03*
Y295600D02*
D03*
Y292600D02*
D03*
Y289600D02*
D03*
Y286600D02*
D03*
Y283500D02*
D03*
X178200Y358300D02*
D03*
X175400D02*
D03*
X172600D02*
D03*
X169800D02*
D03*
X167000D02*
D03*
X101100Y347200D02*
D03*
Y344200D02*
D03*
Y341200D02*
D03*
Y338100D02*
D03*
Y335000D02*
D03*
Y332000D02*
D03*
Y329000D02*
D03*
X101000Y325500D02*
D03*
X75000Y157100D02*
D03*
X112800Y155300D02*
D03*
D58*
X80700Y155900D02*
D03*
X75000Y167800D02*
D03*
X191800Y265900D02*
D03*
X215900Y308900D02*
D03*
X194800Y284000D02*
D03*
X159250Y350715D02*
D03*
X162000Y344750D02*
D03*
X175200Y273000D02*
D03*
X88400Y226500D02*
D03*
X131750Y284500D02*
D03*
X210250Y349500D02*
D03*
X18750Y311000D02*
D03*
X59000Y199500D02*
D03*
X185925Y219575D02*
D03*
X162303Y235197D02*
D03*
X55000Y216750D02*
D03*
X42500Y319500D02*
D03*
X70000Y263500D02*
D03*
X62250Y183000D02*
D03*
X152750Y298000D02*
D03*
X189750Y342250D02*
D03*
X132864Y368364D02*
D03*
X39750Y339250D02*
D03*
X157000Y345250D02*
D03*
X176656Y345844D02*
D03*
X151500Y345500D02*
D03*
X215646Y291500D02*
D03*
X219500Y276500D02*
D03*
X194500Y325250D02*
D03*
X171500Y323250D02*
D03*
X66100Y143000D02*
D03*
X125700Y166900D02*
D03*
Y162500D02*
D03*
Y158100D02*
D03*
Y153700D02*
D03*
Y149200D02*
D03*
Y144700D02*
D03*
Y140200D02*
D03*
Y135700D02*
D03*
Y131200D02*
D03*
Y126700D02*
D03*
X125600Y122100D02*
D03*
Y118100D02*
D03*
Y114100D02*
D03*
Y110000D02*
D03*
Y101900D02*
D03*
Y97900D02*
D03*
Y105900D02*
D03*
X54200Y189900D02*
D03*
X45900Y180200D02*
D03*
X46100Y200000D02*
D03*
X155000Y352000D02*
D03*
X140300Y353400D02*
D03*
X108800Y179000D02*
D03*
X114500D02*
D03*
X252200Y105300D02*
D03*
Y97300D02*
D03*
Y101300D02*
D03*
Y109400D02*
D03*
Y113500D02*
D03*
Y117500D02*
D03*
Y121500D02*
D03*
X252300Y125800D02*
D03*
Y130600D02*
D03*
Y135100D02*
D03*
Y139600D02*
D03*
Y144100D02*
D03*
Y148600D02*
D03*
Y153100D02*
D03*
Y157500D02*
D03*
Y161900D02*
D03*
Y166300D02*
D03*
M02*
